%TF.GenerationSoftware,KiCad,Pcbnew,10.0.3*%
%TF.CreationDate,2026-06-05T21:52:36+02:00*%
%TF.ProjectId,rp-hub75-panel,72702d68-7562-4373-952d-70616e656c2e,rev?*%
%TF.SameCoordinates,Original*%
%TF.FileFunction,Drillmap*%
%TF.FilePolarity,Positive*%
%FSLAX45Y45*%
G04 Gerber Fmt 4.5, Leading zero omitted, Abs format (unit mm)*
G04 Created by KiCad (PCBNEW 10.0.3) date 2026-06-05 21:52:36*
%MOMM*%
%LPD*%
G01*
G04 APERTURE LIST*
%ADD10C,0.100000*%
%ADD11C,0.200000*%
%ADD12C,0.130000*%
%ADD13C,0.230000*%
G04 APERTURE END LIST*
D10*
X0Y-1227D02*
X82Y-499962D01*
X0Y-1050633D02*
X0Y-5649367D01*
X0Y-5649367D02*
X289Y-5661398D01*
X65Y-6599952D02*
X8499952Y-6599934D01*
X82Y-499962D02*
X1083432Y-500000D01*
X82Y-6100038D02*
X65Y-6599952D01*
X124Y-27D02*
X0Y-1227D01*
X289Y-5661398D02*
X1187Y-5674031D01*
X545Y-1031012D02*
X0Y-1050633D01*
X1187Y-5674031D02*
X2723Y-5686603D01*
X1955Y-1013337D02*
X545Y-1031012D01*
X2723Y-5686603D02*
X4894Y-5699080D01*
X4259Y-995756D02*
X1955Y-1013337D01*
X4894Y-5699080D02*
X8329Y-5713881D01*
X7451Y-978311D02*
X4259Y-995756D01*
X8329Y-5713881D02*
X11117Y-5723625D01*
X10887Y-963503D02*
X7451Y-978311D01*
X11117Y-5723625D02*
X15152Y-5735627D01*
X15152Y-5735627D02*
X19792Y-5747415D01*
X15703Y-946441D02*
X10887Y-963503D01*
X19792Y-5747415D02*
X26135Y-5761221D01*
X21378Y-929639D02*
X15703Y-946441D01*
X26135Y-5761221D02*
X32055Y-5772415D01*
X28894Y-910824D02*
X21378Y-929639D01*
X32055Y-5772415D02*
X37196Y-5781149D01*
X35241Y-897011D02*
X28894Y-910824D01*
X37196Y-5781149D02*
X45557Y-5793836D01*
X43392Y-881267D02*
X35241Y-897011D01*
X45557Y-5793836D02*
X53107Y-5804008D01*
X53107Y-5804008D02*
X61158Y-5813781D01*
X53670Y-863807D02*
X43392Y-881267D01*
X61158Y-5813781D02*
X67954Y-5821303D01*
X63483Y-849035D02*
X53670Y-863807D01*
X67954Y-5821303D02*
X78698Y-5832047D01*
X72480Y-836782D02*
X63483Y-849035D01*
X78698Y-5832047D02*
X86219Y-5838842D01*
X83634Y-823001D02*
X72480Y-836782D01*
X86219Y-5838842D02*
X95992Y-5846893D01*
X95473Y-809801D02*
X83634Y-823001D01*
X95992Y-5846893D02*
X106164Y-5854442D01*
X106164Y-5854442D02*
X118851Y-5862804D01*
X107968Y-797216D02*
X95473Y-809801D01*
X118851Y-5862804D02*
X127585Y-5867945D01*
X123001Y-783634D02*
X107968Y-797216D01*
X127585Y-5867945D02*
X138779Y-5873864D01*
X136782Y-772480D02*
X123001Y-783634D01*
X138779Y-5873864D02*
X152585Y-5880208D01*
X149035Y-763483D02*
X136782Y-772480D01*
X152585Y-5880208D02*
X162000Y-5883969D01*
X162000Y-5883969D02*
X173960Y-5888125D01*
X163807Y-753670D02*
X149035Y-763483D01*
X173960Y-5888125D02*
X188568Y-5892305D01*
X181265Y-743393D02*
X163807Y-753670D01*
X188568Y-5892305D02*
X200922Y-5895106D01*
X197013Y-735239D02*
X181265Y-743393D01*
X200922Y-5895106D02*
X210898Y-5896894D01*
X210827Y-728893D02*
X197013Y-735239D01*
X210898Y-5896894D02*
X223451Y-5898557D01*
X223451Y-5898557D02*
X236077Y-5899583D01*
X227267Y-722257D02*
X210827Y-728893D01*
X236077Y-5899583D02*
X250632Y-5900000D01*
X244026Y-716460D02*
X227267Y-722257D01*
X250632Y-5900000D02*
X1083432Y-5900000D01*
X263506Y-710887D02*
X244026Y-716460D01*
X280790Y-706941D02*
X263506Y-710887D01*
X295756Y-704259D02*
X280790Y-706941D01*
X315854Y-701699D02*
X295756Y-704259D01*
X333537Y-700417D02*
X315854Y-701699D01*
X349367Y-700016D02*
X333537Y-700417D01*
X1083432Y-500000D02*
X1088335Y-500120D01*
X1083432Y-700000D02*
X349367Y-700016D01*
X1083432Y-5900000D02*
X1088335Y-5900120D01*
X1083432Y-6100000D02*
X82Y-6100038D01*
X1088335Y-500120D02*
X1093225Y-500481D01*
X1088335Y-699880D02*
X1083432Y-700000D01*
X1088335Y-5900120D02*
X1093225Y-5900481D01*
X1088335Y-6099880D02*
X1083432Y-6100000D01*
X1093225Y-500481D02*
X1098092Y-501081D01*
X1093225Y-699519D02*
X1088335Y-699880D01*
X1093225Y-5900481D02*
X1098092Y-5901081D01*
X1093225Y-6099519D02*
X1088335Y-6099880D01*
X1098092Y-501081D02*
X1102923Y-501919D01*
X1098092Y-698919D02*
X1093225Y-699519D01*
X1098092Y-5901081D02*
X1102923Y-5901919D01*
X1098092Y-6098919D02*
X1093225Y-6099519D01*
X1102923Y-501919D02*
X1107707Y-502994D01*
X1102923Y-698080D02*
X1098092Y-698919D01*
X1102923Y-5901919D02*
X1107707Y-5902994D01*
X1102923Y-6098080D02*
X1098092Y-6098919D01*
X1107707Y-502994D02*
X1112433Y-504302D01*
X1107707Y-697006D02*
X1102923Y-698080D01*
X1107707Y-5902994D02*
X1112433Y-5904302D01*
X1107707Y-6097006D02*
X1102923Y-6098080D01*
X1112433Y-504302D02*
X1117089Y-505840D01*
X1112433Y-695698D02*
X1107707Y-697006D01*
X1112433Y-5904302D02*
X1117089Y-5905840D01*
X1112433Y-6095698D02*
X1107707Y-6097006D01*
X1117089Y-505840D02*
X1121663Y-507604D01*
X1117089Y-694160D02*
X1112433Y-695698D01*
X1117089Y-5905840D02*
X1121663Y-5907604D01*
X1117089Y-6094160D02*
X1112433Y-6095698D01*
X1121663Y-507604D02*
X1126146Y-509591D01*
X1121663Y-692396D02*
X1117089Y-694160D01*
X1121663Y-5907604D02*
X1126146Y-5909591D01*
X1121663Y-6092395D02*
X1117089Y-6094160D01*
X1126146Y-509591D02*
X1130526Y-511796D01*
X1126146Y-690409D02*
X1121663Y-692396D01*
X1126146Y-5909591D02*
X1130526Y-5911796D01*
X1126146Y-6090408D02*
X1121663Y-6092395D01*
X1130526Y-511796D02*
X1134792Y-514213D01*
X1130526Y-688204D02*
X1126146Y-690409D01*
X1130526Y-5911796D02*
X1134792Y-5914213D01*
X1130526Y-6088204D02*
X1126146Y-6090408D01*
X1134792Y-514213D02*
X1138935Y-516836D01*
X1134792Y-685787D02*
X1130526Y-688204D01*
X1134792Y-5914213D02*
X1138935Y-5916836D01*
X1134792Y-6085787D02*
X1130526Y-6088204D01*
X1138935Y-516836D02*
X1142944Y-519659D01*
X1138935Y-683164D02*
X1134792Y-685787D01*
X1138935Y-5916836D02*
X1142944Y-5919659D01*
X1138935Y-6083164D02*
X1134792Y-6085787D01*
X1142944Y-519659D02*
X1146809Y-522676D01*
X1142944Y-680340D02*
X1138935Y-683164D01*
X1142944Y-5919659D02*
X1146809Y-5922676D01*
X1142944Y-6080340D02*
X1138935Y-6083164D01*
X1146809Y-522676D02*
X1150522Y-525879D01*
X1146809Y-677324D02*
X1142944Y-680340D01*
X1146809Y-5922676D02*
X1150522Y-5925879D01*
X1146809Y-6077324D02*
X1142944Y-6080340D01*
X1150522Y-525879D02*
X1154073Y-529260D01*
X1150522Y-674121D02*
X1146809Y-677324D01*
X1150522Y-5925879D02*
X1154073Y-5929260D01*
X1150522Y-6074121D02*
X1146809Y-6077324D01*
X1154073Y-529260D02*
X1157454Y-532811D01*
X1154073Y-670740D02*
X1150522Y-674121D01*
X1154073Y-5929260D02*
X1157454Y-5932811D01*
X1154073Y-6070740D02*
X1150522Y-6074121D01*
X1157454Y-532811D02*
X1160657Y-536524D01*
X1157454Y-667189D02*
X1154073Y-670740D01*
X1157454Y-5932811D02*
X1160657Y-5936524D01*
X1157454Y-6067189D02*
X1154073Y-6070740D01*
X1160657Y-536524D02*
X1163674Y-540390D01*
X1160657Y-663476D02*
X1157454Y-667189D01*
X1160657Y-5936524D02*
X1163674Y-5940390D01*
X1160657Y-6063476D02*
X1157454Y-6067189D01*
X1163674Y-540390D02*
X1166497Y-544399D01*
X1163674Y-659610D02*
X1160657Y-663476D01*
X1163674Y-5940390D02*
X1166497Y-5944398D01*
X1163674Y-6059610D02*
X1160657Y-6063476D01*
X1166497Y-544399D02*
X1169120Y-548541D01*
X1166497Y-655601D02*
X1163674Y-659610D01*
X1166497Y-5944398D02*
X1169120Y-5948541D01*
X1166497Y-6055601D02*
X1163674Y-6059610D01*
X1169120Y-548541D02*
X1171537Y-552807D01*
X1169120Y-651459D02*
X1166497Y-655601D01*
X1169120Y-5948541D02*
X1171537Y-5952807D01*
X1169120Y-6051459D02*
X1166497Y-6055601D01*
X1171537Y-552807D02*
X1173742Y-557187D01*
X1171537Y-647193D02*
X1169120Y-651459D01*
X1171537Y-5952807D02*
X1173742Y-5957187D01*
X1171537Y-6047192D02*
X1169120Y-6051459D01*
X1173742Y-557187D02*
X1175729Y-561670D01*
X1173742Y-642813D02*
X1171537Y-647193D01*
X1173742Y-5957187D02*
X1175729Y-5961670D01*
X1173742Y-6042813D02*
X1171537Y-6047192D01*
X1175729Y-561670D02*
X1177494Y-566245D01*
X1175729Y-638330D02*
X1173742Y-642813D01*
X1175729Y-5961670D02*
X1177494Y-5966245D01*
X1175729Y-6038330D02*
X1173742Y-6042813D01*
X1177494Y-566245D02*
X1179032Y-570901D01*
X1177494Y-633755D02*
X1175729Y-638330D01*
X1177494Y-5966245D02*
X1179032Y-5970900D01*
X1177494Y-6033755D02*
X1175729Y-6038330D01*
X1179032Y-570901D02*
X1180339Y-575626D01*
X1179032Y-629099D02*
X1177494Y-633755D01*
X1179032Y-5970900D02*
X1180339Y-5975626D01*
X1179032Y-6029099D02*
X1177494Y-6033755D01*
X1180339Y-575626D02*
X1181414Y-580410D01*
X1180339Y-624374D02*
X1179032Y-629099D01*
X1180339Y-5975626D02*
X1181414Y-5980410D01*
X1180339Y-6024374D02*
X1179032Y-6029099D01*
X1181414Y-580410D02*
X1182252Y-585242D01*
X1181414Y-619590D02*
X1180339Y-624374D01*
X1181414Y-5980410D02*
X1182252Y-5985242D01*
X1181414Y-6019589D02*
X1180339Y-6024374D01*
X1182252Y-585242D02*
X1182852Y-590108D01*
X1182252Y-614758D02*
X1181414Y-619590D01*
X1182252Y-5985242D02*
X1182852Y-5990108D01*
X1182252Y-6014758D02*
X1181414Y-6019589D01*
X1182852Y-590108D02*
X1183213Y-594998D01*
X1182852Y-609892D02*
X1182252Y-614758D01*
X1182852Y-5990108D02*
X1183213Y-5994998D01*
X1182852Y-6009892D02*
X1182252Y-6014758D01*
X1183213Y-594998D02*
X1183333Y-599901D01*
X1183213Y-605002D02*
X1182852Y-609892D01*
X1183213Y-5994998D02*
X1183333Y-6000099D01*
X1183213Y-6005002D02*
X1182852Y-6009892D01*
X1183333Y-599901D02*
X1183213Y-605002D01*
X1183333Y-6000099D02*
X1183213Y-6005002D01*
X1483333Y-600099D02*
X1483454Y-594998D01*
X1483333Y-6000099D02*
X1483454Y-5994998D01*
X1483454Y-594998D02*
X1483814Y-590108D01*
X1483454Y-605002D02*
X1483333Y-600099D01*
X1483454Y-5994998D02*
X1483814Y-5990108D01*
X1483454Y-6005002D02*
X1483333Y-6000099D01*
X1483814Y-590108D02*
X1484415Y-585242D01*
X1483814Y-609892D02*
X1483454Y-605002D01*
X1483814Y-5990108D02*
X1484415Y-5985242D01*
X1483814Y-6009892D02*
X1483454Y-6005002D01*
X1484415Y-585242D02*
X1485253Y-580410D01*
X1484415Y-614758D02*
X1483814Y-609892D01*
X1484415Y-5985242D02*
X1485253Y-5980410D01*
X1484415Y-6014758D02*
X1483814Y-6009892D01*
X1485253Y-580410D02*
X1486327Y-575626D01*
X1485253Y-619590D02*
X1484415Y-614758D01*
X1485253Y-5980410D02*
X1486327Y-5975626D01*
X1485253Y-6019589D02*
X1484415Y-6014758D01*
X1486327Y-575626D02*
X1487635Y-570901D01*
X1486327Y-624374D02*
X1485253Y-619590D01*
X1486327Y-5975626D02*
X1487635Y-5970900D01*
X1486327Y-6024374D02*
X1485253Y-6019589D01*
X1487635Y-570901D02*
X1489173Y-566245D01*
X1487635Y-629099D02*
X1486327Y-624374D01*
X1487635Y-5970900D02*
X1489173Y-5966245D01*
X1487635Y-6029099D02*
X1486327Y-6024374D01*
X1489173Y-566245D02*
X1490938Y-561670D01*
X1489173Y-633755D02*
X1487635Y-629099D01*
X1489173Y-5966245D02*
X1490938Y-5961670D01*
X1489173Y-6033755D02*
X1487635Y-6029099D01*
X1490938Y-561670D02*
X1492925Y-557187D01*
X1490938Y-638330D02*
X1489173Y-633755D01*
X1490938Y-5961670D02*
X1492925Y-5957187D01*
X1490938Y-6038330D02*
X1489173Y-6033755D01*
X1492925Y-557187D02*
X1495129Y-552807D01*
X1492925Y-642813D02*
X1490938Y-638330D01*
X1492925Y-5957187D02*
X1495129Y-5952807D01*
X1492925Y-6042813D02*
X1490938Y-6038330D01*
X1495129Y-552807D02*
X1497546Y-548541D01*
X1495129Y-647193D02*
X1492925Y-642813D01*
X1495129Y-5952807D02*
X1497546Y-5948541D01*
X1495129Y-6047192D02*
X1492925Y-6042813D01*
X1497546Y-548541D02*
X1500169Y-544399D01*
X1497546Y-651459D02*
X1495129Y-647193D01*
X1497546Y-5948541D02*
X1500169Y-5944398D01*
X1497546Y-6051459D02*
X1495129Y-6047192D01*
X1500169Y-544399D02*
X1502993Y-540390D01*
X1500169Y-655601D02*
X1497546Y-651459D01*
X1500169Y-5944398D02*
X1502993Y-5940390D01*
X1500169Y-6055601D02*
X1497546Y-6051459D01*
X1502993Y-540390D02*
X1506010Y-536524D01*
X1502993Y-659610D02*
X1500169Y-655601D01*
X1502993Y-5940390D02*
X1506010Y-5936524D01*
X1502993Y-6059610D02*
X1500169Y-6055601D01*
X1506010Y-536524D02*
X1509212Y-532811D01*
X1506010Y-663476D02*
X1502993Y-659610D01*
X1506010Y-5936524D02*
X1509212Y-5932811D01*
X1506010Y-6063476D02*
X1502993Y-6059610D01*
X1509212Y-532811D02*
X1512593Y-529260D01*
X1509212Y-667189D02*
X1506010Y-663476D01*
X1509212Y-5932811D02*
X1512593Y-5929260D01*
X1509212Y-6067189D02*
X1506010Y-6063476D01*
X1512593Y-529260D02*
X1516145Y-525879D01*
X1512593Y-670740D02*
X1509212Y-667189D01*
X1512593Y-5929260D02*
X1516145Y-5925879D01*
X1512593Y-6070740D02*
X1509212Y-6067189D01*
X1516145Y-525879D02*
X1519857Y-522676D01*
X1516145Y-674121D02*
X1512593Y-670740D01*
X1516145Y-5925879D02*
X1519857Y-5922676D01*
X1516145Y-6074121D02*
X1512593Y-6070740D01*
X1519857Y-522676D02*
X1523723Y-519659D01*
X1519857Y-677324D02*
X1516145Y-674121D01*
X1519857Y-5922676D02*
X1523723Y-5919659D01*
X1519857Y-6077324D02*
X1516145Y-6074121D01*
X1523723Y-519659D02*
X1527732Y-516836D01*
X1523723Y-680340D02*
X1519857Y-677324D01*
X1523723Y-5919659D02*
X1527732Y-5916836D01*
X1523723Y-6080340D02*
X1519857Y-6077324D01*
X1527732Y-516836D02*
X1531874Y-514213D01*
X1527732Y-683164D02*
X1523723Y-680340D01*
X1527732Y-5916836D02*
X1531874Y-5914213D01*
X1527732Y-6083164D02*
X1523723Y-6080340D01*
X1531874Y-514213D02*
X1536141Y-511796D01*
X1531874Y-685787D02*
X1527732Y-683164D01*
X1531874Y-5914213D02*
X1536141Y-5911796D01*
X1531874Y-6085787D02*
X1527732Y-6083164D01*
X1536141Y-511796D02*
X1540520Y-509591D01*
X1536141Y-688204D02*
X1531874Y-685787D01*
X1536141Y-5911796D02*
X1540520Y-5909591D01*
X1536141Y-6088204D02*
X1531874Y-6085787D01*
X1540520Y-509591D02*
X1545003Y-507604D01*
X1540520Y-690409D02*
X1536141Y-688204D01*
X1540520Y-5909591D02*
X1545003Y-5907604D01*
X1540520Y-6090408D02*
X1536141Y-6088204D01*
X1545003Y-507604D02*
X1549578Y-505840D01*
X1545003Y-692396D02*
X1540520Y-690409D01*
X1545003Y-5907604D02*
X1549578Y-5905840D01*
X1545003Y-6092395D02*
X1540520Y-6090408D01*
X1549578Y-505840D02*
X1554234Y-504302D01*
X1549578Y-694160D02*
X1545003Y-692396D01*
X1549578Y-5905840D02*
X1554234Y-5904302D01*
X1549578Y-6094160D02*
X1545003Y-6092395D01*
X1554234Y-504302D02*
X1558960Y-502994D01*
X1554234Y-695698D02*
X1549578Y-694160D01*
X1554234Y-5904302D02*
X1558960Y-5902994D01*
X1554234Y-6095698D02*
X1549578Y-6094160D01*
X1558960Y-502994D02*
X1563744Y-501919D01*
X1558960Y-697006D02*
X1554234Y-695698D01*
X1558960Y-5902994D02*
X1563744Y-5901919D01*
X1558960Y-6097006D02*
X1554234Y-6095698D01*
X1563744Y-501919D02*
X1568575Y-501081D01*
X1563744Y-698080D02*
X1558960Y-697006D01*
X1563744Y-5901919D02*
X1568575Y-5901081D01*
X1563744Y-6098080D02*
X1558960Y-6097006D01*
X1568575Y-501081D02*
X1573441Y-500481D01*
X1568575Y-698919D02*
X1563744Y-698080D01*
X1568575Y-5901081D02*
X1573441Y-5900481D01*
X1568575Y-6098919D02*
X1563744Y-6098080D01*
X1573441Y-500481D02*
X1578331Y-500120D01*
X1573441Y-699519D02*
X1568575Y-698919D01*
X1573441Y-5900481D02*
X1578331Y-5900120D01*
X1573441Y-6099519D02*
X1568575Y-6098919D01*
X1578331Y-500120D02*
X1583234Y-500000D01*
X1578331Y-699880D02*
X1573441Y-699519D01*
X1578331Y-5900120D02*
X1583234Y-5900000D01*
X1578331Y-6099880D02*
X1573441Y-6099519D01*
X1583234Y-500000D02*
X2416765Y-500000D01*
X1583234Y-700000D02*
X1578331Y-699880D01*
X1583234Y-5900000D02*
X2416765Y-5900000D01*
X1583234Y-6100000D02*
X1578331Y-6099880D01*
X2416765Y-500000D02*
X2421669Y-500120D01*
X2416765Y-700000D02*
X1583234Y-700000D01*
X2416765Y-5900000D02*
X2421669Y-5900120D01*
X2416765Y-6100000D02*
X1583234Y-6100000D01*
X2421669Y-500120D02*
X2426559Y-500481D01*
X2421669Y-699880D02*
X2416765Y-700000D01*
X2421669Y-5900120D02*
X2426559Y-5900481D01*
X2421669Y-6099880D02*
X2416765Y-6100000D01*
X2426559Y-500481D02*
X2431425Y-501081D01*
X2426559Y-699519D02*
X2421669Y-699880D01*
X2426559Y-5900481D02*
X2431425Y-5901081D01*
X2426559Y-6099519D02*
X2421669Y-6099880D01*
X2431425Y-501081D02*
X2436256Y-501919D01*
X2431425Y-698919D02*
X2426559Y-699519D01*
X2431425Y-5901081D02*
X2436256Y-5901919D01*
X2431425Y-6098919D02*
X2426559Y-6099519D01*
X2436256Y-501919D02*
X2441040Y-502994D01*
X2436256Y-698080D02*
X2431425Y-698919D01*
X2436256Y-5901919D02*
X2441040Y-5902994D01*
X2436256Y-6098080D02*
X2431425Y-6098919D01*
X2441040Y-502994D02*
X2445766Y-504302D01*
X2441040Y-697006D02*
X2436256Y-698080D01*
X2441040Y-5902994D02*
X2445766Y-5904302D01*
X2441040Y-6097006D02*
X2436256Y-6098080D01*
X2445766Y-504302D02*
X2450422Y-505840D01*
X2445766Y-695698D02*
X2441040Y-697006D01*
X2445766Y-5904302D02*
X2450422Y-5905840D01*
X2445766Y-6095698D02*
X2441040Y-6097006D01*
X2450422Y-505840D02*
X2454997Y-507604D01*
X2450422Y-694160D02*
X2445766Y-695698D01*
X2450422Y-5905840D02*
X2454997Y-5907604D01*
X2450422Y-6094160D02*
X2445766Y-6095698D01*
X2454997Y-507604D02*
X2459479Y-509591D01*
X2454997Y-692396D02*
X2450422Y-694160D01*
X2454997Y-5907604D02*
X2459479Y-5909591D01*
X2454997Y-6092395D02*
X2450422Y-6094160D01*
X2459479Y-509591D02*
X2463859Y-511796D01*
X2459479Y-690409D02*
X2454997Y-692396D01*
X2459479Y-5909591D02*
X2463859Y-5911796D01*
X2459479Y-6090408D02*
X2454997Y-6092395D01*
X2463859Y-511796D02*
X2468126Y-514213D01*
X2463859Y-688204D02*
X2459479Y-690409D01*
X2463859Y-5911796D02*
X2468126Y-5914213D01*
X2463859Y-6088204D02*
X2459479Y-6090408D01*
X2468126Y-514213D02*
X2472268Y-516836D01*
X2468126Y-685787D02*
X2463859Y-688204D01*
X2468126Y-5914213D02*
X2472268Y-5916836D01*
X2468126Y-6085787D02*
X2463859Y-6088204D01*
X2472268Y-516836D02*
X2476277Y-519659D01*
X2472268Y-683164D02*
X2468126Y-685787D01*
X2472268Y-5916836D02*
X2476277Y-5919659D01*
X2472268Y-6083164D02*
X2468126Y-6085787D01*
X2476277Y-519659D02*
X2480143Y-522676D01*
X2476277Y-680340D02*
X2472268Y-683164D01*
X2476277Y-5919659D02*
X2480143Y-5922676D01*
X2476277Y-6080340D02*
X2472268Y-6083164D01*
X2480143Y-522676D02*
X2483855Y-525879D01*
X2480143Y-677324D02*
X2476277Y-680340D01*
X2480143Y-5922676D02*
X2483855Y-5925879D01*
X2480143Y-6077324D02*
X2476277Y-6080340D01*
X2483855Y-525879D02*
X2487407Y-529260D01*
X2483855Y-674121D02*
X2480143Y-677324D01*
X2483855Y-5925879D02*
X2487407Y-5929260D01*
X2483855Y-6074121D02*
X2480143Y-6077324D01*
X2487407Y-529260D02*
X2490788Y-532811D01*
X2487407Y-670740D02*
X2483855Y-674121D01*
X2487407Y-5929260D02*
X2490788Y-5932811D01*
X2487407Y-6070740D02*
X2483855Y-6074121D01*
X2490788Y-532811D02*
X2493990Y-536524D01*
X2490788Y-667189D02*
X2487407Y-670740D01*
X2490788Y-5932811D02*
X2493990Y-5936524D01*
X2490788Y-6067189D02*
X2487407Y-6070740D01*
X2493990Y-536524D02*
X2497007Y-540390D01*
X2493990Y-663476D02*
X2490788Y-667189D01*
X2493990Y-5936524D02*
X2497007Y-5940390D01*
X2493990Y-6063476D02*
X2490788Y-6067189D01*
X2497007Y-540390D02*
X2499830Y-544399D01*
X2497007Y-659610D02*
X2493990Y-663476D01*
X2497007Y-5940390D02*
X2499830Y-5944398D01*
X2497007Y-6059610D02*
X2493990Y-6063476D01*
X2499830Y-544399D02*
X2502454Y-548541D01*
X2499830Y-655601D02*
X2497007Y-659610D01*
X2499830Y-5944398D02*
X2502454Y-5948541D01*
X2499830Y-6055601D02*
X2497007Y-6059610D01*
X2502454Y-548541D02*
X2504871Y-552807D01*
X2502454Y-651459D02*
X2499830Y-655601D01*
X2502454Y-5948541D02*
X2504871Y-5952807D01*
X2502454Y-6051459D02*
X2499830Y-6055601D01*
X2504871Y-552807D02*
X2507075Y-557187D01*
X2504871Y-647193D02*
X2502454Y-651459D01*
X2504871Y-5952807D02*
X2507075Y-5957187D01*
X2504871Y-6047192D02*
X2502454Y-6051459D01*
X2507075Y-557187D02*
X2509062Y-561670D01*
X2507075Y-642813D02*
X2504871Y-647193D01*
X2507075Y-5957187D02*
X2509062Y-5961670D01*
X2507075Y-6042813D02*
X2504871Y-6047192D01*
X2509062Y-561670D02*
X2510827Y-566245D01*
X2509062Y-638330D02*
X2507075Y-642813D01*
X2509062Y-5961670D02*
X2510827Y-5966245D01*
X2509062Y-6038330D02*
X2507075Y-6042813D01*
X2510827Y-566245D02*
X2512365Y-570901D01*
X2510827Y-633755D02*
X2509062Y-638330D01*
X2510827Y-5966245D02*
X2512365Y-5970900D01*
X2510827Y-6033755D02*
X2509062Y-6038330D01*
X2512365Y-570901D02*
X2513673Y-575626D01*
X2512365Y-629099D02*
X2510827Y-633755D01*
X2512365Y-5970900D02*
X2513673Y-5975626D01*
X2512365Y-6029099D02*
X2510827Y-6033755D01*
X2513673Y-575626D02*
X2514747Y-580410D01*
X2513673Y-624374D02*
X2512365Y-629099D01*
X2513673Y-5975626D02*
X2514747Y-5980410D01*
X2513673Y-6024374D02*
X2512365Y-6029099D01*
X2514747Y-580410D02*
X2515585Y-585242D01*
X2514747Y-619590D02*
X2513673Y-624374D01*
X2514747Y-5980410D02*
X2515585Y-5985242D01*
X2514747Y-6019589D02*
X2513673Y-6024374D01*
X2515585Y-585242D02*
X2516186Y-590108D01*
X2515585Y-614758D02*
X2514747Y-619590D01*
X2515585Y-5985242D02*
X2516186Y-5990108D01*
X2515585Y-6014758D02*
X2514747Y-6019589D01*
X2516186Y-590108D02*
X2516546Y-594998D01*
X2516186Y-609892D02*
X2515585Y-614758D01*
X2516186Y-5990108D02*
X2516546Y-5994998D01*
X2516186Y-6009892D02*
X2515585Y-6014758D01*
X2516546Y-594998D02*
X2516667Y-600099D01*
X2516546Y-605002D02*
X2516186Y-609892D01*
X2516546Y-5994998D02*
X2516667Y-6000099D01*
X2516546Y-6005002D02*
X2516186Y-6009892D01*
X2516667Y-600099D02*
X2516546Y-605002D01*
X2516667Y-6000099D02*
X2516546Y-6005002D01*
X2816667Y-600099D02*
X2816787Y-594998D01*
X2816667Y-5999901D02*
X2816787Y-5994998D01*
X2816787Y-594998D02*
X2817148Y-590108D01*
X2816787Y-605002D02*
X2816667Y-600099D01*
X2816787Y-5994998D02*
X2817148Y-5990108D01*
X2816787Y-6005002D02*
X2816667Y-5999901D01*
X2817148Y-590108D02*
X2817748Y-585242D01*
X2817148Y-609892D02*
X2816787Y-605002D01*
X2817148Y-5990108D02*
X2817748Y-5985242D01*
X2817148Y-6009892D02*
X2816787Y-6005002D01*
X2817748Y-585242D02*
X2818586Y-580410D01*
X2817748Y-614758D02*
X2817148Y-609892D01*
X2817748Y-5985242D02*
X2818586Y-5980410D01*
X2817748Y-6014758D02*
X2817148Y-6009892D01*
X2818586Y-580410D02*
X2819660Y-575626D01*
X2818586Y-619590D02*
X2817748Y-614758D01*
X2818586Y-5980410D02*
X2819660Y-5975626D01*
X2818586Y-6019589D02*
X2817748Y-6014758D01*
X2819660Y-575626D02*
X2820968Y-570901D01*
X2819660Y-624374D02*
X2818586Y-619590D01*
X2819660Y-5975626D02*
X2820968Y-5970900D01*
X2819660Y-6024374D02*
X2818586Y-6019589D01*
X2820968Y-570901D02*
X2822506Y-566245D01*
X2820968Y-629099D02*
X2819660Y-624374D01*
X2820968Y-5970900D02*
X2822506Y-5966245D01*
X2820968Y-6029099D02*
X2819660Y-6024374D01*
X2822506Y-566245D02*
X2824271Y-561670D01*
X2822506Y-633755D02*
X2820968Y-629099D01*
X2822506Y-5966245D02*
X2824271Y-5961670D01*
X2822506Y-6033755D02*
X2820968Y-6029099D01*
X2824271Y-561670D02*
X2826258Y-557187D01*
X2824271Y-638330D02*
X2822506Y-633755D01*
X2824271Y-5961670D02*
X2826258Y-5957187D01*
X2824271Y-6038330D02*
X2822506Y-6033755D01*
X2826258Y-557187D02*
X2828463Y-552807D01*
X2826258Y-642813D02*
X2824271Y-638330D01*
X2826258Y-5957187D02*
X2828463Y-5952807D01*
X2826258Y-6042813D02*
X2824271Y-6038330D01*
X2828463Y-552807D02*
X2830880Y-548541D01*
X2828463Y-647193D02*
X2826258Y-642813D01*
X2828463Y-5952807D02*
X2830880Y-5948541D01*
X2828463Y-6047192D02*
X2826258Y-6042813D01*
X2830880Y-548541D02*
X2833503Y-544399D01*
X2830880Y-651459D02*
X2828463Y-647193D01*
X2830880Y-5948541D02*
X2833503Y-5944398D01*
X2830880Y-6051459D02*
X2828463Y-6047192D01*
X2833503Y-544399D02*
X2836326Y-540390D01*
X2833503Y-655601D02*
X2830880Y-651459D01*
X2833503Y-5944398D02*
X2836326Y-5940390D01*
X2833503Y-6055601D02*
X2830880Y-6051459D01*
X2836326Y-540390D02*
X2839343Y-536524D01*
X2836326Y-659610D02*
X2833503Y-655601D01*
X2836326Y-5940390D02*
X2839343Y-5936524D01*
X2836326Y-6059610D02*
X2833503Y-6055601D01*
X2839343Y-536524D02*
X2842546Y-532811D01*
X2839343Y-663476D02*
X2836326Y-659610D01*
X2839343Y-5936524D02*
X2842546Y-5932811D01*
X2839343Y-6063476D02*
X2836326Y-6059610D01*
X2842546Y-532811D02*
X2845927Y-529260D01*
X2842546Y-667189D02*
X2839343Y-663476D01*
X2842546Y-5932811D02*
X2845927Y-5929260D01*
X2842546Y-6067189D02*
X2839343Y-6063476D01*
X2845927Y-529260D02*
X2849478Y-525879D01*
X2845927Y-670740D02*
X2842546Y-667189D01*
X2845927Y-5929260D02*
X2849478Y-5925879D01*
X2845927Y-6070740D02*
X2842546Y-6067189D01*
X2849478Y-525879D02*
X2853191Y-522676D01*
X2849478Y-674121D02*
X2845927Y-670740D01*
X2849478Y-5925879D02*
X2853191Y-5922676D01*
X2849478Y-6074121D02*
X2845927Y-6070740D01*
X2853191Y-522676D02*
X2857056Y-519659D01*
X2853191Y-677324D02*
X2849478Y-674121D01*
X2853191Y-5922676D02*
X2857056Y-5919659D01*
X2853191Y-6077324D02*
X2849478Y-6074121D01*
X2857056Y-519659D02*
X2861065Y-516836D01*
X2857056Y-680340D02*
X2853191Y-677324D01*
X2857056Y-5919659D02*
X2861065Y-5916836D01*
X2857056Y-6080340D02*
X2853191Y-6077324D01*
X2861065Y-516836D02*
X2865208Y-514213D01*
X2861065Y-683164D02*
X2857056Y-680340D01*
X2861065Y-5916836D02*
X2865208Y-5914213D01*
X2861065Y-6083164D02*
X2857056Y-6080340D01*
X2865208Y-514213D02*
X2869474Y-511796D01*
X2865208Y-685787D02*
X2861065Y-683164D01*
X2865208Y-5914213D02*
X2869474Y-5911796D01*
X2865208Y-6085787D02*
X2861065Y-6083164D01*
X2869474Y-511796D02*
X2873854Y-509591D01*
X2869474Y-688204D02*
X2865208Y-685787D01*
X2869474Y-5911796D02*
X2873854Y-5909591D01*
X2869474Y-6088204D02*
X2865208Y-6085787D01*
X2873854Y-509591D02*
X2878337Y-507604D01*
X2873854Y-690409D02*
X2869474Y-688204D01*
X2873854Y-5909591D02*
X2878337Y-5907604D01*
X2873854Y-6090408D02*
X2869474Y-6088204D01*
X2878337Y-507604D02*
X2882911Y-505840D01*
X2878337Y-692396D02*
X2873854Y-690409D01*
X2878337Y-5907604D02*
X2882911Y-5905840D01*
X2878337Y-6092395D02*
X2873854Y-6090408D01*
X2882911Y-505840D02*
X2887567Y-504302D01*
X2882911Y-694160D02*
X2878337Y-692396D01*
X2882911Y-5905840D02*
X2887567Y-5904302D01*
X2882911Y-6094160D02*
X2878337Y-6092395D01*
X2887567Y-504302D02*
X2892293Y-502994D01*
X2887567Y-695698D02*
X2882911Y-694160D01*
X2887567Y-5904302D02*
X2892293Y-5902994D01*
X2887567Y-6095698D02*
X2882911Y-6094160D01*
X2892293Y-502994D02*
X2897077Y-501919D01*
X2892293Y-697006D02*
X2887567Y-695698D01*
X2892293Y-5902994D02*
X2897077Y-5901919D01*
X2892293Y-6097006D02*
X2887567Y-6095698D01*
X2897077Y-501919D02*
X2901908Y-501081D01*
X2897077Y-698080D02*
X2892293Y-697006D01*
X2897077Y-5901919D02*
X2901908Y-5901081D01*
X2897077Y-6098080D02*
X2892293Y-6097006D01*
X2901908Y-501081D02*
X2906775Y-500481D01*
X2901908Y-698919D02*
X2897077Y-698080D01*
X2901908Y-5901081D02*
X2906775Y-5900481D01*
X2901908Y-6098919D02*
X2897077Y-6098080D01*
X2906775Y-500481D02*
X2911665Y-500120D01*
X2906775Y-699519D02*
X2901908Y-698919D01*
X2906775Y-5900481D02*
X2911665Y-5900120D01*
X2906775Y-6099519D02*
X2901908Y-6098919D01*
X2911665Y-500120D02*
X2916568Y-500000D01*
X2911665Y-699880D02*
X2906775Y-699519D01*
X2911665Y-5900120D02*
X2916568Y-5900000D01*
X2911665Y-6099880D02*
X2906775Y-6099519D01*
X2916568Y-500000D02*
X5250099Y-500000D01*
X2916568Y-700000D02*
X2911665Y-699880D01*
X2916568Y-5900000D02*
X4249367Y-5900000D01*
X2916568Y-6100000D02*
X2911665Y-6099880D01*
X3549367Y-700000D02*
X2916568Y-700000D01*
X3561398Y-700289D02*
X3549367Y-700000D01*
X3574029Y-701186D02*
X3561398Y-700289D01*
X3589104Y-703106D02*
X3574029Y-701186D01*
X3599080Y-704894D02*
X3589104Y-703106D01*
X3611429Y-707694D02*
X3599080Y-704894D01*
X3623623Y-711117D02*
X3611429Y-707694D01*
X3635630Y-715153D02*
X3623623Y-711117D01*
X3649738Y-720788D02*
X3635630Y-715153D01*
X3661221Y-726135D02*
X3649738Y-720788D01*
X3672415Y-732055D02*
X3661221Y-726135D01*
X3681149Y-737196D02*
X3672415Y-732055D01*
X3691761Y-744113D02*
X3681149Y-737196D01*
X3702007Y-751558D02*
X3691761Y-744113D01*
X3713781Y-761158D02*
X3702007Y-751558D01*
X3723137Y-769697D02*
X3713781Y-761158D01*
X3730304Y-776864D02*
X3723137Y-769697D01*
X3738840Y-786217D02*
X3730304Y-776864D01*
X3746895Y-795994D02*
X3738840Y-786217D01*
X3755886Y-808239D02*
X3746895Y-795994D01*
X3762804Y-818851D02*
X3755886Y-808239D01*
X3769173Y-829797D02*
X3762804Y-818851D01*
X3773866Y-838781D02*
X3769173Y-829797D01*
X3779210Y-850260D02*
X3773866Y-838781D01*
X3783969Y-861999D02*
X3779210Y-850260D01*
X3788126Y-873963D02*
X3783969Y-861999D01*
X3791671Y-886121D02*
X3788126Y-873963D01*
X3794597Y-898444D02*
X3791671Y-886121D01*
X3796894Y-910898D02*
X3794597Y-898444D01*
X3798557Y-923454D02*
X3796894Y-910898D01*
X3799583Y-936077D02*
X3798557Y-923454D01*
X3800000Y-950632D02*
X3799583Y-936077D01*
X3800000Y-3598734D02*
X3800000Y-950632D01*
X3800385Y-3615195D02*
X3800000Y-3598734D01*
X3800641Y-3620253D02*
X3800385Y-3615195D01*
X3802116Y-3637921D02*
X3800641Y-3620253D01*
X3804483Y-3655493D02*
X3802116Y-3637921D01*
X3807737Y-3672922D02*
X3804483Y-3655493D01*
X3810600Y-3685261D02*
X3807737Y-3672922D01*
X3815354Y-3702342D02*
X3810600Y-3685261D01*
X3820967Y-3719160D02*
X3815354Y-3702342D01*
X3827425Y-3735672D02*
X3820967Y-3719160D01*
X3834711Y-3751836D02*
X3827425Y-3735672D01*
X3842806Y-3767611D02*
X3834711Y-3751836D01*
X3851690Y-3782955D02*
X3842806Y-3767611D01*
X3861339Y-3797829D02*
X3851690Y-3782955D01*
X3871729Y-3812195D02*
X3861339Y-3797829D01*
X3882834Y-3826017D02*
X3871729Y-3812195D01*
X3894624Y-3839259D02*
X3882834Y-3826017D01*
X3907071Y-3851886D02*
X3894624Y-3839259D01*
X3920140Y-3863867D02*
X3907071Y-3851886D01*
X3933800Y-3875171D02*
X3920140Y-3863867D01*
X3948015Y-3885768D02*
X3933800Y-3875171D01*
X3962748Y-3895632D02*
X3948015Y-3885768D01*
X3977962Y-3904736D02*
X3962748Y-3895632D01*
X3993617Y-3913059D02*
X3977962Y-3904736D01*
X3998163Y-3915289D02*
X3993617Y-3913059D01*
X4000000Y-950633D02*
X4000016Y-2300632D01*
X4000016Y-2300632D02*
X4000545Y-2318988D01*
X4000289Y-938604D02*
X4000000Y-950633D01*
X4000545Y-2318988D02*
X4001955Y-2336663D01*
X4001442Y-923454D02*
X4000289Y-938604D01*
X4001955Y-2336663D02*
X4004259Y-2354244D01*
X4003106Y-910896D02*
X4001442Y-923454D01*
X4004259Y-2354244D02*
X4007450Y-2371686D01*
X4004894Y-900920D02*
X4003106Y-910896D01*
X4007450Y-2371686D02*
X4011521Y-2388944D01*
X4007694Y-888571D02*
X4004894Y-900920D01*
X4011521Y-2388944D02*
X4016460Y-2405973D01*
X4011875Y-873960D02*
X4007694Y-888571D01*
X4014327Y-3922575D02*
X3998163Y-3915289D01*
X4015153Y-864370D02*
X4011875Y-873960D01*
X4016460Y-2405973D02*
X4022256Y-2422731D01*
X4019791Y-852587D02*
X4015153Y-864370D01*
X4022256Y-2422731D02*
X4028893Y-2439173D01*
X4026091Y-3927274D02*
X4014327Y-3922575D01*
X4026134Y-838781D02*
X4019791Y-852587D01*
X4028893Y-2439173D02*
X4036354Y-2455259D01*
X4030828Y-829795D02*
X4026134Y-838781D01*
X4036354Y-2455259D02*
X4044620Y-2470945D01*
X4037196Y-818851D02*
X4030828Y-829795D01*
X4042826Y-3933129D02*
X4026091Y-3927274D01*
X4044113Y-808239D02*
X4037196Y-818851D01*
X4044620Y-2470945D02*
X4053670Y-2486193D01*
X4053105Y-795994D02*
X4044113Y-808239D01*
X4053670Y-2486193D02*
X4063481Y-2500963D01*
X4059836Y-3938130D02*
X4042826Y-3933129D01*
X4061158Y-786219D02*
X4053105Y-795994D01*
X4063481Y-2500963D02*
X4074027Y-2515217D01*
X4064739Y-3939399D02*
X4059836Y-3938130D01*
X4069696Y-776864D02*
X4061158Y-786219D01*
X4074027Y-2515217D02*
X4085282Y-2528918D01*
X4078696Y-767954D02*
X4069696Y-776864D01*
X4082039Y-3943282D02*
X4064739Y-3939399D01*
X4085282Y-2528918D02*
X4097216Y-2542032D01*
X4088137Y-759511D02*
X4078696Y-767954D01*
X4094507Y-3945517D02*
X4082039Y-3943282D01*
X4097216Y-2542032D02*
X4109801Y-2554527D01*
X4097992Y-751558D02*
X4088137Y-759511D01*
X4108239Y-744113D02*
X4097992Y-751558D01*
X4109801Y-2554527D02*
X4122999Y-2566364D01*
X4112078Y-3947884D02*
X4094507Y-3945517D01*
X4118851Y-737196D02*
X4108239Y-744113D01*
X4122999Y-2566364D02*
X4136782Y-2577520D01*
X4129747Y-3949358D02*
X4112078Y-3947884D01*
X4129795Y-730828D02*
X4118851Y-737196D01*
X4134805Y-3949615D02*
X4129747Y-3949358D01*
X4136782Y-2577520D02*
X4151112Y-2587963D01*
X4141053Y-725020D02*
X4129795Y-730828D01*
X4151112Y-2587963D02*
X4165952Y-2597667D01*
X4152587Y-719791D02*
X4141053Y-725020D01*
X4164370Y-715153D02*
X4152587Y-719791D01*
X4165952Y-2597667D02*
X4181265Y-2606607D01*
X4168990Y-3950545D02*
X4134805Y-3949615D01*
X4173960Y-711875D02*
X4164370Y-715153D01*
X4181265Y-2606607D02*
X4197011Y-2614759D01*
X4186121Y-708328D02*
X4173960Y-711875D01*
X4186663Y-3951955D02*
X4168990Y-3950545D01*
X4197011Y-2614759D02*
X4213150Y-2622104D01*
X4198444Y-705403D02*
X4186121Y-708328D01*
X4204244Y-3954259D02*
X4186663Y-3951955D01*
X4210899Y-703106D02*
X4198444Y-705403D01*
X4213150Y-2622104D02*
X4229642Y-2628623D01*
X4221686Y-3957450D02*
X4204244Y-3954259D01*
X4225969Y-701187D02*
X4210899Y-703106D01*
X4229642Y-2628623D02*
X4246438Y-2634297D01*
X4236497Y-3960887D02*
X4221686Y-3957450D01*
X4238602Y-700289D02*
X4225969Y-701187D01*
X4246438Y-2634297D02*
X4263503Y-2639113D01*
X4249367Y-5900000D02*
X4263923Y-5899583D01*
X4250633Y-700000D02*
X4238602Y-700289D01*
X4253562Y-3965703D02*
X4236497Y-3960887D01*
X4263503Y-2639113D02*
X4280790Y-2643058D01*
X4263923Y-5899583D02*
X4276546Y-5898557D01*
X4270358Y-3971377D02*
X4253562Y-3965703D01*
X4276546Y-5898557D02*
X4289101Y-5896894D01*
X4280790Y-2643058D02*
X4295756Y-2645741D01*
X4286850Y-3977896D02*
X4270358Y-3971377D01*
X4289101Y-5896894D02*
X4299080Y-5895105D01*
X4295756Y-2645741D02*
X4313337Y-2648045D01*
X4299080Y-5895105D02*
X4311432Y-5892305D01*
X4302989Y-3985240D02*
X4286850Y-3977896D01*
X4311432Y-5892305D02*
X4323625Y-5888882D01*
X4313337Y-2648045D02*
X4331010Y-2649455D01*
X4318735Y-3993393D02*
X4302989Y-3985240D01*
X4323625Y-5888882D02*
X4335630Y-5884847D01*
X4331010Y-2649455D02*
X4365195Y-2650385D01*
X4334048Y-4002333D02*
X4318735Y-3993393D01*
X4335630Y-5884847D02*
X4347415Y-5880208D01*
X4347415Y-5880208D02*
X4358947Y-5874980D01*
X4348888Y-4012037D02*
X4334048Y-4002333D01*
X4358947Y-5874980D02*
X4372417Y-5867944D01*
X4363218Y-4022480D02*
X4348888Y-4012037D01*
X4365195Y-2650385D02*
X4382883Y-2651603D01*
X4372417Y-5867944D02*
X4383297Y-5861465D01*
X4377000Y-4033636D02*
X4363218Y-4022480D01*
X4382883Y-2651603D02*
X4387921Y-2652116D01*
X4383297Y-5861465D02*
X4393838Y-5854441D01*
X4387921Y-2652116D02*
X4405493Y-2654483D01*
X4390198Y-4045473D02*
X4377000Y-4033636D01*
X4393838Y-5854441D02*
X4404006Y-5846895D01*
X4402783Y-4057968D02*
X4390198Y-4045473D01*
X4404006Y-5846895D02*
X4413781Y-5838842D01*
X4405493Y-2654483D02*
X4417961Y-2656718D01*
X4413781Y-5838842D02*
X4423136Y-5830304D01*
X4414718Y-4071081D02*
X4402783Y-4057968D01*
X4417961Y-2656718D02*
X4435261Y-2660600D01*
X4423136Y-5830304D02*
X4432047Y-5821302D01*
X4425973Y-4084783D02*
X4414718Y-4071081D01*
X4432047Y-5821302D02*
X4440488Y-5811863D01*
X4435261Y-2660600D02*
X4440163Y-2661870D01*
X4436519Y-4099037D02*
X4425973Y-4084783D01*
X4440163Y-2661870D02*
X4457174Y-2666870D01*
X4440488Y-5811863D02*
X4446895Y-5804006D01*
X4446330Y-4113807D02*
X4436519Y-4099037D01*
X4446895Y-5804006D02*
X4454443Y-5793836D01*
X4454443Y-5793836D02*
X4461464Y-5783299D01*
X4455380Y-4129055D02*
X4446330Y-4113807D01*
X4457174Y-2666870D02*
X4473909Y-2672726D01*
X4461464Y-5783299D02*
X4469173Y-5770203D01*
X4463646Y-4144741D02*
X4455380Y-4129055D01*
X4469173Y-5770203D02*
X4474979Y-5758950D01*
X4471107Y-4160827D02*
X4463646Y-4144741D01*
X4473909Y-2672726D02*
X4490326Y-2679422D01*
X4474979Y-5758950D02*
X4480208Y-5747415D01*
X4477744Y-4177269D02*
X4471107Y-4160827D01*
X4480208Y-5747415D02*
X4484847Y-5735630D01*
X4483540Y-4194026D02*
X4477744Y-4177269D01*
X4484847Y-5735630D02*
X4488126Y-5726037D01*
X4488126Y-5726037D02*
X4491671Y-5713879D01*
X4488479Y-4211056D02*
X4483540Y-4194026D01*
X4490326Y-2679422D02*
X4506383Y-2686941D01*
X4491671Y-5713879D02*
X4494596Y-5701559D01*
X4492550Y-4228314D02*
X4488479Y-4211056D01*
X4494596Y-5701559D02*
X4497277Y-5686600D01*
X4495741Y-4245756D02*
X4492550Y-4228314D01*
X4497277Y-5686600D02*
X4498813Y-5674031D01*
X4498045Y-4263337D02*
X4495741Y-4245756D01*
X4498813Y-5674031D02*
X4499711Y-5661398D01*
X4499455Y-4281012D02*
X4498045Y-4263337D01*
X4499711Y-5661398D02*
X4500000Y-5649367D01*
X4500000Y-4300632D02*
X4499455Y-4281012D01*
X4500000Y-5649367D02*
X4500000Y-4300632D01*
X4506383Y-2686941D02*
X4517611Y-2692806D01*
X4517611Y-2692806D02*
X4532955Y-2701690D01*
X4532955Y-2701690D02*
X4537252Y-2704368D01*
X4537252Y-2704368D02*
X4551985Y-2714232D01*
X4551985Y-2714232D02*
X4566200Y-2724829D01*
X4566200Y-2724829D02*
X4579860Y-2736133D01*
X4579860Y-2736133D02*
X4592929Y-2748113D01*
X4592929Y-2748113D02*
X4605375Y-2760741D01*
X4605375Y-2760741D02*
X4617166Y-2773983D01*
X4617166Y-2773983D02*
X4628271Y-2787804D01*
X4628271Y-2787804D02*
X4638661Y-2802171D01*
X4638661Y-2802171D02*
X4648310Y-2817045D01*
X4648310Y-2817045D02*
X4657194Y-2832389D01*
X4657194Y-2832389D02*
X4665289Y-2848163D01*
X4665289Y-2848163D02*
X4672575Y-2864327D01*
X4672575Y-2864327D02*
X4679032Y-2880840D01*
X4679032Y-2880840D02*
X4684646Y-2897658D01*
X4684646Y-2897658D02*
X4689400Y-2914739D01*
X4689400Y-2914739D02*
X4692263Y-2927078D01*
X4692263Y-2927078D02*
X4695517Y-2944507D01*
X4695517Y-2944507D02*
X4697884Y-2962078D01*
X4697884Y-2962078D02*
X4699358Y-2979747D01*
X4699358Y-2979747D02*
X4699615Y-2984805D01*
X4699615Y-2984805D02*
X4700000Y-3001266D01*
X4700000Y-3001266D02*
X4700000Y-5649368D01*
X4700000Y-5649368D02*
X4700289Y-5661398D01*
X4700289Y-5661398D02*
X4701186Y-5674029D01*
X4701186Y-5674029D02*
X4703106Y-5689104D01*
X4703106Y-5689104D02*
X4705403Y-5701556D01*
X4705403Y-5701556D02*
X4708329Y-5713879D01*
X4708329Y-5713879D02*
X4711117Y-5723625D01*
X4711117Y-5723625D02*
X4715153Y-5735630D01*
X4715153Y-5735630D02*
X4719792Y-5747415D01*
X4719792Y-5747415D02*
X4726134Y-5761219D01*
X4726134Y-5761219D02*
X4732055Y-5772415D01*
X4732055Y-5772415D02*
X4738536Y-5783299D01*
X4738536Y-5783299D02*
X4745559Y-5793838D01*
X4745559Y-5793838D02*
X4753105Y-5804006D01*
X4753105Y-5804006D02*
X4759510Y-5811861D01*
X4759510Y-5811861D02*
X4767954Y-5821303D01*
X4767954Y-5821303D02*
X4776864Y-5830304D01*
X4776864Y-5830304D02*
X4788137Y-5840488D01*
X4788137Y-5840488D02*
X4797995Y-5848444D01*
X4797995Y-5848444D02*
X4808239Y-5855886D01*
X4808239Y-5855886D02*
X4816701Y-5861464D01*
X4816701Y-5861464D02*
X4827583Y-5867944D01*
X4827583Y-5867944D02*
X4838781Y-5873866D01*
X4838781Y-5873866D02*
X4850262Y-5879211D01*
X4850262Y-5879211D02*
X4862000Y-5883969D01*
X4862000Y-5883969D02*
X4876375Y-5888882D01*
X4876375Y-5888882D02*
X4888571Y-5892306D01*
X4888571Y-5892306D02*
X4900920Y-5895105D01*
X4900920Y-5895105D02*
X4910896Y-5896893D01*
X4910896Y-5896893D02*
X4923454Y-5898557D01*
X4923454Y-5898557D02*
X4938602Y-5899711D01*
X4938602Y-5899711D02*
X4950633Y-5900000D01*
X4950633Y-5900000D02*
X5250099Y-5900000D01*
X5250099Y-500000D02*
X5255002Y-500120D01*
X5250099Y-700000D02*
X4250633Y-700000D01*
X5250099Y-5900000D02*
X5255002Y-5900120D01*
X5250099Y-6100000D02*
X2916568Y-6100000D01*
X5255002Y-500120D02*
X5259892Y-500481D01*
X5255002Y-699880D02*
X5250099Y-700000D01*
X5255002Y-5900120D02*
X5259892Y-5900481D01*
X5255002Y-6099880D02*
X5250099Y-6100000D01*
X5259892Y-500481D02*
X5264758Y-501081D01*
X5259892Y-699519D02*
X5255002Y-699880D01*
X5259892Y-5900481D02*
X5264758Y-5901081D01*
X5259892Y-6099519D02*
X5255002Y-6099880D01*
X5264758Y-501081D02*
X5269590Y-501919D01*
X5264758Y-698919D02*
X5259892Y-699519D01*
X5264758Y-5901081D02*
X5269590Y-5901919D01*
X5264758Y-6098919D02*
X5259892Y-6099519D01*
X5269590Y-501919D02*
X5274374Y-502994D01*
X5269590Y-698080D02*
X5264758Y-698919D01*
X5269590Y-5901919D02*
X5274374Y-5902994D01*
X5269590Y-6098080D02*
X5264758Y-6098919D01*
X5274374Y-502994D02*
X5279099Y-504302D01*
X5274374Y-697006D02*
X5269590Y-698080D01*
X5274374Y-5902994D02*
X5279099Y-5904302D01*
X5274374Y-6097006D02*
X5269590Y-6098080D01*
X5279099Y-504302D02*
X5283755Y-505840D01*
X5279099Y-695698D02*
X5274374Y-697006D01*
X5279099Y-5904302D02*
X5283755Y-5905840D01*
X5279099Y-6095698D02*
X5274374Y-6097006D01*
X5283755Y-505840D02*
X5288330Y-507604D01*
X5283755Y-694160D02*
X5279099Y-695698D01*
X5283755Y-5905840D02*
X5288330Y-5907604D01*
X5283755Y-6094160D02*
X5279099Y-6095698D01*
X5288330Y-507604D02*
X5292813Y-509591D01*
X5288330Y-692396D02*
X5283755Y-694160D01*
X5288330Y-5907604D02*
X5292813Y-5909591D01*
X5288330Y-6092395D02*
X5283755Y-6094160D01*
X5292813Y-509591D02*
X5297193Y-511796D01*
X5292813Y-690409D02*
X5288330Y-692396D01*
X5292813Y-5909591D02*
X5297193Y-5911796D01*
X5292813Y-6090408D02*
X5288330Y-6092395D01*
X5297193Y-511796D02*
X5301459Y-514213D01*
X5297193Y-688204D02*
X5292813Y-690409D01*
X5297193Y-5911796D02*
X5301459Y-5914213D01*
X5297193Y-6088204D02*
X5292813Y-6090408D01*
X5301459Y-514213D02*
X5305601Y-516836D01*
X5301459Y-685787D02*
X5297193Y-688204D01*
X5301459Y-5914213D02*
X5305601Y-5916836D01*
X5301459Y-6085787D02*
X5297193Y-6088204D01*
X5305601Y-516836D02*
X5309610Y-519659D01*
X5305601Y-683164D02*
X5301459Y-685787D01*
X5305601Y-5916836D02*
X5309610Y-5919659D01*
X5305601Y-6083164D02*
X5301459Y-6085787D01*
X5309610Y-519659D02*
X5313476Y-522676D01*
X5309610Y-680340D02*
X5305601Y-683164D01*
X5309610Y-5919659D02*
X5313476Y-5922676D01*
X5309610Y-6080340D02*
X5305601Y-6083164D01*
X5313476Y-522676D02*
X5317189Y-525879D01*
X5313476Y-677324D02*
X5309610Y-680340D01*
X5313476Y-5922676D02*
X5317189Y-5925879D01*
X5313476Y-6077324D02*
X5309610Y-6080340D01*
X5317189Y-525879D02*
X5320740Y-529260D01*
X5317189Y-674121D02*
X5313476Y-677324D01*
X5317189Y-5925879D02*
X5320740Y-5929260D01*
X5317189Y-6074121D02*
X5313476Y-6077324D01*
X5320740Y-529260D02*
X5324121Y-532811D01*
X5320740Y-670740D02*
X5317189Y-674121D01*
X5320740Y-5929260D02*
X5324121Y-5932811D01*
X5320740Y-6070740D02*
X5317189Y-6074121D01*
X5324121Y-532811D02*
X5327324Y-536524D01*
X5324121Y-667189D02*
X5320740Y-670740D01*
X5324121Y-5932811D02*
X5327324Y-5936524D01*
X5324121Y-6067189D02*
X5320740Y-6070740D01*
X5327324Y-536524D02*
X5330340Y-540390D01*
X5327324Y-663476D02*
X5324121Y-667189D01*
X5327324Y-5936524D02*
X5330340Y-5940390D01*
X5327324Y-6063476D02*
X5324121Y-6067189D01*
X5330340Y-540390D02*
X5333164Y-544399D01*
X5330340Y-659610D02*
X5327324Y-663476D01*
X5330340Y-5940390D02*
X5333164Y-5944398D01*
X5330340Y-6059610D02*
X5327324Y-6063476D01*
X5333164Y-544399D02*
X5335787Y-548541D01*
X5333164Y-655601D02*
X5330340Y-659610D01*
X5333164Y-5944398D02*
X5335787Y-5948541D01*
X5333164Y-6055601D02*
X5330340Y-6059610D01*
X5335787Y-548541D02*
X5338204Y-552807D01*
X5335787Y-651459D02*
X5333164Y-655601D01*
X5335787Y-5948541D02*
X5338204Y-5952807D01*
X5335787Y-6051459D02*
X5333164Y-6055601D01*
X5338204Y-552807D02*
X5340409Y-557187D01*
X5338204Y-647193D02*
X5335787Y-651459D01*
X5338204Y-5952807D02*
X5340409Y-5957187D01*
X5338204Y-6047192D02*
X5335787Y-6051459D01*
X5340409Y-557187D02*
X5342396Y-561670D01*
X5340409Y-642813D02*
X5338204Y-647193D01*
X5340409Y-5957187D02*
X5342396Y-5961670D01*
X5340409Y-6042813D02*
X5338204Y-6047192D01*
X5342396Y-561670D02*
X5344160Y-566245D01*
X5342396Y-638330D02*
X5340409Y-642813D01*
X5342396Y-5961670D02*
X5344160Y-5966245D01*
X5342396Y-6038330D02*
X5340409Y-6042813D01*
X5344160Y-566245D02*
X5345698Y-570901D01*
X5344160Y-633755D02*
X5342396Y-638330D01*
X5344160Y-5966245D02*
X5345698Y-5970900D01*
X5344160Y-6033755D02*
X5342396Y-6038330D01*
X5345698Y-570901D02*
X5347006Y-575626D01*
X5345698Y-629099D02*
X5344160Y-633755D01*
X5345698Y-5970900D02*
X5347006Y-5975626D01*
X5345698Y-6029099D02*
X5344160Y-6033755D01*
X5347006Y-575626D02*
X5348080Y-580410D01*
X5347006Y-624374D02*
X5345698Y-629099D01*
X5347006Y-5975626D02*
X5348080Y-5980410D01*
X5347006Y-6024374D02*
X5345698Y-6029099D01*
X5348080Y-580410D02*
X5348919Y-585242D01*
X5348080Y-619590D02*
X5347006Y-624374D01*
X5348080Y-5980410D02*
X5348919Y-5985242D01*
X5348080Y-6019589D02*
X5347006Y-6024374D01*
X5348919Y-585242D02*
X5349519Y-590108D01*
X5348919Y-614758D02*
X5348080Y-619590D01*
X5348919Y-5985242D02*
X5349519Y-5990108D01*
X5348919Y-6014758D02*
X5348080Y-6019589D01*
X5349519Y-590108D02*
X5349880Y-594998D01*
X5349519Y-609892D02*
X5348919Y-614758D01*
X5349519Y-5990108D02*
X5349880Y-5994998D01*
X5349519Y-6009892D02*
X5348919Y-6014758D01*
X5349880Y-594998D02*
X5350000Y-599901D01*
X5349880Y-605002D02*
X5349519Y-609892D01*
X5349880Y-5994998D02*
X5350000Y-6000099D01*
X5349880Y-6005002D02*
X5349519Y-6009892D01*
X5350000Y-599901D02*
X5349880Y-605002D01*
X5350000Y-6000099D02*
X5349880Y-6005002D01*
X5650000Y-600099D02*
X5650120Y-594998D01*
X5650000Y-5999901D02*
X5650120Y-5994998D01*
X5650120Y-594998D02*
X5650481Y-590108D01*
X5650120Y-605002D02*
X5650000Y-600099D01*
X5650120Y-5994998D02*
X5650481Y-5990108D01*
X5650120Y-6005002D02*
X5650000Y-5999901D01*
X5650481Y-590108D02*
X5651081Y-585242D01*
X5650481Y-609892D02*
X5650120Y-605002D01*
X5650481Y-5990108D02*
X5651081Y-5985242D01*
X5650481Y-6009892D02*
X5650120Y-6005002D01*
X5651081Y-585242D02*
X5651919Y-580410D01*
X5651081Y-614758D02*
X5650481Y-609892D01*
X5651081Y-5985242D02*
X5651919Y-5980410D01*
X5651081Y-6014758D02*
X5650481Y-6009892D01*
X5651919Y-580410D02*
X5652994Y-575626D01*
X5651919Y-619590D02*
X5651081Y-614758D01*
X5651919Y-5980410D02*
X5652994Y-5975626D01*
X5651919Y-6019589D02*
X5651081Y-6014758D01*
X5652994Y-575626D02*
X5654302Y-570901D01*
X5652994Y-624374D02*
X5651919Y-619590D01*
X5652994Y-5975626D02*
X5654302Y-5970900D01*
X5652994Y-6024374D02*
X5651919Y-6019589D01*
X5654302Y-570901D02*
X5655840Y-566245D01*
X5654302Y-629099D02*
X5652994Y-624374D01*
X5654302Y-5970900D02*
X5655840Y-5966245D01*
X5654302Y-6029099D02*
X5652994Y-6024374D01*
X5655840Y-566245D02*
X5657604Y-561670D01*
X5655840Y-633755D02*
X5654302Y-629099D01*
X5655840Y-5966245D02*
X5657604Y-5961670D01*
X5655840Y-6033755D02*
X5654302Y-6029099D01*
X5657604Y-561670D02*
X5659591Y-557187D01*
X5657604Y-638330D02*
X5655840Y-633755D01*
X5657604Y-5961670D02*
X5659591Y-5957187D01*
X5657604Y-6038330D02*
X5655840Y-6033755D01*
X5659591Y-557187D02*
X5661796Y-552807D01*
X5659591Y-642813D02*
X5657604Y-638330D01*
X5659591Y-5957187D02*
X5661796Y-5952807D01*
X5659591Y-6042813D02*
X5657604Y-6038330D01*
X5661796Y-552807D02*
X5664213Y-548541D01*
X5661796Y-647193D02*
X5659591Y-642813D01*
X5661796Y-5952807D02*
X5664213Y-5948541D01*
X5661796Y-6047192D02*
X5659591Y-6042813D01*
X5664213Y-548541D02*
X5666836Y-544399D01*
X5664213Y-651459D02*
X5661796Y-647193D01*
X5664213Y-5948541D02*
X5666836Y-5944398D01*
X5664213Y-6051459D02*
X5661796Y-6047192D01*
X5666836Y-544399D02*
X5669659Y-540390D01*
X5666836Y-655601D02*
X5664213Y-651459D01*
X5666836Y-5944398D02*
X5669659Y-5940390D01*
X5666836Y-6055601D02*
X5664213Y-6051459D01*
X5669659Y-540390D02*
X5672676Y-536524D01*
X5669659Y-659610D02*
X5666836Y-655601D01*
X5669659Y-5940390D02*
X5672676Y-5936524D01*
X5669659Y-6059610D02*
X5666836Y-6055601D01*
X5672676Y-536524D02*
X5675879Y-532811D01*
X5672676Y-663476D02*
X5669659Y-659610D01*
X5672676Y-5936524D02*
X5675879Y-5932811D01*
X5672676Y-6063476D02*
X5669659Y-6059610D01*
X5675879Y-532811D02*
X5679260Y-529260D01*
X5675879Y-667189D02*
X5672676Y-663476D01*
X5675879Y-5932811D02*
X5679260Y-5929260D01*
X5675879Y-6067189D02*
X5672676Y-6063476D01*
X5679260Y-529260D02*
X5682811Y-525879D01*
X5679260Y-670740D02*
X5675879Y-667189D01*
X5679260Y-5929260D02*
X5682811Y-5925879D01*
X5679260Y-6070740D02*
X5675879Y-6067189D01*
X5682811Y-525879D02*
X5686524Y-522676D01*
X5682811Y-674121D02*
X5679260Y-670740D01*
X5682811Y-5925879D02*
X5686524Y-5922676D01*
X5682811Y-6074121D02*
X5679260Y-6070740D01*
X5686524Y-522676D02*
X5690390Y-519659D01*
X5686524Y-677324D02*
X5682811Y-674121D01*
X5686524Y-5922676D02*
X5690390Y-5919659D01*
X5686524Y-6077324D02*
X5682811Y-6074121D01*
X5690390Y-519659D02*
X5694398Y-516836D01*
X5690390Y-680340D02*
X5686524Y-677324D01*
X5690390Y-5919659D02*
X5694398Y-5916836D01*
X5690390Y-6080340D02*
X5686524Y-6077324D01*
X5694398Y-516836D02*
X5698541Y-514213D01*
X5694398Y-683164D02*
X5690390Y-680340D01*
X5694398Y-5916836D02*
X5698541Y-5914213D01*
X5694398Y-6083164D02*
X5690390Y-6080340D01*
X5698541Y-514213D02*
X5702807Y-511796D01*
X5698541Y-685787D02*
X5694398Y-683164D01*
X5698541Y-5914213D02*
X5702807Y-5911796D01*
X5698541Y-6085787D02*
X5694398Y-6083164D01*
X5702807Y-511796D02*
X5707187Y-509591D01*
X5702807Y-688204D02*
X5698541Y-685787D01*
X5702807Y-5911796D02*
X5707187Y-5909591D01*
X5702807Y-6088204D02*
X5698541Y-6085787D01*
X5707187Y-509591D02*
X5711670Y-507604D01*
X5707187Y-690409D02*
X5702807Y-688204D01*
X5707187Y-5909591D02*
X5711670Y-5907604D01*
X5707187Y-6090408D02*
X5702807Y-6088204D01*
X5711670Y-507604D02*
X5716245Y-505840D01*
X5711670Y-692396D02*
X5707187Y-690409D01*
X5711670Y-5907604D02*
X5716245Y-5905840D01*
X5711670Y-6092395D02*
X5707187Y-6090408D01*
X5716245Y-505840D02*
X5720900Y-504302D01*
X5716245Y-694160D02*
X5711670Y-692396D01*
X5716245Y-5905840D02*
X5720900Y-5904302D01*
X5716245Y-6094160D02*
X5711670Y-6092395D01*
X5720900Y-504302D02*
X5725626Y-502994D01*
X5720900Y-695698D02*
X5716245Y-694160D01*
X5720900Y-5904302D02*
X5725626Y-5902994D01*
X5720900Y-6095698D02*
X5716245Y-6094160D01*
X5725626Y-502994D02*
X5730410Y-501919D01*
X5725626Y-697006D02*
X5720900Y-695698D01*
X5725626Y-5902994D02*
X5730410Y-5901919D01*
X5725626Y-6097006D02*
X5720900Y-6095698D01*
X5730410Y-501919D02*
X5735242Y-501081D01*
X5730410Y-698080D02*
X5725626Y-697006D01*
X5730410Y-5901919D02*
X5735242Y-5901081D01*
X5730410Y-6098080D02*
X5725626Y-6097006D01*
X5735242Y-501081D02*
X5740108Y-500481D01*
X5735242Y-698919D02*
X5730410Y-698080D01*
X5735242Y-5901081D02*
X5740108Y-5900481D01*
X5735242Y-6098919D02*
X5730410Y-6098080D01*
X5740108Y-500481D02*
X5744998Y-500120D01*
X5740108Y-699519D02*
X5735242Y-698919D01*
X5740108Y-5900481D02*
X5744998Y-5900120D01*
X5740108Y-6099519D02*
X5735242Y-6098919D01*
X5744998Y-500120D02*
X5749901Y-500000D01*
X5744998Y-699880D02*
X5740108Y-699519D01*
X5744998Y-5900120D02*
X5749901Y-5900000D01*
X5744998Y-6099880D02*
X5740108Y-6099519D01*
X5749901Y-500000D02*
X6750099Y-500000D01*
X5749901Y-700000D02*
X5744998Y-699880D01*
X5749901Y-5900000D02*
X6750099Y-5900000D01*
X5749901Y-6100000D02*
X5744998Y-6099880D01*
X6750099Y-500000D02*
X6755002Y-500120D01*
X6750099Y-700000D02*
X5749901Y-700000D01*
X6750099Y-5900000D02*
X6755002Y-5900120D01*
X6750099Y-6100000D02*
X5749901Y-6100000D01*
X6755002Y-500120D02*
X6759892Y-500481D01*
X6755002Y-699880D02*
X6750099Y-700000D01*
X6755002Y-5900120D02*
X6759892Y-5900481D01*
X6755002Y-6099880D02*
X6750099Y-6100000D01*
X6759892Y-500481D02*
X6764758Y-501081D01*
X6759892Y-699519D02*
X6755002Y-699880D01*
X6759892Y-5900481D02*
X6764758Y-5901081D01*
X6759892Y-6099519D02*
X6755002Y-6099880D01*
X6764758Y-501081D02*
X6769589Y-501919D01*
X6764758Y-698919D02*
X6759892Y-699519D01*
X6764758Y-5901081D02*
X6769589Y-5901919D01*
X6764758Y-6098919D02*
X6759892Y-6099519D01*
X6769589Y-501919D02*
X6774374Y-502994D01*
X6769589Y-698080D02*
X6764758Y-698919D01*
X6769589Y-5901919D02*
X6774374Y-5902994D01*
X6769589Y-6098080D02*
X6764758Y-6098919D01*
X6774374Y-502994D02*
X6779099Y-504302D01*
X6774374Y-697006D02*
X6769589Y-698080D01*
X6774374Y-5902994D02*
X6779099Y-5904302D01*
X6774374Y-6097006D02*
X6769589Y-6098080D01*
X6779099Y-504302D02*
X6783755Y-505840D01*
X6779099Y-695698D02*
X6774374Y-697006D01*
X6779099Y-5904302D02*
X6783755Y-5905840D01*
X6779099Y-6095698D02*
X6774374Y-6097006D01*
X6783755Y-505840D02*
X6788330Y-507604D01*
X6783755Y-694160D02*
X6779099Y-695698D01*
X6783755Y-5905840D02*
X6788330Y-5907604D01*
X6783755Y-6094160D02*
X6779099Y-6095698D01*
X6788330Y-507604D02*
X6792813Y-509591D01*
X6788330Y-692396D02*
X6783755Y-694160D01*
X6788330Y-5907604D02*
X6792813Y-5909591D01*
X6788330Y-6092395D02*
X6783755Y-6094160D01*
X6792813Y-509591D02*
X6797192Y-511796D01*
X6792813Y-690409D02*
X6788330Y-692396D01*
X6792813Y-5909591D02*
X6797192Y-5911796D01*
X6792813Y-6090408D02*
X6788330Y-6092395D01*
X6797192Y-511796D02*
X6801459Y-514213D01*
X6797192Y-688204D02*
X6792813Y-690409D01*
X6797192Y-5911796D02*
X6801459Y-5914213D01*
X6797192Y-6088204D02*
X6792813Y-6090408D01*
X6801459Y-514213D02*
X6805601Y-516836D01*
X6801459Y-685787D02*
X6797192Y-688204D01*
X6801459Y-5914213D02*
X6805601Y-5916836D01*
X6801459Y-6085787D02*
X6797192Y-6088204D01*
X6805601Y-516836D02*
X6809610Y-519659D01*
X6805601Y-683164D02*
X6801459Y-685787D01*
X6805601Y-5916836D02*
X6809610Y-5919659D01*
X6805601Y-6083164D02*
X6801459Y-6085787D01*
X6809610Y-519659D02*
X6813476Y-522676D01*
X6809610Y-680340D02*
X6805601Y-683164D01*
X6809610Y-5919659D02*
X6813476Y-5922676D01*
X6809610Y-6080340D02*
X6805601Y-6083164D01*
X6813476Y-522676D02*
X6817189Y-525879D01*
X6813476Y-677324D02*
X6809610Y-680340D01*
X6813476Y-5922676D02*
X6817189Y-5925879D01*
X6813476Y-6077324D02*
X6809610Y-6080340D01*
X6817189Y-525879D02*
X6820740Y-529260D01*
X6817189Y-674121D02*
X6813476Y-677324D01*
X6817189Y-5925879D02*
X6820740Y-5929260D01*
X6817189Y-6074121D02*
X6813476Y-6077324D01*
X6820740Y-529260D02*
X6824121Y-532811D01*
X6820740Y-670740D02*
X6817189Y-674121D01*
X6820740Y-5929260D02*
X6824121Y-5932811D01*
X6820740Y-6070740D02*
X6817189Y-6074121D01*
X6824121Y-532811D02*
X6827324Y-536524D01*
X6824121Y-667189D02*
X6820740Y-670740D01*
X6824121Y-5932811D02*
X6827324Y-5936524D01*
X6824121Y-6067189D02*
X6820740Y-6070740D01*
X6827324Y-536524D02*
X6830340Y-540390D01*
X6827324Y-663476D02*
X6824121Y-667189D01*
X6827324Y-5936524D02*
X6830340Y-5940390D01*
X6827324Y-6063476D02*
X6824121Y-6067189D01*
X6830340Y-540390D02*
X6833164Y-544399D01*
X6830340Y-659610D02*
X6827324Y-663476D01*
X6830340Y-5940390D02*
X6833164Y-5944398D01*
X6830340Y-6059610D02*
X6827324Y-6063476D01*
X6833164Y-544399D02*
X6835787Y-548541D01*
X6833164Y-655601D02*
X6830340Y-659610D01*
X6833164Y-5944398D02*
X6835787Y-5948541D01*
X6833164Y-6055601D02*
X6830340Y-6059610D01*
X6835787Y-548541D02*
X6838204Y-552807D01*
X6835787Y-651459D02*
X6833164Y-655601D01*
X6835787Y-5948541D02*
X6838204Y-5952807D01*
X6835787Y-6051459D02*
X6833164Y-6055601D01*
X6838204Y-552807D02*
X6840408Y-557187D01*
X6838204Y-647193D02*
X6835787Y-651459D01*
X6838204Y-5952807D02*
X6840408Y-5957187D01*
X6838204Y-6047192D02*
X6835787Y-6051459D01*
X6840408Y-557187D02*
X6842395Y-561670D01*
X6840408Y-642813D02*
X6838204Y-647193D01*
X6840408Y-5957187D02*
X6842395Y-5961670D01*
X6840408Y-6042813D02*
X6838204Y-6047192D01*
X6842395Y-561670D02*
X6844160Y-566245D01*
X6842395Y-638330D02*
X6840408Y-642813D01*
X6842395Y-5961670D02*
X6844160Y-5966245D01*
X6842395Y-6038330D02*
X6840408Y-6042813D01*
X6844160Y-566245D02*
X6845698Y-570901D01*
X6844160Y-633755D02*
X6842395Y-638330D01*
X6844160Y-5966245D02*
X6845698Y-5970900D01*
X6844160Y-6033755D02*
X6842395Y-6038330D01*
X6845698Y-570901D02*
X6847006Y-575626D01*
X6845698Y-629099D02*
X6844160Y-633755D01*
X6845698Y-5970900D02*
X6847006Y-5975626D01*
X6845698Y-6029099D02*
X6844160Y-6033755D01*
X6847006Y-575626D02*
X6848080Y-580410D01*
X6847006Y-624374D02*
X6845698Y-629099D01*
X6847006Y-5975626D02*
X6848080Y-5980410D01*
X6847006Y-6024374D02*
X6845698Y-6029099D01*
X6848080Y-580410D02*
X6848919Y-585242D01*
X6848080Y-619590D02*
X6847006Y-624374D01*
X6848080Y-5980410D02*
X6848919Y-5985242D01*
X6848080Y-6019589D02*
X6847006Y-6024374D01*
X6848919Y-585242D02*
X6849519Y-590108D01*
X6848919Y-614758D02*
X6848080Y-619590D01*
X6848919Y-5985242D02*
X6849519Y-5990108D01*
X6848919Y-6014758D02*
X6848080Y-6019589D01*
X6849519Y-590108D02*
X6849880Y-594998D01*
X6849519Y-609892D02*
X6848919Y-614758D01*
X6849519Y-5990108D02*
X6849880Y-5994998D01*
X6849519Y-6009892D02*
X6848919Y-6014758D01*
X6849880Y-594998D02*
X6850000Y-600099D01*
X6849880Y-605002D02*
X6849519Y-609892D01*
X6849880Y-5994998D02*
X6850000Y-6000099D01*
X6849880Y-6005002D02*
X6849519Y-6009892D01*
X6850000Y-600099D02*
X6849880Y-605002D01*
X6850000Y-6000099D02*
X6849880Y-6005002D01*
X7150000Y-599901D02*
X7150120Y-594998D01*
X7150000Y-6000099D02*
X7150120Y-5994998D01*
X7150120Y-594998D02*
X7150481Y-590108D01*
X7150120Y-605002D02*
X7150000Y-599901D01*
X7150120Y-5994998D02*
X7150481Y-5990108D01*
X7150120Y-6005002D02*
X7150000Y-6000099D01*
X7150481Y-590108D02*
X7151081Y-585242D01*
X7150481Y-609892D02*
X7150120Y-605002D01*
X7150481Y-5990108D02*
X7151081Y-5985242D01*
X7150481Y-6009892D02*
X7150120Y-6005002D01*
X7151081Y-585242D02*
X7151919Y-580410D01*
X7151081Y-614758D02*
X7150481Y-609892D01*
X7151081Y-5985242D02*
X7151919Y-5980410D01*
X7151081Y-6014758D02*
X7150481Y-6009892D01*
X7151919Y-580410D02*
X7152994Y-575626D01*
X7151919Y-619590D02*
X7151081Y-614758D01*
X7151919Y-5980410D02*
X7152994Y-5975626D01*
X7151919Y-6019589D02*
X7151081Y-6014758D01*
X7152994Y-575626D02*
X7154302Y-570901D01*
X7152994Y-624374D02*
X7151919Y-619590D01*
X7152994Y-5975626D02*
X7154302Y-5970900D01*
X7152994Y-6024374D02*
X7151919Y-6019589D01*
X7154302Y-570901D02*
X7155840Y-566245D01*
X7154302Y-629099D02*
X7152994Y-624374D01*
X7154302Y-5970900D02*
X7155840Y-5966245D01*
X7154302Y-6029099D02*
X7152994Y-6024374D01*
X7155840Y-566245D02*
X7157604Y-561670D01*
X7155840Y-633755D02*
X7154302Y-629099D01*
X7155840Y-5966245D02*
X7157604Y-5961670D01*
X7155840Y-6033755D02*
X7154302Y-6029099D01*
X7157604Y-561670D02*
X7159591Y-557187D01*
X7157604Y-638330D02*
X7155840Y-633755D01*
X7157604Y-5961670D02*
X7159591Y-5957187D01*
X7157604Y-6038330D02*
X7155840Y-6033755D01*
X7159591Y-557187D02*
X7161796Y-552807D01*
X7159591Y-642813D02*
X7157604Y-638330D01*
X7159591Y-5957187D02*
X7161796Y-5952807D01*
X7159591Y-6042813D02*
X7157604Y-6038330D01*
X7161796Y-552807D02*
X7164213Y-548541D01*
X7161796Y-647193D02*
X7159591Y-642813D01*
X7161796Y-5952807D02*
X7164213Y-5948541D01*
X7161796Y-6047192D02*
X7159591Y-6042813D01*
X7164213Y-548541D02*
X7166836Y-544399D01*
X7164213Y-651459D02*
X7161796Y-647193D01*
X7164213Y-5948541D02*
X7166836Y-5944398D01*
X7164213Y-6051459D02*
X7161796Y-6047192D01*
X7166836Y-544399D02*
X7169659Y-540390D01*
X7166836Y-655601D02*
X7164213Y-651459D01*
X7166836Y-5944398D02*
X7169659Y-5940390D01*
X7166836Y-6055601D02*
X7164213Y-6051459D01*
X7169659Y-540390D02*
X7172676Y-536524D01*
X7169659Y-659610D02*
X7166836Y-655601D01*
X7169659Y-5940390D02*
X7172676Y-5936524D01*
X7169659Y-6059610D02*
X7166836Y-6055601D01*
X7172676Y-536524D02*
X7175879Y-532811D01*
X7172676Y-663476D02*
X7169659Y-659610D01*
X7172676Y-5936524D02*
X7175879Y-5932811D01*
X7172676Y-6063476D02*
X7169659Y-6059610D01*
X7175879Y-532811D02*
X7179260Y-529260D01*
X7175879Y-667189D02*
X7172676Y-663476D01*
X7175879Y-5932811D02*
X7179260Y-5929260D01*
X7175879Y-6067189D02*
X7172676Y-6063476D01*
X7179260Y-529260D02*
X7182811Y-525879D01*
X7179260Y-670740D02*
X7175879Y-667189D01*
X7179260Y-5929260D02*
X7182811Y-5925879D01*
X7179260Y-6070740D02*
X7175879Y-6067189D01*
X7182811Y-525879D02*
X7186524Y-522676D01*
X7182811Y-674121D02*
X7179260Y-670740D01*
X7182811Y-5925879D02*
X7186524Y-5922676D01*
X7182811Y-6074121D02*
X7179260Y-6070740D01*
X7186524Y-522676D02*
X7190390Y-519659D01*
X7186524Y-677324D02*
X7182811Y-674121D01*
X7186524Y-5922676D02*
X7190390Y-5919659D01*
X7186524Y-6077324D02*
X7182811Y-6074121D01*
X7190390Y-519659D02*
X7194398Y-516836D01*
X7190390Y-680340D02*
X7186524Y-677324D01*
X7190390Y-5919659D02*
X7194398Y-5916836D01*
X7190390Y-6080340D02*
X7186524Y-6077324D01*
X7194398Y-516836D02*
X7198541Y-514213D01*
X7194398Y-683164D02*
X7190390Y-680340D01*
X7194398Y-5916836D02*
X7198541Y-5914213D01*
X7194398Y-6083164D02*
X7190390Y-6080340D01*
X7198541Y-514213D02*
X7202807Y-511796D01*
X7198541Y-685787D02*
X7194398Y-683164D01*
X7198541Y-5914213D02*
X7202807Y-5911796D01*
X7198541Y-6085787D02*
X7194398Y-6083164D01*
X7202807Y-511796D02*
X7207187Y-509591D01*
X7202807Y-688204D02*
X7198541Y-685787D01*
X7202807Y-5911796D02*
X7207187Y-5909591D01*
X7202807Y-6088204D02*
X7198541Y-6085787D01*
X7207187Y-509591D02*
X7211670Y-507604D01*
X7207187Y-690409D02*
X7202807Y-688204D01*
X7207187Y-5909591D02*
X7211670Y-5907604D01*
X7207187Y-6090408D02*
X7202807Y-6088204D01*
X7211670Y-507604D02*
X7216245Y-505840D01*
X7211670Y-692396D02*
X7207187Y-690409D01*
X7211670Y-5907604D02*
X7216245Y-5905840D01*
X7211670Y-6092395D02*
X7207187Y-6090408D01*
X7216245Y-505840D02*
X7220900Y-504302D01*
X7216245Y-694160D02*
X7211670Y-692396D01*
X7216245Y-5905840D02*
X7220900Y-5904302D01*
X7216245Y-6094160D02*
X7211670Y-6092395D01*
X7220900Y-504302D02*
X7225626Y-502994D01*
X7220900Y-695698D02*
X7216245Y-694160D01*
X7220900Y-5904302D02*
X7225626Y-5902994D01*
X7220900Y-6095698D02*
X7216245Y-6094160D01*
X7225626Y-502994D02*
X7230410Y-501919D01*
X7225626Y-697006D02*
X7220900Y-695698D01*
X7225626Y-5902994D02*
X7230410Y-5901919D01*
X7225626Y-6097006D02*
X7220900Y-6095698D01*
X7230410Y-501919D02*
X7235242Y-501081D01*
X7230410Y-698080D02*
X7225626Y-697006D01*
X7230410Y-5901919D02*
X7235242Y-5901081D01*
X7230410Y-6098080D02*
X7225626Y-6097006D01*
X7235242Y-501081D02*
X7240108Y-500481D01*
X7235242Y-698919D02*
X7230410Y-698080D01*
X7235242Y-5901081D02*
X7240108Y-5900481D01*
X7235242Y-6098919D02*
X7230410Y-6098080D01*
X7240108Y-500481D02*
X7244998Y-500120D01*
X7240108Y-699519D02*
X7235242Y-698919D01*
X7240108Y-5900481D02*
X7244998Y-5900120D01*
X7240108Y-6099519D02*
X7235242Y-6098919D01*
X7244998Y-500120D02*
X7249901Y-500000D01*
X7244998Y-699880D02*
X7240108Y-699519D01*
X7244998Y-5900120D02*
X7249901Y-5900000D01*
X7244998Y-6099880D02*
X7240108Y-6099519D01*
X7249901Y-500000D02*
X8499914Y-499964D01*
X7249901Y-700000D02*
X7244998Y-699880D01*
X7249901Y-5900000D02*
X8149368Y-5900000D01*
X7249901Y-6100000D02*
X7244998Y-6099880D01*
X8149368Y-5900000D02*
X8168990Y-5899454D01*
X8168990Y-5899454D02*
X8186663Y-5898044D01*
X8186663Y-5898044D02*
X8201743Y-5896124D01*
X8201743Y-5896124D02*
X8221686Y-5892550D01*
X8221686Y-5892550D02*
X8238946Y-5888478D01*
X8238946Y-5888478D02*
X8255973Y-5883540D01*
X8249367Y-700000D02*
X7249901Y-700000D01*
X8255973Y-5883540D02*
X8270358Y-5878623D01*
X8263923Y-700417D02*
X8249367Y-700000D01*
X8270358Y-5878623D02*
X8286850Y-5872104D01*
X8276546Y-701442D02*
X8263923Y-700417D01*
X8286850Y-5872104D02*
X8305261Y-5863645D01*
X8289101Y-703106D02*
X8276546Y-701442D01*
X8301556Y-705403D02*
X8289101Y-703106D01*
X8305261Y-5863645D02*
X8320945Y-5855380D01*
X8311431Y-707695D02*
X8301556Y-705403D01*
X8320945Y-5855380D02*
X8334046Y-5847668D01*
X8323623Y-711117D02*
X8311431Y-707695D01*
X8334046Y-5847668D02*
X8348888Y-5837963D01*
X8335630Y-715153D02*
X8323623Y-711117D01*
X8348888Y-5837963D02*
X8365219Y-5825971D01*
X8349740Y-720789D02*
X8335630Y-715153D01*
X8361219Y-726134D02*
X8349740Y-720789D01*
X8365219Y-5825971D02*
X8377000Y-5816364D01*
X8370203Y-730827D02*
X8361219Y-726134D01*
X8377000Y-5816364D02*
X8390198Y-5804527D01*
X8383297Y-738535D02*
X8370203Y-730827D01*
X8390198Y-5804527D02*
X8404525Y-5790200D01*
X8393838Y-745559D02*
X8383297Y-738535D01*
X8402007Y-751558D02*
X8393838Y-745559D01*
X8404525Y-5790200D02*
X8416366Y-5776998D01*
X8411861Y-759510D02*
X8402007Y-751558D01*
X8416366Y-5776998D02*
X8427520Y-5763218D01*
X8423136Y-769696D02*
X8411861Y-759510D01*
X8427520Y-5763218D02*
X8436517Y-5750965D01*
X8430304Y-776864D02*
X8423136Y-769696D01*
X8436517Y-5750965D02*
X8446330Y-5736193D01*
X8438840Y-786217D02*
X8430304Y-776864D01*
X8446330Y-5736193D02*
X8456608Y-5718733D01*
X8446895Y-795994D02*
X8438840Y-786217D01*
X8455888Y-808241D02*
X8446895Y-795994D01*
X8456608Y-5718733D02*
X8464759Y-5702989D01*
X8461465Y-816703D02*
X8455888Y-808241D01*
X8464759Y-5702989D02*
X8471106Y-5689176D01*
X8467944Y-827583D02*
X8461465Y-816703D01*
X8471106Y-5689176D02*
X8478622Y-5670360D01*
X8474979Y-841050D02*
X8467944Y-827583D01*
X8478622Y-5670360D02*
X8484297Y-5653559D01*
X8480209Y-852587D02*
X8474979Y-841050D01*
X8484297Y-5653559D02*
X8488479Y-5638944D01*
X8484847Y-864370D02*
X8480209Y-852587D01*
X8488125Y-873960D02*
X8484847Y-864370D01*
X8488479Y-5638944D02*
X8492549Y-5621688D01*
X8491671Y-886121D02*
X8488125Y-873960D01*
X8492549Y-5621688D02*
X8495741Y-5604244D01*
X8495106Y-900920D02*
X8491671Y-886121D01*
X8495741Y-5604244D02*
X8498045Y-5586663D01*
X8497277Y-913400D02*
X8495106Y-900920D01*
X8498045Y-5586663D02*
X8499455Y-5568988D01*
X8498558Y-923454D02*
X8497277Y-913400D01*
X8499455Y-5568988D02*
X8500000Y-5549367D01*
X8499583Y-936074D02*
X8498558Y-923454D01*
X8499914Y-499964D02*
X8499935Y-48D01*
X8499914Y-6100035D02*
X7249901Y-6100000D01*
X8499935Y-48D02*
X124Y-27D01*
X8499952Y-6599934D02*
X8499914Y-6100035D01*
X8500000Y-950633D02*
X8499583Y-936074D01*
X8500000Y-5549367D02*
X8500000Y-950633D01*
D11*
D10*
X85000Y-1035000D02*
X115000Y-1065000D01*
X115000Y-1035000D02*
X85000Y-1065000D01*
X85000Y-2135000D02*
X115000Y-2165000D01*
X115000Y-2135000D02*
X85000Y-2165000D01*
X85000Y-2885000D02*
X115000Y-2915000D01*
X115000Y-2885000D02*
X85000Y-2915000D01*
X85000Y-3655000D02*
X115000Y-3685000D01*
X115000Y-3655000D02*
X85000Y-3685000D01*
X135000Y-5725000D02*
X165000Y-5755000D01*
X165000Y-5725000D02*
X135000Y-5755000D01*
X315000Y-1585000D02*
X345000Y-1615000D01*
X345000Y-1585000D02*
X315000Y-1615000D01*
X335000Y-785000D02*
X365000Y-815000D01*
X365000Y-785000D02*
X335000Y-815000D01*
X495000Y-1515000D02*
X525000Y-1545000D01*
X525000Y-1515000D02*
X495000Y-1545000D01*
X525000Y-935000D02*
X555000Y-965000D01*
X555000Y-935000D02*
X525000Y-965000D01*
X665000Y-1175000D02*
X695000Y-1205000D01*
X695000Y-1175000D02*
X665000Y-1205000D01*
X705000Y-2955000D02*
X735000Y-2985000D01*
X735000Y-2955000D02*
X705000Y-2985000D01*
X745000Y-2595000D02*
X775000Y-2625000D01*
X775000Y-2595000D02*
X745000Y-2625000D01*
X795000Y-935000D02*
X825000Y-965000D01*
X825000Y-935000D02*
X795000Y-965000D01*
X855000Y-4385000D02*
X885000Y-4415000D01*
X885000Y-4385000D02*
X855000Y-4415000D01*
X895000Y-2375000D02*
X925000Y-2405000D01*
X925000Y-2375000D02*
X895000Y-2405000D01*
X995000Y-1445000D02*
X1025000Y-1475000D01*
X1025000Y-1445000D02*
X995000Y-1475000D01*
X1185000Y-2185000D02*
X1215000Y-2215000D01*
X1215000Y-2185000D02*
X1185000Y-2215000D01*
X1245000Y-1445000D02*
X1275000Y-1475000D01*
X1275000Y-1445000D02*
X1245000Y-1475000D01*
X1265000Y-4345000D02*
X1295000Y-4375000D01*
X1295000Y-4345000D02*
X1265000Y-4375000D01*
X1315000Y-4035000D02*
X1345000Y-4065000D01*
X1345000Y-4035000D02*
X1315000Y-4065000D01*
X1345000Y-2055000D02*
X1375000Y-2085000D01*
X1375000Y-2055000D02*
X1345000Y-2085000D01*
X1385000Y-3595000D02*
X1415000Y-3625000D01*
X1415000Y-3595000D02*
X1385000Y-3625000D01*
X1465000Y-1435000D02*
X1495000Y-1465000D01*
X1495000Y-1435000D02*
X1465000Y-1465000D01*
X1485000Y-1975000D02*
X1515000Y-2005000D01*
X1515000Y-1975000D02*
X1485000Y-2005000D01*
X1505000Y-785000D02*
X1535000Y-815000D01*
X1535000Y-785000D02*
X1505000Y-815000D01*
X1535000Y-3385000D02*
X1565000Y-3415000D01*
X1565000Y-3385000D02*
X1535000Y-3415000D01*
X1545000Y-3975000D02*
X1575000Y-4005000D01*
X1575000Y-3975000D02*
X1545000Y-4005000D01*
X1595000Y-4525000D02*
X1625000Y-4555000D01*
X1625000Y-4525000D02*
X1595000Y-4555000D01*
X1645000Y-2845000D02*
X1675000Y-2875000D01*
X1675000Y-2845000D02*
X1645000Y-2875000D01*
X1665000Y-2605000D02*
X1695000Y-2635000D01*
X1695000Y-2605000D02*
X1665000Y-2635000D01*
X1695000Y-4415000D02*
X1725000Y-4445000D01*
X1725000Y-4415000D02*
X1695000Y-4445000D01*
X1745000Y-1445000D02*
X1775000Y-1475000D01*
X1775000Y-1445000D02*
X1745000Y-1475000D01*
X1745000Y-4225000D02*
X1775000Y-4255000D01*
X1775000Y-4225000D02*
X1745000Y-4255000D01*
X1765000Y-3975000D02*
X1795000Y-4005000D01*
X1795000Y-3975000D02*
X1765000Y-4005000D01*
X1805000Y-4455000D02*
X1835000Y-4485000D01*
X1835000Y-4455000D02*
X1805000Y-4485000D01*
X1820000Y-3290000D02*
X1850000Y-3320000D01*
X1850000Y-3290000D02*
X1820000Y-3320000D01*
X1865000Y-1965000D02*
X1895000Y-1995000D01*
X1895000Y-1965000D02*
X1865000Y-1995000D01*
X1935000Y-2745000D02*
X1965000Y-2775000D01*
X1965000Y-2745000D02*
X1935000Y-2775000D01*
X1985000Y-1445000D02*
X2015000Y-1475000D01*
X2015000Y-1445000D02*
X1985000Y-1475000D01*
X1985000Y-3885000D02*
X2015000Y-3915000D01*
X2015000Y-3885000D02*
X1985000Y-3915000D01*
X1995000Y-3755000D02*
X2025000Y-3785000D01*
X2025000Y-3755000D02*
X1995000Y-3785000D01*
X2025000Y-4345000D02*
X2055000Y-4375000D01*
X2055000Y-4345000D02*
X2025000Y-4375000D01*
X2115000Y-3875000D02*
X2145000Y-3905000D01*
X2145000Y-3875000D02*
X2115000Y-3905000D01*
X2125000Y-4765000D02*
X2155000Y-4795000D01*
X2155000Y-4765000D02*
X2125000Y-4795000D01*
X2175000Y-2915000D02*
X2205000Y-2945000D01*
X2205000Y-2915000D02*
X2175000Y-2945000D01*
X2184900Y-5030000D02*
X2214900Y-5060000D01*
X2214900Y-5030000D02*
X2184900Y-5060000D01*
X2195000Y-3015000D02*
X2225000Y-3045000D01*
X2225000Y-3015000D02*
X2195000Y-3045000D01*
X2195000Y-3095000D02*
X2225000Y-3125000D01*
X2225000Y-3095000D02*
X2195000Y-3125000D01*
X2215000Y-3195000D02*
X2245000Y-3225000D01*
X2245000Y-3195000D02*
X2215000Y-3225000D01*
X2235000Y-4515000D02*
X2265000Y-4545000D01*
X2265000Y-4515000D02*
X2235000Y-4545000D01*
X2245000Y-1445000D02*
X2275000Y-1475000D01*
X2275000Y-1445000D02*
X2245000Y-1475000D01*
X2255000Y-1915000D02*
X2285000Y-1945000D01*
X2285000Y-1915000D02*
X2255000Y-1945000D01*
X2290000Y-5280000D02*
X2320000Y-5310000D01*
X2320000Y-5280000D02*
X2290000Y-5310000D01*
X2295000Y-3395000D02*
X2325000Y-3425000D01*
X2325000Y-3395000D02*
X2295000Y-3425000D01*
X2335000Y-2395000D02*
X2365000Y-2425000D01*
X2365000Y-2395000D02*
X2335000Y-2425000D01*
X2335000Y-3095000D02*
X2365000Y-3125000D01*
X2365000Y-3095000D02*
X2335000Y-3125000D01*
X2425000Y-3085000D02*
X2455000Y-3115000D01*
X2455000Y-3085000D02*
X2425000Y-3115000D01*
X2485937Y-3379871D02*
X2515937Y-3409871D01*
X2515937Y-3379871D02*
X2485937Y-3409871D01*
X2495000Y-1445000D02*
X2525000Y-1475000D01*
X2525000Y-1445000D02*
X2495000Y-1475000D01*
X2515000Y-2045000D02*
X2545000Y-2075000D01*
X2545000Y-2045000D02*
X2515000Y-2075000D01*
X2515000Y-4675000D02*
X2545000Y-4705000D01*
X2545000Y-4675000D02*
X2515000Y-4705000D01*
X2555000Y-3175000D02*
X2585000Y-3205000D01*
X2585000Y-3175000D02*
X2555000Y-3205000D01*
X2585000Y-4325000D02*
X2615000Y-4355000D01*
X2615000Y-4325000D02*
X2585000Y-4355000D01*
X2605000Y-4005000D02*
X2635000Y-4035000D01*
X2635000Y-4005000D02*
X2605000Y-4035000D01*
X2635000Y-2695000D02*
X2665000Y-2725000D01*
X2665000Y-2695000D02*
X2635000Y-2725000D01*
X2650000Y-3150000D02*
X2680000Y-3180000D01*
X2680000Y-3150000D02*
X2650000Y-3180000D01*
X2695000Y-2955000D02*
X2725000Y-2985000D01*
X2725000Y-2955000D02*
X2695000Y-2985000D01*
X2695000Y-3375000D02*
X2725000Y-3405000D01*
X2725000Y-3375000D02*
X2695000Y-3405000D01*
X2695444Y-3654879D02*
X2725444Y-3684879D01*
X2725444Y-3654879D02*
X2695444Y-3684879D01*
X2755000Y-785000D02*
X2785000Y-815000D01*
X2785000Y-785000D02*
X2755000Y-815000D01*
X2775000Y-2275000D02*
X2805000Y-2305000D01*
X2805000Y-2275000D02*
X2775000Y-2305000D01*
X2855000Y-3190000D02*
X2885000Y-3220000D01*
X2885000Y-3190000D02*
X2855000Y-3220000D01*
X2885000Y-4275000D02*
X2915000Y-4305000D01*
X2915000Y-4275000D02*
X2885000Y-4305000D01*
X2935000Y-4665000D02*
X2965000Y-4695000D01*
X2965000Y-4665000D02*
X2935000Y-4695000D01*
X2975000Y-2475000D02*
X3005000Y-2505000D01*
X3005000Y-2475000D02*
X2975000Y-2505000D01*
X2985000Y-3015000D02*
X3015000Y-3045000D01*
X3015000Y-3015000D02*
X2985000Y-3045000D01*
X2995000Y-3315000D02*
X3025000Y-3345000D01*
X3025000Y-3315000D02*
X2995000Y-3345000D01*
X2995000Y-4055000D02*
X3025000Y-4085000D01*
X3025000Y-4055000D02*
X2995000Y-4085000D01*
X2995000Y-5075000D02*
X3025000Y-5105000D01*
X3025000Y-5075000D02*
X2995000Y-5105000D01*
X3005000Y-3585000D02*
X3035000Y-3615000D01*
X3035000Y-3585000D02*
X3005000Y-3615000D01*
X3095000Y-3645000D02*
X3125000Y-3675000D01*
X3125000Y-3645000D02*
X3095000Y-3675000D01*
X3095000Y-3715000D02*
X3125000Y-3745000D01*
X3125000Y-3715000D02*
X3095000Y-3745000D01*
X3095000Y-3785000D02*
X3125000Y-3815000D01*
X3125000Y-3785000D02*
X3095000Y-3815000D01*
X3095000Y-3855000D02*
X3125000Y-3885000D01*
X3125000Y-3855000D02*
X3095000Y-3885000D01*
X3095000Y-3925000D02*
X3125000Y-3955000D01*
X3125000Y-3925000D02*
X3095000Y-3955000D01*
X3095000Y-3995000D02*
X3125000Y-4025000D01*
X3125000Y-3995000D02*
X3095000Y-4025000D01*
X3195000Y-2715000D02*
X3225000Y-2745000D01*
X3225000Y-2715000D02*
X3195000Y-2745000D01*
X3195000Y-4445000D02*
X3225000Y-4475000D01*
X3225000Y-4445000D02*
X3195000Y-4475000D01*
X3205000Y-1425000D02*
X3235000Y-1455000D01*
X3235000Y-1425000D02*
X3205000Y-1455000D01*
X3295000Y-5305000D02*
X3325000Y-5335000D01*
X3325000Y-5305000D02*
X3295000Y-5335000D01*
X3335000Y-2195000D02*
X3365000Y-2225000D01*
X3365000Y-2195000D02*
X3335000Y-2225000D01*
X3345000Y-1675000D02*
X3375000Y-1705000D01*
X3375000Y-1675000D02*
X3345000Y-1705000D01*
X3375000Y-945000D02*
X3405000Y-975000D01*
X3405000Y-945000D02*
X3375000Y-975000D01*
X3375000Y-2475000D02*
X3405000Y-2505000D01*
X3405000Y-2475000D02*
X3375000Y-2505000D01*
X3395000Y-3475000D02*
X3425000Y-3505000D01*
X3425000Y-3475000D02*
X3395000Y-3505000D01*
X3395000Y-3965000D02*
X3425000Y-3995000D01*
X3425000Y-3965000D02*
X3395000Y-3995000D01*
X3475000Y-4455000D02*
X3505000Y-4485000D01*
X3505000Y-4455000D02*
X3475000Y-4485000D01*
X3515000Y-1185000D02*
X3545000Y-1215000D01*
X3545000Y-1185000D02*
X3515000Y-1215000D01*
X3635000Y-1965000D02*
X3665000Y-1995000D01*
X3665000Y-1965000D02*
X3635000Y-1995000D01*
X3635000Y-2475000D02*
X3665000Y-2505000D01*
X3665000Y-2475000D02*
X3635000Y-2505000D01*
X3635000Y-3005000D02*
X3665000Y-3035000D01*
X3665000Y-3005000D02*
X3635000Y-3035000D01*
X3635000Y-3475000D02*
X3665000Y-3505000D01*
X3665000Y-3475000D02*
X3635000Y-3505000D01*
X3645000Y-3965000D02*
X3675000Y-3995000D01*
X3675000Y-3965000D02*
X3645000Y-3995000D01*
X3645000Y-4275000D02*
X3675000Y-4305000D01*
X3675000Y-4275000D02*
X3645000Y-4305000D01*
X3655000Y-945000D02*
X3685000Y-975000D01*
X3685000Y-945000D02*
X3655000Y-975000D01*
X3795000Y-5305000D02*
X3825000Y-5335000D01*
X3825000Y-5305000D02*
X3795000Y-5335000D01*
X3795000Y-5545000D02*
X3825000Y-5575000D01*
X3825000Y-5545000D02*
X3795000Y-5575000D01*
X3835000Y-4835000D02*
X3865000Y-4865000D01*
X3865000Y-4835000D02*
X3835000Y-4865000D01*
X4045000Y-4655000D02*
X4075000Y-4685000D01*
X4075000Y-4655000D02*
X4045000Y-4685000D01*
X4085000Y-1735000D02*
X4115000Y-1765000D01*
X4115000Y-1735000D02*
X4085000Y-1765000D01*
X4085000Y-2285000D02*
X4115000Y-2315000D01*
X4115000Y-2285000D02*
X4085000Y-2315000D01*
X4135000Y-4035000D02*
X4165000Y-4065000D01*
X4165000Y-4035000D02*
X4135000Y-4065000D01*
X4335000Y-2535000D02*
X4365000Y-2565000D01*
X4365000Y-2535000D02*
X4335000Y-2565000D01*
X4385000Y-4285000D02*
X4415000Y-4315000D01*
X4415000Y-4285000D02*
X4385000Y-4315000D01*
X4385000Y-4835000D02*
X4415000Y-4865000D01*
X4415000Y-4835000D02*
X4385000Y-4865000D01*
X4425000Y-1915000D02*
X4455000Y-1945000D01*
X4455000Y-1915000D02*
X4425000Y-1945000D01*
X4635000Y-1735000D02*
X4665000Y-1765000D01*
X4665000Y-1735000D02*
X4635000Y-1765000D01*
X4675000Y-1025000D02*
X4705000Y-1055000D01*
X4705000Y-1025000D02*
X4675000Y-1055000D01*
X4675000Y-1265000D02*
X4705000Y-1295000D01*
X4705000Y-1265000D02*
X4675000Y-1295000D01*
X4815000Y-5625000D02*
X4845000Y-5655000D01*
X4845000Y-5625000D02*
X4815000Y-5655000D01*
X4825000Y-2295000D02*
X4855000Y-2325000D01*
X4855000Y-2295000D02*
X4825000Y-2325000D01*
X4825000Y-2605000D02*
X4855000Y-2635000D01*
X4855000Y-2605000D02*
X4825000Y-2635000D01*
X4835000Y-3095000D02*
X4865000Y-3125000D01*
X4865000Y-3095000D02*
X4835000Y-3125000D01*
X4835000Y-3565000D02*
X4865000Y-3595000D01*
X4865000Y-3565000D02*
X4835000Y-3595000D01*
X4835000Y-4095000D02*
X4865000Y-4125000D01*
X4865000Y-4095000D02*
X4835000Y-4125000D01*
X4835000Y-4605000D02*
X4865000Y-4635000D01*
X4865000Y-4605000D02*
X4835000Y-4635000D01*
X4955000Y-5385000D02*
X4985000Y-5415000D01*
X4985000Y-5385000D02*
X4955000Y-5415000D01*
X4995000Y-2115000D02*
X5025000Y-2145000D01*
X5025000Y-2115000D02*
X4995000Y-2145000D01*
X5075000Y-2605000D02*
X5105000Y-2635000D01*
X5105000Y-2605000D02*
X5075000Y-2635000D01*
X5075000Y-3095000D02*
X5105000Y-3125000D01*
X5105000Y-3095000D02*
X5075000Y-3125000D01*
X5095000Y-4095000D02*
X5125000Y-4125000D01*
X5125000Y-4095000D02*
X5095000Y-4125000D01*
X5095000Y-5625000D02*
X5125000Y-5655000D01*
X5125000Y-5625000D02*
X5095000Y-5655000D01*
X5125000Y-4895000D02*
X5155000Y-4925000D01*
X5155000Y-4895000D02*
X5125000Y-4925000D01*
X5135000Y-4375000D02*
X5165000Y-4405000D01*
X5165000Y-4375000D02*
X5135000Y-4405000D01*
X5175000Y-1265000D02*
X5205000Y-1295000D01*
X5205000Y-1265000D02*
X5175000Y-1295000D01*
X5265000Y-5145000D02*
X5295000Y-5175000D01*
X5295000Y-5145000D02*
X5265000Y-5175000D01*
X5275000Y-2125000D02*
X5305000Y-2155000D01*
X5305000Y-2125000D02*
X5275000Y-2155000D01*
X5275000Y-3855000D02*
X5305000Y-3885000D01*
X5305000Y-3855000D02*
X5275000Y-3885000D01*
X5375000Y-2575000D02*
X5405000Y-2605000D01*
X5405000Y-2575000D02*
X5375000Y-2605000D01*
X5375000Y-2645000D02*
X5405000Y-2675000D01*
X5405000Y-2645000D02*
X5375000Y-2675000D01*
X5375000Y-2715000D02*
X5405000Y-2745000D01*
X5405000Y-2715000D02*
X5375000Y-2745000D01*
X5375000Y-2785000D02*
X5405000Y-2815000D01*
X5405000Y-2785000D02*
X5375000Y-2815000D01*
X5375000Y-2855000D02*
X5405000Y-2885000D01*
X5405000Y-2855000D02*
X5375000Y-2885000D01*
X5375000Y-2925000D02*
X5405000Y-2955000D01*
X5405000Y-2925000D02*
X5375000Y-2955000D01*
X5465000Y-2985000D02*
X5495000Y-3015000D01*
X5495000Y-2985000D02*
X5465000Y-3015000D01*
X5475000Y-1495000D02*
X5505000Y-1525000D01*
X5505000Y-1495000D02*
X5475000Y-1525000D01*
X5475000Y-2515000D02*
X5505000Y-2545000D01*
X5505000Y-2515000D02*
X5475000Y-2545000D01*
X5475000Y-3255000D02*
X5505000Y-3285000D01*
X5505000Y-3255000D02*
X5475000Y-3285000D01*
X5485000Y-3555000D02*
X5515000Y-3585000D01*
X5515000Y-3555000D02*
X5485000Y-3585000D01*
X5495000Y-4095000D02*
X5525000Y-4125000D01*
X5525000Y-4095000D02*
X5495000Y-4125000D01*
X5535000Y-1905000D02*
X5565000Y-1935000D01*
X5565000Y-1905000D02*
X5535000Y-1935000D01*
X5585000Y-2295000D02*
X5615000Y-2325000D01*
X5615000Y-2295000D02*
X5585000Y-2325000D01*
X5615000Y-3380000D02*
X5645000Y-3410000D01*
X5645000Y-3380000D02*
X5615000Y-3410000D01*
X5695000Y-4295000D02*
X5725000Y-4325000D01*
X5725000Y-4295000D02*
X5695000Y-4325000D01*
X5715000Y-5785000D02*
X5745000Y-5815000D01*
X5745000Y-5785000D02*
X5715000Y-5815000D01*
X5774556Y-2915121D02*
X5804556Y-2945121D01*
X5804556Y-2915121D02*
X5774556Y-2945121D01*
X5775000Y-3195000D02*
X5805000Y-3225000D01*
X5805000Y-3195000D02*
X5775000Y-3225000D01*
X5775000Y-3615000D02*
X5805000Y-3645000D01*
X5805000Y-3615000D02*
X5775000Y-3645000D01*
X5820000Y-3420000D02*
X5850000Y-3450000D01*
X5850000Y-3420000D02*
X5820000Y-3450000D01*
X5835000Y-3875000D02*
X5865000Y-3905000D01*
X5865000Y-3875000D02*
X5835000Y-3905000D01*
X5865000Y-2565000D02*
X5895000Y-2595000D01*
X5895000Y-2565000D02*
X5865000Y-2595000D01*
X5885000Y-2245000D02*
X5915000Y-2275000D01*
X5915000Y-2245000D02*
X5885000Y-2275000D01*
X5915000Y-3395000D02*
X5945000Y-3425000D01*
X5945000Y-3395000D02*
X5915000Y-3425000D01*
X5955000Y-1895000D02*
X5985000Y-1925000D01*
X5985000Y-1895000D02*
X5955000Y-1925000D01*
X5955000Y-4525000D02*
X5985000Y-4555000D01*
X5985000Y-4525000D02*
X5955000Y-4555000D01*
X5975000Y-5125000D02*
X6005000Y-5155000D01*
X6005000Y-5125000D02*
X5975000Y-5155000D01*
X5984063Y-3190129D02*
X6014063Y-3220129D01*
X6014063Y-3190129D02*
X5984063Y-3220129D01*
X6045000Y-3485000D02*
X6075000Y-3515000D01*
X6075000Y-3485000D02*
X6045000Y-3515000D01*
X6135000Y-3475000D02*
X6165000Y-3505000D01*
X6165000Y-3475000D02*
X6135000Y-3505000D01*
X6135000Y-4175000D02*
X6165000Y-4205000D01*
X6165000Y-4175000D02*
X6135000Y-4205000D01*
X6175000Y-3175000D02*
X6205000Y-3205000D01*
X6205000Y-3175000D02*
X6175000Y-3205000D01*
X6180000Y-1290000D02*
X6210000Y-1320000D01*
X6210000Y-1290000D02*
X6180000Y-1320000D01*
X6215000Y-4655000D02*
X6245000Y-4685000D01*
X6245000Y-4655000D02*
X6215000Y-4685000D01*
X6225000Y-5125000D02*
X6255000Y-5155000D01*
X6255000Y-5125000D02*
X6225000Y-5155000D01*
X6235000Y-2055000D02*
X6265000Y-2085000D01*
X6265000Y-2055000D02*
X6235000Y-2085000D01*
X6255000Y-3375000D02*
X6285000Y-3405000D01*
X6285000Y-3375000D02*
X6255000Y-3405000D01*
X6275000Y-3475000D02*
X6305000Y-3505000D01*
X6305000Y-3475000D02*
X6275000Y-3505000D01*
X6275000Y-3555000D02*
X6305000Y-3585000D01*
X6305000Y-3555000D02*
X6275000Y-3585000D01*
X6285100Y-1540000D02*
X6315100Y-1570000D01*
X6315100Y-1540000D02*
X6285100Y-1570000D01*
X6295000Y-3655000D02*
X6325000Y-3685000D01*
X6325000Y-3655000D02*
X6295000Y-3685000D01*
X6345000Y-1805000D02*
X6375000Y-1835000D01*
X6375000Y-1805000D02*
X6345000Y-1835000D01*
X6355000Y-2695000D02*
X6385000Y-2725000D01*
X6385000Y-2695000D02*
X6355000Y-2725000D01*
X6445000Y-2225000D02*
X6475000Y-2255000D01*
X6475000Y-2225000D02*
X6445000Y-2255000D01*
X6475000Y-2815000D02*
X6505000Y-2845000D01*
X6505000Y-2815000D02*
X6475000Y-2845000D01*
X6485000Y-2685000D02*
X6515000Y-2715000D01*
X6515000Y-2685000D02*
X6485000Y-2715000D01*
X6485000Y-5125000D02*
X6515000Y-5155000D01*
X6515000Y-5125000D02*
X6485000Y-5155000D01*
X6535000Y-3825000D02*
X6565000Y-3855000D01*
X6565000Y-3825000D02*
X6535000Y-3855000D01*
X6605000Y-4605000D02*
X6635000Y-4635000D01*
X6635000Y-4605000D02*
X6605000Y-4635000D01*
X6650000Y-3280000D02*
X6680000Y-3310000D01*
X6680000Y-3280000D02*
X6650000Y-3310000D01*
X6665000Y-2115000D02*
X6695000Y-2145000D01*
X6695000Y-2115000D02*
X6665000Y-2145000D01*
X6705000Y-2595000D02*
X6735000Y-2625000D01*
X6735000Y-2595000D02*
X6705000Y-2625000D01*
X6725000Y-2345000D02*
X6755000Y-2375000D01*
X6755000Y-2345000D02*
X6725000Y-2375000D01*
X6725000Y-5125000D02*
X6755000Y-5155000D01*
X6755000Y-5125000D02*
X6725000Y-5155000D01*
X6775000Y-2155000D02*
X6805000Y-2185000D01*
X6805000Y-2155000D02*
X6775000Y-2185000D01*
X6805000Y-3965000D02*
X6835000Y-3995000D01*
X6835000Y-3965000D02*
X6805000Y-3995000D01*
X6825000Y-3725000D02*
X6855000Y-3755000D01*
X6855000Y-3725000D02*
X6825000Y-3755000D01*
X6875000Y-2045000D02*
X6905000Y-2075000D01*
X6905000Y-2045000D02*
X6875000Y-2075000D01*
X6925000Y-2595000D02*
X6955000Y-2625000D01*
X6955000Y-2595000D02*
X6925000Y-2625000D01*
X6935000Y-3185000D02*
X6965000Y-3215000D01*
X6965000Y-3185000D02*
X6935000Y-3215000D01*
X6965000Y-5785000D02*
X6995000Y-5815000D01*
X6995000Y-5785000D02*
X6965000Y-5815000D01*
X6985000Y-4595000D02*
X7015000Y-4625000D01*
X7015000Y-4595000D02*
X6985000Y-4625000D01*
X7005000Y-5135000D02*
X7035000Y-5165000D01*
X7035000Y-5135000D02*
X7005000Y-5165000D01*
X7085000Y-2975000D02*
X7115000Y-3005000D01*
X7115000Y-2975000D02*
X7085000Y-3005000D01*
X7125000Y-4515000D02*
X7155000Y-4545000D01*
X7155000Y-4515000D02*
X7125000Y-4545000D01*
X7155000Y-2535000D02*
X7185000Y-2565000D01*
X7185000Y-2535000D02*
X7155000Y-2565000D01*
X7205000Y-2225000D02*
X7235000Y-2255000D01*
X7235000Y-2225000D02*
X7205000Y-2255000D01*
X7225000Y-5125000D02*
X7255000Y-5155000D01*
X7255000Y-5125000D02*
X7225000Y-5155000D01*
X7285000Y-4385000D02*
X7315000Y-4415000D01*
X7315000Y-4385000D02*
X7285000Y-4415000D01*
X7475000Y-5125000D02*
X7505000Y-5155000D01*
X7505000Y-5125000D02*
X7475000Y-5155000D01*
X7575000Y-4195000D02*
X7605000Y-4225000D01*
X7605000Y-4195000D02*
X7575000Y-4225000D01*
X7615000Y-2185000D02*
X7645000Y-2215000D01*
X7645000Y-2185000D02*
X7615000Y-2215000D01*
X7675000Y-5635000D02*
X7705000Y-5665000D01*
X7705000Y-5635000D02*
X7675000Y-5665000D01*
X7725000Y-3975000D02*
X7755000Y-4005000D01*
X7755000Y-3975000D02*
X7725000Y-4005000D01*
X7765000Y-3615000D02*
X7795000Y-3645000D01*
X7795000Y-3615000D02*
X7765000Y-3645000D01*
X7805000Y-5395000D02*
X7835000Y-5425000D01*
X7835000Y-5395000D02*
X7805000Y-5425000D01*
X7945000Y-5635000D02*
X7975000Y-5665000D01*
X7975000Y-5635000D02*
X7945000Y-5665000D01*
X7975000Y-5055000D02*
X8005000Y-5085000D01*
X8005000Y-5055000D02*
X7975000Y-5085000D01*
X8135000Y-5785000D02*
X8165000Y-5815000D01*
X8165000Y-5785000D02*
X8135000Y-5815000D01*
X8155000Y-4985000D02*
X8185000Y-5015000D01*
X8185000Y-4985000D02*
X8155000Y-5015000D01*
X8335000Y-845000D02*
X8365000Y-875000D01*
X8365000Y-845000D02*
X8335000Y-875000D01*
X8385000Y-2915000D02*
X8415000Y-2945000D01*
X8415000Y-2915000D02*
X8385000Y-2945000D01*
X8385000Y-3685000D02*
X8415000Y-3715000D01*
X8415000Y-3685000D02*
X8385000Y-3715000D01*
X8385000Y-4435000D02*
X8415000Y-4465000D01*
X8415000Y-4435000D02*
X8385000Y-4465000D01*
X8385000Y-5535000D02*
X8415000Y-5565000D01*
X8415000Y-5535000D02*
X8385000Y-5565000D01*
X2127500Y-3512500D02*
G75*
G02*
X2097500Y-3512500I-15000J0D01*
G01*
X2097500Y-3512500D02*
G75*
G02*
X2127500Y-3512500I15000J0D01*
G01*
X2127500Y-3650000D02*
G75*
G02*
X2097500Y-3650000I-15000J0D01*
G01*
X2097500Y-3650000D02*
G75*
G02*
X2127500Y-3650000I15000J0D01*
G01*
X2127500Y-3787500D02*
G75*
G02*
X2097500Y-3787500I-15000J0D01*
G01*
X2097500Y-3787500D02*
G75*
G02*
X2127500Y-3787500I15000J0D01*
G01*
X2265000Y-3512500D02*
G75*
G02*
X2235000Y-3512500I-15000J0D01*
G01*
X2235000Y-3512500D02*
G75*
G02*
X2265000Y-3512500I15000J0D01*
G01*
X2265000Y-3650000D02*
G75*
G02*
X2235000Y-3650000I-15000J0D01*
G01*
X2235000Y-3650000D02*
G75*
G02*
X2265000Y-3650000I15000J0D01*
G01*
X2265000Y-3787500D02*
G75*
G02*
X2235000Y-3787500I-15000J0D01*
G01*
X2235000Y-3787500D02*
G75*
G02*
X2265000Y-3787500I15000J0D01*
G01*
X2402500Y-3512500D02*
G75*
G02*
X2372500Y-3512500I-15000J0D01*
G01*
X2372500Y-3512500D02*
G75*
G02*
X2402500Y-3512500I15000J0D01*
G01*
X2402500Y-3650000D02*
G75*
G02*
X2372500Y-3650000I-15000J0D01*
G01*
X2372500Y-3650000D02*
G75*
G02*
X2402500Y-3650000I15000J0D01*
G01*
X2402500Y-3787500D02*
G75*
G02*
X2372500Y-3787500I-15000J0D01*
G01*
X2372500Y-3787500D02*
G75*
G02*
X2402500Y-3787500I15000J0D01*
G01*
X6127500Y-2812500D02*
G75*
G02*
X6097500Y-2812500I-15000J0D01*
G01*
X6097500Y-2812500D02*
G75*
G02*
X6127500Y-2812500I15000J0D01*
G01*
X6127500Y-2950000D02*
G75*
G02*
X6097500Y-2950000I-15000J0D01*
G01*
X6097500Y-2950000D02*
G75*
G02*
X6127500Y-2950000I15000J0D01*
G01*
X6127500Y-3087500D02*
G75*
G02*
X6097500Y-3087500I-15000J0D01*
G01*
X6097500Y-3087500D02*
G75*
G02*
X6127500Y-3087500I15000J0D01*
G01*
X6265000Y-2812500D02*
G75*
G02*
X6235000Y-2812500I-15000J0D01*
G01*
X6235000Y-2812500D02*
G75*
G02*
X6265000Y-2812500I15000J0D01*
G01*
X6265000Y-2950000D02*
G75*
G02*
X6235000Y-2950000I-15000J0D01*
G01*
X6235000Y-2950000D02*
G75*
G02*
X6265000Y-2950000I15000J0D01*
G01*
X6265000Y-3087500D02*
G75*
G02*
X6235000Y-3087500I-15000J0D01*
G01*
X6235000Y-3087500D02*
G75*
G02*
X6265000Y-3087500I15000J0D01*
G01*
X6402500Y-2812500D02*
G75*
G02*
X6372500Y-2812500I-15000J0D01*
G01*
X6372500Y-2812500D02*
G75*
G02*
X6402500Y-2812500I15000J0D01*
G01*
X6402500Y-2950000D02*
G75*
G02*
X6372500Y-2950000I-15000J0D01*
G01*
X6372500Y-2950000D02*
G75*
G02*
X6402500Y-2950000I15000J0D01*
G01*
X6402500Y-3087500D02*
G75*
G02*
X6372500Y-3087500I-15000J0D01*
G01*
X6372500Y-3087500D02*
G75*
G02*
X6402500Y-3087500I15000J0D01*
G01*
X1818000Y-5207500D02*
X1818000Y-5267500D01*
X1788000Y-5237500D02*
X1848000Y-5237500D01*
X1788000Y-5182500D02*
X1788000Y-5292500D01*
X1848000Y-5292500D02*
G75*
G02*
X1788000Y-5292500I-30000J0D01*
G01*
X1848000Y-5292500D02*
X1848000Y-5182500D01*
X1848000Y-5182500D02*
G75*
G03*
X1788000Y-5182500I-30000J0D01*
G01*
X1818000Y-5627500D02*
X1818000Y-5687500D01*
X1788000Y-5657500D02*
X1848000Y-5657500D01*
X1788000Y-5617500D02*
X1788000Y-5697500D01*
X1848000Y-5697500D02*
G75*
G02*
X1788000Y-5697500I-30000J0D01*
G01*
X1848000Y-5697500D02*
X1848000Y-5617500D01*
X1848000Y-5617500D02*
G75*
G03*
X1788000Y-5617500I-30000J0D01*
G01*
X2682000Y-5207500D02*
X2682000Y-5267500D01*
X2652000Y-5237500D02*
X2712000Y-5237500D01*
X2652000Y-5182500D02*
X2652000Y-5292500D01*
X2712000Y-5292500D02*
G75*
G02*
X2652000Y-5292500I-30000J0D01*
G01*
X2712000Y-5292500D02*
X2712000Y-5182500D01*
X2712000Y-5182500D02*
G75*
G03*
X2652000Y-5182500I-30000J0D01*
G01*
X2682000Y-5627500D02*
X2682000Y-5687500D01*
X2652000Y-5657500D02*
X2712000Y-5657500D01*
X2652000Y-5617500D02*
X2652000Y-5697500D01*
X2712000Y-5697500D02*
G75*
G02*
X2652000Y-5697500I-30000J0D01*
G01*
X2712000Y-5697500D02*
X2712000Y-5617500D01*
X2712000Y-5617500D02*
G75*
G03*
X2652000Y-5617500I-30000J0D01*
G01*
X5818000Y-912500D02*
X5818000Y-972500D01*
X5788000Y-942500D02*
X5848000Y-942500D01*
X5848000Y-982500D02*
X5848000Y-902500D01*
X5788000Y-902500D02*
G75*
G02*
X5848000Y-902500I30000J0D01*
G01*
X5788000Y-902500D02*
X5788000Y-982500D01*
X5788000Y-982500D02*
G75*
G03*
X5848000Y-982500I30000J0D01*
G01*
X5818000Y-1332500D02*
X5818000Y-1392500D01*
X5788000Y-1362500D02*
X5848000Y-1362500D01*
X5848000Y-1417500D02*
X5848000Y-1307500D01*
X5788000Y-1307500D02*
G75*
G02*
X5848000Y-1307500I30000J0D01*
G01*
X5788000Y-1307500D02*
X5788000Y-1417500D01*
X5788000Y-1417500D02*
G75*
G03*
X5848000Y-1417500I30000J0D01*
G01*
X6682000Y-912500D02*
X6682000Y-972500D01*
X6652000Y-942500D02*
X6712000Y-942500D01*
X6712000Y-982500D02*
X6712000Y-902500D01*
X6652000Y-902500D02*
G75*
G02*
X6712000Y-902500I30000J0D01*
G01*
X6652000Y-902500D02*
X6652000Y-982500D01*
X6652000Y-982500D02*
G75*
G03*
X6712000Y-982500I30000J0D01*
G01*
X6682000Y-1332500D02*
X6682000Y-1392500D01*
X6652000Y-1362500D02*
X6712000Y-1362500D01*
X6712000Y-1417500D02*
X6712000Y-1307500D01*
X6652000Y-1307500D02*
G75*
G02*
X6712000Y-1307500I30000J0D01*
G01*
X6652000Y-1307500D02*
X6652000Y-1417500D01*
X6652000Y-1417500D02*
G75*
G03*
X6712000Y-1417500I30000J0D01*
G01*
X632527Y-4659777D02*
X632527Y-4594723D01*
X567473Y-4594723D01*
X567473Y-4659777D01*
X632527Y-4659777D01*
X882527Y-4659777D02*
X882527Y-4594723D01*
X817473Y-4594723D01*
X817473Y-4659777D01*
X882527Y-4659777D01*
X1082527Y-4659777D02*
X1082527Y-4594723D01*
X1017473Y-4594723D01*
X1017473Y-4659777D01*
X1082527Y-4659777D01*
X1332527Y-4659777D02*
X1332527Y-4594723D01*
X1267473Y-4594723D01*
X1267473Y-4659777D01*
X1332527Y-4659777D01*
X7232527Y-2005277D02*
X7232527Y-1940223D01*
X7167473Y-1940223D01*
X7167473Y-2005277D01*
X7232527Y-2005277D01*
X7482527Y-2005277D02*
X7482527Y-1940223D01*
X7417473Y-1940223D01*
X7417473Y-2005277D01*
X7482527Y-2005277D01*
X7682527Y-2005277D02*
X7682527Y-1940223D01*
X7617473Y-1940223D01*
X7617473Y-2005277D01*
X7682527Y-2005277D01*
X7932527Y-2005277D02*
X7932527Y-1940223D01*
X7867473Y-1940223D01*
X7867473Y-2005277D01*
X7932527Y-2005277D01*
X281000Y-2062500D02*
X331000Y-2012500D01*
X281000Y-1962500D01*
X231000Y-2012500D01*
X281000Y-2062500D01*
X281000Y-2316500D02*
X331000Y-2266500D01*
X281000Y-2216500D01*
X231000Y-2266500D01*
X281000Y-2316500D01*
X281000Y-2570500D02*
X331000Y-2520500D01*
X281000Y-2470500D01*
X231000Y-2520500D01*
X281000Y-2570500D01*
X281000Y-2824500D02*
X331000Y-2774500D01*
X281000Y-2724500D01*
X231000Y-2774500D01*
X281000Y-2824500D01*
X281000Y-3078500D02*
X331000Y-3028500D01*
X281000Y-2978500D01*
X231000Y-3028500D01*
X281000Y-3078500D01*
X281000Y-3332500D02*
X331000Y-3282500D01*
X281000Y-3232500D01*
X231000Y-3282500D01*
X281000Y-3332500D01*
X281000Y-3586500D02*
X331000Y-3536500D01*
X281000Y-3486500D01*
X231000Y-3536500D01*
X281000Y-3586500D01*
X281000Y-3840500D02*
X331000Y-3790500D01*
X281000Y-3740500D01*
X231000Y-3790500D01*
X281000Y-3840500D01*
X535000Y-2062500D02*
X585000Y-2012500D01*
X535000Y-1962500D01*
X485000Y-2012500D01*
X535000Y-2062500D01*
X535000Y-2316500D02*
X585000Y-2266500D01*
X535000Y-2216500D01*
X485000Y-2266500D01*
X535000Y-2316500D01*
X535000Y-2570500D02*
X585000Y-2520500D01*
X535000Y-2470500D01*
X485000Y-2520500D01*
X535000Y-2570500D01*
X535000Y-2824500D02*
X585000Y-2774500D01*
X535000Y-2724500D01*
X485000Y-2774500D01*
X535000Y-2824500D01*
X535000Y-3078500D02*
X585000Y-3028500D01*
X535000Y-2978500D01*
X485000Y-3028500D01*
X535000Y-3078500D01*
X535000Y-3332500D02*
X585000Y-3282500D01*
X535000Y-3232500D01*
X485000Y-3282500D01*
X535000Y-3332500D01*
X535000Y-3586500D02*
X585000Y-3536500D01*
X535000Y-3486500D01*
X485000Y-3536500D01*
X535000Y-3586500D01*
X535000Y-3840500D02*
X585000Y-3790500D01*
X535000Y-3740500D01*
X485000Y-3790500D01*
X535000Y-3840500D01*
X596000Y-4300000D02*
X646000Y-4250000D01*
X596000Y-4200000D01*
X546000Y-4250000D01*
X596000Y-4300000D01*
X850000Y-4300000D02*
X900000Y-4250000D01*
X850000Y-4200000D01*
X800000Y-4250000D01*
X850000Y-4300000D01*
X1104000Y-4300000D02*
X1154000Y-4250000D01*
X1104000Y-4200000D01*
X1054000Y-4250000D01*
X1104000Y-4300000D01*
X3210000Y-4732000D02*
X3260000Y-4682000D01*
X3210000Y-4632000D01*
X3160000Y-4682000D01*
X3210000Y-4732000D01*
X3210000Y-4986000D02*
X3260000Y-4936000D01*
X3210000Y-4886000D01*
X3160000Y-4936000D01*
X3210000Y-4986000D01*
X3210000Y-5240000D02*
X3260000Y-5190000D01*
X3210000Y-5140000D01*
X3160000Y-5190000D01*
X3210000Y-5240000D01*
X3210000Y-5494000D02*
X3260000Y-5444000D01*
X3210000Y-5394000D01*
X3160000Y-5444000D01*
X3210000Y-5494000D01*
X3210000Y-5748000D02*
X3260000Y-5698000D01*
X3210000Y-5648000D01*
X3160000Y-5698000D01*
X3210000Y-5748000D01*
X5290000Y-952000D02*
X5340000Y-902000D01*
X5290000Y-852000D01*
X5240000Y-902000D01*
X5290000Y-952000D01*
X5290000Y-1206000D02*
X5340000Y-1156000D01*
X5290000Y-1106000D01*
X5240000Y-1156000D01*
X5290000Y-1206000D01*
X5290000Y-1460000D02*
X5340000Y-1410000D01*
X5290000Y-1360000D01*
X5240000Y-1410000D01*
X5290000Y-1460000D01*
X5290000Y-1714000D02*
X5340000Y-1664000D01*
X5290000Y-1614000D01*
X5240000Y-1664000D01*
X5290000Y-1714000D01*
X5290000Y-1968000D02*
X5340000Y-1918000D01*
X5290000Y-1868000D01*
X5240000Y-1918000D01*
X5290000Y-1968000D01*
X7396000Y-2400000D02*
X7446000Y-2350000D01*
X7396000Y-2300000D01*
X7346000Y-2350000D01*
X7396000Y-2400000D01*
X7650000Y-2400000D02*
X7700000Y-2350000D01*
X7650000Y-2300000D01*
X7600000Y-2350000D01*
X7650000Y-2400000D01*
X7904000Y-2400000D02*
X7954000Y-2350000D01*
X7904000Y-2300000D01*
X7854000Y-2350000D01*
X7904000Y-2400000D01*
X7965000Y-2859500D02*
X8015000Y-2809500D01*
X7965000Y-2759500D01*
X7915000Y-2809500D01*
X7965000Y-2859500D01*
X7965000Y-3113500D02*
X8015000Y-3063500D01*
X7965000Y-3013500D01*
X7915000Y-3063500D01*
X7965000Y-3113500D01*
X7965000Y-3367500D02*
X8015000Y-3317500D01*
X7965000Y-3267500D01*
X7915000Y-3317500D01*
X7965000Y-3367500D01*
X7965000Y-3621500D02*
X8015000Y-3571500D01*
X7965000Y-3521500D01*
X7915000Y-3571500D01*
X7965000Y-3621500D01*
X7965000Y-3875500D02*
X8015000Y-3825500D01*
X7965000Y-3775500D01*
X7915000Y-3825500D01*
X7965000Y-3875500D01*
X7965000Y-4129500D02*
X8015000Y-4079500D01*
X7965000Y-4029500D01*
X7915000Y-4079500D01*
X7965000Y-4129500D01*
X7965000Y-4383500D02*
X8015000Y-4333500D01*
X7965000Y-4283500D01*
X7915000Y-4333500D01*
X7965000Y-4383500D01*
X7965000Y-4637500D02*
X8015000Y-4587500D01*
X7965000Y-4537500D01*
X7915000Y-4587500D01*
X7965000Y-4637500D01*
X8219000Y-2859500D02*
X8269000Y-2809500D01*
X8219000Y-2759500D01*
X8169000Y-2809500D01*
X8219000Y-2859500D01*
X8219000Y-3113500D02*
X8269000Y-3063500D01*
X8219000Y-3013500D01*
X8169000Y-3063500D01*
X8219000Y-3113500D01*
X8219000Y-3367500D02*
X8269000Y-3317500D01*
X8219000Y-3267500D01*
X8169000Y-3317500D01*
X8219000Y-3367500D01*
X8219000Y-3621500D02*
X8269000Y-3571500D01*
X8219000Y-3521500D01*
X8169000Y-3571500D01*
X8219000Y-3621500D01*
X8219000Y-3875500D02*
X8269000Y-3825500D01*
X8219000Y-3775500D01*
X8169000Y-3825500D01*
X8219000Y-3875500D01*
X8219000Y-4129500D02*
X8269000Y-4079500D01*
X8219000Y-4029500D01*
X8169000Y-4079500D01*
X8219000Y-4129500D01*
X8219000Y-4383500D02*
X8269000Y-4333500D01*
X8219000Y-4283500D01*
X8169000Y-4333500D01*
X8219000Y-4383500D01*
X8219000Y-4637500D02*
X8269000Y-4587500D01*
X8219000Y-4537500D01*
X8169000Y-4587500D01*
X8219000Y-4637500D01*
D12*
X4172250Y-4981500D02*
X4302250Y-5111500D01*
X4302250Y-4981500D02*
X4172250Y-5111500D01*
X4302250Y-5046500D02*
G75*
G02*
X4172250Y-5046500I-65000J0D01*
G01*
X4172250Y-5046500D02*
G75*
G02*
X4302250Y-5046500I65000J0D01*
G01*
X4172250Y-5489500D02*
X4302250Y-5619500D01*
X4302250Y-5489500D02*
X4172250Y-5619500D01*
X4302250Y-5554500D02*
G75*
G02*
X4172250Y-5554500I-65000J0D01*
G01*
X4172250Y-5554500D02*
G75*
G02*
X4302250Y-5554500I65000J0D01*
G01*
X4197750Y-980500D02*
X4327750Y-1110500D01*
X4327750Y-980500D02*
X4197750Y-1110500D01*
X4327750Y-1045500D02*
G75*
G02*
X4197750Y-1045500I-65000J0D01*
G01*
X4197750Y-1045500D02*
G75*
G02*
X4327750Y-1045500I65000J0D01*
G01*
X4197750Y-1488500D02*
X4327750Y-1618500D01*
X4327750Y-1488500D02*
X4197750Y-1618500D01*
X4327750Y-1553500D02*
G75*
G02*
X4197750Y-1553500I-65000J0D01*
G01*
X4197750Y-1553500D02*
G75*
G02*
X4327750Y-1553500I65000J0D01*
G01*
D13*
X167500Y-4783250D02*
X397500Y-5013250D01*
X397500Y-4783250D02*
X167500Y-5013250D01*
X282500Y-4783250D02*
X282500Y-5013250D01*
X167500Y-4898250D02*
X397500Y-4898250D01*
X1502500Y-4783250D02*
X1732500Y-5013250D01*
X1732500Y-4783250D02*
X1502500Y-5013250D01*
X1617500Y-4783250D02*
X1617500Y-5013250D01*
X1502500Y-4898250D02*
X1732500Y-4898250D01*
X6767500Y-1586750D02*
X6997500Y-1816750D01*
X6997500Y-1586750D02*
X6767500Y-1816750D01*
X6882500Y-1586750D02*
X6882500Y-1816750D01*
X6767500Y-1701750D02*
X6997500Y-1701750D01*
X8102500Y-1586750D02*
X8332500Y-1816750D01*
X8332500Y-1586750D02*
X8102500Y-1816750D01*
X8217500Y-1586750D02*
X8217500Y-1816750D01*
X8102500Y-1701750D02*
X8332500Y-1701750D01*
D11*
X255777Y-6916436D02*
X255777Y-6716436D01*
X255777Y-6716436D02*
X303396Y-6716436D01*
X303396Y-6716436D02*
X331967Y-6725959D01*
X331967Y-6725959D02*
X351015Y-6745007D01*
X351015Y-6745007D02*
X360539Y-6764055D01*
X360539Y-6764055D02*
X370062Y-6802150D01*
X370062Y-6802150D02*
X370062Y-6830721D01*
X370062Y-6830721D02*
X360539Y-6868816D01*
X360539Y-6868816D02*
X351015Y-6887864D01*
X351015Y-6887864D02*
X331967Y-6906912D01*
X331967Y-6906912D02*
X303396Y-6916436D01*
X303396Y-6916436D02*
X255777Y-6916436D01*
X455777Y-6916436D02*
X455777Y-6783102D01*
X455777Y-6821197D02*
X465301Y-6802150D01*
X465301Y-6802150D02*
X474824Y-6792626D01*
X474824Y-6792626D02*
X493872Y-6783102D01*
X493872Y-6783102D02*
X512920Y-6783102D01*
X579586Y-6916436D02*
X579586Y-6783102D01*
X579586Y-6716436D02*
X570063Y-6725959D01*
X570063Y-6725959D02*
X579586Y-6735483D01*
X579586Y-6735483D02*
X589110Y-6725959D01*
X589110Y-6725959D02*
X579586Y-6716436D01*
X579586Y-6716436D02*
X579586Y-6735483D01*
X703396Y-6916436D02*
X684348Y-6906912D01*
X684348Y-6906912D02*
X674824Y-6887864D01*
X674824Y-6887864D02*
X674824Y-6716436D01*
X808158Y-6916436D02*
X789110Y-6906912D01*
X789110Y-6906912D02*
X779586Y-6887864D01*
X779586Y-6887864D02*
X779586Y-6716436D01*
X1036729Y-6916436D02*
X1036729Y-6716436D01*
X1036729Y-6716436D02*
X1103396Y-6859293D01*
X1103396Y-6859293D02*
X1170063Y-6716436D01*
X1170063Y-6716436D02*
X1170063Y-6916436D01*
X1351015Y-6916436D02*
X1351015Y-6811674D01*
X1351015Y-6811674D02*
X1341491Y-6792626D01*
X1341491Y-6792626D02*
X1322444Y-6783102D01*
X1322444Y-6783102D02*
X1284348Y-6783102D01*
X1284348Y-6783102D02*
X1265301Y-6792626D01*
X1351015Y-6906912D02*
X1331967Y-6916436D01*
X1331967Y-6916436D02*
X1284348Y-6916436D01*
X1284348Y-6916436D02*
X1265301Y-6906912D01*
X1265301Y-6906912D02*
X1255777Y-6887864D01*
X1255777Y-6887864D02*
X1255777Y-6868816D01*
X1255777Y-6868816D02*
X1265301Y-6849769D01*
X1265301Y-6849769D02*
X1284348Y-6840245D01*
X1284348Y-6840245D02*
X1331967Y-6840245D01*
X1331967Y-6840245D02*
X1351015Y-6830721D01*
X1446253Y-6783102D02*
X1446253Y-6983102D01*
X1446253Y-6792626D02*
X1465301Y-6783102D01*
X1465301Y-6783102D02*
X1503396Y-6783102D01*
X1503396Y-6783102D02*
X1522443Y-6792626D01*
X1522443Y-6792626D02*
X1531967Y-6802150D01*
X1531967Y-6802150D02*
X1541491Y-6821197D01*
X1541491Y-6821197D02*
X1541491Y-6878340D01*
X1541491Y-6878340D02*
X1531967Y-6897388D01*
X1531967Y-6897388D02*
X1522443Y-6906912D01*
X1522443Y-6906912D02*
X1503396Y-6916436D01*
X1503396Y-6916436D02*
X1465301Y-6916436D01*
X1465301Y-6916436D02*
X1446253Y-6906912D01*
X1627205Y-6897388D02*
X1636729Y-6906912D01*
X1636729Y-6906912D02*
X1627205Y-6916436D01*
X1627205Y-6916436D02*
X1617682Y-6906912D01*
X1617682Y-6906912D02*
X1627205Y-6897388D01*
X1627205Y-6897388D02*
X1627205Y-6916436D01*
X1627205Y-6792626D02*
X1636729Y-6802150D01*
X1636729Y-6802150D02*
X1627205Y-6811674D01*
X1627205Y-6811674D02*
X1617682Y-6802150D01*
X1617682Y-6802150D02*
X1627205Y-6792626D01*
X1627205Y-6792626D02*
X1627205Y-6811674D01*
D10*
X-35000Y-7229952D02*
X-5000Y-7259952D01*
X-5000Y-7229952D02*
X-35000Y-7259952D01*
D11*
X293872Y-7136436D02*
X312920Y-7136436D01*
X312920Y-7136436D02*
X331967Y-7145959D01*
X331967Y-7145959D02*
X341491Y-7155483D01*
X341491Y-7155483D02*
X351015Y-7174531D01*
X351015Y-7174531D02*
X360539Y-7212626D01*
X360539Y-7212626D02*
X360539Y-7260245D01*
X360539Y-7260245D02*
X351015Y-7298340D01*
X351015Y-7298340D02*
X341491Y-7317388D01*
X341491Y-7317388D02*
X331967Y-7326912D01*
X331967Y-7326912D02*
X312920Y-7336436D01*
X312920Y-7336436D02*
X293872Y-7336436D01*
X293872Y-7336436D02*
X274824Y-7326912D01*
X274824Y-7326912D02*
X265301Y-7317388D01*
X265301Y-7317388D02*
X255777Y-7298340D01*
X255777Y-7298340D02*
X246253Y-7260245D01*
X246253Y-7260245D02*
X246253Y-7212626D01*
X246253Y-7212626D02*
X255777Y-7174531D01*
X255777Y-7174531D02*
X265301Y-7155483D01*
X265301Y-7155483D02*
X274824Y-7145959D01*
X274824Y-7145959D02*
X293872Y-7136436D01*
X446253Y-7317388D02*
X455777Y-7326912D01*
X455777Y-7326912D02*
X446253Y-7336436D01*
X446253Y-7336436D02*
X436729Y-7326912D01*
X436729Y-7326912D02*
X446253Y-7317388D01*
X446253Y-7317388D02*
X446253Y-7336436D01*
X522443Y-7136436D02*
X646253Y-7136436D01*
X646253Y-7136436D02*
X579586Y-7212626D01*
X579586Y-7212626D02*
X608158Y-7212626D01*
X608158Y-7212626D02*
X627205Y-7222150D01*
X627205Y-7222150D02*
X636729Y-7231674D01*
X636729Y-7231674D02*
X646253Y-7250721D01*
X646253Y-7250721D02*
X646253Y-7298340D01*
X646253Y-7298340D02*
X636729Y-7317388D01*
X636729Y-7317388D02*
X627205Y-7326912D01*
X627205Y-7326912D02*
X608158Y-7336436D01*
X608158Y-7336436D02*
X551015Y-7336436D01*
X551015Y-7336436D02*
X531967Y-7326912D01*
X531967Y-7326912D02*
X522443Y-7317388D01*
X770062Y-7136436D02*
X789110Y-7136436D01*
X789110Y-7136436D02*
X808158Y-7145959D01*
X808158Y-7145959D02*
X817682Y-7155483D01*
X817682Y-7155483D02*
X827205Y-7174531D01*
X827205Y-7174531D02*
X836729Y-7212626D01*
X836729Y-7212626D02*
X836729Y-7260245D01*
X836729Y-7260245D02*
X827205Y-7298340D01*
X827205Y-7298340D02*
X817682Y-7317388D01*
X817682Y-7317388D02*
X808158Y-7326912D01*
X808158Y-7326912D02*
X789110Y-7336436D01*
X789110Y-7336436D02*
X770062Y-7336436D01*
X770062Y-7336436D02*
X751015Y-7326912D01*
X751015Y-7326912D02*
X741491Y-7317388D01*
X741491Y-7317388D02*
X731967Y-7298340D01*
X731967Y-7298340D02*
X722443Y-7260245D01*
X722443Y-7260245D02*
X722443Y-7212626D01*
X722443Y-7212626D02*
X731967Y-7174531D01*
X731967Y-7174531D02*
X741491Y-7155483D01*
X741491Y-7155483D02*
X751015Y-7145959D01*
X751015Y-7145959D02*
X770062Y-7136436D01*
X960539Y-7136436D02*
X979586Y-7136436D01*
X979586Y-7136436D02*
X998634Y-7145959D01*
X998634Y-7145959D02*
X1008158Y-7155483D01*
X1008158Y-7155483D02*
X1017682Y-7174531D01*
X1017682Y-7174531D02*
X1027205Y-7212626D01*
X1027205Y-7212626D02*
X1027205Y-7260245D01*
X1027205Y-7260245D02*
X1017682Y-7298340D01*
X1017682Y-7298340D02*
X1008158Y-7317388D01*
X1008158Y-7317388D02*
X998634Y-7326912D01*
X998634Y-7326912D02*
X979586Y-7336436D01*
X979586Y-7336436D02*
X960539Y-7336436D01*
X960539Y-7336436D02*
X941491Y-7326912D01*
X941491Y-7326912D02*
X931967Y-7317388D01*
X931967Y-7317388D02*
X922443Y-7298340D01*
X922443Y-7298340D02*
X912920Y-7260245D01*
X912920Y-7260245D02*
X912920Y-7212626D01*
X912920Y-7212626D02*
X922443Y-7174531D01*
X922443Y-7174531D02*
X931967Y-7155483D01*
X931967Y-7155483D02*
X941491Y-7145959D01*
X941491Y-7145959D02*
X960539Y-7136436D01*
X1112920Y-7336436D02*
X1112920Y-7203102D01*
X1112920Y-7222150D02*
X1122444Y-7212626D01*
X1122444Y-7212626D02*
X1141491Y-7203102D01*
X1141491Y-7203102D02*
X1170063Y-7203102D01*
X1170063Y-7203102D02*
X1189110Y-7212626D01*
X1189110Y-7212626D02*
X1198634Y-7231674D01*
X1198634Y-7231674D02*
X1198634Y-7336436D01*
X1198634Y-7231674D02*
X1208158Y-7212626D01*
X1208158Y-7212626D02*
X1227205Y-7203102D01*
X1227205Y-7203102D02*
X1255777Y-7203102D01*
X1255777Y-7203102D02*
X1274825Y-7212626D01*
X1274825Y-7212626D02*
X1284348Y-7231674D01*
X1284348Y-7231674D02*
X1284348Y-7336436D01*
X1379586Y-7336436D02*
X1379586Y-7203102D01*
X1379586Y-7222150D02*
X1389110Y-7212626D01*
X1389110Y-7212626D02*
X1408158Y-7203102D01*
X1408158Y-7203102D02*
X1436729Y-7203102D01*
X1436729Y-7203102D02*
X1455777Y-7212626D01*
X1455777Y-7212626D02*
X1465301Y-7231674D01*
X1465301Y-7231674D02*
X1465301Y-7336436D01*
X1465301Y-7231674D02*
X1474824Y-7212626D01*
X1474824Y-7212626D02*
X1493872Y-7203102D01*
X1493872Y-7203102D02*
X1522443Y-7203102D01*
X1522443Y-7203102D02*
X1541491Y-7212626D01*
X1541491Y-7212626D02*
X1551015Y-7231674D01*
X1551015Y-7231674D02*
X1551015Y-7336436D01*
X1941491Y-7126912D02*
X1770063Y-7384055D01*
X2198634Y-7136436D02*
X2217682Y-7136436D01*
X2217682Y-7136436D02*
X2236729Y-7145959D01*
X2236729Y-7145959D02*
X2246253Y-7155483D01*
X2246253Y-7155483D02*
X2255777Y-7174531D01*
X2255777Y-7174531D02*
X2265301Y-7212626D01*
X2265301Y-7212626D02*
X2265301Y-7260245D01*
X2265301Y-7260245D02*
X2255777Y-7298340D01*
X2255777Y-7298340D02*
X2246253Y-7317388D01*
X2246253Y-7317388D02*
X2236729Y-7326912D01*
X2236729Y-7326912D02*
X2217682Y-7336436D01*
X2217682Y-7336436D02*
X2198634Y-7336436D01*
X2198634Y-7336436D02*
X2179587Y-7326912D01*
X2179587Y-7326912D02*
X2170063Y-7317388D01*
X2170063Y-7317388D02*
X2160539Y-7298340D01*
X2160539Y-7298340D02*
X2151015Y-7260245D01*
X2151015Y-7260245D02*
X2151015Y-7212626D01*
X2151015Y-7212626D02*
X2160539Y-7174531D01*
X2160539Y-7174531D02*
X2170063Y-7155483D01*
X2170063Y-7155483D02*
X2179587Y-7145959D01*
X2179587Y-7145959D02*
X2198634Y-7136436D01*
X2351015Y-7317388D02*
X2360539Y-7326912D01*
X2360539Y-7326912D02*
X2351015Y-7336436D01*
X2351015Y-7336436D02*
X2341491Y-7326912D01*
X2341491Y-7326912D02*
X2351015Y-7317388D01*
X2351015Y-7317388D02*
X2351015Y-7336436D01*
X2484348Y-7136436D02*
X2503396Y-7136436D01*
X2503396Y-7136436D02*
X2522444Y-7145959D01*
X2522444Y-7145959D02*
X2531968Y-7155483D01*
X2531968Y-7155483D02*
X2541491Y-7174531D01*
X2541491Y-7174531D02*
X2551015Y-7212626D01*
X2551015Y-7212626D02*
X2551015Y-7260245D01*
X2551015Y-7260245D02*
X2541491Y-7298340D01*
X2541491Y-7298340D02*
X2531968Y-7317388D01*
X2531968Y-7317388D02*
X2522444Y-7326912D01*
X2522444Y-7326912D02*
X2503396Y-7336436D01*
X2503396Y-7336436D02*
X2484348Y-7336436D01*
X2484348Y-7336436D02*
X2465301Y-7326912D01*
X2465301Y-7326912D02*
X2455777Y-7317388D01*
X2455777Y-7317388D02*
X2446253Y-7298340D01*
X2446253Y-7298340D02*
X2436729Y-7260245D01*
X2436729Y-7260245D02*
X2436729Y-7212626D01*
X2436729Y-7212626D02*
X2446253Y-7174531D01*
X2446253Y-7174531D02*
X2455777Y-7155483D01*
X2455777Y-7155483D02*
X2465301Y-7145959D01*
X2465301Y-7145959D02*
X2484348Y-7136436D01*
X2741491Y-7336436D02*
X2627206Y-7336436D01*
X2684348Y-7336436D02*
X2684348Y-7136436D01*
X2684348Y-7136436D02*
X2665301Y-7165007D01*
X2665301Y-7165007D02*
X2646253Y-7184055D01*
X2646253Y-7184055D02*
X2627206Y-7193578D01*
X2931967Y-7336436D02*
X2817682Y-7336436D01*
X2874825Y-7336436D02*
X2874825Y-7136436D01*
X2874825Y-7136436D02*
X2855777Y-7165007D01*
X2855777Y-7165007D02*
X2836729Y-7184055D01*
X2836729Y-7184055D02*
X2817682Y-7193578D01*
X3046253Y-7222150D02*
X3027206Y-7212626D01*
X3027206Y-7212626D02*
X3017682Y-7203102D01*
X3017682Y-7203102D02*
X3008158Y-7184055D01*
X3008158Y-7184055D02*
X3008158Y-7174531D01*
X3008158Y-7174531D02*
X3017682Y-7155483D01*
X3017682Y-7155483D02*
X3027206Y-7145959D01*
X3027206Y-7145959D02*
X3046253Y-7136436D01*
X3046253Y-7136436D02*
X3084348Y-7136436D01*
X3084348Y-7136436D02*
X3103396Y-7145959D01*
X3103396Y-7145959D02*
X3112920Y-7155483D01*
X3112920Y-7155483D02*
X3122444Y-7174531D01*
X3122444Y-7174531D02*
X3122444Y-7184055D01*
X3122444Y-7184055D02*
X3112920Y-7203102D01*
X3112920Y-7203102D02*
X3103396Y-7212626D01*
X3103396Y-7212626D02*
X3084348Y-7222150D01*
X3084348Y-7222150D02*
X3046253Y-7222150D01*
X3046253Y-7222150D02*
X3027206Y-7231674D01*
X3027206Y-7231674D02*
X3017682Y-7241197D01*
X3017682Y-7241197D02*
X3008158Y-7260245D01*
X3008158Y-7260245D02*
X3008158Y-7298340D01*
X3008158Y-7298340D02*
X3017682Y-7317388D01*
X3017682Y-7317388D02*
X3027206Y-7326912D01*
X3027206Y-7326912D02*
X3046253Y-7336436D01*
X3046253Y-7336436D02*
X3084348Y-7336436D01*
X3084348Y-7336436D02*
X3103396Y-7326912D01*
X3103396Y-7326912D02*
X3112920Y-7317388D01*
X3112920Y-7317388D02*
X3122444Y-7298340D01*
X3122444Y-7298340D02*
X3122444Y-7260245D01*
X3122444Y-7260245D02*
X3112920Y-7241197D01*
X3112920Y-7241197D02*
X3103396Y-7231674D01*
X3103396Y-7231674D02*
X3084348Y-7222150D01*
X3198634Y-7136436D02*
X3198634Y-7174531D01*
X3274825Y-7136436D02*
X3274825Y-7174531D01*
X3570063Y-7412626D02*
X3560539Y-7403102D01*
X3560539Y-7403102D02*
X3541491Y-7374531D01*
X3541491Y-7374531D02*
X3531968Y-7355483D01*
X3531968Y-7355483D02*
X3522444Y-7326912D01*
X3522444Y-7326912D02*
X3512920Y-7279293D01*
X3512920Y-7279293D02*
X3512920Y-7241197D01*
X3512920Y-7241197D02*
X3522444Y-7193578D01*
X3522444Y-7193578D02*
X3531968Y-7165007D01*
X3531968Y-7165007D02*
X3541491Y-7145959D01*
X3541491Y-7145959D02*
X3560539Y-7117388D01*
X3560539Y-7117388D02*
X3570063Y-7107864D01*
X3636729Y-7155483D02*
X3646253Y-7145959D01*
X3646253Y-7145959D02*
X3665301Y-7136436D01*
X3665301Y-7136436D02*
X3712920Y-7136436D01*
X3712920Y-7136436D02*
X3731968Y-7145959D01*
X3731968Y-7145959D02*
X3741491Y-7155483D01*
X3741491Y-7155483D02*
X3751015Y-7174531D01*
X3751015Y-7174531D02*
X3751015Y-7193578D01*
X3751015Y-7193578D02*
X3741491Y-7222150D01*
X3741491Y-7222150D02*
X3627206Y-7336436D01*
X3627206Y-7336436D02*
X3751015Y-7336436D01*
X3827206Y-7155483D02*
X3836729Y-7145959D01*
X3836729Y-7145959D02*
X3855777Y-7136436D01*
X3855777Y-7136436D02*
X3903396Y-7136436D01*
X3903396Y-7136436D02*
X3922444Y-7145959D01*
X3922444Y-7145959D02*
X3931968Y-7155483D01*
X3931968Y-7155483D02*
X3941491Y-7174531D01*
X3941491Y-7174531D02*
X3941491Y-7193578D01*
X3941491Y-7193578D02*
X3931968Y-7222150D01*
X3931968Y-7222150D02*
X3817682Y-7336436D01*
X3817682Y-7336436D02*
X3941491Y-7336436D01*
X4112920Y-7203102D02*
X4112920Y-7336436D01*
X4065301Y-7126912D02*
X4017682Y-7269769D01*
X4017682Y-7269769D02*
X4141491Y-7269769D01*
X4370063Y-7336436D02*
X4370063Y-7136436D01*
X4455777Y-7336436D02*
X4455777Y-7231674D01*
X4455777Y-7231674D02*
X4446253Y-7212626D01*
X4446253Y-7212626D02*
X4427206Y-7203102D01*
X4427206Y-7203102D02*
X4398634Y-7203102D01*
X4398634Y-7203102D02*
X4379587Y-7212626D01*
X4379587Y-7212626D02*
X4370063Y-7222150D01*
X4579587Y-7336436D02*
X4560539Y-7326912D01*
X4560539Y-7326912D02*
X4551015Y-7317388D01*
X4551015Y-7317388D02*
X4541492Y-7298340D01*
X4541492Y-7298340D02*
X4541492Y-7241197D01*
X4541492Y-7241197D02*
X4551015Y-7222150D01*
X4551015Y-7222150D02*
X4560539Y-7212626D01*
X4560539Y-7212626D02*
X4579587Y-7203102D01*
X4579587Y-7203102D02*
X4608158Y-7203102D01*
X4608158Y-7203102D02*
X4627206Y-7212626D01*
X4627206Y-7212626D02*
X4636730Y-7222150D01*
X4636730Y-7222150D02*
X4646253Y-7241197D01*
X4646253Y-7241197D02*
X4646253Y-7298340D01*
X4646253Y-7298340D02*
X4636730Y-7317388D01*
X4636730Y-7317388D02*
X4627206Y-7326912D01*
X4627206Y-7326912D02*
X4608158Y-7336436D01*
X4608158Y-7336436D02*
X4579587Y-7336436D01*
X4760539Y-7336436D02*
X4741492Y-7326912D01*
X4741492Y-7326912D02*
X4731968Y-7307864D01*
X4731968Y-7307864D02*
X4731968Y-7136436D01*
X4912920Y-7326912D02*
X4893873Y-7336436D01*
X4893873Y-7336436D02*
X4855777Y-7336436D01*
X4855777Y-7336436D02*
X4836730Y-7326912D01*
X4836730Y-7326912D02*
X4827206Y-7307864D01*
X4827206Y-7307864D02*
X4827206Y-7231674D01*
X4827206Y-7231674D02*
X4836730Y-7212626D01*
X4836730Y-7212626D02*
X4855777Y-7203102D01*
X4855777Y-7203102D02*
X4893873Y-7203102D01*
X4893873Y-7203102D02*
X4912920Y-7212626D01*
X4912920Y-7212626D02*
X4922444Y-7231674D01*
X4922444Y-7231674D02*
X4922444Y-7250721D01*
X4922444Y-7250721D02*
X4827206Y-7269769D01*
X4998634Y-7326912D02*
X5017682Y-7336436D01*
X5017682Y-7336436D02*
X5055777Y-7336436D01*
X5055777Y-7336436D02*
X5074825Y-7326912D01*
X5074825Y-7326912D02*
X5084349Y-7307864D01*
X5084349Y-7307864D02*
X5084349Y-7298340D01*
X5084349Y-7298340D02*
X5074825Y-7279293D01*
X5074825Y-7279293D02*
X5055777Y-7269769D01*
X5055777Y-7269769D02*
X5027206Y-7269769D01*
X5027206Y-7269769D02*
X5008158Y-7260245D01*
X5008158Y-7260245D02*
X4998634Y-7241197D01*
X4998634Y-7241197D02*
X4998634Y-7231674D01*
X4998634Y-7231674D02*
X5008158Y-7212626D01*
X5008158Y-7212626D02*
X5027206Y-7203102D01*
X5027206Y-7203102D02*
X5055777Y-7203102D01*
X5055777Y-7203102D02*
X5074825Y-7212626D01*
X5151015Y-7412626D02*
X5160539Y-7403102D01*
X5160539Y-7403102D02*
X5179587Y-7374531D01*
X5179587Y-7374531D02*
X5189111Y-7355483D01*
X5189111Y-7355483D02*
X5198634Y-7326912D01*
X5198634Y-7326912D02*
X5208158Y-7279293D01*
X5208158Y-7279293D02*
X5208158Y-7241197D01*
X5208158Y-7241197D02*
X5198634Y-7193578D01*
X5198634Y-7193578D02*
X5189111Y-7165007D01*
X5189111Y-7165007D02*
X5179587Y-7145959D01*
X5179587Y-7145959D02*
X5160539Y-7117388D01*
X5160539Y-7117388D02*
X5151015Y-7107864D01*
D10*
X-5000Y-7508952D02*
G75*
G02*
X-35000Y-7508952I-15000J0D01*
G01*
X-35000Y-7508952D02*
G75*
G02*
X-5000Y-7508952I15000J0D01*
G01*
D11*
X293872Y-7400436D02*
X312920Y-7400436D01*
X312920Y-7400436D02*
X331967Y-7409959D01*
X331967Y-7409959D02*
X341491Y-7419483D01*
X341491Y-7419483D02*
X351015Y-7438531D01*
X351015Y-7438531D02*
X360539Y-7476626D01*
X360539Y-7476626D02*
X360539Y-7524245D01*
X360539Y-7524245D02*
X351015Y-7562340D01*
X351015Y-7562340D02*
X341491Y-7581388D01*
X341491Y-7581388D02*
X331967Y-7590912D01*
X331967Y-7590912D02*
X312920Y-7600436D01*
X312920Y-7600436D02*
X293872Y-7600436D01*
X293872Y-7600436D02*
X274824Y-7590912D01*
X274824Y-7590912D02*
X265301Y-7581388D01*
X265301Y-7581388D02*
X255777Y-7562340D01*
X255777Y-7562340D02*
X246253Y-7524245D01*
X246253Y-7524245D02*
X246253Y-7476626D01*
X246253Y-7476626D02*
X255777Y-7438531D01*
X255777Y-7438531D02*
X265301Y-7419483D01*
X265301Y-7419483D02*
X274824Y-7409959D01*
X274824Y-7409959D02*
X293872Y-7400436D01*
X446253Y-7581388D02*
X455777Y-7590912D01*
X455777Y-7590912D02*
X446253Y-7600436D01*
X446253Y-7600436D02*
X436729Y-7590912D01*
X436729Y-7590912D02*
X446253Y-7581388D01*
X446253Y-7581388D02*
X446253Y-7600436D01*
X522443Y-7400436D02*
X646253Y-7400436D01*
X646253Y-7400436D02*
X579586Y-7476626D01*
X579586Y-7476626D02*
X608158Y-7476626D01*
X608158Y-7476626D02*
X627205Y-7486150D01*
X627205Y-7486150D02*
X636729Y-7495674D01*
X636729Y-7495674D02*
X646253Y-7514721D01*
X646253Y-7514721D02*
X646253Y-7562340D01*
X646253Y-7562340D02*
X636729Y-7581388D01*
X636729Y-7581388D02*
X627205Y-7590912D01*
X627205Y-7590912D02*
X608158Y-7600436D01*
X608158Y-7600436D02*
X551015Y-7600436D01*
X551015Y-7600436D02*
X531967Y-7590912D01*
X531967Y-7590912D02*
X522443Y-7581388D01*
X770062Y-7400436D02*
X789110Y-7400436D01*
X789110Y-7400436D02*
X808158Y-7409959D01*
X808158Y-7409959D02*
X817682Y-7419483D01*
X817682Y-7419483D02*
X827205Y-7438531D01*
X827205Y-7438531D02*
X836729Y-7476626D01*
X836729Y-7476626D02*
X836729Y-7524245D01*
X836729Y-7524245D02*
X827205Y-7562340D01*
X827205Y-7562340D02*
X817682Y-7581388D01*
X817682Y-7581388D02*
X808158Y-7590912D01*
X808158Y-7590912D02*
X789110Y-7600436D01*
X789110Y-7600436D02*
X770062Y-7600436D01*
X770062Y-7600436D02*
X751015Y-7590912D01*
X751015Y-7590912D02*
X741491Y-7581388D01*
X741491Y-7581388D02*
X731967Y-7562340D01*
X731967Y-7562340D02*
X722443Y-7524245D01*
X722443Y-7524245D02*
X722443Y-7476626D01*
X722443Y-7476626D02*
X731967Y-7438531D01*
X731967Y-7438531D02*
X741491Y-7419483D01*
X741491Y-7419483D02*
X751015Y-7409959D01*
X751015Y-7409959D02*
X770062Y-7400436D01*
X960539Y-7400436D02*
X979586Y-7400436D01*
X979586Y-7400436D02*
X998634Y-7409959D01*
X998634Y-7409959D02*
X1008158Y-7419483D01*
X1008158Y-7419483D02*
X1017682Y-7438531D01*
X1017682Y-7438531D02*
X1027205Y-7476626D01*
X1027205Y-7476626D02*
X1027205Y-7524245D01*
X1027205Y-7524245D02*
X1017682Y-7562340D01*
X1017682Y-7562340D02*
X1008158Y-7581388D01*
X1008158Y-7581388D02*
X998634Y-7590912D01*
X998634Y-7590912D02*
X979586Y-7600436D01*
X979586Y-7600436D02*
X960539Y-7600436D01*
X960539Y-7600436D02*
X941491Y-7590912D01*
X941491Y-7590912D02*
X931967Y-7581388D01*
X931967Y-7581388D02*
X922443Y-7562340D01*
X922443Y-7562340D02*
X912920Y-7524245D01*
X912920Y-7524245D02*
X912920Y-7476626D01*
X912920Y-7476626D02*
X922443Y-7438531D01*
X922443Y-7438531D02*
X931967Y-7419483D01*
X931967Y-7419483D02*
X941491Y-7409959D01*
X941491Y-7409959D02*
X960539Y-7400436D01*
X1112920Y-7600436D02*
X1112920Y-7467102D01*
X1112920Y-7486150D02*
X1122444Y-7476626D01*
X1122444Y-7476626D02*
X1141491Y-7467102D01*
X1141491Y-7467102D02*
X1170063Y-7467102D01*
X1170063Y-7467102D02*
X1189110Y-7476626D01*
X1189110Y-7476626D02*
X1198634Y-7495674D01*
X1198634Y-7495674D02*
X1198634Y-7600436D01*
X1198634Y-7495674D02*
X1208158Y-7476626D01*
X1208158Y-7476626D02*
X1227205Y-7467102D01*
X1227205Y-7467102D02*
X1255777Y-7467102D01*
X1255777Y-7467102D02*
X1274825Y-7476626D01*
X1274825Y-7476626D02*
X1284348Y-7495674D01*
X1284348Y-7495674D02*
X1284348Y-7600436D01*
X1379586Y-7600436D02*
X1379586Y-7467102D01*
X1379586Y-7486150D02*
X1389110Y-7476626D01*
X1389110Y-7476626D02*
X1408158Y-7467102D01*
X1408158Y-7467102D02*
X1436729Y-7467102D01*
X1436729Y-7467102D02*
X1455777Y-7476626D01*
X1455777Y-7476626D02*
X1465301Y-7495674D01*
X1465301Y-7495674D02*
X1465301Y-7600436D01*
X1465301Y-7495674D02*
X1474824Y-7476626D01*
X1474824Y-7476626D02*
X1493872Y-7467102D01*
X1493872Y-7467102D02*
X1522443Y-7467102D01*
X1522443Y-7467102D02*
X1541491Y-7476626D01*
X1541491Y-7476626D02*
X1551015Y-7495674D01*
X1551015Y-7495674D02*
X1551015Y-7600436D01*
X1941491Y-7390912D02*
X1770063Y-7648055D01*
X2198634Y-7400436D02*
X2217682Y-7400436D01*
X2217682Y-7400436D02*
X2236729Y-7409959D01*
X2236729Y-7409959D02*
X2246253Y-7419483D01*
X2246253Y-7419483D02*
X2255777Y-7438531D01*
X2255777Y-7438531D02*
X2265301Y-7476626D01*
X2265301Y-7476626D02*
X2265301Y-7524245D01*
X2265301Y-7524245D02*
X2255777Y-7562340D01*
X2255777Y-7562340D02*
X2246253Y-7581388D01*
X2246253Y-7581388D02*
X2236729Y-7590912D01*
X2236729Y-7590912D02*
X2217682Y-7600436D01*
X2217682Y-7600436D02*
X2198634Y-7600436D01*
X2198634Y-7600436D02*
X2179587Y-7590912D01*
X2179587Y-7590912D02*
X2170063Y-7581388D01*
X2170063Y-7581388D02*
X2160539Y-7562340D01*
X2160539Y-7562340D02*
X2151015Y-7524245D01*
X2151015Y-7524245D02*
X2151015Y-7476626D01*
X2151015Y-7476626D02*
X2160539Y-7438531D01*
X2160539Y-7438531D02*
X2170063Y-7419483D01*
X2170063Y-7419483D02*
X2179587Y-7409959D01*
X2179587Y-7409959D02*
X2198634Y-7400436D01*
X2351015Y-7581388D02*
X2360539Y-7590912D01*
X2360539Y-7590912D02*
X2351015Y-7600436D01*
X2351015Y-7600436D02*
X2341491Y-7590912D01*
X2341491Y-7590912D02*
X2351015Y-7581388D01*
X2351015Y-7581388D02*
X2351015Y-7600436D01*
X2484348Y-7400436D02*
X2503396Y-7400436D01*
X2503396Y-7400436D02*
X2522444Y-7409959D01*
X2522444Y-7409959D02*
X2531968Y-7419483D01*
X2531968Y-7419483D02*
X2541491Y-7438531D01*
X2541491Y-7438531D02*
X2551015Y-7476626D01*
X2551015Y-7476626D02*
X2551015Y-7524245D01*
X2551015Y-7524245D02*
X2541491Y-7562340D01*
X2541491Y-7562340D02*
X2531968Y-7581388D01*
X2531968Y-7581388D02*
X2522444Y-7590912D01*
X2522444Y-7590912D02*
X2503396Y-7600436D01*
X2503396Y-7600436D02*
X2484348Y-7600436D01*
X2484348Y-7600436D02*
X2465301Y-7590912D01*
X2465301Y-7590912D02*
X2455777Y-7581388D01*
X2455777Y-7581388D02*
X2446253Y-7562340D01*
X2446253Y-7562340D02*
X2436729Y-7524245D01*
X2436729Y-7524245D02*
X2436729Y-7476626D01*
X2436729Y-7476626D02*
X2446253Y-7438531D01*
X2446253Y-7438531D02*
X2455777Y-7419483D01*
X2455777Y-7419483D02*
X2465301Y-7409959D01*
X2465301Y-7409959D02*
X2484348Y-7400436D01*
X2741491Y-7600436D02*
X2627206Y-7600436D01*
X2684348Y-7600436D02*
X2684348Y-7400436D01*
X2684348Y-7400436D02*
X2665301Y-7429007D01*
X2665301Y-7429007D02*
X2646253Y-7448055D01*
X2646253Y-7448055D02*
X2627206Y-7457578D01*
X2931967Y-7600436D02*
X2817682Y-7600436D01*
X2874825Y-7600436D02*
X2874825Y-7400436D01*
X2874825Y-7400436D02*
X2855777Y-7429007D01*
X2855777Y-7429007D02*
X2836729Y-7448055D01*
X2836729Y-7448055D02*
X2817682Y-7457578D01*
X3046253Y-7486150D02*
X3027206Y-7476626D01*
X3027206Y-7476626D02*
X3017682Y-7467102D01*
X3017682Y-7467102D02*
X3008158Y-7448055D01*
X3008158Y-7448055D02*
X3008158Y-7438531D01*
X3008158Y-7438531D02*
X3017682Y-7419483D01*
X3017682Y-7419483D02*
X3027206Y-7409959D01*
X3027206Y-7409959D02*
X3046253Y-7400436D01*
X3046253Y-7400436D02*
X3084348Y-7400436D01*
X3084348Y-7400436D02*
X3103396Y-7409959D01*
X3103396Y-7409959D02*
X3112920Y-7419483D01*
X3112920Y-7419483D02*
X3122444Y-7438531D01*
X3122444Y-7438531D02*
X3122444Y-7448055D01*
X3122444Y-7448055D02*
X3112920Y-7467102D01*
X3112920Y-7467102D02*
X3103396Y-7476626D01*
X3103396Y-7476626D02*
X3084348Y-7486150D01*
X3084348Y-7486150D02*
X3046253Y-7486150D01*
X3046253Y-7486150D02*
X3027206Y-7495674D01*
X3027206Y-7495674D02*
X3017682Y-7505197D01*
X3017682Y-7505197D02*
X3008158Y-7524245D01*
X3008158Y-7524245D02*
X3008158Y-7562340D01*
X3008158Y-7562340D02*
X3017682Y-7581388D01*
X3017682Y-7581388D02*
X3027206Y-7590912D01*
X3027206Y-7590912D02*
X3046253Y-7600436D01*
X3046253Y-7600436D02*
X3084348Y-7600436D01*
X3084348Y-7600436D02*
X3103396Y-7590912D01*
X3103396Y-7590912D02*
X3112920Y-7581388D01*
X3112920Y-7581388D02*
X3122444Y-7562340D01*
X3122444Y-7562340D02*
X3122444Y-7524245D01*
X3122444Y-7524245D02*
X3112920Y-7505197D01*
X3112920Y-7505197D02*
X3103396Y-7495674D01*
X3103396Y-7495674D02*
X3084348Y-7486150D01*
X3198634Y-7400436D02*
X3198634Y-7438531D01*
X3274825Y-7400436D02*
X3274825Y-7438531D01*
X3570063Y-7676626D02*
X3560539Y-7667102D01*
X3560539Y-7667102D02*
X3541491Y-7638531D01*
X3541491Y-7638531D02*
X3531968Y-7619483D01*
X3531968Y-7619483D02*
X3522444Y-7590912D01*
X3522444Y-7590912D02*
X3512920Y-7543293D01*
X3512920Y-7543293D02*
X3512920Y-7505197D01*
X3512920Y-7505197D02*
X3522444Y-7457578D01*
X3522444Y-7457578D02*
X3531968Y-7429007D01*
X3531968Y-7429007D02*
X3541491Y-7409959D01*
X3541491Y-7409959D02*
X3560539Y-7381388D01*
X3560539Y-7381388D02*
X3570063Y-7371864D01*
X3751015Y-7600436D02*
X3636729Y-7600436D01*
X3693872Y-7600436D02*
X3693872Y-7400436D01*
X3693872Y-7400436D02*
X3674825Y-7429007D01*
X3674825Y-7429007D02*
X3655777Y-7448055D01*
X3655777Y-7448055D02*
X3636729Y-7457578D01*
X3865301Y-7486150D02*
X3846253Y-7476626D01*
X3846253Y-7476626D02*
X3836729Y-7467102D01*
X3836729Y-7467102D02*
X3827206Y-7448055D01*
X3827206Y-7448055D02*
X3827206Y-7438531D01*
X3827206Y-7438531D02*
X3836729Y-7419483D01*
X3836729Y-7419483D02*
X3846253Y-7409959D01*
X3846253Y-7409959D02*
X3865301Y-7400436D01*
X3865301Y-7400436D02*
X3903396Y-7400436D01*
X3903396Y-7400436D02*
X3922444Y-7409959D01*
X3922444Y-7409959D02*
X3931968Y-7419483D01*
X3931968Y-7419483D02*
X3941491Y-7438531D01*
X3941491Y-7438531D02*
X3941491Y-7448055D01*
X3941491Y-7448055D02*
X3931968Y-7467102D01*
X3931968Y-7467102D02*
X3922444Y-7476626D01*
X3922444Y-7476626D02*
X3903396Y-7486150D01*
X3903396Y-7486150D02*
X3865301Y-7486150D01*
X3865301Y-7486150D02*
X3846253Y-7495674D01*
X3846253Y-7495674D02*
X3836729Y-7505197D01*
X3836729Y-7505197D02*
X3827206Y-7524245D01*
X3827206Y-7524245D02*
X3827206Y-7562340D01*
X3827206Y-7562340D02*
X3836729Y-7581388D01*
X3836729Y-7581388D02*
X3846253Y-7590912D01*
X3846253Y-7590912D02*
X3865301Y-7600436D01*
X3865301Y-7600436D02*
X3903396Y-7600436D01*
X3903396Y-7600436D02*
X3922444Y-7590912D01*
X3922444Y-7590912D02*
X3931968Y-7581388D01*
X3931968Y-7581388D02*
X3941491Y-7562340D01*
X3941491Y-7562340D02*
X3941491Y-7524245D01*
X3941491Y-7524245D02*
X3931968Y-7505197D01*
X3931968Y-7505197D02*
X3922444Y-7495674D01*
X3922444Y-7495674D02*
X3903396Y-7486150D01*
X4179587Y-7600436D02*
X4179587Y-7400436D01*
X4265301Y-7600436D02*
X4265301Y-7495674D01*
X4265301Y-7495674D02*
X4255777Y-7476626D01*
X4255777Y-7476626D02*
X4236730Y-7467102D01*
X4236730Y-7467102D02*
X4208158Y-7467102D01*
X4208158Y-7467102D02*
X4189110Y-7476626D01*
X4189110Y-7476626D02*
X4179587Y-7486150D01*
X4389111Y-7600436D02*
X4370063Y-7590912D01*
X4370063Y-7590912D02*
X4360539Y-7581388D01*
X4360539Y-7581388D02*
X4351015Y-7562340D01*
X4351015Y-7562340D02*
X4351015Y-7505197D01*
X4351015Y-7505197D02*
X4360539Y-7486150D01*
X4360539Y-7486150D02*
X4370063Y-7476626D01*
X4370063Y-7476626D02*
X4389111Y-7467102D01*
X4389111Y-7467102D02*
X4417682Y-7467102D01*
X4417682Y-7467102D02*
X4436730Y-7476626D01*
X4436730Y-7476626D02*
X4446253Y-7486150D01*
X4446253Y-7486150D02*
X4455777Y-7505197D01*
X4455777Y-7505197D02*
X4455777Y-7562340D01*
X4455777Y-7562340D02*
X4446253Y-7581388D01*
X4446253Y-7581388D02*
X4436730Y-7590912D01*
X4436730Y-7590912D02*
X4417682Y-7600436D01*
X4417682Y-7600436D02*
X4389111Y-7600436D01*
X4570063Y-7600436D02*
X4551015Y-7590912D01*
X4551015Y-7590912D02*
X4541492Y-7571864D01*
X4541492Y-7571864D02*
X4541492Y-7400436D01*
X4722444Y-7590912D02*
X4703396Y-7600436D01*
X4703396Y-7600436D02*
X4665301Y-7600436D01*
X4665301Y-7600436D02*
X4646253Y-7590912D01*
X4646253Y-7590912D02*
X4636730Y-7571864D01*
X4636730Y-7571864D02*
X4636730Y-7495674D01*
X4636730Y-7495674D02*
X4646253Y-7476626D01*
X4646253Y-7476626D02*
X4665301Y-7467102D01*
X4665301Y-7467102D02*
X4703396Y-7467102D01*
X4703396Y-7467102D02*
X4722444Y-7476626D01*
X4722444Y-7476626D02*
X4731968Y-7495674D01*
X4731968Y-7495674D02*
X4731968Y-7514721D01*
X4731968Y-7514721D02*
X4636730Y-7533769D01*
X4808158Y-7590912D02*
X4827206Y-7600436D01*
X4827206Y-7600436D02*
X4865301Y-7600436D01*
X4865301Y-7600436D02*
X4884349Y-7590912D01*
X4884349Y-7590912D02*
X4893873Y-7571864D01*
X4893873Y-7571864D02*
X4893873Y-7562340D01*
X4893873Y-7562340D02*
X4884349Y-7543293D01*
X4884349Y-7543293D02*
X4865301Y-7533769D01*
X4865301Y-7533769D02*
X4836730Y-7533769D01*
X4836730Y-7533769D02*
X4817682Y-7524245D01*
X4817682Y-7524245D02*
X4808158Y-7505197D01*
X4808158Y-7505197D02*
X4808158Y-7495674D01*
X4808158Y-7495674D02*
X4817682Y-7476626D01*
X4817682Y-7476626D02*
X4836730Y-7467102D01*
X4836730Y-7467102D02*
X4865301Y-7467102D01*
X4865301Y-7467102D02*
X4884349Y-7476626D01*
X4960539Y-7676626D02*
X4970063Y-7667102D01*
X4970063Y-7667102D02*
X4989111Y-7638531D01*
X4989111Y-7638531D02*
X4998634Y-7619483D01*
X4998634Y-7619483D02*
X5008158Y-7590912D01*
X5008158Y-7590912D02*
X5017682Y-7543293D01*
X5017682Y-7543293D02*
X5017682Y-7505197D01*
X5017682Y-7505197D02*
X5008158Y-7457578D01*
X5008158Y-7457578D02*
X4998634Y-7429007D01*
X4998634Y-7429007D02*
X4989111Y-7409959D01*
X4989111Y-7409959D02*
X4970063Y-7381388D01*
X4970063Y-7381388D02*
X4960539Y-7371864D01*
D10*
X-35000Y-7742952D02*
X-35000Y-7802952D01*
X-65000Y-7772952D02*
X-5000Y-7772952D01*
D11*
X293872Y-7664436D02*
X312920Y-7664436D01*
X312920Y-7664436D02*
X331967Y-7673959D01*
X331967Y-7673959D02*
X341491Y-7683483D01*
X341491Y-7683483D02*
X351015Y-7702531D01*
X351015Y-7702531D02*
X360539Y-7740626D01*
X360539Y-7740626D02*
X360539Y-7788245D01*
X360539Y-7788245D02*
X351015Y-7826340D01*
X351015Y-7826340D02*
X341491Y-7845388D01*
X341491Y-7845388D02*
X331967Y-7854912D01*
X331967Y-7854912D02*
X312920Y-7864436D01*
X312920Y-7864436D02*
X293872Y-7864436D01*
X293872Y-7864436D02*
X274824Y-7854912D01*
X274824Y-7854912D02*
X265301Y-7845388D01*
X265301Y-7845388D02*
X255777Y-7826340D01*
X255777Y-7826340D02*
X246253Y-7788245D01*
X246253Y-7788245D02*
X246253Y-7740626D01*
X246253Y-7740626D02*
X255777Y-7702531D01*
X255777Y-7702531D02*
X265301Y-7683483D01*
X265301Y-7683483D02*
X274824Y-7673959D01*
X274824Y-7673959D02*
X293872Y-7664436D01*
X446253Y-7845388D02*
X455777Y-7854912D01*
X455777Y-7854912D02*
X446253Y-7864436D01*
X446253Y-7864436D02*
X436729Y-7854912D01*
X436729Y-7854912D02*
X446253Y-7845388D01*
X446253Y-7845388D02*
X446253Y-7864436D01*
X627205Y-7664436D02*
X589110Y-7664436D01*
X589110Y-7664436D02*
X570063Y-7673959D01*
X570063Y-7673959D02*
X560539Y-7683483D01*
X560539Y-7683483D02*
X541491Y-7712055D01*
X541491Y-7712055D02*
X531967Y-7750150D01*
X531967Y-7750150D02*
X531967Y-7826340D01*
X531967Y-7826340D02*
X541491Y-7845388D01*
X541491Y-7845388D02*
X551015Y-7854912D01*
X551015Y-7854912D02*
X570063Y-7864436D01*
X570063Y-7864436D02*
X608158Y-7864436D01*
X608158Y-7864436D02*
X627205Y-7854912D01*
X627205Y-7854912D02*
X636729Y-7845388D01*
X636729Y-7845388D02*
X646253Y-7826340D01*
X646253Y-7826340D02*
X646253Y-7778721D01*
X646253Y-7778721D02*
X636729Y-7759674D01*
X636729Y-7759674D02*
X627205Y-7750150D01*
X627205Y-7750150D02*
X608158Y-7740626D01*
X608158Y-7740626D02*
X570063Y-7740626D01*
X570063Y-7740626D02*
X551015Y-7750150D01*
X551015Y-7750150D02*
X541491Y-7759674D01*
X541491Y-7759674D02*
X531967Y-7778721D01*
X770062Y-7664436D02*
X789110Y-7664436D01*
X789110Y-7664436D02*
X808158Y-7673959D01*
X808158Y-7673959D02*
X817682Y-7683483D01*
X817682Y-7683483D02*
X827205Y-7702531D01*
X827205Y-7702531D02*
X836729Y-7740626D01*
X836729Y-7740626D02*
X836729Y-7788245D01*
X836729Y-7788245D02*
X827205Y-7826340D01*
X827205Y-7826340D02*
X817682Y-7845388D01*
X817682Y-7845388D02*
X808158Y-7854912D01*
X808158Y-7854912D02*
X789110Y-7864436D01*
X789110Y-7864436D02*
X770062Y-7864436D01*
X770062Y-7864436D02*
X751015Y-7854912D01*
X751015Y-7854912D02*
X741491Y-7845388D01*
X741491Y-7845388D02*
X731967Y-7826340D01*
X731967Y-7826340D02*
X722443Y-7788245D01*
X722443Y-7788245D02*
X722443Y-7740626D01*
X722443Y-7740626D02*
X731967Y-7702531D01*
X731967Y-7702531D02*
X741491Y-7683483D01*
X741491Y-7683483D02*
X751015Y-7673959D01*
X751015Y-7673959D02*
X770062Y-7664436D01*
X960539Y-7664436D02*
X979586Y-7664436D01*
X979586Y-7664436D02*
X998634Y-7673959D01*
X998634Y-7673959D02*
X1008158Y-7683483D01*
X1008158Y-7683483D02*
X1017682Y-7702531D01*
X1017682Y-7702531D02*
X1027205Y-7740626D01*
X1027205Y-7740626D02*
X1027205Y-7788245D01*
X1027205Y-7788245D02*
X1017682Y-7826340D01*
X1017682Y-7826340D02*
X1008158Y-7845388D01*
X1008158Y-7845388D02*
X998634Y-7854912D01*
X998634Y-7854912D02*
X979586Y-7864436D01*
X979586Y-7864436D02*
X960539Y-7864436D01*
X960539Y-7864436D02*
X941491Y-7854912D01*
X941491Y-7854912D02*
X931967Y-7845388D01*
X931967Y-7845388D02*
X922443Y-7826340D01*
X922443Y-7826340D02*
X912920Y-7788245D01*
X912920Y-7788245D02*
X912920Y-7740626D01*
X912920Y-7740626D02*
X922443Y-7702531D01*
X922443Y-7702531D02*
X931967Y-7683483D01*
X931967Y-7683483D02*
X941491Y-7673959D01*
X941491Y-7673959D02*
X960539Y-7664436D01*
X1112920Y-7864436D02*
X1112920Y-7731102D01*
X1112920Y-7750150D02*
X1122444Y-7740626D01*
X1122444Y-7740626D02*
X1141491Y-7731102D01*
X1141491Y-7731102D02*
X1170063Y-7731102D01*
X1170063Y-7731102D02*
X1189110Y-7740626D01*
X1189110Y-7740626D02*
X1198634Y-7759674D01*
X1198634Y-7759674D02*
X1198634Y-7864436D01*
X1198634Y-7759674D02*
X1208158Y-7740626D01*
X1208158Y-7740626D02*
X1227205Y-7731102D01*
X1227205Y-7731102D02*
X1255777Y-7731102D01*
X1255777Y-7731102D02*
X1274825Y-7740626D01*
X1274825Y-7740626D02*
X1284348Y-7759674D01*
X1284348Y-7759674D02*
X1284348Y-7864436D01*
X1379586Y-7864436D02*
X1379586Y-7731102D01*
X1379586Y-7750150D02*
X1389110Y-7740626D01*
X1389110Y-7740626D02*
X1408158Y-7731102D01*
X1408158Y-7731102D02*
X1436729Y-7731102D01*
X1436729Y-7731102D02*
X1455777Y-7740626D01*
X1455777Y-7740626D02*
X1465301Y-7759674D01*
X1465301Y-7759674D02*
X1465301Y-7864436D01*
X1465301Y-7759674D02*
X1474824Y-7740626D01*
X1474824Y-7740626D02*
X1493872Y-7731102D01*
X1493872Y-7731102D02*
X1522443Y-7731102D01*
X1522443Y-7731102D02*
X1541491Y-7740626D01*
X1541491Y-7740626D02*
X1551015Y-7759674D01*
X1551015Y-7759674D02*
X1551015Y-7864436D01*
X1941491Y-7654912D02*
X1770063Y-7912055D01*
X2198634Y-7664436D02*
X2217682Y-7664436D01*
X2217682Y-7664436D02*
X2236729Y-7673959D01*
X2236729Y-7673959D02*
X2246253Y-7683483D01*
X2246253Y-7683483D02*
X2255777Y-7702531D01*
X2255777Y-7702531D02*
X2265301Y-7740626D01*
X2265301Y-7740626D02*
X2265301Y-7788245D01*
X2265301Y-7788245D02*
X2255777Y-7826340D01*
X2255777Y-7826340D02*
X2246253Y-7845388D01*
X2246253Y-7845388D02*
X2236729Y-7854912D01*
X2236729Y-7854912D02*
X2217682Y-7864436D01*
X2217682Y-7864436D02*
X2198634Y-7864436D01*
X2198634Y-7864436D02*
X2179587Y-7854912D01*
X2179587Y-7854912D02*
X2170063Y-7845388D01*
X2170063Y-7845388D02*
X2160539Y-7826340D01*
X2160539Y-7826340D02*
X2151015Y-7788245D01*
X2151015Y-7788245D02*
X2151015Y-7740626D01*
X2151015Y-7740626D02*
X2160539Y-7702531D01*
X2160539Y-7702531D02*
X2170063Y-7683483D01*
X2170063Y-7683483D02*
X2179587Y-7673959D01*
X2179587Y-7673959D02*
X2198634Y-7664436D01*
X2351015Y-7845388D02*
X2360539Y-7854912D01*
X2360539Y-7854912D02*
X2351015Y-7864436D01*
X2351015Y-7864436D02*
X2341491Y-7854912D01*
X2341491Y-7854912D02*
X2351015Y-7845388D01*
X2351015Y-7845388D02*
X2351015Y-7864436D01*
X2484348Y-7664436D02*
X2503396Y-7664436D01*
X2503396Y-7664436D02*
X2522444Y-7673959D01*
X2522444Y-7673959D02*
X2531968Y-7683483D01*
X2531968Y-7683483D02*
X2541491Y-7702531D01*
X2541491Y-7702531D02*
X2551015Y-7740626D01*
X2551015Y-7740626D02*
X2551015Y-7788245D01*
X2551015Y-7788245D02*
X2541491Y-7826340D01*
X2541491Y-7826340D02*
X2531968Y-7845388D01*
X2531968Y-7845388D02*
X2522444Y-7854912D01*
X2522444Y-7854912D02*
X2503396Y-7864436D01*
X2503396Y-7864436D02*
X2484348Y-7864436D01*
X2484348Y-7864436D02*
X2465301Y-7854912D01*
X2465301Y-7854912D02*
X2455777Y-7845388D01*
X2455777Y-7845388D02*
X2446253Y-7826340D01*
X2446253Y-7826340D02*
X2436729Y-7788245D01*
X2436729Y-7788245D02*
X2436729Y-7740626D01*
X2436729Y-7740626D02*
X2446253Y-7702531D01*
X2446253Y-7702531D02*
X2455777Y-7683483D01*
X2455777Y-7683483D02*
X2465301Y-7673959D01*
X2465301Y-7673959D02*
X2484348Y-7664436D01*
X2627206Y-7683483D02*
X2636729Y-7673959D01*
X2636729Y-7673959D02*
X2655777Y-7664436D01*
X2655777Y-7664436D02*
X2703396Y-7664436D01*
X2703396Y-7664436D02*
X2722444Y-7673959D01*
X2722444Y-7673959D02*
X2731968Y-7683483D01*
X2731968Y-7683483D02*
X2741491Y-7702531D01*
X2741491Y-7702531D02*
X2741491Y-7721578D01*
X2741491Y-7721578D02*
X2731968Y-7750150D01*
X2731968Y-7750150D02*
X2617682Y-7864436D01*
X2617682Y-7864436D02*
X2741491Y-7864436D01*
X2808158Y-7664436D02*
X2931967Y-7664436D01*
X2931967Y-7664436D02*
X2865301Y-7740626D01*
X2865301Y-7740626D02*
X2893872Y-7740626D01*
X2893872Y-7740626D02*
X2912920Y-7750150D01*
X2912920Y-7750150D02*
X2922444Y-7759674D01*
X2922444Y-7759674D02*
X2931967Y-7778721D01*
X2931967Y-7778721D02*
X2931967Y-7826340D01*
X2931967Y-7826340D02*
X2922444Y-7845388D01*
X2922444Y-7845388D02*
X2912920Y-7854912D01*
X2912920Y-7854912D02*
X2893872Y-7864436D01*
X2893872Y-7864436D02*
X2836729Y-7864436D01*
X2836729Y-7864436D02*
X2817682Y-7854912D01*
X2817682Y-7854912D02*
X2808158Y-7845388D01*
X3103396Y-7664436D02*
X3065301Y-7664436D01*
X3065301Y-7664436D02*
X3046253Y-7673959D01*
X3046253Y-7673959D02*
X3036729Y-7683483D01*
X3036729Y-7683483D02*
X3017682Y-7712055D01*
X3017682Y-7712055D02*
X3008158Y-7750150D01*
X3008158Y-7750150D02*
X3008158Y-7826340D01*
X3008158Y-7826340D02*
X3017682Y-7845388D01*
X3017682Y-7845388D02*
X3027206Y-7854912D01*
X3027206Y-7854912D02*
X3046253Y-7864436D01*
X3046253Y-7864436D02*
X3084348Y-7864436D01*
X3084348Y-7864436D02*
X3103396Y-7854912D01*
X3103396Y-7854912D02*
X3112920Y-7845388D01*
X3112920Y-7845388D02*
X3122444Y-7826340D01*
X3122444Y-7826340D02*
X3122444Y-7778721D01*
X3122444Y-7778721D02*
X3112920Y-7759674D01*
X3112920Y-7759674D02*
X3103396Y-7750150D01*
X3103396Y-7750150D02*
X3084348Y-7740626D01*
X3084348Y-7740626D02*
X3046253Y-7740626D01*
X3046253Y-7740626D02*
X3027206Y-7750150D01*
X3027206Y-7750150D02*
X3017682Y-7759674D01*
X3017682Y-7759674D02*
X3008158Y-7778721D01*
X3198634Y-7664436D02*
X3198634Y-7702531D01*
X3274825Y-7664436D02*
X3274825Y-7702531D01*
X3570063Y-7940626D02*
X3560539Y-7931102D01*
X3560539Y-7931102D02*
X3541491Y-7902531D01*
X3541491Y-7902531D02*
X3531968Y-7883483D01*
X3531968Y-7883483D02*
X3522444Y-7854912D01*
X3522444Y-7854912D02*
X3512920Y-7807293D01*
X3512920Y-7807293D02*
X3512920Y-7769197D01*
X3512920Y-7769197D02*
X3522444Y-7721578D01*
X3522444Y-7721578D02*
X3531968Y-7693007D01*
X3531968Y-7693007D02*
X3541491Y-7673959D01*
X3541491Y-7673959D02*
X3560539Y-7645388D01*
X3560539Y-7645388D02*
X3570063Y-7635864D01*
X3684348Y-7664436D02*
X3703396Y-7664436D01*
X3703396Y-7664436D02*
X3722444Y-7673959D01*
X3722444Y-7673959D02*
X3731968Y-7683483D01*
X3731968Y-7683483D02*
X3741491Y-7702531D01*
X3741491Y-7702531D02*
X3751015Y-7740626D01*
X3751015Y-7740626D02*
X3751015Y-7788245D01*
X3751015Y-7788245D02*
X3741491Y-7826340D01*
X3741491Y-7826340D02*
X3731968Y-7845388D01*
X3731968Y-7845388D02*
X3722444Y-7854912D01*
X3722444Y-7854912D02*
X3703396Y-7864436D01*
X3703396Y-7864436D02*
X3684348Y-7864436D01*
X3684348Y-7864436D02*
X3665301Y-7854912D01*
X3665301Y-7854912D02*
X3655777Y-7845388D01*
X3655777Y-7845388D02*
X3646253Y-7826340D01*
X3646253Y-7826340D02*
X3636729Y-7788245D01*
X3636729Y-7788245D02*
X3636729Y-7740626D01*
X3636729Y-7740626D02*
X3646253Y-7702531D01*
X3646253Y-7702531D02*
X3655777Y-7683483D01*
X3655777Y-7683483D02*
X3665301Y-7673959D01*
X3665301Y-7673959D02*
X3684348Y-7664436D01*
X3989110Y-7864436D02*
X3989110Y-7664436D01*
X4074825Y-7864436D02*
X4074825Y-7759674D01*
X4074825Y-7759674D02*
X4065301Y-7740626D01*
X4065301Y-7740626D02*
X4046253Y-7731102D01*
X4046253Y-7731102D02*
X4017682Y-7731102D01*
X4017682Y-7731102D02*
X3998634Y-7740626D01*
X3998634Y-7740626D02*
X3989110Y-7750150D01*
X4198634Y-7864436D02*
X4179587Y-7854912D01*
X4179587Y-7854912D02*
X4170063Y-7845388D01*
X4170063Y-7845388D02*
X4160539Y-7826340D01*
X4160539Y-7826340D02*
X4160539Y-7769197D01*
X4160539Y-7769197D02*
X4170063Y-7750150D01*
X4170063Y-7750150D02*
X4179587Y-7740626D01*
X4179587Y-7740626D02*
X4198634Y-7731102D01*
X4198634Y-7731102D02*
X4227206Y-7731102D01*
X4227206Y-7731102D02*
X4246253Y-7740626D01*
X4246253Y-7740626D02*
X4255777Y-7750150D01*
X4255777Y-7750150D02*
X4265301Y-7769197D01*
X4265301Y-7769197D02*
X4265301Y-7826340D01*
X4265301Y-7826340D02*
X4255777Y-7845388D01*
X4255777Y-7845388D02*
X4246253Y-7854912D01*
X4246253Y-7854912D02*
X4227206Y-7864436D01*
X4227206Y-7864436D02*
X4198634Y-7864436D01*
X4379587Y-7864436D02*
X4360539Y-7854912D01*
X4360539Y-7854912D02*
X4351015Y-7835864D01*
X4351015Y-7835864D02*
X4351015Y-7664436D01*
X4531968Y-7854912D02*
X4512920Y-7864436D01*
X4512920Y-7864436D02*
X4474825Y-7864436D01*
X4474825Y-7864436D02*
X4455777Y-7854912D01*
X4455777Y-7854912D02*
X4446253Y-7835864D01*
X4446253Y-7835864D02*
X4446253Y-7759674D01*
X4446253Y-7759674D02*
X4455777Y-7740626D01*
X4455777Y-7740626D02*
X4474825Y-7731102D01*
X4474825Y-7731102D02*
X4512920Y-7731102D01*
X4512920Y-7731102D02*
X4531968Y-7740626D01*
X4531968Y-7740626D02*
X4541492Y-7759674D01*
X4541492Y-7759674D02*
X4541492Y-7778721D01*
X4541492Y-7778721D02*
X4446253Y-7797769D01*
X4617682Y-7854912D02*
X4636730Y-7864436D01*
X4636730Y-7864436D02*
X4674825Y-7864436D01*
X4674825Y-7864436D02*
X4693873Y-7854912D01*
X4693873Y-7854912D02*
X4703396Y-7835864D01*
X4703396Y-7835864D02*
X4703396Y-7826340D01*
X4703396Y-7826340D02*
X4693873Y-7807293D01*
X4693873Y-7807293D02*
X4674825Y-7797769D01*
X4674825Y-7797769D02*
X4646253Y-7797769D01*
X4646253Y-7797769D02*
X4627206Y-7788245D01*
X4627206Y-7788245D02*
X4617682Y-7769197D01*
X4617682Y-7769197D02*
X4617682Y-7759674D01*
X4617682Y-7759674D02*
X4627206Y-7740626D01*
X4627206Y-7740626D02*
X4646253Y-7731102D01*
X4646253Y-7731102D02*
X4674825Y-7731102D01*
X4674825Y-7731102D02*
X4693873Y-7740626D01*
X4941492Y-7788245D02*
X5093873Y-7788245D01*
X5017682Y-7864436D02*
X5017682Y-7712055D01*
X5370063Y-7750150D02*
X5351015Y-7740626D01*
X5351015Y-7740626D02*
X5341492Y-7731102D01*
X5341492Y-7731102D02*
X5331968Y-7712055D01*
X5331968Y-7712055D02*
X5331968Y-7702531D01*
X5331968Y-7702531D02*
X5341492Y-7683483D01*
X5341492Y-7683483D02*
X5351015Y-7673959D01*
X5351015Y-7673959D02*
X5370063Y-7664436D01*
X5370063Y-7664436D02*
X5408158Y-7664436D01*
X5408158Y-7664436D02*
X5427206Y-7673959D01*
X5427206Y-7673959D02*
X5436730Y-7683483D01*
X5436730Y-7683483D02*
X5446254Y-7702531D01*
X5446254Y-7702531D02*
X5446254Y-7712055D01*
X5446254Y-7712055D02*
X5436730Y-7731102D01*
X5436730Y-7731102D02*
X5427206Y-7740626D01*
X5427206Y-7740626D02*
X5408158Y-7750150D01*
X5408158Y-7750150D02*
X5370063Y-7750150D01*
X5370063Y-7750150D02*
X5351015Y-7759674D01*
X5351015Y-7759674D02*
X5341492Y-7769197D01*
X5341492Y-7769197D02*
X5331968Y-7788245D01*
X5331968Y-7788245D02*
X5331968Y-7826340D01*
X5331968Y-7826340D02*
X5341492Y-7845388D01*
X5341492Y-7845388D02*
X5351015Y-7854912D01*
X5351015Y-7854912D02*
X5370063Y-7864436D01*
X5370063Y-7864436D02*
X5408158Y-7864436D01*
X5408158Y-7864436D02*
X5427206Y-7854912D01*
X5427206Y-7854912D02*
X5436730Y-7845388D01*
X5436730Y-7845388D02*
X5446254Y-7826340D01*
X5446254Y-7826340D02*
X5446254Y-7788245D01*
X5446254Y-7788245D02*
X5436730Y-7769197D01*
X5436730Y-7769197D02*
X5427206Y-7759674D01*
X5427206Y-7759674D02*
X5408158Y-7750150D01*
X5674825Y-7854912D02*
X5693873Y-7864436D01*
X5693873Y-7864436D02*
X5731968Y-7864436D01*
X5731968Y-7864436D02*
X5751015Y-7854912D01*
X5751015Y-7854912D02*
X5760539Y-7835864D01*
X5760539Y-7835864D02*
X5760539Y-7826340D01*
X5760539Y-7826340D02*
X5751015Y-7807293D01*
X5751015Y-7807293D02*
X5731968Y-7797769D01*
X5731968Y-7797769D02*
X5703396Y-7797769D01*
X5703396Y-7797769D02*
X5684349Y-7788245D01*
X5684349Y-7788245D02*
X5674825Y-7769197D01*
X5674825Y-7769197D02*
X5674825Y-7759674D01*
X5674825Y-7759674D02*
X5684349Y-7740626D01*
X5684349Y-7740626D02*
X5703396Y-7731102D01*
X5703396Y-7731102D02*
X5731968Y-7731102D01*
X5731968Y-7731102D02*
X5751015Y-7740626D01*
X5874825Y-7864436D02*
X5855777Y-7854912D01*
X5855777Y-7854912D02*
X5846254Y-7835864D01*
X5846254Y-7835864D02*
X5846254Y-7664436D01*
X5979587Y-7864436D02*
X5960539Y-7854912D01*
X5960539Y-7854912D02*
X5951015Y-7845388D01*
X5951015Y-7845388D02*
X5941492Y-7826340D01*
X5941492Y-7826340D02*
X5941492Y-7769197D01*
X5941492Y-7769197D02*
X5951015Y-7750150D01*
X5951015Y-7750150D02*
X5960539Y-7740626D01*
X5960539Y-7740626D02*
X5979587Y-7731102D01*
X5979587Y-7731102D02*
X6008158Y-7731102D01*
X6008158Y-7731102D02*
X6027206Y-7740626D01*
X6027206Y-7740626D02*
X6036730Y-7750150D01*
X6036730Y-7750150D02*
X6046254Y-7769197D01*
X6046254Y-7769197D02*
X6046254Y-7826340D01*
X6046254Y-7826340D02*
X6036730Y-7845388D01*
X6036730Y-7845388D02*
X6027206Y-7854912D01*
X6027206Y-7854912D02*
X6008158Y-7864436D01*
X6008158Y-7864436D02*
X5979587Y-7864436D01*
X6103396Y-7731102D02*
X6179587Y-7731102D01*
X6131968Y-7664436D02*
X6131968Y-7835864D01*
X6131968Y-7835864D02*
X6141492Y-7854912D01*
X6141492Y-7854912D02*
X6160539Y-7864436D01*
X6160539Y-7864436D02*
X6179587Y-7864436D01*
X6236730Y-7854912D02*
X6255777Y-7864436D01*
X6255777Y-7864436D02*
X6293873Y-7864436D01*
X6293873Y-7864436D02*
X6312920Y-7854912D01*
X6312920Y-7854912D02*
X6322444Y-7835864D01*
X6322444Y-7835864D02*
X6322444Y-7826340D01*
X6322444Y-7826340D02*
X6312920Y-7807293D01*
X6312920Y-7807293D02*
X6293873Y-7797769D01*
X6293873Y-7797769D02*
X6265301Y-7797769D01*
X6265301Y-7797769D02*
X6246254Y-7788245D01*
X6246254Y-7788245D02*
X6236730Y-7769197D01*
X6236730Y-7769197D02*
X6236730Y-7759674D01*
X6236730Y-7759674D02*
X6246254Y-7740626D01*
X6246254Y-7740626D02*
X6265301Y-7731102D01*
X6265301Y-7731102D02*
X6293873Y-7731102D01*
X6293873Y-7731102D02*
X6312920Y-7740626D01*
X6389111Y-7940626D02*
X6398635Y-7931102D01*
X6398635Y-7931102D02*
X6417682Y-7902531D01*
X6417682Y-7902531D02*
X6427206Y-7883483D01*
X6427206Y-7883483D02*
X6436730Y-7854912D01*
X6436730Y-7854912D02*
X6446254Y-7807293D01*
X6446254Y-7807293D02*
X6446254Y-7769197D01*
X6446254Y-7769197D02*
X6436730Y-7721578D01*
X6436730Y-7721578D02*
X6427206Y-7693007D01*
X6427206Y-7693007D02*
X6417682Y-7673959D01*
X6417682Y-7673959D02*
X6398635Y-7645388D01*
X6398635Y-7645388D02*
X6389111Y-7635864D01*
D10*
X-18473Y-8069479D02*
X-18473Y-8004425D01*
X-83527Y-8004425D01*
X-83527Y-8069479D01*
X-18473Y-8069479D01*
D11*
X293872Y-7928436D02*
X312920Y-7928436D01*
X312920Y-7928436D02*
X331967Y-7937959D01*
X331967Y-7937959D02*
X341491Y-7947483D01*
X341491Y-7947483D02*
X351015Y-7966531D01*
X351015Y-7966531D02*
X360539Y-8004626D01*
X360539Y-8004626D02*
X360539Y-8052245D01*
X360539Y-8052245D02*
X351015Y-8090340D01*
X351015Y-8090340D02*
X341491Y-8109388D01*
X341491Y-8109388D02*
X331967Y-8118912D01*
X331967Y-8118912D02*
X312920Y-8128436D01*
X312920Y-8128436D02*
X293872Y-8128436D01*
X293872Y-8128436D02*
X274824Y-8118912D01*
X274824Y-8118912D02*
X265301Y-8109388D01*
X265301Y-8109388D02*
X255777Y-8090340D01*
X255777Y-8090340D02*
X246253Y-8052245D01*
X246253Y-8052245D02*
X246253Y-8004626D01*
X246253Y-8004626D02*
X255777Y-7966531D01*
X255777Y-7966531D02*
X265301Y-7947483D01*
X265301Y-7947483D02*
X274824Y-7937959D01*
X274824Y-7937959D02*
X293872Y-7928436D01*
X446253Y-8109388D02*
X455777Y-8118912D01*
X455777Y-8118912D02*
X446253Y-8128436D01*
X446253Y-8128436D02*
X436729Y-8118912D01*
X436729Y-8118912D02*
X446253Y-8109388D01*
X446253Y-8109388D02*
X446253Y-8128436D01*
X551015Y-8128436D02*
X589110Y-8128436D01*
X589110Y-8128436D02*
X608158Y-8118912D01*
X608158Y-8118912D02*
X617682Y-8109388D01*
X617682Y-8109388D02*
X636729Y-8080816D01*
X636729Y-8080816D02*
X646253Y-8042721D01*
X646253Y-8042721D02*
X646253Y-7966531D01*
X646253Y-7966531D02*
X636729Y-7947483D01*
X636729Y-7947483D02*
X627205Y-7937959D01*
X627205Y-7937959D02*
X608158Y-7928436D01*
X608158Y-7928436D02*
X570063Y-7928436D01*
X570063Y-7928436D02*
X551015Y-7937959D01*
X551015Y-7937959D02*
X541491Y-7947483D01*
X541491Y-7947483D02*
X531967Y-7966531D01*
X531967Y-7966531D02*
X531967Y-8014150D01*
X531967Y-8014150D02*
X541491Y-8033197D01*
X541491Y-8033197D02*
X551015Y-8042721D01*
X551015Y-8042721D02*
X570063Y-8052245D01*
X570063Y-8052245D02*
X608158Y-8052245D01*
X608158Y-8052245D02*
X627205Y-8042721D01*
X627205Y-8042721D02*
X636729Y-8033197D01*
X636729Y-8033197D02*
X646253Y-8014150D01*
X722443Y-7947483D02*
X731967Y-7937959D01*
X731967Y-7937959D02*
X751015Y-7928436D01*
X751015Y-7928436D02*
X798634Y-7928436D01*
X798634Y-7928436D02*
X817682Y-7937959D01*
X817682Y-7937959D02*
X827205Y-7947483D01*
X827205Y-7947483D02*
X836729Y-7966531D01*
X836729Y-7966531D02*
X836729Y-7985578D01*
X836729Y-7985578D02*
X827205Y-8014150D01*
X827205Y-8014150D02*
X712920Y-8128436D01*
X712920Y-8128436D02*
X836729Y-8128436D01*
X960539Y-7928436D02*
X979586Y-7928436D01*
X979586Y-7928436D02*
X998634Y-7937959D01*
X998634Y-7937959D02*
X1008158Y-7947483D01*
X1008158Y-7947483D02*
X1017682Y-7966531D01*
X1017682Y-7966531D02*
X1027205Y-8004626D01*
X1027205Y-8004626D02*
X1027205Y-8052245D01*
X1027205Y-8052245D02*
X1017682Y-8090340D01*
X1017682Y-8090340D02*
X1008158Y-8109388D01*
X1008158Y-8109388D02*
X998634Y-8118912D01*
X998634Y-8118912D02*
X979586Y-8128436D01*
X979586Y-8128436D02*
X960539Y-8128436D01*
X960539Y-8128436D02*
X941491Y-8118912D01*
X941491Y-8118912D02*
X931967Y-8109388D01*
X931967Y-8109388D02*
X922443Y-8090340D01*
X922443Y-8090340D02*
X912920Y-8052245D01*
X912920Y-8052245D02*
X912920Y-8004626D01*
X912920Y-8004626D02*
X922443Y-7966531D01*
X922443Y-7966531D02*
X931967Y-7947483D01*
X931967Y-7947483D02*
X941491Y-7937959D01*
X941491Y-7937959D02*
X960539Y-7928436D01*
X1112920Y-8128436D02*
X1112920Y-7995102D01*
X1112920Y-8014150D02*
X1122444Y-8004626D01*
X1122444Y-8004626D02*
X1141491Y-7995102D01*
X1141491Y-7995102D02*
X1170063Y-7995102D01*
X1170063Y-7995102D02*
X1189110Y-8004626D01*
X1189110Y-8004626D02*
X1198634Y-8023674D01*
X1198634Y-8023674D02*
X1198634Y-8128436D01*
X1198634Y-8023674D02*
X1208158Y-8004626D01*
X1208158Y-8004626D02*
X1227205Y-7995102D01*
X1227205Y-7995102D02*
X1255777Y-7995102D01*
X1255777Y-7995102D02*
X1274825Y-8004626D01*
X1274825Y-8004626D02*
X1284348Y-8023674D01*
X1284348Y-8023674D02*
X1284348Y-8128436D01*
X1379586Y-8128436D02*
X1379586Y-7995102D01*
X1379586Y-8014150D02*
X1389110Y-8004626D01*
X1389110Y-8004626D02*
X1408158Y-7995102D01*
X1408158Y-7995102D02*
X1436729Y-7995102D01*
X1436729Y-7995102D02*
X1455777Y-8004626D01*
X1455777Y-8004626D02*
X1465301Y-8023674D01*
X1465301Y-8023674D02*
X1465301Y-8128436D01*
X1465301Y-8023674D02*
X1474824Y-8004626D01*
X1474824Y-8004626D02*
X1493872Y-7995102D01*
X1493872Y-7995102D02*
X1522443Y-7995102D01*
X1522443Y-7995102D02*
X1541491Y-8004626D01*
X1541491Y-8004626D02*
X1551015Y-8023674D01*
X1551015Y-8023674D02*
X1551015Y-8128436D01*
X1941491Y-7918912D02*
X1770063Y-8176055D01*
X2198634Y-7928436D02*
X2217682Y-7928436D01*
X2217682Y-7928436D02*
X2236729Y-7937959D01*
X2236729Y-7937959D02*
X2246253Y-7947483D01*
X2246253Y-7947483D02*
X2255777Y-7966531D01*
X2255777Y-7966531D02*
X2265301Y-8004626D01*
X2265301Y-8004626D02*
X2265301Y-8052245D01*
X2265301Y-8052245D02*
X2255777Y-8090340D01*
X2255777Y-8090340D02*
X2246253Y-8109388D01*
X2246253Y-8109388D02*
X2236729Y-8118912D01*
X2236729Y-8118912D02*
X2217682Y-8128436D01*
X2217682Y-8128436D02*
X2198634Y-8128436D01*
X2198634Y-8128436D02*
X2179587Y-8118912D01*
X2179587Y-8118912D02*
X2170063Y-8109388D01*
X2170063Y-8109388D02*
X2160539Y-8090340D01*
X2160539Y-8090340D02*
X2151015Y-8052245D01*
X2151015Y-8052245D02*
X2151015Y-8004626D01*
X2151015Y-8004626D02*
X2160539Y-7966531D01*
X2160539Y-7966531D02*
X2170063Y-7947483D01*
X2170063Y-7947483D02*
X2179587Y-7937959D01*
X2179587Y-7937959D02*
X2198634Y-7928436D01*
X2351015Y-8109388D02*
X2360539Y-8118912D01*
X2360539Y-8118912D02*
X2351015Y-8128436D01*
X2351015Y-8128436D02*
X2341491Y-8118912D01*
X2341491Y-8118912D02*
X2351015Y-8109388D01*
X2351015Y-8109388D02*
X2351015Y-8128436D01*
X2484348Y-7928436D02*
X2503396Y-7928436D01*
X2503396Y-7928436D02*
X2522444Y-7937959D01*
X2522444Y-7937959D02*
X2531968Y-7947483D01*
X2531968Y-7947483D02*
X2541491Y-7966531D01*
X2541491Y-7966531D02*
X2551015Y-8004626D01*
X2551015Y-8004626D02*
X2551015Y-8052245D01*
X2551015Y-8052245D02*
X2541491Y-8090340D01*
X2541491Y-8090340D02*
X2531968Y-8109388D01*
X2531968Y-8109388D02*
X2522444Y-8118912D01*
X2522444Y-8118912D02*
X2503396Y-8128436D01*
X2503396Y-8128436D02*
X2484348Y-8128436D01*
X2484348Y-8128436D02*
X2465301Y-8118912D01*
X2465301Y-8118912D02*
X2455777Y-8109388D01*
X2455777Y-8109388D02*
X2446253Y-8090340D01*
X2446253Y-8090340D02*
X2436729Y-8052245D01*
X2436729Y-8052245D02*
X2436729Y-8004626D01*
X2436729Y-8004626D02*
X2446253Y-7966531D01*
X2446253Y-7966531D02*
X2455777Y-7947483D01*
X2455777Y-7947483D02*
X2465301Y-7937959D01*
X2465301Y-7937959D02*
X2484348Y-7928436D01*
X2617682Y-7928436D02*
X2741491Y-7928436D01*
X2741491Y-7928436D02*
X2674825Y-8004626D01*
X2674825Y-8004626D02*
X2703396Y-8004626D01*
X2703396Y-8004626D02*
X2722444Y-8014150D01*
X2722444Y-8014150D02*
X2731968Y-8023674D01*
X2731968Y-8023674D02*
X2741491Y-8042721D01*
X2741491Y-8042721D02*
X2741491Y-8090340D01*
X2741491Y-8090340D02*
X2731968Y-8109388D01*
X2731968Y-8109388D02*
X2722444Y-8118912D01*
X2722444Y-8118912D02*
X2703396Y-8128436D01*
X2703396Y-8128436D02*
X2646253Y-8128436D01*
X2646253Y-8128436D02*
X2627206Y-8118912D01*
X2627206Y-8118912D02*
X2617682Y-8109388D01*
X2912920Y-7928436D02*
X2874825Y-7928436D01*
X2874825Y-7928436D02*
X2855777Y-7937959D01*
X2855777Y-7937959D02*
X2846253Y-7947483D01*
X2846253Y-7947483D02*
X2827206Y-7976055D01*
X2827206Y-7976055D02*
X2817682Y-8014150D01*
X2817682Y-8014150D02*
X2817682Y-8090340D01*
X2817682Y-8090340D02*
X2827206Y-8109388D01*
X2827206Y-8109388D02*
X2836729Y-8118912D01*
X2836729Y-8118912D02*
X2855777Y-8128436D01*
X2855777Y-8128436D02*
X2893872Y-8128436D01*
X2893872Y-8128436D02*
X2912920Y-8118912D01*
X2912920Y-8118912D02*
X2922444Y-8109388D01*
X2922444Y-8109388D02*
X2931967Y-8090340D01*
X2931967Y-8090340D02*
X2931967Y-8042721D01*
X2931967Y-8042721D02*
X2922444Y-8023674D01*
X2922444Y-8023674D02*
X2912920Y-8014150D01*
X2912920Y-8014150D02*
X2893872Y-8004626D01*
X2893872Y-8004626D02*
X2855777Y-8004626D01*
X2855777Y-8004626D02*
X2836729Y-8014150D01*
X2836729Y-8014150D02*
X2827206Y-8023674D01*
X2827206Y-8023674D02*
X2817682Y-8042721D01*
X3008158Y-7947483D02*
X3017682Y-7937959D01*
X3017682Y-7937959D02*
X3036729Y-7928436D01*
X3036729Y-7928436D02*
X3084348Y-7928436D01*
X3084348Y-7928436D02*
X3103396Y-7937959D01*
X3103396Y-7937959D02*
X3112920Y-7947483D01*
X3112920Y-7947483D02*
X3122444Y-7966531D01*
X3122444Y-7966531D02*
X3122444Y-7985578D01*
X3122444Y-7985578D02*
X3112920Y-8014150D01*
X3112920Y-8014150D02*
X2998634Y-8128436D01*
X2998634Y-8128436D02*
X3122444Y-8128436D01*
X3198634Y-7928436D02*
X3198634Y-7966531D01*
X3274825Y-7928436D02*
X3274825Y-7966531D01*
X3570063Y-8204626D02*
X3560539Y-8195102D01*
X3560539Y-8195102D02*
X3541491Y-8166531D01*
X3541491Y-8166531D02*
X3531968Y-8147483D01*
X3531968Y-8147483D02*
X3522444Y-8118912D01*
X3522444Y-8118912D02*
X3512920Y-8071293D01*
X3512920Y-8071293D02*
X3512920Y-8033197D01*
X3512920Y-8033197D02*
X3522444Y-7985578D01*
X3522444Y-7985578D02*
X3531968Y-7957007D01*
X3531968Y-7957007D02*
X3541491Y-7937959D01*
X3541491Y-7937959D02*
X3560539Y-7909388D01*
X3560539Y-7909388D02*
X3570063Y-7899864D01*
X3674825Y-8014150D02*
X3655777Y-8004626D01*
X3655777Y-8004626D02*
X3646253Y-7995102D01*
X3646253Y-7995102D02*
X3636729Y-7976055D01*
X3636729Y-7976055D02*
X3636729Y-7966531D01*
X3636729Y-7966531D02*
X3646253Y-7947483D01*
X3646253Y-7947483D02*
X3655777Y-7937959D01*
X3655777Y-7937959D02*
X3674825Y-7928436D01*
X3674825Y-7928436D02*
X3712920Y-7928436D01*
X3712920Y-7928436D02*
X3731968Y-7937959D01*
X3731968Y-7937959D02*
X3741491Y-7947483D01*
X3741491Y-7947483D02*
X3751015Y-7966531D01*
X3751015Y-7966531D02*
X3751015Y-7976055D01*
X3751015Y-7976055D02*
X3741491Y-7995102D01*
X3741491Y-7995102D02*
X3731968Y-8004626D01*
X3731968Y-8004626D02*
X3712920Y-8014150D01*
X3712920Y-8014150D02*
X3674825Y-8014150D01*
X3674825Y-8014150D02*
X3655777Y-8023674D01*
X3655777Y-8023674D02*
X3646253Y-8033197D01*
X3646253Y-8033197D02*
X3636729Y-8052245D01*
X3636729Y-8052245D02*
X3636729Y-8090340D01*
X3636729Y-8090340D02*
X3646253Y-8109388D01*
X3646253Y-8109388D02*
X3655777Y-8118912D01*
X3655777Y-8118912D02*
X3674825Y-8128436D01*
X3674825Y-8128436D02*
X3712920Y-8128436D01*
X3712920Y-8128436D02*
X3731968Y-8118912D01*
X3731968Y-8118912D02*
X3741491Y-8109388D01*
X3741491Y-8109388D02*
X3751015Y-8090340D01*
X3751015Y-8090340D02*
X3751015Y-8052245D01*
X3751015Y-8052245D02*
X3741491Y-8033197D01*
X3741491Y-8033197D02*
X3731968Y-8023674D01*
X3731968Y-8023674D02*
X3712920Y-8014150D01*
X3989110Y-8128436D02*
X3989110Y-7928436D01*
X4074825Y-8128436D02*
X4074825Y-8023674D01*
X4074825Y-8023674D02*
X4065301Y-8004626D01*
X4065301Y-8004626D02*
X4046253Y-7995102D01*
X4046253Y-7995102D02*
X4017682Y-7995102D01*
X4017682Y-7995102D02*
X3998634Y-8004626D01*
X3998634Y-8004626D02*
X3989110Y-8014150D01*
X4198634Y-8128436D02*
X4179587Y-8118912D01*
X4179587Y-8118912D02*
X4170063Y-8109388D01*
X4170063Y-8109388D02*
X4160539Y-8090340D01*
X4160539Y-8090340D02*
X4160539Y-8033197D01*
X4160539Y-8033197D02*
X4170063Y-8014150D01*
X4170063Y-8014150D02*
X4179587Y-8004626D01*
X4179587Y-8004626D02*
X4198634Y-7995102D01*
X4198634Y-7995102D02*
X4227206Y-7995102D01*
X4227206Y-7995102D02*
X4246253Y-8004626D01*
X4246253Y-8004626D02*
X4255777Y-8014150D01*
X4255777Y-8014150D02*
X4265301Y-8033197D01*
X4265301Y-8033197D02*
X4265301Y-8090340D01*
X4265301Y-8090340D02*
X4255777Y-8109388D01*
X4255777Y-8109388D02*
X4246253Y-8118912D01*
X4246253Y-8118912D02*
X4227206Y-8128436D01*
X4227206Y-8128436D02*
X4198634Y-8128436D01*
X4379587Y-8128436D02*
X4360539Y-8118912D01*
X4360539Y-8118912D02*
X4351015Y-8099864D01*
X4351015Y-8099864D02*
X4351015Y-7928436D01*
X4531968Y-8118912D02*
X4512920Y-8128436D01*
X4512920Y-8128436D02*
X4474825Y-8128436D01*
X4474825Y-8128436D02*
X4455777Y-8118912D01*
X4455777Y-8118912D02*
X4446253Y-8099864D01*
X4446253Y-8099864D02*
X4446253Y-8023674D01*
X4446253Y-8023674D02*
X4455777Y-8004626D01*
X4455777Y-8004626D02*
X4474825Y-7995102D01*
X4474825Y-7995102D02*
X4512920Y-7995102D01*
X4512920Y-7995102D02*
X4531968Y-8004626D01*
X4531968Y-8004626D02*
X4541492Y-8023674D01*
X4541492Y-8023674D02*
X4541492Y-8042721D01*
X4541492Y-8042721D02*
X4446253Y-8061769D01*
X4617682Y-8118912D02*
X4636730Y-8128436D01*
X4636730Y-8128436D02*
X4674825Y-8128436D01*
X4674825Y-8128436D02*
X4693873Y-8118912D01*
X4693873Y-8118912D02*
X4703396Y-8099864D01*
X4703396Y-8099864D02*
X4703396Y-8090340D01*
X4703396Y-8090340D02*
X4693873Y-8071293D01*
X4693873Y-8071293D02*
X4674825Y-8061769D01*
X4674825Y-8061769D02*
X4646253Y-8061769D01*
X4646253Y-8061769D02*
X4627206Y-8052245D01*
X4627206Y-8052245D02*
X4617682Y-8033197D01*
X4617682Y-8033197D02*
X4617682Y-8023674D01*
X4617682Y-8023674D02*
X4627206Y-8004626D01*
X4627206Y-8004626D02*
X4646253Y-7995102D01*
X4646253Y-7995102D02*
X4674825Y-7995102D01*
X4674825Y-7995102D02*
X4693873Y-8004626D01*
X4770063Y-8204626D02*
X4779587Y-8195102D01*
X4779587Y-8195102D02*
X4798634Y-8166531D01*
X4798634Y-8166531D02*
X4808158Y-8147483D01*
X4808158Y-8147483D02*
X4817682Y-8118912D01*
X4817682Y-8118912D02*
X4827206Y-8071293D01*
X4827206Y-8071293D02*
X4827206Y-8033197D01*
X4827206Y-8033197D02*
X4817682Y-7985578D01*
X4817682Y-7985578D02*
X4808158Y-7957007D01*
X4808158Y-7957007D02*
X4798634Y-7937959D01*
X4798634Y-7937959D02*
X4779587Y-7909388D01*
X4779587Y-7909388D02*
X4770063Y-7899864D01*
D10*
X-55000Y-8350952D02*
X-5000Y-8300952D01*
X-55000Y-8250952D01*
X-105000Y-8300952D01*
X-55000Y-8350952D01*
D11*
X360539Y-8392436D02*
X246253Y-8392436D01*
X303396Y-8392436D02*
X303396Y-8192436D01*
X303396Y-8192436D02*
X284348Y-8221007D01*
X284348Y-8221007D02*
X265301Y-8240055D01*
X265301Y-8240055D02*
X246253Y-8249578D01*
X446253Y-8373388D02*
X455777Y-8382912D01*
X455777Y-8382912D02*
X446253Y-8392436D01*
X446253Y-8392436D02*
X436729Y-8382912D01*
X436729Y-8382912D02*
X446253Y-8373388D01*
X446253Y-8373388D02*
X446253Y-8392436D01*
X579586Y-8192436D02*
X598634Y-8192436D01*
X598634Y-8192436D02*
X617682Y-8201959D01*
X617682Y-8201959D02*
X627205Y-8211483D01*
X627205Y-8211483D02*
X636729Y-8230531D01*
X636729Y-8230531D02*
X646253Y-8268626D01*
X646253Y-8268626D02*
X646253Y-8316245D01*
X646253Y-8316245D02*
X636729Y-8354340D01*
X636729Y-8354340D02*
X627205Y-8373388D01*
X627205Y-8373388D02*
X617682Y-8382912D01*
X617682Y-8382912D02*
X598634Y-8392436D01*
X598634Y-8392436D02*
X579586Y-8392436D01*
X579586Y-8392436D02*
X560539Y-8382912D01*
X560539Y-8382912D02*
X551015Y-8373388D01*
X551015Y-8373388D02*
X541491Y-8354340D01*
X541491Y-8354340D02*
X531967Y-8316245D01*
X531967Y-8316245D02*
X531967Y-8268626D01*
X531967Y-8268626D02*
X541491Y-8230531D01*
X541491Y-8230531D02*
X551015Y-8211483D01*
X551015Y-8211483D02*
X560539Y-8201959D01*
X560539Y-8201959D02*
X579586Y-8192436D01*
X770062Y-8192436D02*
X789110Y-8192436D01*
X789110Y-8192436D02*
X808158Y-8201959D01*
X808158Y-8201959D02*
X817682Y-8211483D01*
X817682Y-8211483D02*
X827205Y-8230531D01*
X827205Y-8230531D02*
X836729Y-8268626D01*
X836729Y-8268626D02*
X836729Y-8316245D01*
X836729Y-8316245D02*
X827205Y-8354340D01*
X827205Y-8354340D02*
X817682Y-8373388D01*
X817682Y-8373388D02*
X808158Y-8382912D01*
X808158Y-8382912D02*
X789110Y-8392436D01*
X789110Y-8392436D02*
X770062Y-8392436D01*
X770062Y-8392436D02*
X751015Y-8382912D01*
X751015Y-8382912D02*
X741491Y-8373388D01*
X741491Y-8373388D02*
X731967Y-8354340D01*
X731967Y-8354340D02*
X722443Y-8316245D01*
X722443Y-8316245D02*
X722443Y-8268626D01*
X722443Y-8268626D02*
X731967Y-8230531D01*
X731967Y-8230531D02*
X741491Y-8211483D01*
X741491Y-8211483D02*
X751015Y-8201959D01*
X751015Y-8201959D02*
X770062Y-8192436D01*
X960539Y-8192436D02*
X979586Y-8192436D01*
X979586Y-8192436D02*
X998634Y-8201959D01*
X998634Y-8201959D02*
X1008158Y-8211483D01*
X1008158Y-8211483D02*
X1017682Y-8230531D01*
X1017682Y-8230531D02*
X1027205Y-8268626D01*
X1027205Y-8268626D02*
X1027205Y-8316245D01*
X1027205Y-8316245D02*
X1017682Y-8354340D01*
X1017682Y-8354340D02*
X1008158Y-8373388D01*
X1008158Y-8373388D02*
X998634Y-8382912D01*
X998634Y-8382912D02*
X979586Y-8392436D01*
X979586Y-8392436D02*
X960539Y-8392436D01*
X960539Y-8392436D02*
X941491Y-8382912D01*
X941491Y-8382912D02*
X931967Y-8373388D01*
X931967Y-8373388D02*
X922443Y-8354340D01*
X922443Y-8354340D02*
X912920Y-8316245D01*
X912920Y-8316245D02*
X912920Y-8268626D01*
X912920Y-8268626D02*
X922443Y-8230531D01*
X922443Y-8230531D02*
X931967Y-8211483D01*
X931967Y-8211483D02*
X941491Y-8201959D01*
X941491Y-8201959D02*
X960539Y-8192436D01*
X1112920Y-8392436D02*
X1112920Y-8259102D01*
X1112920Y-8278150D02*
X1122444Y-8268626D01*
X1122444Y-8268626D02*
X1141491Y-8259102D01*
X1141491Y-8259102D02*
X1170063Y-8259102D01*
X1170063Y-8259102D02*
X1189110Y-8268626D01*
X1189110Y-8268626D02*
X1198634Y-8287674D01*
X1198634Y-8287674D02*
X1198634Y-8392436D01*
X1198634Y-8287674D02*
X1208158Y-8268626D01*
X1208158Y-8268626D02*
X1227205Y-8259102D01*
X1227205Y-8259102D02*
X1255777Y-8259102D01*
X1255777Y-8259102D02*
X1274825Y-8268626D01*
X1274825Y-8268626D02*
X1284348Y-8287674D01*
X1284348Y-8287674D02*
X1284348Y-8392436D01*
X1379586Y-8392436D02*
X1379586Y-8259102D01*
X1379586Y-8278150D02*
X1389110Y-8268626D01*
X1389110Y-8268626D02*
X1408158Y-8259102D01*
X1408158Y-8259102D02*
X1436729Y-8259102D01*
X1436729Y-8259102D02*
X1455777Y-8268626D01*
X1455777Y-8268626D02*
X1465301Y-8287674D01*
X1465301Y-8287674D02*
X1465301Y-8392436D01*
X1465301Y-8287674D02*
X1474824Y-8268626D01*
X1474824Y-8268626D02*
X1493872Y-8259102D01*
X1493872Y-8259102D02*
X1522443Y-8259102D01*
X1522443Y-8259102D02*
X1541491Y-8268626D01*
X1541491Y-8268626D02*
X1551015Y-8287674D01*
X1551015Y-8287674D02*
X1551015Y-8392436D01*
X1941491Y-8182912D02*
X1770063Y-8440055D01*
X2198634Y-8192436D02*
X2217682Y-8192436D01*
X2217682Y-8192436D02*
X2236729Y-8201959D01*
X2236729Y-8201959D02*
X2246253Y-8211483D01*
X2246253Y-8211483D02*
X2255777Y-8230531D01*
X2255777Y-8230531D02*
X2265301Y-8268626D01*
X2265301Y-8268626D02*
X2265301Y-8316245D01*
X2265301Y-8316245D02*
X2255777Y-8354340D01*
X2255777Y-8354340D02*
X2246253Y-8373388D01*
X2246253Y-8373388D02*
X2236729Y-8382912D01*
X2236729Y-8382912D02*
X2217682Y-8392436D01*
X2217682Y-8392436D02*
X2198634Y-8392436D01*
X2198634Y-8392436D02*
X2179587Y-8382912D01*
X2179587Y-8382912D02*
X2170063Y-8373388D01*
X2170063Y-8373388D02*
X2160539Y-8354340D01*
X2160539Y-8354340D02*
X2151015Y-8316245D01*
X2151015Y-8316245D02*
X2151015Y-8268626D01*
X2151015Y-8268626D02*
X2160539Y-8230531D01*
X2160539Y-8230531D02*
X2170063Y-8211483D01*
X2170063Y-8211483D02*
X2179587Y-8201959D01*
X2179587Y-8201959D02*
X2198634Y-8192436D01*
X2351015Y-8373388D02*
X2360539Y-8382912D01*
X2360539Y-8382912D02*
X2351015Y-8392436D01*
X2351015Y-8392436D02*
X2341491Y-8382912D01*
X2341491Y-8382912D02*
X2351015Y-8373388D01*
X2351015Y-8373388D02*
X2351015Y-8392436D01*
X2484348Y-8192436D02*
X2503396Y-8192436D01*
X2503396Y-8192436D02*
X2522444Y-8201959D01*
X2522444Y-8201959D02*
X2531968Y-8211483D01*
X2531968Y-8211483D02*
X2541491Y-8230531D01*
X2541491Y-8230531D02*
X2551015Y-8268626D01*
X2551015Y-8268626D02*
X2551015Y-8316245D01*
X2551015Y-8316245D02*
X2541491Y-8354340D01*
X2541491Y-8354340D02*
X2531968Y-8373388D01*
X2531968Y-8373388D02*
X2522444Y-8382912D01*
X2522444Y-8382912D02*
X2503396Y-8392436D01*
X2503396Y-8392436D02*
X2484348Y-8392436D01*
X2484348Y-8392436D02*
X2465301Y-8382912D01*
X2465301Y-8382912D02*
X2455777Y-8373388D01*
X2455777Y-8373388D02*
X2446253Y-8354340D01*
X2446253Y-8354340D02*
X2436729Y-8316245D01*
X2436729Y-8316245D02*
X2436729Y-8268626D01*
X2436729Y-8268626D02*
X2446253Y-8230531D01*
X2446253Y-8230531D02*
X2455777Y-8211483D01*
X2455777Y-8211483D02*
X2465301Y-8201959D01*
X2465301Y-8201959D02*
X2484348Y-8192436D01*
X2617682Y-8192436D02*
X2741491Y-8192436D01*
X2741491Y-8192436D02*
X2674825Y-8268626D01*
X2674825Y-8268626D02*
X2703396Y-8268626D01*
X2703396Y-8268626D02*
X2722444Y-8278150D01*
X2722444Y-8278150D02*
X2731968Y-8287674D01*
X2731968Y-8287674D02*
X2741491Y-8306721D01*
X2741491Y-8306721D02*
X2741491Y-8354340D01*
X2741491Y-8354340D02*
X2731968Y-8373388D01*
X2731968Y-8373388D02*
X2722444Y-8382912D01*
X2722444Y-8382912D02*
X2703396Y-8392436D01*
X2703396Y-8392436D02*
X2646253Y-8392436D01*
X2646253Y-8392436D02*
X2627206Y-8382912D01*
X2627206Y-8382912D02*
X2617682Y-8373388D01*
X2836729Y-8392436D02*
X2874825Y-8392436D01*
X2874825Y-8392436D02*
X2893872Y-8382912D01*
X2893872Y-8382912D02*
X2903396Y-8373388D01*
X2903396Y-8373388D02*
X2922444Y-8344816D01*
X2922444Y-8344816D02*
X2931967Y-8306721D01*
X2931967Y-8306721D02*
X2931967Y-8230531D01*
X2931967Y-8230531D02*
X2922444Y-8211483D01*
X2922444Y-8211483D02*
X2912920Y-8201959D01*
X2912920Y-8201959D02*
X2893872Y-8192436D01*
X2893872Y-8192436D02*
X2855777Y-8192436D01*
X2855777Y-8192436D02*
X2836729Y-8201959D01*
X2836729Y-8201959D02*
X2827206Y-8211483D01*
X2827206Y-8211483D02*
X2817682Y-8230531D01*
X2817682Y-8230531D02*
X2817682Y-8278150D01*
X2817682Y-8278150D02*
X2827206Y-8297197D01*
X2827206Y-8297197D02*
X2836729Y-8306721D01*
X2836729Y-8306721D02*
X2855777Y-8316245D01*
X2855777Y-8316245D02*
X2893872Y-8316245D01*
X2893872Y-8316245D02*
X2912920Y-8306721D01*
X2912920Y-8306721D02*
X2922444Y-8297197D01*
X2922444Y-8297197D02*
X2931967Y-8278150D01*
X3103396Y-8259102D02*
X3103396Y-8392436D01*
X3055777Y-8182912D02*
X3008158Y-8325769D01*
X3008158Y-8325769D02*
X3131967Y-8325769D01*
X3198634Y-8192436D02*
X3198634Y-8230531D01*
X3274825Y-8192436D02*
X3274825Y-8230531D01*
X3570063Y-8468626D02*
X3560539Y-8459102D01*
X3560539Y-8459102D02*
X3541491Y-8430531D01*
X3541491Y-8430531D02*
X3531968Y-8411483D01*
X3531968Y-8411483D02*
X3522444Y-8382912D01*
X3522444Y-8382912D02*
X3512920Y-8335293D01*
X3512920Y-8335293D02*
X3512920Y-8297197D01*
X3512920Y-8297197D02*
X3522444Y-8249578D01*
X3522444Y-8249578D02*
X3531968Y-8221007D01*
X3531968Y-8221007D02*
X3541491Y-8201959D01*
X3541491Y-8201959D02*
X3560539Y-8173388D01*
X3560539Y-8173388D02*
X3570063Y-8163864D01*
X3731968Y-8259102D02*
X3731968Y-8392436D01*
X3684348Y-8182912D02*
X3636729Y-8325769D01*
X3636729Y-8325769D02*
X3760539Y-8325769D01*
X3865301Y-8278150D02*
X3846253Y-8268626D01*
X3846253Y-8268626D02*
X3836729Y-8259102D01*
X3836729Y-8259102D02*
X3827206Y-8240055D01*
X3827206Y-8240055D02*
X3827206Y-8230531D01*
X3827206Y-8230531D02*
X3836729Y-8211483D01*
X3836729Y-8211483D02*
X3846253Y-8201959D01*
X3846253Y-8201959D02*
X3865301Y-8192436D01*
X3865301Y-8192436D02*
X3903396Y-8192436D01*
X3903396Y-8192436D02*
X3922444Y-8201959D01*
X3922444Y-8201959D02*
X3931968Y-8211483D01*
X3931968Y-8211483D02*
X3941491Y-8230531D01*
X3941491Y-8230531D02*
X3941491Y-8240055D01*
X3941491Y-8240055D02*
X3931968Y-8259102D01*
X3931968Y-8259102D02*
X3922444Y-8268626D01*
X3922444Y-8268626D02*
X3903396Y-8278150D01*
X3903396Y-8278150D02*
X3865301Y-8278150D01*
X3865301Y-8278150D02*
X3846253Y-8287674D01*
X3846253Y-8287674D02*
X3836729Y-8297197D01*
X3836729Y-8297197D02*
X3827206Y-8316245D01*
X3827206Y-8316245D02*
X3827206Y-8354340D01*
X3827206Y-8354340D02*
X3836729Y-8373388D01*
X3836729Y-8373388D02*
X3846253Y-8382912D01*
X3846253Y-8382912D02*
X3865301Y-8392436D01*
X3865301Y-8392436D02*
X3903396Y-8392436D01*
X3903396Y-8392436D02*
X3922444Y-8382912D01*
X3922444Y-8382912D02*
X3931968Y-8373388D01*
X3931968Y-8373388D02*
X3941491Y-8354340D01*
X3941491Y-8354340D02*
X3941491Y-8316245D01*
X3941491Y-8316245D02*
X3931968Y-8297197D01*
X3931968Y-8297197D02*
X3922444Y-8287674D01*
X3922444Y-8287674D02*
X3903396Y-8278150D01*
X4179587Y-8392436D02*
X4179587Y-8192436D01*
X4265301Y-8392436D02*
X4265301Y-8287674D01*
X4265301Y-8287674D02*
X4255777Y-8268626D01*
X4255777Y-8268626D02*
X4236730Y-8259102D01*
X4236730Y-8259102D02*
X4208158Y-8259102D01*
X4208158Y-8259102D02*
X4189110Y-8268626D01*
X4189110Y-8268626D02*
X4179587Y-8278150D01*
X4389111Y-8392436D02*
X4370063Y-8382912D01*
X4370063Y-8382912D02*
X4360539Y-8373388D01*
X4360539Y-8373388D02*
X4351015Y-8354340D01*
X4351015Y-8354340D02*
X4351015Y-8297197D01*
X4351015Y-8297197D02*
X4360539Y-8278150D01*
X4360539Y-8278150D02*
X4370063Y-8268626D01*
X4370063Y-8268626D02*
X4389111Y-8259102D01*
X4389111Y-8259102D02*
X4417682Y-8259102D01*
X4417682Y-8259102D02*
X4436730Y-8268626D01*
X4436730Y-8268626D02*
X4446253Y-8278150D01*
X4446253Y-8278150D02*
X4455777Y-8297197D01*
X4455777Y-8297197D02*
X4455777Y-8354340D01*
X4455777Y-8354340D02*
X4446253Y-8373388D01*
X4446253Y-8373388D02*
X4436730Y-8382912D01*
X4436730Y-8382912D02*
X4417682Y-8392436D01*
X4417682Y-8392436D02*
X4389111Y-8392436D01*
X4570063Y-8392436D02*
X4551015Y-8382912D01*
X4551015Y-8382912D02*
X4541492Y-8363864D01*
X4541492Y-8363864D02*
X4541492Y-8192436D01*
X4722444Y-8382912D02*
X4703396Y-8392436D01*
X4703396Y-8392436D02*
X4665301Y-8392436D01*
X4665301Y-8392436D02*
X4646253Y-8382912D01*
X4646253Y-8382912D02*
X4636730Y-8363864D01*
X4636730Y-8363864D02*
X4636730Y-8287674D01*
X4636730Y-8287674D02*
X4646253Y-8268626D01*
X4646253Y-8268626D02*
X4665301Y-8259102D01*
X4665301Y-8259102D02*
X4703396Y-8259102D01*
X4703396Y-8259102D02*
X4722444Y-8268626D01*
X4722444Y-8268626D02*
X4731968Y-8287674D01*
X4731968Y-8287674D02*
X4731968Y-8306721D01*
X4731968Y-8306721D02*
X4636730Y-8325769D01*
X4808158Y-8382912D02*
X4827206Y-8392436D01*
X4827206Y-8392436D02*
X4865301Y-8392436D01*
X4865301Y-8392436D02*
X4884349Y-8382912D01*
X4884349Y-8382912D02*
X4893873Y-8363864D01*
X4893873Y-8363864D02*
X4893873Y-8354340D01*
X4893873Y-8354340D02*
X4884349Y-8335293D01*
X4884349Y-8335293D02*
X4865301Y-8325769D01*
X4865301Y-8325769D02*
X4836730Y-8325769D01*
X4836730Y-8325769D02*
X4817682Y-8316245D01*
X4817682Y-8316245D02*
X4808158Y-8297197D01*
X4808158Y-8297197D02*
X4808158Y-8287674D01*
X4808158Y-8287674D02*
X4817682Y-8268626D01*
X4817682Y-8268626D02*
X4836730Y-8259102D01*
X4836730Y-8259102D02*
X4865301Y-8259102D01*
X4865301Y-8259102D02*
X4884349Y-8268626D01*
X4960539Y-8468626D02*
X4970063Y-8459102D01*
X4970063Y-8459102D02*
X4989111Y-8430531D01*
X4989111Y-8430531D02*
X4998634Y-8411483D01*
X4998634Y-8411483D02*
X5008158Y-8382912D01*
X5008158Y-8382912D02*
X5017682Y-8335293D01*
X5017682Y-8335293D02*
X5017682Y-8297197D01*
X5017682Y-8297197D02*
X5008158Y-8249578D01*
X5008158Y-8249578D02*
X4998634Y-8221007D01*
X4998634Y-8221007D02*
X4989111Y-8201959D01*
X4989111Y-8201959D02*
X4970063Y-8173388D01*
X4970063Y-8173388D02*
X4960539Y-8163864D01*
D12*
X-135000Y-8499952D02*
X-5000Y-8629952D01*
X-5000Y-8499952D02*
X-135000Y-8629952D01*
X-5000Y-8564952D02*
G75*
G02*
X-135000Y-8564952I-65000J0D01*
G01*
X-135000Y-8564952D02*
G75*
G02*
X-5000Y-8564952I65000J0D01*
G01*
D11*
X360539Y-8656436D02*
X246253Y-8656436D01*
X303396Y-8656436D02*
X303396Y-8456436D01*
X303396Y-8456436D02*
X284348Y-8485007D01*
X284348Y-8485007D02*
X265301Y-8504055D01*
X265301Y-8504055D02*
X246253Y-8513578D01*
X446253Y-8637388D02*
X455777Y-8646912D01*
X455777Y-8646912D02*
X446253Y-8656436D01*
X446253Y-8656436D02*
X436729Y-8646912D01*
X436729Y-8646912D02*
X446253Y-8637388D01*
X446253Y-8637388D02*
X446253Y-8656436D01*
X522443Y-8456436D02*
X646253Y-8456436D01*
X646253Y-8456436D02*
X579586Y-8532626D01*
X579586Y-8532626D02*
X608158Y-8532626D01*
X608158Y-8532626D02*
X627205Y-8542150D01*
X627205Y-8542150D02*
X636729Y-8551674D01*
X636729Y-8551674D02*
X646253Y-8570721D01*
X646253Y-8570721D02*
X646253Y-8618340D01*
X646253Y-8618340D02*
X636729Y-8637388D01*
X636729Y-8637388D02*
X627205Y-8646912D01*
X627205Y-8646912D02*
X608158Y-8656436D01*
X608158Y-8656436D02*
X551015Y-8656436D01*
X551015Y-8656436D02*
X531967Y-8646912D01*
X531967Y-8646912D02*
X522443Y-8637388D01*
X770062Y-8456436D02*
X789110Y-8456436D01*
X789110Y-8456436D02*
X808158Y-8465959D01*
X808158Y-8465959D02*
X817682Y-8475483D01*
X817682Y-8475483D02*
X827205Y-8494531D01*
X827205Y-8494531D02*
X836729Y-8532626D01*
X836729Y-8532626D02*
X836729Y-8580245D01*
X836729Y-8580245D02*
X827205Y-8618340D01*
X827205Y-8618340D02*
X817682Y-8637388D01*
X817682Y-8637388D02*
X808158Y-8646912D01*
X808158Y-8646912D02*
X789110Y-8656436D01*
X789110Y-8656436D02*
X770062Y-8656436D01*
X770062Y-8656436D02*
X751015Y-8646912D01*
X751015Y-8646912D02*
X741491Y-8637388D01*
X741491Y-8637388D02*
X731967Y-8618340D01*
X731967Y-8618340D02*
X722443Y-8580245D01*
X722443Y-8580245D02*
X722443Y-8532626D01*
X722443Y-8532626D02*
X731967Y-8494531D01*
X731967Y-8494531D02*
X741491Y-8475483D01*
X741491Y-8475483D02*
X751015Y-8465959D01*
X751015Y-8465959D02*
X770062Y-8456436D01*
X960539Y-8456436D02*
X979586Y-8456436D01*
X979586Y-8456436D02*
X998634Y-8465959D01*
X998634Y-8465959D02*
X1008158Y-8475483D01*
X1008158Y-8475483D02*
X1017682Y-8494531D01*
X1017682Y-8494531D02*
X1027205Y-8532626D01*
X1027205Y-8532626D02*
X1027205Y-8580245D01*
X1027205Y-8580245D02*
X1017682Y-8618340D01*
X1017682Y-8618340D02*
X1008158Y-8637388D01*
X1008158Y-8637388D02*
X998634Y-8646912D01*
X998634Y-8646912D02*
X979586Y-8656436D01*
X979586Y-8656436D02*
X960539Y-8656436D01*
X960539Y-8656436D02*
X941491Y-8646912D01*
X941491Y-8646912D02*
X931967Y-8637388D01*
X931967Y-8637388D02*
X922443Y-8618340D01*
X922443Y-8618340D02*
X912920Y-8580245D01*
X912920Y-8580245D02*
X912920Y-8532626D01*
X912920Y-8532626D02*
X922443Y-8494531D01*
X922443Y-8494531D02*
X931967Y-8475483D01*
X931967Y-8475483D02*
X941491Y-8465959D01*
X941491Y-8465959D02*
X960539Y-8456436D01*
X1112920Y-8656436D02*
X1112920Y-8523102D01*
X1112920Y-8542150D02*
X1122444Y-8532626D01*
X1122444Y-8532626D02*
X1141491Y-8523102D01*
X1141491Y-8523102D02*
X1170063Y-8523102D01*
X1170063Y-8523102D02*
X1189110Y-8532626D01*
X1189110Y-8532626D02*
X1198634Y-8551674D01*
X1198634Y-8551674D02*
X1198634Y-8656436D01*
X1198634Y-8551674D02*
X1208158Y-8532626D01*
X1208158Y-8532626D02*
X1227205Y-8523102D01*
X1227205Y-8523102D02*
X1255777Y-8523102D01*
X1255777Y-8523102D02*
X1274825Y-8532626D01*
X1274825Y-8532626D02*
X1284348Y-8551674D01*
X1284348Y-8551674D02*
X1284348Y-8656436D01*
X1379586Y-8656436D02*
X1379586Y-8523102D01*
X1379586Y-8542150D02*
X1389110Y-8532626D01*
X1389110Y-8532626D02*
X1408158Y-8523102D01*
X1408158Y-8523102D02*
X1436729Y-8523102D01*
X1436729Y-8523102D02*
X1455777Y-8532626D01*
X1455777Y-8532626D02*
X1465301Y-8551674D01*
X1465301Y-8551674D02*
X1465301Y-8656436D01*
X1465301Y-8551674D02*
X1474824Y-8532626D01*
X1474824Y-8532626D02*
X1493872Y-8523102D01*
X1493872Y-8523102D02*
X1522443Y-8523102D01*
X1522443Y-8523102D02*
X1541491Y-8532626D01*
X1541491Y-8532626D02*
X1551015Y-8551674D01*
X1551015Y-8551674D02*
X1551015Y-8656436D01*
X1941491Y-8446912D02*
X1770063Y-8704055D01*
X2198634Y-8456436D02*
X2217682Y-8456436D01*
X2217682Y-8456436D02*
X2236729Y-8465959D01*
X2236729Y-8465959D02*
X2246253Y-8475483D01*
X2246253Y-8475483D02*
X2255777Y-8494531D01*
X2255777Y-8494531D02*
X2265301Y-8532626D01*
X2265301Y-8532626D02*
X2265301Y-8580245D01*
X2265301Y-8580245D02*
X2255777Y-8618340D01*
X2255777Y-8618340D02*
X2246253Y-8637388D01*
X2246253Y-8637388D02*
X2236729Y-8646912D01*
X2236729Y-8646912D02*
X2217682Y-8656436D01*
X2217682Y-8656436D02*
X2198634Y-8656436D01*
X2198634Y-8656436D02*
X2179587Y-8646912D01*
X2179587Y-8646912D02*
X2170063Y-8637388D01*
X2170063Y-8637388D02*
X2160539Y-8618340D01*
X2160539Y-8618340D02*
X2151015Y-8580245D01*
X2151015Y-8580245D02*
X2151015Y-8532626D01*
X2151015Y-8532626D02*
X2160539Y-8494531D01*
X2160539Y-8494531D02*
X2170063Y-8475483D01*
X2170063Y-8475483D02*
X2179587Y-8465959D01*
X2179587Y-8465959D02*
X2198634Y-8456436D01*
X2351015Y-8637388D02*
X2360539Y-8646912D01*
X2360539Y-8646912D02*
X2351015Y-8656436D01*
X2351015Y-8656436D02*
X2341491Y-8646912D01*
X2341491Y-8646912D02*
X2351015Y-8637388D01*
X2351015Y-8637388D02*
X2351015Y-8656436D01*
X2484348Y-8456436D02*
X2503396Y-8456436D01*
X2503396Y-8456436D02*
X2522444Y-8465959D01*
X2522444Y-8465959D02*
X2531968Y-8475483D01*
X2531968Y-8475483D02*
X2541491Y-8494531D01*
X2541491Y-8494531D02*
X2551015Y-8532626D01*
X2551015Y-8532626D02*
X2551015Y-8580245D01*
X2551015Y-8580245D02*
X2541491Y-8618340D01*
X2541491Y-8618340D02*
X2531968Y-8637388D01*
X2531968Y-8637388D02*
X2522444Y-8646912D01*
X2522444Y-8646912D02*
X2503396Y-8656436D01*
X2503396Y-8656436D02*
X2484348Y-8656436D01*
X2484348Y-8656436D02*
X2465301Y-8646912D01*
X2465301Y-8646912D02*
X2455777Y-8637388D01*
X2455777Y-8637388D02*
X2446253Y-8618340D01*
X2446253Y-8618340D02*
X2436729Y-8580245D01*
X2436729Y-8580245D02*
X2436729Y-8532626D01*
X2436729Y-8532626D02*
X2446253Y-8494531D01*
X2446253Y-8494531D02*
X2455777Y-8475483D01*
X2455777Y-8475483D02*
X2465301Y-8465959D01*
X2465301Y-8465959D02*
X2484348Y-8456436D01*
X2731968Y-8456436D02*
X2636729Y-8456436D01*
X2636729Y-8456436D02*
X2627206Y-8551674D01*
X2627206Y-8551674D02*
X2636729Y-8542150D01*
X2636729Y-8542150D02*
X2655777Y-8532626D01*
X2655777Y-8532626D02*
X2703396Y-8532626D01*
X2703396Y-8532626D02*
X2722444Y-8542150D01*
X2722444Y-8542150D02*
X2731968Y-8551674D01*
X2731968Y-8551674D02*
X2741491Y-8570721D01*
X2741491Y-8570721D02*
X2741491Y-8618340D01*
X2741491Y-8618340D02*
X2731968Y-8637388D01*
X2731968Y-8637388D02*
X2722444Y-8646912D01*
X2722444Y-8646912D02*
X2703396Y-8656436D01*
X2703396Y-8656436D02*
X2655777Y-8656436D01*
X2655777Y-8656436D02*
X2636729Y-8646912D01*
X2636729Y-8646912D02*
X2627206Y-8637388D01*
X2931967Y-8656436D02*
X2817682Y-8656436D01*
X2874825Y-8656436D02*
X2874825Y-8456436D01*
X2874825Y-8456436D02*
X2855777Y-8485007D01*
X2855777Y-8485007D02*
X2836729Y-8504055D01*
X2836729Y-8504055D02*
X2817682Y-8513578D01*
X3008158Y-8475483D02*
X3017682Y-8465959D01*
X3017682Y-8465959D02*
X3036729Y-8456436D01*
X3036729Y-8456436D02*
X3084348Y-8456436D01*
X3084348Y-8456436D02*
X3103396Y-8465959D01*
X3103396Y-8465959D02*
X3112920Y-8475483D01*
X3112920Y-8475483D02*
X3122444Y-8494531D01*
X3122444Y-8494531D02*
X3122444Y-8513578D01*
X3122444Y-8513578D02*
X3112920Y-8542150D01*
X3112920Y-8542150D02*
X2998634Y-8656436D01*
X2998634Y-8656436D02*
X3122444Y-8656436D01*
X3198634Y-8456436D02*
X3198634Y-8494531D01*
X3274825Y-8456436D02*
X3274825Y-8494531D01*
X3570063Y-8732626D02*
X3560539Y-8723102D01*
X3560539Y-8723102D02*
X3541491Y-8694531D01*
X3541491Y-8694531D02*
X3531968Y-8675483D01*
X3531968Y-8675483D02*
X3522444Y-8646912D01*
X3522444Y-8646912D02*
X3512920Y-8599293D01*
X3512920Y-8599293D02*
X3512920Y-8561198D01*
X3512920Y-8561198D02*
X3522444Y-8513578D01*
X3522444Y-8513578D02*
X3531968Y-8485007D01*
X3531968Y-8485007D02*
X3541491Y-8465959D01*
X3541491Y-8465959D02*
X3560539Y-8437388D01*
X3560539Y-8437388D02*
X3570063Y-8427864D01*
X3731968Y-8523102D02*
X3731968Y-8656436D01*
X3684348Y-8446912D02*
X3636729Y-8589769D01*
X3636729Y-8589769D02*
X3760539Y-8589769D01*
X3989110Y-8656436D02*
X3989110Y-8456436D01*
X4074825Y-8656436D02*
X4074825Y-8551674D01*
X4074825Y-8551674D02*
X4065301Y-8532626D01*
X4065301Y-8532626D02*
X4046253Y-8523102D01*
X4046253Y-8523102D02*
X4017682Y-8523102D01*
X4017682Y-8523102D02*
X3998634Y-8532626D01*
X3998634Y-8532626D02*
X3989110Y-8542150D01*
X4198634Y-8656436D02*
X4179587Y-8646912D01*
X4179587Y-8646912D02*
X4170063Y-8637388D01*
X4170063Y-8637388D02*
X4160539Y-8618340D01*
X4160539Y-8618340D02*
X4160539Y-8561198D01*
X4160539Y-8561198D02*
X4170063Y-8542150D01*
X4170063Y-8542150D02*
X4179587Y-8532626D01*
X4179587Y-8532626D02*
X4198634Y-8523102D01*
X4198634Y-8523102D02*
X4227206Y-8523102D01*
X4227206Y-8523102D02*
X4246253Y-8532626D01*
X4246253Y-8532626D02*
X4255777Y-8542150D01*
X4255777Y-8542150D02*
X4265301Y-8561198D01*
X4265301Y-8561198D02*
X4265301Y-8618340D01*
X4265301Y-8618340D02*
X4255777Y-8637388D01*
X4255777Y-8637388D02*
X4246253Y-8646912D01*
X4246253Y-8646912D02*
X4227206Y-8656436D01*
X4227206Y-8656436D02*
X4198634Y-8656436D01*
X4379587Y-8656436D02*
X4360539Y-8646912D01*
X4360539Y-8646912D02*
X4351015Y-8627864D01*
X4351015Y-8627864D02*
X4351015Y-8456436D01*
X4531968Y-8646912D02*
X4512920Y-8656436D01*
X4512920Y-8656436D02*
X4474825Y-8656436D01*
X4474825Y-8656436D02*
X4455777Y-8646912D01*
X4455777Y-8646912D02*
X4446253Y-8627864D01*
X4446253Y-8627864D02*
X4446253Y-8551674D01*
X4446253Y-8551674D02*
X4455777Y-8532626D01*
X4455777Y-8532626D02*
X4474825Y-8523102D01*
X4474825Y-8523102D02*
X4512920Y-8523102D01*
X4512920Y-8523102D02*
X4531968Y-8532626D01*
X4531968Y-8532626D02*
X4541492Y-8551674D01*
X4541492Y-8551674D02*
X4541492Y-8570721D01*
X4541492Y-8570721D02*
X4446253Y-8589769D01*
X4617682Y-8646912D02*
X4636730Y-8656436D01*
X4636730Y-8656436D02*
X4674825Y-8656436D01*
X4674825Y-8656436D02*
X4693873Y-8646912D01*
X4693873Y-8646912D02*
X4703396Y-8627864D01*
X4703396Y-8627864D02*
X4703396Y-8618340D01*
X4703396Y-8618340D02*
X4693873Y-8599293D01*
X4693873Y-8599293D02*
X4674825Y-8589769D01*
X4674825Y-8589769D02*
X4646253Y-8589769D01*
X4646253Y-8589769D02*
X4627206Y-8580245D01*
X4627206Y-8580245D02*
X4617682Y-8561198D01*
X4617682Y-8561198D02*
X4617682Y-8551674D01*
X4617682Y-8551674D02*
X4627206Y-8532626D01*
X4627206Y-8532626D02*
X4646253Y-8523102D01*
X4646253Y-8523102D02*
X4674825Y-8523102D01*
X4674825Y-8523102D02*
X4693873Y-8532626D01*
X4770063Y-8732626D02*
X4779587Y-8723102D01*
X4779587Y-8723102D02*
X4798634Y-8694531D01*
X4798634Y-8694531D02*
X4808158Y-8675483D01*
X4808158Y-8675483D02*
X4817682Y-8646912D01*
X4817682Y-8646912D02*
X4827206Y-8599293D01*
X4827206Y-8599293D02*
X4827206Y-8561198D01*
X4827206Y-8561198D02*
X4817682Y-8513578D01*
X4817682Y-8513578D02*
X4808158Y-8485007D01*
X4808158Y-8485007D02*
X4798634Y-8465959D01*
X4798634Y-8465959D02*
X4779587Y-8437388D01*
X4779587Y-8437388D02*
X4770063Y-8427864D01*
X-205000Y-8728952D02*
X-5000Y-8928952D01*
X-5000Y-8728952D02*
X-205000Y-8928952D01*
X-105000Y-8728952D02*
X-105000Y-8928952D01*
X-205000Y-8828952D02*
X-5000Y-8828952D01*
X246253Y-8739483D02*
X255777Y-8729959D01*
X255777Y-8729959D02*
X274824Y-8720436D01*
X274824Y-8720436D02*
X322444Y-8720436D01*
X322444Y-8720436D02*
X341491Y-8729959D01*
X341491Y-8729959D02*
X351015Y-8739483D01*
X351015Y-8739483D02*
X360539Y-8758531D01*
X360539Y-8758531D02*
X360539Y-8777578D01*
X360539Y-8777578D02*
X351015Y-8806150D01*
X351015Y-8806150D02*
X236729Y-8920436D01*
X236729Y-8920436D02*
X360539Y-8920436D01*
X446253Y-8901388D02*
X455777Y-8910912D01*
X455777Y-8910912D02*
X446253Y-8920436D01*
X446253Y-8920436D02*
X436729Y-8910912D01*
X436729Y-8910912D02*
X446253Y-8901388D01*
X446253Y-8901388D02*
X446253Y-8920436D01*
X522443Y-8720436D02*
X646253Y-8720436D01*
X646253Y-8720436D02*
X579586Y-8796626D01*
X579586Y-8796626D02*
X608158Y-8796626D01*
X608158Y-8796626D02*
X627205Y-8806150D01*
X627205Y-8806150D02*
X636729Y-8815674D01*
X636729Y-8815674D02*
X646253Y-8834721D01*
X646253Y-8834721D02*
X646253Y-8882340D01*
X646253Y-8882340D02*
X636729Y-8901388D01*
X636729Y-8901388D02*
X627205Y-8910912D01*
X627205Y-8910912D02*
X608158Y-8920436D01*
X608158Y-8920436D02*
X551015Y-8920436D01*
X551015Y-8920436D02*
X531967Y-8910912D01*
X531967Y-8910912D02*
X522443Y-8901388D01*
X770062Y-8720436D02*
X789110Y-8720436D01*
X789110Y-8720436D02*
X808158Y-8729959D01*
X808158Y-8729959D02*
X817682Y-8739483D01*
X817682Y-8739483D02*
X827205Y-8758531D01*
X827205Y-8758531D02*
X836729Y-8796626D01*
X836729Y-8796626D02*
X836729Y-8844245D01*
X836729Y-8844245D02*
X827205Y-8882340D01*
X827205Y-8882340D02*
X817682Y-8901388D01*
X817682Y-8901388D02*
X808158Y-8910912D01*
X808158Y-8910912D02*
X789110Y-8920436D01*
X789110Y-8920436D02*
X770062Y-8920436D01*
X770062Y-8920436D02*
X751015Y-8910912D01*
X751015Y-8910912D02*
X741491Y-8901388D01*
X741491Y-8901388D02*
X731967Y-8882340D01*
X731967Y-8882340D02*
X722443Y-8844245D01*
X722443Y-8844245D02*
X722443Y-8796626D01*
X722443Y-8796626D02*
X731967Y-8758531D01*
X731967Y-8758531D02*
X741491Y-8739483D01*
X741491Y-8739483D02*
X751015Y-8729959D01*
X751015Y-8729959D02*
X770062Y-8720436D01*
X960539Y-8720436D02*
X979586Y-8720436D01*
X979586Y-8720436D02*
X998634Y-8729959D01*
X998634Y-8729959D02*
X1008158Y-8739483D01*
X1008158Y-8739483D02*
X1017682Y-8758531D01*
X1017682Y-8758531D02*
X1027205Y-8796626D01*
X1027205Y-8796626D02*
X1027205Y-8844245D01*
X1027205Y-8844245D02*
X1017682Y-8882340D01*
X1017682Y-8882340D02*
X1008158Y-8901388D01*
X1008158Y-8901388D02*
X998634Y-8910912D01*
X998634Y-8910912D02*
X979586Y-8920436D01*
X979586Y-8920436D02*
X960539Y-8920436D01*
X960539Y-8920436D02*
X941491Y-8910912D01*
X941491Y-8910912D02*
X931967Y-8901388D01*
X931967Y-8901388D02*
X922443Y-8882340D01*
X922443Y-8882340D02*
X912920Y-8844245D01*
X912920Y-8844245D02*
X912920Y-8796626D01*
X912920Y-8796626D02*
X922443Y-8758531D01*
X922443Y-8758531D02*
X931967Y-8739483D01*
X931967Y-8739483D02*
X941491Y-8729959D01*
X941491Y-8729959D02*
X960539Y-8720436D01*
X1112920Y-8920436D02*
X1112920Y-8787102D01*
X1112920Y-8806150D02*
X1122444Y-8796626D01*
X1122444Y-8796626D02*
X1141491Y-8787102D01*
X1141491Y-8787102D02*
X1170063Y-8787102D01*
X1170063Y-8787102D02*
X1189110Y-8796626D01*
X1189110Y-8796626D02*
X1198634Y-8815674D01*
X1198634Y-8815674D02*
X1198634Y-8920436D01*
X1198634Y-8815674D02*
X1208158Y-8796626D01*
X1208158Y-8796626D02*
X1227205Y-8787102D01*
X1227205Y-8787102D02*
X1255777Y-8787102D01*
X1255777Y-8787102D02*
X1274825Y-8796626D01*
X1274825Y-8796626D02*
X1284348Y-8815674D01*
X1284348Y-8815674D02*
X1284348Y-8920436D01*
X1379586Y-8920436D02*
X1379586Y-8787102D01*
X1379586Y-8806150D02*
X1389110Y-8796626D01*
X1389110Y-8796626D02*
X1408158Y-8787102D01*
X1408158Y-8787102D02*
X1436729Y-8787102D01*
X1436729Y-8787102D02*
X1455777Y-8796626D01*
X1455777Y-8796626D02*
X1465301Y-8815674D01*
X1465301Y-8815674D02*
X1465301Y-8920436D01*
X1465301Y-8815674D02*
X1474824Y-8796626D01*
X1474824Y-8796626D02*
X1493872Y-8787102D01*
X1493872Y-8787102D02*
X1522443Y-8787102D01*
X1522443Y-8787102D02*
X1541491Y-8796626D01*
X1541491Y-8796626D02*
X1551015Y-8815674D01*
X1551015Y-8815674D02*
X1551015Y-8920436D01*
X1941491Y-8710912D02*
X1770063Y-8968055D01*
X2198634Y-8720436D02*
X2217682Y-8720436D01*
X2217682Y-8720436D02*
X2236729Y-8729959D01*
X2236729Y-8729959D02*
X2246253Y-8739483D01*
X2246253Y-8739483D02*
X2255777Y-8758531D01*
X2255777Y-8758531D02*
X2265301Y-8796626D01*
X2265301Y-8796626D02*
X2265301Y-8844245D01*
X2265301Y-8844245D02*
X2255777Y-8882340D01*
X2255777Y-8882340D02*
X2246253Y-8901388D01*
X2246253Y-8901388D02*
X2236729Y-8910912D01*
X2236729Y-8910912D02*
X2217682Y-8920436D01*
X2217682Y-8920436D02*
X2198634Y-8920436D01*
X2198634Y-8920436D02*
X2179587Y-8910912D01*
X2179587Y-8910912D02*
X2170063Y-8901388D01*
X2170063Y-8901388D02*
X2160539Y-8882340D01*
X2160539Y-8882340D02*
X2151015Y-8844245D01*
X2151015Y-8844245D02*
X2151015Y-8796626D01*
X2151015Y-8796626D02*
X2160539Y-8758531D01*
X2160539Y-8758531D02*
X2170063Y-8739483D01*
X2170063Y-8739483D02*
X2179587Y-8729959D01*
X2179587Y-8729959D02*
X2198634Y-8720436D01*
X2351015Y-8901388D02*
X2360539Y-8910912D01*
X2360539Y-8910912D02*
X2351015Y-8920436D01*
X2351015Y-8920436D02*
X2341491Y-8910912D01*
X2341491Y-8910912D02*
X2351015Y-8901388D01*
X2351015Y-8901388D02*
X2351015Y-8920436D01*
X2484348Y-8720436D02*
X2503396Y-8720436D01*
X2503396Y-8720436D02*
X2522444Y-8729959D01*
X2522444Y-8729959D02*
X2531968Y-8739483D01*
X2531968Y-8739483D02*
X2541491Y-8758531D01*
X2541491Y-8758531D02*
X2551015Y-8796626D01*
X2551015Y-8796626D02*
X2551015Y-8844245D01*
X2551015Y-8844245D02*
X2541491Y-8882340D01*
X2541491Y-8882340D02*
X2531968Y-8901388D01*
X2531968Y-8901388D02*
X2522444Y-8910912D01*
X2522444Y-8910912D02*
X2503396Y-8920436D01*
X2503396Y-8920436D02*
X2484348Y-8920436D01*
X2484348Y-8920436D02*
X2465301Y-8910912D01*
X2465301Y-8910912D02*
X2455777Y-8901388D01*
X2455777Y-8901388D02*
X2446253Y-8882340D01*
X2446253Y-8882340D02*
X2436729Y-8844245D01*
X2436729Y-8844245D02*
X2436729Y-8796626D01*
X2436729Y-8796626D02*
X2446253Y-8758531D01*
X2446253Y-8758531D02*
X2455777Y-8739483D01*
X2455777Y-8739483D02*
X2465301Y-8729959D01*
X2465301Y-8729959D02*
X2484348Y-8720436D01*
X2646253Y-8920436D02*
X2684348Y-8920436D01*
X2684348Y-8920436D02*
X2703396Y-8910912D01*
X2703396Y-8910912D02*
X2712920Y-8901388D01*
X2712920Y-8901388D02*
X2731968Y-8872817D01*
X2731968Y-8872817D02*
X2741491Y-8834721D01*
X2741491Y-8834721D02*
X2741491Y-8758531D01*
X2741491Y-8758531D02*
X2731968Y-8739483D01*
X2731968Y-8739483D02*
X2722444Y-8729959D01*
X2722444Y-8729959D02*
X2703396Y-8720436D01*
X2703396Y-8720436D02*
X2665301Y-8720436D01*
X2665301Y-8720436D02*
X2646253Y-8729959D01*
X2646253Y-8729959D02*
X2636729Y-8739483D01*
X2636729Y-8739483D02*
X2627206Y-8758531D01*
X2627206Y-8758531D02*
X2627206Y-8806150D01*
X2627206Y-8806150D02*
X2636729Y-8825198D01*
X2636729Y-8825198D02*
X2646253Y-8834721D01*
X2646253Y-8834721D02*
X2665301Y-8844245D01*
X2665301Y-8844245D02*
X2703396Y-8844245D01*
X2703396Y-8844245D02*
X2722444Y-8834721D01*
X2722444Y-8834721D02*
X2731968Y-8825198D01*
X2731968Y-8825198D02*
X2741491Y-8806150D01*
X2865301Y-8720436D02*
X2884348Y-8720436D01*
X2884348Y-8720436D02*
X2903396Y-8729959D01*
X2903396Y-8729959D02*
X2912920Y-8739483D01*
X2912920Y-8739483D02*
X2922444Y-8758531D01*
X2922444Y-8758531D02*
X2931967Y-8796626D01*
X2931967Y-8796626D02*
X2931967Y-8844245D01*
X2931967Y-8844245D02*
X2922444Y-8882340D01*
X2922444Y-8882340D02*
X2912920Y-8901388D01*
X2912920Y-8901388D02*
X2903396Y-8910912D01*
X2903396Y-8910912D02*
X2884348Y-8920436D01*
X2884348Y-8920436D02*
X2865301Y-8920436D01*
X2865301Y-8920436D02*
X2846253Y-8910912D01*
X2846253Y-8910912D02*
X2836729Y-8901388D01*
X2836729Y-8901388D02*
X2827206Y-8882340D01*
X2827206Y-8882340D02*
X2817682Y-8844245D01*
X2817682Y-8844245D02*
X2817682Y-8796626D01*
X2817682Y-8796626D02*
X2827206Y-8758531D01*
X2827206Y-8758531D02*
X2836729Y-8739483D01*
X2836729Y-8739483D02*
X2846253Y-8729959D01*
X2846253Y-8729959D02*
X2865301Y-8720436D01*
X3103396Y-8720436D02*
X3065301Y-8720436D01*
X3065301Y-8720436D02*
X3046253Y-8729959D01*
X3046253Y-8729959D02*
X3036729Y-8739483D01*
X3036729Y-8739483D02*
X3017682Y-8768055D01*
X3017682Y-8768055D02*
X3008158Y-8806150D01*
X3008158Y-8806150D02*
X3008158Y-8882340D01*
X3008158Y-8882340D02*
X3017682Y-8901388D01*
X3017682Y-8901388D02*
X3027206Y-8910912D01*
X3027206Y-8910912D02*
X3046253Y-8920436D01*
X3046253Y-8920436D02*
X3084348Y-8920436D01*
X3084348Y-8920436D02*
X3103396Y-8910912D01*
X3103396Y-8910912D02*
X3112920Y-8901388D01*
X3112920Y-8901388D02*
X3122444Y-8882340D01*
X3122444Y-8882340D02*
X3122444Y-8834721D01*
X3122444Y-8834721D02*
X3112920Y-8815674D01*
X3112920Y-8815674D02*
X3103396Y-8806150D01*
X3103396Y-8806150D02*
X3084348Y-8796626D01*
X3084348Y-8796626D02*
X3046253Y-8796626D01*
X3046253Y-8796626D02*
X3027206Y-8806150D01*
X3027206Y-8806150D02*
X3017682Y-8815674D01*
X3017682Y-8815674D02*
X3008158Y-8834721D01*
X3198634Y-8720436D02*
X3198634Y-8758531D01*
X3274825Y-8720436D02*
X3274825Y-8758531D01*
X3570063Y-8996626D02*
X3560539Y-8987102D01*
X3560539Y-8987102D02*
X3541491Y-8958531D01*
X3541491Y-8958531D02*
X3531968Y-8939483D01*
X3531968Y-8939483D02*
X3522444Y-8910912D01*
X3522444Y-8910912D02*
X3512920Y-8863293D01*
X3512920Y-8863293D02*
X3512920Y-8825198D01*
X3512920Y-8825198D02*
X3522444Y-8777578D01*
X3522444Y-8777578D02*
X3531968Y-8749007D01*
X3531968Y-8749007D02*
X3541491Y-8729959D01*
X3541491Y-8729959D02*
X3560539Y-8701388D01*
X3560539Y-8701388D02*
X3570063Y-8691864D01*
X3731968Y-8787102D02*
X3731968Y-8920436D01*
X3684348Y-8710912D02*
X3636729Y-8853769D01*
X3636729Y-8853769D02*
X3760539Y-8853769D01*
X3989110Y-8920436D02*
X3989110Y-8720436D01*
X4074825Y-8920436D02*
X4074825Y-8815674D01*
X4074825Y-8815674D02*
X4065301Y-8796626D01*
X4065301Y-8796626D02*
X4046253Y-8787102D01*
X4046253Y-8787102D02*
X4017682Y-8787102D01*
X4017682Y-8787102D02*
X3998634Y-8796626D01*
X3998634Y-8796626D02*
X3989110Y-8806150D01*
X4198634Y-8920436D02*
X4179587Y-8910912D01*
X4179587Y-8910912D02*
X4170063Y-8901388D01*
X4170063Y-8901388D02*
X4160539Y-8882340D01*
X4160539Y-8882340D02*
X4160539Y-8825198D01*
X4160539Y-8825198D02*
X4170063Y-8806150D01*
X4170063Y-8806150D02*
X4179587Y-8796626D01*
X4179587Y-8796626D02*
X4198634Y-8787102D01*
X4198634Y-8787102D02*
X4227206Y-8787102D01*
X4227206Y-8787102D02*
X4246253Y-8796626D01*
X4246253Y-8796626D02*
X4255777Y-8806150D01*
X4255777Y-8806150D02*
X4265301Y-8825198D01*
X4265301Y-8825198D02*
X4265301Y-8882340D01*
X4265301Y-8882340D02*
X4255777Y-8901388D01*
X4255777Y-8901388D02*
X4246253Y-8910912D01*
X4246253Y-8910912D02*
X4227206Y-8920436D01*
X4227206Y-8920436D02*
X4198634Y-8920436D01*
X4379587Y-8920436D02*
X4360539Y-8910912D01*
X4360539Y-8910912D02*
X4351015Y-8891864D01*
X4351015Y-8891864D02*
X4351015Y-8720436D01*
X4531968Y-8910912D02*
X4512920Y-8920436D01*
X4512920Y-8920436D02*
X4474825Y-8920436D01*
X4474825Y-8920436D02*
X4455777Y-8910912D01*
X4455777Y-8910912D02*
X4446253Y-8891864D01*
X4446253Y-8891864D02*
X4446253Y-8815674D01*
X4446253Y-8815674D02*
X4455777Y-8796626D01*
X4455777Y-8796626D02*
X4474825Y-8787102D01*
X4474825Y-8787102D02*
X4512920Y-8787102D01*
X4512920Y-8787102D02*
X4531968Y-8796626D01*
X4531968Y-8796626D02*
X4541492Y-8815674D01*
X4541492Y-8815674D02*
X4541492Y-8834721D01*
X4541492Y-8834721D02*
X4446253Y-8853769D01*
X4617682Y-8910912D02*
X4636730Y-8920436D01*
X4636730Y-8920436D02*
X4674825Y-8920436D01*
X4674825Y-8920436D02*
X4693873Y-8910912D01*
X4693873Y-8910912D02*
X4703396Y-8891864D01*
X4703396Y-8891864D02*
X4703396Y-8882340D01*
X4703396Y-8882340D02*
X4693873Y-8863293D01*
X4693873Y-8863293D02*
X4674825Y-8853769D01*
X4674825Y-8853769D02*
X4646253Y-8853769D01*
X4646253Y-8853769D02*
X4627206Y-8844245D01*
X4627206Y-8844245D02*
X4617682Y-8825198D01*
X4617682Y-8825198D02*
X4617682Y-8815674D01*
X4617682Y-8815674D02*
X4627206Y-8796626D01*
X4627206Y-8796626D02*
X4646253Y-8787102D01*
X4646253Y-8787102D02*
X4674825Y-8787102D01*
X4674825Y-8787102D02*
X4693873Y-8796626D01*
X4770063Y-8996626D02*
X4779587Y-8987102D01*
X4779587Y-8987102D02*
X4798634Y-8958531D01*
X4798634Y-8958531D02*
X4808158Y-8939483D01*
X4808158Y-8939483D02*
X4817682Y-8910912D01*
X4817682Y-8910912D02*
X4827206Y-8863293D01*
X4827206Y-8863293D02*
X4827206Y-8825198D01*
X4827206Y-8825198D02*
X4817682Y-8777578D01*
X4817682Y-8777578D02*
X4808158Y-8749007D01*
X4808158Y-8749007D02*
X4798634Y-8729959D01*
X4798634Y-8729959D02*
X4779587Y-8701388D01*
X4779587Y-8701388D02*
X4770063Y-8691864D01*
M02*
