G04 #@! TF.GenerationSoftware,KiCad,Pcbnew,10.0.3*
G04 #@! TF.CreationDate,2026-06-05T21:52:36+02:00*
G04 #@! TF.ProjectId,rp-hub75-panel,72702d68-7562-4373-952d-70616e656c2e,rev?*
G04 #@! TF.SameCoordinates,Original*
G04 #@! TF.FileFunction,Copper,L2,Bot*
G04 #@! TF.FilePolarity,Positive*
%FSLAX46Y46*%
G04 Gerber Fmt 4.6, Leading zero omitted, Abs format (unit mm)*
G04 Created by KiCad (PCBNEW 10.0.3) date 2026-06-05 21:52:36*
%MOMM*%
%LPD*%
G01*
G04 APERTURE LIST*
G04 Aperture macros list*
%AMRoundRect*
0 Rectangle with rounded corners*
0 $1 Rounding radius*
0 $2 $3 $4 $5 $6 $7 $8 $9 X,Y pos of 4 corners*
0 Add a 4 corners polygon primitive as box body*
4,1,4,$2,$3,$4,$5,$6,$7,$8,$9,$2,$3,0*
0 Add four circle primitives for the rounded corners*
1,1,$1+$1,$2,$3*
1,1,$1+$1,$4,$5*
1,1,$1+$1,$6,$7*
1,1,$1+$1,$8,$9*
0 Add four rect primitives between the rounded corners*
20,1,$1+$1,$2,$3,$4,$5,0*
20,1,$1+$1,$4,$5,$6,$7,0*
20,1,$1+$1,$6,$7,$8,$9,0*
20,1,$1+$1,$8,$9,$2,$3,0*%
G04 Aperture macros list end*
G04 #@! TA.AperFunction,ComponentPad*
%ADD10R,1.524000X1.524000*%
G04 #@! TD*
G04 #@! TA.AperFunction,ComponentPad*
%ADD11C,1.524000*%
G04 #@! TD*
G04 #@! TA.AperFunction,ComponentPad*
%ADD12C,3.500000*%
G04 #@! TD*
G04 #@! TA.AperFunction,HeatsinkPad*
%ADD13O,1.000000X2.100000*%
G04 #@! TD*
G04 #@! TA.AperFunction,HeatsinkPad*
%ADD14O,1.000000X1.800000*%
G04 #@! TD*
G04 #@! TA.AperFunction,ComponentPad*
%ADD15R,1.700000X1.700000*%
G04 #@! TD*
G04 #@! TA.AperFunction,ComponentPad*
%ADD16C,1.700000*%
G04 #@! TD*
G04 #@! TA.AperFunction,ComponentPad*
%ADD17RoundRect,0.250000X-1.050000X1.050000X-1.050000X-1.050000X1.050000X-1.050000X1.050000X1.050000X0*%
G04 #@! TD*
G04 #@! TA.AperFunction,ComponentPad*
%ADD18C,2.600000*%
G04 #@! TD*
G04 #@! TA.AperFunction,ComponentPad*
%ADD19RoundRect,0.250000X1.050000X-1.050000X1.050000X1.050000X-1.050000X1.050000X-1.050000X-1.050000X0*%
G04 #@! TD*
G04 #@! TA.AperFunction,ComponentPad*
%ADD20C,0.600000*%
G04 #@! TD*
G04 #@! TA.AperFunction,ViaPad*
%ADD21C,0.600000*%
G04 #@! TD*
G04 #@! TA.AperFunction,ViaPad*
%ADD22C,0.500000*%
G04 #@! TD*
G04 #@! TA.AperFunction,Conductor*
%ADD23C,0.200000*%
G04 #@! TD*
G04 #@! TA.AperFunction,Conductor*
%ADD24C,0.500000*%
G04 #@! TD*
G04 APERTURE END LIST*
D10*
G04 #@! TO.P,J5,1,VBUS_1*
G04 #@! TO.N,Board_1-+5V*
X79000000Y-19727500D03*
D11*
G04 #@! TO.P,J5,2,D-_2*
G04 #@! TO.N,Board_1-D-*
X76500000Y-19727500D03*
G04 #@! TO.P,J5,3,D+_3*
G04 #@! TO.N,Board_1-D+*
X74500000Y-19727500D03*
G04 #@! TO.P,J5,4,GND_4*
G04 #@! TO.N,Board_1-GND*
X72000000Y-19727500D03*
D12*
G04 #@! TO.P,J5,5,Shield_5*
X82175000Y-17017500D03*
X68825000Y-17017500D03*
G04 #@! TD*
D13*
G04 #@! TO.P,J2,S1,SHIELD_S1*
G04 #@! TO.N,Board_0-GND*
X18180000Y-52375000D03*
D14*
X18180000Y-56575000D03*
D13*
X26820000Y-52375000D03*
D14*
X26820000Y-56575000D03*
G04 #@! TD*
D15*
G04 #@! TO.P,J7,1,Pin_1_1*
G04 #@! TO.N,Board_1-GND*
X52900000Y-9020000D03*
D16*
G04 #@! TO.P,J7,2,Pin_2_2*
G04 #@! TO.N,Board_1-+5V*
X52900000Y-11560000D03*
G04 #@! TO.P,J7,3,Pin_3_3*
G04 #@! TO.N,Board_1-Net-(J7-Pin_3)*
X52900000Y-14100000D03*
G04 #@! TO.P,J7,4,Pin_4_4*
G04 #@! TO.N,Board_1-Net-(J7-Pin_4)*
X52900000Y-16640000D03*
G04 #@! TO.P,J7,5,Pin_5_5*
G04 #@! TO.N,Board_1-Net-(J7-Pin_5)*
X52900000Y-19180000D03*
G04 #@! TD*
D17*
G04 #@! TO.P,J3,1,Pin_1_1*
G04 #@! TO.N,Board_1-GND*
X42627500Y-10455000D03*
D18*
G04 #@! TO.P,J3,2,Pin_2_2*
G04 #@! TO.N,Board_1-+5V*
X42627500Y-15535000D03*
G04 #@! TD*
D19*
G04 #@! TO.P,J3,1,Pin_1_1*
G04 #@! TO.N,Board_0-GND*
X42372500Y-55545000D03*
D18*
G04 #@! TO.P,J3,2,Pin_2_2*
G04 #@! TO.N,Board_0-+5V*
X42372500Y-50465000D03*
G04 #@! TD*
D20*
G04 #@! TO.P,U2,61,GND_61*
G04 #@! TO.N,Board_0-GND*
X21125000Y-35125000D03*
X21125000Y-36500000D03*
X21125000Y-37875000D03*
X22500000Y-35125000D03*
X22500000Y-36500000D03*
X22500000Y-37875000D03*
X23875000Y-35125000D03*
X23875000Y-36500000D03*
X23875000Y-37875000D03*
G04 #@! TD*
D15*
G04 #@! TO.P,J4,1,Pin_1_1*
G04 #@! TO.N,Board_0-GND*
X5960000Y-42500000D03*
D16*
G04 #@! TO.P,J4,2,Pin_2_2*
G04 #@! TO.N,Board_0-SCL*
X8500000Y-42500000D03*
G04 #@! TO.P,J4,3,Pin_3_3*
G04 #@! TO.N,Board_0-SDA*
X11040000Y-42500000D03*
G04 #@! TD*
D15*
G04 #@! TO.P,J4,1,Pin_1_1*
G04 #@! TO.N,Board_1-GND*
X79040000Y-23500000D03*
D16*
G04 #@! TO.P,J4,2,Pin_2_2*
G04 #@! TO.N,Board_1-SCL*
X76500000Y-23500000D03*
G04 #@! TO.P,J4,3,Pin_3_3*
G04 #@! TO.N,Board_1-SDA*
X73960000Y-23500000D03*
G04 #@! TD*
D20*
G04 #@! TO.P,U2,61,GND_61*
G04 #@! TO.N,Board_1-GND*
X63875000Y-30875000D03*
X63875000Y-29500000D03*
X63875000Y-28125000D03*
X62500000Y-30875000D03*
X62500000Y-29500000D03*
X62500000Y-28125000D03*
X61125000Y-30875000D03*
X61125000Y-29500000D03*
X61125000Y-28125000D03*
G04 #@! TD*
D13*
G04 #@! TO.P,J2,S1,SHIELD_S1*
G04 #@! TO.N,Board_1-GND*
X66820000Y-13625000D03*
D14*
X66820000Y-9425000D03*
D13*
X58180000Y-13625000D03*
D14*
X58180000Y-9425000D03*
G04 #@! TD*
D10*
G04 #@! TO.P,J5,1,VBUS_1*
G04 #@! TO.N,Board_0-+5V*
X6000000Y-46272500D03*
D11*
G04 #@! TO.P,J5,2,D-_2*
G04 #@! TO.N,Board_0-D-*
X8500000Y-46272500D03*
G04 #@! TO.P,J5,3,D+_3*
G04 #@! TO.N,Board_0-D+*
X10500000Y-46272500D03*
G04 #@! TO.P,J5,4,GND_4*
G04 #@! TO.N,Board_0-GND*
X13000000Y-46272500D03*
D12*
G04 #@! TO.P,J5,5,Shield_5*
X2825000Y-48982500D03*
X16175000Y-48982500D03*
G04 #@! TD*
D15*
G04 #@! TO.P,J7,1,Pin_1_1*
G04 #@! TO.N,Board_0-GND*
X32100000Y-56980000D03*
D16*
G04 #@! TO.P,J7,2,Pin_2_2*
G04 #@! TO.N,Board_0-+5V*
X32100000Y-54440000D03*
G04 #@! TO.P,J7,3,Pin_3_3*
G04 #@! TO.N,Board_0-Net-(J7-Pin_3)*
X32100000Y-51900000D03*
G04 #@! TO.P,J7,4,Pin_4_4*
G04 #@! TO.N,Board_0-Net-(J7-Pin_4)*
X32100000Y-49360000D03*
G04 #@! TO.P,J7,5,Pin_5_5*
G04 #@! TO.N,Board_0-Net-(J7-Pin_5)*
X32100000Y-46820000D03*
G04 #@! TD*
D15*
G04 #@! TO.P,J1,1,Pin_1_1*
G04 #@! TO.N,Board_1-R1*
X82190000Y-45875000D03*
D16*
G04 #@! TO.P,J1,2,Pin_2_2*
G04 #@! TO.N,Board_1-G1*
X79650000Y-45875000D03*
G04 #@! TO.P,J1,3,Pin_3_3*
G04 #@! TO.N,Board_1-B1*
X82190000Y-43335000D03*
G04 #@! TO.P,J1,4,Pin_4_4*
G04 #@! TO.N,Board_1-GND*
X79650000Y-43335000D03*
G04 #@! TO.P,J1,5,Pin_5_5*
G04 #@! TO.N,Board_1-R2*
X82190000Y-40795000D03*
G04 #@! TO.P,J1,6,Pin_6_6*
G04 #@! TO.N,Board_1-G2*
X79650000Y-40795000D03*
G04 #@! TO.P,J1,7,Pin_7_7*
G04 #@! TO.N,Board_1-B2*
X82190000Y-38255000D03*
G04 #@! TO.P,J1,8,Pin_8_8*
G04 #@! TO.N,Board_1-E*
X79650000Y-38255000D03*
G04 #@! TO.P,J1,9,Pin_9_9*
G04 #@! TO.N,Board_1-A*
X82190000Y-35715000D03*
G04 #@! TO.P,J1,10,Pin_10_10*
G04 #@! TO.N,Board_1-B*
X79650000Y-35715000D03*
G04 #@! TO.P,J1,11,Pin_11_11*
G04 #@! TO.N,Board_1-C*
X82190000Y-33175000D03*
G04 #@! TO.P,J1,12,Pin_12_12*
G04 #@! TO.N,Board_1-D*
X79650000Y-33175000D03*
G04 #@! TO.P,J1,13,Pin_13_13*
G04 #@! TO.N,Board_1-CLK*
X82190000Y-30635000D03*
G04 #@! TO.P,J1,14,Pin_14_14*
G04 #@! TO.N,Board_1-LAT*
X79650000Y-30635000D03*
G04 #@! TO.P,J1,15,Pin_15_15*
G04 #@! TO.N,Board_1-OE*
X82190000Y-28095000D03*
G04 #@! TO.P,J1,16,Pin_16_16*
G04 #@! TO.N,Board_1-GND*
X79650000Y-28095000D03*
G04 #@! TD*
D15*
G04 #@! TO.P,J1,1,Pin_1_1*
G04 #@! TO.N,Board_0-R1*
X2810000Y-20125000D03*
D16*
G04 #@! TO.P,J1,2,Pin_2_2*
G04 #@! TO.N,Board_0-G1*
X5350000Y-20125000D03*
G04 #@! TO.P,J1,3,Pin_3_3*
G04 #@! TO.N,Board_0-B1*
X2810000Y-22665000D03*
G04 #@! TO.P,J1,4,Pin_4_4*
G04 #@! TO.N,Board_0-GND*
X5350000Y-22665000D03*
G04 #@! TO.P,J1,5,Pin_5_5*
G04 #@! TO.N,Board_0-R2*
X2810000Y-25205000D03*
G04 #@! TO.P,J1,6,Pin_6_6*
G04 #@! TO.N,Board_0-G2*
X5350000Y-25205000D03*
G04 #@! TO.P,J1,7,Pin_7_7*
G04 #@! TO.N,Board_0-B2*
X2810000Y-27745000D03*
G04 #@! TO.P,J1,8,Pin_8_8*
G04 #@! TO.N,Board_0-E*
X5350000Y-27745000D03*
G04 #@! TO.P,J1,9,Pin_9_9*
G04 #@! TO.N,Board_0-A*
X2810000Y-30285000D03*
G04 #@! TO.P,J1,10,Pin_10_10*
G04 #@! TO.N,Board_0-B*
X5350000Y-30285000D03*
G04 #@! TO.P,J1,11,Pin_11_11*
G04 #@! TO.N,Board_0-C*
X2810000Y-32825000D03*
G04 #@! TO.P,J1,12,Pin_12_12*
G04 #@! TO.N,Board_0-D*
X5350000Y-32825000D03*
G04 #@! TO.P,J1,13,Pin_13_13*
G04 #@! TO.N,Board_0-CLK*
X2810000Y-35365000D03*
G04 #@! TO.P,J1,14,Pin_14_14*
G04 #@! TO.N,Board_0-LAT*
X5350000Y-35365000D03*
G04 #@! TO.P,J1,15,Pin_15_15*
G04 #@! TO.N,Board_0-OE*
X2810000Y-37905000D03*
G04 #@! TO.P,J1,16,Pin_16_16*
G04 #@! TO.N,Board_0-GND*
X5350000Y-37905000D03*
G04 #@! TD*
D21*
G04 #@! TO.N,Board_0-GND*
X19500000Y-27600000D03*
X16600000Y-28600000D03*
X6800000Y-11900000D03*
X44000000Y-43000000D03*
X17600000Y-42400000D03*
X36500000Y-34900000D03*
X36500000Y-19800000D03*
X18800000Y-19800000D03*
X17800000Y-39900000D03*
X36700000Y-9600000D03*
X1000000Y-29000000D03*
X38100000Y-55600000D03*
X15500000Y-34000000D03*
X16100000Y-45400000D03*
X34900000Y-44700000D03*
X15600000Y-39900000D03*
X33100000Y-53200000D03*
X25700000Y-31900000D03*
X27900000Y-22900000D03*
X29900000Y-24900000D03*
X36600000Y-39800000D03*
X3300000Y-16000000D03*
X33600000Y-16900000D03*
X36500000Y-30200000D03*
X23500000Y-24100000D03*
X40600000Y-46700000D03*
X12800000Y-43600000D03*
X13600000Y-20700000D03*
X5100000Y-15300000D03*
X20000000Y-39000000D03*
X22700000Y-19300000D03*
X22500000Y-45300000D03*
X36500000Y-24900000D03*
X32100000Y-27300000D03*
X33900000Y-24900000D03*
X8700000Y-44000000D03*
X38100000Y-53200000D03*
X12000000Y-22000000D03*
X38500000Y-48500000D03*
X27100000Y-29700000D03*
X44000000Y-48500000D03*
X5400000Y-9500000D03*
X36600000Y-42900000D03*
X18200000Y-44700000D03*
X30100000Y-50900000D03*
X8100000Y-9500000D03*
X30100000Y-33300000D03*
X32200000Y-14400000D03*
X33900000Y-9600000D03*
X14800000Y-14500000D03*
X7200000Y-29700000D03*
X30200000Y-36000000D03*
X21400000Y-47800000D03*
X33500000Y-22100000D03*
X20400000Y-43600000D03*
X26000000Y-43400000D03*
X25300000Y-46900000D03*
X41500000Y-40500000D03*
X29000000Y-42900000D03*
X32100000Y-44600000D03*
X1000000Y-10500000D03*
X15200000Y-8000000D03*
X3500000Y-8000000D03*
X30100000Y-40700000D03*
X34100000Y-39800000D03*
X26500000Y-27100000D03*
X21900000Y-29300000D03*
X15000000Y-19900000D03*
X16800000Y-26200000D03*
X1000000Y-21500000D03*
X1000000Y-36700000D03*
X30000000Y-30300000D03*
X9100000Y-23900000D03*
X27700000Y-8000000D03*
X13300000Y-40500000D03*
X28700000Y-32050000D03*
X1500000Y-57400000D03*
X14000000Y-36100000D03*
X34100000Y-34900000D03*
X35300000Y-12000000D03*
X25300000Y-20600000D03*
X25009373Y-33948714D03*
X7600000Y-26100000D03*
X29500000Y-46800000D03*
G04 #@! TO.N,Board_1-D-*
X63001000Y-15550000D03*
D22*
X62900000Y-35700000D03*
D21*
G04 #@! TO.N,Board_1-D+*
X61950000Y-13050000D03*
X67900000Y-21700000D03*
D22*
X62900000Y-34900000D03*
D21*
G04 #@! TO.N,Board_1-GND*
X84000000Y-44500000D03*
X59000000Y-22600000D03*
X83500000Y-8600000D03*
X51100000Y-41100000D03*
X46900000Y-12800000D03*
X68200000Y-39800000D03*
X59990627Y-32051286D03*
X79600000Y-56500000D03*
X75900000Y-42100000D03*
X57100000Y-43100000D03*
X55000000Y-35700000D03*
X66800000Y-21300000D03*
X57900000Y-36300000D03*
X46900000Y-10400000D03*
X54900000Y-32700000D03*
X77400000Y-39900000D03*
X54900000Y-25300000D03*
X56000000Y-23100000D03*
X71400000Y-45300000D03*
X46500000Y-17500000D03*
X61500000Y-41900000D03*
X59700000Y-19100000D03*
X50900000Y-26200000D03*
X73000000Y-44000000D03*
X84000000Y-29300000D03*
X79900000Y-50700000D03*
X49700000Y-54000000D03*
X52800000Y-51600000D03*
X76900000Y-56500000D03*
X71700000Y-25500000D03*
X70200000Y-51500000D03*
X48500000Y-46200000D03*
X71000000Y-29900000D03*
X43500000Y-25500000D03*
X84000000Y-55500000D03*
X81700000Y-50000000D03*
X54900000Y-15100000D03*
X62300000Y-46700000D03*
X66200000Y-46200000D03*
X72200000Y-22400000D03*
X70000000Y-46100000D03*
X48400000Y-23100000D03*
X41000000Y-17500000D03*
X67200000Y-26100000D03*
X63600000Y-18200000D03*
X55100000Y-41100000D03*
X57300000Y-58000000D03*
X48500000Y-41100000D03*
X65000000Y-27000000D03*
X48500000Y-35800000D03*
X56300000Y-33950000D03*
X69400000Y-26100000D03*
X54800000Y-30000000D03*
X50900000Y-31100000D03*
X77800000Y-36300000D03*
X68400000Y-37400000D03*
X81500000Y-58000000D03*
X67400000Y-23600000D03*
X78200000Y-54100000D03*
X48300000Y-56400000D03*
X52900000Y-21400000D03*
X48500000Y-31100000D03*
X69500000Y-32000000D03*
X41000000Y-23000000D03*
X55500000Y-19200000D03*
X76300000Y-22000000D03*
X59700000Y-45400000D03*
X48400000Y-26200000D03*
X51400000Y-49100000D03*
X51100000Y-56400000D03*
X84000000Y-37000000D03*
X62500000Y-20700000D03*
X65500000Y-38400000D03*
X51500000Y-43900000D03*
X51900000Y-12800000D03*
X58500000Y-38900000D03*
X69800000Y-58000000D03*
X52900000Y-38700000D03*
X59300000Y-34100000D03*
X68900000Y-20600000D03*
X64600000Y-22400000D03*
X44400000Y-19300000D03*
X50100000Y-21300000D03*
X63100000Y-36700000D03*
G04 #@! TO.N,Board_0-+3V3*
X24400000Y-31000000D03*
X18350000Y-33050000D03*
X26650000Y-31650000D03*
X27100000Y-33900000D03*
X20100000Y-37700000D03*
X21300000Y-38900000D03*
X26200000Y-40200000D03*
D22*
X22300000Y-32100000D03*
D21*
X27104442Y-36698787D03*
G04 #@! TO.N,Board_0-D+*
X23050000Y-52950000D03*
D22*
X22100000Y-31100000D03*
D21*
X17100000Y-44300000D03*
D22*
G04 #@! TO.N,Board_0-D-*
X22100000Y-30300000D03*
D21*
X21999000Y-50450000D03*
G04 #@! TO.N,Board_1-+3V3*
X57895558Y-29301213D03*
X66650000Y-32950000D03*
X60600000Y-35000000D03*
X58800000Y-25800000D03*
D22*
X62700000Y-33900000D03*
D21*
X63700000Y-27100000D03*
X64900000Y-28300000D03*
X57900000Y-32100000D03*
X58350000Y-34350000D03*
G04 #@! TO.N,Board_0-+1V1*
X23100000Y-34100000D03*
D22*
X23500000Y-31100000D03*
D21*
G04 #@! TO.N,Board_1-+1V1*
X61900000Y-31900000D03*
D22*
X61500000Y-34900000D03*
D21*
G04 #@! TO.N,Board_0-SPI_TX{slash}D0*
X25100000Y-14600000D03*
D22*
X31100000Y-40100000D03*
D21*
G04 #@! TO.N,Board_0-SPI_RX{slash}D1*
X22600000Y-14600000D03*
D22*
X31100000Y-39400000D03*
D21*
G04 #@! TO.N,Board_0-SPI_CS{slash}D2*
X20000000Y-14600000D03*
D22*
X31100000Y-38700000D03*
G04 #@! TO.N,Board_0-SPI_CK{slash}D3*
X31100000Y-38000000D03*
D21*
X17600000Y-14600000D03*
D22*
G04 #@! TO.N,Board_0-SPI_TX{slash}CS*
X31100000Y-37300000D03*
D21*
X12600000Y-14600000D03*
D22*
G04 #@! TO.N,Board_0-SPI_EX{slash}CK*
X31100000Y-36600000D03*
D21*
X10100000Y-14600000D03*
G04 #@! TO.N,Board_1-SPI_TX{slash}D0*
X59900000Y-51400000D03*
D22*
X53900000Y-25900000D03*
G04 #@! TO.N,Board_1-SPI_RX{slash}D1*
X53900000Y-26600000D03*
D21*
X62400000Y-51400000D03*
G04 #@! TO.N,Board_1-SPI_CS{slash}D2*
X65000000Y-51400000D03*
D22*
X53900000Y-27300000D03*
D21*
G04 #@! TO.N,Board_1-SPI_CK{slash}D3*
X67400000Y-51400000D03*
D22*
X53900000Y-28000000D03*
D21*
G04 #@! TO.N,Board_1-SPI_TX{slash}CS*
X72400000Y-51400000D03*
D22*
X53900000Y-28700000D03*
D21*
G04 #@! TO.N,Board_1-SPI_EX{slash}CK*
X74900000Y-51400000D03*
D22*
X53900000Y-29400000D03*
G04 #@! TD*
G04 #@! TO.N,Board_0-GND*
D23*
X16500000Y-48700000D02*
X16500000Y-48899000D01*
G04 #@! TO.N,Board_1-D-*
X65866100Y-35301000D02*
X68501000Y-32666100D01*
X75866100Y-21433900D02*
X68501000Y-21433900D01*
X63299000Y-35301000D02*
X65866100Y-35301000D01*
X62900000Y-35700000D02*
X63299000Y-35301000D01*
X76500000Y-20800000D02*
X75866100Y-21433900D01*
X68501000Y-32666100D02*
X68501000Y-21433900D01*
X63001000Y-15933900D02*
X63001000Y-15550000D01*
X68501000Y-21433900D02*
X63001000Y-15933900D01*
X76500000Y-19727500D02*
X76500000Y-20800000D01*
G04 #@! TO.N,Board_1-D+*
X67900000Y-21400000D02*
X67900000Y-21700000D01*
X65700000Y-34900000D02*
X68100000Y-32500000D01*
X61900000Y-15400000D02*
X67900000Y-21400000D01*
X61900000Y-13100000D02*
X61900000Y-15400000D01*
X68100000Y-32500000D02*
X68100000Y-21900000D01*
X62900000Y-34900000D02*
X65700000Y-34900000D01*
X61950000Y-13050000D02*
X61900000Y-13100000D01*
X68100000Y-21900000D02*
X67900000Y-21700000D01*
G04 #@! TO.N,Board_1-GND*
X68500000Y-17300000D02*
X68500000Y-17101000D01*
G04 #@! TO.N,Board_0-+3V3*
D24*
X22800000Y-31600000D02*
X22800000Y-30700000D01*
X23891364Y-30400000D02*
X24400000Y-30908636D01*
X27100000Y-32100000D02*
X27100000Y-33900000D01*
X26000000Y-31000000D02*
X24400000Y-31000000D01*
X26650000Y-31650000D02*
X27100000Y-32100000D01*
X24400000Y-30908636D02*
X24400000Y-31000000D01*
X27100000Y-36703229D02*
X27100000Y-39300000D01*
X27100000Y-39300000D02*
X26200000Y-40200000D01*
X22800000Y-30700000D02*
X23100000Y-30400000D01*
X22300000Y-32100000D02*
X22800000Y-31600000D01*
X22600000Y-40200000D02*
X21300000Y-38900000D01*
X19300000Y-32100000D02*
X22300000Y-32100000D01*
X27104442Y-36698787D02*
X27100000Y-36694345D01*
X27104442Y-36698787D02*
X27100000Y-36703229D01*
X27100000Y-36694345D02*
X27100000Y-33900000D01*
X20100000Y-37944061D02*
X21055939Y-38900000D01*
X26650000Y-31650000D02*
X26000000Y-31000000D01*
X20100000Y-37700000D02*
X20100000Y-37944061D01*
X21055939Y-38900000D02*
X21300000Y-38900000D01*
X18350000Y-33050000D02*
X19300000Y-32100000D01*
X26200000Y-40200000D02*
X22600000Y-40200000D01*
X23100000Y-30400000D02*
X23891364Y-30400000D01*
G04 #@! TO.N,Board_0-D+*
D23*
X23100000Y-50600000D02*
X17100000Y-44600000D01*
X23050000Y-52950000D02*
X23100000Y-52900000D01*
X22100000Y-31100000D02*
X19300000Y-31100000D01*
X16900000Y-33500000D02*
X16900000Y-44100000D01*
X16900000Y-44100000D02*
X17100000Y-44300000D01*
X17100000Y-44600000D02*
X17100000Y-44300000D01*
X19300000Y-31100000D02*
X16900000Y-33500000D01*
X23100000Y-52900000D02*
X23100000Y-50600000D01*
G04 #@! TO.N,Board_0-D-*
X16499000Y-33333900D02*
X16499000Y-44566100D01*
X8500000Y-45200000D02*
X9133900Y-44566100D01*
X8500000Y-46272500D02*
X8500000Y-45200000D01*
X9133900Y-44566100D02*
X16499000Y-44566100D01*
X16499000Y-44566100D02*
X21999000Y-50066100D01*
X19133900Y-30699000D02*
X16499000Y-33333900D01*
X21701000Y-30699000D02*
X19133900Y-30699000D01*
X22100000Y-30300000D02*
X21701000Y-30699000D01*
X21999000Y-50066100D02*
X21999000Y-50450000D01*
G04 #@! TO.N,Board_1-Net-(J7-Pin_4)*
X52900000Y-16667100D02*
X52900000Y-16640000D01*
G04 #@! TO.N,Board_1-+3V3*
D24*
X58350000Y-34350000D02*
X57900000Y-33900000D01*
X64900000Y-28055939D02*
X63944061Y-27100000D01*
X57895558Y-29301213D02*
X57900000Y-29296771D01*
X60600000Y-35091364D02*
X60600000Y-35000000D01*
X62200000Y-35300000D02*
X61900000Y-35600000D01*
X62200000Y-34400000D02*
X62200000Y-35300000D01*
X58350000Y-34350000D02*
X59000000Y-35000000D01*
X63944061Y-27100000D02*
X63700000Y-27100000D01*
X61900000Y-35600000D02*
X61108636Y-35600000D01*
X57900000Y-33900000D02*
X57900000Y-32100000D01*
X58800000Y-25800000D02*
X62400000Y-25800000D01*
X61108636Y-35600000D02*
X60600000Y-35091364D01*
X62400000Y-25800000D02*
X63700000Y-27100000D01*
X62700000Y-33900000D02*
X62200000Y-34400000D01*
X57900000Y-29296771D02*
X57900000Y-26700000D01*
X57895558Y-29301213D02*
X57900000Y-29305655D01*
X65700000Y-33900000D02*
X62700000Y-33900000D01*
X66650000Y-32950000D02*
X65700000Y-33900000D01*
X59000000Y-35000000D02*
X60600000Y-35000000D01*
X57900000Y-29305655D02*
X57900000Y-32100000D01*
X57900000Y-26700000D02*
X58800000Y-25800000D01*
X64900000Y-28300000D02*
X64900000Y-28055939D01*
G04 #@! TO.N,Board_0-+1V1*
X23500000Y-33700000D02*
X23100000Y-34100000D01*
X23500000Y-31100000D02*
X23500000Y-33700000D01*
G04 #@! TO.N,Board_1-+1V1*
X61500000Y-32300000D02*
X61900000Y-31900000D01*
X61500000Y-34900000D02*
X61500000Y-32300000D01*
G04 #@! TO.N,Board_0-Net-(J7-Pin_4)*
D23*
X32100000Y-49332900D02*
X32100000Y-49360000D01*
G04 #@! TO.N,Board_0-SPI_TX{slash}D0*
X33300000Y-38200000D02*
X31400000Y-40100000D01*
X33300000Y-29700000D02*
X33300000Y-38200000D01*
X23700000Y-20100000D02*
X33300000Y-29700000D01*
X25100000Y-14600000D02*
X23700000Y-16000000D01*
X31400000Y-40100000D02*
X31100000Y-40100000D01*
X23700000Y-16000000D02*
X23700000Y-20100000D01*
G04 #@! TO.N,Board_0-SPI_RX{slash}D1*
X32900000Y-37900000D02*
X31400000Y-39400000D01*
X23300000Y-20300000D02*
X32900000Y-29900000D01*
X31400000Y-39400000D02*
X31100000Y-39400000D01*
X23300000Y-16000000D02*
X23300000Y-20300000D01*
X22600000Y-15300000D02*
X23300000Y-16000000D01*
X22600000Y-14600000D02*
X22600000Y-15300000D01*
X32900000Y-29900000D02*
X32900000Y-37900000D01*
G04 #@! TO.N,Board_0-SPI_CS{slash}D2*
X31400000Y-38700000D02*
X31100000Y-38700000D01*
X20000000Y-14600000D02*
X20000000Y-17600000D01*
X20000000Y-17600000D02*
X32500000Y-30100000D01*
X32500000Y-30100000D02*
X32500000Y-37600000D01*
X32500000Y-37600000D02*
X31400000Y-38700000D01*
G04 #@! TO.N,Board_0-SPI_CK{slash}D3*
X19600000Y-17832900D02*
X32100000Y-30332900D01*
X19600000Y-16600000D02*
X19600000Y-17832900D01*
X17600000Y-14600000D02*
X19600000Y-16600000D01*
X32100000Y-37300000D02*
X31400000Y-38000000D01*
X32100000Y-30332900D02*
X32100000Y-37300000D01*
X31400000Y-38000000D02*
X31100000Y-38000000D01*
G04 #@! TO.N,Board_0-SPI_TX{slash}CS*
X12600000Y-15700000D02*
X15000000Y-18100000D01*
X31500000Y-37300000D02*
X31100000Y-37300000D01*
X19300000Y-18100000D02*
X31700000Y-30500000D01*
X12600000Y-14600000D02*
X12600000Y-15700000D01*
X31700000Y-30500000D02*
X31700000Y-37100000D01*
X15000000Y-18100000D02*
X19300000Y-18100000D01*
X31700000Y-37100000D02*
X31500000Y-37300000D01*
G04 #@! TO.N,Board_0-SPI_EX{slash}CK*
X14800000Y-18500000D02*
X19100000Y-18500000D01*
X10900000Y-14600000D02*
X14800000Y-18500000D01*
X31299000Y-36401000D02*
X31100000Y-36600000D01*
X31299000Y-30699000D02*
X31299000Y-36401000D01*
X10100000Y-14600000D02*
X10900000Y-14600000D01*
X19100000Y-18500000D02*
X31299000Y-30699000D01*
G04 #@! TO.N,Board_1-SPI_TX{slash}D0*
X59900000Y-51400000D02*
X61300000Y-50000000D01*
X51700000Y-27800000D02*
X53600000Y-25900000D01*
X53600000Y-25900000D02*
X53900000Y-25900000D01*
X51700000Y-36300000D02*
X51700000Y-27800000D01*
X61300000Y-50000000D02*
X61300000Y-45900000D01*
X61300000Y-45900000D02*
X51700000Y-36300000D01*
G04 #@! TO.N,Board_1-SPI_RX{slash}D1*
X61700000Y-45700000D02*
X52100000Y-36100000D01*
X52100000Y-36100000D02*
X52100000Y-28100000D01*
X61700000Y-50000000D02*
X61700000Y-45700000D01*
X62400000Y-51400000D02*
X62400000Y-50700000D01*
X52100000Y-28100000D02*
X53600000Y-26600000D01*
X53600000Y-26600000D02*
X53900000Y-26600000D01*
X62400000Y-50700000D02*
X61700000Y-50000000D01*
G04 #@! TO.N,Board_1-SPI_CS{slash}D2*
X52500000Y-35900000D02*
X52500000Y-28400000D01*
X52500000Y-28400000D02*
X53600000Y-27300000D01*
X53600000Y-27300000D02*
X53900000Y-27300000D01*
X65000000Y-51400000D02*
X65000000Y-48400000D01*
X65000000Y-48400000D02*
X52500000Y-35900000D01*
G04 #@! TO.N,Board_1-SPI_CK{slash}D3*
X67400000Y-51400000D02*
X65400000Y-49400000D01*
X53600000Y-28000000D02*
X53900000Y-28000000D01*
X52900000Y-28700000D02*
X53600000Y-28000000D01*
X52900000Y-35667100D02*
X52900000Y-28700000D01*
X65400000Y-48167100D02*
X52900000Y-35667100D01*
X65400000Y-49400000D02*
X65400000Y-48167100D01*
G04 #@! TO.N,Board_1-SPI_TX{slash}CS*
X53300000Y-28900000D02*
X53500000Y-28700000D01*
X65700000Y-47900000D02*
X53300000Y-35500000D01*
X72400000Y-50300000D02*
X70000000Y-47900000D01*
X72400000Y-51400000D02*
X72400000Y-50300000D01*
X53300000Y-35500000D02*
X53300000Y-28900000D01*
X70000000Y-47900000D02*
X65700000Y-47900000D01*
X53500000Y-28700000D02*
X53900000Y-28700000D01*
G04 #@! TO.N,Board_1-SPI_EX{slash}CK*
X53701000Y-35301000D02*
X53701000Y-29599000D01*
X74900000Y-51400000D02*
X74100000Y-51400000D01*
X53701000Y-29599000D02*
X53900000Y-29400000D01*
X70200000Y-47500000D02*
X65900000Y-47500000D01*
X65900000Y-47500000D02*
X53701000Y-35301000D01*
X74100000Y-51400000D02*
X70200000Y-47500000D01*
G04 #@! TD*
G04 #@! TA.AperFunction,Conductor*
G04 #@! TO.N,Board_0-GND*
G36*
X35504043Y-7500765D02*
G01*
X35752895Y-7517075D01*
X35768953Y-7519190D01*
X35976105Y-7560395D01*
X36009535Y-7567045D01*
X36025202Y-7571243D01*
X36194947Y-7628863D01*
X36257481Y-7650091D01*
X36272458Y-7656294D01*
X36477661Y-7757489D01*
X36492460Y-7764787D01*
X36506506Y-7772897D01*
X36710460Y-7909174D01*
X36723329Y-7919048D01*
X36907749Y-8080781D01*
X36919218Y-8092250D01*
X37017892Y-8204765D01*
X37079955Y-8275535D01*
X37080951Y-8276670D01*
X37090825Y-8289539D01*
X37227102Y-8493493D01*
X37235212Y-8507539D01*
X37343702Y-8727534D01*
X37349909Y-8742520D01*
X37428756Y-8974797D01*
X37432954Y-8990464D01*
X37480807Y-9231035D01*
X37482925Y-9247116D01*
X37499235Y-9495956D01*
X37499500Y-9504066D01*
X37499500Y-35934108D01*
X37499500Y-36000000D01*
X37499500Y-36184954D01*
X37504556Y-36239513D01*
X37533629Y-36553276D01*
X37533630Y-36553277D01*
X37533631Y-36553285D01*
X37601601Y-36916895D01*
X37601603Y-36916902D01*
X37601602Y-36916902D01*
X37692208Y-37235345D01*
X37702832Y-37272683D01*
X37755023Y-37407403D01*
X37836459Y-37617616D01*
X37836460Y-37617617D01*
X37979559Y-37904999D01*
X38001340Y-37948741D01*
X38196072Y-38263243D01*
X38212246Y-38284661D01*
X38394582Y-38526114D01*
X38418992Y-38558437D01*
X38450211Y-38592683D01*
X38668197Y-38831802D01*
X38941560Y-39081005D01*
X38941568Y-39081012D01*
X38977482Y-39108133D01*
X39236757Y-39303928D01*
X39551259Y-39498660D01*
X39882382Y-39663539D01*
X39882383Y-39663540D01*
X39882387Y-39663541D01*
X39882388Y-39663542D01*
X40227317Y-39797168D01*
X40583105Y-39898399D01*
X40946715Y-39966369D01*
X40946722Y-39966369D01*
X40946723Y-39966370D01*
X41124262Y-39982821D01*
X41315046Y-40000500D01*
X41434108Y-40000500D01*
X41496755Y-40000500D01*
X41503243Y-40000669D01*
X41807061Y-40016591D01*
X41819937Y-40017945D01*
X42117212Y-40065029D01*
X42129896Y-40067724D01*
X42420626Y-40145625D01*
X42432967Y-40149636D01*
X42713935Y-40257489D01*
X42725790Y-40262767D01*
X42993976Y-40399415D01*
X43005192Y-40405891D01*
X43257619Y-40569818D01*
X43268100Y-40577433D01*
X43420076Y-40700500D01*
X43502011Y-40766850D01*
X43511656Y-40775535D01*
X43724464Y-40988343D01*
X43733149Y-40997988D01*
X43922564Y-41231896D01*
X43930183Y-41242384D01*
X44094105Y-41494801D01*
X44100587Y-41506029D01*
X44118606Y-41541392D01*
X44237231Y-41774206D01*
X44242510Y-41786064D01*
X44350363Y-42067032D01*
X44354374Y-42079375D01*
X44432273Y-42370097D01*
X44434971Y-42382793D01*
X44482052Y-42680046D01*
X44483409Y-42692955D01*
X44499330Y-42996756D01*
X44499500Y-43003245D01*
X44499500Y-56495933D01*
X44499235Y-56504043D01*
X44482925Y-56752883D01*
X44480807Y-56768964D01*
X44432954Y-57009535D01*
X44428756Y-57025202D01*
X44349909Y-57257479D01*
X44343702Y-57272465D01*
X44235212Y-57492460D01*
X44227102Y-57506506D01*
X44090825Y-57710460D01*
X44080951Y-57723329D01*
X43919218Y-57907749D01*
X43907749Y-57919218D01*
X43723329Y-58080951D01*
X43710460Y-58090825D01*
X43506506Y-58227102D01*
X43492460Y-58235212D01*
X43272465Y-58343702D01*
X43257479Y-58349909D01*
X43025202Y-58428756D01*
X43009535Y-58432954D01*
X42768964Y-58480807D01*
X42752883Y-58482925D01*
X42504043Y-58499235D01*
X42495933Y-58499500D01*
X2504067Y-58499500D01*
X2495957Y-58499235D01*
X2247116Y-58482925D01*
X2231035Y-58480807D01*
X1990464Y-58432954D01*
X1974797Y-58428756D01*
X1742520Y-58349909D01*
X1727534Y-58343702D01*
X1507539Y-58235212D01*
X1493493Y-58227102D01*
X1289539Y-58090825D01*
X1276670Y-58080951D01*
X1275584Y-58079999D01*
X1092250Y-57919218D01*
X1080781Y-57907749D01*
X919048Y-57723329D01*
X909174Y-57710460D01*
X772897Y-57506506D01*
X764787Y-57492460D01*
X741838Y-57445925D01*
X656294Y-57272458D01*
X650090Y-57257479D01*
X571243Y-57025202D01*
X567045Y-57009535D01*
X554551Y-56946725D01*
X519189Y-56768949D01*
X517075Y-56752895D01*
X500765Y-56504043D01*
X500500Y-56495933D01*
X500500Y-56101126D01*
X17430000Y-56101126D01*
X17430000Y-56325000D01*
X17880000Y-56325000D01*
X17880000Y-56825000D01*
X17430000Y-56825000D01*
X17430000Y-57048873D01*
X17458820Y-57193759D01*
X17458822Y-57193767D01*
X17515357Y-57330254D01*
X17515362Y-57330264D01*
X17597436Y-57453096D01*
X17597439Y-57453100D01*
X17701899Y-57557560D01*
X17701907Y-57557566D01*
X17824739Y-57639640D01*
X17824743Y-57639642D01*
X17929999Y-57683240D01*
X17930000Y-57683240D01*
X17930000Y-57141988D01*
X17939940Y-57159205D01*
X17995795Y-57215060D01*
X18064204Y-57254556D01*
X18140504Y-57275000D01*
X18219496Y-57275000D01*
X18295796Y-57254556D01*
X18364205Y-57215060D01*
X18420060Y-57159205D01*
X18430000Y-57141988D01*
X18430000Y-57683240D01*
X18535256Y-57639642D01*
X18535260Y-57639640D01*
X18658092Y-57557566D01*
X18658100Y-57557560D01*
X18762560Y-57453100D01*
X18762563Y-57453096D01*
X18844637Y-57330264D01*
X18844642Y-57330254D01*
X18901177Y-57193767D01*
X18901179Y-57193759D01*
X18929999Y-57048873D01*
X18930000Y-57048871D01*
X18930000Y-56825000D01*
X18480000Y-56825000D01*
X18480000Y-56325000D01*
X18930000Y-56325000D01*
X18930000Y-56101128D01*
X18929999Y-56101126D01*
X26070000Y-56101126D01*
X26070000Y-56325000D01*
X26520000Y-56325000D01*
X26520000Y-56825000D01*
X26070000Y-56825000D01*
X26070000Y-57048873D01*
X26098820Y-57193759D01*
X26098822Y-57193767D01*
X26155357Y-57330254D01*
X26155362Y-57330264D01*
X26237436Y-57453096D01*
X26237439Y-57453100D01*
X26341899Y-57557560D01*
X26341907Y-57557566D01*
X26464739Y-57639640D01*
X26464743Y-57639642D01*
X26569999Y-57683240D01*
X26570000Y-57683240D01*
X26570000Y-57141988D01*
X26579940Y-57159205D01*
X26635795Y-57215060D01*
X26704204Y-57254556D01*
X26780504Y-57275000D01*
X26859496Y-57275000D01*
X26935796Y-57254556D01*
X27004205Y-57215060D01*
X27060060Y-57159205D01*
X27070000Y-57141988D01*
X27070000Y-57683240D01*
X27175256Y-57639642D01*
X27175260Y-57639640D01*
X27298092Y-57557566D01*
X27298100Y-57557560D01*
X27402560Y-57453100D01*
X27402563Y-57453096D01*
X27484637Y-57330264D01*
X27484642Y-57330254D01*
X27541177Y-57193767D01*
X27541179Y-57193761D01*
X27549000Y-57154446D01*
X27549000Y-57154445D01*
X27569999Y-57048873D01*
X27570000Y-57048871D01*
X27570000Y-56825000D01*
X27120000Y-56825000D01*
X27120000Y-56325000D01*
X27570000Y-56325000D01*
X27570000Y-56105371D01*
X31000000Y-56105371D01*
X31000000Y-56730000D01*
X31666988Y-56730000D01*
X31634075Y-56787007D01*
X31600000Y-56914174D01*
X31600000Y-57045826D01*
X31634075Y-57172993D01*
X31666988Y-57230000D01*
X31000000Y-57230000D01*
X31000000Y-57854628D01*
X31014503Y-57927540D01*
X31014505Y-57927544D01*
X31069760Y-58010239D01*
X31152455Y-58065494D01*
X31152459Y-58065496D01*
X31225371Y-58079999D01*
X31225374Y-58080000D01*
X31850000Y-58080000D01*
X31850000Y-57413012D01*
X31907007Y-57445925D01*
X32034174Y-57480000D01*
X32165826Y-57480000D01*
X32292993Y-57445925D01*
X32350000Y-57413012D01*
X32350000Y-58080000D01*
X32974626Y-58080000D01*
X32974628Y-58079999D01*
X33047540Y-58065496D01*
X33047544Y-58065494D01*
X33130239Y-58010239D01*
X33185494Y-57927544D01*
X33185496Y-57927540D01*
X33199999Y-57854628D01*
X33200000Y-57854626D01*
X33200000Y-57230000D01*
X32533012Y-57230000D01*
X32565925Y-57172993D01*
X32600000Y-57045826D01*
X32600000Y-56914174D01*
X32565925Y-56787007D01*
X32533012Y-56730000D01*
X33200000Y-56730000D01*
X33200000Y-56105373D01*
X33199999Y-56105371D01*
X33185496Y-56032459D01*
X33185494Y-56032455D01*
X33130239Y-55949760D01*
X33047544Y-55894505D01*
X33047540Y-55894503D01*
X32974627Y-55880000D01*
X32350000Y-55880000D01*
X32350000Y-56546988D01*
X32292993Y-56514075D01*
X32165826Y-56480000D01*
X32034174Y-56480000D01*
X31907007Y-56514075D01*
X31850000Y-56546988D01*
X31850000Y-55880000D01*
X31225373Y-55880000D01*
X31152459Y-55894503D01*
X31152455Y-55894505D01*
X31069760Y-55949760D01*
X31014505Y-56032455D01*
X31014503Y-56032459D01*
X31000000Y-56105371D01*
X27570000Y-56105371D01*
X27570000Y-56101128D01*
X27569999Y-56101126D01*
X27541179Y-55956240D01*
X27541177Y-55956232D01*
X27484642Y-55819745D01*
X27484637Y-55819736D01*
X27479822Y-55812529D01*
X27402563Y-55696902D01*
X27298100Y-55592439D01*
X27298096Y-55592436D01*
X27175264Y-55510362D01*
X27175254Y-55510357D01*
X27070000Y-55466759D01*
X27070000Y-56008011D01*
X27060060Y-55990795D01*
X27004205Y-55934940D01*
X26935796Y-55895444D01*
X26859496Y-55875000D01*
X26780504Y-55875000D01*
X26704204Y-55895444D01*
X26635795Y-55934940D01*
X26579940Y-55990795D01*
X26570000Y-56008011D01*
X26570000Y-55466759D01*
X26569999Y-55466759D01*
X26464745Y-55510357D01*
X26464735Y-55510362D01*
X26341903Y-55592436D01*
X26341899Y-55592439D01*
X26237439Y-55696899D01*
X26237436Y-55696903D01*
X26155362Y-55819735D01*
X26155357Y-55819745D01*
X26098822Y-55956232D01*
X26098820Y-55956240D01*
X26070000Y-56101126D01*
X18929999Y-56101126D01*
X18901179Y-55956240D01*
X18901177Y-55956232D01*
X18844642Y-55819745D01*
X18844637Y-55819735D01*
X18762563Y-55696903D01*
X18762560Y-55696899D01*
X18658100Y-55592439D01*
X18658096Y-55592436D01*
X18535264Y-55510362D01*
X18535254Y-55510357D01*
X18430000Y-55466759D01*
X18430000Y-56008011D01*
X18420060Y-55990795D01*
X18364205Y-55934940D01*
X18295796Y-55895444D01*
X18219496Y-55875000D01*
X18140504Y-55875000D01*
X18064204Y-55895444D01*
X17995795Y-55934940D01*
X17939940Y-55990795D01*
X17930000Y-56008011D01*
X17930000Y-55466759D01*
X17929999Y-55466759D01*
X17824745Y-55510357D01*
X17824735Y-55510362D01*
X17701903Y-55592436D01*
X17701899Y-55592439D01*
X17597439Y-55696899D01*
X17597436Y-55696903D01*
X17515362Y-55819735D01*
X17515357Y-55819745D01*
X17458822Y-55956232D01*
X17458820Y-55956240D01*
X17430000Y-56101126D01*
X500500Y-56101126D01*
X500500Y-54336530D01*
X31049500Y-54336530D01*
X31049500Y-54543469D01*
X31089868Y-54746412D01*
X31089870Y-54746420D01*
X31169059Y-54937598D01*
X31226541Y-55023626D01*
X31284024Y-55109657D01*
X31430342Y-55255975D01*
X31430345Y-55255977D01*
X31602402Y-55370941D01*
X31793580Y-55450130D01*
X31996530Y-55490499D01*
X31996534Y-55490500D01*
X31996535Y-55490500D01*
X32203466Y-55490500D01*
X32203467Y-55490499D01*
X32406420Y-55450130D01*
X32597598Y-55370941D01*
X32769655Y-55255977D01*
X32915977Y-55109655D01*
X33030941Y-54937598D01*
X33110130Y-54746420D01*
X33150500Y-54543465D01*
X33150500Y-54447155D01*
X40822500Y-54447155D01*
X40822500Y-55295000D01*
X41772499Y-55295000D01*
X41747479Y-55355402D01*
X41722500Y-55480981D01*
X41722500Y-55609019D01*
X41747479Y-55734598D01*
X41772499Y-55795000D01*
X40822500Y-55795000D01*
X40822500Y-56642844D01*
X40828901Y-56702372D01*
X40828903Y-56702379D01*
X40879145Y-56837086D01*
X40879149Y-56837093D01*
X40965309Y-56952187D01*
X40965312Y-56952190D01*
X41080406Y-57038350D01*
X41080413Y-57038354D01*
X41215120Y-57088596D01*
X41215127Y-57088598D01*
X41274655Y-57094999D01*
X41274672Y-57095000D01*
X42122500Y-57095000D01*
X42122500Y-56145001D01*
X42182902Y-56170021D01*
X42308481Y-56195000D01*
X42436519Y-56195000D01*
X42562098Y-56170021D01*
X42622500Y-56145001D01*
X42622500Y-57095000D01*
X43470328Y-57095000D01*
X43470344Y-57094999D01*
X43529872Y-57088598D01*
X43529879Y-57088596D01*
X43664586Y-57038354D01*
X43664593Y-57038350D01*
X43779687Y-56952190D01*
X43779690Y-56952187D01*
X43865850Y-56837093D01*
X43865854Y-56837086D01*
X43916096Y-56702379D01*
X43916098Y-56702372D01*
X43922499Y-56642844D01*
X43922500Y-56642827D01*
X43922500Y-55795000D01*
X42972501Y-55795000D01*
X42997521Y-55734598D01*
X43022500Y-55609019D01*
X43022500Y-55480981D01*
X42997521Y-55355402D01*
X42972501Y-55295000D01*
X43922500Y-55295000D01*
X43922500Y-54447172D01*
X43922499Y-54447155D01*
X43916098Y-54387627D01*
X43916096Y-54387620D01*
X43865854Y-54252913D01*
X43865850Y-54252906D01*
X43779690Y-54137812D01*
X43779687Y-54137809D01*
X43664593Y-54051649D01*
X43664586Y-54051645D01*
X43529879Y-54001403D01*
X43529872Y-54001401D01*
X43470344Y-53995000D01*
X42622500Y-53995000D01*
X42622500Y-54944998D01*
X42562098Y-54919979D01*
X42436519Y-54895000D01*
X42308481Y-54895000D01*
X42182902Y-54919979D01*
X42122500Y-54944998D01*
X42122500Y-53995000D01*
X41274655Y-53995000D01*
X41215127Y-54001401D01*
X41215120Y-54001403D01*
X41080413Y-54051645D01*
X41080406Y-54051649D01*
X40965312Y-54137809D01*
X40965309Y-54137812D01*
X40879149Y-54252906D01*
X40879145Y-54252913D01*
X40828903Y-54387620D01*
X40828901Y-54387627D01*
X40822500Y-54447155D01*
X33150500Y-54447155D01*
X33150500Y-54336535D01*
X33110130Y-54133580D01*
X33030941Y-53942402D01*
X32915977Y-53770345D01*
X32915975Y-53770342D01*
X32769657Y-53624024D01*
X32683626Y-53566541D01*
X32597598Y-53509059D01*
X32593979Y-53507560D01*
X32406420Y-53429870D01*
X32406412Y-53429868D01*
X32203469Y-53389500D01*
X32203465Y-53389500D01*
X31996535Y-53389500D01*
X31996530Y-53389500D01*
X31793587Y-53429868D01*
X31793579Y-53429870D01*
X31602403Y-53509058D01*
X31430342Y-53624024D01*
X31284024Y-53770342D01*
X31169058Y-53942403D01*
X31089870Y-54133579D01*
X31089868Y-54133587D01*
X31049500Y-54336530D01*
X500500Y-54336530D01*
X500500Y-51751126D01*
X17430000Y-51751126D01*
X17430000Y-52125000D01*
X17880000Y-52125000D01*
X17880000Y-52625000D01*
X17430000Y-52625000D01*
X17430000Y-52998873D01*
X17458820Y-53143759D01*
X17458822Y-53143767D01*
X17515357Y-53280254D01*
X17515362Y-53280264D01*
X17597436Y-53403096D01*
X17597439Y-53403100D01*
X17701899Y-53507560D01*
X17701907Y-53507566D01*
X17824739Y-53589640D01*
X17824743Y-53589642D01*
X17929999Y-53633240D01*
X17930000Y-53633240D01*
X17930000Y-53091988D01*
X17939940Y-53109205D01*
X17995795Y-53165060D01*
X18064204Y-53204556D01*
X18140504Y-53225000D01*
X18219496Y-53225000D01*
X18295796Y-53204556D01*
X18364205Y-53165060D01*
X18420060Y-53109205D01*
X18430000Y-53091988D01*
X18430000Y-53633240D01*
X18535256Y-53589642D01*
X18535260Y-53589640D01*
X18658092Y-53507566D01*
X18658100Y-53507560D01*
X18762560Y-53403100D01*
X18762563Y-53403096D01*
X18844637Y-53280264D01*
X18844642Y-53280254D01*
X18901177Y-53143767D01*
X18901179Y-53143759D01*
X18918091Y-53058740D01*
X18950475Y-52996829D01*
X19011191Y-52962255D01*
X19080960Y-52965994D01*
X19137633Y-53006860D01*
X19159482Y-53050835D01*
X19166904Y-53078533D01*
X19166905Y-53078536D01*
X19229505Y-53186964D01*
X19318036Y-53275495D01*
X19426464Y-53338095D01*
X19547399Y-53370500D01*
X19547401Y-53370500D01*
X19672599Y-53370500D01*
X19672601Y-53370500D01*
X19793536Y-53338095D01*
X19901964Y-53275495D01*
X19990495Y-53186964D01*
X20053095Y-53078536D01*
X20085500Y-52957601D01*
X20085500Y-52832399D01*
X20053095Y-52711464D01*
X19990495Y-52603036D01*
X19901964Y-52514505D01*
X19793536Y-52451905D01*
X19793537Y-52451905D01*
X19753224Y-52441103D01*
X19672601Y-52419500D01*
X19547399Y-52419500D01*
X19466775Y-52441103D01*
X19426463Y-52451905D01*
X19318037Y-52514504D01*
X19318034Y-52514506D01*
X19229506Y-52603034D01*
X19229504Y-52603037D01*
X19162842Y-52718502D01*
X19160676Y-52717251D01*
X19124717Y-52761871D01*
X19058423Y-52783934D01*
X18990724Y-52766653D01*
X18943115Y-52715515D01*
X18930000Y-52660013D01*
X18930000Y-52625000D01*
X18480000Y-52625000D01*
X18480000Y-52125000D01*
X18930000Y-52125000D01*
X18930000Y-51751128D01*
X18929999Y-51751126D01*
X18901179Y-51606240D01*
X18901177Y-51606232D01*
X18844642Y-51469745D01*
X18844637Y-51469735D01*
X18762563Y-51346903D01*
X18762560Y-51346899D01*
X18658100Y-51242439D01*
X18658096Y-51242436D01*
X18535264Y-51160362D01*
X18535254Y-51160357D01*
X18430000Y-51116759D01*
X18430000Y-51658011D01*
X18420060Y-51640795D01*
X18364205Y-51584940D01*
X18295796Y-51545444D01*
X18219496Y-51525000D01*
X18140504Y-51525000D01*
X18064204Y-51545444D01*
X17995795Y-51584940D01*
X17939940Y-51640795D01*
X17930000Y-51658011D01*
X17930000Y-51116759D01*
X17929999Y-51116759D01*
X17824745Y-51160357D01*
X17824735Y-51160362D01*
X17701903Y-51242436D01*
X17701899Y-51242439D01*
X17597439Y-51346899D01*
X17597436Y-51346903D01*
X17515362Y-51469735D01*
X17515357Y-51469745D01*
X17458822Y-51606232D01*
X17458820Y-51606240D01*
X17430000Y-51751126D01*
X500500Y-51751126D01*
X500500Y-48851405D01*
X825000Y-48851405D01*
X825000Y-49113594D01*
X859220Y-49373509D01*
X859222Y-49373520D01*
X927075Y-49626755D01*
X1027404Y-49868971D01*
X1027409Y-49868982D01*
X1158488Y-50096016D01*
X1158494Y-50096024D01*
X1245080Y-50208865D01*
X1852912Y-49601032D01*
X1947829Y-49731675D01*
X2075825Y-49859671D01*
X2206465Y-49954586D01*
X1598633Y-50562417D01*
X1598633Y-50562418D01*
X1711475Y-50649005D01*
X1711483Y-50649011D01*
X1938517Y-50780090D01*
X1938528Y-50780095D01*
X2180744Y-50880424D01*
X2433979Y-50948277D01*
X2433990Y-50948279D01*
X2693905Y-50982499D01*
X2693920Y-50982500D01*
X2956080Y-50982500D01*
X2956094Y-50982499D01*
X3216009Y-50948279D01*
X3216020Y-50948277D01*
X3469255Y-50880424D01*
X3711471Y-50780095D01*
X3711482Y-50780090D01*
X3938516Y-50649011D01*
X3938534Y-50648999D01*
X4051365Y-50562419D01*
X4051365Y-50562417D01*
X3443534Y-49954586D01*
X3574175Y-49859671D01*
X3702171Y-49731675D01*
X3797086Y-49601034D01*
X4404917Y-50208865D01*
X4404919Y-50208865D01*
X4491499Y-50096034D01*
X4491511Y-50096016D01*
X4622590Y-49868982D01*
X4622595Y-49868971D01*
X4722924Y-49626755D01*
X4790777Y-49373520D01*
X4790779Y-49373509D01*
X4824999Y-49113594D01*
X4825000Y-49113580D01*
X4825000Y-48851419D01*
X4824999Y-48851405D01*
X14175000Y-48851405D01*
X14175000Y-49113594D01*
X14209220Y-49373509D01*
X14209222Y-49373520D01*
X14277075Y-49626755D01*
X14377404Y-49868971D01*
X14377409Y-49868982D01*
X14508488Y-50096016D01*
X14508494Y-50096024D01*
X14595080Y-50208865D01*
X15202912Y-49601032D01*
X15297829Y-49731675D01*
X15425825Y-49859671D01*
X15556465Y-49954586D01*
X14948633Y-50562417D01*
X14948633Y-50562418D01*
X15061475Y-50649005D01*
X15061483Y-50649011D01*
X15288517Y-50780090D01*
X15288528Y-50780095D01*
X15530744Y-50880424D01*
X15783979Y-50948277D01*
X15783990Y-50948279D01*
X16043905Y-50982499D01*
X16043920Y-50982500D01*
X16306080Y-50982500D01*
X16306094Y-50982499D01*
X16566009Y-50948279D01*
X16566020Y-50948277D01*
X16819255Y-50880424D01*
X17061471Y-50780095D01*
X17061482Y-50780090D01*
X17288516Y-50649011D01*
X17288534Y-50648999D01*
X17401365Y-50562419D01*
X17401365Y-50562417D01*
X16793534Y-49954586D01*
X16924175Y-49859671D01*
X17052171Y-49731675D01*
X17147086Y-49601034D01*
X17754917Y-50208865D01*
X17754919Y-50208865D01*
X17841499Y-50096034D01*
X17841511Y-50096016D01*
X17972590Y-49868982D01*
X17972595Y-49868971D01*
X18072924Y-49626755D01*
X18140777Y-49373520D01*
X18140779Y-49373509D01*
X18174999Y-49113594D01*
X18175000Y-49113580D01*
X18175000Y-48851419D01*
X18174999Y-48851405D01*
X18140779Y-48591490D01*
X18140777Y-48591479D01*
X18072924Y-48338244D01*
X17972595Y-48096028D01*
X17972590Y-48096017D01*
X17841511Y-47868983D01*
X17841505Y-47868975D01*
X17754918Y-47756133D01*
X17754917Y-47756133D01*
X17147085Y-48363964D01*
X17052171Y-48233325D01*
X16924175Y-48105329D01*
X16793532Y-48010412D01*
X17401365Y-47402580D01*
X17288524Y-47315994D01*
X17288516Y-47315988D01*
X17061482Y-47184909D01*
X17061471Y-47184904D01*
X16819255Y-47084575D01*
X16566020Y-47016722D01*
X16566009Y-47016720D01*
X16306094Y-46982500D01*
X16043905Y-46982500D01*
X15783990Y-47016720D01*
X15783979Y-47016722D01*
X15530744Y-47084575D01*
X15288528Y-47184904D01*
X15288517Y-47184909D01*
X15061471Y-47315996D01*
X14948633Y-47402579D01*
X14948633Y-47402580D01*
X15556466Y-48010413D01*
X15425825Y-48105329D01*
X15297829Y-48233325D01*
X15202913Y-48363966D01*
X14595080Y-47756133D01*
X14595079Y-47756133D01*
X14508496Y-47868971D01*
X14377409Y-48096017D01*
X14377404Y-48096028D01*
X14277075Y-48338244D01*
X14209222Y-48591479D01*
X14209220Y-48591490D01*
X14175000Y-48851405D01*
X4824999Y-48851405D01*
X4790779Y-48591490D01*
X4790777Y-48591479D01*
X4722924Y-48338244D01*
X4622595Y-48096028D01*
X4622590Y-48096017D01*
X4491511Y-47868983D01*
X4491505Y-47868975D01*
X4404918Y-47756133D01*
X4404917Y-47756133D01*
X3797085Y-48363964D01*
X3702171Y-48233325D01*
X3574175Y-48105329D01*
X3443532Y-48010412D01*
X4051365Y-47402580D01*
X3938524Y-47315994D01*
X3938516Y-47315988D01*
X3711482Y-47184909D01*
X3711471Y-47184904D01*
X3469255Y-47084575D01*
X3216020Y-47016722D01*
X3216009Y-47016720D01*
X2956094Y-46982500D01*
X2693905Y-46982500D01*
X2433990Y-47016720D01*
X2433979Y-47016722D01*
X2180744Y-47084575D01*
X1938528Y-47184904D01*
X1938517Y-47184909D01*
X1711471Y-47315996D01*
X1598633Y-47402579D01*
X1598633Y-47402580D01*
X2206466Y-48010413D01*
X2075825Y-48105329D01*
X1947829Y-48233325D01*
X1852913Y-48363966D01*
X1245080Y-47756133D01*
X1245079Y-47756133D01*
X1158496Y-47868971D01*
X1027409Y-48096017D01*
X1027404Y-48096028D01*
X927075Y-48338244D01*
X859222Y-48591479D01*
X859220Y-48591490D01*
X825000Y-48851405D01*
X500500Y-48851405D01*
X500500Y-45490747D01*
X5037500Y-45490747D01*
X5037500Y-47054252D01*
X5049131Y-47112729D01*
X5049132Y-47112730D01*
X5093447Y-47179052D01*
X5159769Y-47223367D01*
X5159770Y-47223368D01*
X5218247Y-47234999D01*
X5218250Y-47235000D01*
X5218252Y-47235000D01*
X6781750Y-47235000D01*
X6781751Y-47234999D01*
X6796568Y-47232052D01*
X6840229Y-47223368D01*
X6840229Y-47223367D01*
X6840231Y-47223367D01*
X6906552Y-47179052D01*
X6950867Y-47112731D01*
X6950867Y-47112729D01*
X6950868Y-47112729D01*
X6962499Y-47054252D01*
X6962500Y-47054250D01*
X6962500Y-46177697D01*
X7537500Y-46177697D01*
X7537500Y-46367302D01*
X7574486Y-46553243D01*
X7574488Y-46553251D01*
X7647042Y-46728412D01*
X7752377Y-46886058D01*
X7886441Y-47020122D01*
X7982902Y-47084575D01*
X8044085Y-47125456D01*
X8219249Y-47198012D01*
X8405197Y-47234999D01*
X8405201Y-47235000D01*
X8405202Y-47235000D01*
X8594799Y-47235000D01*
X8594800Y-47234999D01*
X8780751Y-47198012D01*
X8955915Y-47125456D01*
X9113558Y-47020122D01*
X9247622Y-46886058D01*
X9352956Y-46728415D01*
X9385439Y-46649995D01*
X9429280Y-46595591D01*
X9495574Y-46573526D01*
X9563273Y-46590805D01*
X9610884Y-46641942D01*
X9614561Y-46649995D01*
X9647041Y-46728410D01*
X9647042Y-46728412D01*
X9752377Y-46886058D01*
X9886441Y-47020122D01*
X9982902Y-47084575D01*
X10044085Y-47125456D01*
X10219249Y-47198012D01*
X10405197Y-47234999D01*
X10405201Y-47235000D01*
X10405202Y-47235000D01*
X10594799Y-47235000D01*
X10594800Y-47234999D01*
X10780751Y-47198012D01*
X10955915Y-47125456D01*
X11113558Y-47020122D01*
X11116960Y-47016720D01*
X11123848Y-47009833D01*
X11247619Y-46886061D01*
X11247622Y-46886058D01*
X11352956Y-46728415D01*
X11425512Y-46553251D01*
X11462500Y-46367298D01*
X11462500Y-46177702D01*
X11461529Y-46172822D01*
X11988000Y-46172822D01*
X11988000Y-46372177D01*
X12026888Y-46567682D01*
X12026890Y-46567690D01*
X12103176Y-46751860D01*
X12128774Y-46790170D01*
X12128775Y-46790171D01*
X12549697Y-46369248D01*
X12571349Y-46450053D01*
X12631909Y-46554946D01*
X12717554Y-46640591D01*
X12822447Y-46701151D01*
X12903250Y-46722802D01*
X12482327Y-47143725D01*
X12520632Y-47169319D01*
X12520640Y-47169324D01*
X12704809Y-47245609D01*
X12704817Y-47245611D01*
X12900322Y-47284499D01*
X12900326Y-47284500D01*
X13099674Y-47284500D01*
X13099677Y-47284499D01*
X13295182Y-47245611D01*
X13295190Y-47245609D01*
X13479360Y-47169323D01*
X13479366Y-47169320D01*
X13517671Y-47143725D01*
X13517671Y-47143724D01*
X13096749Y-46722802D01*
X13177553Y-46701151D01*
X13282446Y-46640591D01*
X13368091Y-46554946D01*
X13428651Y-46450053D01*
X13450302Y-46369248D01*
X13871225Y-46790171D01*
X13896820Y-46751866D01*
X13896823Y-46751860D01*
X13973109Y-46567690D01*
X13973111Y-46567682D01*
X14011999Y-46372177D01*
X14012000Y-46372174D01*
X14012000Y-46172826D01*
X14011999Y-46172822D01*
X13973111Y-45977317D01*
X13973109Y-45977309D01*
X13896824Y-45793140D01*
X13896819Y-45793132D01*
X13871225Y-45754827D01*
X13450302Y-46175750D01*
X13428651Y-46094947D01*
X13368091Y-45990054D01*
X13282446Y-45904409D01*
X13177553Y-45843849D01*
X13096749Y-45822197D01*
X13517671Y-45401275D01*
X13517670Y-45401274D01*
X13479360Y-45375676D01*
X13295190Y-45299390D01*
X13295182Y-45299388D01*
X13099677Y-45260500D01*
X12900322Y-45260500D01*
X12704817Y-45299388D01*
X12704809Y-45299390D01*
X12520639Y-45375676D01*
X12482327Y-45401274D01*
X12903250Y-45822197D01*
X12822447Y-45843849D01*
X12717554Y-45904409D01*
X12631909Y-45990054D01*
X12571349Y-46094947D01*
X12549697Y-46175750D01*
X12128774Y-45754827D01*
X12103176Y-45793139D01*
X12026890Y-45977309D01*
X12026888Y-45977317D01*
X11988000Y-46172822D01*
X11461529Y-46172822D01*
X11457058Y-46150345D01*
X11446039Y-46094947D01*
X11425512Y-45991749D01*
X11352956Y-45816585D01*
X11311691Y-45754827D01*
X11247622Y-45658941D01*
X11113558Y-45524877D01*
X10955912Y-45419542D01*
X10780751Y-45346988D01*
X10780743Y-45346986D01*
X10594802Y-45310000D01*
X10594798Y-45310000D01*
X10405202Y-45310000D01*
X10405197Y-45310000D01*
X10219256Y-45346986D01*
X10219248Y-45346988D01*
X10044087Y-45419542D01*
X9886441Y-45524877D01*
X9752377Y-45658941D01*
X9647042Y-45816587D01*
X9614561Y-45895005D01*
X9570720Y-45949408D01*
X9504426Y-45971473D01*
X9436726Y-45954194D01*
X9389116Y-45903056D01*
X9385439Y-45895005D01*
X9352957Y-45816587D01*
X9337290Y-45793140D01*
X9311691Y-45754827D01*
X9247622Y-45658941D01*
X9113558Y-45524877D01*
X9019312Y-45461904D01*
X8955915Y-45419544D01*
X8955912Y-45419542D01*
X8955911Y-45419542D01*
X8950243Y-45417194D01*
X8895841Y-45373352D01*
X8873777Y-45307058D01*
X8891057Y-45239359D01*
X8910013Y-45214957D01*
X9222052Y-44902919D01*
X9283375Y-44869434D01*
X9309733Y-44866600D01*
X16323167Y-44866600D01*
X16390206Y-44886285D01*
X16410848Y-44902919D01*
X21550294Y-50042365D01*
X21583779Y-50103688D01*
X21578795Y-50173380D01*
X21570001Y-50192045D01*
X21532608Y-50256811D01*
X21505083Y-50359540D01*
X21498500Y-50384108D01*
X21498500Y-50515892D01*
X21510967Y-50562419D01*
X21532608Y-50643187D01*
X21535971Y-50649011D01*
X21598500Y-50757314D01*
X21691686Y-50850500D01*
X21805814Y-50916392D01*
X21933108Y-50950500D01*
X21933110Y-50950500D01*
X22064890Y-50950500D01*
X22064892Y-50950500D01*
X22192186Y-50916392D01*
X22306314Y-50850500D01*
X22399500Y-50757314D01*
X22465392Y-50643186D01*
X22465392Y-50643183D01*
X22468422Y-50635870D01*
X22489013Y-50610314D01*
X22508675Y-50584051D01*
X22510821Y-50583250D01*
X22512260Y-50581465D01*
X22543401Y-50571098D01*
X22574139Y-50559634D01*
X22576378Y-50560121D01*
X22578554Y-50559397D01*
X22610361Y-50567513D01*
X22642412Y-50574486D01*
X22644857Y-50576316D01*
X22646254Y-50576673D01*
X22670666Y-50595637D01*
X22763181Y-50688152D01*
X22796666Y-50749475D01*
X22799500Y-50775833D01*
X22799500Y-52445107D01*
X22779815Y-52512146D01*
X22747739Y-52542732D01*
X22749135Y-52544552D01*
X22742683Y-52549502D01*
X22649502Y-52642683D01*
X22649500Y-52642686D01*
X22583608Y-52756812D01*
X22549500Y-52884108D01*
X22549500Y-53015891D01*
X22583608Y-53143187D01*
X22583943Y-53143767D01*
X22649500Y-53257314D01*
X22742686Y-53350500D01*
X22856814Y-53416392D01*
X22984108Y-53450500D01*
X22984110Y-53450500D01*
X23115890Y-53450500D01*
X23115892Y-53450500D01*
X23243186Y-53416392D01*
X23357314Y-53350500D01*
X23450500Y-53257314D01*
X23516392Y-53143186D01*
X23550500Y-53015892D01*
X23550500Y-52884108D01*
X23536645Y-52832399D01*
X24914500Y-52832399D01*
X24914500Y-52957601D01*
X24946905Y-53078536D01*
X25009505Y-53186964D01*
X25098036Y-53275495D01*
X25206464Y-53338095D01*
X25327399Y-53370500D01*
X25327401Y-53370500D01*
X25452599Y-53370500D01*
X25452601Y-53370500D01*
X25573536Y-53338095D01*
X25681964Y-53275495D01*
X25770495Y-53186964D01*
X25833095Y-53078536D01*
X25840517Y-53050835D01*
X25876880Y-52991178D01*
X25939727Y-52960648D01*
X26009103Y-52968942D01*
X26062981Y-53013427D01*
X26081908Y-53058739D01*
X26098820Y-53143761D01*
X26098822Y-53143767D01*
X26155357Y-53280254D01*
X26155362Y-53280264D01*
X26237436Y-53403096D01*
X26237439Y-53403100D01*
X26341899Y-53507560D01*
X26341907Y-53507566D01*
X26464739Y-53589640D01*
X26464743Y-53589642D01*
X26569999Y-53633240D01*
X26570000Y-53633240D01*
X26570000Y-53091988D01*
X26579940Y-53109205D01*
X26635795Y-53165060D01*
X26704204Y-53204556D01*
X26780504Y-53225000D01*
X26859496Y-53225000D01*
X26935796Y-53204556D01*
X27004205Y-53165060D01*
X27060060Y-53109205D01*
X27070000Y-53091988D01*
X27070000Y-53633240D01*
X27175256Y-53589642D01*
X27175260Y-53589640D01*
X27298092Y-53507566D01*
X27298100Y-53507560D01*
X27402560Y-53403100D01*
X27402563Y-53403096D01*
X27484637Y-53280264D01*
X27484642Y-53280254D01*
X27541177Y-53143767D01*
X27541179Y-53143759D01*
X27569999Y-52998873D01*
X27570000Y-52998871D01*
X27570000Y-52625000D01*
X27120000Y-52625000D01*
X27120000Y-52125000D01*
X27570000Y-52125000D01*
X27570000Y-51796530D01*
X31049500Y-51796530D01*
X31049500Y-52003469D01*
X31089868Y-52206412D01*
X31089870Y-52206420D01*
X31169059Y-52397598D01*
X31200803Y-52445107D01*
X31284024Y-52569657D01*
X31430342Y-52715975D01*
X31430345Y-52715977D01*
X31602402Y-52830941D01*
X31793580Y-52910130D01*
X31996530Y-52950499D01*
X31996534Y-52950500D01*
X31996535Y-52950500D01*
X32203466Y-52950500D01*
X32203467Y-52950499D01*
X32406420Y-52910130D01*
X32597598Y-52830941D01*
X32769655Y-52715977D01*
X32915977Y-52569655D01*
X33030941Y-52397598D01*
X33110130Y-52206420D01*
X33150500Y-52003465D01*
X33150500Y-51796535D01*
X33110130Y-51593580D01*
X33030941Y-51402402D01*
X32915977Y-51230345D01*
X32915975Y-51230342D01*
X32769657Y-51084024D01*
X32617714Y-50982500D01*
X32597598Y-50969059D01*
X32552790Y-50950499D01*
X32406420Y-50889870D01*
X32406412Y-50889868D01*
X32203469Y-50849500D01*
X32203465Y-50849500D01*
X31996535Y-50849500D01*
X31996530Y-50849500D01*
X31793587Y-50889868D01*
X31793579Y-50889870D01*
X31602403Y-50969058D01*
X31430342Y-51084024D01*
X31284024Y-51230342D01*
X31169058Y-51402403D01*
X31089870Y-51593579D01*
X31089868Y-51593587D01*
X31049500Y-51796530D01*
X27570000Y-51796530D01*
X27570000Y-51751128D01*
X27569999Y-51751126D01*
X27541179Y-51606240D01*
X27541177Y-51606232D01*
X27484642Y-51469745D01*
X27484637Y-51469735D01*
X27402563Y-51346903D01*
X27402560Y-51346899D01*
X27298100Y-51242439D01*
X27298096Y-51242436D01*
X27175264Y-51160362D01*
X27175254Y-51160357D01*
X27070000Y-51116759D01*
X27070000Y-51658011D01*
X27060060Y-51640795D01*
X27004205Y-51584940D01*
X26935796Y-51545444D01*
X26859496Y-51525000D01*
X26780504Y-51525000D01*
X26704204Y-51545444D01*
X26635795Y-51584940D01*
X26579940Y-51640795D01*
X26570000Y-51658011D01*
X26570000Y-51116759D01*
X26569999Y-51116759D01*
X26464745Y-51160357D01*
X26464735Y-51160362D01*
X26341903Y-51242436D01*
X26341899Y-51242439D01*
X26237439Y-51346899D01*
X26237436Y-51346903D01*
X26155362Y-51469735D01*
X26155357Y-51469745D01*
X26098822Y-51606232D01*
X26098820Y-51606240D01*
X26070000Y-51751126D01*
X26070000Y-52125000D01*
X26520000Y-52125000D01*
X26520000Y-52625000D01*
X26070000Y-52625000D01*
X26070000Y-52660013D01*
X26050315Y-52727052D01*
X25997511Y-52772807D01*
X25928353Y-52782751D01*
X25864797Y-52753726D01*
X25838738Y-52717589D01*
X25837158Y-52718502D01*
X25803390Y-52660013D01*
X25770495Y-52603036D01*
X25681964Y-52514505D01*
X25573536Y-52451905D01*
X25573537Y-52451905D01*
X25533224Y-52441103D01*
X25452601Y-52419500D01*
X25327399Y-52419500D01*
X25246775Y-52441103D01*
X25206463Y-52451905D01*
X25098037Y-52514504D01*
X25098034Y-52514506D01*
X25009506Y-52603034D01*
X25009504Y-52603037D01*
X24946905Y-52711463D01*
X24945354Y-52717251D01*
X24914500Y-52832399D01*
X23536645Y-52832399D01*
X23516392Y-52756814D01*
X23450500Y-52642686D01*
X23436819Y-52629005D01*
X23403334Y-52567682D01*
X23400500Y-52541324D01*
X23400500Y-50560439D01*
X23400415Y-50560121D01*
X23380021Y-50484011D01*
X23345646Y-50424471D01*
X23340464Y-50415495D01*
X23340458Y-50415487D01*
X22181501Y-49256530D01*
X31049500Y-49256530D01*
X31049500Y-49463469D01*
X31081980Y-49626755D01*
X31089870Y-49666420D01*
X31169059Y-49857598D01*
X31226541Y-49943626D01*
X31284024Y-50029657D01*
X31430342Y-50175975D01*
X31430345Y-50175977D01*
X31602402Y-50290941D01*
X31793580Y-50370130D01*
X31996530Y-50410499D01*
X31996534Y-50410500D01*
X31996535Y-50410500D01*
X32203466Y-50410500D01*
X32203467Y-50410499D01*
X32406420Y-50370130D01*
X32462497Y-50346902D01*
X40872000Y-50346902D01*
X40872000Y-50583097D01*
X40908946Y-50816368D01*
X40981933Y-51040996D01*
X41078412Y-51230345D01*
X41089157Y-51251433D01*
X41227983Y-51442510D01*
X41394990Y-51609517D01*
X41586067Y-51748343D01*
X41659000Y-51785504D01*
X41796503Y-51855566D01*
X41796505Y-51855566D01*
X41796508Y-51855568D01*
X41916912Y-51894689D01*
X42021131Y-51928553D01*
X42254403Y-51965500D01*
X42254408Y-51965500D01*
X42490597Y-51965500D01*
X42723868Y-51928553D01*
X42948492Y-51855568D01*
X43158933Y-51748343D01*
X43350010Y-51609517D01*
X43517017Y-51442510D01*
X43655843Y-51251433D01*
X43763068Y-51040992D01*
X43836053Y-50816368D01*
X43845406Y-50757314D01*
X43873000Y-50583097D01*
X43873000Y-50346902D01*
X43836053Y-50113631D01*
X43763066Y-49889003D01*
X43655842Y-49678566D01*
X43517017Y-49487490D01*
X43350010Y-49320483D01*
X43158933Y-49181657D01*
X42948496Y-49074433D01*
X42723868Y-49001446D01*
X42490597Y-48964500D01*
X42490592Y-48964500D01*
X42254408Y-48964500D01*
X42254403Y-48964500D01*
X42021131Y-49001446D01*
X41796503Y-49074433D01*
X41586066Y-49181657D01*
X41489535Y-49251792D01*
X41394990Y-49320483D01*
X41394988Y-49320485D01*
X41394987Y-49320485D01*
X41227985Y-49487487D01*
X41227985Y-49487488D01*
X41227983Y-49487490D01*
X41168362Y-49569550D01*
X41089157Y-49678566D01*
X40981933Y-49889003D01*
X40908946Y-50113631D01*
X40872000Y-50346902D01*
X32462497Y-50346902D01*
X32597598Y-50290941D01*
X32769655Y-50175977D01*
X32915977Y-50029655D01*
X33030941Y-49857598D01*
X33110130Y-49666420D01*
X33150500Y-49463465D01*
X33150500Y-49256535D01*
X33110130Y-49053580D01*
X33030941Y-48862402D01*
X32915977Y-48690345D01*
X32915975Y-48690342D01*
X32769657Y-48544024D01*
X32683626Y-48486541D01*
X32597598Y-48429059D01*
X32406420Y-48349870D01*
X32406412Y-48349868D01*
X32203469Y-48309500D01*
X32203465Y-48309500D01*
X31996535Y-48309500D01*
X31996530Y-48309500D01*
X31793587Y-48349868D01*
X31793579Y-48349870D01*
X31602403Y-48429058D01*
X31430342Y-48544024D01*
X31284024Y-48690342D01*
X31169058Y-48862403D01*
X31089870Y-49053579D01*
X31089868Y-49053587D01*
X31049500Y-49256530D01*
X22181501Y-49256530D01*
X19641501Y-46716530D01*
X31049500Y-46716530D01*
X31049500Y-46923469D01*
X31089868Y-47126412D01*
X31089870Y-47126420D01*
X31169058Y-47317596D01*
X31284024Y-47489657D01*
X31430342Y-47635975D01*
X31430345Y-47635977D01*
X31602402Y-47750941D01*
X31793580Y-47830130D01*
X31996530Y-47870499D01*
X31996534Y-47870500D01*
X31996535Y-47870500D01*
X32203466Y-47870500D01*
X32203467Y-47870499D01*
X32406420Y-47830130D01*
X32597598Y-47750941D01*
X32769655Y-47635977D01*
X32915977Y-47489655D01*
X33030941Y-47317598D01*
X33110130Y-47126420D01*
X33150500Y-46923465D01*
X33150500Y-46716535D01*
X33110130Y-46513580D01*
X33030941Y-46322402D01*
X32915977Y-46150345D01*
X32915975Y-46150342D01*
X32769657Y-46004024D01*
X32618546Y-45903056D01*
X32597598Y-45889059D01*
X32406420Y-45809870D01*
X32406412Y-45809868D01*
X32203469Y-45769500D01*
X32203465Y-45769500D01*
X31996535Y-45769500D01*
X31996530Y-45769500D01*
X31793587Y-45809868D01*
X31793579Y-45809870D01*
X31602403Y-45889058D01*
X31430342Y-46004024D01*
X31284024Y-46150342D01*
X31169058Y-46322403D01*
X31089870Y-46513579D01*
X31089868Y-46513587D01*
X31049500Y-46716530D01*
X19641501Y-46716530D01*
X17579414Y-44654443D01*
X17545929Y-44593120D01*
X17550913Y-44523428D01*
X17559711Y-44504757D01*
X17566391Y-44493188D01*
X17575657Y-44458607D01*
X17600500Y-44365892D01*
X17600500Y-44234108D01*
X17566392Y-44106814D01*
X17500500Y-43992686D01*
X17407314Y-43899500D01*
X17341421Y-43861456D01*
X17293185Y-43833607D01*
X17293186Y-43833607D01*
X17292399Y-43833397D01*
X17291810Y-43833038D01*
X17285682Y-43830500D01*
X17286078Y-43829543D01*
X17232741Y-43797028D01*
X17202216Y-43734179D01*
X17200500Y-43713624D01*
X17200500Y-42885258D01*
X39749500Y-42885258D01*
X39749500Y-43114741D01*
X39774446Y-43304215D01*
X39779452Y-43342238D01*
X39824438Y-43510129D01*
X39838842Y-43563887D01*
X39926650Y-43775876D01*
X39926657Y-43775890D01*
X40041392Y-43974617D01*
X40181081Y-44156661D01*
X40181089Y-44156670D01*
X40343330Y-44318911D01*
X40343338Y-44318918D01*
X40343339Y-44318919D01*
X40352098Y-44325640D01*
X40525382Y-44458607D01*
X40525385Y-44458608D01*
X40525388Y-44458611D01*
X40724112Y-44573344D01*
X40724117Y-44573346D01*
X40724123Y-44573349D01*
X40771855Y-44593120D01*
X40936113Y-44661158D01*
X41157762Y-44720548D01*
X41385266Y-44750500D01*
X41385273Y-44750500D01*
X41614727Y-44750500D01*
X41614734Y-44750500D01*
X41842238Y-44720548D01*
X42063887Y-44661158D01*
X42275888Y-44573344D01*
X42474612Y-44458611D01*
X42656661Y-44318919D01*
X42656665Y-44318914D01*
X42656670Y-44318911D01*
X42818911Y-44156670D01*
X42818914Y-44156665D01*
X42818919Y-44156661D01*
X42958611Y-43974612D01*
X43073344Y-43775888D01*
X43161158Y-43563887D01*
X43220548Y-43342238D01*
X43250500Y-43114734D01*
X43250500Y-42885266D01*
X43220548Y-42657762D01*
X43161158Y-42436113D01*
X43107680Y-42307007D01*
X43073349Y-42224123D01*
X43073346Y-42224117D01*
X43073344Y-42224112D01*
X42958611Y-42025388D01*
X42958608Y-42025385D01*
X42958607Y-42025382D01*
X42818918Y-41843338D01*
X42818911Y-41843330D01*
X42656670Y-41681089D01*
X42656661Y-41681081D01*
X42474617Y-41541392D01*
X42275890Y-41426657D01*
X42275876Y-41426650D01*
X42063887Y-41338842D01*
X41842238Y-41279452D01*
X41804215Y-41274446D01*
X41614741Y-41249500D01*
X41614734Y-41249500D01*
X41385266Y-41249500D01*
X41385258Y-41249500D01*
X41168715Y-41278009D01*
X41157762Y-41279452D01*
X41064076Y-41304554D01*
X40936112Y-41338842D01*
X40724123Y-41426650D01*
X40724109Y-41426657D01*
X40525382Y-41541392D01*
X40343338Y-41681081D01*
X40181081Y-41843338D01*
X40041392Y-42025382D01*
X39926657Y-42224109D01*
X39926650Y-42224123D01*
X39838842Y-42436112D01*
X39779453Y-42657759D01*
X39779451Y-42657770D01*
X39749500Y-42885258D01*
X17200500Y-42885258D01*
X17200500Y-33675832D01*
X17220185Y-33608793D01*
X17236815Y-33588155D01*
X17667957Y-33157012D01*
X17729280Y-33123528D01*
X17798972Y-33128512D01*
X17854905Y-33170384D01*
X17875412Y-33212598D01*
X17883608Y-33243186D01*
X17949500Y-33357314D01*
X18042686Y-33450500D01*
X18113648Y-33491470D01*
X18151626Y-33513397D01*
X18156814Y-33516392D01*
X18284108Y-33550500D01*
X18284110Y-33550500D01*
X18415890Y-33550500D01*
X18415892Y-33550500D01*
X18543186Y-33516392D01*
X18657314Y-33450500D01*
X18750500Y-33357314D01*
X18816392Y-33243186D01*
X18816393Y-33243180D01*
X18819504Y-33235674D01*
X18820842Y-33236228D01*
X18848111Y-33188990D01*
X19450284Y-32586819D01*
X19511607Y-32553334D01*
X19537965Y-32550500D01*
X22359308Y-32550500D01*
X22359309Y-32550500D01*
X22449673Y-32526286D01*
X22473887Y-32519799D01*
X22576614Y-32460489D01*
X22837819Y-32199284D01*
X22899142Y-32165799D01*
X22968834Y-32170783D01*
X23024767Y-32212655D01*
X23049184Y-32278119D01*
X23049500Y-32286965D01*
X23049500Y-33462033D01*
X23040855Y-33491470D01*
X23034332Y-33521461D01*
X23030577Y-33526476D01*
X23029815Y-33529072D01*
X23013180Y-33549715D01*
X22961006Y-33601888D01*
X22913774Y-33629159D01*
X22914328Y-33630495D01*
X22906816Y-33633606D01*
X22792689Y-33699498D01*
X22792683Y-33699502D01*
X22699502Y-33792683D01*
X22699500Y-33792686D01*
X22633608Y-33906812D01*
X22599500Y-34034108D01*
X22599500Y-34165891D01*
X22633608Y-34293187D01*
X22666554Y-34350250D01*
X22699500Y-34407314D01*
X22792686Y-34500500D01*
X22906814Y-34566392D01*
X23034108Y-34600500D01*
X23034110Y-34600500D01*
X23165890Y-34600500D01*
X23165892Y-34600500D01*
X23293186Y-34566392D01*
X23407314Y-34500500D01*
X23500500Y-34407314D01*
X23566392Y-34293186D01*
X23566393Y-34293180D01*
X23569504Y-34285674D01*
X23570842Y-34286228D01*
X23598110Y-34238991D01*
X23860489Y-33976614D01*
X23900788Y-33906814D01*
X23900790Y-33906812D01*
X23919796Y-33873891D01*
X23919797Y-33873890D01*
X23919797Y-33873888D01*
X23919799Y-33873886D01*
X23950500Y-33759309D01*
X23950500Y-31533183D01*
X23970185Y-31466144D01*
X24022989Y-31420389D01*
X24092147Y-31410445D01*
X24136498Y-31425795D01*
X24190226Y-31456815D01*
X24203235Y-31464326D01*
X24206814Y-31466392D01*
X24334108Y-31500500D01*
X24334110Y-31500500D01*
X24465890Y-31500500D01*
X24465892Y-31500500D01*
X24593186Y-31466392D01*
X24593194Y-31466387D01*
X24600696Y-31463281D01*
X24601249Y-31464618D01*
X24653937Y-31450500D01*
X25762035Y-31450500D01*
X25829074Y-31470185D01*
X25849715Y-31486818D01*
X26004578Y-31641682D01*
X26151886Y-31788990D01*
X26179160Y-31836224D01*
X26180495Y-31835672D01*
X26183606Y-31843183D01*
X26183608Y-31843186D01*
X26249500Y-31957314D01*
X26342686Y-32050500D01*
X26456814Y-32116392D01*
X26456816Y-32116392D01*
X26464326Y-32119504D01*
X26463771Y-32120841D01*
X26469304Y-32124035D01*
X26482756Y-32126962D01*
X26511010Y-32148113D01*
X26613181Y-32250284D01*
X26646666Y-32311607D01*
X26649500Y-32337965D01*
X26649500Y-33646062D01*
X26635383Y-33698751D01*
X26636719Y-33699304D01*
X26633608Y-33706814D01*
X26599500Y-33834108D01*
X26599500Y-33965892D01*
X26602373Y-33976614D01*
X26633608Y-34093186D01*
X26636718Y-34100693D01*
X26635381Y-34101246D01*
X26649500Y-34153936D01*
X26649500Y-36453293D01*
X26640062Y-36500743D01*
X26638051Y-36505597D01*
X26638050Y-36505601D01*
X26603942Y-36632895D01*
X26603942Y-36764679D01*
X26636341Y-36885592D01*
X26638050Y-36891972D01*
X26640061Y-36896827D01*
X26649500Y-36944280D01*
X26649500Y-39062034D01*
X26629815Y-39129073D01*
X26613181Y-39149715D01*
X26061009Y-39701886D01*
X26054078Y-39706516D01*
X26051137Y-39710754D01*
X26036945Y-39717965D01*
X26020785Y-39728764D01*
X26013264Y-39731879D01*
X26006814Y-39733608D01*
X26001028Y-39736948D01*
X25993519Y-39740059D01*
X25973098Y-39742255D01*
X25946062Y-39749500D01*
X22837966Y-39749500D01*
X22770927Y-39729815D01*
X22750285Y-39713181D01*
X21798113Y-38761010D01*
X21770841Y-38713771D01*
X21769504Y-38714326D01*
X21766392Y-38706815D01*
X21766392Y-38706814D01*
X21700500Y-38592686D01*
X21607314Y-38499500D01*
X21550250Y-38466554D01*
X21493187Y-38433608D01*
X21429539Y-38416554D01*
X21365892Y-38399500D01*
X21243904Y-38399500D01*
X21176865Y-38379815D01*
X21156223Y-38363181D01*
X20636819Y-37843777D01*
X20603334Y-37782454D01*
X20600500Y-37756096D01*
X20600500Y-37634110D01*
X20600500Y-37634108D01*
X20566392Y-37506814D01*
X20500500Y-37392686D01*
X20407314Y-37299500D01*
X20305458Y-37240693D01*
X20293187Y-37233608D01*
X20229539Y-37216554D01*
X20165892Y-37199500D01*
X20034108Y-37199500D01*
X19906812Y-37233608D01*
X19792686Y-37299500D01*
X19792683Y-37299502D01*
X19699502Y-37392683D01*
X19699500Y-37392686D01*
X19633608Y-37506812D01*
X19609018Y-37598587D01*
X19599500Y-37634108D01*
X19599500Y-37765892D01*
X19613577Y-37818428D01*
X19633608Y-37893186D01*
X19636718Y-37900693D01*
X19636386Y-37900830D01*
X19638931Y-37903843D01*
X19642235Y-37919504D01*
X19648450Y-37937830D01*
X19649500Y-37945845D01*
X19649500Y-38003370D01*
X19662129Y-38050500D01*
X19664243Y-38058393D01*
X19664244Y-38058394D01*
X19680199Y-38117946D01*
X19704733Y-38160438D01*
X19739511Y-38220675D01*
X20779325Y-39260489D01*
X20882052Y-39319799D01*
X20906265Y-39326286D01*
X20996630Y-39350500D01*
X21056253Y-39350500D01*
X21066304Y-39352163D01*
X21083831Y-39360620D01*
X21098754Y-39364619D01*
X21099308Y-39363283D01*
X21114326Y-39369504D01*
X21113771Y-39370841D01*
X21161009Y-39398112D01*
X22323386Y-40560490D01*
X22392687Y-40600500D01*
X22426114Y-40619799D01*
X22540691Y-40650500D01*
X25946063Y-40650500D01*
X25998750Y-40664618D01*
X25999304Y-40663281D01*
X26006807Y-40666388D01*
X26006814Y-40666392D01*
X26134108Y-40700500D01*
X26134110Y-40700500D01*
X26265890Y-40700500D01*
X26265892Y-40700500D01*
X26393186Y-40666392D01*
X26507314Y-40600500D01*
X26600500Y-40507314D01*
X26666392Y-40393186D01*
X26666393Y-40393180D01*
X26669504Y-40385674D01*
X26670842Y-40386228D01*
X26698111Y-40338990D01*
X27460489Y-39576614D01*
X27519799Y-39473887D01*
X27528996Y-39439562D01*
X27550500Y-39359309D01*
X27550500Y-36960418D01*
X27567115Y-36898414D01*
X27570834Y-36891973D01*
X27604942Y-36764679D01*
X27604942Y-36632895D01*
X27570834Y-36505601D01*
X27567111Y-36499152D01*
X27550500Y-36437155D01*
X27550500Y-34153936D01*
X27564618Y-34101246D01*
X27563282Y-34100693D01*
X27566388Y-34093192D01*
X27566392Y-34093186D01*
X27600500Y-33965892D01*
X27600500Y-33834108D01*
X27566392Y-33706814D01*
X27566388Y-33706807D01*
X27563281Y-33699304D01*
X27564616Y-33698751D01*
X27550500Y-33646062D01*
X27550500Y-32040693D01*
X27550500Y-32040691D01*
X27519799Y-31926114D01*
X27519799Y-31926113D01*
X27460489Y-31823386D01*
X27148113Y-31511010D01*
X27120841Y-31463771D01*
X27119504Y-31464326D01*
X27116392Y-31456815D01*
X27116392Y-31456814D01*
X27050500Y-31342686D01*
X26957314Y-31249500D01*
X26843186Y-31183608D01*
X26843183Y-31183606D01*
X26835672Y-31180495D01*
X26836224Y-31179160D01*
X26788990Y-31151886D01*
X26276616Y-30639513D01*
X26276614Y-30639511D01*
X26173887Y-30580201D01*
X26173884Y-30580199D01*
X26148357Y-30573360D01*
X26148356Y-30573359D01*
X26148356Y-30573360D01*
X26103832Y-30561430D01*
X26059309Y-30549500D01*
X26059308Y-30549500D01*
X24729329Y-30549500D01*
X24662290Y-30529815D01*
X24641648Y-30513181D01*
X24167980Y-30039513D01*
X24167978Y-30039511D01*
X24065251Y-29980201D01*
X24065248Y-29980199D01*
X24039818Y-29973386D01*
X24039817Y-29973385D01*
X24039817Y-29973386D01*
X23995244Y-29961443D01*
X23950673Y-29949500D01*
X23040691Y-29949500D01*
X22951547Y-29973386D01*
X22951546Y-29973386D01*
X22926114Y-29980199D01*
X22823386Y-30039510D01*
X22713489Y-30149408D01*
X22652166Y-30182892D01*
X22582474Y-30177908D01*
X22526541Y-30136036D01*
X22518421Y-30123727D01*
X22469799Y-30039513D01*
X22460489Y-30023387D01*
X22376613Y-29939511D01*
X22273886Y-29880201D01*
X22159309Y-29849500D01*
X22040691Y-29849500D01*
X21926114Y-29880201D01*
X21926112Y-29880201D01*
X21926112Y-29880202D01*
X21823387Y-29939511D01*
X21823384Y-29939513D01*
X21739513Y-30023384D01*
X21739511Y-30023387D01*
X21680201Y-30126114D01*
X21649500Y-30240691D01*
X21649500Y-30240693D01*
X21649500Y-30274167D01*
X21640855Y-30303607D01*
X21634332Y-30333594D01*
X21630577Y-30338609D01*
X21629815Y-30341206D01*
X21613181Y-30361848D01*
X21612848Y-30362181D01*
X21551525Y-30395666D01*
X21525167Y-30398500D01*
X19094338Y-30398500D01*
X19063767Y-30406691D01*
X19017908Y-30418979D01*
X19017905Y-30418981D01*
X18989664Y-30435287D01*
X18989663Y-30435288D01*
X18977697Y-30442196D01*
X18949389Y-30458539D01*
X16258541Y-33149387D01*
X16258535Y-33149395D01*
X16218982Y-33217904D01*
X16218979Y-33217909D01*
X16198500Y-33294339D01*
X16198500Y-44141600D01*
X16178815Y-44208639D01*
X16126011Y-44254394D01*
X16074500Y-44265600D01*
X9094338Y-44265600D01*
X9056124Y-44275839D01*
X9017909Y-44286079D01*
X9017908Y-44286080D01*
X8961030Y-44318919D01*
X8949392Y-44325638D01*
X8949386Y-44325642D01*
X8259541Y-45015487D01*
X8259535Y-45015495D01*
X8219982Y-45084004D01*
X8219979Y-45084009D01*
X8199500Y-45160439D01*
X8199500Y-45272314D01*
X8179815Y-45339353D01*
X8127011Y-45385108D01*
X8122953Y-45386875D01*
X8044087Y-45419542D01*
X7886441Y-45524877D01*
X7752377Y-45658941D01*
X7647042Y-45816587D01*
X7574488Y-45991748D01*
X7574486Y-45991756D01*
X7537500Y-46177697D01*
X6962500Y-46177697D01*
X6962500Y-45490749D01*
X6962499Y-45490747D01*
X6950868Y-45432270D01*
X6950867Y-45432269D01*
X6906552Y-45365947D01*
X6840230Y-45321632D01*
X6840229Y-45321631D01*
X6781752Y-45310000D01*
X6781748Y-45310000D01*
X5218252Y-45310000D01*
X5218247Y-45310000D01*
X5159770Y-45321631D01*
X5159769Y-45321632D01*
X5093447Y-45365947D01*
X5049132Y-45432269D01*
X5049131Y-45432270D01*
X5037500Y-45490747D01*
X500500Y-45490747D01*
X500500Y-41625371D01*
X4860000Y-41625371D01*
X4860000Y-42250000D01*
X5526988Y-42250000D01*
X5494075Y-42307007D01*
X5460000Y-42434174D01*
X5460000Y-42565826D01*
X5494075Y-42692993D01*
X5526988Y-42750000D01*
X4860000Y-42750000D01*
X4860000Y-43374628D01*
X4874503Y-43447540D01*
X4874505Y-43447544D01*
X4929760Y-43530239D01*
X5012455Y-43585494D01*
X5012459Y-43585496D01*
X5085371Y-43599999D01*
X5085374Y-43600000D01*
X5710000Y-43600000D01*
X5710000Y-42933012D01*
X5767007Y-42965925D01*
X5894174Y-43000000D01*
X6025826Y-43000000D01*
X6152993Y-42965925D01*
X6210000Y-42933012D01*
X6210000Y-43600000D01*
X6834626Y-43600000D01*
X6834628Y-43599999D01*
X6907540Y-43585496D01*
X6907544Y-43585494D01*
X6990239Y-43530239D01*
X7045494Y-43447544D01*
X7045496Y-43447540D01*
X7059999Y-43374628D01*
X7060000Y-43374626D01*
X7060000Y-42750000D01*
X6393012Y-42750000D01*
X6425925Y-42692993D01*
X6460000Y-42565826D01*
X6460000Y-42434174D01*
X6449913Y-42396530D01*
X7449500Y-42396530D01*
X7449500Y-42603469D01*
X7489868Y-42806412D01*
X7489870Y-42806420D01*
X7569058Y-42997596D01*
X7684024Y-43169657D01*
X7830342Y-43315975D01*
X7830345Y-43315977D01*
X8002402Y-43430941D01*
X8193580Y-43510130D01*
X8396530Y-43550499D01*
X8396534Y-43550500D01*
X8396535Y-43550500D01*
X8603466Y-43550500D01*
X8603467Y-43550499D01*
X8806420Y-43510130D01*
X8997598Y-43430941D01*
X9169655Y-43315977D01*
X9315977Y-43169655D01*
X9430941Y-42997598D01*
X9510130Y-42806420D01*
X9550500Y-42603465D01*
X9550500Y-42396535D01*
X9550499Y-42396530D01*
X9989500Y-42396530D01*
X9989500Y-42603469D01*
X10029868Y-42806412D01*
X10029870Y-42806420D01*
X10109058Y-42997596D01*
X10224024Y-43169657D01*
X10370342Y-43315975D01*
X10370345Y-43315977D01*
X10542402Y-43430941D01*
X10733580Y-43510130D01*
X10936530Y-43550499D01*
X10936534Y-43550500D01*
X10936535Y-43550500D01*
X11143466Y-43550500D01*
X11143467Y-43550499D01*
X11346420Y-43510130D01*
X11537598Y-43430941D01*
X11709655Y-43315977D01*
X11855977Y-43169655D01*
X11970941Y-42997598D01*
X12050130Y-42806420D01*
X12090500Y-42603465D01*
X12090500Y-42396535D01*
X12050130Y-42193580D01*
X11970941Y-42002402D01*
X11855977Y-41830345D01*
X11855975Y-41830342D01*
X11709657Y-41684024D01*
X11621875Y-41625371D01*
X11537598Y-41569059D01*
X11497522Y-41552459D01*
X11346420Y-41489870D01*
X11346412Y-41489868D01*
X11143469Y-41449500D01*
X11143465Y-41449500D01*
X10936535Y-41449500D01*
X10936530Y-41449500D01*
X10733587Y-41489868D01*
X10733579Y-41489870D01*
X10542403Y-41569058D01*
X10370342Y-41684024D01*
X10224024Y-41830342D01*
X10109058Y-42002403D01*
X10029870Y-42193579D01*
X10029868Y-42193587D01*
X9989500Y-42396530D01*
X9550499Y-42396530D01*
X9510130Y-42193580D01*
X9430941Y-42002402D01*
X9315977Y-41830345D01*
X9315975Y-41830342D01*
X9169657Y-41684024D01*
X9081875Y-41625371D01*
X8997598Y-41569059D01*
X8957522Y-41552459D01*
X8806420Y-41489870D01*
X8806412Y-41489868D01*
X8603469Y-41449500D01*
X8603465Y-41449500D01*
X8396535Y-41449500D01*
X8396530Y-41449500D01*
X8193587Y-41489868D01*
X8193579Y-41489870D01*
X8002403Y-41569058D01*
X7830342Y-41684024D01*
X7684024Y-41830342D01*
X7569058Y-42002403D01*
X7489870Y-42193579D01*
X7489868Y-42193587D01*
X7449500Y-42396530D01*
X6449913Y-42396530D01*
X6425925Y-42307007D01*
X6393012Y-42250000D01*
X7060000Y-42250000D01*
X7060000Y-41625373D01*
X7059999Y-41625371D01*
X7045496Y-41552459D01*
X7045494Y-41552455D01*
X6990239Y-41469760D01*
X6907544Y-41414505D01*
X6907540Y-41414503D01*
X6834627Y-41400000D01*
X6210000Y-41400000D01*
X6210000Y-42066988D01*
X6152993Y-42034075D01*
X6025826Y-42000000D01*
X5894174Y-42000000D01*
X5767007Y-42034075D01*
X5710000Y-42066988D01*
X5710000Y-41400000D01*
X5085373Y-41400000D01*
X5012459Y-41414503D01*
X5012455Y-41414505D01*
X4929760Y-41469760D01*
X4874505Y-41552455D01*
X4874503Y-41552459D01*
X4860000Y-41625371D01*
X500500Y-41625371D01*
X500500Y-37801530D01*
X1759500Y-37801530D01*
X1759500Y-38008469D01*
X1799868Y-38211412D01*
X1799870Y-38211420D01*
X1865939Y-38370925D01*
X1879059Y-38402598D01*
X1882858Y-38408283D01*
X1994024Y-38574657D01*
X2140342Y-38720975D01*
X2140345Y-38720977D01*
X2312402Y-38835941D01*
X2503580Y-38915130D01*
X2706530Y-38955499D01*
X2706534Y-38955500D01*
X2706535Y-38955500D01*
X2913466Y-38955500D01*
X2913467Y-38955499D01*
X3116420Y-38915130D01*
X3307598Y-38835941D01*
X3479655Y-38720977D01*
X3486861Y-38713771D01*
X3494284Y-38706349D01*
X3625974Y-38574658D01*
X3625975Y-38574657D01*
X3625977Y-38574655D01*
X3740941Y-38402598D01*
X3820130Y-38211420D01*
X3860500Y-38008465D01*
X3860500Y-37818428D01*
X4250000Y-37818428D01*
X4250000Y-37991571D01*
X4277085Y-38162584D01*
X4330592Y-38327259D01*
X4409196Y-38481525D01*
X4413709Y-38487736D01*
X4413709Y-38487737D01*
X4867037Y-38034409D01*
X4884075Y-38097993D01*
X4949901Y-38212007D01*
X5042993Y-38305099D01*
X5157007Y-38370925D01*
X5220589Y-38387962D01*
X4767261Y-38841289D01*
X4767262Y-38841290D01*
X4773471Y-38845801D01*
X4927742Y-38924408D01*
X5092415Y-38977914D01*
X5263429Y-39005000D01*
X5436571Y-39005000D01*
X5607584Y-38977914D01*
X5772257Y-38924408D01*
X5926525Y-38845803D01*
X5932736Y-38841289D01*
X5932737Y-38841289D01*
X5479410Y-38387962D01*
X5542993Y-38370925D01*
X5657007Y-38305099D01*
X5750099Y-38212007D01*
X5815925Y-38097993D01*
X5832962Y-38034409D01*
X6286289Y-38487736D01*
X6290803Y-38481525D01*
X6369408Y-38327257D01*
X6422914Y-38162584D01*
X6450000Y-37991571D01*
X6450000Y-37818428D01*
X6422914Y-37647415D01*
X6369408Y-37482742D01*
X6290801Y-37328471D01*
X6286290Y-37322262D01*
X6286289Y-37322261D01*
X5832962Y-37775589D01*
X5815925Y-37712007D01*
X5750099Y-37597993D01*
X5657007Y-37504901D01*
X5542993Y-37439075D01*
X5479409Y-37422037D01*
X5932737Y-36968709D01*
X5926525Y-36964196D01*
X5772259Y-36885592D01*
X5607584Y-36832085D01*
X5436571Y-36805000D01*
X5263429Y-36805000D01*
X5092415Y-36832085D01*
X4927740Y-36885592D01*
X4773480Y-36964193D01*
X4773463Y-36964203D01*
X4767261Y-36968708D01*
X4767261Y-36968709D01*
X5220590Y-37422037D01*
X5157007Y-37439075D01*
X5042993Y-37504901D01*
X4949901Y-37597993D01*
X4884075Y-37712007D01*
X4867037Y-37775590D01*
X4413709Y-37322261D01*
X4413708Y-37322261D01*
X4409203Y-37328463D01*
X4409193Y-37328480D01*
X4330592Y-37482740D01*
X4277085Y-37647415D01*
X4250000Y-37818428D01*
X3860500Y-37818428D01*
X3860500Y-37801535D01*
X3820130Y-37598580D01*
X3740941Y-37407402D01*
X3625977Y-37235345D01*
X3625975Y-37235342D01*
X3479657Y-37089024D01*
X3375432Y-37019384D01*
X3307598Y-36974059D01*
X3116420Y-36894870D01*
X3116412Y-36894868D01*
X2913469Y-36854500D01*
X2913465Y-36854500D01*
X2706535Y-36854500D01*
X2706530Y-36854500D01*
X2503587Y-36894868D01*
X2503579Y-36894870D01*
X2312403Y-36974058D01*
X2140342Y-37089024D01*
X1994024Y-37235342D01*
X1879058Y-37407403D01*
X1799870Y-37598579D01*
X1799868Y-37598587D01*
X1759500Y-37801530D01*
X500500Y-37801530D01*
X500500Y-35261530D01*
X1759500Y-35261530D01*
X1759500Y-35468469D01*
X1799868Y-35671412D01*
X1799870Y-35671420D01*
X1879058Y-35862596D01*
X1994024Y-36034657D01*
X2140342Y-36180975D01*
X2140345Y-36180977D01*
X2312402Y-36295941D01*
X2503580Y-36375130D01*
X2706530Y-36415499D01*
X2706534Y-36415500D01*
X2706535Y-36415500D01*
X2913466Y-36415500D01*
X2913467Y-36415499D01*
X3116420Y-36375130D01*
X3307598Y-36295941D01*
X3479655Y-36180977D01*
X3625977Y-36034655D01*
X3740941Y-35862598D01*
X3820130Y-35671420D01*
X3860500Y-35468465D01*
X3860500Y-35261535D01*
X3860499Y-35261530D01*
X4299500Y-35261530D01*
X4299500Y-35468469D01*
X4339868Y-35671412D01*
X4339870Y-35671420D01*
X4419058Y-35862596D01*
X4534024Y-36034657D01*
X4680342Y-36180975D01*
X4680345Y-36180977D01*
X4852402Y-36295941D01*
X5043580Y-36375130D01*
X5246530Y-36415499D01*
X5246534Y-36415500D01*
X5246535Y-36415500D01*
X5453466Y-36415500D01*
X5453467Y-36415499D01*
X5656420Y-36375130D01*
X5847598Y-36295941D01*
X6019655Y-36180977D01*
X6165977Y-36034655D01*
X6280941Y-35862598D01*
X6360130Y-35671420D01*
X6400500Y-35468465D01*
X6400500Y-35261535D01*
X6360130Y-35058580D01*
X6280941Y-34867402D01*
X6165977Y-34695345D01*
X6165975Y-34695342D01*
X6019657Y-34549024D01*
X5933626Y-34491541D01*
X5847598Y-34434059D01*
X5783030Y-34407314D01*
X5656420Y-34354870D01*
X5656412Y-34354868D01*
X5453469Y-34314500D01*
X5453465Y-34314500D01*
X5246535Y-34314500D01*
X5246530Y-34314500D01*
X5043587Y-34354868D01*
X5043579Y-34354870D01*
X4852403Y-34434058D01*
X4680342Y-34549024D01*
X4534024Y-34695342D01*
X4419058Y-34867403D01*
X4339870Y-35058579D01*
X4339868Y-35058587D01*
X4299500Y-35261530D01*
X3860499Y-35261530D01*
X3820130Y-35058580D01*
X3740941Y-34867402D01*
X3625977Y-34695345D01*
X3625975Y-34695342D01*
X3479657Y-34549024D01*
X3393626Y-34491541D01*
X3307598Y-34434059D01*
X3243030Y-34407314D01*
X3116420Y-34354870D01*
X3116412Y-34354868D01*
X2913469Y-34314500D01*
X2913465Y-34314500D01*
X2706535Y-34314500D01*
X2706530Y-34314500D01*
X2503587Y-34354868D01*
X2503579Y-34354870D01*
X2312403Y-34434058D01*
X2140342Y-34549024D01*
X1994024Y-34695342D01*
X1879058Y-34867403D01*
X1799870Y-35058579D01*
X1799868Y-35058587D01*
X1759500Y-35261530D01*
X500500Y-35261530D01*
X500500Y-32721530D01*
X1759500Y-32721530D01*
X1759500Y-32928469D01*
X1799868Y-33131412D01*
X1799870Y-33131420D01*
X1816009Y-33170384D01*
X1879059Y-33322598D01*
X1902257Y-33357316D01*
X1994024Y-33494657D01*
X2140342Y-33640975D01*
X2140345Y-33640977D01*
X2312402Y-33755941D01*
X2503580Y-33835130D01*
X2698421Y-33873886D01*
X2706530Y-33875499D01*
X2706534Y-33875500D01*
X2706535Y-33875500D01*
X2913466Y-33875500D01*
X2913467Y-33875499D01*
X3116420Y-33835130D01*
X3307598Y-33755941D01*
X3479655Y-33640977D01*
X3625977Y-33494655D01*
X3740941Y-33322598D01*
X3820130Y-33131420D01*
X3860500Y-32928465D01*
X3860500Y-32721535D01*
X3860499Y-32721530D01*
X4299500Y-32721530D01*
X4299500Y-32928469D01*
X4339868Y-33131412D01*
X4339870Y-33131420D01*
X4356009Y-33170384D01*
X4419059Y-33322598D01*
X4442257Y-33357316D01*
X4534024Y-33494657D01*
X4680342Y-33640975D01*
X4680345Y-33640977D01*
X4852402Y-33755941D01*
X5043580Y-33835130D01*
X5238421Y-33873886D01*
X5246530Y-33875499D01*
X5246534Y-33875500D01*
X5246535Y-33875500D01*
X5453466Y-33875500D01*
X5453467Y-33875499D01*
X5656420Y-33835130D01*
X5847598Y-33755941D01*
X6019655Y-33640977D01*
X6165977Y-33494655D01*
X6280941Y-33322598D01*
X6360130Y-33131420D01*
X6400500Y-32928465D01*
X6400500Y-32721535D01*
X6360130Y-32518580D01*
X6280941Y-32327402D01*
X6165977Y-32155345D01*
X6165975Y-32155342D01*
X6019657Y-32009024D01*
X5933626Y-31951541D01*
X5847598Y-31894059D01*
X5724780Y-31843186D01*
X5656420Y-31814870D01*
X5656412Y-31814868D01*
X5453469Y-31774500D01*
X5453465Y-31774500D01*
X5246535Y-31774500D01*
X5246530Y-31774500D01*
X5043587Y-31814868D01*
X5043579Y-31814870D01*
X4852403Y-31894058D01*
X4680342Y-32009024D01*
X4534024Y-32155342D01*
X4419058Y-32327403D01*
X4339870Y-32518579D01*
X4339868Y-32518587D01*
X4299500Y-32721530D01*
X3860499Y-32721530D01*
X3820130Y-32518580D01*
X3740941Y-32327402D01*
X3625977Y-32155345D01*
X3625975Y-32155342D01*
X3479657Y-32009024D01*
X3393626Y-31951541D01*
X3307598Y-31894059D01*
X3184780Y-31843186D01*
X3116420Y-31814870D01*
X3116412Y-31814868D01*
X2913469Y-31774500D01*
X2913465Y-31774500D01*
X2706535Y-31774500D01*
X2706530Y-31774500D01*
X2503587Y-31814868D01*
X2503579Y-31814870D01*
X2312403Y-31894058D01*
X2140342Y-32009024D01*
X1994024Y-32155342D01*
X1879058Y-32327403D01*
X1799870Y-32518579D01*
X1799868Y-32518587D01*
X1759500Y-32721530D01*
X500500Y-32721530D01*
X500500Y-30181530D01*
X1759500Y-30181530D01*
X1759500Y-30388469D01*
X1799868Y-30591412D01*
X1799870Y-30591420D01*
X1879058Y-30782596D01*
X1994024Y-30954657D01*
X2140342Y-31100975D01*
X2140345Y-31100977D01*
X2312402Y-31215941D01*
X2503580Y-31295130D01*
X2706530Y-31335499D01*
X2706534Y-31335500D01*
X2706535Y-31335500D01*
X2913466Y-31335500D01*
X2913467Y-31335499D01*
X3116420Y-31295130D01*
X3307598Y-31215941D01*
X3479655Y-31100977D01*
X3625977Y-30954655D01*
X3740941Y-30782598D01*
X3820130Y-30591420D01*
X3860500Y-30388465D01*
X3860500Y-30181535D01*
X3860499Y-30181530D01*
X4299500Y-30181530D01*
X4299500Y-30388469D01*
X4339868Y-30591412D01*
X4339870Y-30591420D01*
X4419058Y-30782596D01*
X4534024Y-30954657D01*
X4680342Y-31100975D01*
X4680345Y-31100977D01*
X4852402Y-31215941D01*
X5043580Y-31295130D01*
X5246530Y-31335499D01*
X5246534Y-31335500D01*
X5246535Y-31335500D01*
X5453466Y-31335500D01*
X5453467Y-31335499D01*
X5656420Y-31295130D01*
X5847598Y-31215941D01*
X6019655Y-31100977D01*
X6165977Y-30954655D01*
X6280941Y-30782598D01*
X6360130Y-30591420D01*
X6400500Y-30388465D01*
X6400500Y-30181535D01*
X6360130Y-29978580D01*
X6280941Y-29787402D01*
X6165977Y-29615345D01*
X6165975Y-29615342D01*
X6019657Y-29469024D01*
X5933626Y-29411541D01*
X5847598Y-29354059D01*
X5656420Y-29274870D01*
X5656412Y-29274868D01*
X5453469Y-29234500D01*
X5453465Y-29234500D01*
X5246535Y-29234500D01*
X5246530Y-29234500D01*
X5043587Y-29274868D01*
X5043579Y-29274870D01*
X4852403Y-29354058D01*
X4680342Y-29469024D01*
X4534024Y-29615342D01*
X4419058Y-29787403D01*
X4339870Y-29978579D01*
X4339868Y-29978587D01*
X4299500Y-30181530D01*
X3860499Y-30181530D01*
X3820130Y-29978580D01*
X3740941Y-29787402D01*
X3625977Y-29615345D01*
X3625975Y-29615342D01*
X3479657Y-29469024D01*
X3393626Y-29411541D01*
X3307598Y-29354059D01*
X3116420Y-29274870D01*
X3116412Y-29274868D01*
X2913469Y-29234500D01*
X2913465Y-29234500D01*
X2706535Y-29234500D01*
X2706530Y-29234500D01*
X2503587Y-29274868D01*
X2503579Y-29274870D01*
X2312403Y-29354058D01*
X2140342Y-29469024D01*
X1994024Y-29615342D01*
X1879058Y-29787403D01*
X1799870Y-29978579D01*
X1799868Y-29978587D01*
X1759500Y-30181530D01*
X500500Y-30181530D01*
X500500Y-27641530D01*
X1759500Y-27641530D01*
X1759500Y-27848469D01*
X1799868Y-28051412D01*
X1799870Y-28051420D01*
X1879058Y-28242596D01*
X1994024Y-28414657D01*
X2140342Y-28560975D01*
X2140345Y-28560977D01*
X2312402Y-28675941D01*
X2503580Y-28755130D01*
X2706530Y-28795499D01*
X2706534Y-28795500D01*
X2706535Y-28795500D01*
X2913466Y-28795500D01*
X2913467Y-28795499D01*
X3116420Y-28755130D01*
X3307598Y-28675941D01*
X3479655Y-28560977D01*
X3625977Y-28414655D01*
X3740941Y-28242598D01*
X3820130Y-28051420D01*
X3860500Y-27848465D01*
X3860500Y-27641535D01*
X3860499Y-27641530D01*
X4299500Y-27641530D01*
X4299500Y-27848469D01*
X4339868Y-28051412D01*
X4339870Y-28051420D01*
X4419058Y-28242596D01*
X4534024Y-28414657D01*
X4680342Y-28560975D01*
X4680345Y-28560977D01*
X4852402Y-28675941D01*
X5043580Y-28755130D01*
X5246530Y-28795499D01*
X5246534Y-28795500D01*
X5246535Y-28795500D01*
X5453466Y-28795500D01*
X5453467Y-28795499D01*
X5656420Y-28755130D01*
X5847598Y-28675941D01*
X6019655Y-28560977D01*
X6165977Y-28414655D01*
X6280941Y-28242598D01*
X6360130Y-28051420D01*
X6400500Y-27848465D01*
X6400500Y-27641535D01*
X6360130Y-27438580D01*
X6280941Y-27247402D01*
X6165977Y-27075345D01*
X6165975Y-27075342D01*
X6019657Y-26929024D01*
X5933626Y-26871541D01*
X5847598Y-26814059D01*
X5656420Y-26734870D01*
X5656412Y-26734868D01*
X5453469Y-26694500D01*
X5453465Y-26694500D01*
X5246535Y-26694500D01*
X5246530Y-26694500D01*
X5043587Y-26734868D01*
X5043579Y-26734870D01*
X4852403Y-26814058D01*
X4680342Y-26929024D01*
X4534024Y-27075342D01*
X4419058Y-27247403D01*
X4339870Y-27438579D01*
X4339868Y-27438587D01*
X4299500Y-27641530D01*
X3860499Y-27641530D01*
X3820130Y-27438580D01*
X3740941Y-27247402D01*
X3625977Y-27075345D01*
X3625975Y-27075342D01*
X3479657Y-26929024D01*
X3393626Y-26871541D01*
X3307598Y-26814059D01*
X3116420Y-26734870D01*
X3116412Y-26734868D01*
X2913469Y-26694500D01*
X2913465Y-26694500D01*
X2706535Y-26694500D01*
X2706530Y-26694500D01*
X2503587Y-26734868D01*
X2503579Y-26734870D01*
X2312403Y-26814058D01*
X2140342Y-26929024D01*
X1994024Y-27075342D01*
X1879058Y-27247403D01*
X1799870Y-27438579D01*
X1799868Y-27438587D01*
X1759500Y-27641530D01*
X500500Y-27641530D01*
X500500Y-25101530D01*
X1759500Y-25101530D01*
X1759500Y-25308469D01*
X1799868Y-25511412D01*
X1799870Y-25511420D01*
X1879058Y-25702596D01*
X1994024Y-25874657D01*
X2140342Y-26020975D01*
X2140345Y-26020977D01*
X2312402Y-26135941D01*
X2503580Y-26215130D01*
X2706530Y-26255499D01*
X2706534Y-26255500D01*
X2706535Y-26255500D01*
X2913466Y-26255500D01*
X2913467Y-26255499D01*
X3116420Y-26215130D01*
X3307598Y-26135941D01*
X3479655Y-26020977D01*
X3625977Y-25874655D01*
X3740941Y-25702598D01*
X3820130Y-25511420D01*
X3860500Y-25308465D01*
X3860500Y-25101535D01*
X3860499Y-25101530D01*
X4299500Y-25101530D01*
X4299500Y-25308469D01*
X4339868Y-25511412D01*
X4339870Y-25511420D01*
X4419058Y-25702596D01*
X4534024Y-25874657D01*
X4680342Y-26020975D01*
X4680345Y-26020977D01*
X4852402Y-26135941D01*
X5043580Y-26215130D01*
X5246530Y-26255499D01*
X5246534Y-26255500D01*
X5246535Y-26255500D01*
X5453466Y-26255500D01*
X5453467Y-26255499D01*
X5656420Y-26215130D01*
X5847598Y-26135941D01*
X6019655Y-26020977D01*
X6165977Y-25874655D01*
X6280941Y-25702598D01*
X6360130Y-25511420D01*
X6400500Y-25308465D01*
X6400500Y-25101535D01*
X6360130Y-24898580D01*
X6280941Y-24707402D01*
X6165977Y-24535345D01*
X6165975Y-24535342D01*
X6019657Y-24389024D01*
X5933626Y-24331541D01*
X5847598Y-24274059D01*
X5656420Y-24194870D01*
X5656412Y-24194868D01*
X5453469Y-24154500D01*
X5453465Y-24154500D01*
X5246535Y-24154500D01*
X5246530Y-24154500D01*
X5043587Y-24194868D01*
X5043579Y-24194870D01*
X4852403Y-24274058D01*
X4680342Y-24389024D01*
X4534024Y-24535342D01*
X4419058Y-24707403D01*
X4339870Y-24898579D01*
X4339868Y-24898587D01*
X4299500Y-25101530D01*
X3860499Y-25101530D01*
X3820130Y-24898580D01*
X3740941Y-24707402D01*
X3625977Y-24535345D01*
X3625975Y-24535342D01*
X3479657Y-24389024D01*
X3393626Y-24331541D01*
X3307598Y-24274059D01*
X3116420Y-24194870D01*
X3116412Y-24194868D01*
X2913469Y-24154500D01*
X2913465Y-24154500D01*
X2706535Y-24154500D01*
X2706530Y-24154500D01*
X2503587Y-24194868D01*
X2503579Y-24194870D01*
X2312403Y-24274058D01*
X2140342Y-24389024D01*
X1994024Y-24535342D01*
X1879058Y-24707403D01*
X1799870Y-24898579D01*
X1799868Y-24898587D01*
X1759500Y-25101530D01*
X500500Y-25101530D01*
X500500Y-22561530D01*
X1759500Y-22561530D01*
X1759500Y-22768469D01*
X1799868Y-22971412D01*
X1799870Y-22971420D01*
X1879058Y-23162596D01*
X1994024Y-23334657D01*
X2140342Y-23480975D01*
X2140345Y-23480977D01*
X2312402Y-23595941D01*
X2503580Y-23675130D01*
X2706530Y-23715499D01*
X2706534Y-23715500D01*
X2706535Y-23715500D01*
X2913466Y-23715500D01*
X2913467Y-23715499D01*
X3116420Y-23675130D01*
X3307598Y-23595941D01*
X3479655Y-23480977D01*
X3479658Y-23480974D01*
X3494284Y-23466349D01*
X3625974Y-23334658D01*
X3625975Y-23334657D01*
X3625977Y-23334655D01*
X3740941Y-23162598D01*
X3820130Y-22971420D01*
X3860500Y-22768465D01*
X3860500Y-22578428D01*
X4250000Y-22578428D01*
X4250000Y-22751571D01*
X4277085Y-22922584D01*
X4330592Y-23087259D01*
X4409196Y-23241525D01*
X4413709Y-23247736D01*
X4413709Y-23247737D01*
X4867037Y-22794409D01*
X4884075Y-22857993D01*
X4949901Y-22972007D01*
X5042993Y-23065099D01*
X5157007Y-23130925D01*
X5220589Y-23147962D01*
X4767261Y-23601289D01*
X4767262Y-23601290D01*
X4773471Y-23605801D01*
X4927742Y-23684408D01*
X5092415Y-23737914D01*
X5263429Y-23765000D01*
X5436571Y-23765000D01*
X5607584Y-23737914D01*
X5772257Y-23684408D01*
X5926525Y-23605803D01*
X5932736Y-23601289D01*
X5932737Y-23601289D01*
X5479410Y-23147962D01*
X5542993Y-23130925D01*
X5657007Y-23065099D01*
X5750099Y-22972007D01*
X5815925Y-22857993D01*
X5832962Y-22794409D01*
X6286289Y-23247736D01*
X6290803Y-23241525D01*
X6369408Y-23087257D01*
X6422914Y-22922584D01*
X6450000Y-22751571D01*
X6450000Y-22578428D01*
X6422914Y-22407415D01*
X6369408Y-22242742D01*
X6290801Y-22088471D01*
X6286290Y-22082262D01*
X6286289Y-22082261D01*
X5832962Y-22535589D01*
X5815925Y-22472007D01*
X5750099Y-22357993D01*
X5657007Y-22264901D01*
X5542993Y-22199075D01*
X5479409Y-22182037D01*
X5932737Y-21728709D01*
X5926525Y-21724196D01*
X5772259Y-21645592D01*
X5607584Y-21592085D01*
X5436571Y-21565000D01*
X5263429Y-21565000D01*
X5092415Y-21592085D01*
X4927740Y-21645592D01*
X4773480Y-21724193D01*
X4773463Y-21724203D01*
X4767261Y-21728708D01*
X4767261Y-21728709D01*
X5220590Y-22182037D01*
X5157007Y-22199075D01*
X5042993Y-22264901D01*
X4949901Y-22357993D01*
X4884075Y-22472007D01*
X4867037Y-22535590D01*
X4413709Y-22082261D01*
X4413708Y-22082261D01*
X4409203Y-22088463D01*
X4409193Y-22088480D01*
X4330592Y-22242740D01*
X4277085Y-22407415D01*
X4250000Y-22578428D01*
X3860500Y-22578428D01*
X3860500Y-22561535D01*
X3820130Y-22358580D01*
X3740941Y-22167402D01*
X3625977Y-21995345D01*
X3625975Y-21995342D01*
X3479657Y-21849024D01*
X3393626Y-21791541D01*
X3307598Y-21734059D01*
X3116420Y-21654870D01*
X3116412Y-21654868D01*
X2913469Y-21614500D01*
X2913465Y-21614500D01*
X2706535Y-21614500D01*
X2706530Y-21614500D01*
X2503587Y-21654868D01*
X2503579Y-21654870D01*
X2312403Y-21734058D01*
X2140342Y-21849024D01*
X1994024Y-21995342D01*
X1879058Y-22167403D01*
X1799870Y-22358579D01*
X1799868Y-22358587D01*
X1759500Y-22561530D01*
X500500Y-22561530D01*
X500500Y-19255247D01*
X1759500Y-19255247D01*
X1759500Y-20994752D01*
X1771131Y-21053229D01*
X1771132Y-21053230D01*
X1815447Y-21119552D01*
X1881769Y-21163867D01*
X1881770Y-21163868D01*
X1940247Y-21175499D01*
X1940250Y-21175500D01*
X1940252Y-21175500D01*
X3679750Y-21175500D01*
X3679751Y-21175499D01*
X3694568Y-21172552D01*
X3738229Y-21163868D01*
X3738229Y-21163867D01*
X3738231Y-21163867D01*
X3804552Y-21119552D01*
X3848867Y-21053231D01*
X3848867Y-21053229D01*
X3848868Y-21053229D01*
X3860499Y-20994752D01*
X3860500Y-20994750D01*
X3860500Y-20021530D01*
X4299500Y-20021530D01*
X4299500Y-20228469D01*
X4339868Y-20431412D01*
X4339870Y-20431420D01*
X4419058Y-20622596D01*
X4534024Y-20794657D01*
X4680342Y-20940975D01*
X4680345Y-20940977D01*
X4852402Y-21055941D01*
X5043580Y-21135130D01*
X5188052Y-21163867D01*
X5246530Y-21175499D01*
X5246534Y-21175500D01*
X5246535Y-21175500D01*
X5453466Y-21175500D01*
X5453467Y-21175499D01*
X5656420Y-21135130D01*
X5847598Y-21055941D01*
X6019655Y-20940977D01*
X6165977Y-20794655D01*
X6280941Y-20622598D01*
X6360130Y-20431420D01*
X6400500Y-20228465D01*
X6400500Y-20021535D01*
X6360130Y-19818580D01*
X6280941Y-19627402D01*
X6165977Y-19455345D01*
X6165975Y-19455342D01*
X6019657Y-19309024D01*
X5851655Y-19196770D01*
X5847598Y-19194059D01*
X5656420Y-19114870D01*
X5656412Y-19114868D01*
X5453469Y-19074500D01*
X5453465Y-19074500D01*
X5246535Y-19074500D01*
X5246530Y-19074500D01*
X5043587Y-19114868D01*
X5043579Y-19114870D01*
X4852403Y-19194058D01*
X4680342Y-19309024D01*
X4534024Y-19455342D01*
X4419058Y-19627403D01*
X4339870Y-19818579D01*
X4339868Y-19818587D01*
X4299500Y-20021530D01*
X3860500Y-20021530D01*
X3860500Y-19255249D01*
X3860499Y-19255247D01*
X3848868Y-19196770D01*
X3848867Y-19196769D01*
X3804552Y-19130447D01*
X3738230Y-19086132D01*
X3738229Y-19086131D01*
X3679752Y-19074500D01*
X3679748Y-19074500D01*
X1940252Y-19074500D01*
X1940247Y-19074500D01*
X1881770Y-19086131D01*
X1881769Y-19086132D01*
X1815447Y-19130447D01*
X1771132Y-19196769D01*
X1771131Y-19196770D01*
X1759500Y-19255247D01*
X500500Y-19255247D01*
X500500Y-14534108D01*
X9599500Y-14534108D01*
X9599500Y-14665892D01*
X9611814Y-14711848D01*
X9633608Y-14793187D01*
X9666554Y-14850250D01*
X9699500Y-14907314D01*
X9792686Y-15000500D01*
X9891521Y-15057563D01*
X9893449Y-15058676D01*
X9906814Y-15066392D01*
X10034108Y-15100500D01*
X10034110Y-15100500D01*
X10165890Y-15100500D01*
X10165892Y-15100500D01*
X10293186Y-15066392D01*
X10407314Y-15000500D01*
X10470995Y-14936819D01*
X10497922Y-14922115D01*
X10523741Y-14905523D01*
X10529941Y-14904631D01*
X10532318Y-14903334D01*
X10558676Y-14900500D01*
X10724167Y-14900500D01*
X10791206Y-14920185D01*
X10811848Y-14936819D01*
X14559540Y-18684511D01*
X14615489Y-18740460D01*
X14615491Y-18740461D01*
X14615495Y-18740464D01*
X14684004Y-18780017D01*
X14684011Y-18780021D01*
X14760438Y-18800500D01*
X18924167Y-18800500D01*
X18991206Y-18820185D01*
X19011848Y-18836819D01*
X30962181Y-30787152D01*
X30995666Y-30848475D01*
X30998500Y-30874833D01*
X30998500Y-36067363D01*
X30978815Y-36134402D01*
X30932318Y-36174691D01*
X30933153Y-36176137D01*
X30823387Y-36239511D01*
X30823384Y-36239513D01*
X30739513Y-36323384D01*
X30739511Y-36323387D01*
X30686330Y-36415499D01*
X30680201Y-36426114D01*
X30649500Y-36540691D01*
X30649500Y-36659309D01*
X30680201Y-36773886D01*
X30739511Y-36876613D01*
X30739512Y-36876614D01*
X30743575Y-36883651D01*
X30741824Y-36884661D01*
X30763095Y-36939689D01*
X30749053Y-37008133D01*
X30741822Y-37019384D01*
X30739511Y-37023387D01*
X30680201Y-37126114D01*
X30649500Y-37240691D01*
X30649500Y-37359309D01*
X30680201Y-37473886D01*
X30739511Y-37576613D01*
X30739512Y-37576614D01*
X30743575Y-37583651D01*
X30741824Y-37584661D01*
X30763095Y-37639689D01*
X30749053Y-37708133D01*
X30741822Y-37719384D01*
X30684639Y-37818428D01*
X30680201Y-37826114D01*
X30649500Y-37940691D01*
X30649500Y-38059309D01*
X30680201Y-38173886D01*
X30739511Y-38276613D01*
X30739512Y-38276614D01*
X30743575Y-38283651D01*
X30741824Y-38284661D01*
X30763095Y-38339689D01*
X30749053Y-38408133D01*
X30741822Y-38419384D01*
X30695566Y-38499502D01*
X30680201Y-38526114D01*
X30649500Y-38640691D01*
X30649500Y-38759309D01*
X30680201Y-38873886D01*
X30739511Y-38976613D01*
X30739512Y-38976614D01*
X30743575Y-38983651D01*
X30741824Y-38984661D01*
X30763095Y-39039689D01*
X30749053Y-39108133D01*
X30741822Y-39119384D01*
X30739511Y-39123387D01*
X30680201Y-39226114D01*
X30649500Y-39340691D01*
X30649500Y-39459309D01*
X30680201Y-39573886D01*
X30739511Y-39676613D01*
X30739512Y-39676614D01*
X30743575Y-39683651D01*
X30741824Y-39684661D01*
X30763095Y-39739689D01*
X30749053Y-39808133D01*
X30741822Y-39819384D01*
X30739511Y-39823387D01*
X30680201Y-39926114D01*
X30649500Y-40040691D01*
X30649500Y-40159309D01*
X30680201Y-40273886D01*
X30739511Y-40376613D01*
X30823387Y-40460489D01*
X30926114Y-40519799D01*
X31040691Y-40550500D01*
X31040694Y-40550500D01*
X31159306Y-40550500D01*
X31159309Y-40550500D01*
X31273886Y-40519799D01*
X31376613Y-40460489D01*
X31412025Y-40425076D01*
X31467609Y-40392984D01*
X31515989Y-40380021D01*
X31584511Y-40340460D01*
X31640460Y-40284511D01*
X33540460Y-38384511D01*
X33580022Y-38315988D01*
X33600500Y-38239562D01*
X33600500Y-38160438D01*
X33600500Y-29660438D01*
X33580021Y-29584011D01*
X33580017Y-29584004D01*
X33540464Y-29515495D01*
X33540458Y-29515487D01*
X24036819Y-20011848D01*
X24003334Y-19950525D01*
X24000500Y-19924167D01*
X24000500Y-16175832D01*
X24020185Y-16108793D01*
X24036814Y-16088155D01*
X24988151Y-15136818D01*
X25049474Y-15103334D01*
X25075832Y-15100500D01*
X25165890Y-15100500D01*
X25165892Y-15100500D01*
X25293186Y-15066392D01*
X25407314Y-15000500D01*
X25500500Y-14907314D01*
X25566392Y-14793186D01*
X25600500Y-14665892D01*
X25600500Y-14534108D01*
X25566392Y-14406814D01*
X25500500Y-14292686D01*
X25407314Y-14199500D01*
X25350250Y-14166554D01*
X25293187Y-14133608D01*
X25229539Y-14116554D01*
X25165892Y-14099500D01*
X25034108Y-14099500D01*
X24906812Y-14133608D01*
X24792686Y-14199500D01*
X24792683Y-14199502D01*
X24699502Y-14292683D01*
X24699500Y-14292686D01*
X24633608Y-14406812D01*
X24599500Y-14534108D01*
X24599500Y-14624166D01*
X24579815Y-14691205D01*
X24563181Y-14711847D01*
X23587680Y-15687347D01*
X23526357Y-15720832D01*
X23456665Y-15715848D01*
X23412318Y-15687347D01*
X22936819Y-15211848D01*
X22922115Y-15184920D01*
X22905523Y-15159102D01*
X22904631Y-15152901D01*
X22903334Y-15150525D01*
X22900500Y-15124167D01*
X22900500Y-15058676D01*
X22920185Y-14991637D01*
X22936819Y-14970995D01*
X23000500Y-14907314D01*
X23066392Y-14793186D01*
X23100500Y-14665892D01*
X23100500Y-14534108D01*
X23066392Y-14406814D01*
X23000500Y-14292686D01*
X22907314Y-14199500D01*
X22850250Y-14166554D01*
X22793187Y-14133608D01*
X22729539Y-14116554D01*
X22665892Y-14099500D01*
X22534108Y-14099500D01*
X22406812Y-14133608D01*
X22292686Y-14199500D01*
X22292683Y-14199502D01*
X22199502Y-14292683D01*
X22199500Y-14292686D01*
X22133608Y-14406812D01*
X22099500Y-14534108D01*
X22099500Y-14665892D01*
X22111814Y-14711848D01*
X22133608Y-14793187D01*
X22166554Y-14850250D01*
X22199500Y-14907314D01*
X22199502Y-14907316D01*
X22263181Y-14970995D01*
X22296666Y-15032318D01*
X22299500Y-15058676D01*
X22299500Y-15339562D01*
X22319978Y-15415987D01*
X22322284Y-15419981D01*
X22322287Y-15419987D01*
X22359537Y-15484507D01*
X22359541Y-15484512D01*
X22963181Y-16088152D01*
X22996666Y-16149475D01*
X22999500Y-16175833D01*
X22999500Y-19875167D01*
X22979815Y-19942206D01*
X22927011Y-19987961D01*
X22857853Y-19997905D01*
X22794297Y-19968880D01*
X22787819Y-19962848D01*
X20336819Y-17511848D01*
X20303334Y-17450525D01*
X20300500Y-17424167D01*
X20300500Y-15058676D01*
X20320185Y-14991637D01*
X20336819Y-14970995D01*
X20400500Y-14907314D01*
X20466392Y-14793186D01*
X20500500Y-14665892D01*
X20500500Y-14534108D01*
X20466392Y-14406814D01*
X20400500Y-14292686D01*
X20307314Y-14199500D01*
X20250250Y-14166554D01*
X20193187Y-14133608D01*
X20129539Y-14116554D01*
X20065892Y-14099500D01*
X19934108Y-14099500D01*
X19806812Y-14133608D01*
X19692686Y-14199500D01*
X19692683Y-14199502D01*
X19599502Y-14292683D01*
X19599500Y-14292686D01*
X19533608Y-14406812D01*
X19499500Y-14534108D01*
X19499500Y-14665892D01*
X19511814Y-14711848D01*
X19533608Y-14793187D01*
X19566554Y-14850250D01*
X19599500Y-14907314D01*
X19599502Y-14907316D01*
X19663181Y-14970995D01*
X19696666Y-15032318D01*
X19699500Y-15058676D01*
X19699500Y-15975167D01*
X19679815Y-16042206D01*
X19627011Y-16087961D01*
X19557853Y-16097905D01*
X19494297Y-16068880D01*
X19487819Y-16062848D01*
X18136819Y-14711848D01*
X18103334Y-14650525D01*
X18100500Y-14624167D01*
X18100500Y-14534110D01*
X18100500Y-14534108D01*
X18066392Y-14406814D01*
X18000500Y-14292686D01*
X17907314Y-14199500D01*
X17850250Y-14166554D01*
X17793187Y-14133608D01*
X17729539Y-14116554D01*
X17665892Y-14099500D01*
X17534108Y-14099500D01*
X17406812Y-14133608D01*
X17292686Y-14199500D01*
X17292683Y-14199502D01*
X17199502Y-14292683D01*
X17199500Y-14292686D01*
X17133608Y-14406812D01*
X17099500Y-14534108D01*
X17099500Y-14665892D01*
X17111814Y-14711848D01*
X17133608Y-14793187D01*
X17166554Y-14850250D01*
X17199500Y-14907314D01*
X17292686Y-15000500D01*
X17391521Y-15057563D01*
X17393449Y-15058676D01*
X17406814Y-15066392D01*
X17534108Y-15100500D01*
X17534110Y-15100500D01*
X17624167Y-15100500D01*
X17691206Y-15120185D01*
X17711848Y-15136819D01*
X19263181Y-16688152D01*
X19296666Y-16749475D01*
X19299500Y-16775833D01*
X19299500Y-17675500D01*
X19279815Y-17742539D01*
X19227011Y-17788294D01*
X19175500Y-17799500D01*
X15175833Y-17799500D01*
X15108794Y-17779815D01*
X15088152Y-17763181D01*
X12936819Y-15611848D01*
X12903334Y-15550525D01*
X12900500Y-15524167D01*
X12900500Y-15058676D01*
X12920185Y-14991637D01*
X12936819Y-14970995D01*
X13000500Y-14907314D01*
X13066392Y-14793186D01*
X13100500Y-14665892D01*
X13100500Y-14534108D01*
X13066392Y-14406814D01*
X13000500Y-14292686D01*
X12907314Y-14199500D01*
X12850250Y-14166554D01*
X12793187Y-14133608D01*
X12729539Y-14116554D01*
X12665892Y-14099500D01*
X12534108Y-14099500D01*
X12406812Y-14133608D01*
X12292686Y-14199500D01*
X12292683Y-14199502D01*
X12199502Y-14292683D01*
X12199500Y-14292686D01*
X12133608Y-14406812D01*
X12099500Y-14534108D01*
X12099500Y-14665892D01*
X12111814Y-14711848D01*
X12133608Y-14793187D01*
X12166554Y-14850250D01*
X12199500Y-14907314D01*
X12199502Y-14907316D01*
X12263181Y-14970995D01*
X12277884Y-14997922D01*
X12294477Y-15023741D01*
X12295368Y-15029941D01*
X12296666Y-15032318D01*
X12299500Y-15058676D01*
X12299500Y-15275167D01*
X12279815Y-15342206D01*
X12227011Y-15387961D01*
X12157853Y-15397905D01*
X12094297Y-15368880D01*
X12087819Y-15362848D01*
X11084512Y-14359541D01*
X11084504Y-14359535D01*
X11015995Y-14319982D01*
X11015990Y-14319979D01*
X10990513Y-14313152D01*
X10939562Y-14299500D01*
X10939560Y-14299500D01*
X10558676Y-14299500D01*
X10491637Y-14279815D01*
X10470995Y-14263181D01*
X10407316Y-14199502D01*
X10407314Y-14199500D01*
X10350250Y-14166554D01*
X10293187Y-14133608D01*
X10229539Y-14116554D01*
X10165892Y-14099500D01*
X10034108Y-14099500D01*
X9906812Y-14133608D01*
X9792686Y-14199500D01*
X9792683Y-14199502D01*
X9699502Y-14292683D01*
X9699500Y-14292686D01*
X9633608Y-14406812D01*
X9599500Y-14534108D01*
X500500Y-14534108D01*
X500500Y-10503245D01*
X500670Y-10496756D01*
X503953Y-10434108D01*
X516591Y-10192936D01*
X517945Y-10180064D01*
X565030Y-9882783D01*
X567723Y-9870107D01*
X645627Y-9579367D01*
X649636Y-9567032D01*
X757493Y-9286054D01*
X762763Y-9274215D01*
X899419Y-9006014D01*
X905885Y-8994815D01*
X1069824Y-8742371D01*
X1077426Y-8731908D01*
X1266858Y-8497978D01*
X1275525Y-8488353D01*
X1488353Y-8275525D01*
X1497978Y-8266858D01*
X1731908Y-8077426D01*
X1742371Y-8069824D01*
X1994815Y-7905885D01*
X2006014Y-7899419D01*
X2274215Y-7762763D01*
X2286054Y-7757493D01*
X2567039Y-7649633D01*
X2579367Y-7645627D01*
X2870107Y-7567723D01*
X2882783Y-7565030D01*
X3180064Y-7517945D01*
X3192936Y-7516591D01*
X3496756Y-7500669D01*
X3503245Y-7500500D01*
X3565892Y-7500500D01*
X35434108Y-7500500D01*
X35495933Y-7500500D01*
X35504043Y-7500765D01*
G37*
G04 #@! TD.AperFunction*
G04 #@! TD*
G04 #@! TA.AperFunction,Conductor*
G04 #@! TO.N,Board_1-GND*
G36*
X49495957Y-58499235D02*
G01*
X49247105Y-58482925D01*
X49231047Y-58480810D01*
X49023895Y-58439605D01*
X48990465Y-58432955D01*
X48974798Y-58428757D01*
X48805053Y-58371137D01*
X48742519Y-58349909D01*
X48727542Y-58343706D01*
X48522339Y-58242511D01*
X48507540Y-58235213D01*
X48493494Y-58227103D01*
X48289540Y-58090826D01*
X48276671Y-58080952D01*
X48092251Y-57919219D01*
X48080782Y-57907750D01*
X47982108Y-57795235D01*
X47920045Y-57724465D01*
X47919049Y-57723330D01*
X47909175Y-57710461D01*
X47772898Y-57506507D01*
X47764788Y-57492461D01*
X47656298Y-57272466D01*
X47650091Y-57257480D01*
X47571244Y-57025203D01*
X47567046Y-57009536D01*
X47519193Y-56768965D01*
X47517075Y-56752884D01*
X47500765Y-56504044D01*
X47500500Y-56495934D01*
X47500500Y-30065892D01*
X47500500Y-30000000D01*
X47500500Y-29815046D01*
X47495444Y-29760487D01*
X47466371Y-29446724D01*
X47466370Y-29446723D01*
X47466369Y-29446715D01*
X47398399Y-29083105D01*
X47398397Y-29083098D01*
X47398398Y-29083098D01*
X47307792Y-28764655D01*
X47297168Y-28727317D01*
X47244977Y-28592597D01*
X47163541Y-28382384D01*
X47163540Y-28382383D01*
X47020441Y-28095001D01*
X46998660Y-28051259D01*
X46803928Y-27736757D01*
X46787754Y-27715339D01*
X46605418Y-27473886D01*
X46581008Y-27441563D01*
X46549789Y-27407317D01*
X46331803Y-27168198D01*
X46058440Y-26918995D01*
X46058432Y-26918988D01*
X46022518Y-26891867D01*
X45763243Y-26696072D01*
X45448741Y-26501340D01*
X45117618Y-26336461D01*
X45117617Y-26336460D01*
X45117613Y-26336459D01*
X45117612Y-26336458D01*
X44772683Y-26202832D01*
X44416895Y-26101601D01*
X44053285Y-26033631D01*
X44053278Y-26033631D01*
X44053277Y-26033630D01*
X43875738Y-26017179D01*
X43684954Y-25999500D01*
X43565892Y-25999500D01*
X43503245Y-25999500D01*
X43496757Y-25999331D01*
X43192939Y-25983409D01*
X43180063Y-25982055D01*
X42882788Y-25934971D01*
X42870104Y-25932276D01*
X42579374Y-25854375D01*
X42567033Y-25850364D01*
X42286065Y-25742511D01*
X42274210Y-25737233D01*
X42006024Y-25600585D01*
X41994808Y-25594109D01*
X41742381Y-25430182D01*
X41731900Y-25422567D01*
X41579924Y-25299500D01*
X41497989Y-25233150D01*
X41488344Y-25224465D01*
X41275536Y-25011657D01*
X41266851Y-25002012D01*
X41077436Y-24768104D01*
X41069817Y-24757616D01*
X40905895Y-24505199D01*
X40899413Y-24493971D01*
X40881394Y-24458608D01*
X40762769Y-24225794D01*
X40757490Y-24213936D01*
X40649637Y-23932968D01*
X40645626Y-23920625D01*
X40567727Y-23629903D01*
X40565029Y-23617207D01*
X40517948Y-23319954D01*
X40516591Y-23307045D01*
X40500670Y-23003244D01*
X40500500Y-22996755D01*
X40500500Y-9504067D01*
X40500765Y-9495957D01*
X40517075Y-9247117D01*
X40519193Y-9231036D01*
X40567046Y-8990465D01*
X40571244Y-8974798D01*
X40650091Y-8742521D01*
X40656298Y-8727535D01*
X40764788Y-8507540D01*
X40772898Y-8493494D01*
X40909175Y-8289540D01*
X40919049Y-8276671D01*
X41080782Y-8092251D01*
X41092251Y-8080782D01*
X41276671Y-7919049D01*
X41289540Y-7909175D01*
X41493494Y-7772898D01*
X41507540Y-7764788D01*
X41727535Y-7656298D01*
X41742521Y-7650091D01*
X41974798Y-7571244D01*
X41990465Y-7567046D01*
X42231036Y-7519193D01*
X42247117Y-7517075D01*
X42495957Y-7500765D01*
X42504067Y-7500500D01*
X82495933Y-7500500D01*
X82504043Y-7500765D01*
X82752884Y-7517075D01*
X82768965Y-7519193D01*
X83009536Y-7567046D01*
X83025203Y-7571244D01*
X83257480Y-7650091D01*
X83272466Y-7656298D01*
X83492461Y-7764788D01*
X83506507Y-7772898D01*
X83710461Y-7909175D01*
X83723330Y-7919049D01*
X83724416Y-7920001D01*
X83907750Y-8080782D01*
X83919219Y-8092251D01*
X84080952Y-8276671D01*
X84090826Y-8289540D01*
X84227103Y-8493494D01*
X84235213Y-8507540D01*
X84258162Y-8554075D01*
X84343706Y-8727542D01*
X84349910Y-8742521D01*
X84428757Y-8974798D01*
X84432955Y-8990465D01*
X84445449Y-9053275D01*
X84480811Y-9231051D01*
X84482925Y-9247105D01*
X84499235Y-9495957D01*
X84499500Y-9504067D01*
X84499500Y-9898874D01*
X67570000Y-9898874D01*
X67570000Y-9675000D01*
X67120000Y-9675000D01*
X67120000Y-9175000D01*
X67570000Y-9175000D01*
X67570000Y-8951127D01*
X67541180Y-8806241D01*
X67541178Y-8806233D01*
X67484643Y-8669746D01*
X67484638Y-8669736D01*
X67402564Y-8546904D01*
X67402561Y-8546900D01*
X67298101Y-8442440D01*
X67298093Y-8442434D01*
X67175261Y-8360360D01*
X67175257Y-8360358D01*
X67070001Y-8316760D01*
X67070000Y-8316760D01*
X67070000Y-8858012D01*
X67060060Y-8840795D01*
X67004205Y-8784940D01*
X66935796Y-8745444D01*
X66859496Y-8725000D01*
X66780504Y-8725000D01*
X66704204Y-8745444D01*
X66635795Y-8784940D01*
X66579940Y-8840795D01*
X66570000Y-8858012D01*
X66570000Y-8316760D01*
X66464744Y-8360358D01*
X66464740Y-8360360D01*
X66341908Y-8442434D01*
X66341900Y-8442440D01*
X66237440Y-8546900D01*
X66237437Y-8546904D01*
X66155363Y-8669736D01*
X66155358Y-8669746D01*
X66098823Y-8806233D01*
X66098821Y-8806241D01*
X66070001Y-8951127D01*
X66070000Y-8951129D01*
X66070000Y-9175000D01*
X66520000Y-9175000D01*
X66520000Y-9675000D01*
X66070000Y-9675000D01*
X66070000Y-9898872D01*
X66070001Y-9898874D01*
X58930000Y-9898874D01*
X58930000Y-9675000D01*
X58480000Y-9675000D01*
X58480000Y-9175000D01*
X58930000Y-9175000D01*
X58930000Y-8951127D01*
X58901180Y-8806241D01*
X58901178Y-8806233D01*
X58844643Y-8669746D01*
X58844638Y-8669736D01*
X58762564Y-8546904D01*
X58762561Y-8546900D01*
X58658101Y-8442440D01*
X58658093Y-8442434D01*
X58535261Y-8360360D01*
X58535257Y-8360358D01*
X58430001Y-8316760D01*
X58430000Y-8316760D01*
X58430000Y-8858012D01*
X58420060Y-8840795D01*
X58364205Y-8784940D01*
X58295796Y-8745444D01*
X58219496Y-8725000D01*
X58140504Y-8725000D01*
X58064204Y-8745444D01*
X57995795Y-8784940D01*
X57939940Y-8840795D01*
X57930000Y-8858012D01*
X57930000Y-8316760D01*
X57824744Y-8360358D01*
X57824740Y-8360360D01*
X57701908Y-8442434D01*
X57701900Y-8442440D01*
X57597440Y-8546900D01*
X57597437Y-8546904D01*
X57515363Y-8669736D01*
X57515358Y-8669746D01*
X57458823Y-8806233D01*
X57458821Y-8806239D01*
X57451000Y-8845554D01*
X57451000Y-8845555D01*
X57430001Y-8951127D01*
X57430000Y-8951129D01*
X57430000Y-9175000D01*
X57880000Y-9175000D01*
X57880000Y-9675000D01*
X57430000Y-9675000D01*
X57430000Y-9894629D01*
X54000000Y-9894629D01*
X54000000Y-9270000D01*
X53333012Y-9270000D01*
X53365925Y-9212993D01*
X53400000Y-9085826D01*
X53400000Y-8954174D01*
X53365925Y-8827007D01*
X53333012Y-8770000D01*
X54000000Y-8770000D01*
X54000000Y-8145372D01*
X53985497Y-8072460D01*
X53985495Y-8072456D01*
X53930240Y-7989761D01*
X53847545Y-7934506D01*
X53847541Y-7934504D01*
X53774629Y-7920001D01*
X53774626Y-7920000D01*
X53150000Y-7920000D01*
X53150000Y-8586988D01*
X53092993Y-8554075D01*
X52965826Y-8520000D01*
X52834174Y-8520000D01*
X52707007Y-8554075D01*
X52650000Y-8586988D01*
X52650000Y-7920000D01*
X52025374Y-7920000D01*
X52025372Y-7920001D01*
X51952460Y-7934504D01*
X51952456Y-7934506D01*
X51869761Y-7989761D01*
X51814506Y-8072456D01*
X51814504Y-8072460D01*
X51800001Y-8145372D01*
X51800000Y-8145374D01*
X51800000Y-8770000D01*
X52466988Y-8770000D01*
X52434075Y-8827007D01*
X52400000Y-8954174D01*
X52400000Y-9085826D01*
X52434075Y-9212993D01*
X52466988Y-9270000D01*
X51800000Y-9270000D01*
X51800000Y-9894627D01*
X51800001Y-9894629D01*
X51814504Y-9967541D01*
X51814506Y-9967545D01*
X51869761Y-10050240D01*
X51952456Y-10105495D01*
X51952460Y-10105497D01*
X52025373Y-10120000D01*
X52650000Y-10120000D01*
X52650000Y-9453012D01*
X52707007Y-9485925D01*
X52834174Y-9520000D01*
X52965826Y-9520000D01*
X53092993Y-9485925D01*
X53150000Y-9453012D01*
X53150000Y-10120000D01*
X53774627Y-10120000D01*
X53847541Y-10105497D01*
X53847545Y-10105495D01*
X53930240Y-10050240D01*
X53985495Y-9967545D01*
X53985497Y-9967541D01*
X54000000Y-9894629D01*
X57430000Y-9894629D01*
X57430000Y-9898872D01*
X57430001Y-9898874D01*
X57458821Y-10043760D01*
X57458823Y-10043768D01*
X57515358Y-10180255D01*
X57515363Y-10180264D01*
X57520178Y-10187471D01*
X57597437Y-10303098D01*
X57701900Y-10407561D01*
X57701904Y-10407564D01*
X57824736Y-10489638D01*
X57824746Y-10489643D01*
X57930000Y-10533241D01*
X57930000Y-9991989D01*
X57939940Y-10009205D01*
X57995795Y-10065060D01*
X58064204Y-10104556D01*
X58140504Y-10125000D01*
X58219496Y-10125000D01*
X58295796Y-10104556D01*
X58364205Y-10065060D01*
X58420060Y-10009205D01*
X58430000Y-9991989D01*
X58430000Y-10533241D01*
X58430001Y-10533241D01*
X58535255Y-10489643D01*
X58535265Y-10489638D01*
X58658097Y-10407564D01*
X58658101Y-10407561D01*
X58762561Y-10303101D01*
X58762564Y-10303097D01*
X58844638Y-10180265D01*
X58844643Y-10180255D01*
X58901178Y-10043768D01*
X58901180Y-10043760D01*
X58930000Y-9898874D01*
X66070001Y-9898874D01*
X66098821Y-10043760D01*
X66098823Y-10043768D01*
X66155358Y-10180255D01*
X66155363Y-10180265D01*
X66237437Y-10303097D01*
X66237440Y-10303101D01*
X66341900Y-10407561D01*
X66341904Y-10407564D01*
X66464736Y-10489638D01*
X66464746Y-10489643D01*
X66570000Y-10533241D01*
X66570000Y-9991989D01*
X66579940Y-10009205D01*
X66635795Y-10065060D01*
X66704204Y-10104556D01*
X66780504Y-10125000D01*
X66859496Y-10125000D01*
X66935796Y-10104556D01*
X67004205Y-10065060D01*
X67060060Y-10009205D01*
X67070000Y-9991989D01*
X67070000Y-10533241D01*
X67070001Y-10533241D01*
X67175255Y-10489643D01*
X67175265Y-10489638D01*
X67298097Y-10407564D01*
X67298101Y-10407561D01*
X67402561Y-10303101D01*
X67402564Y-10303097D01*
X67484638Y-10180265D01*
X67484643Y-10180255D01*
X67541178Y-10043768D01*
X67541180Y-10043760D01*
X67570000Y-9898874D01*
X84499500Y-9898874D01*
X84499500Y-11663470D01*
X53950500Y-11663470D01*
X53950500Y-11456531D01*
X53910132Y-11253588D01*
X53910130Y-11253580D01*
X53830941Y-11062402D01*
X53773459Y-10976374D01*
X53715976Y-10890343D01*
X53569658Y-10744025D01*
X53569655Y-10744023D01*
X53397598Y-10629059D01*
X53206420Y-10549870D01*
X53003470Y-10509501D01*
X53003466Y-10509500D01*
X53003465Y-10509500D01*
X52796534Y-10509500D01*
X52796533Y-10509501D01*
X52593580Y-10549870D01*
X52402402Y-10629059D01*
X52230345Y-10744023D01*
X52084023Y-10890345D01*
X51969059Y-11062402D01*
X51889870Y-11253580D01*
X51849500Y-11456535D01*
X51849500Y-11552845D01*
X44177500Y-11552845D01*
X44177500Y-10705000D01*
X43227501Y-10705000D01*
X43252521Y-10644598D01*
X43277500Y-10519019D01*
X43277500Y-10390981D01*
X43252521Y-10265402D01*
X43227501Y-10205000D01*
X44177500Y-10205000D01*
X44177500Y-9357156D01*
X44171099Y-9297628D01*
X44171097Y-9297621D01*
X44120855Y-9162914D01*
X44120851Y-9162907D01*
X44034691Y-9047813D01*
X44034688Y-9047810D01*
X43919594Y-8961650D01*
X43919587Y-8961646D01*
X43784880Y-8911404D01*
X43784873Y-8911402D01*
X43725345Y-8905001D01*
X43725328Y-8905000D01*
X42877500Y-8905000D01*
X42877500Y-9854999D01*
X42817098Y-9829979D01*
X42691519Y-9805000D01*
X42563481Y-9805000D01*
X42437902Y-9829979D01*
X42377500Y-9854999D01*
X42377500Y-8905000D01*
X41529672Y-8905000D01*
X41529656Y-8905001D01*
X41470128Y-8911402D01*
X41470121Y-8911404D01*
X41335414Y-8961646D01*
X41335407Y-8961650D01*
X41220313Y-9047810D01*
X41220310Y-9047813D01*
X41134150Y-9162907D01*
X41134146Y-9162914D01*
X41083904Y-9297621D01*
X41083902Y-9297628D01*
X41077501Y-9357156D01*
X41077500Y-9357173D01*
X41077500Y-10205000D01*
X42027499Y-10205000D01*
X42002479Y-10265402D01*
X41977500Y-10390981D01*
X41977500Y-10519019D01*
X42002479Y-10644598D01*
X42027499Y-10705000D01*
X41077500Y-10705000D01*
X41077500Y-11552828D01*
X41077501Y-11552845D01*
X41083902Y-11612373D01*
X41083904Y-11612380D01*
X41134146Y-11747087D01*
X41134150Y-11747094D01*
X41220310Y-11862188D01*
X41220313Y-11862191D01*
X41335407Y-11948351D01*
X41335414Y-11948355D01*
X41470121Y-11998597D01*
X41470128Y-11998599D01*
X41529656Y-12005000D01*
X42377500Y-12005000D01*
X42377500Y-11055002D01*
X42437902Y-11080021D01*
X42563481Y-11105000D01*
X42691519Y-11105000D01*
X42817098Y-11080021D01*
X42877500Y-11055002D01*
X42877500Y-12005000D01*
X43725345Y-12005000D01*
X43784873Y-11998599D01*
X43784880Y-11998597D01*
X43919587Y-11948355D01*
X43919594Y-11948351D01*
X44034688Y-11862191D01*
X44034691Y-11862188D01*
X44120851Y-11747094D01*
X44120855Y-11747087D01*
X44171097Y-11612380D01*
X44171099Y-11612373D01*
X44177500Y-11552845D01*
X51849500Y-11552845D01*
X51849500Y-11663465D01*
X51889870Y-11866420D01*
X51969059Y-12057598D01*
X52084023Y-12229655D01*
X52084025Y-12229658D01*
X52230343Y-12375976D01*
X52316374Y-12433459D01*
X52402402Y-12490941D01*
X52406021Y-12492440D01*
X52593580Y-12570130D01*
X52593588Y-12570132D01*
X52796531Y-12610500D01*
X52796535Y-12610500D01*
X53003465Y-12610500D01*
X53003470Y-12610500D01*
X53206413Y-12570132D01*
X53206421Y-12570130D01*
X53397597Y-12490942D01*
X53569658Y-12375976D01*
X53715976Y-12229658D01*
X53830942Y-12057597D01*
X53910130Y-11866421D01*
X53910132Y-11866413D01*
X53950500Y-11663470D01*
X84499500Y-11663470D01*
X84499500Y-14248874D01*
X67570000Y-14248874D01*
X67570000Y-13875000D01*
X67120000Y-13875000D01*
X67120000Y-13375000D01*
X67570000Y-13375000D01*
X67570000Y-13001127D01*
X67541180Y-12856241D01*
X67541178Y-12856233D01*
X67484643Y-12719746D01*
X67484638Y-12719736D01*
X67402564Y-12596904D01*
X67402561Y-12596900D01*
X67298101Y-12492440D01*
X67298093Y-12492434D01*
X67175261Y-12410360D01*
X67175257Y-12410358D01*
X67070001Y-12366760D01*
X67070000Y-12366760D01*
X67070000Y-12908012D01*
X67060060Y-12890795D01*
X67004205Y-12834940D01*
X66935796Y-12795444D01*
X66859496Y-12775000D01*
X66780504Y-12775000D01*
X66704204Y-12795444D01*
X66635795Y-12834940D01*
X66579940Y-12890795D01*
X66570000Y-12908012D01*
X66570000Y-12366760D01*
X66464744Y-12410358D01*
X66464740Y-12410360D01*
X66341908Y-12492434D01*
X66341900Y-12492440D01*
X66237440Y-12596900D01*
X66237437Y-12596904D01*
X66155363Y-12719736D01*
X66155358Y-12719746D01*
X66098823Y-12856233D01*
X66098821Y-12856241D01*
X66081909Y-12941260D01*
X66049525Y-13003171D01*
X65988809Y-13037745D01*
X65919040Y-13034006D01*
X65862367Y-12993140D01*
X65840518Y-12949165D01*
X65833096Y-12921467D01*
X65833095Y-12921464D01*
X65770495Y-12813036D01*
X65681964Y-12724505D01*
X65573536Y-12661905D01*
X65452601Y-12629500D01*
X65452599Y-12629500D01*
X65327401Y-12629500D01*
X65327399Y-12629500D01*
X65206464Y-12661905D01*
X65098036Y-12724505D01*
X65009505Y-12813036D01*
X64946905Y-12921464D01*
X64914500Y-13042399D01*
X64914500Y-13167601D01*
X64946905Y-13288536D01*
X65009505Y-13396964D01*
X65098036Y-13485495D01*
X65206464Y-13548095D01*
X65206463Y-13548095D01*
X65246776Y-13558897D01*
X65327399Y-13580500D01*
X65452601Y-13580500D01*
X65533225Y-13558897D01*
X65573537Y-13548095D01*
X65681963Y-13485496D01*
X65681966Y-13485494D01*
X65770494Y-13396966D01*
X65770496Y-13396963D01*
X65837158Y-13281498D01*
X65839324Y-13282749D01*
X65875283Y-13238129D01*
X65941577Y-13216066D01*
X66009276Y-13233347D01*
X66056885Y-13284485D01*
X66070000Y-13339987D01*
X66070000Y-13375000D01*
X66520000Y-13375000D01*
X66520000Y-13875000D01*
X66070000Y-13875000D01*
X66070000Y-14248872D01*
X66070001Y-14248874D01*
X66098821Y-14393760D01*
X66098823Y-14393768D01*
X66155358Y-14530255D01*
X66155363Y-14530265D01*
X66237437Y-14653097D01*
X66237440Y-14653101D01*
X66341900Y-14757561D01*
X66341904Y-14757564D01*
X66464736Y-14839638D01*
X66464746Y-14839643D01*
X66570000Y-14883241D01*
X66570000Y-14341989D01*
X66579940Y-14359205D01*
X66635795Y-14415060D01*
X66704204Y-14454556D01*
X66780504Y-14475000D01*
X66859496Y-14475000D01*
X66935796Y-14454556D01*
X67004205Y-14415060D01*
X67060060Y-14359205D01*
X67070000Y-14341989D01*
X67070000Y-14883241D01*
X67070001Y-14883241D01*
X67175255Y-14839643D01*
X67175265Y-14839638D01*
X67298097Y-14757564D01*
X67298101Y-14757561D01*
X67402561Y-14653101D01*
X67402564Y-14653097D01*
X67484638Y-14530265D01*
X67484643Y-14530255D01*
X67541178Y-14393768D01*
X67541180Y-14393760D01*
X67570000Y-14248874D01*
X84499500Y-14248874D01*
X84499500Y-17148595D01*
X84175000Y-17148595D01*
X84175000Y-16886406D01*
X84140780Y-16626491D01*
X84140778Y-16626480D01*
X84072925Y-16373245D01*
X83972596Y-16131029D01*
X83972591Y-16131018D01*
X83841512Y-15903984D01*
X83841506Y-15903976D01*
X83754920Y-15791135D01*
X83147088Y-16398968D01*
X83052171Y-16268325D01*
X82924175Y-16140329D01*
X82793535Y-16045414D01*
X83401367Y-15437583D01*
X83401367Y-15437582D01*
X83288525Y-15350995D01*
X83288517Y-15350989D01*
X83061483Y-15219910D01*
X83061472Y-15219905D01*
X82819256Y-15119576D01*
X82566021Y-15051723D01*
X82566010Y-15051721D01*
X82306095Y-15017501D01*
X82306080Y-15017500D01*
X82043920Y-15017500D01*
X82043906Y-15017501D01*
X81783991Y-15051721D01*
X81783980Y-15051723D01*
X81530745Y-15119576D01*
X81288529Y-15219905D01*
X81288518Y-15219910D01*
X81061484Y-15350989D01*
X81061466Y-15351001D01*
X80948635Y-15437581D01*
X80948635Y-15437583D01*
X81556466Y-16045414D01*
X81425825Y-16140329D01*
X81297829Y-16268325D01*
X81202914Y-16398966D01*
X80595083Y-15791135D01*
X80595081Y-15791135D01*
X80508501Y-15903966D01*
X80508489Y-15903984D01*
X80377410Y-16131018D01*
X80377405Y-16131029D01*
X80277076Y-16373245D01*
X80209223Y-16626480D01*
X80209221Y-16626491D01*
X80175001Y-16886406D01*
X80175000Y-16886420D01*
X80175000Y-17148581D01*
X80175001Y-17148595D01*
X70825000Y-17148595D01*
X70825000Y-16886406D01*
X70790780Y-16626491D01*
X70790778Y-16626480D01*
X70722925Y-16373245D01*
X70622596Y-16131029D01*
X70622591Y-16131018D01*
X70491512Y-15903984D01*
X70491506Y-15903976D01*
X70404920Y-15791135D01*
X69797088Y-16398968D01*
X69702171Y-16268325D01*
X69574175Y-16140329D01*
X69443535Y-16045414D01*
X70051367Y-15437583D01*
X70051367Y-15437582D01*
X69938525Y-15350995D01*
X69938517Y-15350989D01*
X69711483Y-15219910D01*
X69711472Y-15219905D01*
X69469256Y-15119576D01*
X69216021Y-15051723D01*
X69216010Y-15051721D01*
X68956095Y-15017501D01*
X68956080Y-15017500D01*
X68693920Y-15017500D01*
X68693906Y-15017501D01*
X68433991Y-15051721D01*
X68433980Y-15051723D01*
X68180745Y-15119576D01*
X67938529Y-15219905D01*
X67938518Y-15219910D01*
X67711484Y-15350989D01*
X67711466Y-15351001D01*
X67598635Y-15437581D01*
X67598635Y-15437583D01*
X68206466Y-16045414D01*
X68075825Y-16140329D01*
X67947829Y-16268325D01*
X67852914Y-16398966D01*
X67245083Y-15791135D01*
X67245081Y-15791135D01*
X67158501Y-15903966D01*
X67158489Y-15903984D01*
X67027410Y-16131018D01*
X67027405Y-16131029D01*
X66927076Y-16373245D01*
X66859223Y-16626480D01*
X66859221Y-16626491D01*
X66825001Y-16886406D01*
X66825000Y-16886420D01*
X66825000Y-17148581D01*
X66825001Y-17148595D01*
X66859221Y-17408510D01*
X66859223Y-17408521D01*
X66927076Y-17661756D01*
X67027405Y-17903972D01*
X67027410Y-17903983D01*
X67158489Y-18131017D01*
X67158495Y-18131025D01*
X67245082Y-18243867D01*
X67245083Y-18243867D01*
X67852915Y-17636036D01*
X67947829Y-17766675D01*
X68075825Y-17894671D01*
X68206468Y-17989588D01*
X67598635Y-18597420D01*
X67711476Y-18684006D01*
X67711484Y-18684012D01*
X67938518Y-18815091D01*
X67938529Y-18815096D01*
X68180745Y-18915425D01*
X68433980Y-18983278D01*
X68433991Y-18983280D01*
X68693906Y-19017500D01*
X68956095Y-19017500D01*
X69216010Y-18983280D01*
X69216021Y-18983278D01*
X69469256Y-18915425D01*
X69711472Y-18815096D01*
X69711483Y-18815091D01*
X69938529Y-18684004D01*
X70051367Y-18597421D01*
X70051367Y-18597420D01*
X69443534Y-17989587D01*
X69574175Y-17894671D01*
X69702171Y-17766675D01*
X69797087Y-17636034D01*
X70404920Y-18243867D01*
X70404921Y-18243867D01*
X70491504Y-18131029D01*
X70622591Y-17903983D01*
X70622596Y-17903972D01*
X70722925Y-17661756D01*
X70790778Y-17408521D01*
X70790780Y-17408510D01*
X70825000Y-17148595D01*
X80175001Y-17148595D01*
X80209221Y-17408510D01*
X80209223Y-17408521D01*
X80277076Y-17661756D01*
X80377405Y-17903972D01*
X80377410Y-17903983D01*
X80508489Y-18131017D01*
X80508495Y-18131025D01*
X80595082Y-18243867D01*
X80595083Y-18243867D01*
X81202915Y-17636036D01*
X81297829Y-17766675D01*
X81425825Y-17894671D01*
X81556468Y-17989588D01*
X80948635Y-18597420D01*
X81061476Y-18684006D01*
X81061484Y-18684012D01*
X81288518Y-18815091D01*
X81288529Y-18815096D01*
X81530745Y-18915425D01*
X81783980Y-18983278D01*
X81783991Y-18983280D01*
X82043906Y-19017500D01*
X82306095Y-19017500D01*
X82566010Y-18983280D01*
X82566021Y-18983278D01*
X82819256Y-18915425D01*
X83061472Y-18815096D01*
X83061483Y-18815091D01*
X83288529Y-18684004D01*
X83401367Y-18597421D01*
X83401367Y-18597420D01*
X82793534Y-17989587D01*
X82924175Y-17894671D01*
X83052171Y-17766675D01*
X83147087Y-17636034D01*
X83754920Y-18243867D01*
X83754921Y-18243867D01*
X83841504Y-18131029D01*
X83972591Y-17903983D01*
X83972596Y-17903972D01*
X84072925Y-17661756D01*
X84140778Y-17408521D01*
X84140780Y-17408510D01*
X84175000Y-17148595D01*
X84499500Y-17148595D01*
X84499500Y-20509253D01*
X79962500Y-20509253D01*
X79962500Y-18945748D01*
X79950869Y-18887271D01*
X79950868Y-18887270D01*
X79906553Y-18820948D01*
X79840231Y-18776633D01*
X79840230Y-18776632D01*
X79781753Y-18765001D01*
X79781750Y-18765000D01*
X79781748Y-18765000D01*
X78218250Y-18765000D01*
X78218249Y-18765001D01*
X78203432Y-18767948D01*
X78159771Y-18776632D01*
X78159771Y-18776633D01*
X78159769Y-18776633D01*
X78093448Y-18820948D01*
X78049133Y-18887269D01*
X78049133Y-18887271D01*
X78049132Y-18887271D01*
X78037501Y-18945748D01*
X78037500Y-18945750D01*
X78037500Y-19822303D01*
X77462500Y-19822303D01*
X77462500Y-19632698D01*
X77425514Y-19446757D01*
X77425512Y-19446749D01*
X77352958Y-19271588D01*
X77247623Y-19113942D01*
X77113559Y-18979878D01*
X77017098Y-18915425D01*
X76955915Y-18874544D01*
X76780751Y-18801988D01*
X76594803Y-18765001D01*
X76594799Y-18765000D01*
X76594798Y-18765000D01*
X76405201Y-18765000D01*
X76405200Y-18765001D01*
X76219249Y-18801988D01*
X76044085Y-18874544D01*
X75886442Y-18979878D01*
X75752378Y-19113942D01*
X75647044Y-19271585D01*
X75614561Y-19350005D01*
X75570720Y-19404409D01*
X75504426Y-19426474D01*
X75436727Y-19409195D01*
X75389116Y-19358058D01*
X75385439Y-19350005D01*
X75352959Y-19271590D01*
X75352958Y-19271588D01*
X75247623Y-19113942D01*
X75113559Y-18979878D01*
X75017098Y-18915425D01*
X74955915Y-18874544D01*
X74780751Y-18801988D01*
X74594803Y-18765001D01*
X74594799Y-18765000D01*
X74594798Y-18765000D01*
X74405201Y-18765000D01*
X74405200Y-18765001D01*
X74219249Y-18801988D01*
X74044085Y-18874544D01*
X73886442Y-18979878D01*
X73883040Y-18983280D01*
X73876152Y-18990167D01*
X73752381Y-19113939D01*
X73752378Y-19113942D01*
X73647044Y-19271585D01*
X73574488Y-19446749D01*
X73537500Y-19632702D01*
X73537500Y-19822298D01*
X73538471Y-19827178D01*
X73012000Y-19827178D01*
X73012000Y-19627823D01*
X72973112Y-19432318D01*
X72973110Y-19432310D01*
X72896824Y-19248140D01*
X72871226Y-19209830D01*
X72871225Y-19209829D01*
X72450303Y-19630752D01*
X72428651Y-19549947D01*
X72368091Y-19445054D01*
X72282446Y-19359409D01*
X72177553Y-19298849D01*
X72096750Y-19277198D01*
X72517673Y-18856275D01*
X72479368Y-18830681D01*
X72479360Y-18830676D01*
X72295191Y-18754391D01*
X72295183Y-18754389D01*
X72099678Y-18715501D01*
X72099674Y-18715500D01*
X71900326Y-18715500D01*
X71900323Y-18715501D01*
X71704818Y-18754389D01*
X71704810Y-18754391D01*
X71520640Y-18830677D01*
X71520634Y-18830680D01*
X71482329Y-18856275D01*
X71482329Y-18856276D01*
X71903251Y-19277198D01*
X71822447Y-19298849D01*
X71717554Y-19359409D01*
X71631909Y-19445054D01*
X71571349Y-19549947D01*
X71549698Y-19630752D01*
X71128775Y-19209829D01*
X71103180Y-19248134D01*
X71103177Y-19248140D01*
X71026891Y-19432310D01*
X71026889Y-19432318D01*
X70988001Y-19627823D01*
X70988000Y-19627826D01*
X70988000Y-19827174D01*
X70988001Y-19827178D01*
X71026889Y-20022683D01*
X71026891Y-20022691D01*
X71103176Y-20206860D01*
X71103181Y-20206868D01*
X71128775Y-20245173D01*
X71549698Y-19824250D01*
X71571349Y-19905053D01*
X71631909Y-20009946D01*
X71717554Y-20095591D01*
X71822447Y-20156151D01*
X71903251Y-20177803D01*
X71482329Y-20598725D01*
X71482330Y-20598726D01*
X71520640Y-20624324D01*
X71704810Y-20700610D01*
X71704818Y-20700612D01*
X71900323Y-20739500D01*
X72099678Y-20739500D01*
X72295183Y-20700612D01*
X72295191Y-20700610D01*
X72479361Y-20624324D01*
X72517673Y-20598726D01*
X72096750Y-20177803D01*
X72177553Y-20156151D01*
X72282446Y-20095591D01*
X72368091Y-20009946D01*
X72428651Y-19905053D01*
X72450303Y-19824250D01*
X72871226Y-20245173D01*
X72896824Y-20206861D01*
X72973110Y-20022691D01*
X72973112Y-20022683D01*
X73012000Y-19827178D01*
X73538471Y-19827178D01*
X73542942Y-19849655D01*
X73553961Y-19905053D01*
X73574488Y-20008251D01*
X73647044Y-20183415D01*
X73688309Y-20245173D01*
X73752378Y-20341059D01*
X73886442Y-20475123D01*
X74044088Y-20580458D01*
X74219249Y-20653012D01*
X74219257Y-20653014D01*
X74405198Y-20690000D01*
X74405202Y-20690000D01*
X74594798Y-20690000D01*
X74594803Y-20690000D01*
X74780744Y-20653014D01*
X74780752Y-20653012D01*
X74955913Y-20580458D01*
X75113559Y-20475123D01*
X75247623Y-20341059D01*
X75352958Y-20183413D01*
X75385439Y-20104995D01*
X75429280Y-20050592D01*
X75495574Y-20028527D01*
X75563274Y-20045806D01*
X75610884Y-20096944D01*
X75614561Y-20104995D01*
X75647043Y-20183413D01*
X75662710Y-20206860D01*
X75688309Y-20245173D01*
X75752378Y-20341059D01*
X75886442Y-20475123D01*
X75980688Y-20538096D01*
X76044085Y-20580456D01*
X76044088Y-20580458D01*
X76044089Y-20580458D01*
X76049757Y-20582806D01*
X76104159Y-20626648D01*
X76126223Y-20692942D01*
X76108943Y-20760641D01*
X76089987Y-20785043D01*
X75777948Y-21097081D01*
X75716625Y-21130566D01*
X75690267Y-21133400D01*
X68676833Y-21133400D01*
X68609794Y-21113715D01*
X68589152Y-21097081D01*
X63449706Y-15957635D01*
X63416221Y-15896312D01*
X63421205Y-15826620D01*
X63429999Y-15807955D01*
X63467392Y-15743189D01*
X63494917Y-15640460D01*
X63501500Y-15615892D01*
X63501500Y-15484108D01*
X63489033Y-15437581D01*
X63467392Y-15356813D01*
X63464029Y-15350989D01*
X63401500Y-15242686D01*
X63308314Y-15149500D01*
X63194186Y-15083608D01*
X63066892Y-15049500D01*
X63066890Y-15049500D01*
X62935110Y-15049500D01*
X62935108Y-15049500D01*
X62807814Y-15083608D01*
X62693686Y-15149500D01*
X62600500Y-15242686D01*
X62534608Y-15356814D01*
X62534608Y-15356817D01*
X62531578Y-15364130D01*
X62510987Y-15389686D01*
X62491325Y-15415949D01*
X62489179Y-15416750D01*
X62487740Y-15418535D01*
X62456599Y-15428902D01*
X62425861Y-15440366D01*
X62423622Y-15439879D01*
X62421446Y-15440603D01*
X62389639Y-15432487D01*
X62357588Y-15425514D01*
X62355143Y-15423684D01*
X62353746Y-15423327D01*
X62329334Y-15404363D01*
X62236819Y-15311848D01*
X62203334Y-15250525D01*
X62200500Y-15224167D01*
X62200500Y-13554893D01*
X62220185Y-13487854D01*
X62252261Y-13457268D01*
X62250865Y-13455448D01*
X62257317Y-13450498D01*
X62350498Y-13357317D01*
X62350500Y-13357314D01*
X62416392Y-13243188D01*
X62450500Y-13115892D01*
X62450500Y-12984109D01*
X62416392Y-12856813D01*
X62416057Y-12856233D01*
X62350500Y-12742686D01*
X62257314Y-12649500D01*
X62143186Y-12583608D01*
X62015892Y-12549500D01*
X62015890Y-12549500D01*
X61884110Y-12549500D01*
X61884108Y-12549500D01*
X61756814Y-12583608D01*
X61642686Y-12649500D01*
X61549500Y-12742686D01*
X61483608Y-12856814D01*
X61449500Y-12984108D01*
X61449500Y-13115892D01*
X61463355Y-13167601D01*
X60085500Y-13167601D01*
X60085500Y-13042399D01*
X60053095Y-12921464D01*
X59990495Y-12813036D01*
X59901964Y-12724505D01*
X59793536Y-12661905D01*
X59672601Y-12629500D01*
X59672599Y-12629500D01*
X59547401Y-12629500D01*
X59547399Y-12629500D01*
X59426464Y-12661905D01*
X59318036Y-12724505D01*
X59229505Y-12813036D01*
X59166905Y-12921464D01*
X59159483Y-12949165D01*
X59123120Y-13008822D01*
X59060273Y-13039352D01*
X58990897Y-13031058D01*
X58937019Y-12986573D01*
X58918092Y-12941261D01*
X58901180Y-12856239D01*
X58901178Y-12856233D01*
X58844643Y-12719746D01*
X58844638Y-12719736D01*
X58762564Y-12596904D01*
X58762561Y-12596900D01*
X58658101Y-12492440D01*
X58658093Y-12492434D01*
X58535261Y-12410360D01*
X58535257Y-12410358D01*
X58430001Y-12366760D01*
X58430000Y-12366760D01*
X58430000Y-12908012D01*
X58420060Y-12890795D01*
X58364205Y-12834940D01*
X58295796Y-12795444D01*
X58219496Y-12775000D01*
X58140504Y-12775000D01*
X58064204Y-12795444D01*
X57995795Y-12834940D01*
X57939940Y-12890795D01*
X57930000Y-12908012D01*
X57930000Y-12366760D01*
X57824744Y-12410358D01*
X57824740Y-12410360D01*
X57701908Y-12492434D01*
X57701900Y-12492440D01*
X57597440Y-12596900D01*
X57597437Y-12596904D01*
X57515363Y-12719736D01*
X57515358Y-12719746D01*
X57458823Y-12856233D01*
X57458821Y-12856241D01*
X57430001Y-13001127D01*
X57430000Y-13001129D01*
X57430000Y-13375000D01*
X57880000Y-13375000D01*
X57880000Y-13875000D01*
X57430000Y-13875000D01*
X57430000Y-14203470D01*
X53950500Y-14203470D01*
X53950500Y-13996531D01*
X53910132Y-13793588D01*
X53910130Y-13793580D01*
X53830941Y-13602402D01*
X53799197Y-13554893D01*
X53715976Y-13430343D01*
X53569658Y-13284025D01*
X53569655Y-13284023D01*
X53397598Y-13169059D01*
X53206420Y-13089870D01*
X53003470Y-13049501D01*
X53003466Y-13049500D01*
X53003465Y-13049500D01*
X52796534Y-13049500D01*
X52796533Y-13049501D01*
X52593580Y-13089870D01*
X52402402Y-13169059D01*
X52230345Y-13284023D01*
X52084023Y-13430345D01*
X51969059Y-13602402D01*
X51889870Y-13793580D01*
X51849500Y-13996535D01*
X51849500Y-14203465D01*
X51889870Y-14406420D01*
X51969059Y-14597598D01*
X52084023Y-14769655D01*
X52084025Y-14769658D01*
X52230343Y-14915976D01*
X52382286Y-15017500D01*
X52402402Y-15030941D01*
X52447210Y-15049501D01*
X52593580Y-15110130D01*
X52593588Y-15110132D01*
X52796531Y-15150500D01*
X52796535Y-15150500D01*
X53003465Y-15150500D01*
X53003470Y-15150500D01*
X53206413Y-15110132D01*
X53206421Y-15110130D01*
X53397597Y-15030942D01*
X53569658Y-14915976D01*
X53715976Y-14769658D01*
X53830942Y-14597597D01*
X53910130Y-14406421D01*
X53910132Y-14406413D01*
X53950500Y-14203470D01*
X57430000Y-14203470D01*
X57430000Y-14248872D01*
X57430001Y-14248874D01*
X57458821Y-14393760D01*
X57458823Y-14393768D01*
X57515358Y-14530255D01*
X57515363Y-14530265D01*
X57597437Y-14653097D01*
X57597440Y-14653101D01*
X57701900Y-14757561D01*
X57701904Y-14757564D01*
X57824736Y-14839638D01*
X57824746Y-14839643D01*
X57930000Y-14883241D01*
X57930000Y-14341989D01*
X57939940Y-14359205D01*
X57995795Y-14415060D01*
X58064204Y-14454556D01*
X58140504Y-14475000D01*
X58219496Y-14475000D01*
X58295796Y-14454556D01*
X58364205Y-14415060D01*
X58420060Y-14359205D01*
X58430000Y-14341989D01*
X58430000Y-14883241D01*
X58430001Y-14883241D01*
X58535255Y-14839643D01*
X58535265Y-14839638D01*
X58658097Y-14757564D01*
X58658101Y-14757561D01*
X58762561Y-14653101D01*
X58762564Y-14653097D01*
X58844638Y-14530265D01*
X58844643Y-14530255D01*
X58901178Y-14393768D01*
X58901180Y-14393760D01*
X58930000Y-14248874D01*
X58930000Y-13875000D01*
X58480000Y-13875000D01*
X58480000Y-13375000D01*
X58930000Y-13375000D01*
X58930000Y-13339987D01*
X58949685Y-13272948D01*
X59002489Y-13227193D01*
X59071647Y-13217249D01*
X59135203Y-13246274D01*
X59161262Y-13282411D01*
X59162842Y-13281498D01*
X59196610Y-13339987D01*
X59229505Y-13396964D01*
X59318036Y-13485495D01*
X59426464Y-13548095D01*
X59426463Y-13548095D01*
X59466776Y-13558897D01*
X59547399Y-13580500D01*
X59672601Y-13580500D01*
X59753225Y-13558897D01*
X59793537Y-13548095D01*
X59901963Y-13485496D01*
X59901966Y-13485494D01*
X59990494Y-13396966D01*
X59990496Y-13396963D01*
X60053095Y-13288537D01*
X60054646Y-13282749D01*
X60085500Y-13167601D01*
X61463355Y-13167601D01*
X61483608Y-13243186D01*
X61549500Y-13357314D01*
X61563181Y-13370995D01*
X61596666Y-13432318D01*
X61599500Y-13458676D01*
X61599500Y-15439561D01*
X61599585Y-15439879D01*
X61619979Y-15515989D01*
X61654354Y-15575529D01*
X61659536Y-15584505D01*
X61659542Y-15584513D01*
X62818499Y-16743470D01*
X53950500Y-16743470D01*
X53950500Y-16536531D01*
X53918020Y-16373245D01*
X53910130Y-16333580D01*
X53830941Y-16142402D01*
X53773459Y-16056374D01*
X53715976Y-15970343D01*
X53569658Y-15824025D01*
X53569655Y-15824023D01*
X53397598Y-15709059D01*
X53206420Y-15629870D01*
X53003470Y-15589501D01*
X53003466Y-15589500D01*
X53003465Y-15589500D01*
X52796534Y-15589500D01*
X52796533Y-15589501D01*
X52593580Y-15629870D01*
X52537503Y-15653098D01*
X44128000Y-15653098D01*
X44128000Y-15416903D01*
X44091054Y-15183632D01*
X44018067Y-14959004D01*
X43921588Y-14769655D01*
X43910843Y-14748567D01*
X43772017Y-14557490D01*
X43605010Y-14390483D01*
X43413933Y-14251657D01*
X43341000Y-14214496D01*
X43203497Y-14144434D01*
X43203495Y-14144434D01*
X43203492Y-14144432D01*
X43083088Y-14105311D01*
X42978869Y-14071447D01*
X42745597Y-14034500D01*
X42745592Y-14034500D01*
X42509403Y-14034500D01*
X42276132Y-14071447D01*
X42051508Y-14144432D01*
X41841067Y-14251657D01*
X41649990Y-14390483D01*
X41482983Y-14557490D01*
X41344157Y-14748567D01*
X41236932Y-14959008D01*
X41163947Y-15183632D01*
X41154594Y-15242686D01*
X41127000Y-15416903D01*
X41127000Y-15653098D01*
X41163947Y-15886369D01*
X41236934Y-16110997D01*
X41344158Y-16321434D01*
X41482983Y-16512510D01*
X41649990Y-16679517D01*
X41841067Y-16818343D01*
X42051504Y-16925567D01*
X42276132Y-16998554D01*
X42509403Y-17035500D01*
X42509408Y-17035500D01*
X42745592Y-17035500D01*
X42745597Y-17035500D01*
X42978869Y-16998554D01*
X43203497Y-16925567D01*
X43413934Y-16818343D01*
X43510465Y-16748208D01*
X43605010Y-16679517D01*
X43605012Y-16679515D01*
X43605013Y-16679515D01*
X43772015Y-16512513D01*
X43772015Y-16512512D01*
X43772017Y-16512510D01*
X43831638Y-16430450D01*
X43910843Y-16321434D01*
X44018067Y-16110997D01*
X44091054Y-15886369D01*
X44128000Y-15653098D01*
X52537503Y-15653098D01*
X52402402Y-15709059D01*
X52230345Y-15824023D01*
X52084023Y-15970345D01*
X51969059Y-16142402D01*
X51889870Y-16333580D01*
X51849500Y-16536535D01*
X51849500Y-16743465D01*
X51889870Y-16946420D01*
X51969059Y-17137598D01*
X52084023Y-17309655D01*
X52084025Y-17309658D01*
X52230343Y-17455976D01*
X52316374Y-17513459D01*
X52402402Y-17570941D01*
X52593580Y-17650130D01*
X52593588Y-17650132D01*
X52796531Y-17690500D01*
X52796535Y-17690500D01*
X53003465Y-17690500D01*
X53003470Y-17690500D01*
X53206413Y-17650132D01*
X53206421Y-17650130D01*
X53397597Y-17570942D01*
X53569658Y-17455976D01*
X53715976Y-17309658D01*
X53830942Y-17137597D01*
X53910130Y-16946421D01*
X53910132Y-16946413D01*
X53950500Y-16743470D01*
X62818499Y-16743470D01*
X65358499Y-19283470D01*
X53950500Y-19283470D01*
X53950500Y-19076531D01*
X53910132Y-18873588D01*
X53910130Y-18873580D01*
X53830942Y-18682404D01*
X53715976Y-18510343D01*
X53569658Y-18364025D01*
X53569655Y-18364023D01*
X53397598Y-18249059D01*
X53206420Y-18169870D01*
X53003470Y-18129501D01*
X53003466Y-18129500D01*
X53003465Y-18129500D01*
X52796534Y-18129500D01*
X52796533Y-18129501D01*
X52593580Y-18169870D01*
X52402402Y-18249059D01*
X52230345Y-18364023D01*
X52084023Y-18510345D01*
X51969059Y-18682402D01*
X51889870Y-18873580D01*
X51849500Y-19076535D01*
X51849500Y-19283465D01*
X51889870Y-19486420D01*
X51969059Y-19677598D01*
X52084023Y-19849655D01*
X52084025Y-19849658D01*
X52230343Y-19995976D01*
X52381454Y-20096944D01*
X52402402Y-20110941D01*
X52593580Y-20190130D01*
X52593588Y-20190132D01*
X52796531Y-20230500D01*
X52796535Y-20230500D01*
X53003465Y-20230500D01*
X53003470Y-20230500D01*
X53206413Y-20190132D01*
X53206421Y-20190130D01*
X53397597Y-20110942D01*
X53569658Y-19995976D01*
X53715976Y-19849658D01*
X53830942Y-19677597D01*
X53910130Y-19486421D01*
X53910132Y-19486413D01*
X53950500Y-19283470D01*
X65358499Y-19283470D01*
X67420586Y-21345557D01*
X67454071Y-21406880D01*
X67449087Y-21476572D01*
X67440289Y-21495243D01*
X67433609Y-21506812D01*
X67424343Y-21541393D01*
X67399500Y-21634108D01*
X67399500Y-21765892D01*
X67433608Y-21893186D01*
X67499500Y-22007314D01*
X67592686Y-22100500D01*
X67658579Y-22138544D01*
X67706815Y-22166393D01*
X67706814Y-22166393D01*
X67707601Y-22166603D01*
X67708190Y-22166962D01*
X67714318Y-22169500D01*
X67713922Y-22170457D01*
X67767259Y-22202972D01*
X67797784Y-22265821D01*
X67799500Y-22286376D01*
X67799500Y-23114742D01*
X45250500Y-23114742D01*
X45250500Y-22885259D01*
X45225554Y-22695785D01*
X45220548Y-22657762D01*
X45175562Y-22489871D01*
X45161158Y-22436113D01*
X45073350Y-22224124D01*
X45073343Y-22224110D01*
X44958608Y-22025383D01*
X44818919Y-21843339D01*
X44818911Y-21843330D01*
X44656670Y-21681089D01*
X44656662Y-21681082D01*
X44656661Y-21681081D01*
X44647902Y-21674360D01*
X44474618Y-21541393D01*
X44474615Y-21541392D01*
X44474612Y-21541389D01*
X44275888Y-21426656D01*
X44275883Y-21426654D01*
X44275877Y-21426651D01*
X44228145Y-21406880D01*
X44063887Y-21338842D01*
X43842238Y-21279452D01*
X43614734Y-21249500D01*
X43614727Y-21249500D01*
X43385273Y-21249500D01*
X43385266Y-21249500D01*
X43157762Y-21279452D01*
X42936113Y-21338842D01*
X42724112Y-21426656D01*
X42525388Y-21541389D01*
X42343339Y-21681081D01*
X42343335Y-21681086D01*
X42343330Y-21681089D01*
X42181089Y-21843330D01*
X42181086Y-21843335D01*
X42181081Y-21843339D01*
X42041389Y-22025388D01*
X41926656Y-22224112D01*
X41838842Y-22436113D01*
X41779452Y-22657762D01*
X41749500Y-22885266D01*
X41749500Y-23114734D01*
X41779452Y-23342238D01*
X41838842Y-23563887D01*
X41892320Y-23692993D01*
X41926651Y-23775877D01*
X41926654Y-23775883D01*
X41926656Y-23775888D01*
X42041389Y-23974612D01*
X42041392Y-23974615D01*
X42041393Y-23974618D01*
X42181082Y-24156662D01*
X42181089Y-24156670D01*
X42343330Y-24318911D01*
X42343339Y-24318919D01*
X42525383Y-24458608D01*
X42724110Y-24573343D01*
X42724124Y-24573350D01*
X42936113Y-24661158D01*
X43157762Y-24720548D01*
X43195785Y-24725554D01*
X43385259Y-24750500D01*
X43385266Y-24750500D01*
X43614734Y-24750500D01*
X43614742Y-24750500D01*
X43831285Y-24721991D01*
X43842238Y-24720548D01*
X43935924Y-24695446D01*
X44063888Y-24661158D01*
X44275877Y-24573350D01*
X44275891Y-24573343D01*
X44474618Y-24458608D01*
X44656662Y-24318919D01*
X44818919Y-24156662D01*
X44958608Y-23974618D01*
X45073343Y-23775891D01*
X45073350Y-23775877D01*
X45161158Y-23563888D01*
X45220547Y-23342241D01*
X45220549Y-23342230D01*
X45250500Y-23114742D01*
X67799500Y-23114742D01*
X67799500Y-32324168D01*
X67779815Y-32391207D01*
X67763185Y-32411845D01*
X67332043Y-32842988D01*
X67270720Y-32876472D01*
X67201028Y-32871488D01*
X67145095Y-32829616D01*
X67124588Y-32787402D01*
X67116392Y-32756814D01*
X67050500Y-32642686D01*
X66957314Y-32549500D01*
X66886352Y-32508530D01*
X66848374Y-32486603D01*
X66843186Y-32483608D01*
X66715892Y-32449500D01*
X66715890Y-32449500D01*
X66584110Y-32449500D01*
X66584108Y-32449500D01*
X66456814Y-32483608D01*
X66342686Y-32549500D01*
X66249500Y-32642686D01*
X66183608Y-32756814D01*
X66183607Y-32756820D01*
X66180496Y-32764326D01*
X66179158Y-32763772D01*
X66151889Y-32811010D01*
X65549716Y-33413181D01*
X65488393Y-33446666D01*
X65462035Y-33449500D01*
X62640692Y-33449500D01*
X62640691Y-33449500D01*
X62550327Y-33473714D01*
X62526113Y-33480201D01*
X62423386Y-33539511D01*
X62162181Y-33800716D01*
X62100858Y-33834201D01*
X62031166Y-33829217D01*
X61975233Y-33787345D01*
X61950816Y-33721881D01*
X61950500Y-33713035D01*
X61950500Y-32537967D01*
X61959145Y-32508530D01*
X61965668Y-32478539D01*
X61969423Y-32473524D01*
X61970185Y-32470928D01*
X61986820Y-32450285D01*
X62038994Y-32398112D01*
X62086226Y-32370841D01*
X62085672Y-32369505D01*
X62093184Y-32366394D01*
X62207311Y-32300502D01*
X62207317Y-32300498D01*
X62300498Y-32207317D01*
X62300500Y-32207314D01*
X62366392Y-32093188D01*
X62400500Y-31965892D01*
X62400500Y-31834109D01*
X62366392Y-31706813D01*
X62333446Y-31649750D01*
X62300500Y-31592686D01*
X62207314Y-31499500D01*
X62093186Y-31433608D01*
X61965892Y-31399500D01*
X61965890Y-31399500D01*
X61834110Y-31399500D01*
X61834108Y-31399500D01*
X61706814Y-31433608D01*
X61592686Y-31499500D01*
X61499500Y-31592686D01*
X61433608Y-31706814D01*
X61433607Y-31706820D01*
X61430496Y-31714326D01*
X61429158Y-31713772D01*
X61401890Y-31761009D01*
X61139511Y-32023386D01*
X61099212Y-32093186D01*
X61099210Y-32093188D01*
X61080204Y-32126109D01*
X61080203Y-32126110D01*
X61080203Y-32126112D01*
X61080201Y-32126114D01*
X61049500Y-32240691D01*
X61049500Y-34466817D01*
X61029815Y-34533856D01*
X60977011Y-34579611D01*
X60907853Y-34589555D01*
X60863502Y-34574205D01*
X60809774Y-34543185D01*
X60796765Y-34535674D01*
X60793186Y-34533608D01*
X60665892Y-34499500D01*
X60665890Y-34499500D01*
X60534110Y-34499500D01*
X60534108Y-34499500D01*
X60406814Y-34533608D01*
X60406806Y-34533613D01*
X60399304Y-34536719D01*
X60398751Y-34535382D01*
X60346063Y-34549500D01*
X59237965Y-34549500D01*
X59170926Y-34529815D01*
X59150285Y-34513182D01*
X58995422Y-34358318D01*
X58848114Y-34211010D01*
X58820840Y-34163776D01*
X58819505Y-34164328D01*
X58816394Y-34156817D01*
X58816392Y-34156814D01*
X58750500Y-34042686D01*
X58657314Y-33949500D01*
X58543186Y-33883608D01*
X58543184Y-33883608D01*
X58535674Y-33880496D01*
X58536229Y-33879159D01*
X58530696Y-33875965D01*
X58517244Y-33873038D01*
X58488990Y-33851887D01*
X58386819Y-33749716D01*
X58353334Y-33688393D01*
X58350500Y-33662035D01*
X58350500Y-32353938D01*
X58364617Y-32301249D01*
X58363281Y-32300696D01*
X58366392Y-32293186D01*
X58400500Y-32165892D01*
X58400500Y-32034108D01*
X58397627Y-32023386D01*
X58366392Y-31906814D01*
X58363282Y-31899307D01*
X58364619Y-31898754D01*
X58350500Y-31846064D01*
X58350500Y-29546707D01*
X58359938Y-29499257D01*
X58361949Y-29494403D01*
X58361950Y-29494399D01*
X58396058Y-29367105D01*
X58396058Y-29235321D01*
X58363659Y-29114408D01*
X58361950Y-29108028D01*
X58359939Y-29103173D01*
X58350500Y-29055720D01*
X58350500Y-26937966D01*
X58370185Y-26870927D01*
X58386819Y-26850285D01*
X58938991Y-26298114D01*
X58945922Y-26293484D01*
X58948863Y-26289246D01*
X58963055Y-26282035D01*
X58979215Y-26271236D01*
X58986736Y-26268121D01*
X58993186Y-26266392D01*
X58998972Y-26263052D01*
X59006481Y-26259941D01*
X59026902Y-26257745D01*
X59053938Y-26250500D01*
X62162034Y-26250500D01*
X62229073Y-26270185D01*
X62249715Y-26286819D01*
X63201887Y-27238990D01*
X63229159Y-27286229D01*
X63230496Y-27285674D01*
X63233608Y-27293185D01*
X63233608Y-27293186D01*
X63299500Y-27407314D01*
X63392686Y-27500500D01*
X63449750Y-27533446D01*
X63506813Y-27566392D01*
X63570461Y-27583446D01*
X63634108Y-27600500D01*
X63756096Y-27600500D01*
X63823135Y-27620185D01*
X63843777Y-27636819D01*
X64363181Y-28156223D01*
X64396666Y-28217546D01*
X64399500Y-28243904D01*
X64399500Y-28365890D01*
X64399500Y-28365892D01*
X64433608Y-28493186D01*
X64499500Y-28607314D01*
X64592686Y-28700500D01*
X64694542Y-28759307D01*
X64706813Y-28766392D01*
X64770461Y-28783446D01*
X64834108Y-28800500D01*
X64965892Y-28800500D01*
X65093188Y-28766392D01*
X65207314Y-28700500D01*
X65207317Y-28700498D01*
X65300498Y-28607317D01*
X65300500Y-28607314D01*
X65366392Y-28493188D01*
X65390982Y-28401413D01*
X65400500Y-28365892D01*
X65400500Y-28234108D01*
X65386423Y-28181572D01*
X65366392Y-28106814D01*
X65363282Y-28099307D01*
X65363614Y-28099170D01*
X65361069Y-28096157D01*
X65357765Y-28080496D01*
X65351550Y-28062170D01*
X65350500Y-28054155D01*
X65350500Y-27996630D01*
X65337871Y-27949500D01*
X65335757Y-27941607D01*
X65335756Y-27941606D01*
X65319801Y-27882054D01*
X65295267Y-27839562D01*
X65260489Y-27779325D01*
X64220675Y-26739511D01*
X64117948Y-26680201D01*
X64093735Y-26673714D01*
X64003370Y-26649500D01*
X63943747Y-26649500D01*
X63933696Y-26647837D01*
X63916169Y-26639380D01*
X63901246Y-26635381D01*
X63900692Y-26636717D01*
X63885674Y-26630496D01*
X63886229Y-26629159D01*
X63838991Y-26601888D01*
X62676614Y-25439510D01*
X62607313Y-25399500D01*
X62573886Y-25380201D01*
X62459309Y-25349500D01*
X59053937Y-25349500D01*
X59001250Y-25335382D01*
X59000696Y-25336719D01*
X58993193Y-25333612D01*
X58993186Y-25333608D01*
X58865892Y-25299500D01*
X58865890Y-25299500D01*
X58734110Y-25299500D01*
X58734108Y-25299500D01*
X58606814Y-25333608D01*
X58492686Y-25399500D01*
X58399500Y-25492686D01*
X58333608Y-25606814D01*
X58333607Y-25606820D01*
X58330496Y-25614326D01*
X58329158Y-25613772D01*
X58301889Y-25661010D01*
X57539511Y-26423386D01*
X57480201Y-26526113D01*
X57471004Y-26560438D01*
X57449500Y-26640691D01*
X57449500Y-29039582D01*
X57432885Y-29101586D01*
X57429166Y-29108027D01*
X57395058Y-29235321D01*
X57395058Y-29367105D01*
X57429166Y-29494399D01*
X57432889Y-29500848D01*
X57449500Y-29562845D01*
X57449500Y-31846064D01*
X57435382Y-31898754D01*
X57436718Y-31899307D01*
X57433612Y-31906808D01*
X57433608Y-31906814D01*
X57399500Y-32034108D01*
X57399500Y-32165892D01*
X57433608Y-32293186D01*
X57433612Y-32293193D01*
X57436719Y-32300696D01*
X57435384Y-32301249D01*
X57449500Y-32353938D01*
X57449500Y-33959307D01*
X57449500Y-33959309D01*
X57480201Y-34073886D01*
X57480201Y-34073887D01*
X57539511Y-34176614D01*
X57851887Y-34488990D01*
X57879159Y-34536229D01*
X57880496Y-34535674D01*
X57883608Y-34543185D01*
X57883608Y-34543186D01*
X57949500Y-34657314D01*
X58042686Y-34750500D01*
X58156814Y-34816392D01*
X58156817Y-34816394D01*
X58164328Y-34819505D01*
X58163776Y-34820840D01*
X58211010Y-34848114D01*
X58723384Y-35360487D01*
X58723386Y-35360489D01*
X58826113Y-35419799D01*
X58826116Y-35419801D01*
X58851643Y-35426640D01*
X58851644Y-35426641D01*
X58851644Y-35426640D01*
X58896168Y-35438570D01*
X58940691Y-35450500D01*
X58940692Y-35450500D01*
X60270671Y-35450500D01*
X60337710Y-35470185D01*
X60358352Y-35486819D01*
X60832020Y-35960487D01*
X60832022Y-35960489D01*
X60934749Y-36019799D01*
X60934752Y-36019801D01*
X60960182Y-36026614D01*
X60960183Y-36026615D01*
X60960183Y-36026614D01*
X61004756Y-36038557D01*
X61049327Y-36050500D01*
X61959309Y-36050500D01*
X62048453Y-36026614D01*
X62048454Y-36026614D01*
X62073886Y-36019801D01*
X62176614Y-35960490D01*
X62286511Y-35850592D01*
X62347834Y-35817108D01*
X62417526Y-35822092D01*
X62473459Y-35863964D01*
X62481579Y-35876273D01*
X62530201Y-35960487D01*
X62539511Y-35976613D01*
X62623387Y-36060489D01*
X62726114Y-36119799D01*
X62840691Y-36150500D01*
X62959309Y-36150500D01*
X63073886Y-36119799D01*
X63073888Y-36119799D01*
X63073888Y-36119798D01*
X63176613Y-36060489D01*
X63176616Y-36060487D01*
X63260487Y-35976616D01*
X63260489Y-35976613D01*
X63319799Y-35873886D01*
X63350500Y-35759309D01*
X63350500Y-35759307D01*
X63350500Y-35725833D01*
X63359145Y-35696393D01*
X63365668Y-35666406D01*
X63369423Y-35661391D01*
X63370185Y-35658794D01*
X63386819Y-35638152D01*
X63387152Y-35637819D01*
X63448475Y-35604334D01*
X63474833Y-35601500D01*
X65905662Y-35601500D01*
X65936233Y-35593309D01*
X65982092Y-35581021D01*
X65982095Y-35581019D01*
X66010336Y-35564713D01*
X66010337Y-35564712D01*
X66022303Y-35557804D01*
X66050611Y-35541461D01*
X68741459Y-32850613D01*
X68741465Y-32850605D01*
X68781018Y-32782096D01*
X68781021Y-32782091D01*
X68801500Y-32705661D01*
X68801500Y-21858400D01*
X68821185Y-21791361D01*
X68873989Y-21745606D01*
X68925500Y-21734400D01*
X75905662Y-21734400D01*
X75943876Y-21724161D01*
X75982091Y-21713921D01*
X75982092Y-21713920D01*
X76038970Y-21681081D01*
X76050608Y-21674362D01*
X76050614Y-21674358D01*
X76740459Y-20984513D01*
X76740465Y-20984505D01*
X76780018Y-20915996D01*
X76780021Y-20915991D01*
X76800500Y-20839561D01*
X76800500Y-20727686D01*
X76820185Y-20660647D01*
X76872989Y-20614892D01*
X76877047Y-20613125D01*
X76955913Y-20580458D01*
X77113559Y-20475123D01*
X77247623Y-20341059D01*
X77352958Y-20183413D01*
X77425512Y-20008252D01*
X77425514Y-20008244D01*
X77462500Y-19822303D01*
X78037500Y-19822303D01*
X78037500Y-20509251D01*
X78037501Y-20509253D01*
X78049132Y-20567730D01*
X78049133Y-20567731D01*
X78093448Y-20634053D01*
X78159770Y-20678368D01*
X78159771Y-20678369D01*
X78218248Y-20690000D01*
X78218252Y-20690000D01*
X79781748Y-20690000D01*
X79781753Y-20690000D01*
X79840230Y-20678369D01*
X79840231Y-20678368D01*
X79906553Y-20634053D01*
X79950868Y-20567731D01*
X79950869Y-20567730D01*
X79962500Y-20509253D01*
X84499500Y-20509253D01*
X84499500Y-24374629D01*
X80140000Y-24374629D01*
X80140000Y-23750000D01*
X79473012Y-23750000D01*
X79505925Y-23692993D01*
X79540000Y-23565826D01*
X79540000Y-23434174D01*
X79505925Y-23307007D01*
X79473012Y-23250000D01*
X80140000Y-23250000D01*
X80140000Y-22625372D01*
X80125497Y-22552460D01*
X80125495Y-22552456D01*
X80070240Y-22469761D01*
X79987545Y-22414506D01*
X79987541Y-22414504D01*
X79914629Y-22400001D01*
X79914626Y-22400000D01*
X79290000Y-22400000D01*
X79290000Y-23066988D01*
X79232993Y-23034075D01*
X79105826Y-23000000D01*
X78974174Y-23000000D01*
X78847007Y-23034075D01*
X78790000Y-23066988D01*
X78790000Y-22400000D01*
X78165374Y-22400000D01*
X78165372Y-22400001D01*
X78092460Y-22414504D01*
X78092456Y-22414506D01*
X78009761Y-22469761D01*
X77954506Y-22552456D01*
X77954504Y-22552460D01*
X77940001Y-22625372D01*
X77940000Y-22625374D01*
X77940000Y-23250000D01*
X78606988Y-23250000D01*
X78574075Y-23307007D01*
X78540000Y-23434174D01*
X78540000Y-23565826D01*
X78550087Y-23603470D01*
X77550500Y-23603470D01*
X77550500Y-23396531D01*
X77510132Y-23193588D01*
X77510130Y-23193580D01*
X77430942Y-23002404D01*
X77315976Y-22830343D01*
X77169658Y-22684025D01*
X77169655Y-22684023D01*
X76997598Y-22569059D01*
X76806420Y-22489870D01*
X76603470Y-22449501D01*
X76603466Y-22449500D01*
X76603465Y-22449500D01*
X76396534Y-22449500D01*
X76396533Y-22449501D01*
X76193580Y-22489870D01*
X76002402Y-22569059D01*
X75830345Y-22684023D01*
X75684023Y-22830345D01*
X75569059Y-23002402D01*
X75489870Y-23193580D01*
X75449500Y-23396535D01*
X75449500Y-23603465D01*
X75449501Y-23603470D01*
X75010500Y-23603470D01*
X75010500Y-23396531D01*
X74970132Y-23193588D01*
X74970130Y-23193580D01*
X74890942Y-23002404D01*
X74775976Y-22830343D01*
X74629658Y-22684025D01*
X74629655Y-22684023D01*
X74457598Y-22569059D01*
X74266420Y-22489870D01*
X74063470Y-22449501D01*
X74063466Y-22449500D01*
X74063465Y-22449500D01*
X73856534Y-22449500D01*
X73856533Y-22449501D01*
X73653580Y-22489870D01*
X73462402Y-22569059D01*
X73290345Y-22684023D01*
X73144023Y-22830345D01*
X73029059Y-23002402D01*
X72949870Y-23193580D01*
X72909500Y-23396535D01*
X72909500Y-23603465D01*
X72949870Y-23806420D01*
X73029059Y-23997598D01*
X73144023Y-24169655D01*
X73144025Y-24169658D01*
X73290343Y-24315976D01*
X73378125Y-24374629D01*
X73462402Y-24430941D01*
X73502478Y-24447541D01*
X73653580Y-24510130D01*
X73653588Y-24510132D01*
X73856531Y-24550500D01*
X73856535Y-24550500D01*
X74063465Y-24550500D01*
X74063470Y-24550500D01*
X74266413Y-24510132D01*
X74266421Y-24510130D01*
X74457597Y-24430942D01*
X74629658Y-24315976D01*
X74775976Y-24169658D01*
X74890942Y-23997597D01*
X74970130Y-23806421D01*
X74970132Y-23806413D01*
X75010500Y-23603470D01*
X75449501Y-23603470D01*
X75489870Y-23806420D01*
X75569059Y-23997598D01*
X75684023Y-24169655D01*
X75684025Y-24169658D01*
X75830343Y-24315976D01*
X75918125Y-24374629D01*
X76002402Y-24430941D01*
X76042478Y-24447541D01*
X76193580Y-24510130D01*
X76193588Y-24510132D01*
X76396531Y-24550500D01*
X76396535Y-24550500D01*
X76603465Y-24550500D01*
X76603470Y-24550500D01*
X76806413Y-24510132D01*
X76806421Y-24510130D01*
X76997597Y-24430942D01*
X77169658Y-24315976D01*
X77315976Y-24169658D01*
X77430942Y-23997597D01*
X77510130Y-23806421D01*
X77510132Y-23806413D01*
X77550500Y-23603470D01*
X78550087Y-23603470D01*
X78574075Y-23692993D01*
X78606988Y-23750000D01*
X77940000Y-23750000D01*
X77940000Y-24374627D01*
X77940001Y-24374629D01*
X77954504Y-24447541D01*
X77954506Y-24447545D01*
X78009761Y-24530240D01*
X78092456Y-24585495D01*
X78092460Y-24585497D01*
X78165373Y-24600000D01*
X78790000Y-24600000D01*
X78790000Y-23933012D01*
X78847007Y-23965925D01*
X78974174Y-24000000D01*
X79105826Y-24000000D01*
X79232993Y-23965925D01*
X79290000Y-23933012D01*
X79290000Y-24600000D01*
X79914627Y-24600000D01*
X79987541Y-24585497D01*
X79987545Y-24585495D01*
X80070240Y-24530240D01*
X80125495Y-24447545D01*
X80125497Y-24447541D01*
X80140000Y-24374629D01*
X84499500Y-24374629D01*
X84499500Y-28198470D01*
X83240500Y-28198470D01*
X83240500Y-27991531D01*
X83200132Y-27788588D01*
X83200130Y-27788580D01*
X83134061Y-27629075D01*
X83120941Y-27597402D01*
X83117142Y-27591717D01*
X83005976Y-27425343D01*
X82859658Y-27279025D01*
X82859655Y-27279023D01*
X82687598Y-27164059D01*
X82496420Y-27084870D01*
X82293470Y-27044501D01*
X82293466Y-27044500D01*
X82293465Y-27044500D01*
X82086534Y-27044500D01*
X82086533Y-27044501D01*
X81883580Y-27084870D01*
X81692402Y-27164059D01*
X81520345Y-27279023D01*
X81513139Y-27286229D01*
X81505716Y-27293651D01*
X81374026Y-27425342D01*
X81374025Y-27425343D01*
X81374023Y-27425345D01*
X81259059Y-27597402D01*
X81179870Y-27788580D01*
X81139500Y-27991535D01*
X81139500Y-28181572D01*
X80750000Y-28181572D01*
X80750000Y-28008429D01*
X80722915Y-27837416D01*
X80669408Y-27672741D01*
X80590804Y-27518475D01*
X80586291Y-27512264D01*
X80586291Y-27512263D01*
X80132963Y-27965591D01*
X80115925Y-27902007D01*
X80050099Y-27787993D01*
X79957007Y-27694901D01*
X79842993Y-27629075D01*
X79779411Y-27612038D01*
X80232739Y-27158711D01*
X80232738Y-27158710D01*
X80226529Y-27154199D01*
X80072258Y-27075592D01*
X79907585Y-27022086D01*
X79736571Y-26995000D01*
X79563429Y-26995000D01*
X79392416Y-27022086D01*
X79227743Y-27075592D01*
X79073475Y-27154197D01*
X79067264Y-27158711D01*
X79067263Y-27158711D01*
X79520590Y-27612038D01*
X79457007Y-27629075D01*
X79342993Y-27694901D01*
X79249901Y-27787993D01*
X79184075Y-27902007D01*
X79167038Y-27965591D01*
X78713711Y-27512264D01*
X78709197Y-27518475D01*
X78630592Y-27672743D01*
X78577086Y-27837416D01*
X78550000Y-28008429D01*
X78550000Y-28181572D01*
X78577086Y-28352585D01*
X78630592Y-28517258D01*
X78709199Y-28671529D01*
X78713710Y-28677738D01*
X78713711Y-28677739D01*
X79167038Y-28224411D01*
X79184075Y-28287993D01*
X79249901Y-28402007D01*
X79342993Y-28495099D01*
X79457007Y-28560925D01*
X79520591Y-28577963D01*
X79067263Y-29031291D01*
X79073475Y-29035804D01*
X79227741Y-29114408D01*
X79392416Y-29167915D01*
X79563429Y-29195000D01*
X79736571Y-29195000D01*
X79907585Y-29167915D01*
X80072260Y-29114408D01*
X80226520Y-29035807D01*
X80226537Y-29035797D01*
X80232739Y-29031292D01*
X80232739Y-29031291D01*
X79779410Y-28577963D01*
X79842993Y-28560925D01*
X79957007Y-28495099D01*
X80050099Y-28402007D01*
X80115925Y-28287993D01*
X80132963Y-28224410D01*
X80586291Y-28677739D01*
X80586292Y-28677739D01*
X80590797Y-28671537D01*
X80590807Y-28671520D01*
X80669408Y-28517260D01*
X80722915Y-28352585D01*
X80750000Y-28181572D01*
X81139500Y-28181572D01*
X81139500Y-28198465D01*
X81179870Y-28401420D01*
X81259059Y-28592598D01*
X81374023Y-28764655D01*
X81374025Y-28764658D01*
X81520343Y-28910976D01*
X81624568Y-28980616D01*
X81692402Y-29025941D01*
X81883580Y-29105130D01*
X81883588Y-29105132D01*
X82086531Y-29145500D01*
X82086535Y-29145500D01*
X82293465Y-29145500D01*
X82293470Y-29145500D01*
X82496413Y-29105132D01*
X82496421Y-29105130D01*
X82687597Y-29025942D01*
X82859658Y-28910976D01*
X83005976Y-28764658D01*
X83120942Y-28592597D01*
X83200130Y-28401421D01*
X83200132Y-28401413D01*
X83240500Y-28198470D01*
X84499500Y-28198470D01*
X84499500Y-30738470D01*
X83240500Y-30738470D01*
X83240500Y-30531531D01*
X83200132Y-30328588D01*
X83200130Y-30328580D01*
X83120942Y-30137404D01*
X83005976Y-29965343D01*
X82859658Y-29819025D01*
X82859655Y-29819023D01*
X82687598Y-29704059D01*
X82496420Y-29624870D01*
X82293470Y-29584501D01*
X82293466Y-29584500D01*
X82293465Y-29584500D01*
X82086534Y-29584500D01*
X82086533Y-29584501D01*
X81883580Y-29624870D01*
X81692402Y-29704059D01*
X81520345Y-29819023D01*
X81374023Y-29965345D01*
X81259059Y-30137402D01*
X81179870Y-30328580D01*
X81139500Y-30531535D01*
X81139500Y-30738465D01*
X81139501Y-30738470D01*
X80700500Y-30738470D01*
X80700500Y-30531531D01*
X80660132Y-30328588D01*
X80660130Y-30328580D01*
X80580942Y-30137404D01*
X80465976Y-29965343D01*
X80319658Y-29819025D01*
X80319655Y-29819023D01*
X80147598Y-29704059D01*
X79956420Y-29624870D01*
X79753470Y-29584501D01*
X79753466Y-29584500D01*
X79753465Y-29584500D01*
X79546534Y-29584500D01*
X79546533Y-29584501D01*
X79343580Y-29624870D01*
X79152402Y-29704059D01*
X78980345Y-29819023D01*
X78834023Y-29965345D01*
X78719059Y-30137402D01*
X78639870Y-30328580D01*
X78599500Y-30531535D01*
X78599500Y-30738465D01*
X78639870Y-30941420D01*
X78719059Y-31132598D01*
X78834023Y-31304655D01*
X78834025Y-31304658D01*
X78980343Y-31450976D01*
X79066374Y-31508459D01*
X79152402Y-31565941D01*
X79216970Y-31592686D01*
X79343580Y-31645130D01*
X79343588Y-31645132D01*
X79546531Y-31685500D01*
X79546535Y-31685500D01*
X79753465Y-31685500D01*
X79753470Y-31685500D01*
X79956413Y-31645132D01*
X79956421Y-31645130D01*
X80147597Y-31565942D01*
X80319658Y-31450976D01*
X80465976Y-31304658D01*
X80580942Y-31132597D01*
X80660130Y-30941421D01*
X80660132Y-30941413D01*
X80700500Y-30738470D01*
X81139501Y-30738470D01*
X81179870Y-30941420D01*
X81259059Y-31132598D01*
X81374023Y-31304655D01*
X81374025Y-31304658D01*
X81520343Y-31450976D01*
X81606374Y-31508459D01*
X81692402Y-31565941D01*
X81756970Y-31592686D01*
X81883580Y-31645130D01*
X81883588Y-31645132D01*
X82086531Y-31685500D01*
X82086535Y-31685500D01*
X82293465Y-31685500D01*
X82293470Y-31685500D01*
X82496413Y-31645132D01*
X82496421Y-31645130D01*
X82687597Y-31565942D01*
X82859658Y-31450976D01*
X83005976Y-31304658D01*
X83120942Y-31132597D01*
X83200130Y-30941421D01*
X83200132Y-30941413D01*
X83240500Y-30738470D01*
X84499500Y-30738470D01*
X84499500Y-33278470D01*
X83240500Y-33278470D01*
X83240500Y-33071531D01*
X83200132Y-32868588D01*
X83200130Y-32868580D01*
X83183991Y-32829616D01*
X83120941Y-32677402D01*
X83097743Y-32642684D01*
X83005976Y-32505343D01*
X82859658Y-32359025D01*
X82859655Y-32359023D01*
X82687598Y-32244059D01*
X82496420Y-32164870D01*
X82301579Y-32126114D01*
X82293470Y-32124501D01*
X82293466Y-32124500D01*
X82293465Y-32124500D01*
X82086534Y-32124500D01*
X82086533Y-32124501D01*
X81883580Y-32164870D01*
X81692402Y-32244059D01*
X81520345Y-32359023D01*
X81374023Y-32505345D01*
X81259059Y-32677402D01*
X81179870Y-32868580D01*
X81139500Y-33071535D01*
X81139500Y-33278465D01*
X81139501Y-33278470D01*
X80700500Y-33278470D01*
X80700500Y-33071531D01*
X80660132Y-32868588D01*
X80660130Y-32868580D01*
X80643991Y-32829616D01*
X80580941Y-32677402D01*
X80557743Y-32642684D01*
X80465976Y-32505343D01*
X80319658Y-32359025D01*
X80319655Y-32359023D01*
X80147598Y-32244059D01*
X79956420Y-32164870D01*
X79761579Y-32126114D01*
X79753470Y-32124501D01*
X79753466Y-32124500D01*
X79753465Y-32124500D01*
X79546534Y-32124500D01*
X79546533Y-32124501D01*
X79343580Y-32164870D01*
X79152402Y-32244059D01*
X78980345Y-32359023D01*
X78834023Y-32505345D01*
X78719059Y-32677402D01*
X78639870Y-32868580D01*
X78599500Y-33071535D01*
X78599500Y-33278465D01*
X78639870Y-33481420D01*
X78719059Y-33672598D01*
X78834023Y-33844655D01*
X78834025Y-33844658D01*
X78980343Y-33990976D01*
X79066374Y-34048459D01*
X79152402Y-34105941D01*
X79275220Y-34156814D01*
X79343580Y-34185130D01*
X79343588Y-34185132D01*
X79546531Y-34225500D01*
X79546535Y-34225500D01*
X79753465Y-34225500D01*
X79753470Y-34225500D01*
X79956413Y-34185132D01*
X79956421Y-34185130D01*
X80147597Y-34105942D01*
X80319658Y-33990976D01*
X80465976Y-33844658D01*
X80580942Y-33672597D01*
X80660130Y-33481421D01*
X80660132Y-33481413D01*
X80700500Y-33278470D01*
X81139501Y-33278470D01*
X81179870Y-33481420D01*
X81259059Y-33672598D01*
X81374023Y-33844655D01*
X81374025Y-33844658D01*
X81520343Y-33990976D01*
X81606374Y-34048459D01*
X81692402Y-34105941D01*
X81815220Y-34156814D01*
X81883580Y-34185130D01*
X81883588Y-34185132D01*
X82086531Y-34225500D01*
X82086535Y-34225500D01*
X82293465Y-34225500D01*
X82293470Y-34225500D01*
X82496413Y-34185132D01*
X82496421Y-34185130D01*
X82687597Y-34105942D01*
X82859658Y-33990976D01*
X83005976Y-33844658D01*
X83120942Y-33672597D01*
X83200130Y-33481421D01*
X83200132Y-33481413D01*
X83240500Y-33278470D01*
X84499500Y-33278470D01*
X84499500Y-35818470D01*
X83240500Y-35818470D01*
X83240500Y-35611531D01*
X83200132Y-35408588D01*
X83200130Y-35408580D01*
X83120942Y-35217404D01*
X83005976Y-35045343D01*
X82859658Y-34899025D01*
X82859655Y-34899023D01*
X82687598Y-34784059D01*
X82496420Y-34704870D01*
X82293470Y-34664501D01*
X82293466Y-34664500D01*
X82293465Y-34664500D01*
X82086534Y-34664500D01*
X82086533Y-34664501D01*
X81883580Y-34704870D01*
X81692402Y-34784059D01*
X81520345Y-34899023D01*
X81374023Y-35045345D01*
X81259059Y-35217402D01*
X81179870Y-35408580D01*
X81139500Y-35611535D01*
X81139500Y-35818465D01*
X81139501Y-35818470D01*
X80700500Y-35818470D01*
X80700500Y-35611531D01*
X80660132Y-35408588D01*
X80660130Y-35408580D01*
X80580942Y-35217404D01*
X80465976Y-35045343D01*
X80319658Y-34899025D01*
X80319655Y-34899023D01*
X80147598Y-34784059D01*
X79956420Y-34704870D01*
X79753470Y-34664501D01*
X79753466Y-34664500D01*
X79753465Y-34664500D01*
X79546534Y-34664500D01*
X79546533Y-34664501D01*
X79343580Y-34704870D01*
X79152402Y-34784059D01*
X78980345Y-34899023D01*
X78834023Y-35045345D01*
X78719059Y-35217402D01*
X78639870Y-35408580D01*
X78599500Y-35611535D01*
X78599500Y-35818465D01*
X78639870Y-36021420D01*
X78719059Y-36212598D01*
X78834023Y-36384655D01*
X78834025Y-36384658D01*
X78980343Y-36530976D01*
X79066374Y-36588459D01*
X79152402Y-36645941D01*
X79343580Y-36725130D01*
X79343588Y-36725132D01*
X79546531Y-36765500D01*
X79546535Y-36765500D01*
X79753465Y-36765500D01*
X79753470Y-36765500D01*
X79956413Y-36725132D01*
X79956421Y-36725130D01*
X80147597Y-36645942D01*
X80319658Y-36530976D01*
X80465976Y-36384658D01*
X80580942Y-36212597D01*
X80660130Y-36021421D01*
X80660132Y-36021413D01*
X80700500Y-35818470D01*
X81139501Y-35818470D01*
X81179870Y-36021420D01*
X81259059Y-36212598D01*
X81374023Y-36384655D01*
X81374025Y-36384658D01*
X81520343Y-36530976D01*
X81606374Y-36588459D01*
X81692402Y-36645941D01*
X81883580Y-36725130D01*
X81883588Y-36725132D01*
X82086531Y-36765500D01*
X82086535Y-36765500D01*
X82293465Y-36765500D01*
X82293470Y-36765500D01*
X82496413Y-36725132D01*
X82496421Y-36725130D01*
X82687597Y-36645942D01*
X82859658Y-36530976D01*
X83005976Y-36384658D01*
X83120942Y-36212597D01*
X83200130Y-36021421D01*
X83200132Y-36021413D01*
X83240500Y-35818470D01*
X84499500Y-35818470D01*
X84499500Y-38358470D01*
X83240500Y-38358470D01*
X83240500Y-38151531D01*
X83200132Y-37948588D01*
X83200130Y-37948580D01*
X83120942Y-37757404D01*
X83005976Y-37585343D01*
X82859658Y-37439025D01*
X82859655Y-37439023D01*
X82687598Y-37324059D01*
X82496420Y-37244870D01*
X82293470Y-37204501D01*
X82293466Y-37204500D01*
X82293465Y-37204500D01*
X82086534Y-37204500D01*
X82086533Y-37204501D01*
X81883580Y-37244870D01*
X81692402Y-37324059D01*
X81520345Y-37439023D01*
X81374023Y-37585345D01*
X81259059Y-37757402D01*
X81179870Y-37948580D01*
X81139500Y-38151535D01*
X81139500Y-38358465D01*
X81139501Y-38358470D01*
X80700500Y-38358470D01*
X80700500Y-38151531D01*
X80660132Y-37948588D01*
X80660130Y-37948580D01*
X80580942Y-37757404D01*
X80465976Y-37585343D01*
X80319658Y-37439025D01*
X80319655Y-37439023D01*
X80147598Y-37324059D01*
X79956420Y-37244870D01*
X79753470Y-37204501D01*
X79753466Y-37204500D01*
X79753465Y-37204500D01*
X79546534Y-37204500D01*
X79546533Y-37204501D01*
X79343580Y-37244870D01*
X79152402Y-37324059D01*
X78980345Y-37439023D01*
X78834023Y-37585345D01*
X78719059Y-37757402D01*
X78639870Y-37948580D01*
X78599500Y-38151535D01*
X78599500Y-38358465D01*
X78639870Y-38561420D01*
X78719059Y-38752598D01*
X78834023Y-38924655D01*
X78834025Y-38924658D01*
X78980343Y-39070976D01*
X79066374Y-39128459D01*
X79152402Y-39185941D01*
X79343580Y-39265130D01*
X79343588Y-39265132D01*
X79546531Y-39305500D01*
X79546535Y-39305500D01*
X79753465Y-39305500D01*
X79753470Y-39305500D01*
X79956413Y-39265132D01*
X79956421Y-39265130D01*
X80147597Y-39185942D01*
X80319658Y-39070976D01*
X80465976Y-38924658D01*
X80580942Y-38752597D01*
X80660130Y-38561421D01*
X80660132Y-38561413D01*
X80700500Y-38358470D01*
X81139501Y-38358470D01*
X81179870Y-38561420D01*
X81259059Y-38752598D01*
X81374023Y-38924655D01*
X81374025Y-38924658D01*
X81520343Y-39070976D01*
X81606374Y-39128459D01*
X81692402Y-39185941D01*
X81883580Y-39265130D01*
X81883588Y-39265132D01*
X82086531Y-39305500D01*
X82086535Y-39305500D01*
X82293465Y-39305500D01*
X82293470Y-39305500D01*
X82496413Y-39265132D01*
X82496421Y-39265130D01*
X82687597Y-39185942D01*
X82859658Y-39070976D01*
X83005976Y-38924658D01*
X83120942Y-38752597D01*
X83200130Y-38561421D01*
X83200132Y-38561413D01*
X83240500Y-38358470D01*
X84499500Y-38358470D01*
X84499500Y-40898470D01*
X83240500Y-40898470D01*
X83240500Y-40691531D01*
X83200132Y-40488588D01*
X83200130Y-40488580D01*
X83120942Y-40297404D01*
X83005976Y-40125343D01*
X82859658Y-39979025D01*
X82859655Y-39979023D01*
X82687598Y-39864059D01*
X82496420Y-39784870D01*
X82293470Y-39744501D01*
X82293466Y-39744500D01*
X82293465Y-39744500D01*
X82086534Y-39744500D01*
X82086533Y-39744501D01*
X81883580Y-39784870D01*
X81692402Y-39864059D01*
X81520345Y-39979023D01*
X81374023Y-40125345D01*
X81259059Y-40297402D01*
X81179870Y-40488580D01*
X81139500Y-40691535D01*
X81139500Y-40898465D01*
X81139501Y-40898470D01*
X80700500Y-40898470D01*
X80700500Y-40691531D01*
X80660132Y-40488588D01*
X80660130Y-40488580D01*
X80580942Y-40297404D01*
X80465976Y-40125343D01*
X80319658Y-39979025D01*
X80319655Y-39979023D01*
X80147598Y-39864059D01*
X79956420Y-39784870D01*
X79753470Y-39744501D01*
X79753466Y-39744500D01*
X79753465Y-39744500D01*
X79546534Y-39744500D01*
X79546533Y-39744501D01*
X79343580Y-39784870D01*
X79152402Y-39864059D01*
X78980345Y-39979023D01*
X78834023Y-40125345D01*
X78719059Y-40297402D01*
X78639870Y-40488580D01*
X78599500Y-40691535D01*
X78599500Y-40898465D01*
X78639870Y-41101420D01*
X78719059Y-41292598D01*
X78834023Y-41464655D01*
X78834025Y-41464658D01*
X78980343Y-41610976D01*
X79066374Y-41668459D01*
X79152402Y-41725941D01*
X79343580Y-41805130D01*
X79343588Y-41805132D01*
X79546531Y-41845500D01*
X79546535Y-41845500D01*
X79753465Y-41845500D01*
X79753470Y-41845500D01*
X79956413Y-41805132D01*
X79956421Y-41805130D01*
X80147597Y-41725942D01*
X80319658Y-41610976D01*
X80465976Y-41464658D01*
X80580942Y-41292597D01*
X80660130Y-41101421D01*
X80660132Y-41101413D01*
X80700500Y-40898470D01*
X81139501Y-40898470D01*
X81179870Y-41101420D01*
X81259059Y-41292598D01*
X81374023Y-41464655D01*
X81374025Y-41464658D01*
X81520343Y-41610976D01*
X81606374Y-41668459D01*
X81692402Y-41725941D01*
X81883580Y-41805130D01*
X81883588Y-41805132D01*
X82086531Y-41845500D01*
X82086535Y-41845500D01*
X82293465Y-41845500D01*
X82293470Y-41845500D01*
X82496413Y-41805132D01*
X82496421Y-41805130D01*
X82687597Y-41725942D01*
X82859658Y-41610976D01*
X83005976Y-41464658D01*
X83120942Y-41292597D01*
X83200130Y-41101421D01*
X83200132Y-41101413D01*
X83240500Y-40898470D01*
X84499500Y-40898470D01*
X84499500Y-43438470D01*
X83240500Y-43438470D01*
X83240500Y-43231531D01*
X83200132Y-43028588D01*
X83200130Y-43028580D01*
X83120942Y-42837404D01*
X83005976Y-42665343D01*
X82859658Y-42519025D01*
X82859655Y-42519023D01*
X82687598Y-42404059D01*
X82496420Y-42324870D01*
X82293470Y-42284501D01*
X82293466Y-42284500D01*
X82293465Y-42284500D01*
X82086534Y-42284500D01*
X82086533Y-42284501D01*
X81883580Y-42324870D01*
X81692402Y-42404059D01*
X81520345Y-42519023D01*
X81520342Y-42519026D01*
X81505716Y-42533651D01*
X81374026Y-42665342D01*
X81374025Y-42665343D01*
X81374023Y-42665345D01*
X81259059Y-42837402D01*
X81179870Y-43028580D01*
X81139500Y-43231535D01*
X81139500Y-43421572D01*
X80750000Y-43421572D01*
X80750000Y-43248429D01*
X80722915Y-43077416D01*
X80669408Y-42912741D01*
X80590804Y-42758475D01*
X80586291Y-42752264D01*
X80586291Y-42752263D01*
X80132963Y-43205591D01*
X80115925Y-43142007D01*
X80050099Y-43027993D01*
X79957007Y-42934901D01*
X79842993Y-42869075D01*
X79779411Y-42852038D01*
X80232739Y-42398711D01*
X80232738Y-42398710D01*
X80226529Y-42394199D01*
X80072258Y-42315592D01*
X79907585Y-42262086D01*
X79736571Y-42235000D01*
X79563429Y-42235000D01*
X79392416Y-42262086D01*
X79227743Y-42315592D01*
X79073475Y-42394197D01*
X79067264Y-42398711D01*
X79067263Y-42398711D01*
X79520590Y-42852038D01*
X79457007Y-42869075D01*
X79342993Y-42934901D01*
X79249901Y-43027993D01*
X79184075Y-43142007D01*
X79167038Y-43205591D01*
X78713711Y-42752264D01*
X78709197Y-42758475D01*
X78630592Y-42912743D01*
X78577086Y-43077416D01*
X78550000Y-43248429D01*
X78550000Y-43421572D01*
X78577086Y-43592585D01*
X78630592Y-43757258D01*
X78709199Y-43911529D01*
X78713710Y-43917738D01*
X78713711Y-43917739D01*
X79167038Y-43464411D01*
X79184075Y-43527993D01*
X79249901Y-43642007D01*
X79342993Y-43735099D01*
X79457007Y-43800925D01*
X79520591Y-43817963D01*
X79067263Y-44271291D01*
X79073475Y-44275804D01*
X79227741Y-44354408D01*
X79392416Y-44407915D01*
X79563429Y-44435000D01*
X79736571Y-44435000D01*
X79907585Y-44407915D01*
X80072260Y-44354408D01*
X80226520Y-44275807D01*
X80226537Y-44275797D01*
X80232739Y-44271292D01*
X80232739Y-44271291D01*
X79779410Y-43817963D01*
X79842993Y-43800925D01*
X79957007Y-43735099D01*
X80050099Y-43642007D01*
X80115925Y-43527993D01*
X80132963Y-43464410D01*
X80586291Y-43917739D01*
X80586292Y-43917739D01*
X80590797Y-43911537D01*
X80590807Y-43911520D01*
X80669408Y-43757260D01*
X80722915Y-43592585D01*
X80750000Y-43421572D01*
X81139500Y-43421572D01*
X81139500Y-43438465D01*
X81179870Y-43641420D01*
X81259059Y-43832598D01*
X81374023Y-44004655D01*
X81374025Y-44004658D01*
X81520343Y-44150976D01*
X81606374Y-44208459D01*
X81692402Y-44265941D01*
X81883580Y-44345130D01*
X81883588Y-44345132D01*
X82086531Y-44385500D01*
X82086535Y-44385500D01*
X82293465Y-44385500D01*
X82293470Y-44385500D01*
X82496413Y-44345132D01*
X82496421Y-44345130D01*
X82687597Y-44265942D01*
X82859658Y-44150976D01*
X83005976Y-44004658D01*
X83120942Y-43832597D01*
X83200130Y-43641421D01*
X83200132Y-43641413D01*
X83240500Y-43438470D01*
X84499500Y-43438470D01*
X84499500Y-46744753D01*
X83240500Y-46744753D01*
X83240500Y-45005248D01*
X83228869Y-44946771D01*
X83228868Y-44946770D01*
X83184553Y-44880448D01*
X83118231Y-44836133D01*
X83118230Y-44836132D01*
X83059753Y-44824501D01*
X83059750Y-44824500D01*
X83059748Y-44824500D01*
X81320250Y-44824500D01*
X81320249Y-44824501D01*
X81305432Y-44827448D01*
X81261771Y-44836132D01*
X81261771Y-44836133D01*
X81261769Y-44836133D01*
X81195448Y-44880448D01*
X81151133Y-44946769D01*
X81151133Y-44946771D01*
X81151132Y-44946771D01*
X81139501Y-45005248D01*
X81139500Y-45005250D01*
X81139500Y-45978470D01*
X80700500Y-45978470D01*
X80700500Y-45771531D01*
X80660132Y-45568588D01*
X80660130Y-45568580D01*
X80580942Y-45377404D01*
X80465976Y-45205343D01*
X80319658Y-45059025D01*
X80319655Y-45059023D01*
X80147598Y-44944059D01*
X79956420Y-44864870D01*
X79811948Y-44836133D01*
X79753470Y-44824501D01*
X79753466Y-44824500D01*
X79753465Y-44824500D01*
X79546534Y-44824500D01*
X79546533Y-44824501D01*
X79343580Y-44864870D01*
X79152402Y-44944059D01*
X78980345Y-45059023D01*
X78834023Y-45205345D01*
X78719059Y-45377402D01*
X78639870Y-45568580D01*
X78599500Y-45771535D01*
X78599500Y-45978465D01*
X78639870Y-46181420D01*
X78719059Y-46372598D01*
X78834023Y-46544655D01*
X78834025Y-46544658D01*
X78980343Y-46690976D01*
X79148345Y-46803230D01*
X79152402Y-46805941D01*
X79343580Y-46885130D01*
X79343588Y-46885132D01*
X79546531Y-46925500D01*
X79546535Y-46925500D01*
X79753465Y-46925500D01*
X79753470Y-46925500D01*
X79956413Y-46885132D01*
X79956421Y-46885130D01*
X80147597Y-46805942D01*
X80319658Y-46690976D01*
X80465976Y-46544658D01*
X80580942Y-46372597D01*
X80660130Y-46181421D01*
X80660132Y-46181413D01*
X80700500Y-45978470D01*
X81139500Y-45978470D01*
X81139500Y-46744751D01*
X81139501Y-46744753D01*
X81151132Y-46803230D01*
X81151133Y-46803231D01*
X81195448Y-46869553D01*
X81261770Y-46913868D01*
X81261771Y-46913869D01*
X81320248Y-46925500D01*
X81320252Y-46925500D01*
X83059748Y-46925500D01*
X83059753Y-46925500D01*
X83118230Y-46913869D01*
X83118231Y-46913868D01*
X83184553Y-46869553D01*
X83228868Y-46803231D01*
X83228869Y-46803230D01*
X83240500Y-46744753D01*
X84499500Y-46744753D01*
X84499500Y-51465892D01*
X75400500Y-51465892D01*
X75400500Y-51334108D01*
X75388186Y-51288152D01*
X75366392Y-51206813D01*
X75333446Y-51149750D01*
X75300500Y-51092686D01*
X75207314Y-50999500D01*
X75108479Y-50942437D01*
X75106551Y-50941324D01*
X75093186Y-50933608D01*
X74965892Y-50899500D01*
X74965890Y-50899500D01*
X74834110Y-50899500D01*
X74834108Y-50899500D01*
X74706814Y-50933608D01*
X74592686Y-50999500D01*
X74529005Y-51063181D01*
X74502078Y-51077885D01*
X74476259Y-51094477D01*
X74470059Y-51095369D01*
X74467682Y-51096666D01*
X74441324Y-51099500D01*
X74275833Y-51099500D01*
X74208794Y-51079815D01*
X74188152Y-51063181D01*
X70440460Y-47315489D01*
X70384511Y-47259540D01*
X70384509Y-47259539D01*
X70384505Y-47259536D01*
X70315996Y-47219983D01*
X70315989Y-47219979D01*
X70239562Y-47199500D01*
X66075833Y-47199500D01*
X66008794Y-47179815D01*
X65988152Y-47163181D01*
X54037819Y-35212848D01*
X54004334Y-35151525D01*
X54001500Y-35125167D01*
X54001500Y-29932637D01*
X54021185Y-29865598D01*
X54067682Y-29825309D01*
X54066847Y-29823863D01*
X54176613Y-29760489D01*
X54176616Y-29760487D01*
X54260487Y-29676616D01*
X54260489Y-29676613D01*
X54313670Y-29584501D01*
X54319799Y-29573886D01*
X54350500Y-29459309D01*
X54350500Y-29340691D01*
X54319799Y-29226114D01*
X54260489Y-29123387D01*
X54260488Y-29123386D01*
X54256425Y-29116349D01*
X54258176Y-29115339D01*
X54236905Y-29060311D01*
X54250947Y-28991867D01*
X54258178Y-28980616D01*
X54260489Y-28976613D01*
X54319799Y-28873886D01*
X54350500Y-28759309D01*
X54350500Y-28640691D01*
X54319799Y-28526114D01*
X54260489Y-28423387D01*
X54260488Y-28423386D01*
X54256425Y-28416349D01*
X54258176Y-28415339D01*
X54236905Y-28360311D01*
X54250947Y-28291867D01*
X54258178Y-28280616D01*
X54315361Y-28181572D01*
X54319799Y-28173886D01*
X54350500Y-28059309D01*
X54350500Y-27940691D01*
X54319799Y-27826114D01*
X54260489Y-27723387D01*
X54260488Y-27723386D01*
X54256425Y-27716349D01*
X54258176Y-27715339D01*
X54236905Y-27660311D01*
X54250947Y-27591867D01*
X54258178Y-27580616D01*
X54304434Y-27500498D01*
X54319799Y-27473886D01*
X54350500Y-27359309D01*
X54350500Y-27240691D01*
X54319799Y-27126114D01*
X54260489Y-27023387D01*
X54260488Y-27023386D01*
X54256425Y-27016349D01*
X54258176Y-27015339D01*
X54236905Y-26960311D01*
X54250947Y-26891867D01*
X54258178Y-26880616D01*
X54260489Y-26876613D01*
X54319799Y-26773886D01*
X54350500Y-26659309D01*
X54350500Y-26540691D01*
X54319799Y-26426114D01*
X54260489Y-26323387D01*
X54260488Y-26323386D01*
X54256425Y-26316349D01*
X54258176Y-26315339D01*
X54236905Y-26260311D01*
X54250947Y-26191867D01*
X54258178Y-26180616D01*
X54260489Y-26176613D01*
X54319799Y-26073886D01*
X54350500Y-25959309D01*
X54350500Y-25840691D01*
X54319799Y-25726114D01*
X54260489Y-25623387D01*
X54176613Y-25539511D01*
X54073886Y-25480201D01*
X53959309Y-25449500D01*
X53959306Y-25449500D01*
X53840694Y-25449500D01*
X53840691Y-25449500D01*
X53726114Y-25480201D01*
X53623387Y-25539511D01*
X53587975Y-25574924D01*
X53532391Y-25607016D01*
X53484011Y-25619979D01*
X53415489Y-25659540D01*
X53359540Y-25715489D01*
X51459540Y-27615489D01*
X51419978Y-27684012D01*
X51399500Y-27760438D01*
X51399500Y-27839562D01*
X51399500Y-36339562D01*
X51419979Y-36415989D01*
X51419983Y-36415996D01*
X51459536Y-36484505D01*
X51459542Y-36484513D01*
X60963181Y-45988152D01*
X60996666Y-46049475D01*
X60999500Y-46075833D01*
X60999500Y-49824168D01*
X60979815Y-49891207D01*
X60963186Y-49911845D01*
X60011849Y-50863182D01*
X59950526Y-50896666D01*
X59924168Y-50899500D01*
X59834110Y-50899500D01*
X59834108Y-50899500D01*
X59706814Y-50933608D01*
X59592686Y-50999500D01*
X59499500Y-51092686D01*
X59433608Y-51206814D01*
X59399500Y-51334108D01*
X59399500Y-51465892D01*
X59433608Y-51593186D01*
X59499500Y-51707314D01*
X59592686Y-51800500D01*
X59649750Y-51833446D01*
X59706813Y-51866392D01*
X59770461Y-51883446D01*
X59834108Y-51900500D01*
X59965892Y-51900500D01*
X60093188Y-51866392D01*
X60207314Y-51800500D01*
X60207317Y-51800498D01*
X60300498Y-51707317D01*
X60300500Y-51707314D01*
X60366392Y-51593188D01*
X60400500Y-51465892D01*
X60400500Y-51375834D01*
X60420185Y-51308795D01*
X60436819Y-51288153D01*
X61412320Y-50312653D01*
X61473643Y-50279168D01*
X61543335Y-50284152D01*
X61587682Y-50312653D01*
X62063181Y-50788152D01*
X62077885Y-50815080D01*
X62094477Y-50840898D01*
X62095369Y-50847099D01*
X62096666Y-50849475D01*
X62099500Y-50875833D01*
X62099500Y-50941324D01*
X62079815Y-51008363D01*
X62063181Y-51029005D01*
X61999500Y-51092686D01*
X61933608Y-51206814D01*
X61899500Y-51334108D01*
X61899500Y-51465892D01*
X61933608Y-51593186D01*
X61999500Y-51707314D01*
X62092686Y-51800500D01*
X62149750Y-51833446D01*
X62206813Y-51866392D01*
X62270461Y-51883446D01*
X62334108Y-51900500D01*
X62465892Y-51900500D01*
X62593188Y-51866392D01*
X62707314Y-51800500D01*
X62707317Y-51800498D01*
X62800498Y-51707317D01*
X62800500Y-51707314D01*
X62866392Y-51593188D01*
X62900500Y-51465892D01*
X62900500Y-51334108D01*
X62888186Y-51288152D01*
X62866392Y-51206813D01*
X62833446Y-51149750D01*
X62800500Y-51092686D01*
X62800498Y-51092684D01*
X62736819Y-51029005D01*
X62703334Y-50967682D01*
X62700500Y-50941324D01*
X62700500Y-50660438D01*
X62680022Y-50584013D01*
X62677716Y-50580019D01*
X62677713Y-50580013D01*
X62640463Y-50515493D01*
X62640459Y-50515488D01*
X62036819Y-49911848D01*
X62003334Y-49850525D01*
X62000500Y-49824167D01*
X62000500Y-46124833D01*
X62020185Y-46057794D01*
X62072989Y-46012039D01*
X62142147Y-46002095D01*
X62205703Y-46031120D01*
X62212181Y-46037152D01*
X64663181Y-48488152D01*
X64696666Y-48549475D01*
X64699500Y-48575833D01*
X64699500Y-50941324D01*
X64679815Y-51008363D01*
X64663181Y-51029005D01*
X64599500Y-51092686D01*
X64533608Y-51206814D01*
X64499500Y-51334108D01*
X64499500Y-51465892D01*
X64533608Y-51593186D01*
X64599500Y-51707314D01*
X64692686Y-51800500D01*
X64749750Y-51833446D01*
X64806813Y-51866392D01*
X64870461Y-51883446D01*
X64934108Y-51900500D01*
X65065892Y-51900500D01*
X65193188Y-51866392D01*
X65307314Y-51800500D01*
X65307317Y-51800498D01*
X65400498Y-51707317D01*
X65400500Y-51707314D01*
X65466392Y-51593188D01*
X65500500Y-51465892D01*
X65500500Y-51334108D01*
X65488186Y-51288152D01*
X65466392Y-51206813D01*
X65433446Y-51149750D01*
X65400500Y-51092686D01*
X65400498Y-51092684D01*
X65336819Y-51029005D01*
X65303334Y-50967682D01*
X65300500Y-50941324D01*
X65300500Y-50024833D01*
X65320185Y-49957794D01*
X65372989Y-49912039D01*
X65442147Y-49902095D01*
X65505703Y-49931120D01*
X65512181Y-49937152D01*
X66863181Y-51288152D01*
X66896666Y-51349475D01*
X66899500Y-51375833D01*
X66899500Y-51465890D01*
X66899500Y-51465892D01*
X66933608Y-51593186D01*
X66999500Y-51707314D01*
X67092686Y-51800500D01*
X67149750Y-51833446D01*
X67206813Y-51866392D01*
X67270461Y-51883446D01*
X67334108Y-51900500D01*
X67465892Y-51900500D01*
X67593188Y-51866392D01*
X67707314Y-51800500D01*
X67707317Y-51800498D01*
X67800498Y-51707317D01*
X67800500Y-51707314D01*
X67866392Y-51593188D01*
X67900500Y-51465892D01*
X67900500Y-51334108D01*
X67888186Y-51288152D01*
X67866392Y-51206813D01*
X67833446Y-51149750D01*
X67800500Y-51092686D01*
X67707314Y-50999500D01*
X67608479Y-50942437D01*
X67606551Y-50941324D01*
X67593186Y-50933608D01*
X67465892Y-50899500D01*
X67465890Y-50899500D01*
X67375833Y-50899500D01*
X67308794Y-50879815D01*
X67288152Y-50863181D01*
X65736819Y-49311848D01*
X65703334Y-49250525D01*
X65700500Y-49224167D01*
X65700500Y-48324500D01*
X65720185Y-48257461D01*
X65772989Y-48211706D01*
X65824500Y-48200500D01*
X69824167Y-48200500D01*
X69891206Y-48220185D01*
X69911848Y-48236819D01*
X72063181Y-50388152D01*
X72096666Y-50449475D01*
X72099500Y-50475833D01*
X72099500Y-50941324D01*
X72079815Y-51008363D01*
X72063181Y-51029005D01*
X71999500Y-51092686D01*
X71933608Y-51206814D01*
X71899500Y-51334108D01*
X71899500Y-51465892D01*
X71933608Y-51593186D01*
X71999500Y-51707314D01*
X72092686Y-51800500D01*
X72149750Y-51833446D01*
X72206813Y-51866392D01*
X72270461Y-51883446D01*
X72334108Y-51900500D01*
X72465892Y-51900500D01*
X72593188Y-51866392D01*
X72707314Y-51800500D01*
X72707317Y-51800498D01*
X72800498Y-51707317D01*
X72800500Y-51707314D01*
X72866392Y-51593188D01*
X72900500Y-51465892D01*
X72900500Y-51334108D01*
X72888186Y-51288152D01*
X72866392Y-51206813D01*
X72833446Y-51149750D01*
X72800500Y-51092686D01*
X72800498Y-51092684D01*
X72736819Y-51029005D01*
X72722116Y-51002078D01*
X72705523Y-50976259D01*
X72704632Y-50970059D01*
X72703334Y-50967682D01*
X72700500Y-50941324D01*
X72700500Y-50724833D01*
X72720185Y-50657794D01*
X72772989Y-50612039D01*
X72842147Y-50602095D01*
X72905703Y-50631120D01*
X72912181Y-50637152D01*
X73915488Y-51640459D01*
X73915496Y-51640465D01*
X73984005Y-51680018D01*
X73984010Y-51680021D01*
X74009487Y-51686848D01*
X74060438Y-51700500D01*
X74060440Y-51700500D01*
X74441324Y-51700500D01*
X74508363Y-51720185D01*
X74529005Y-51736819D01*
X74592684Y-51800498D01*
X74592686Y-51800500D01*
X74649750Y-51833446D01*
X74706813Y-51866392D01*
X74770461Y-51883446D01*
X74834108Y-51900500D01*
X74965892Y-51900500D01*
X75093188Y-51866392D01*
X75207314Y-51800500D01*
X75207317Y-51800498D01*
X75300498Y-51707317D01*
X75300500Y-51707314D01*
X75366392Y-51593188D01*
X75400500Y-51465892D01*
X84499500Y-51465892D01*
X84499500Y-55496755D01*
X84499330Y-55503244D01*
X84496047Y-55565892D01*
X84483409Y-55807064D01*
X84482055Y-55819936D01*
X84434970Y-56117217D01*
X84432277Y-56129893D01*
X84354373Y-56420633D01*
X84350364Y-56432968D01*
X84242507Y-56713946D01*
X84237237Y-56725785D01*
X84100581Y-56993986D01*
X84094115Y-57005185D01*
X83930176Y-57257629D01*
X83922574Y-57268092D01*
X83733142Y-57502022D01*
X83724475Y-57511647D01*
X83511647Y-57724475D01*
X83502022Y-57733142D01*
X83268092Y-57922574D01*
X83257629Y-57930176D01*
X83005185Y-58094115D01*
X82993986Y-58100581D01*
X82725785Y-58237237D01*
X82713946Y-58242507D01*
X82432961Y-58350367D01*
X82420633Y-58354373D01*
X82129893Y-58432277D01*
X82117217Y-58434970D01*
X81819936Y-58482055D01*
X81807064Y-58483409D01*
X81503244Y-58499331D01*
X81496755Y-58499500D01*
X81434108Y-58499500D01*
X49565892Y-58499500D01*
X49504067Y-58499500D01*
X49495957Y-58499235D01*
G37*
G04 #@! TD.AperFunction*
G04 #@! TD*
M02*
