G04 #@! TF.GenerationSoftware,KiCad,Pcbnew,10.0.3*
G04 #@! TF.CreationDate,2026-06-05T21:52:36+02:00*
G04 #@! TF.ProjectId,rp-hub75-panel,72702d68-7562-4373-952d-70616e656c2e,rev?*
G04 #@! TF.SameCoordinates,Original*
G04 #@! TF.FileFunction,Paste,Top*
G04 #@! TF.FilePolarity,Positive*
%FSLAX46Y46*%
G04 Gerber Fmt 4.6, Leading zero omitted, Abs format (unit mm)*
G04 Created by KiCad (PCBNEW 10.0.3) date 2026-06-05 21:52:36*
%MOMM*%
%LPD*%
G01*
G04 APERTURE LIST*
G04 Aperture macros list*
%AMRoundRect*
0 Rectangle with rounded corners*
0 $1 Rounding radius*
0 $2 $3 $4 $5 $6 $7 $8 $9 X,Y pos of 4 corners*
0 Add a 4 corners polygon primitive as box body*
4,1,4,$2,$3,$4,$5,$6,$7,$8,$9,$2,$3,0*
0 Add four circle primitives for the rounded corners*
1,1,$1+$1,$2,$3*
1,1,$1+$1,$4,$5*
1,1,$1+$1,$6,$7*
1,1,$1+$1,$8,$9*
0 Add four rect primitives between the rounded corners*
20,1,$1+$1,$2,$3,$4,$5,0*
20,1,$1+$1,$4,$5,$6,$7,0*
20,1,$1+$1,$6,$7,$8,$9,0*
20,1,$1+$1,$8,$9,$2,$3,0*%
%AMFreePoly0*
4,1,18,-0.500000,0.050000,-0.496194,0.069134,-0.485355,0.085355,-0.469134,0.096194,-0.450000,0.100000,0.450000,0.100000,0.500000,0.050000,0.500000,-0.050000,0.496194,-0.069134,0.485355,-0.085355,0.469134,-0.096194,0.450000,-0.100000,-0.450000,-0.100000,-0.469134,-0.096194,-0.485355,-0.085355,-0.496194,-0.069134,-0.500000,-0.050000,-0.500000,0.050000,-0.500000,0.050000,$1*%
%AMFreePoly1*
4,1,18,-0.500000,0.050000,-0.496194,0.069134,-0.485355,0.085355,-0.469134,0.096194,-0.450000,0.100000,0.450000,0.100000,0.469134,0.096194,0.485355,0.085355,0.496194,0.069134,0.500000,0.050000,0.500000,-0.050000,0.450000,-0.100000,-0.450000,-0.100000,-0.469134,-0.096194,-0.485355,-0.085355,-0.496194,-0.069134,-0.500000,-0.050000,-0.500000,0.050000,-0.500000,0.050000,$1*%
%AMFreePoly2*
4,1,18,-0.100000,0.450000,-0.050000,0.500000,0.050000,0.500000,0.069134,0.496194,0.085355,0.485355,0.096194,0.469134,0.100000,0.450000,0.100000,-0.450000,0.096194,-0.469134,0.085355,-0.485355,0.069134,-0.496194,0.050000,-0.500000,-0.050000,-0.500000,-0.069134,-0.496194,-0.085355,-0.485355,-0.096194,-0.469134,-0.100000,-0.450000,-0.100000,0.450000,-0.100000,0.450000,$1*%
%AMFreePoly3*
4,1,18,-0.100000,0.450000,-0.096194,0.469134,-0.085355,0.485355,-0.069134,0.496194,-0.050000,0.500000,0.050000,0.500000,0.100000,0.450000,0.100000,-0.450000,0.096194,-0.469134,0.085355,-0.485355,0.069134,-0.496194,0.050000,-0.500000,-0.050000,-0.500000,-0.069134,-0.496194,-0.085355,-0.485355,-0.096194,-0.469134,-0.100000,-0.450000,-0.100000,0.450000,-0.100000,0.450000,$1*%
%AMFreePoly4*
4,1,18,-0.500000,0.050000,-0.496194,0.069134,-0.485355,0.085355,-0.469134,0.096194,-0.450000,0.100000,0.450000,0.100000,0.469134,0.096194,0.485355,0.085355,0.496194,0.069134,0.500000,0.050000,0.500000,-0.050000,0.496194,-0.069134,0.485355,-0.085355,0.469134,-0.096194,0.450000,-0.100000,-0.450000,-0.100000,-0.500000,-0.050000,-0.500000,0.050000,-0.500000,0.050000,$1*%
%AMFreePoly5*
4,1,18,-0.500000,0.050000,-0.450000,0.100000,0.450000,0.100000,0.469134,0.096194,0.485355,0.085355,0.496194,0.069134,0.500000,0.050000,0.500000,-0.050000,0.496194,-0.069134,0.485355,-0.085355,0.469134,-0.096194,0.450000,-0.100000,-0.450000,-0.100000,-0.469134,-0.096194,-0.485355,-0.085355,-0.496194,-0.069134,-0.500000,-0.050000,-0.500000,0.050000,-0.500000,0.050000,$1*%
%AMFreePoly6*
4,1,18,-0.100000,0.450000,-0.096194,0.469134,-0.085355,0.485355,-0.069134,0.496194,-0.050000,0.500000,0.050000,0.500000,0.069134,0.496194,0.085355,0.485355,0.096194,0.469134,0.100000,0.450000,0.100000,-0.450000,0.050000,-0.500000,-0.050000,-0.500000,-0.069134,-0.496194,-0.085355,-0.485355,-0.096194,-0.469134,-0.100000,-0.450000,-0.100000,0.450000,-0.100000,0.450000,$1*%
%AMFreePoly7*
4,1,18,-0.100000,0.450000,-0.096194,0.469134,-0.085355,0.485355,-0.069134,0.496194,-0.050000,0.500000,0.050000,0.500000,0.069134,0.496194,0.085355,0.485355,0.096194,0.469134,0.100000,0.450000,0.100000,-0.450000,0.096194,-0.469134,0.085355,-0.485355,0.069134,-0.496194,0.050000,-0.500000,-0.050000,-0.500000,-0.100000,-0.450000,-0.100000,0.450000,-0.100000,0.450000,$1*%
G04 Aperture macros list end*
%ADD10RoundRect,0.250000X-0.475000X0.250000X-0.475000X-0.250000X0.475000X-0.250000X0.475000X0.250000X0*%
%ADD11RoundRect,0.250000X-0.450000X-0.350000X0.450000X-0.350000X0.450000X0.350000X-0.450000X0.350000X0*%
%ADD12RoundRect,0.375000X0.375000X-0.625000X0.375000X0.625000X-0.375000X0.625000X-0.375000X-0.625000X0*%
%ADD13RoundRect,0.500000X1.400000X-0.500000X1.400000X0.500000X-1.400000X0.500000X-1.400000X-0.500000X0*%
%ADD14R,0.600000X1.240000*%
%ADD15R,0.300000X1.240000*%
%ADD16RoundRect,0.135000X0.135000X0.185000X-0.135000X0.185000X-0.135000X-0.185000X0.135000X-0.185000X0*%
%ADD17RoundRect,0.250000X-0.512652X-0.159099X-0.159099X-0.512652X0.512652X0.159099X0.159099X0.512652X0*%
%ADD18RoundRect,0.135000X-0.135000X-0.185000X0.135000X-0.185000X0.135000X0.185000X-0.135000X0.185000X0*%
%ADD19RoundRect,0.250000X0.450000X0.350000X-0.450000X0.350000X-0.450000X-0.350000X0.450000X-0.350000X0*%
%ADD20RoundRect,0.140000X0.219203X0.021213X0.021213X0.219203X-0.219203X-0.021213X-0.021213X-0.219203X0*%
%ADD21RoundRect,0.140000X-0.140000X-0.170000X0.140000X-0.170000X0.140000X0.170000X-0.140000X0.170000X0*%
%ADD22RoundRect,0.140000X-0.170000X0.140000X-0.170000X-0.140000X0.170000X-0.140000X0.170000X0.140000X0*%
%ADD23RoundRect,0.250000X-0.250000X-0.475000X0.250000X-0.475000X0.250000X0.475000X-0.250000X0.475000X0*%
%ADD24RoundRect,0.150000X0.825000X0.150000X-0.825000X0.150000X-0.825000X-0.150000X0.825000X-0.150000X0*%
%ADD25RoundRect,0.140000X-0.219203X-0.021213X-0.021213X-0.219203X0.219203X0.021213X0.021213X0.219203X0*%
%ADD26RoundRect,0.140000X0.140000X0.170000X-0.140000X0.170000X-0.140000X-0.170000X0.140000X-0.170000X0*%
%ADD27RoundRect,0.250000X0.250000X0.475000X-0.250000X0.475000X-0.250000X-0.475000X0.250000X-0.475000X0*%
%ADD28RoundRect,0.250000X0.512652X0.159099X0.159099X0.512652X-0.512652X-0.159099X-0.159099X-0.512652X0*%
%ADD29RoundRect,0.250000X0.750000X-0.275000X0.750000X0.275000X-0.750000X0.275000X-0.750000X-0.275000X0*%
%ADD30RoundRect,0.150000X-0.825000X-0.150000X0.825000X-0.150000X0.825000X0.150000X-0.825000X0.150000X0*%
%ADD31RoundRect,0.140000X0.170000X-0.140000X0.170000X0.140000X-0.170000X0.140000X-0.170000X-0.140000X0*%
%ADD32RoundRect,0.250001X-0.462499X-0.849999X0.462499X-0.849999X0.462499X0.849999X-0.462499X0.849999X0*%
%ADD33RoundRect,0.250000X0.475000X-0.250000X0.475000X0.250000X-0.475000X0.250000X-0.475000X-0.250000X0*%
%ADD34RoundRect,0.250000X-0.350000X-0.350000X0.350000X-0.350000X0.350000X0.350000X-0.350000X0.350000X0*%
%ADD35FreePoly0,0.000000*%
%ADD36RoundRect,0.050000X-0.450000X-0.050000X0.450000X-0.050000X0.450000X0.050000X-0.450000X0.050000X0*%
%ADD37FreePoly1,0.000000*%
%ADD38FreePoly2,0.000000*%
%ADD39RoundRect,0.050000X0.050000X-0.450000X0.050000X0.450000X-0.050000X0.450000X-0.050000X-0.450000X0*%
%ADD40FreePoly3,0.000000*%
%ADD41FreePoly4,0.000000*%
%ADD42RoundRect,0.050000X0.450000X0.050000X-0.450000X0.050000X-0.450000X-0.050000X0.450000X-0.050000X0*%
%ADD43FreePoly5,0.000000*%
%ADD44FreePoly6,0.000000*%
%ADD45RoundRect,0.050000X-0.050000X0.450000X-0.050000X-0.450000X0.050000X-0.450000X0.050000X0.450000X0*%
%ADD46FreePoly7,0.000000*%
%ADD47RoundRect,0.243750X-0.456250X0.243750X-0.456250X-0.243750X0.456250X-0.243750X0.456250X0.243750X0*%
%ADD48RoundRect,0.250000X0.500000X-1.500000X0.500000X1.500000X-0.500000X1.500000X-0.500000X-1.500000X0*%
%ADD49RoundRect,0.243750X0.456250X-0.243750X0.456250X0.243750X-0.456250X0.243750X-0.456250X-0.243750X0*%
%ADD50RoundRect,0.250000X0.350000X0.350000X-0.350000X0.350000X-0.350000X-0.350000X0.350000X-0.350000X0*%
%ADD51FreePoly0,180.000000*%
%ADD52FreePoly1,180.000000*%
%ADD53FreePoly2,180.000000*%
%ADD54FreePoly3,180.000000*%
%ADD55FreePoly4,180.000000*%
%ADD56FreePoly5,180.000000*%
%ADD57FreePoly6,180.000000*%
%ADD58FreePoly7,180.000000*%
%ADD59RoundRect,0.250000X-0.500000X1.500000X-0.500000X-1.500000X0.500000X-1.500000X0.500000X1.500000X0*%
%ADD60RoundRect,0.140000X-0.021213X0.219203X-0.219203X0.021213X0.021213X-0.219203X0.219203X-0.021213X0*%
%ADD61RoundRect,0.140000X0.021213X-0.219203X0.219203X-0.021213X-0.021213X0.219203X-0.219203X0.021213X0*%
%ADD62RoundRect,0.375000X-0.375000X0.625000X-0.375000X-0.625000X0.375000X-0.625000X0.375000X0.625000X0*%
%ADD63RoundRect,0.500000X-1.400000X0.500000X-1.400000X-0.500000X1.400000X-0.500000X1.400000X0.500000X0*%
%ADD64RoundRect,0.250000X-0.750000X0.275000X-0.750000X-0.275000X0.750000X-0.275000X0.750000X0.275000X0*%
%ADD65RoundRect,0.250001X0.462499X0.849999X-0.462499X0.849999X-0.462499X-0.849999X0.462499X-0.849999X0*%
G04 APERTURE END LIST*
D10*
G04 #@! TO.C,C12*
X33500000Y-31200000D03*
X33500000Y-33100000D03*
G04 #@! TD*
D11*
G04 #@! TO.C,Y1*
X21400000Y-46150000D03*
X23600000Y-46150000D03*
X23600000Y-44450000D03*
X21400000Y-44450000D03*
G04 #@! TD*
D12*
G04 #@! TO.C,U1*
X28700000Y-28650000D03*
X31000000Y-28650000D03*
D13*
X31000000Y-22350000D03*
D12*
X33300000Y-28650000D03*
G04 #@! TD*
D14*
G04 #@! TO.C,J2*
X19300000Y-51775000D03*
X20100000Y-51775000D03*
D15*
X21250000Y-51775000D03*
X22250000Y-51775000D03*
X22750000Y-51775000D03*
X23750000Y-51775000D03*
D14*
X24900000Y-51775000D03*
X25700000Y-51775000D03*
X25700000Y-51775000D03*
X24900000Y-51775000D03*
D15*
X24250000Y-51775000D03*
X23250000Y-51775000D03*
X21750000Y-51775000D03*
X20750000Y-51775000D03*
D14*
X20100000Y-51775000D03*
X19300000Y-51775000D03*
G04 #@! TD*
D16*
G04 #@! TO.C,R3*
X56210000Y-10300000D03*
X55190000Y-10300000D03*
G04 #@! TD*
D17*
G04 #@! TO.C,C11*
X67628249Y-34728249D03*
X68971751Y-36071751D03*
G04 #@! TD*
D18*
G04 #@! TO.C,R6*
X28190000Y-42000000D03*
X29210000Y-42000000D03*
G04 #@! TD*
D19*
G04 #@! TO.C,Y1*
X63600000Y-19850000D03*
X61400000Y-19850000D03*
X61400000Y-21550000D03*
X63600000Y-21550000D03*
G04 #@! TD*
D20*
G04 #@! TO.C,C7*
X15239411Y-37339411D03*
X14560589Y-36660589D03*
G04 #@! TD*
D10*
G04 #@! TO.C,C13*
X31350000Y-31200000D03*
X31350000Y-33100000D03*
G04 #@! TD*
D21*
G04 #@! TO.C,C8*
X28220000Y-33900000D03*
X29180000Y-33900000D03*
G04 #@! TD*
D22*
G04 #@! TO.C,C16*
X59600000Y-17120000D03*
X59600000Y-18080000D03*
G04 #@! TD*
D23*
G04 #@! TO.C,C4*
X23650000Y-27100000D03*
X25550000Y-27100000D03*
G04 #@! TD*
D24*
G04 #@! TO.C,U3*
X69675000Y-44283000D03*
X69675000Y-43013000D03*
X69675000Y-41743000D03*
X69675000Y-40473000D03*
X64725000Y-40473000D03*
X64725000Y-41743000D03*
X64725000Y-43013000D03*
X64725000Y-44283000D03*
G04 #@! TD*
D25*
G04 #@! TO.C,C10*
X66560589Y-36060589D03*
X67239411Y-36739411D03*
G04 #@! TD*
D22*
G04 #@! TO.C,C17*
X26300000Y-21820000D03*
X26300000Y-22780000D03*
G04 #@! TD*
D18*
G04 #@! TO.C,R2*
X28790000Y-56900000D03*
X29810000Y-56900000D03*
G04 #@! TD*
D25*
G04 #@! TO.C,C7*
X69760589Y-28660589D03*
X70439411Y-29339411D03*
G04 #@! TD*
D18*
G04 #@! TO.C,R3*
X28790000Y-55700000D03*
X29810000Y-55700000D03*
G04 #@! TD*
D26*
G04 #@! TO.C,C3*
X60980000Y-23100000D03*
X60020000Y-23100000D03*
G04 #@! TD*
D22*
G04 #@! TO.C,C19*
X25300000Y-44820000D03*
X25300000Y-45780000D03*
G04 #@! TD*
D10*
G04 #@! TO.C,C15*
X58000000Y-16950000D03*
X58000000Y-18850000D03*
G04 #@! TD*
D27*
G04 #@! TO.C,C4*
X61350000Y-38900000D03*
X59450000Y-38900000D03*
G04 #@! TD*
D28*
G04 #@! TO.C,C11*
X17371751Y-31271751D03*
X16028249Y-29928249D03*
G04 #@! TD*
D29*
G04 #@! TO.C,SW1*
X81500000Y-56225000D03*
X81500000Y-51775000D03*
G04 #@! TD*
D30*
G04 #@! TO.C,U3*
X15325000Y-21717000D03*
X15325000Y-22987000D03*
X15325000Y-24257000D03*
X15325000Y-25527000D03*
X20275000Y-25527000D03*
X20275000Y-24257000D03*
X20275000Y-22987000D03*
X20275000Y-21717000D03*
G04 #@! TD*
D31*
G04 #@! TO.C,C18*
X19700000Y-45780000D03*
X19700000Y-44820000D03*
G04 #@! TD*
G04 #@! TO.C,C16*
X25400000Y-48880000D03*
X25400000Y-47920000D03*
G04 #@! TD*
D32*
G04 #@! TO.C,L1*
X23437500Y-29500000D03*
X25762500Y-29500000D03*
G04 #@! TD*
D16*
G04 #@! TO.C,R1*
X56810000Y-33100000D03*
X55790000Y-33100000D03*
G04 #@! TD*
D33*
G04 #@! TO.C,C12*
X51500000Y-34800000D03*
X51500000Y-32900000D03*
G04 #@! TD*
D21*
G04 #@! TO.C,C1*
X28220000Y-35500000D03*
X29180000Y-35500000D03*
G04 #@! TD*
D31*
G04 #@! TO.C,C19*
X59700000Y-21180000D03*
X59700000Y-20220000D03*
G04 #@! TD*
D16*
G04 #@! TO.C,R6*
X56810000Y-24000000D03*
X55790000Y-24000000D03*
G04 #@! TD*
D25*
G04 #@! TO.C,C2*
X68260589Y-30760589D03*
X68939411Y-31439411D03*
G04 #@! TD*
D31*
G04 #@! TO.C,C17*
X58700000Y-44180000D03*
X58700000Y-43220000D03*
G04 #@! TD*
D34*
G04 #@! TO.C,U2*
X21800000Y-35800000D03*
X21800000Y-37200000D03*
X23200000Y-35800000D03*
X23200000Y-37200000D03*
D35*
X19000000Y-33700000D03*
D36*
X19000000Y-34100000D03*
X19000000Y-34500000D03*
X19000000Y-34900000D03*
X19000000Y-35300000D03*
X19000000Y-35700000D03*
X19000000Y-36100000D03*
X19000000Y-36500000D03*
X19000000Y-36900000D03*
X19000000Y-37300000D03*
X19000000Y-37700000D03*
X19000000Y-38100000D03*
X19000000Y-38500000D03*
X19000000Y-38900000D03*
D37*
X19000000Y-39300000D03*
D38*
X19700000Y-40000000D03*
D39*
X20100000Y-40000000D03*
X20500000Y-40000000D03*
X20900000Y-40000000D03*
X21300000Y-40000000D03*
X21700000Y-40000000D03*
X22100000Y-40000000D03*
X22500000Y-40000000D03*
X22900000Y-40000000D03*
X23300000Y-40000000D03*
X23700000Y-40000000D03*
X24100000Y-40000000D03*
X24500000Y-40000000D03*
X24900000Y-40000000D03*
D40*
X25300000Y-40000000D03*
D41*
X26000000Y-39300000D03*
D42*
X26000000Y-38900000D03*
X26000000Y-38500000D03*
X26000000Y-38100000D03*
X26000000Y-37700000D03*
X26000000Y-37300000D03*
X26000000Y-36900000D03*
X26000000Y-36500000D03*
X26000000Y-36100000D03*
X26000000Y-35700000D03*
X26000000Y-35300000D03*
X26000000Y-34900000D03*
X26000000Y-34500000D03*
X26000000Y-34100000D03*
D43*
X26000000Y-33700000D03*
D44*
X25300000Y-33000000D03*
D45*
X24900000Y-33000000D03*
X24500000Y-33000000D03*
X24100000Y-33000000D03*
X23700000Y-33000000D03*
X23300000Y-33000000D03*
X22900000Y-33000000D03*
X22500000Y-33000000D03*
X22100000Y-33000000D03*
X21700000Y-33000000D03*
X21300000Y-33000000D03*
X20900000Y-33000000D03*
X20500000Y-33000000D03*
X20100000Y-33000000D03*
D46*
X19700000Y-33000000D03*
G04 #@! TD*
D26*
G04 #@! TO.C,C6*
X56780000Y-26000000D03*
X55820000Y-26000000D03*
G04 #@! TD*
D16*
G04 #@! TO.C,R5*
X56810000Y-25000000D03*
X55790000Y-25000000D03*
G04 #@! TD*
D18*
G04 #@! TO.C,R4*
X21990000Y-42900000D03*
X23010000Y-42900000D03*
G04 #@! TD*
D21*
G04 #@! TO.C,C9*
X28220000Y-36500000D03*
X29180000Y-36500000D03*
G04 #@! TD*
D20*
G04 #@! TO.C,C10*
X18439411Y-29939411D03*
X17760589Y-29260589D03*
G04 #@! TD*
D33*
G04 #@! TO.C,C13*
X53650000Y-34800000D03*
X53650000Y-32900000D03*
G04 #@! TD*
D21*
G04 #@! TO.C,C6*
X28220000Y-40000000D03*
X29180000Y-40000000D03*
G04 #@! TD*
D47*
G04 #@! TO.C,D2*
X51800000Y-22362500D03*
X51800000Y-24237500D03*
G04 #@! TD*
D16*
G04 #@! TO.C,R4*
X63010000Y-23100000D03*
X61990000Y-23100000D03*
G04 #@! TD*
D48*
G04 #@! TO.C,J8*
X52750000Y-49100000D03*
X55250000Y-49100000D03*
X57750000Y-49100000D03*
X60250000Y-49100000D03*
X62750000Y-49100000D03*
X65250000Y-49100000D03*
X67750000Y-49100000D03*
X70250000Y-49100000D03*
X72750000Y-49100000D03*
X75250000Y-49100000D03*
X49750000Y-56400000D03*
X78250000Y-56500000D03*
G04 #@! TD*
D49*
G04 #@! TO.C,D2*
X33200000Y-43637500D03*
X33200000Y-41762500D03*
G04 #@! TD*
D18*
G04 #@! TO.C,R5*
X28190000Y-41000000D03*
X29210000Y-41000000D03*
G04 #@! TD*
D26*
G04 #@! TO.C,C9*
X56780000Y-29500000D03*
X55820000Y-29500000D03*
G04 #@! TD*
D50*
G04 #@! TO.C,U2*
X63200000Y-30200000D03*
X63200000Y-28800000D03*
X61800000Y-30200000D03*
X61800000Y-28800000D03*
D51*
X66000000Y-32300000D03*
D42*
X66000000Y-31900000D03*
X66000000Y-31500000D03*
X66000000Y-31100000D03*
X66000000Y-30700000D03*
X66000000Y-30300000D03*
X66000000Y-29900000D03*
X66000000Y-29500000D03*
X66000000Y-29100000D03*
X66000000Y-28700000D03*
X66000000Y-28300000D03*
X66000000Y-27900000D03*
X66000000Y-27500000D03*
X66000000Y-27100000D03*
D52*
X66000000Y-26700000D03*
D53*
X65300000Y-26000000D03*
D45*
X64900000Y-26000000D03*
X64500000Y-26000000D03*
X64100000Y-26000000D03*
X63700000Y-26000000D03*
X63300000Y-26000000D03*
X62900000Y-26000000D03*
X62500000Y-26000000D03*
X62100000Y-26000000D03*
X61700000Y-26000000D03*
X61300000Y-26000000D03*
X60900000Y-26000000D03*
X60500000Y-26000000D03*
X60100000Y-26000000D03*
D54*
X59700000Y-26000000D03*
D55*
X59000000Y-26700000D03*
D36*
X59000000Y-27100000D03*
X59000000Y-27500000D03*
X59000000Y-27900000D03*
X59000000Y-28300000D03*
X59000000Y-28700000D03*
X59000000Y-29100000D03*
X59000000Y-29500000D03*
X59000000Y-29900000D03*
X59000000Y-30300000D03*
X59000000Y-30700000D03*
X59000000Y-31100000D03*
X59000000Y-31500000D03*
X59000000Y-31900000D03*
D56*
X59000000Y-32300000D03*
D57*
X59700000Y-33000000D03*
D39*
X60100000Y-33000000D03*
X60500000Y-33000000D03*
X60900000Y-33000000D03*
X61300000Y-33000000D03*
X61700000Y-33000000D03*
X62100000Y-33000000D03*
X62500000Y-33000000D03*
X62900000Y-33000000D03*
X63300000Y-33000000D03*
X63700000Y-33000000D03*
X64100000Y-33000000D03*
X64500000Y-33000000D03*
X64900000Y-33000000D03*
D58*
X65300000Y-33000000D03*
G04 #@! TD*
D18*
G04 #@! TO.C,R1*
X28190000Y-32900000D03*
X29210000Y-32900000D03*
G04 #@! TD*
D33*
G04 #@! TO.C,C15*
X27000000Y-49050000D03*
X27000000Y-47150000D03*
G04 #@! TD*
D49*
G04 #@! TO.C,D1*
X31000000Y-43637500D03*
X31000000Y-41762500D03*
G04 #@! TD*
D59*
G04 #@! TO.C,J8*
X32250000Y-16900000D03*
X29750000Y-16900000D03*
X27250000Y-16900000D03*
X24750000Y-16900000D03*
X22250000Y-16900000D03*
X19750000Y-16900000D03*
X17250000Y-16900000D03*
X14750000Y-16900000D03*
X12250000Y-16900000D03*
X9750000Y-16900000D03*
X35250000Y-9600000D03*
X6750000Y-9500000D03*
G04 #@! TD*
D20*
G04 #@! TO.C,C2*
X16739411Y-35239411D03*
X16060589Y-34560589D03*
G04 #@! TD*
D26*
G04 #@! TO.C,C8*
X56780000Y-32100000D03*
X55820000Y-32100000D03*
G04 #@! TD*
D21*
G04 #@! TO.C,C3*
X24020000Y-42900000D03*
X24980000Y-42900000D03*
G04 #@! TD*
D16*
G04 #@! TO.C,R2*
X56210000Y-9100000D03*
X55190000Y-9100000D03*
G04 #@! TD*
D60*
G04 #@! TO.C,C5*
X19439411Y-42460589D03*
X18760589Y-43139411D03*
G04 #@! TD*
D47*
G04 #@! TO.C,D1*
X54000000Y-22362500D03*
X54000000Y-24237500D03*
G04 #@! TD*
D14*
G04 #@! TO.C,J2*
X65700000Y-14225000D03*
X64900000Y-14225000D03*
D15*
X63750000Y-14225000D03*
X62750000Y-14225000D03*
X62250000Y-14225000D03*
X61250000Y-14225000D03*
D14*
X60100000Y-14225000D03*
X59300000Y-14225000D03*
X59300000Y-14225000D03*
X60100000Y-14225000D03*
D15*
X60750000Y-14225000D03*
X61750000Y-14225000D03*
X63250000Y-14225000D03*
X64250000Y-14225000D03*
D14*
X64900000Y-14225000D03*
X65700000Y-14225000D03*
G04 #@! TD*
D26*
G04 #@! TO.C,C1*
X56780000Y-30500000D03*
X55820000Y-30500000D03*
G04 #@! TD*
D61*
G04 #@! TO.C,C5*
X65560589Y-23539411D03*
X66239411Y-22860589D03*
G04 #@! TD*
D62*
G04 #@! TO.C,U1*
X56300000Y-37350000D03*
X54000000Y-37350000D03*
D63*
X54000000Y-43650000D03*
D62*
X51700000Y-37350000D03*
G04 #@! TD*
D64*
G04 #@! TO.C,SW1*
X3500000Y-9775000D03*
X3500000Y-14225000D03*
G04 #@! TD*
D65*
G04 #@! TO.C,L1*
X61562500Y-36500000D03*
X59237500Y-36500000D03*
G04 #@! TD*
D22*
G04 #@! TO.C,C18*
X65300000Y-20220000D03*
X65300000Y-21180000D03*
G04 #@! TD*
M02*
