M48
; DRILL file KiCad 10.0.3 date 2026-06-05T21:52:36
; FORMAT={-:-/ absolute / metric / decimal}
; #@! TF.CreationDate,2026-06-05T21:52:36+02:00
; #@! TF.GenerationSoftware,Kicad,Pcbnew,10.0.3
; #@! TF.FileFunction,Plated,1,2,PTH
FMAT,2
METRIC
; #@! TA.AperFunction,Plated,PTH,ViaDrill
T1C0.300
; #@! TA.AperFunction,Plated,PTH,ComponentDrill
T2C0.300
; #@! TA.AperFunction,Plated,PTH,ComponentDrill
T3C0.600
; #@! TA.AperFunction,Plated,PTH,ComponentDrill
T4C0.920
; #@! TA.AperFunction,Plated,PTH,ComponentDrill
T5C1.000
; #@! TA.AperFunction,Plated,PTH,ComponentDrill
T6C1.300
; #@! TA.AperFunction,Plated,PTH,ComponentDrill
T7C2.300
%
G90
G05
T1
X1.0Y-10.5
X1.0Y-21.5
X1.0Y-29.0
X1.0Y-36.7
X1.5Y-57.4
X3.3Y-16.0
X3.5Y-8.0
X5.1Y-15.3
X5.4Y-9.5
X6.8Y-11.9
X7.2Y-29.7
X7.6Y-26.1
X8.1Y-9.5
X8.7Y-44.0
X9.1Y-23.9
X10.1Y-14.6
X12.0Y-22.0
X12.6Y-14.6
X12.8Y-43.6
X13.3Y-40.5
X13.6Y-20.7
X14.0Y-36.1
X14.8Y-14.5
X15.0Y-19.9
X15.2Y-8.0
X15.5Y-34.0
X15.6Y-39.9
X16.1Y-45.4
X16.6Y-28.6
X16.8Y-26.2
X17.1Y-44.3
X17.6Y-14.6
X17.6Y-42.4
X17.8Y-39.9
X18.2Y-44.7
X18.35Y-33.05
X18.8Y-19.8
X19.5Y-27.6
X20.0Y-14.6
X20.0Y-39.0
X20.1Y-37.7
X20.4Y-43.6
X21.3Y-38.9
X21.4Y-47.8
X21.9Y-29.3
X21.999Y-50.45
X22.1Y-30.3
X22.1Y-31.1
X22.3Y-32.1
X22.5Y-45.3
X22.6Y-14.6
X22.7Y-19.3
X23.05Y-52.95
X23.1Y-34.1
X23.5Y-24.1
X23.5Y-31.1
X24.4Y-31.0
X25.009Y-33.949
X25.1Y-14.6
X25.3Y-20.6
X25.3Y-46.9
X25.7Y-31.9
X26.0Y-43.4
X26.2Y-40.2
X26.5Y-27.1
X26.65Y-31.65
X27.1Y-29.7
X27.1Y-33.9
X27.104Y-36.699
X27.7Y-8.0
X27.9Y-22.9
X28.7Y-32.05
X29.0Y-42.9
X29.5Y-46.8
X29.9Y-24.9
X30.0Y-30.3
X30.1Y-33.3
X30.1Y-40.7
X30.1Y-50.9
X30.2Y-36.0
X31.1Y-36.6
X31.1Y-37.3
X31.1Y-38.0
X31.1Y-38.7
X31.1Y-39.4
X31.1Y-40.1
X32.1Y-27.3
X32.1Y-44.6
X32.2Y-14.4
X33.1Y-53.2
X33.5Y-22.1
X33.6Y-16.9
X33.9Y-9.6
X33.9Y-24.9
X34.1Y-34.9
X34.1Y-39.8
X34.9Y-44.7
X35.3Y-12.0
X36.5Y-19.8
X36.5Y-24.9
X36.5Y-30.2
X36.5Y-34.9
X36.6Y-39.8
X36.6Y-42.9
X36.7Y-9.6
X38.1Y-53.2
X38.1Y-55.6
X38.5Y-48.5
X40.6Y-46.7
X41.0Y-17.5
X41.0Y-23.0
X41.5Y-40.5
X43.5Y-25.5
X44.0Y-43.0
X44.0Y-48.5
X44.4Y-19.3
X46.5Y-17.5
X46.9Y-10.4
X46.9Y-12.8
X48.3Y-56.4
X48.4Y-23.1
X48.4Y-26.2
X48.5Y-31.1
X48.5Y-35.8
X48.5Y-41.1
X48.5Y-46.2
X49.7Y-54.0
X50.1Y-21.3
X50.9Y-26.2
X50.9Y-31.1
X51.1Y-41.1
X51.1Y-56.4
X51.4Y-49.1
X51.5Y-43.9
X51.9Y-12.8
X52.8Y-51.6
X52.9Y-21.4
X52.9Y-38.7
X53.9Y-25.9
X53.9Y-26.6
X53.9Y-27.3
X53.9Y-28.0
X53.9Y-28.7
X53.9Y-29.4
X54.8Y-30.0
X54.9Y-15.1
X54.9Y-25.3
X54.9Y-32.7
X55.0Y-35.7
X55.1Y-41.1
X55.5Y-19.2
X56.0Y-23.1
X56.3Y-33.95
X57.1Y-43.1
X57.3Y-58.0
X57.896Y-29.301
X57.9Y-32.1
X57.9Y-36.3
X58.35Y-34.35
X58.5Y-38.9
X58.8Y-25.8
X59.0Y-22.6
X59.3Y-34.1
X59.7Y-19.1
X59.7Y-45.4
X59.9Y-51.4
X59.991Y-32.051
X60.6Y-35.0
X61.5Y-34.9
X61.5Y-41.9
X61.9Y-31.9
X61.95Y-13.05
X62.3Y-46.7
X62.4Y-51.4
X62.5Y-20.7
X62.7Y-33.9
X62.9Y-34.9
X62.9Y-35.7
X63.001Y-15.55
X63.1Y-36.7
X63.6Y-18.2
X63.7Y-27.1
X64.6Y-22.4
X64.9Y-28.3
X65.0Y-27.0
X65.0Y-51.4
X65.5Y-38.4
X66.2Y-46.2
X66.65Y-32.95
X66.8Y-21.3
X67.2Y-26.1
X67.4Y-23.6
X67.4Y-51.4
X67.9Y-21.7
X68.2Y-39.8
X68.4Y-37.4
X68.9Y-20.6
X69.4Y-26.1
X69.5Y-32.0
X69.8Y-58.0
X70.0Y-46.1
X70.2Y-51.5
X71.0Y-29.9
X71.4Y-45.3
X71.7Y-25.5
X72.2Y-22.4
X72.4Y-51.4
X73.0Y-44.0
X74.9Y-51.4
X75.9Y-42.1
X76.3Y-22.0
X76.9Y-56.5
X77.4Y-39.9
X77.8Y-36.3
X78.2Y-54.1
X79.6Y-56.5
X79.9Y-50.7
X81.5Y-58.0
X81.7Y-50.0
X83.5Y-8.6
X84.0Y-29.3
X84.0Y-37.0
X84.0Y-44.5
X84.0Y-55.5
T2
X21.125Y-35.125
X21.125Y-36.5
X21.125Y-37.875
X22.5Y-35.125
X22.5Y-36.5
X22.5Y-37.875
X23.875Y-35.125
X23.875Y-36.5
X23.875Y-37.875
X61.125Y-28.125
X61.125Y-29.5
X61.125Y-30.875
X62.5Y-28.125
X62.5Y-29.5
X62.5Y-30.875
X63.875Y-28.125
X63.875Y-29.5
X63.875Y-30.875
T4
X6.0Y-46.273
X8.5Y-46.273
X10.5Y-46.273
X13.0Y-46.273
X72.0Y-19.727
X74.5Y-19.727
X76.5Y-19.727
X79.0Y-19.727
T5
X2.81Y-20.125
X2.81Y-22.665
X2.81Y-25.205
X2.81Y-27.745
X2.81Y-30.285
X2.81Y-32.825
X2.81Y-35.365
X2.81Y-37.905
X5.35Y-20.125
X5.35Y-22.665
X5.35Y-25.205
X5.35Y-27.745
X5.35Y-30.285
X5.35Y-32.825
X5.35Y-35.365
X5.35Y-37.905
X5.96Y-42.5
X8.5Y-42.5
X11.04Y-42.5
X32.1Y-46.82
X32.1Y-49.36
X32.1Y-51.9
X32.1Y-54.44
X32.1Y-56.98
X52.9Y-9.02
X52.9Y-11.56
X52.9Y-14.1
X52.9Y-16.64
X52.9Y-19.18
X73.96Y-23.5
X76.5Y-23.5
X79.04Y-23.5
X79.65Y-28.095
X79.65Y-30.635
X79.65Y-33.175
X79.65Y-35.715
X79.65Y-38.255
X79.65Y-40.795
X79.65Y-43.335
X79.65Y-45.875
X82.19Y-28.095
X82.19Y-30.635
X82.19Y-33.175
X82.19Y-35.715
X82.19Y-38.255
X82.19Y-40.795
X82.19Y-43.335
X82.19Y-45.875
T6
X42.372Y-50.465
X42.372Y-55.545
X42.627Y-10.455
X42.627Y-15.535
T7
X2.825Y-48.982
X16.175Y-48.982
X68.825Y-17.017
X82.175Y-17.017
T3
X18.18Y-51.825G85X18.18Y-52.925
G05
X18.18Y-56.175G85X18.18Y-56.975
G05
X26.82Y-51.825G85X26.82Y-52.925
G05
X26.82Y-56.175G85X26.82Y-56.975
G05
X58.18Y-9.825G85X58.18Y-9.025
G05
X58.18Y-14.175G85X58.18Y-13.075
G05
X66.82Y-9.825G85X66.82Y-9.025
G05
X66.82Y-14.175G85X66.82Y-13.075
G05
M30
