G04 #@! TF.GenerationSoftware,KiCad,Pcbnew,10.0.3*
G04 #@! TF.CreationDate,2026-06-05T21:52:36+02:00*
G04 #@! TF.ProjectId,rp-hub75-panel,72702d68-7562-4373-952d-70616e656c2e,rev?*
G04 #@! TF.SameCoordinates,Original*
G04 #@! TF.FileFunction,Legend,Top*
G04 #@! TF.FilePolarity,Positive*
%FSLAX46Y46*%
G04 Gerber Fmt 4.6, Leading zero omitted, Abs format (unit mm)*
G04 Created by KiCad (PCBNEW 10.0.3) date 2026-06-05 21:52:36*
%MOMM*%
%LPD*%
G01*
G04 APERTURE LIST*
%ADD10C,0.000000*%
%ADD11C,0.100000*%
%ADD12C,0.150000*%
%ADD13C,0.200000*%
%ADD14C,0.240000*%
%ADD15C,0.260000*%
%ADD16C,0.420000*%
%ADD17C,0.120000*%
G04 APERTURE END LIST*
D10*
G36*
X7812571Y-51151167D02*
G01*
X7849676Y-51154001D01*
X7886261Y-51158659D01*
X7922278Y-51165093D01*
X7957683Y-51173261D01*
X7992430Y-51183110D01*
X8026475Y-51194601D01*
X8059763Y-51207686D01*
X8092258Y-51222315D01*
X8123911Y-51238448D01*
X8154669Y-51256036D01*
X8184489Y-51275037D01*
X8213332Y-51295400D01*
X8241141Y-51317079D01*
X8267877Y-51340035D01*
X8293494Y-51364210D01*
X8317937Y-51389577D01*
X8341170Y-51416070D01*
X8363138Y-51443653D01*
X8383801Y-51472281D01*
X8403113Y-51501907D01*
X8421020Y-51532483D01*
X8437484Y-51563963D01*
X8452451Y-51596305D01*
X8465889Y-51629460D01*
X8477732Y-51663386D01*
X8487947Y-51698027D01*
X8496483Y-51733346D01*
X8503297Y-51769298D01*
X8508340Y-51805839D01*
X8511567Y-51842912D01*
X8512933Y-51880481D01*
X7052705Y-51880043D01*
X7053257Y-51842477D01*
X7055685Y-51805403D01*
X7059936Y-51768867D01*
X7065980Y-51732921D01*
X7073754Y-51697598D01*
X7083227Y-51662965D01*
X7094344Y-51629047D01*
X7107060Y-51595898D01*
X7121337Y-51563563D01*
X7137126Y-51532094D01*
X7154383Y-51501526D01*
X7173052Y-51471912D01*
X7193102Y-51443297D01*
X7214483Y-51415731D01*
X7237147Y-51389249D01*
X7261045Y-51363900D01*
X7286144Y-51339733D01*
X7312391Y-51316795D01*
X7339738Y-51295134D01*
X7368146Y-51274789D01*
X7397561Y-51255809D01*
X7427946Y-51238240D01*
X7459252Y-51222126D01*
X7491435Y-51207516D01*
X7524446Y-51194450D01*
X7558243Y-51182982D01*
X7592784Y-51173152D01*
X7628020Y-51165008D01*
X7663902Y-51158598D01*
X7700389Y-51153958D01*
X7737434Y-51151148D01*
X7774991Y-51150204D01*
X7812571Y-51151167D01*
G37*
G36*
X11253755Y-51151167D02*
G01*
X11290856Y-51154001D01*
X11327442Y-51158659D01*
X11363460Y-51165093D01*
X11398867Y-51173261D01*
X11433614Y-51183110D01*
X11467658Y-51194601D01*
X11500947Y-51207686D01*
X11533445Y-51222315D01*
X11565092Y-51238448D01*
X11595851Y-51256036D01*
X11625674Y-51275037D01*
X11654514Y-51295400D01*
X11682329Y-51317079D01*
X11709060Y-51340035D01*
X11734677Y-51364210D01*
X11759120Y-51389577D01*
X11782350Y-51416070D01*
X11804325Y-51443653D01*
X11824987Y-51472281D01*
X11844296Y-51501907D01*
X11862205Y-51532483D01*
X11878669Y-51563963D01*
X11893638Y-51596305D01*
X11907071Y-51629460D01*
X11918916Y-51663386D01*
X11929132Y-51698027D01*
X11937671Y-51733346D01*
X11944483Y-51769298D01*
X11949526Y-51805839D01*
X11952748Y-51842912D01*
X11954112Y-51880481D01*
X10493889Y-51880043D01*
X10494441Y-51842477D01*
X10496867Y-51805403D01*
X10501122Y-51768867D01*
X10507162Y-51732921D01*
X10514940Y-51697598D01*
X10524408Y-51662965D01*
X10535529Y-51629047D01*
X10548246Y-51595898D01*
X10562521Y-51563563D01*
X10578310Y-51532094D01*
X10595565Y-51501526D01*
X10614240Y-51471912D01*
X10634288Y-51443297D01*
X10655667Y-51415731D01*
X10678329Y-51389249D01*
X10702237Y-51363900D01*
X10727328Y-51339733D01*
X10753578Y-51316795D01*
X10780922Y-51295134D01*
X10809326Y-51274789D01*
X10838747Y-51255809D01*
X10869132Y-51238240D01*
X10900437Y-51222126D01*
X10932619Y-51207516D01*
X10965637Y-51194450D01*
X10999432Y-51182982D01*
X11033967Y-51173152D01*
X11069206Y-51165008D01*
X11105085Y-51158598D01*
X11141574Y-51153958D01*
X11178621Y-51151148D01*
X11216180Y-51150204D01*
X11253755Y-51151167D01*
G37*
G36*
X74506111Y-14119957D02*
G01*
X74505559Y-14157523D01*
X74503133Y-14194597D01*
X74498878Y-14231133D01*
X74492838Y-14267079D01*
X74485060Y-14302402D01*
X74475592Y-14337035D01*
X74464471Y-14370953D01*
X74451754Y-14404102D01*
X74437479Y-14436437D01*
X74421690Y-14467906D01*
X74404435Y-14498474D01*
X74385760Y-14528088D01*
X74365712Y-14556703D01*
X74344333Y-14584269D01*
X74321671Y-14610751D01*
X74297763Y-14636100D01*
X74272672Y-14660267D01*
X74246422Y-14683205D01*
X74219078Y-14704866D01*
X74190674Y-14725211D01*
X74161253Y-14744191D01*
X74130868Y-14761760D01*
X74099563Y-14777874D01*
X74067381Y-14792484D01*
X74034363Y-14805550D01*
X74000568Y-14817018D01*
X73966033Y-14826848D01*
X73930794Y-14834992D01*
X73894915Y-14841402D01*
X73858426Y-14846042D01*
X73821379Y-14848852D01*
X73783820Y-14849796D01*
X73746245Y-14848833D01*
X73709144Y-14845999D01*
X73672558Y-14841341D01*
X73636540Y-14834907D01*
X73601133Y-14826739D01*
X73566386Y-14816890D01*
X73532342Y-14805399D01*
X73499053Y-14792314D01*
X73466555Y-14777685D01*
X73434908Y-14761552D01*
X73404149Y-14743964D01*
X73374326Y-14724963D01*
X73345486Y-14704600D01*
X73317671Y-14682921D01*
X73290940Y-14659965D01*
X73265323Y-14635790D01*
X73240880Y-14610423D01*
X73217650Y-14583930D01*
X73195675Y-14556347D01*
X73175013Y-14527719D01*
X73155704Y-14498093D01*
X73137795Y-14467517D01*
X73121331Y-14436037D01*
X73106362Y-14403695D01*
X73092929Y-14370540D01*
X73081084Y-14336614D01*
X73070868Y-14301973D01*
X73062329Y-14266654D01*
X73055517Y-14230702D01*
X73050474Y-14194161D01*
X73047252Y-14157088D01*
X73045888Y-14119519D01*
X74506111Y-14119957D01*
G37*
G36*
X77947295Y-14119957D02*
G01*
X77946743Y-14157523D01*
X77944315Y-14194597D01*
X77940064Y-14231133D01*
X77934020Y-14267079D01*
X77926246Y-14302402D01*
X77916773Y-14337035D01*
X77905656Y-14370953D01*
X77892940Y-14404102D01*
X77878663Y-14436437D01*
X77862874Y-14467906D01*
X77845617Y-14498474D01*
X77826948Y-14528088D01*
X77806898Y-14556703D01*
X77785517Y-14584269D01*
X77762853Y-14610751D01*
X77738955Y-14636100D01*
X77713856Y-14660267D01*
X77687609Y-14683205D01*
X77660262Y-14704866D01*
X77631854Y-14725211D01*
X77602439Y-14744191D01*
X77572054Y-14761760D01*
X77540748Y-14777874D01*
X77508565Y-14792484D01*
X77475554Y-14805550D01*
X77441757Y-14817018D01*
X77407216Y-14826848D01*
X77371980Y-14834992D01*
X77336098Y-14841402D01*
X77299611Y-14846042D01*
X77262566Y-14848852D01*
X77225009Y-14849796D01*
X77187429Y-14848833D01*
X77150324Y-14845999D01*
X77113739Y-14841341D01*
X77077722Y-14834907D01*
X77042317Y-14826739D01*
X77007570Y-14816890D01*
X76973525Y-14805399D01*
X76940237Y-14792314D01*
X76907742Y-14777685D01*
X76876089Y-14761552D01*
X76845331Y-14743964D01*
X76815511Y-14724963D01*
X76786668Y-14704600D01*
X76758859Y-14682921D01*
X76732123Y-14659965D01*
X76706506Y-14635790D01*
X76682063Y-14610423D01*
X76658830Y-14583930D01*
X76636862Y-14556347D01*
X76616199Y-14527719D01*
X76596887Y-14498093D01*
X76578980Y-14467517D01*
X76562516Y-14436037D01*
X76547549Y-14403695D01*
X76534111Y-14370540D01*
X76522268Y-14336614D01*
X76512053Y-14301973D01*
X76503517Y-14266654D01*
X76496703Y-14230702D01*
X76491660Y-14194161D01*
X76488433Y-14157088D01*
X76487067Y-14119519D01*
X77947295Y-14119957D01*
G37*
G36*
X6915069Y-52058934D02*
G01*
X6918417Y-52102443D01*
X6923924Y-52145324D01*
X6931545Y-52187516D01*
X6941212Y-52228965D01*
X6952889Y-52269626D01*
X6966503Y-52309434D01*
X6982010Y-52348344D01*
X6999354Y-52386297D01*
X7018483Y-52423235D01*
X7039340Y-52459117D01*
X7061867Y-52493880D01*
X7086017Y-52527472D01*
X7111730Y-52559841D01*
X7138953Y-52590926D01*
X7167632Y-52620684D01*
X7197716Y-52649055D01*
X7229143Y-52675981D01*
X7261865Y-52701415D01*
X7295822Y-52725305D01*
X7330966Y-52747588D01*
X7367238Y-52768220D01*
X7404588Y-52787143D01*
X7442956Y-52804296D01*
X7482289Y-52819641D01*
X7522538Y-52833110D01*
X7563644Y-52844655D01*
X7605550Y-52854224D01*
X7648210Y-52861757D01*
X7691557Y-52867205D01*
X7735548Y-52870520D01*
X7780119Y-52871627D01*
X7824695Y-52870520D01*
X7868680Y-52867205D01*
X7912031Y-52861757D01*
X7954682Y-52854224D01*
X7996585Y-52844655D01*
X8037687Y-52833110D01*
X8077931Y-52819641D01*
X8117262Y-52804296D01*
X8155633Y-52787143D01*
X8192972Y-52768220D01*
X8229249Y-52747588D01*
X8264386Y-52725305D01*
X8298347Y-52701415D01*
X8331064Y-52675981D01*
X8362494Y-52649055D01*
X8392572Y-52620684D01*
X8421257Y-52590926D01*
X8448473Y-52559841D01*
X8474187Y-52527472D01*
X8498333Y-52493880D01*
X8520863Y-52459117D01*
X8541718Y-52423235D01*
X8560847Y-52386297D01*
X8578191Y-52348344D01*
X8593697Y-52309434D01*
X8607314Y-52269626D01*
X8618987Y-52228965D01*
X8628661Y-52187516D01*
X8636278Y-52145324D01*
X8641787Y-52102443D01*
X8645128Y-52058934D01*
X8646255Y-52014845D01*
X9433576Y-52014845D01*
X9433576Y-53536053D01*
X6126648Y-53536053D01*
X6126648Y-52014845D01*
X6913948Y-52014845D01*
X6915069Y-52058934D01*
G37*
G36*
X9433576Y-51878877D02*
G01*
X8646255Y-51878877D01*
X8645128Y-51834788D01*
X8641787Y-51791277D01*
X8636278Y-51748397D01*
X8628661Y-51706204D01*
X8618987Y-51664753D01*
X8607314Y-51624096D01*
X8593697Y-51584288D01*
X8578191Y-51545379D01*
X8560847Y-51507426D01*
X8541718Y-51470484D01*
X8520863Y-51434605D01*
X8498333Y-51399842D01*
X8474187Y-51366248D01*
X8448473Y-51333885D01*
X8421257Y-51302796D01*
X8392572Y-51273039D01*
X8362494Y-51244667D01*
X8331064Y-51217739D01*
X8298347Y-51192306D01*
X8264386Y-51168415D01*
X8229249Y-51146133D01*
X8192972Y-51125501D01*
X8155633Y-51106579D01*
X8117262Y-51089422D01*
X8077931Y-51074084D01*
X8037687Y-51060611D01*
X7996585Y-51049064D01*
X7954682Y-51039497D01*
X7912031Y-51031969D01*
X7868680Y-51026517D01*
X7824695Y-51023206D01*
X7780119Y-51022093D01*
X7735548Y-51023206D01*
X7691557Y-51026517D01*
X7648210Y-51031969D01*
X7605550Y-51039497D01*
X7563644Y-51049064D01*
X7522538Y-51060611D01*
X7482289Y-51074084D01*
X7442956Y-51089422D01*
X7404588Y-51106579D01*
X7367238Y-51125501D01*
X7330966Y-51146133D01*
X7295822Y-51168415D01*
X7261865Y-51192306D01*
X7229143Y-51217739D01*
X7197716Y-51244667D01*
X7167632Y-51273039D01*
X7138953Y-51302796D01*
X7111730Y-51333885D01*
X7086017Y-51366248D01*
X7061867Y-51399842D01*
X7039340Y-51434605D01*
X7018483Y-51470484D01*
X6999354Y-51507426D01*
X6982010Y-51545379D01*
X6966503Y-51584288D01*
X6952889Y-51624096D01*
X6941212Y-51664753D01*
X6931545Y-51706204D01*
X6923924Y-51748397D01*
X6918417Y-51791277D01*
X6915069Y-51834788D01*
X6913948Y-51878877D01*
X6126648Y-51878877D01*
X6126648Y-50357669D01*
X9433576Y-50357669D01*
X9433576Y-51878877D01*
G37*
G36*
X10356260Y-52058934D02*
G01*
X10359601Y-52102443D01*
X10365109Y-52145324D01*
X10372727Y-52187516D01*
X10382398Y-52228965D01*
X10394069Y-52269626D01*
X10407683Y-52309434D01*
X10423194Y-52348344D01*
X10440539Y-52386297D01*
X10459668Y-52423235D01*
X10480524Y-52459117D01*
X10503054Y-52493880D01*
X10527202Y-52527472D01*
X10552914Y-52559841D01*
X10580137Y-52590926D01*
X10608815Y-52620684D01*
X10638896Y-52649055D01*
X10670326Y-52675981D01*
X10703047Y-52701415D01*
X10737004Y-52725305D01*
X10772151Y-52747588D01*
X10808427Y-52768220D01*
X10845772Y-52787143D01*
X10884140Y-52804296D01*
X10923473Y-52819641D01*
X10963726Y-52833110D01*
X11004826Y-52844655D01*
X11046737Y-52854224D01*
X11089389Y-52861757D01*
X11132740Y-52867205D01*
X11176731Y-52870520D01*
X11221305Y-52871627D01*
X11265878Y-52870520D01*
X11309866Y-52867205D01*
X11353212Y-52861757D01*
X11395863Y-52854224D01*
X11437768Y-52844655D01*
X11478869Y-52833110D01*
X11519116Y-52819641D01*
X11558448Y-52804296D01*
X11596815Y-52787143D01*
X11634164Y-52768220D01*
X11670430Y-52747588D01*
X11705572Y-52725305D01*
X11739535Y-52701415D01*
X11772251Y-52675981D01*
X11803677Y-52649055D01*
X11833758Y-52620684D01*
X11862437Y-52590926D01*
X11889659Y-52559841D01*
X11915374Y-52527472D01*
X11939520Y-52493880D01*
X11962050Y-52459117D01*
X11982903Y-52423235D01*
X12002035Y-52386297D01*
X12019377Y-52348344D01*
X12034884Y-52309434D01*
X12048501Y-52269626D01*
X12060169Y-52228965D01*
X12069843Y-52187516D01*
X12077461Y-52145324D01*
X12082971Y-52102443D01*
X12086318Y-52058934D01*
X12087438Y-52014845D01*
X12874759Y-52014845D01*
X12874759Y-53536053D01*
X9567831Y-53536053D01*
X9567831Y-52014845D01*
X10355132Y-52014845D01*
X10356260Y-52058934D01*
G37*
G36*
X11403303Y-56583123D02*
G01*
X10498453Y-56583123D01*
X10497159Y-56532452D01*
X10493314Y-56482449D01*
X10486987Y-56433169D01*
X10478233Y-56384678D01*
X10467119Y-56337035D01*
X10453706Y-56290313D01*
X10438055Y-56244561D01*
X10420233Y-56199840D01*
X10400297Y-56156226D01*
X10378318Y-56113766D01*
X10354349Y-56072530D01*
X10328458Y-56032578D01*
X10300709Y-55993972D01*
X10271159Y-55956778D01*
X10239875Y-55921050D01*
X10206917Y-55886852D01*
X10172347Y-55854247D01*
X10136229Y-55823296D01*
X10098627Y-55794066D01*
X10059600Y-55766611D01*
X10019211Y-55741000D01*
X9977531Y-55717292D01*
X9934613Y-55695545D01*
X9890520Y-55675827D01*
X9845317Y-55658194D01*
X9799066Y-55642713D01*
X9751830Y-55629444D01*
X9703674Y-55618453D01*
X9654651Y-55609787D01*
X9604836Y-55603527D01*
X9554286Y-55599724D01*
X9503063Y-55598444D01*
X9451831Y-55599724D01*
X9401276Y-55603527D01*
X9351457Y-55609787D01*
X9302429Y-55618453D01*
X9254266Y-55629444D01*
X9207027Y-55642713D01*
X9160772Y-55658194D01*
X9115567Y-55675827D01*
X9071470Y-55695545D01*
X9028547Y-55717292D01*
X8986859Y-55741000D01*
X8946470Y-55766611D01*
X8907438Y-55794066D01*
X8869835Y-55823296D01*
X8833713Y-55854247D01*
X8799143Y-55886852D01*
X8766181Y-55921050D01*
X8734894Y-55956778D01*
X8705342Y-55993972D01*
X8677594Y-56032578D01*
X8651697Y-56072530D01*
X8627733Y-56113766D01*
X8605746Y-56156226D01*
X8585808Y-56199840D01*
X8567988Y-56244561D01*
X8552337Y-56290313D01*
X8538921Y-56337035D01*
X8527807Y-56384678D01*
X8519056Y-56433169D01*
X8512722Y-56482449D01*
X8508880Y-56532452D01*
X8507585Y-56583123D01*
X7602780Y-56583123D01*
X7602780Y-54834862D01*
X11403303Y-54834862D01*
X11403303Y-56583123D01*
G37*
G36*
X12874759Y-51881042D02*
G01*
X12087438Y-51881042D01*
X12086318Y-51836952D01*
X12082971Y-51793442D01*
X12077461Y-51750563D01*
X12069843Y-51708372D01*
X12060169Y-51666918D01*
X12048501Y-51626261D01*
X12034884Y-51586452D01*
X12019377Y-51547544D01*
X12002035Y-51509590D01*
X11982903Y-51472648D01*
X11962050Y-51436767D01*
X11939520Y-51402004D01*
X11915374Y-51368415D01*
X11889659Y-51336047D01*
X11862437Y-51304960D01*
X11833758Y-51275204D01*
X11803677Y-51246834D01*
X11772251Y-51219906D01*
X11739535Y-51194467D01*
X11705572Y-51170581D01*
X11670430Y-51148297D01*
X11634164Y-51127671D01*
X11596815Y-51108745D01*
X11558448Y-51091586D01*
X11519116Y-51076246D01*
X11478869Y-51062774D01*
X11437768Y-51051230D01*
X11395863Y-51041663D01*
X11353212Y-51034128D01*
X11309866Y-51028680D01*
X11265878Y-51025371D01*
X11221305Y-51024257D01*
X11176731Y-51025371D01*
X11132740Y-51028680D01*
X11089389Y-51034128D01*
X11046737Y-51041663D01*
X11004826Y-51051230D01*
X10963726Y-51062774D01*
X10923473Y-51076246D01*
X10884140Y-51091586D01*
X10845772Y-51108745D01*
X10808427Y-51127671D01*
X10772151Y-51148297D01*
X10737004Y-51170581D01*
X10703047Y-51194467D01*
X10670326Y-51219906D01*
X10638896Y-51246834D01*
X10608815Y-51275204D01*
X10580137Y-51304960D01*
X10552914Y-51336047D01*
X10527202Y-51368415D01*
X10503054Y-51402004D01*
X10480524Y-51436767D01*
X10459668Y-51472648D01*
X10440539Y-51509590D01*
X10423194Y-51547544D01*
X10407683Y-51586452D01*
X10394069Y-51626261D01*
X10382398Y-51666918D01*
X10372727Y-51708372D01*
X10365109Y-51750563D01*
X10359601Y-51793442D01*
X10356260Y-51836952D01*
X10355132Y-51881042D01*
X9567831Y-51881042D01*
X9567831Y-50359833D01*
X12874759Y-50359833D01*
X12874759Y-51881042D01*
G37*
G36*
X72913682Y-14163048D02*
G01*
X72917029Y-14206558D01*
X72922539Y-14249437D01*
X72930157Y-14291628D01*
X72939831Y-14333082D01*
X72951499Y-14373739D01*
X72965116Y-14413548D01*
X72980623Y-14452456D01*
X72997965Y-14490410D01*
X73017097Y-14527352D01*
X73037950Y-14563233D01*
X73060480Y-14597996D01*
X73084626Y-14631585D01*
X73110341Y-14663953D01*
X73137563Y-14695040D01*
X73166242Y-14724796D01*
X73196323Y-14753166D01*
X73227749Y-14780094D01*
X73260465Y-14805533D01*
X73294428Y-14829419D01*
X73329570Y-14851703D01*
X73365836Y-14872329D01*
X73403185Y-14891255D01*
X73441552Y-14908414D01*
X73480884Y-14923754D01*
X73521131Y-14937226D01*
X73562232Y-14948770D01*
X73604137Y-14958337D01*
X73646788Y-14965872D01*
X73690134Y-14971320D01*
X73734122Y-14974629D01*
X73778695Y-14975743D01*
X73823269Y-14974629D01*
X73867260Y-14971320D01*
X73910611Y-14965872D01*
X73953263Y-14958337D01*
X73995174Y-14948770D01*
X74036274Y-14937226D01*
X74076527Y-14923754D01*
X74115860Y-14908414D01*
X74154228Y-14891255D01*
X74191573Y-14872329D01*
X74227849Y-14851703D01*
X74262996Y-14829419D01*
X74296953Y-14805533D01*
X74329674Y-14780094D01*
X74361104Y-14753166D01*
X74391185Y-14724796D01*
X74419863Y-14695040D01*
X74447086Y-14663953D01*
X74472798Y-14631585D01*
X74496946Y-14597996D01*
X74519476Y-14563233D01*
X74540332Y-14527352D01*
X74559461Y-14490410D01*
X74576806Y-14452456D01*
X74592317Y-14413548D01*
X74605931Y-14373739D01*
X74617602Y-14333082D01*
X74627273Y-14291628D01*
X74634891Y-14249437D01*
X74640399Y-14206558D01*
X74643740Y-14163048D01*
X74644868Y-14118958D01*
X75432169Y-14118958D01*
X75432169Y-15640167D01*
X72125241Y-15640167D01*
X72125241Y-14118958D01*
X72912562Y-14118958D01*
X72913682Y-14163048D01*
G37*
G36*
X74502841Y-9467548D02*
G01*
X74506686Y-9517551D01*
X74513013Y-9566831D01*
X74521767Y-9615322D01*
X74532881Y-9662965D01*
X74546294Y-9709687D01*
X74561945Y-9755439D01*
X74579767Y-9800160D01*
X74599703Y-9843774D01*
X74621682Y-9886234D01*
X74645651Y-9927470D01*
X74671542Y-9967422D01*
X74699291Y-10006028D01*
X74728841Y-10043222D01*
X74760125Y-10078950D01*
X74793083Y-10113148D01*
X74827653Y-10145753D01*
X74863771Y-10176704D01*
X74901373Y-10205934D01*
X74940400Y-10233389D01*
X74980789Y-10259000D01*
X75022469Y-10282708D01*
X75065387Y-10304455D01*
X75109480Y-10324173D01*
X75154683Y-10341806D01*
X75200934Y-10357287D01*
X75248170Y-10370556D01*
X75296326Y-10381547D01*
X75345349Y-10390213D01*
X75395164Y-10396473D01*
X75445714Y-10400276D01*
X75496937Y-10401556D01*
X75548169Y-10400276D01*
X75598724Y-10396473D01*
X75648543Y-10390213D01*
X75697571Y-10381547D01*
X75745734Y-10370556D01*
X75792973Y-10357287D01*
X75839228Y-10341806D01*
X75884433Y-10324173D01*
X75928530Y-10304455D01*
X75971453Y-10282708D01*
X76013141Y-10259000D01*
X76053530Y-10233389D01*
X76092562Y-10205934D01*
X76130165Y-10176704D01*
X76166287Y-10145753D01*
X76200857Y-10113148D01*
X76233819Y-10078950D01*
X76265106Y-10043222D01*
X76294658Y-10006028D01*
X76322406Y-9967422D01*
X76348303Y-9927470D01*
X76372267Y-9886234D01*
X76394254Y-9843774D01*
X76414192Y-9800160D01*
X76432012Y-9755439D01*
X76447663Y-9709687D01*
X76461079Y-9662965D01*
X76472193Y-9615322D01*
X76480944Y-9566831D01*
X76487278Y-9517551D01*
X76491120Y-9467548D01*
X76492415Y-9416877D01*
X77397220Y-9416877D01*
X77397220Y-11165138D01*
X73596697Y-11165138D01*
X73596697Y-9416877D01*
X74501547Y-9416877D01*
X74502841Y-9467548D01*
G37*
G36*
X75432169Y-13985155D02*
G01*
X74644868Y-13985155D01*
X74643740Y-13941066D01*
X74640399Y-13897557D01*
X74634891Y-13854676D01*
X74627273Y-13812484D01*
X74617602Y-13771035D01*
X74605931Y-13730374D01*
X74592317Y-13690566D01*
X74576806Y-13651656D01*
X74559461Y-13613703D01*
X74540332Y-13576765D01*
X74519476Y-13540883D01*
X74496946Y-13506120D01*
X74472798Y-13472528D01*
X74447086Y-13440159D01*
X74419863Y-13409074D01*
X74391185Y-13379316D01*
X74361104Y-13350945D01*
X74329674Y-13324019D01*
X74296953Y-13298585D01*
X74262996Y-13274695D01*
X74227849Y-13252412D01*
X74191573Y-13231780D01*
X74154228Y-13212857D01*
X74115860Y-13195704D01*
X74076527Y-13180359D01*
X74036274Y-13166890D01*
X73995174Y-13155345D01*
X73953263Y-13145776D01*
X73910611Y-13138243D01*
X73867260Y-13132795D01*
X73823269Y-13129480D01*
X73778695Y-13128373D01*
X73734122Y-13129480D01*
X73690134Y-13132795D01*
X73646788Y-13138243D01*
X73604137Y-13145776D01*
X73562232Y-13155345D01*
X73521131Y-13166890D01*
X73480884Y-13180359D01*
X73441552Y-13195704D01*
X73403185Y-13212857D01*
X73365836Y-13231780D01*
X73329570Y-13252412D01*
X73294428Y-13274695D01*
X73260465Y-13298585D01*
X73227749Y-13324019D01*
X73196323Y-13350945D01*
X73166242Y-13379316D01*
X73137563Y-13409074D01*
X73110341Y-13440159D01*
X73084626Y-13472528D01*
X73060480Y-13506120D01*
X73037950Y-13540883D01*
X73017097Y-13576765D01*
X72997965Y-13613703D01*
X72980623Y-13651656D01*
X72965116Y-13690566D01*
X72951499Y-13730374D01*
X72939831Y-13771035D01*
X72930157Y-13812484D01*
X72922539Y-13854676D01*
X72917029Y-13897557D01*
X72913682Y-13941066D01*
X72912562Y-13985155D01*
X72125241Y-13985155D01*
X72125241Y-12463947D01*
X75432169Y-12463947D01*
X75432169Y-13985155D01*
G37*
G36*
X76354872Y-14165212D02*
G01*
X76358213Y-14208723D01*
X76363722Y-14251603D01*
X76371339Y-14293796D01*
X76381013Y-14335247D01*
X76392686Y-14375904D01*
X76406303Y-14415712D01*
X76421809Y-14454621D01*
X76439153Y-14492574D01*
X76458282Y-14529516D01*
X76479137Y-14565395D01*
X76501667Y-14600158D01*
X76525813Y-14633752D01*
X76551527Y-14666115D01*
X76578743Y-14697204D01*
X76607428Y-14726961D01*
X76637506Y-14755333D01*
X76668936Y-14782261D01*
X76701653Y-14807694D01*
X76735614Y-14831585D01*
X76770751Y-14853867D01*
X76807028Y-14874499D01*
X76844367Y-14893421D01*
X76882738Y-14910578D01*
X76922069Y-14925916D01*
X76962313Y-14939389D01*
X77003415Y-14950936D01*
X77045318Y-14960503D01*
X77087969Y-14968031D01*
X77131320Y-14973483D01*
X77175305Y-14976794D01*
X77219881Y-14977907D01*
X77264452Y-14976794D01*
X77308443Y-14973483D01*
X77351790Y-14968031D01*
X77394450Y-14960503D01*
X77436356Y-14950936D01*
X77477462Y-14939389D01*
X77517711Y-14925916D01*
X77557044Y-14910578D01*
X77595412Y-14893421D01*
X77632762Y-14874499D01*
X77669034Y-14853867D01*
X77704178Y-14831585D01*
X77738135Y-14807694D01*
X77770857Y-14782261D01*
X77802284Y-14755333D01*
X77832368Y-14726961D01*
X77861047Y-14697204D01*
X77888270Y-14666115D01*
X77913983Y-14633752D01*
X77938133Y-14600158D01*
X77960660Y-14565395D01*
X77981517Y-14529516D01*
X78000646Y-14492574D01*
X78017990Y-14454621D01*
X78033497Y-14415712D01*
X78047111Y-14375904D01*
X78058788Y-14335247D01*
X78068455Y-14293796D01*
X78076076Y-14251603D01*
X78081583Y-14208723D01*
X78084931Y-14165212D01*
X78086052Y-14121123D01*
X78873352Y-14121123D01*
X78873352Y-15642331D01*
X75566424Y-15642331D01*
X75566424Y-14121123D01*
X76353745Y-14121123D01*
X76354872Y-14165212D01*
G37*
G36*
X78873352Y-13985155D02*
G01*
X78086052Y-13985155D01*
X78084931Y-13941066D01*
X78081583Y-13897557D01*
X78076076Y-13854676D01*
X78068455Y-13812484D01*
X78058788Y-13771035D01*
X78047111Y-13730374D01*
X78033497Y-13690566D01*
X78017990Y-13651656D01*
X78000646Y-13613703D01*
X77981517Y-13576765D01*
X77960660Y-13540883D01*
X77938133Y-13506120D01*
X77913983Y-13472528D01*
X77888270Y-13440159D01*
X77861047Y-13409074D01*
X77832368Y-13379316D01*
X77802284Y-13350945D01*
X77770857Y-13324019D01*
X77738135Y-13298585D01*
X77704178Y-13274695D01*
X77669034Y-13252412D01*
X77632762Y-13231780D01*
X77595412Y-13212857D01*
X77557044Y-13195704D01*
X77517711Y-13180359D01*
X77477462Y-13166890D01*
X77436356Y-13155345D01*
X77394450Y-13145776D01*
X77351790Y-13138243D01*
X77308443Y-13132795D01*
X77264452Y-13129480D01*
X77219881Y-13128373D01*
X77175305Y-13129480D01*
X77131320Y-13132795D01*
X77087969Y-13138243D01*
X77045318Y-13145776D01*
X77003415Y-13155345D01*
X76962313Y-13166890D01*
X76922069Y-13180359D01*
X76882738Y-13195704D01*
X76844367Y-13212857D01*
X76807028Y-13231780D01*
X76770751Y-13252412D01*
X76735614Y-13274695D01*
X76701653Y-13298585D01*
X76668936Y-13324019D01*
X76637506Y-13350945D01*
X76607428Y-13379316D01*
X76578743Y-13409074D01*
X76551527Y-13440159D01*
X76525813Y-13472528D01*
X76501667Y-13506120D01*
X76479137Y-13540883D01*
X76458282Y-13576765D01*
X76439153Y-13613703D01*
X76421809Y-13651656D01*
X76406303Y-13690566D01*
X76392686Y-13730374D01*
X76381013Y-13771035D01*
X76371339Y-13812484D01*
X76363722Y-13854676D01*
X76358213Y-13897557D01*
X76354872Y-13941066D01*
X76353745Y-13985155D01*
X75566424Y-13985155D01*
X75566424Y-12463947D01*
X78873352Y-12463947D01*
X78873352Y-13985155D01*
G37*
G36*
X9548875Y-53803041D02*
G01*
X9581055Y-53805031D01*
X9613177Y-53808242D01*
X9645201Y-53812667D01*
X9677091Y-53818278D01*
X9708808Y-53825087D01*
X9740307Y-53833069D01*
X9771551Y-53842217D01*
X9802507Y-53852516D01*
X9833125Y-53863967D01*
X9863376Y-53876544D01*
X9893211Y-53890250D01*
X9922598Y-53905066D01*
X9951496Y-53920986D01*
X9979866Y-53937996D01*
X10007662Y-53956084D01*
X10034851Y-53975247D01*
X10061401Y-53995469D01*
X10087256Y-54016742D01*
X10112391Y-54039048D01*
X10136757Y-54062388D01*
X10160325Y-54086740D01*
X10183044Y-54112100D01*
X10204882Y-54138461D01*
X10225798Y-54165803D01*
X10245753Y-54194121D01*
X10264712Y-54223400D01*
X10282624Y-54253634D01*
X10299457Y-54284815D01*
X10315177Y-54316925D01*
X10329734Y-54349958D01*
X10343098Y-54383901D01*
X10353909Y-54414276D01*
X10362903Y-54442045D01*
X10370264Y-54467463D01*
X10376171Y-54490791D01*
X10380798Y-54512287D01*
X10384329Y-54532209D01*
X10386943Y-54550813D01*
X10388817Y-54568360D01*
X10390132Y-54585111D01*
X10391058Y-54601320D01*
X10392489Y-54633154D01*
X10393351Y-54649295D01*
X10394545Y-54665929D01*
X10396249Y-54683313D01*
X10398646Y-54701713D01*
X10393933Y-54704243D01*
X10365949Y-54703266D01*
X10338091Y-54702823D01*
X10282450Y-54703023D01*
X10226399Y-54703728D01*
X10169323Y-54703831D01*
X9502587Y-54700001D01*
X9053411Y-54694598D01*
X8786475Y-54693637D01*
X8681382Y-54694790D01*
X8610032Y-54697494D01*
X8604944Y-54691971D01*
X8626348Y-54535101D01*
X8633376Y-54501732D01*
X8641752Y-54468713D01*
X8651438Y-54436089D01*
X8662412Y-54403894D01*
X8688066Y-54340917D01*
X8718464Y-54280067D01*
X8753348Y-54221620D01*
X8792458Y-54165859D01*
X8835530Y-54113060D01*
X8882312Y-54063501D01*
X8932539Y-54017454D01*
X8985957Y-53975211D01*
X9042318Y-53937042D01*
X9101347Y-53903230D01*
X9162796Y-53874056D01*
X9194347Y-53861291D01*
X9226409Y-53849791D01*
X9258943Y-53839585D01*
X9291913Y-53830716D01*
X9325302Y-53823218D01*
X9359067Y-53817120D01*
X9378702Y-53814141D01*
X9399015Y-53811347D01*
X9419682Y-53808797D01*
X9440365Y-53806569D01*
X9460734Y-53804737D01*
X9480464Y-53803361D01*
X9499218Y-53802517D01*
X9516675Y-53802273D01*
X9548875Y-53803041D01*
G37*
G36*
X12137301Y-53909112D02*
G01*
X12207648Y-53923476D01*
X12277258Y-53940682D01*
X12346064Y-53960660D01*
X12413980Y-53983345D01*
X12546887Y-54036550D01*
X12675373Y-54099764D01*
X12798863Y-54172451D01*
X12916751Y-54254066D01*
X13028461Y-54344064D01*
X13133394Y-54441915D01*
X13230969Y-54547072D01*
X13320582Y-54658996D01*
X13401656Y-54777152D01*
X13473591Y-54900989D01*
X13535800Y-55029979D01*
X13563078Y-55096236D01*
X13587698Y-55163579D01*
X13609593Y-55231936D01*
X13628693Y-55301243D01*
X13644914Y-55371436D01*
X13658185Y-55442435D01*
X13664700Y-55483734D01*
X13670856Y-55526463D01*
X13676480Y-55569926D01*
X13681432Y-55613434D01*
X13685565Y-55656290D01*
X13688715Y-55697803D01*
X13690743Y-55737273D01*
X13691487Y-55774009D01*
X13690291Y-55841806D01*
X13686502Y-55909580D01*
X13680144Y-55977249D01*
X13671247Y-56044730D01*
X13659829Y-56111940D01*
X13645907Y-56178794D01*
X13629506Y-56245207D01*
X13610644Y-56311107D01*
X13589350Y-56376403D01*
X13565646Y-56441013D01*
X13539546Y-56504853D01*
X13511076Y-56567846D01*
X13480261Y-56629904D01*
X13447115Y-56690938D01*
X13411669Y-56750879D01*
X13373936Y-56809638D01*
X13333946Y-56867126D01*
X13291717Y-56923277D01*
X13247265Y-56977983D01*
X13200627Y-57031180D01*
X13151807Y-57082781D01*
X13100842Y-57132702D01*
X13047741Y-57180859D01*
X12992542Y-57227170D01*
X12935246Y-57271555D01*
X12875890Y-57313925D01*
X12814491Y-57354203D01*
X12751067Y-57392306D01*
X12685652Y-57428147D01*
X12618253Y-57461642D01*
X12548902Y-57492712D01*
X12477615Y-57521273D01*
X12413805Y-57544426D01*
X12355458Y-57563723D01*
X12302042Y-57579548D01*
X12253007Y-57592278D01*
X12207818Y-57602302D01*
X12165923Y-57609997D01*
X12126788Y-57615734D01*
X12089873Y-57619905D01*
X12054627Y-57622882D01*
X12020513Y-57625049D01*
X11953519Y-57628478D01*
X11919557Y-57630498D01*
X11884551Y-57633224D01*
X11847973Y-57637043D01*
X11809276Y-57642332D01*
X11803841Y-57632399D01*
X11805554Y-57573489D01*
X11806123Y-57514846D01*
X11804998Y-57397705D01*
X11802790Y-57279694D01*
X11801833Y-57159536D01*
X11801354Y-55755898D01*
X11806977Y-54810202D01*
X11805576Y-54248234D01*
X11801794Y-54026991D01*
X11795188Y-53876827D01*
X11806762Y-53866049D01*
X12137301Y-53909112D01*
G37*
G36*
X73196159Y-8367601D02*
G01*
X73194446Y-8426511D01*
X73193877Y-8485154D01*
X73195002Y-8602295D01*
X73197210Y-8720306D01*
X73198167Y-8840464D01*
X73198646Y-10244102D01*
X73193023Y-11189798D01*
X73194424Y-11751766D01*
X73198206Y-11973009D01*
X73204812Y-12123173D01*
X73193238Y-12133951D01*
X72862699Y-12090888D01*
X72792352Y-12076524D01*
X72722742Y-12059318D01*
X72653936Y-12039340D01*
X72586020Y-12016655D01*
X72453113Y-11963450D01*
X72324627Y-11900236D01*
X72201137Y-11827549D01*
X72083249Y-11745934D01*
X71971539Y-11655936D01*
X71866606Y-11558085D01*
X71769031Y-11452928D01*
X71679418Y-11341004D01*
X71598344Y-11222848D01*
X71526409Y-11099011D01*
X71464200Y-10970021D01*
X71436922Y-10903764D01*
X71412302Y-10836421D01*
X71390407Y-10768064D01*
X71371307Y-10698757D01*
X71355086Y-10628564D01*
X71341815Y-10557565D01*
X71335300Y-10516266D01*
X71329144Y-10473537D01*
X71323520Y-10430074D01*
X71318568Y-10386566D01*
X71314435Y-10343710D01*
X71311285Y-10302197D01*
X71309257Y-10262727D01*
X71308513Y-10225991D01*
X71309709Y-10158194D01*
X71313498Y-10090420D01*
X71319856Y-10022751D01*
X71328753Y-9955270D01*
X71340171Y-9888060D01*
X71354093Y-9821206D01*
X71370494Y-9754793D01*
X71389356Y-9688893D01*
X71410650Y-9623597D01*
X71434354Y-9558987D01*
X71460454Y-9495147D01*
X71488924Y-9432154D01*
X71519739Y-9370096D01*
X71552885Y-9309062D01*
X71588331Y-9249121D01*
X71626064Y-9190362D01*
X71666054Y-9132874D01*
X71708283Y-9076723D01*
X71752735Y-9022017D01*
X71799373Y-8968820D01*
X71848193Y-8917219D01*
X71899158Y-8867298D01*
X71952259Y-8819141D01*
X72007458Y-8772830D01*
X72064754Y-8728445D01*
X72124110Y-8686075D01*
X72185509Y-8645797D01*
X72248933Y-8607694D01*
X72314348Y-8571853D01*
X72381747Y-8538358D01*
X72451098Y-8507288D01*
X72522385Y-8478727D01*
X72586195Y-8455574D01*
X72644542Y-8436277D01*
X72697958Y-8420452D01*
X72746993Y-8407722D01*
X72792182Y-8397698D01*
X72834077Y-8390003D01*
X72873212Y-8384266D01*
X72910127Y-8380095D01*
X72945373Y-8377118D01*
X72979487Y-8374951D01*
X73046481Y-8371522D01*
X73080443Y-8369502D01*
X73115449Y-8366776D01*
X73152027Y-8362957D01*
X73190724Y-8357668D01*
X73196159Y-8367601D01*
G37*
G36*
X74634051Y-11296734D02*
G01*
X74661909Y-11297177D01*
X74717550Y-11296977D01*
X74773601Y-11296272D01*
X74830677Y-11296169D01*
X75497413Y-11299999D01*
X75946589Y-11305402D01*
X76213525Y-11306363D01*
X76318618Y-11305210D01*
X76389968Y-11302506D01*
X76395056Y-11308029D01*
X76373652Y-11464899D01*
X76366624Y-11498268D01*
X76358248Y-11531287D01*
X76348562Y-11563911D01*
X76337588Y-11596106D01*
X76311934Y-11659083D01*
X76281536Y-11719933D01*
X76246652Y-11778380D01*
X76207542Y-11834141D01*
X76164470Y-11886940D01*
X76117688Y-11936499D01*
X76067461Y-11982546D01*
X76014043Y-12024789D01*
X75957682Y-12062958D01*
X75898653Y-12096770D01*
X75837204Y-12125944D01*
X75805653Y-12138709D01*
X75773591Y-12150209D01*
X75741057Y-12160415D01*
X75708087Y-12169284D01*
X75674698Y-12176782D01*
X75640933Y-12182880D01*
X75621298Y-12185859D01*
X75600985Y-12188653D01*
X75580318Y-12191203D01*
X75559635Y-12193431D01*
X75539266Y-12195263D01*
X75519536Y-12196639D01*
X75500782Y-12197483D01*
X75483325Y-12197727D01*
X75451125Y-12196959D01*
X75418945Y-12194969D01*
X75386823Y-12191758D01*
X75354799Y-12187333D01*
X75322909Y-12181722D01*
X75291192Y-12174913D01*
X75259693Y-12166931D01*
X75228449Y-12157783D01*
X75197493Y-12147484D01*
X75166875Y-12136033D01*
X75136624Y-12123456D01*
X75106789Y-12109750D01*
X75077402Y-12094934D01*
X75048504Y-12079014D01*
X75020134Y-12062004D01*
X74992338Y-12043916D01*
X74965149Y-12024753D01*
X74938599Y-12004531D01*
X74912744Y-11983258D01*
X74887609Y-11960952D01*
X74863243Y-11937612D01*
X74839675Y-11913260D01*
X74816956Y-11887900D01*
X74795118Y-11861539D01*
X74774202Y-11834197D01*
X74754247Y-11805879D01*
X74735288Y-11776600D01*
X74717376Y-11746366D01*
X74700543Y-11715185D01*
X74684823Y-11683075D01*
X74670266Y-11650042D01*
X74656902Y-11616099D01*
X74646091Y-11585724D01*
X74637097Y-11557955D01*
X74629736Y-11532537D01*
X74623829Y-11509209D01*
X74619202Y-11487713D01*
X74615671Y-11467791D01*
X74613057Y-11449187D01*
X74611183Y-11431640D01*
X74609868Y-11414889D01*
X74608942Y-11398680D01*
X74607511Y-11366846D01*
X74606649Y-11350705D01*
X74605455Y-11334071D01*
X74603751Y-11316687D01*
X74601354Y-11298287D01*
X74606067Y-11295757D01*
X74634051Y-11296734D01*
G37*
G36*
X7204813Y-53876827D02*
G01*
X7198207Y-54026991D01*
X7194425Y-54248234D01*
X7193024Y-54810202D01*
X7198646Y-55755898D01*
X7198169Y-57159536D01*
X7197211Y-57279694D01*
X7195005Y-57397705D01*
X7193879Y-57514846D01*
X7194446Y-57573489D01*
X7196161Y-57632399D01*
X7190725Y-57642332D01*
X7152029Y-57637043D01*
X7115450Y-57633224D01*
X7080446Y-57630498D01*
X7046485Y-57628478D01*
X6979488Y-57625049D01*
X6945375Y-57622882D01*
X6910129Y-57619905D01*
X6873214Y-57615734D01*
X6834077Y-57609997D01*
X6792183Y-57602302D01*
X6746995Y-57592278D01*
X6697959Y-57579548D01*
X6644543Y-57563723D01*
X6586197Y-57544426D01*
X6522385Y-57521273D01*
X6451099Y-57492712D01*
X6381750Y-57461642D01*
X6314349Y-57428147D01*
X6248934Y-57392306D01*
X6185510Y-57354203D01*
X6124111Y-57313925D01*
X6064756Y-57271555D01*
X6007460Y-57227170D01*
X5952260Y-57180859D01*
X5899160Y-57132702D01*
X5848193Y-57082781D01*
X5799375Y-57031180D01*
X5752736Y-56977983D01*
X5708284Y-56923277D01*
X5666056Y-56867126D01*
X5626065Y-56809638D01*
X5588331Y-56750879D01*
X5552886Y-56690938D01*
X5519739Y-56629904D01*
X5488925Y-56567846D01*
X5460454Y-56504853D01*
X5434355Y-56441013D01*
X5410651Y-56376403D01*
X5389357Y-56311107D01*
X5370495Y-56245207D01*
X5354093Y-56178794D01*
X5340172Y-56111940D01*
X5328754Y-56044730D01*
X5319856Y-55977249D01*
X5313499Y-55909580D01*
X5309710Y-55841806D01*
X5308514Y-55774009D01*
X5309257Y-55737273D01*
X5311286Y-55697803D01*
X5314435Y-55656290D01*
X5318568Y-55613434D01*
X5323520Y-55569926D01*
X5329144Y-55526463D01*
X5335300Y-55483734D01*
X5341815Y-55442435D01*
X5355087Y-55371436D01*
X5371308Y-55301243D01*
X5390409Y-55231936D01*
X5412302Y-55163579D01*
X5436924Y-55096236D01*
X5464202Y-55029979D01*
X5526414Y-54900989D01*
X5598351Y-54777152D01*
X5679424Y-54658996D01*
X5769039Y-54547072D01*
X5866618Y-54441915D01*
X5971553Y-54344064D01*
X6083264Y-54254066D01*
X6201155Y-54172451D01*
X6324646Y-54099764D01*
X6453134Y-54036550D01*
X6586040Y-53983345D01*
X6653958Y-53960660D01*
X6722763Y-53940682D01*
X6792373Y-53923476D01*
X6862721Y-53909112D01*
X7193260Y-53866049D01*
X7193260Y-53866048D01*
X7204813Y-53876827D01*
G37*
G36*
X77847971Y-8362957D02*
G01*
X77884550Y-8366776D01*
X77919554Y-8369502D01*
X77953515Y-8371522D01*
X78020512Y-8374951D01*
X78054625Y-8377118D01*
X78089871Y-8380095D01*
X78126786Y-8384266D01*
X78165923Y-8390003D01*
X78207817Y-8397698D01*
X78253005Y-8407722D01*
X78302041Y-8420452D01*
X78355457Y-8436277D01*
X78413803Y-8455574D01*
X78477615Y-8478727D01*
X78548901Y-8507288D01*
X78618250Y-8538358D01*
X78685651Y-8571853D01*
X78751066Y-8607694D01*
X78814490Y-8645797D01*
X78875889Y-8686075D01*
X78935244Y-8728445D01*
X78992540Y-8772830D01*
X79047740Y-8819141D01*
X79100840Y-8867298D01*
X79151807Y-8917219D01*
X79200625Y-8968820D01*
X79247264Y-9022017D01*
X79291716Y-9076723D01*
X79333944Y-9132874D01*
X79373935Y-9190362D01*
X79411669Y-9249121D01*
X79447114Y-9309062D01*
X79480261Y-9370096D01*
X79511075Y-9432154D01*
X79539546Y-9495147D01*
X79565645Y-9558987D01*
X79589349Y-9623597D01*
X79610643Y-9688893D01*
X79629505Y-9754793D01*
X79645907Y-9821206D01*
X79659828Y-9888060D01*
X79671246Y-9955270D01*
X79680144Y-10022751D01*
X79686501Y-10090420D01*
X79690290Y-10158194D01*
X79691486Y-10225991D01*
X79690743Y-10262727D01*
X79688714Y-10302197D01*
X79685565Y-10343710D01*
X79681432Y-10386566D01*
X79676480Y-10430074D01*
X79670856Y-10473537D01*
X79664700Y-10516266D01*
X79658185Y-10557565D01*
X79644913Y-10628564D01*
X79628692Y-10698757D01*
X79609591Y-10768064D01*
X79587698Y-10836421D01*
X79563076Y-10903764D01*
X79535798Y-10970021D01*
X79473586Y-11099011D01*
X79401649Y-11222848D01*
X79320576Y-11341004D01*
X79230961Y-11452928D01*
X79133382Y-11558085D01*
X79028447Y-11655936D01*
X78916736Y-11745934D01*
X78798845Y-11827549D01*
X78675354Y-11900236D01*
X78546866Y-11963450D01*
X78413960Y-12016655D01*
X78346042Y-12039340D01*
X78277237Y-12059318D01*
X78207627Y-12076524D01*
X78137279Y-12090888D01*
X77806740Y-12133951D01*
X77806740Y-12133952D01*
X77795187Y-12123173D01*
X77801793Y-11973009D01*
X77805575Y-11751766D01*
X77806976Y-11189798D01*
X77801354Y-10244102D01*
X77801831Y-8840464D01*
X77802789Y-8720306D01*
X77804995Y-8602295D01*
X77806121Y-8485154D01*
X77805554Y-8426511D01*
X77803839Y-8367601D01*
X77809275Y-8357668D01*
X77847971Y-8362957D01*
G37*
D11*
X44500000Y-43000000D02*
G75*
G02*
X38500000Y-43000000I-3000000J0D01*
G01*
X38500000Y-43000000D02*
G75*
G02*
X44500000Y-43000000I3000000J0D01*
G01*
X46500000Y-23000000D02*
G75*
G02*
X40500000Y-23000000I-3000000J0D01*
G01*
X40500000Y-23000000D02*
G75*
G02*
X46500000Y-23000000I3000000J0D01*
G01*
D12*
X7557142Y-17967735D02*
X7521428Y-18003450D01*
X7521428Y-18003450D02*
X7414285Y-18039164D01*
X7414285Y-18039164D02*
X7342857Y-18039164D01*
X7342857Y-18039164D02*
X7235714Y-18003450D01*
X7235714Y-18003450D02*
X7164285Y-17932021D01*
X7164285Y-17932021D02*
X7128571Y-17860592D01*
X7128571Y-17860592D02*
X7092857Y-17717735D01*
X7092857Y-17717735D02*
X7092857Y-17610592D01*
X7092857Y-17610592D02*
X7128571Y-17467735D01*
X7128571Y-17467735D02*
X7164285Y-17396307D01*
X7164285Y-17396307D02*
X7235714Y-17324878D01*
X7235714Y-17324878D02*
X7342857Y-17289164D01*
X7342857Y-17289164D02*
X7414285Y-17289164D01*
X7414285Y-17289164D02*
X7521428Y-17324878D01*
X7521428Y-17324878D02*
X7557142Y-17360592D01*
X7878571Y-18039164D02*
X7878571Y-17289164D01*
X8307142Y-18039164D02*
X7985714Y-17610592D01*
X8307142Y-17289164D02*
X7878571Y-17717735D01*
X12174999Y-19967735D02*
X12139285Y-20003450D01*
X12139285Y-20003450D02*
X12032142Y-20039164D01*
X12032142Y-20039164D02*
X11960714Y-20039164D01*
X11960714Y-20039164D02*
X11853571Y-20003450D01*
X11853571Y-20003450D02*
X11782142Y-19932021D01*
X11782142Y-19932021D02*
X11746428Y-19860592D01*
X11746428Y-19860592D02*
X11710714Y-19717735D01*
X11710714Y-19717735D02*
X11710714Y-19610592D01*
X11710714Y-19610592D02*
X11746428Y-19467735D01*
X11746428Y-19467735D02*
X11782142Y-19396307D01*
X11782142Y-19396307D02*
X11853571Y-19324878D01*
X11853571Y-19324878D02*
X11960714Y-19289164D01*
X11960714Y-19289164D02*
X12032142Y-19289164D01*
X12032142Y-19289164D02*
X12139285Y-19324878D01*
X12139285Y-19324878D02*
X12174999Y-19360592D01*
X12460714Y-20003450D02*
X12567857Y-20039164D01*
X12567857Y-20039164D02*
X12746428Y-20039164D01*
X12746428Y-20039164D02*
X12817857Y-20003450D01*
X12817857Y-20003450D02*
X12853571Y-19967735D01*
X12853571Y-19967735D02*
X12889285Y-19896307D01*
X12889285Y-19896307D02*
X12889285Y-19824878D01*
X12889285Y-19824878D02*
X12853571Y-19753450D01*
X12853571Y-19753450D02*
X12817857Y-19717735D01*
X12817857Y-19717735D02*
X12746428Y-19682021D01*
X12746428Y-19682021D02*
X12603571Y-19646307D01*
X12603571Y-19646307D02*
X12532142Y-19610592D01*
X12532142Y-19610592D02*
X12496428Y-19574878D01*
X12496428Y-19574878D02*
X12460714Y-19503450D01*
X12460714Y-19503450D02*
X12460714Y-19432021D01*
X12460714Y-19432021D02*
X12496428Y-19360592D01*
X12496428Y-19360592D02*
X12532142Y-19324878D01*
X12532142Y-19324878D02*
X12603571Y-19289164D01*
X12603571Y-19289164D02*
X12782142Y-19289164D01*
X12782142Y-19289164D02*
X12889285Y-19324878D01*
X14896428Y-19324878D02*
X14825000Y-19289164D01*
X14825000Y-19289164D02*
X14717857Y-19289164D01*
X14717857Y-19289164D02*
X14610714Y-19324878D01*
X14610714Y-19324878D02*
X14539285Y-19396307D01*
X14539285Y-19396307D02*
X14503571Y-19467735D01*
X14503571Y-19467735D02*
X14467857Y-19610592D01*
X14467857Y-19610592D02*
X14467857Y-19717735D01*
X14467857Y-19717735D02*
X14503571Y-19860592D01*
X14503571Y-19860592D02*
X14539285Y-19932021D01*
X14539285Y-19932021D02*
X14610714Y-20003450D01*
X14610714Y-20003450D02*
X14717857Y-20039164D01*
X14717857Y-20039164D02*
X14789285Y-20039164D01*
X14789285Y-20039164D02*
X14896428Y-20003450D01*
X14896428Y-20003450D02*
X14932142Y-19967735D01*
X14932142Y-19967735D02*
X14932142Y-19717735D01*
X14932142Y-19717735D02*
X14789285Y-19717735D01*
X16646428Y-20039164D02*
X16646428Y-19289164D01*
X16646428Y-19289164D02*
X16824999Y-19289164D01*
X16824999Y-19289164D02*
X16932142Y-19324878D01*
X16932142Y-19324878D02*
X17003571Y-19396307D01*
X17003571Y-19396307D02*
X17039285Y-19467735D01*
X17039285Y-19467735D02*
X17074999Y-19610592D01*
X17074999Y-19610592D02*
X17074999Y-19717735D01*
X17074999Y-19717735D02*
X17039285Y-19860592D01*
X17039285Y-19860592D02*
X17003571Y-19932021D01*
X17003571Y-19932021D02*
X16932142Y-20003450D01*
X16932142Y-20003450D02*
X16824999Y-20039164D01*
X16824999Y-20039164D02*
X16646428Y-20039164D01*
X17324999Y-19289164D02*
X17789285Y-19289164D01*
X17789285Y-19289164D02*
X17539285Y-19574878D01*
X17539285Y-19574878D02*
X17646428Y-19574878D01*
X17646428Y-19574878D02*
X17717857Y-19610592D01*
X17717857Y-19610592D02*
X17753571Y-19646307D01*
X17753571Y-19646307D02*
X17789285Y-19717735D01*
X17789285Y-19717735D02*
X17789285Y-19896307D01*
X17789285Y-19896307D02*
X17753571Y-19967735D01*
X17753571Y-19967735D02*
X17717857Y-20003450D01*
X17717857Y-20003450D02*
X17646428Y-20039164D01*
X17646428Y-20039164D02*
X17432142Y-20039164D01*
X17432142Y-20039164D02*
X17360714Y-20003450D01*
X17360714Y-20003450D02*
X17324999Y-19967735D01*
X19146428Y-20039164D02*
X19146428Y-19289164D01*
X19146428Y-19289164D02*
X19324999Y-19289164D01*
X19324999Y-19289164D02*
X19432142Y-19324878D01*
X19432142Y-19324878D02*
X19503571Y-19396307D01*
X19503571Y-19396307D02*
X19539285Y-19467735D01*
X19539285Y-19467735D02*
X19574999Y-19610592D01*
X19574999Y-19610592D02*
X19574999Y-19717735D01*
X19574999Y-19717735D02*
X19539285Y-19860592D01*
X19539285Y-19860592D02*
X19503571Y-19932021D01*
X19503571Y-19932021D02*
X19432142Y-20003450D01*
X19432142Y-20003450D02*
X19324999Y-20039164D01*
X19324999Y-20039164D02*
X19146428Y-20039164D01*
X19860714Y-19360592D02*
X19896428Y-19324878D01*
X19896428Y-19324878D02*
X19967857Y-19289164D01*
X19967857Y-19289164D02*
X20146428Y-19289164D01*
X20146428Y-19289164D02*
X20217857Y-19324878D01*
X20217857Y-19324878D02*
X20253571Y-19360592D01*
X20253571Y-19360592D02*
X20289285Y-19432021D01*
X20289285Y-19432021D02*
X20289285Y-19503450D01*
X20289285Y-19503450D02*
X20253571Y-19610592D01*
X20253571Y-19610592D02*
X19824999Y-20039164D01*
X19824999Y-20039164D02*
X20289285Y-20039164D01*
X65853571Y-45960835D02*
X65853571Y-46710835D01*
X65853571Y-46710835D02*
X65675000Y-46710835D01*
X65675000Y-46710835D02*
X65567857Y-46675121D01*
X65567857Y-46675121D02*
X65496428Y-46603692D01*
X65496428Y-46603692D02*
X65460714Y-46532264D01*
X65460714Y-46532264D02*
X65425000Y-46389407D01*
X65425000Y-46389407D02*
X65425000Y-46282264D01*
X65425000Y-46282264D02*
X65460714Y-46139407D01*
X65460714Y-46139407D02*
X65496428Y-46067978D01*
X65496428Y-46067978D02*
X65567857Y-45996550D01*
X65567857Y-45996550D02*
X65675000Y-45960835D01*
X65675000Y-45960835D02*
X65853571Y-45960835D01*
X65139285Y-46639407D02*
X65103571Y-46675121D01*
X65103571Y-46675121D02*
X65032143Y-46710835D01*
X65032143Y-46710835D02*
X64853571Y-46710835D01*
X64853571Y-46710835D02*
X64782143Y-46675121D01*
X64782143Y-46675121D02*
X64746428Y-46639407D01*
X64746428Y-46639407D02*
X64710714Y-46567978D01*
X64710714Y-46567978D02*
X64710714Y-46496550D01*
X64710714Y-46496550D02*
X64746428Y-46389407D01*
X64746428Y-46389407D02*
X65175000Y-45960835D01*
X65175000Y-45960835D02*
X64710714Y-45960835D01*
X68353571Y-45960835D02*
X68353571Y-46710835D01*
X68353571Y-46710835D02*
X68175000Y-46710835D01*
X68175000Y-46710835D02*
X68067857Y-46675121D01*
X68067857Y-46675121D02*
X67996428Y-46603692D01*
X67996428Y-46603692D02*
X67960714Y-46532264D01*
X67960714Y-46532264D02*
X67925000Y-46389407D01*
X67925000Y-46389407D02*
X67925000Y-46282264D01*
X67925000Y-46282264D02*
X67960714Y-46139407D01*
X67960714Y-46139407D02*
X67996428Y-46067978D01*
X67996428Y-46067978D02*
X68067857Y-45996550D01*
X68067857Y-45996550D02*
X68175000Y-45960835D01*
X68175000Y-45960835D02*
X68353571Y-45960835D01*
X67675000Y-46710835D02*
X67210714Y-46710835D01*
X67210714Y-46710835D02*
X67460714Y-46425121D01*
X67460714Y-46425121D02*
X67353571Y-46425121D01*
X67353571Y-46425121D02*
X67282143Y-46389407D01*
X67282143Y-46389407D02*
X67246428Y-46353692D01*
X67246428Y-46353692D02*
X67210714Y-46282264D01*
X67210714Y-46282264D02*
X67210714Y-46103692D01*
X67210714Y-46103692D02*
X67246428Y-46032264D01*
X67246428Y-46032264D02*
X67282143Y-45996550D01*
X67282143Y-45996550D02*
X67353571Y-45960835D01*
X67353571Y-45960835D02*
X67567857Y-45960835D01*
X67567857Y-45960835D02*
X67639285Y-45996550D01*
X67639285Y-45996550D02*
X67675000Y-46032264D01*
X70103571Y-46675121D02*
X70175000Y-46710835D01*
X70175000Y-46710835D02*
X70282142Y-46710835D01*
X70282142Y-46710835D02*
X70389285Y-46675121D01*
X70389285Y-46675121D02*
X70460714Y-46603692D01*
X70460714Y-46603692D02*
X70496428Y-46532264D01*
X70496428Y-46532264D02*
X70532142Y-46389407D01*
X70532142Y-46389407D02*
X70532142Y-46282264D01*
X70532142Y-46282264D02*
X70496428Y-46139407D01*
X70496428Y-46139407D02*
X70460714Y-46067978D01*
X70460714Y-46067978D02*
X70389285Y-45996550D01*
X70389285Y-45996550D02*
X70282142Y-45960835D01*
X70282142Y-45960835D02*
X70210714Y-45960835D01*
X70210714Y-45960835D02*
X70103571Y-45996550D01*
X70103571Y-45996550D02*
X70067857Y-46032264D01*
X70067857Y-46032264D02*
X70067857Y-46282264D01*
X70067857Y-46282264D02*
X70210714Y-46282264D01*
X72825000Y-46032264D02*
X72860714Y-45996550D01*
X72860714Y-45996550D02*
X72967857Y-45960835D01*
X72967857Y-45960835D02*
X73039285Y-45960835D01*
X73039285Y-45960835D02*
X73146428Y-45996550D01*
X73146428Y-45996550D02*
X73217857Y-46067978D01*
X73217857Y-46067978D02*
X73253571Y-46139407D01*
X73253571Y-46139407D02*
X73289285Y-46282264D01*
X73289285Y-46282264D02*
X73289285Y-46389407D01*
X73289285Y-46389407D02*
X73253571Y-46532264D01*
X73253571Y-46532264D02*
X73217857Y-46603692D01*
X73217857Y-46603692D02*
X73146428Y-46675121D01*
X73146428Y-46675121D02*
X73039285Y-46710835D01*
X73039285Y-46710835D02*
X72967857Y-46710835D01*
X72967857Y-46710835D02*
X72860714Y-46675121D01*
X72860714Y-46675121D02*
X72825000Y-46639407D01*
X72539285Y-45996550D02*
X72432143Y-45960835D01*
X72432143Y-45960835D02*
X72253571Y-45960835D01*
X72253571Y-45960835D02*
X72182143Y-45996550D01*
X72182143Y-45996550D02*
X72146428Y-46032264D01*
X72146428Y-46032264D02*
X72110714Y-46103692D01*
X72110714Y-46103692D02*
X72110714Y-46175121D01*
X72110714Y-46175121D02*
X72146428Y-46246550D01*
X72146428Y-46246550D02*
X72182143Y-46282264D01*
X72182143Y-46282264D02*
X72253571Y-46317978D01*
X72253571Y-46317978D02*
X72396428Y-46353692D01*
X72396428Y-46353692D02*
X72467857Y-46389407D01*
X72467857Y-46389407D02*
X72503571Y-46425121D01*
X72503571Y-46425121D02*
X72539285Y-46496550D01*
X72539285Y-46496550D02*
X72539285Y-46567978D01*
X72539285Y-46567978D02*
X72503571Y-46639407D01*
X72503571Y-46639407D02*
X72467857Y-46675121D01*
X72467857Y-46675121D02*
X72396428Y-46710835D01*
X72396428Y-46710835D02*
X72217857Y-46710835D01*
X72217857Y-46710835D02*
X72110714Y-46675121D01*
X77442857Y-48032264D02*
X77478571Y-47996550D01*
X77478571Y-47996550D02*
X77585714Y-47960835D01*
X77585714Y-47960835D02*
X77657142Y-47960835D01*
X77657142Y-47960835D02*
X77764285Y-47996550D01*
X77764285Y-47996550D02*
X77835714Y-48067978D01*
X77835714Y-48067978D02*
X77871428Y-48139407D01*
X77871428Y-48139407D02*
X77907142Y-48282264D01*
X77907142Y-48282264D02*
X77907142Y-48389407D01*
X77907142Y-48389407D02*
X77871428Y-48532264D01*
X77871428Y-48532264D02*
X77835714Y-48603692D01*
X77835714Y-48603692D02*
X77764285Y-48675121D01*
X77764285Y-48675121D02*
X77657142Y-48710835D01*
X77657142Y-48710835D02*
X77585714Y-48710835D01*
X77585714Y-48710835D02*
X77478571Y-48675121D01*
X77478571Y-48675121D02*
X77442857Y-48639407D01*
X77121428Y-47960835D02*
X77121428Y-48710835D01*
X76692857Y-47960835D02*
X77014285Y-48389407D01*
X76692857Y-48710835D02*
X77121428Y-48282264D01*
D13*
X2142857Y-16128409D02*
X2285714Y-16176028D01*
X2285714Y-16176028D02*
X2333333Y-16223647D01*
X2333333Y-16223647D02*
X2380952Y-16318885D01*
X2380952Y-16318885D02*
X2380952Y-16461742D01*
X2380952Y-16461742D02*
X2333333Y-16556980D01*
X2333333Y-16556980D02*
X2285714Y-16604600D01*
X2285714Y-16604600D02*
X2190476Y-16652219D01*
X2190476Y-16652219D02*
X1809524Y-16652219D01*
X1809524Y-16652219D02*
X1809524Y-15652219D01*
X1809524Y-15652219D02*
X2142857Y-15652219D01*
X2142857Y-15652219D02*
X2238095Y-15699838D01*
X2238095Y-15699838D02*
X2285714Y-15747457D01*
X2285714Y-15747457D02*
X2333333Y-15842695D01*
X2333333Y-15842695D02*
X2333333Y-15937933D01*
X2333333Y-15937933D02*
X2285714Y-16033171D01*
X2285714Y-16033171D02*
X2238095Y-16080790D01*
X2238095Y-16080790D02*
X2142857Y-16128409D01*
X2142857Y-16128409D02*
X1809524Y-16128409D01*
X3000000Y-15652219D02*
X3190476Y-15652219D01*
X3190476Y-15652219D02*
X3285714Y-15699838D01*
X3285714Y-15699838D02*
X3380952Y-15795076D01*
X3380952Y-15795076D02*
X3428571Y-15985552D01*
X3428571Y-15985552D02*
X3428571Y-16318885D01*
X3428571Y-16318885D02*
X3380952Y-16509361D01*
X3380952Y-16509361D02*
X3285714Y-16604600D01*
X3285714Y-16604600D02*
X3190476Y-16652219D01*
X3190476Y-16652219D02*
X3000000Y-16652219D01*
X3000000Y-16652219D02*
X2904762Y-16604600D01*
X2904762Y-16604600D02*
X2809524Y-16509361D01*
X2809524Y-16509361D02*
X2761905Y-16318885D01*
X2761905Y-16318885D02*
X2761905Y-15985552D01*
X2761905Y-15985552D02*
X2809524Y-15795076D01*
X2809524Y-15795076D02*
X2904762Y-15699838D01*
X2904762Y-15699838D02*
X3000000Y-15652219D01*
X4047619Y-15652219D02*
X4238095Y-15652219D01*
X4238095Y-15652219D02*
X4333333Y-15699838D01*
X4333333Y-15699838D02*
X4428571Y-15795076D01*
X4428571Y-15795076D02*
X4476190Y-15985552D01*
X4476190Y-15985552D02*
X4476190Y-16318885D01*
X4476190Y-16318885D02*
X4428571Y-16509361D01*
X4428571Y-16509361D02*
X4333333Y-16604600D01*
X4333333Y-16604600D02*
X4238095Y-16652219D01*
X4238095Y-16652219D02*
X4047619Y-16652219D01*
X4047619Y-16652219D02*
X3952381Y-16604600D01*
X3952381Y-16604600D02*
X3857143Y-16509361D01*
X3857143Y-16509361D02*
X3809524Y-16318885D01*
X3809524Y-16318885D02*
X3809524Y-15985552D01*
X3809524Y-15985552D02*
X3857143Y-15795076D01*
X3857143Y-15795076D02*
X3952381Y-15699838D01*
X3952381Y-15699838D02*
X4047619Y-15652219D01*
X4761905Y-15652219D02*
X5333333Y-15652219D01*
X5047619Y-16652219D02*
X5047619Y-15652219D01*
X5809523Y-47552219D02*
X5333333Y-47552219D01*
X5333333Y-47552219D02*
X5285714Y-48028409D01*
X5285714Y-48028409D02*
X5333333Y-47980790D01*
X5333333Y-47980790D02*
X5428571Y-47933171D01*
X5428571Y-47933171D02*
X5666666Y-47933171D01*
X5666666Y-47933171D02*
X5761904Y-47980790D01*
X5761904Y-47980790D02*
X5809523Y-48028409D01*
X5809523Y-48028409D02*
X5857142Y-48123647D01*
X5857142Y-48123647D02*
X5857142Y-48361742D01*
X5857142Y-48361742D02*
X5809523Y-48456980D01*
X5809523Y-48456980D02*
X5761904Y-48504600D01*
X5761904Y-48504600D02*
X5666666Y-48552219D01*
X5666666Y-48552219D02*
X5428571Y-48552219D01*
X5428571Y-48552219D02*
X5333333Y-48504600D01*
X5333333Y-48504600D02*
X5285714Y-48456980D01*
X6142857Y-47552219D02*
X6476190Y-48552219D01*
X6476190Y-48552219D02*
X6809523Y-47552219D01*
X8309523Y-40752219D02*
X7738095Y-40752219D01*
X8023809Y-40752219D02*
X8023809Y-39752219D01*
X8023809Y-39752219D02*
X7928571Y-39895076D01*
X7928571Y-39895076D02*
X7833333Y-39990314D01*
X7833333Y-39990314D02*
X7738095Y-40037933D01*
X9214285Y-39752219D02*
X8738095Y-39752219D01*
X8738095Y-39752219D02*
X8690476Y-40228409D01*
X8690476Y-40228409D02*
X8738095Y-40180790D01*
X8738095Y-40180790D02*
X8833333Y-40133171D01*
X8833333Y-40133171D02*
X9071428Y-40133171D01*
X9071428Y-40133171D02*
X9166666Y-40180790D01*
X9166666Y-40180790D02*
X9214285Y-40228409D01*
X9214285Y-40228409D02*
X9261904Y-40323647D01*
X9261904Y-40323647D02*
X9261904Y-40561742D01*
X9261904Y-40561742D02*
X9214285Y-40656980D01*
X9214285Y-40656980D02*
X9166666Y-40704600D01*
X9166666Y-40704600D02*
X9071428Y-40752219D01*
X9071428Y-40752219D02*
X8833333Y-40752219D01*
X8833333Y-40752219D02*
X8738095Y-40704600D01*
X8738095Y-40704600D02*
X8690476Y-40656980D01*
X7619048Y-48552219D02*
X7619048Y-47552219D01*
X7619048Y-47552219D02*
X7857143Y-47552219D01*
X7857143Y-47552219D02*
X8000000Y-47599838D01*
X8000000Y-47599838D02*
X8095238Y-47695076D01*
X8095238Y-47695076D02*
X8142857Y-47790314D01*
X8142857Y-47790314D02*
X8190476Y-47980790D01*
X8190476Y-47980790D02*
X8190476Y-48123647D01*
X8190476Y-48123647D02*
X8142857Y-48314123D01*
X8142857Y-48314123D02*
X8095238Y-48409361D01*
X8095238Y-48409361D02*
X8000000Y-48504600D01*
X8000000Y-48504600D02*
X7857143Y-48552219D01*
X7857143Y-48552219D02*
X7619048Y-48552219D01*
X8619048Y-48171266D02*
X9380953Y-48171266D01*
X9819048Y-48552219D02*
X9819048Y-47552219D01*
X9819048Y-47552219D02*
X10057143Y-47552219D01*
X10057143Y-47552219D02*
X10200000Y-47599838D01*
X10200000Y-47599838D02*
X10295238Y-47695076D01*
X10295238Y-47695076D02*
X10342857Y-47790314D01*
X10342857Y-47790314D02*
X10390476Y-47980790D01*
X10390476Y-47980790D02*
X10390476Y-48123647D01*
X10390476Y-48123647D02*
X10342857Y-48314123D01*
X10342857Y-48314123D02*
X10295238Y-48409361D01*
X10295238Y-48409361D02*
X10200000Y-48504600D01*
X10200000Y-48504600D02*
X10057143Y-48552219D01*
X10057143Y-48552219D02*
X9819048Y-48552219D01*
X10819048Y-48171266D02*
X11580953Y-48171266D01*
X11200000Y-48552219D02*
X11200000Y-47790314D01*
X10909523Y-40752219D02*
X10338095Y-40752219D01*
X10623809Y-40752219D02*
X10623809Y-39752219D01*
X10623809Y-39752219D02*
X10528571Y-39895076D01*
X10528571Y-39895076D02*
X10433333Y-39990314D01*
X10433333Y-39990314D02*
X10338095Y-40037933D01*
X11766666Y-40085552D02*
X11766666Y-40752219D01*
X11528571Y-39704600D02*
X11290476Y-40418885D01*
X11290476Y-40418885D02*
X11909523Y-40418885D01*
X13261904Y-47599838D02*
X13166666Y-47552219D01*
X13166666Y-47552219D02*
X13023809Y-47552219D01*
X13023809Y-47552219D02*
X12880952Y-47599838D01*
X12880952Y-47599838D02*
X12785714Y-47695076D01*
X12785714Y-47695076D02*
X12738095Y-47790314D01*
X12738095Y-47790314D02*
X12690476Y-47980790D01*
X12690476Y-47980790D02*
X12690476Y-48123647D01*
X12690476Y-48123647D02*
X12738095Y-48314123D01*
X12738095Y-48314123D02*
X12785714Y-48409361D01*
X12785714Y-48409361D02*
X12880952Y-48504600D01*
X12880952Y-48504600D02*
X13023809Y-48552219D01*
X13023809Y-48552219D02*
X13119047Y-48552219D01*
X13119047Y-48552219D02*
X13261904Y-48504600D01*
X13261904Y-48504600D02*
X13309523Y-48456980D01*
X13309523Y-48456980D02*
X13309523Y-48123647D01*
X13309523Y-48123647D02*
X13119047Y-48123647D01*
X14952380Y-10147247D02*
X14952380Y-10956770D01*
X14952380Y-10956770D02*
X14999999Y-11052008D01*
X14999999Y-11052008D02*
X15047618Y-11099628D01*
X15047618Y-11099628D02*
X15142856Y-11147247D01*
X15142856Y-11147247D02*
X15333332Y-11147247D01*
X15333332Y-11147247D02*
X15428570Y-11099628D01*
X15428570Y-11099628D02*
X15476189Y-11052008D01*
X15476189Y-11052008D02*
X15523808Y-10956770D01*
X15523808Y-10956770D02*
X15523808Y-10147247D01*
X15999999Y-11147247D02*
X15999999Y-10147247D01*
X16428570Y-11147247D02*
X16428570Y-10623437D01*
X16428570Y-10623437D02*
X16380951Y-10528199D01*
X16380951Y-10528199D02*
X16285713Y-10480580D01*
X16285713Y-10480580D02*
X16142856Y-10480580D01*
X16142856Y-10480580D02*
X16047618Y-10528199D01*
X16047618Y-10528199D02*
X15999999Y-10575818D01*
X16904761Y-11147247D02*
X16904761Y-10147247D01*
X17333332Y-11147247D02*
X17333332Y-10623437D01*
X17333332Y-10623437D02*
X17285713Y-10528199D01*
X17285713Y-10528199D02*
X17190475Y-10480580D01*
X17190475Y-10480580D02*
X17047618Y-10480580D01*
X17047618Y-10480580D02*
X16952380Y-10528199D01*
X16952380Y-10528199D02*
X16904761Y-10575818D01*
X17809523Y-11147247D02*
X17809523Y-10147247D01*
X18238094Y-11147247D02*
X18238094Y-10623437D01*
X18238094Y-10623437D02*
X18190475Y-10528199D01*
X18190475Y-10528199D02*
X18095237Y-10480580D01*
X18095237Y-10480580D02*
X17952380Y-10480580D01*
X17952380Y-10480580D02*
X17857142Y-10528199D01*
X17857142Y-10528199D02*
X17809523Y-10575818D01*
X18761904Y-11099628D02*
X18761904Y-11147247D01*
X18761904Y-11147247D02*
X18714285Y-11242485D01*
X18714285Y-11242485D02*
X18666666Y-11290104D01*
X19952380Y-11147247D02*
X19952380Y-10147247D01*
X20380951Y-11147247D02*
X20380951Y-10623437D01*
X20380951Y-10623437D02*
X20333332Y-10528199D01*
X20333332Y-10528199D02*
X20238094Y-10480580D01*
X20238094Y-10480580D02*
X20095237Y-10480580D01*
X20095237Y-10480580D02*
X19999999Y-10528199D01*
X19999999Y-10528199D02*
X19952380Y-10575818D01*
X21238094Y-11099628D02*
X21142856Y-11147247D01*
X21142856Y-11147247D02*
X20952380Y-11147247D01*
X20952380Y-11147247D02*
X20857142Y-11099628D01*
X20857142Y-11099628D02*
X20809523Y-11004389D01*
X20809523Y-11004389D02*
X20809523Y-10623437D01*
X20809523Y-10623437D02*
X20857142Y-10528199D01*
X20857142Y-10528199D02*
X20952380Y-10480580D01*
X20952380Y-10480580D02*
X21142856Y-10480580D01*
X21142856Y-10480580D02*
X21238094Y-10528199D01*
X21238094Y-10528199D02*
X21285713Y-10623437D01*
X21285713Y-10623437D02*
X21285713Y-10718675D01*
X21285713Y-10718675D02*
X20809523Y-10813913D01*
X21619047Y-10480580D02*
X21857142Y-11147247D01*
X22095237Y-10480580D02*
X21857142Y-11147247D01*
X21857142Y-11147247D02*
X21761904Y-11385342D01*
X21761904Y-11385342D02*
X21714285Y-11432961D01*
X21714285Y-11432961D02*
X21619047Y-11480580D01*
X23095238Y-10480580D02*
X23476190Y-10480580D01*
X23238095Y-10147247D02*
X23238095Y-11004389D01*
X23238095Y-11004389D02*
X23285714Y-11099628D01*
X23285714Y-11099628D02*
X23380952Y-11147247D01*
X23380952Y-11147247D02*
X23476190Y-11147247D01*
X23809524Y-11147247D02*
X23809524Y-10147247D01*
X24238095Y-11147247D02*
X24238095Y-10623437D01*
X24238095Y-10623437D02*
X24190476Y-10528199D01*
X24190476Y-10528199D02*
X24095238Y-10480580D01*
X24095238Y-10480580D02*
X23952381Y-10480580D01*
X23952381Y-10480580D02*
X23857143Y-10528199D01*
X23857143Y-10528199D02*
X23809524Y-10575818D01*
X25095238Y-11099628D02*
X25000000Y-11147247D01*
X25000000Y-11147247D02*
X24809524Y-11147247D01*
X24809524Y-11147247D02*
X24714286Y-11099628D01*
X24714286Y-11099628D02*
X24666667Y-11004389D01*
X24666667Y-11004389D02*
X24666667Y-10623437D01*
X24666667Y-10623437D02*
X24714286Y-10528199D01*
X24714286Y-10528199D02*
X24809524Y-10480580D01*
X24809524Y-10480580D02*
X25000000Y-10480580D01*
X25000000Y-10480580D02*
X25095238Y-10528199D01*
X25095238Y-10528199D02*
X25142857Y-10623437D01*
X25142857Y-10623437D02*
X25142857Y-10718675D01*
X25142857Y-10718675D02*
X24666667Y-10813913D01*
X25571429Y-11147247D02*
X25571429Y-10480580D01*
X25571429Y-10671056D02*
X25619048Y-10575818D01*
X25619048Y-10575818D02*
X25666667Y-10528199D01*
X25666667Y-10528199D02*
X25761905Y-10480580D01*
X25761905Y-10480580D02*
X25857143Y-10480580D01*
X26571429Y-11099628D02*
X26476191Y-11147247D01*
X26476191Y-11147247D02*
X26285715Y-11147247D01*
X26285715Y-11147247D02*
X26190477Y-11099628D01*
X26190477Y-11099628D02*
X26142858Y-11004389D01*
X26142858Y-11004389D02*
X26142858Y-10623437D01*
X26142858Y-10623437D02*
X26190477Y-10528199D01*
X26190477Y-10528199D02*
X26285715Y-10480580D01*
X26285715Y-10480580D02*
X26476191Y-10480580D01*
X26476191Y-10480580D02*
X26571429Y-10528199D01*
X26571429Y-10528199D02*
X26619048Y-10623437D01*
X26619048Y-10623437D02*
X26619048Y-10718675D01*
X26619048Y-10718675D02*
X26142858Y-10813913D01*
X27095239Y-11099628D02*
X27095239Y-11147247D01*
X27095239Y-11147247D02*
X27047620Y-11242485D01*
X27047620Y-11242485D02*
X27000001Y-11290104D01*
X11928570Y-12090524D02*
X12119046Y-12757191D01*
X12119046Y-12757191D02*
X12309522Y-12281000D01*
X12309522Y-12281000D02*
X12499998Y-12757191D01*
X12499998Y-12757191D02*
X12690474Y-12090524D01*
X13071427Y-12757191D02*
X13071427Y-11757191D01*
X13499998Y-12757191D02*
X13499998Y-12233381D01*
X13499998Y-12233381D02*
X13452379Y-12138143D01*
X13452379Y-12138143D02*
X13357141Y-12090524D01*
X13357141Y-12090524D02*
X13214284Y-12090524D01*
X13214284Y-12090524D02*
X13119046Y-12138143D01*
X13119046Y-12138143D02*
X13071427Y-12185762D01*
X14357141Y-12709572D02*
X14261903Y-12757191D01*
X14261903Y-12757191D02*
X14071427Y-12757191D01*
X14071427Y-12757191D02*
X13976189Y-12709572D01*
X13976189Y-12709572D02*
X13928570Y-12614333D01*
X13928570Y-12614333D02*
X13928570Y-12233381D01*
X13928570Y-12233381D02*
X13976189Y-12138143D01*
X13976189Y-12138143D02*
X14071427Y-12090524D01*
X14071427Y-12090524D02*
X14261903Y-12090524D01*
X14261903Y-12090524D02*
X14357141Y-12138143D01*
X14357141Y-12138143D02*
X14404760Y-12233381D01*
X14404760Y-12233381D02*
X14404760Y-12328619D01*
X14404760Y-12328619D02*
X13928570Y-12423857D01*
X14833332Y-12757191D02*
X14833332Y-12090524D01*
X14833332Y-12281000D02*
X14880951Y-12185762D01*
X14880951Y-12185762D02*
X14928570Y-12138143D01*
X14928570Y-12138143D02*
X15023808Y-12090524D01*
X15023808Y-12090524D02*
X15119046Y-12090524D01*
X15833332Y-12709572D02*
X15738094Y-12757191D01*
X15738094Y-12757191D02*
X15547618Y-12757191D01*
X15547618Y-12757191D02*
X15452380Y-12709572D01*
X15452380Y-12709572D02*
X15404761Y-12614333D01*
X15404761Y-12614333D02*
X15404761Y-12233381D01*
X15404761Y-12233381D02*
X15452380Y-12138143D01*
X15452380Y-12138143D02*
X15547618Y-12090524D01*
X15547618Y-12090524D02*
X15738094Y-12090524D01*
X15738094Y-12090524D02*
X15833332Y-12138143D01*
X15833332Y-12138143D02*
X15880951Y-12233381D01*
X15880951Y-12233381D02*
X15880951Y-12328619D01*
X15880951Y-12328619D02*
X15404761Y-12423857D01*
X17071428Y-12757191D02*
X17071428Y-12090524D01*
X17071428Y-11757191D02*
X17023809Y-11804810D01*
X17023809Y-11804810D02*
X17071428Y-11852429D01*
X17071428Y-11852429D02*
X17119047Y-11804810D01*
X17119047Y-11804810D02*
X17071428Y-11757191D01*
X17071428Y-11757191D02*
X17071428Y-11852429D01*
X17499999Y-12709572D02*
X17595237Y-12757191D01*
X17595237Y-12757191D02*
X17785713Y-12757191D01*
X17785713Y-12757191D02*
X17880951Y-12709572D01*
X17880951Y-12709572D02*
X17928570Y-12614333D01*
X17928570Y-12614333D02*
X17928570Y-12566714D01*
X17928570Y-12566714D02*
X17880951Y-12471476D01*
X17880951Y-12471476D02*
X17785713Y-12423857D01*
X17785713Y-12423857D02*
X17642856Y-12423857D01*
X17642856Y-12423857D02*
X17547618Y-12376238D01*
X17547618Y-12376238D02*
X17499999Y-12281000D01*
X17499999Y-12281000D02*
X17499999Y-12233381D01*
X17499999Y-12233381D02*
X17547618Y-12138143D01*
X17547618Y-12138143D02*
X17642856Y-12090524D01*
X17642856Y-12090524D02*
X17785713Y-12090524D01*
X17785713Y-12090524D02*
X17880951Y-12138143D01*
X18976190Y-12090524D02*
X19357142Y-12090524D01*
X19119047Y-11757191D02*
X19119047Y-12614333D01*
X19119047Y-12614333D02*
X19166666Y-12709572D01*
X19166666Y-12709572D02*
X19261904Y-12757191D01*
X19261904Y-12757191D02*
X19357142Y-12757191D01*
X19690476Y-12757191D02*
X19690476Y-11757191D01*
X20119047Y-12757191D02*
X20119047Y-12233381D01*
X20119047Y-12233381D02*
X20071428Y-12138143D01*
X20071428Y-12138143D02*
X19976190Y-12090524D01*
X19976190Y-12090524D02*
X19833333Y-12090524D01*
X19833333Y-12090524D02*
X19738095Y-12138143D01*
X19738095Y-12138143D02*
X19690476Y-12185762D01*
X20976190Y-12709572D02*
X20880952Y-12757191D01*
X20880952Y-12757191D02*
X20690476Y-12757191D01*
X20690476Y-12757191D02*
X20595238Y-12709572D01*
X20595238Y-12709572D02*
X20547619Y-12614333D01*
X20547619Y-12614333D02*
X20547619Y-12233381D01*
X20547619Y-12233381D02*
X20595238Y-12138143D01*
X20595238Y-12138143D02*
X20690476Y-12090524D01*
X20690476Y-12090524D02*
X20880952Y-12090524D01*
X20880952Y-12090524D02*
X20976190Y-12138143D01*
X20976190Y-12138143D02*
X21023809Y-12233381D01*
X21023809Y-12233381D02*
X21023809Y-12328619D01*
X21023809Y-12328619D02*
X20547619Y-12423857D01*
X22642857Y-12709572D02*
X22547619Y-12757191D01*
X22547619Y-12757191D02*
X22357143Y-12757191D01*
X22357143Y-12757191D02*
X22261905Y-12709572D01*
X22261905Y-12709572D02*
X22214286Y-12661952D01*
X22214286Y-12661952D02*
X22166667Y-12566714D01*
X22166667Y-12566714D02*
X22166667Y-12281000D01*
X22166667Y-12281000D02*
X22214286Y-12185762D01*
X22214286Y-12185762D02*
X22261905Y-12138143D01*
X22261905Y-12138143D02*
X22357143Y-12090524D01*
X22357143Y-12090524D02*
X22547619Y-12090524D01*
X22547619Y-12090524D02*
X22642857Y-12138143D01*
X23214286Y-12757191D02*
X23119048Y-12709572D01*
X23119048Y-12709572D02*
X23071429Y-12661952D01*
X23071429Y-12661952D02*
X23023810Y-12566714D01*
X23023810Y-12566714D02*
X23023810Y-12281000D01*
X23023810Y-12281000D02*
X23071429Y-12185762D01*
X23071429Y-12185762D02*
X23119048Y-12138143D01*
X23119048Y-12138143D02*
X23214286Y-12090524D01*
X23214286Y-12090524D02*
X23357143Y-12090524D01*
X23357143Y-12090524D02*
X23452381Y-12138143D01*
X23452381Y-12138143D02*
X23500000Y-12185762D01*
X23500000Y-12185762D02*
X23547619Y-12281000D01*
X23547619Y-12281000D02*
X23547619Y-12566714D01*
X23547619Y-12566714D02*
X23500000Y-12661952D01*
X23500000Y-12661952D02*
X23452381Y-12709572D01*
X23452381Y-12709572D02*
X23357143Y-12757191D01*
X23357143Y-12757191D02*
X23214286Y-12757191D01*
X23976191Y-12090524D02*
X23976191Y-12757191D01*
X23976191Y-12185762D02*
X24023810Y-12138143D01*
X24023810Y-12138143D02*
X24119048Y-12090524D01*
X24119048Y-12090524D02*
X24261905Y-12090524D01*
X24261905Y-12090524D02*
X24357143Y-12138143D01*
X24357143Y-12138143D02*
X24404762Y-12233381D01*
X24404762Y-12233381D02*
X24404762Y-12757191D01*
X24880953Y-12090524D02*
X24880953Y-12757191D01*
X24880953Y-12185762D02*
X24928572Y-12138143D01*
X24928572Y-12138143D02*
X25023810Y-12090524D01*
X25023810Y-12090524D02*
X25166667Y-12090524D01*
X25166667Y-12090524D02*
X25261905Y-12138143D01*
X25261905Y-12138143D02*
X25309524Y-12233381D01*
X25309524Y-12233381D02*
X25309524Y-12757191D01*
X26166667Y-12709572D02*
X26071429Y-12757191D01*
X26071429Y-12757191D02*
X25880953Y-12757191D01*
X25880953Y-12757191D02*
X25785715Y-12709572D01*
X25785715Y-12709572D02*
X25738096Y-12614333D01*
X25738096Y-12614333D02*
X25738096Y-12233381D01*
X25738096Y-12233381D02*
X25785715Y-12138143D01*
X25785715Y-12138143D02*
X25880953Y-12090524D01*
X25880953Y-12090524D02*
X26071429Y-12090524D01*
X26071429Y-12090524D02*
X26166667Y-12138143D01*
X26166667Y-12138143D02*
X26214286Y-12233381D01*
X26214286Y-12233381D02*
X26214286Y-12328619D01*
X26214286Y-12328619D02*
X25738096Y-12423857D01*
X27071429Y-12709572D02*
X26976191Y-12757191D01*
X26976191Y-12757191D02*
X26785715Y-12757191D01*
X26785715Y-12757191D02*
X26690477Y-12709572D01*
X26690477Y-12709572D02*
X26642858Y-12661952D01*
X26642858Y-12661952D02*
X26595239Y-12566714D01*
X26595239Y-12566714D02*
X26595239Y-12281000D01*
X26595239Y-12281000D02*
X26642858Y-12185762D01*
X26642858Y-12185762D02*
X26690477Y-12138143D01*
X26690477Y-12138143D02*
X26785715Y-12090524D01*
X26785715Y-12090524D02*
X26976191Y-12090524D01*
X26976191Y-12090524D02*
X27071429Y-12138143D01*
X27357144Y-12090524D02*
X27738096Y-12090524D01*
X27500001Y-11757191D02*
X27500001Y-12614333D01*
X27500001Y-12614333D02*
X27547620Y-12709572D01*
X27547620Y-12709572D02*
X27642858Y-12757191D01*
X27642858Y-12757191D02*
X27738096Y-12757191D01*
X28214287Y-12757191D02*
X28119049Y-12709572D01*
X28119049Y-12709572D02*
X28071430Y-12661952D01*
X28071430Y-12661952D02*
X28023811Y-12566714D01*
X28023811Y-12566714D02*
X28023811Y-12281000D01*
X28023811Y-12281000D02*
X28071430Y-12185762D01*
X28071430Y-12185762D02*
X28119049Y-12138143D01*
X28119049Y-12138143D02*
X28214287Y-12090524D01*
X28214287Y-12090524D02*
X28357144Y-12090524D01*
X28357144Y-12090524D02*
X28452382Y-12138143D01*
X28452382Y-12138143D02*
X28500001Y-12185762D01*
X28500001Y-12185762D02*
X28547620Y-12281000D01*
X28547620Y-12281000D02*
X28547620Y-12566714D01*
X28547620Y-12566714D02*
X28500001Y-12661952D01*
X28500001Y-12661952D02*
X28452382Y-12709572D01*
X28452382Y-12709572D02*
X28357144Y-12757191D01*
X28357144Y-12757191D02*
X28214287Y-12757191D01*
X28976192Y-12757191D02*
X28976192Y-12090524D01*
X28976192Y-12281000D02*
X29023811Y-12185762D01*
X29023811Y-12185762D02*
X29071430Y-12138143D01*
X29071430Y-12138143D02*
X29166668Y-12090524D01*
X29166668Y-12090524D02*
X29261906Y-12090524D01*
X29738097Y-12661952D02*
X29785716Y-12709572D01*
X29785716Y-12709572D02*
X29738097Y-12757191D01*
X29738097Y-12757191D02*
X29690478Y-12709572D01*
X29690478Y-12709572D02*
X29738097Y-12661952D01*
X29738097Y-12661952D02*
X29738097Y-12757191D01*
X29547621Y-11804810D02*
X29642859Y-11757191D01*
X29642859Y-11757191D02*
X29880954Y-11757191D01*
X29880954Y-11757191D02*
X29976192Y-11804810D01*
X29976192Y-11804810D02*
X30023811Y-11900048D01*
X30023811Y-11900048D02*
X30023811Y-11995286D01*
X30023811Y-11995286D02*
X29976192Y-12090524D01*
X29976192Y-12090524D02*
X29928573Y-12138143D01*
X29928573Y-12138143D02*
X29833335Y-12185762D01*
X29833335Y-12185762D02*
X29785716Y-12233381D01*
X29785716Y-12233381D02*
X29738097Y-12328619D01*
X29738097Y-12328619D02*
X29738097Y-12376238D01*
X21561905Y-20352219D02*
X21561905Y-19352219D01*
X21561905Y-19352219D02*
X21800000Y-19352219D01*
X21800000Y-19352219D02*
X21942857Y-19399838D01*
X21942857Y-19399838D02*
X22038095Y-19495076D01*
X22038095Y-19495076D02*
X22085714Y-19590314D01*
X22085714Y-19590314D02*
X22133333Y-19780790D01*
X22133333Y-19780790D02*
X22133333Y-19923647D01*
X22133333Y-19923647D02*
X22085714Y-20114123D01*
X22085714Y-20114123D02*
X22038095Y-20209361D01*
X22038095Y-20209361D02*
X21942857Y-20304600D01*
X21942857Y-20304600D02*
X21800000Y-20352219D01*
X21800000Y-20352219D02*
X21561905Y-20352219D01*
X23085714Y-20352219D02*
X22514286Y-20352219D01*
X22800000Y-20352219D02*
X22800000Y-19352219D01*
X22800000Y-19352219D02*
X22704762Y-19495076D01*
X22704762Y-19495076D02*
X22609524Y-19590314D01*
X22609524Y-19590314D02*
X22514286Y-19637933D01*
X24101905Y-20352219D02*
X24101905Y-19352219D01*
X24101905Y-19352219D02*
X24340000Y-19352219D01*
X24340000Y-19352219D02*
X24482857Y-19399838D01*
X24482857Y-19399838D02*
X24578095Y-19495076D01*
X24578095Y-19495076D02*
X24625714Y-19590314D01*
X24625714Y-19590314D02*
X24673333Y-19780790D01*
X24673333Y-19780790D02*
X24673333Y-19923647D01*
X24673333Y-19923647D02*
X24625714Y-20114123D01*
X24625714Y-20114123D02*
X24578095Y-20209361D01*
X24578095Y-20209361D02*
X24482857Y-20304600D01*
X24482857Y-20304600D02*
X24340000Y-20352219D01*
X24340000Y-20352219D02*
X24101905Y-20352219D01*
X25292381Y-19352219D02*
X25387619Y-19352219D01*
X25387619Y-19352219D02*
X25482857Y-19399838D01*
X25482857Y-19399838D02*
X25530476Y-19447457D01*
X25530476Y-19447457D02*
X25578095Y-19542695D01*
X25578095Y-19542695D02*
X25625714Y-19733171D01*
X25625714Y-19733171D02*
X25625714Y-19971266D01*
X25625714Y-19971266D02*
X25578095Y-20161742D01*
X25578095Y-20161742D02*
X25530476Y-20256980D01*
X25530476Y-20256980D02*
X25482857Y-20304600D01*
X25482857Y-20304600D02*
X25387619Y-20352219D01*
X25387619Y-20352219D02*
X25292381Y-20352219D01*
X25292381Y-20352219D02*
X25197143Y-20304600D01*
X25197143Y-20304600D02*
X25149524Y-20256980D01*
X25149524Y-20256980D02*
X25101905Y-20161742D01*
X25101905Y-20161742D02*
X25054286Y-19971266D01*
X25054286Y-19971266D02*
X25054286Y-19733171D01*
X25054286Y-19733171D02*
X25101905Y-19542695D01*
X25101905Y-19542695D02*
X25149524Y-19447457D01*
X25149524Y-19447457D02*
X25197143Y-19399838D01*
X25197143Y-19399838D02*
X25292381Y-19352219D01*
X28754136Y-46848409D02*
X29087469Y-46848409D01*
X29230326Y-47372219D02*
X28754136Y-47372219D01*
X28754136Y-47372219D02*
X28754136Y-46372219D01*
X28754136Y-46372219D02*
X29230326Y-46372219D01*
X29658898Y-47372219D02*
X29658898Y-46372219D01*
X29658898Y-46372219D02*
X30230326Y-47372219D01*
X30230326Y-47372219D02*
X30230326Y-46372219D01*
X28182708Y-49912219D02*
X28182708Y-48912219D01*
X28182708Y-48912219D02*
X28420803Y-48912219D01*
X28420803Y-48912219D02*
X28563660Y-48959838D01*
X28563660Y-48959838D02*
X28658898Y-49055076D01*
X28658898Y-49055076D02*
X28706517Y-49150314D01*
X28706517Y-49150314D02*
X28754136Y-49340790D01*
X28754136Y-49340790D02*
X28754136Y-49483647D01*
X28754136Y-49483647D02*
X28706517Y-49674123D01*
X28706517Y-49674123D02*
X28658898Y-49769361D01*
X28658898Y-49769361D02*
X28563660Y-49864600D01*
X28563660Y-49864600D02*
X28420803Y-49912219D01*
X28420803Y-49912219D02*
X28182708Y-49912219D01*
X29182708Y-49912219D02*
X29182708Y-48912219D01*
X29849374Y-48912219D02*
X30039850Y-48912219D01*
X30039850Y-48912219D02*
X30135088Y-48959838D01*
X30135088Y-48959838D02*
X30230326Y-49055076D01*
X30230326Y-49055076D02*
X30277945Y-49245552D01*
X30277945Y-49245552D02*
X30277945Y-49578885D01*
X30277945Y-49578885D02*
X30230326Y-49769361D01*
X30230326Y-49769361D02*
X30135088Y-49864600D01*
X30135088Y-49864600D02*
X30039850Y-49912219D01*
X30039850Y-49912219D02*
X29849374Y-49912219D01*
X29849374Y-49912219D02*
X29754136Y-49864600D01*
X29754136Y-49864600D02*
X29658898Y-49769361D01*
X29658898Y-49769361D02*
X29611279Y-49578885D01*
X29611279Y-49578885D02*
X29611279Y-49245552D01*
X29611279Y-49245552D02*
X29658898Y-49055076D01*
X29658898Y-49055076D02*
X29754136Y-48959838D01*
X29754136Y-48959838D02*
X29849374Y-48912219D01*
X28468421Y-52356980D02*
X28420802Y-52404600D01*
X28420802Y-52404600D02*
X28277945Y-52452219D01*
X28277945Y-52452219D02*
X28182707Y-52452219D01*
X28182707Y-52452219D02*
X28039850Y-52404600D01*
X28039850Y-52404600D02*
X27944612Y-52309361D01*
X27944612Y-52309361D02*
X27896993Y-52214123D01*
X27896993Y-52214123D02*
X27849374Y-52023647D01*
X27849374Y-52023647D02*
X27849374Y-51880790D01*
X27849374Y-51880790D02*
X27896993Y-51690314D01*
X27896993Y-51690314D02*
X27944612Y-51595076D01*
X27944612Y-51595076D02*
X28039850Y-51499838D01*
X28039850Y-51499838D02*
X28182707Y-51452219D01*
X28182707Y-51452219D02*
X28277945Y-51452219D01*
X28277945Y-51452219D02*
X28420802Y-51499838D01*
X28420802Y-51499838D02*
X28468421Y-51547457D01*
X29373183Y-52452219D02*
X28896993Y-52452219D01*
X28896993Y-52452219D02*
X28896993Y-51452219D01*
X29706517Y-52452219D02*
X29706517Y-51452219D01*
X30277945Y-52452219D02*
X29849374Y-51880790D01*
X30277945Y-51452219D02*
X29706517Y-52023647D01*
X29373183Y-53952219D02*
X28896993Y-53952219D01*
X28896993Y-53952219D02*
X28849374Y-54428409D01*
X28849374Y-54428409D02*
X28896993Y-54380790D01*
X28896993Y-54380790D02*
X28992231Y-54333171D01*
X28992231Y-54333171D02*
X29230326Y-54333171D01*
X29230326Y-54333171D02*
X29325564Y-54380790D01*
X29325564Y-54380790D02*
X29373183Y-54428409D01*
X29373183Y-54428409D02*
X29420802Y-54523647D01*
X29420802Y-54523647D02*
X29420802Y-54761742D01*
X29420802Y-54761742D02*
X29373183Y-54856980D01*
X29373183Y-54856980D02*
X29325564Y-54904600D01*
X29325564Y-54904600D02*
X29230326Y-54952219D01*
X29230326Y-54952219D02*
X28992231Y-54952219D01*
X28992231Y-54952219D02*
X28896993Y-54904600D01*
X28896993Y-54904600D02*
X28849374Y-54856980D01*
X29706517Y-53952219D02*
X30039850Y-54952219D01*
X30039850Y-54952219D02*
X30373183Y-53952219D01*
X7729569Y-20576650D02*
X7157149Y-20475634D01*
X7325508Y-20980711D02*
X6618401Y-20273604D01*
X6618401Y-20273604D02*
X6887775Y-20004230D01*
X6887775Y-20004230D02*
X6988790Y-19970558D01*
X6988790Y-19970558D02*
X7056134Y-19970558D01*
X7056134Y-19970558D02*
X7157149Y-20004230D01*
X7157149Y-20004230D02*
X7258164Y-20105245D01*
X7258164Y-20105245D02*
X7291836Y-20206260D01*
X7291836Y-20206260D02*
X7291836Y-20273604D01*
X7291836Y-20273604D02*
X7258164Y-20374619D01*
X7258164Y-20374619D02*
X6988790Y-20643993D01*
X8403004Y-19903215D02*
X7998943Y-20307276D01*
X8200973Y-20105245D02*
X7493866Y-19398138D01*
X7493866Y-19398138D02*
X7527538Y-19566497D01*
X7527538Y-19566497D02*
X7527538Y-19701184D01*
X7527538Y-19701184D02*
X7493866Y-19802199D01*
X7190821Y-22914619D02*
X7325508Y-22847276D01*
X7325508Y-22847276D02*
X7392851Y-22847276D01*
X7392851Y-22847276D02*
X7493866Y-22880947D01*
X7493866Y-22880947D02*
X7594882Y-22981963D01*
X7594882Y-22981963D02*
X7628553Y-23082978D01*
X7628553Y-23082978D02*
X7628553Y-23150321D01*
X7628553Y-23150321D02*
X7594882Y-23251337D01*
X7594882Y-23251337D02*
X7325508Y-23520711D01*
X7325508Y-23520711D02*
X6618401Y-22813604D01*
X6618401Y-22813604D02*
X6854103Y-22577902D01*
X6854103Y-22577902D02*
X6955118Y-22544230D01*
X6955118Y-22544230D02*
X7022462Y-22544230D01*
X7022462Y-22544230D02*
X7123477Y-22577902D01*
X7123477Y-22577902D02*
X7190821Y-22645245D01*
X7190821Y-22645245D02*
X7224492Y-22746260D01*
X7224492Y-22746260D02*
X7224492Y-22813604D01*
X7224492Y-22813604D02*
X7190821Y-22914619D01*
X7190821Y-22914619D02*
X6955118Y-23150321D01*
X8403004Y-22443215D02*
X7998943Y-22847276D01*
X8200973Y-22645245D02*
X7493866Y-21938138D01*
X7493866Y-21938138D02*
X7527538Y-22106497D01*
X7527538Y-22106497D02*
X7527538Y-22241184D01*
X7527538Y-22241184D02*
X7493866Y-22342199D01*
X7729569Y-25656650D02*
X7157149Y-25555634D01*
X7325508Y-26060711D02*
X6618401Y-25353604D01*
X6618401Y-25353604D02*
X6887775Y-25084230D01*
X6887775Y-25084230D02*
X6988790Y-25050558D01*
X6988790Y-25050558D02*
X7056134Y-25050558D01*
X7056134Y-25050558D02*
X7157149Y-25084230D01*
X7157149Y-25084230D02*
X7258164Y-25185245D01*
X7258164Y-25185245D02*
X7291836Y-25286260D01*
X7291836Y-25286260D02*
X7291836Y-25353604D01*
X7291836Y-25353604D02*
X7258164Y-25454619D01*
X7258164Y-25454619D02*
X6988790Y-25723993D01*
X7359179Y-24747512D02*
X7359179Y-24680169D01*
X7359179Y-24680169D02*
X7392851Y-24579154D01*
X7392851Y-24579154D02*
X7561210Y-24410795D01*
X7561210Y-24410795D02*
X7662225Y-24377123D01*
X7662225Y-24377123D02*
X7729569Y-24377123D01*
X7729569Y-24377123D02*
X7830584Y-24410795D01*
X7830584Y-24410795D02*
X7897927Y-24478138D01*
X7897927Y-24478138D02*
X7965271Y-24612825D01*
X7965271Y-24612825D02*
X7965271Y-25420947D01*
X7965271Y-25420947D02*
X8403004Y-24983215D01*
X7190821Y-27994619D02*
X7325508Y-27927276D01*
X7325508Y-27927276D02*
X7392851Y-27927276D01*
X7392851Y-27927276D02*
X7493866Y-27960947D01*
X7493866Y-27960947D02*
X7594882Y-28061963D01*
X7594882Y-28061963D02*
X7628553Y-28162978D01*
X7628553Y-28162978D02*
X7628553Y-28230321D01*
X7628553Y-28230321D02*
X7594882Y-28331337D01*
X7594882Y-28331337D02*
X7325508Y-28600711D01*
X7325508Y-28600711D02*
X6618401Y-27893604D01*
X6618401Y-27893604D02*
X6854103Y-27657902D01*
X6854103Y-27657902D02*
X6955118Y-27624230D01*
X6955118Y-27624230D02*
X7022462Y-27624230D01*
X7022462Y-27624230D02*
X7123477Y-27657902D01*
X7123477Y-27657902D02*
X7190821Y-27725245D01*
X7190821Y-27725245D02*
X7224492Y-27826260D01*
X7224492Y-27826260D02*
X7224492Y-27893604D01*
X7224492Y-27893604D02*
X7190821Y-27994619D01*
X7190821Y-27994619D02*
X6955118Y-28230321D01*
X7359179Y-27287512D02*
X7359179Y-27220169D01*
X7359179Y-27220169D02*
X7392851Y-27119154D01*
X7392851Y-27119154D02*
X7561210Y-26950795D01*
X7561210Y-26950795D02*
X7662225Y-26917123D01*
X7662225Y-26917123D02*
X7729569Y-26917123D01*
X7729569Y-26917123D02*
X7830584Y-26950795D01*
X7830584Y-26950795D02*
X7897927Y-27018138D01*
X7897927Y-27018138D02*
X7965271Y-27152825D01*
X7965271Y-27152825D02*
X7965271Y-27960947D01*
X7965271Y-27960947D02*
X8403004Y-27523215D01*
X7089805Y-30718352D02*
X7426523Y-30381634D01*
X7224492Y-30987726D02*
X6753088Y-30044917D01*
X6753088Y-30044917D02*
X7695897Y-30516321D01*
X7662225Y-32955306D02*
X7662225Y-33022650D01*
X7662225Y-33022650D02*
X7594882Y-33157337D01*
X7594882Y-33157337D02*
X7527538Y-33224680D01*
X7527538Y-33224680D02*
X7392851Y-33292024D01*
X7392851Y-33292024D02*
X7258164Y-33292024D01*
X7258164Y-33292024D02*
X7157149Y-33258352D01*
X7157149Y-33258352D02*
X6988790Y-33157337D01*
X6988790Y-33157337D02*
X6887775Y-33056321D01*
X6887775Y-33056321D02*
X6786760Y-32887963D01*
X6786760Y-32887963D02*
X6753088Y-32786947D01*
X6753088Y-32786947D02*
X6753088Y-32652260D01*
X6753088Y-32652260D02*
X6820431Y-32517573D01*
X6820431Y-32517573D02*
X6887775Y-32450230D01*
X6887775Y-32450230D02*
X7022462Y-32382886D01*
X7022462Y-32382886D02*
X7089805Y-32382886D01*
X7662225Y-35749306D02*
X7662225Y-35816650D01*
X7662225Y-35816650D02*
X7594882Y-35951337D01*
X7594882Y-35951337D02*
X7527538Y-36018680D01*
X7527538Y-36018680D02*
X7392851Y-36086024D01*
X7392851Y-36086024D02*
X7258164Y-36086024D01*
X7258164Y-36086024D02*
X7157149Y-36052352D01*
X7157149Y-36052352D02*
X6988790Y-35951337D01*
X6988790Y-35951337D02*
X6887775Y-35850321D01*
X6887775Y-35850321D02*
X6786760Y-35681963D01*
X6786760Y-35681963D02*
X6753088Y-35580947D01*
X6753088Y-35580947D02*
X6753088Y-35446260D01*
X6753088Y-35446260D02*
X6820431Y-35311573D01*
X6820431Y-35311573D02*
X6887775Y-35244230D01*
X6887775Y-35244230D02*
X7022462Y-35176886D01*
X7022462Y-35176886D02*
X7089805Y-35176886D01*
X8369332Y-35176886D02*
X8032614Y-35513604D01*
X8032614Y-35513604D02*
X7325508Y-34806497D01*
X8605034Y-34941184D02*
X7897928Y-34234077D01*
X9009095Y-34537123D02*
X8301989Y-34436108D01*
X8301989Y-33830016D02*
X8301989Y-34638138D01*
X6753088Y-37918917D02*
X6887775Y-37784230D01*
X6887775Y-37784230D02*
X6988790Y-37750558D01*
X6988790Y-37750558D02*
X7123477Y-37750558D01*
X7123477Y-37750558D02*
X7291836Y-37851573D01*
X7291836Y-37851573D02*
X7527538Y-38087276D01*
X7527538Y-38087276D02*
X7628553Y-38255634D01*
X7628553Y-38255634D02*
X7628553Y-38390321D01*
X7628553Y-38390321D02*
X7594882Y-38491337D01*
X7594882Y-38491337D02*
X7460195Y-38626024D01*
X7460195Y-38626024D02*
X7359179Y-38659695D01*
X7359179Y-38659695D02*
X7224492Y-38659695D01*
X7224492Y-38659695D02*
X7056134Y-38558680D01*
X7056134Y-38558680D02*
X6820431Y-38322978D01*
X6820431Y-38322978D02*
X6719416Y-38154619D01*
X6719416Y-38154619D02*
X6719416Y-38019932D01*
X6719416Y-38019932D02*
X6753088Y-37918917D01*
X7695897Y-37649543D02*
X7931599Y-37413841D01*
X8403004Y-37683215D02*
X8066286Y-38019932D01*
X8066286Y-38019932D02*
X7359179Y-37312825D01*
X7359179Y-37312825D02*
X7695897Y-36976108D01*
X9562462Y-19936886D02*
X9461447Y-19970558D01*
X9461447Y-19970558D02*
X9360431Y-20071573D01*
X9360431Y-20071573D02*
X9293088Y-20206260D01*
X9293088Y-20206260D02*
X9293088Y-20340947D01*
X9293088Y-20340947D02*
X9326760Y-20441963D01*
X9326760Y-20441963D02*
X9427775Y-20610321D01*
X9427775Y-20610321D02*
X9528790Y-20711337D01*
X9528790Y-20711337D02*
X9697149Y-20812352D01*
X9697149Y-20812352D02*
X9798164Y-20846024D01*
X9798164Y-20846024D02*
X9932851Y-20846024D01*
X9932851Y-20846024D02*
X10067538Y-20778680D01*
X10067538Y-20778680D02*
X10134882Y-20711337D01*
X10134882Y-20711337D02*
X10202225Y-20576650D01*
X10202225Y-20576650D02*
X10202225Y-20509306D01*
X10202225Y-20509306D02*
X9966523Y-20273604D01*
X9966523Y-20273604D02*
X9831836Y-20408291D01*
X10943004Y-19903215D02*
X10538943Y-20307276D01*
X10740973Y-20105245D02*
X10033866Y-19398138D01*
X10033866Y-19398138D02*
X10067538Y-19566497D01*
X10067538Y-19566497D02*
X10067538Y-19701184D01*
X10067538Y-19701184D02*
X10033866Y-19802199D01*
X9562462Y-22603886D02*
X9461447Y-22637558D01*
X9461447Y-22637558D02*
X9360431Y-22738573D01*
X9360431Y-22738573D02*
X9293088Y-22873260D01*
X9293088Y-22873260D02*
X9293088Y-23007947D01*
X9293088Y-23007947D02*
X9326760Y-23108963D01*
X9326760Y-23108963D02*
X9427775Y-23277321D01*
X9427775Y-23277321D02*
X9528790Y-23378337D01*
X9528790Y-23378337D02*
X9697149Y-23479352D01*
X9697149Y-23479352D02*
X9798164Y-23513024D01*
X9798164Y-23513024D02*
X9932851Y-23513024D01*
X9932851Y-23513024D02*
X10067538Y-23445680D01*
X10067538Y-23445680D02*
X10134882Y-23378337D01*
X10134882Y-23378337D02*
X10202225Y-23243650D01*
X10202225Y-23243650D02*
X10202225Y-23176306D01*
X10202225Y-23176306D02*
X9966523Y-22940604D01*
X9966523Y-22940604D02*
X9831836Y-23075291D01*
X10572614Y-22940604D02*
X9865508Y-22233497D01*
X9865508Y-22233497D02*
X10976675Y-22536543D01*
X10976675Y-22536543D02*
X10269569Y-21829436D01*
X11313393Y-22199825D02*
X10606286Y-21492719D01*
X10606286Y-21492719D02*
X10774645Y-21324360D01*
X10774645Y-21324360D02*
X10909332Y-21257016D01*
X10909332Y-21257016D02*
X11044019Y-21257016D01*
X11044019Y-21257016D02*
X11145034Y-21290688D01*
X11145034Y-21290688D02*
X11313393Y-21391703D01*
X11313393Y-21391703D02*
X11414408Y-21492719D01*
X11414408Y-21492719D02*
X11515423Y-21661077D01*
X11515423Y-21661077D02*
X11549095Y-21762093D01*
X11549095Y-21762093D02*
X11549095Y-21896780D01*
X11549095Y-21896780D02*
X11481752Y-22031467D01*
X11481752Y-22031467D02*
X11313393Y-22199825D01*
X9562462Y-25016886D02*
X9461447Y-25050558D01*
X9461447Y-25050558D02*
X9360431Y-25151573D01*
X9360431Y-25151573D02*
X9293088Y-25286260D01*
X9293088Y-25286260D02*
X9293088Y-25420947D01*
X9293088Y-25420947D02*
X9326760Y-25521963D01*
X9326760Y-25521963D02*
X9427775Y-25690321D01*
X9427775Y-25690321D02*
X9528790Y-25791337D01*
X9528790Y-25791337D02*
X9697149Y-25892352D01*
X9697149Y-25892352D02*
X9798164Y-25926024D01*
X9798164Y-25926024D02*
X9932851Y-25926024D01*
X9932851Y-25926024D02*
X10067538Y-25858680D01*
X10067538Y-25858680D02*
X10134882Y-25791337D01*
X10134882Y-25791337D02*
X10202225Y-25656650D01*
X10202225Y-25656650D02*
X10202225Y-25589306D01*
X10202225Y-25589306D02*
X9966523Y-25353604D01*
X9966523Y-25353604D02*
X9831836Y-25488291D01*
X9899179Y-24747512D02*
X9899179Y-24680169D01*
X9899179Y-24680169D02*
X9932851Y-24579154D01*
X9932851Y-24579154D02*
X10101210Y-24410795D01*
X10101210Y-24410795D02*
X10202225Y-24377123D01*
X10202225Y-24377123D02*
X10269569Y-24377123D01*
X10269569Y-24377123D02*
X10370584Y-24410795D01*
X10370584Y-24410795D02*
X10437927Y-24478138D01*
X10437927Y-24478138D02*
X10505271Y-24612825D01*
X10505271Y-24612825D02*
X10505271Y-25420947D01*
X10505271Y-25420947D02*
X10943004Y-24983215D01*
X9495118Y-27976321D02*
X9730821Y-27740619D01*
X10202225Y-28009993D02*
X9865508Y-28346711D01*
X9865508Y-28346711D02*
X9158401Y-27639604D01*
X9158401Y-27639604D02*
X9495118Y-27302886D01*
X9730821Y-30280619D02*
X9865508Y-30213276D01*
X9865508Y-30213276D02*
X9932851Y-30213276D01*
X9932851Y-30213276D02*
X10033866Y-30246947D01*
X10033866Y-30246947D02*
X10134882Y-30347963D01*
X10134882Y-30347963D02*
X10168553Y-30448978D01*
X10168553Y-30448978D02*
X10168553Y-30516321D01*
X10168553Y-30516321D02*
X10134882Y-30617337D01*
X10134882Y-30617337D02*
X9865508Y-30886711D01*
X9865508Y-30886711D02*
X9158401Y-30179604D01*
X9158401Y-30179604D02*
X9394103Y-29943902D01*
X9394103Y-29943902D02*
X9495118Y-29910230D01*
X9495118Y-29910230D02*
X9562462Y-29910230D01*
X9562462Y-29910230D02*
X9663477Y-29943902D01*
X9663477Y-29943902D02*
X9730821Y-30011245D01*
X9730821Y-30011245D02*
X9764492Y-30112260D01*
X9764492Y-30112260D02*
X9764492Y-30179604D01*
X9764492Y-30179604D02*
X9730821Y-30280619D01*
X9730821Y-30280619D02*
X9495118Y-30516321D01*
X10202225Y-35883993D02*
X9865508Y-36220711D01*
X9865508Y-36220711D02*
X9158401Y-35513604D01*
X10202225Y-35479932D02*
X10538943Y-35143215D01*
X10336912Y-35749306D02*
X9865508Y-34806497D01*
X9865508Y-34806497D02*
X10808317Y-35277902D01*
X10235897Y-34436108D02*
X10639958Y-34032047D01*
X11145034Y-34941184D02*
X10437928Y-34234077D01*
X9562462Y-37716886D02*
X9461447Y-37750558D01*
X9461447Y-37750558D02*
X9360431Y-37851573D01*
X9360431Y-37851573D02*
X9293088Y-37986260D01*
X9293088Y-37986260D02*
X9293088Y-38120947D01*
X9293088Y-38120947D02*
X9326760Y-38221963D01*
X9326760Y-38221963D02*
X9427775Y-38390321D01*
X9427775Y-38390321D02*
X9528790Y-38491337D01*
X9528790Y-38491337D02*
X9697149Y-38592352D01*
X9697149Y-38592352D02*
X9798164Y-38626024D01*
X9798164Y-38626024D02*
X9932851Y-38626024D01*
X9932851Y-38626024D02*
X10067538Y-38558680D01*
X10067538Y-38558680D02*
X10134882Y-38491337D01*
X10134882Y-38491337D02*
X10202225Y-38356650D01*
X10202225Y-38356650D02*
X10202225Y-38289306D01*
X10202225Y-38289306D02*
X9966523Y-38053604D01*
X9966523Y-38053604D02*
X9831836Y-38188291D01*
X10572614Y-38053604D02*
X9865508Y-37346497D01*
X9865508Y-37346497D02*
X10976675Y-37649543D01*
X10976675Y-37649543D02*
X10269569Y-36942436D01*
X11313393Y-37312825D02*
X10606286Y-36605719D01*
X10606286Y-36605719D02*
X10774645Y-36437360D01*
X10774645Y-36437360D02*
X10909332Y-36370016D01*
X10909332Y-36370016D02*
X11044019Y-36370016D01*
X11044019Y-36370016D02*
X11145034Y-36403688D01*
X11145034Y-36403688D02*
X11313393Y-36504703D01*
X11313393Y-36504703D02*
X11414408Y-36605719D01*
X11414408Y-36605719D02*
X11515423Y-36774077D01*
X11515423Y-36774077D02*
X11549095Y-36875093D01*
X11549095Y-36875093D02*
X11549095Y-37009780D01*
X11549095Y-37009780D02*
X11481752Y-37144467D01*
X11481752Y-37144467D02*
X11313393Y-37312825D01*
X9992508Y-33426711D02*
X9285401Y-32719604D01*
X9285401Y-32719604D02*
X9453760Y-32551245D01*
X9453760Y-32551245D02*
X9588447Y-32483902D01*
X9588447Y-32483902D02*
X9723134Y-32483902D01*
X9723134Y-32483902D02*
X9824149Y-32517573D01*
X9824149Y-32517573D02*
X9992508Y-32618589D01*
X9992508Y-32618589D02*
X10093523Y-32719604D01*
X10093523Y-32719604D02*
X10194538Y-32887963D01*
X10194538Y-32887963D02*
X10228210Y-32988978D01*
X10228210Y-32988978D02*
X10228210Y-33123665D01*
X10228210Y-33123665D02*
X10160866Y-33258352D01*
X10160866Y-33258352D02*
X9992508Y-33426711D01*
X31552219Y-40430326D02*
X30552219Y-40430326D01*
X30552219Y-40430326D02*
X30552219Y-40049374D01*
X30552219Y-40049374D02*
X30599838Y-39954136D01*
X30599838Y-39954136D02*
X30647457Y-39906517D01*
X30647457Y-39906517D02*
X30742695Y-39858898D01*
X30742695Y-39858898D02*
X30885552Y-39858898D01*
X30885552Y-39858898D02*
X30980790Y-39906517D01*
X30980790Y-39906517D02*
X31028409Y-39954136D01*
X31028409Y-39954136D02*
X31076028Y-40049374D01*
X31076028Y-40049374D02*
X31076028Y-40430326D01*
X30552219Y-39525564D02*
X31552219Y-39287469D01*
X31552219Y-39287469D02*
X30837933Y-39096993D01*
X30837933Y-39096993D02*
X31552219Y-38906517D01*
X31552219Y-38906517D02*
X30552219Y-38668422D01*
X31552219Y-37716041D02*
X31076028Y-38049374D01*
X31552219Y-38287469D02*
X30552219Y-38287469D01*
X30552219Y-38287469D02*
X30552219Y-37906517D01*
X30552219Y-37906517D02*
X30599838Y-37811279D01*
X30599838Y-37811279D02*
X30647457Y-37763660D01*
X30647457Y-37763660D02*
X30742695Y-37716041D01*
X30742695Y-37716041D02*
X30885552Y-37716041D01*
X30885552Y-37716041D02*
X30980790Y-37763660D01*
X30980790Y-37763660D02*
X31028409Y-37811279D01*
X31028409Y-37811279D02*
X31076028Y-37906517D01*
X31076028Y-37906517D02*
X31076028Y-38287469D01*
X33652219Y-40430326D02*
X32652219Y-40430326D01*
X32652219Y-40430326D02*
X32652219Y-40192231D01*
X32652219Y-40192231D02*
X32699838Y-40049374D01*
X32699838Y-40049374D02*
X32795076Y-39954136D01*
X32795076Y-39954136D02*
X32890314Y-39906517D01*
X32890314Y-39906517D02*
X33080790Y-39858898D01*
X33080790Y-39858898D02*
X33223647Y-39858898D01*
X33223647Y-39858898D02*
X33414123Y-39906517D01*
X33414123Y-39906517D02*
X33509361Y-39954136D01*
X33509361Y-39954136D02*
X33604600Y-40049374D01*
X33604600Y-40049374D02*
X33652219Y-40192231D01*
X33652219Y-40192231D02*
X33652219Y-40430326D01*
X33128409Y-39096993D02*
X33176028Y-38954136D01*
X33176028Y-38954136D02*
X33223647Y-38906517D01*
X33223647Y-38906517D02*
X33318885Y-38858898D01*
X33318885Y-38858898D02*
X33461742Y-38858898D01*
X33461742Y-38858898D02*
X33556980Y-38906517D01*
X33556980Y-38906517D02*
X33604600Y-38954136D01*
X33604600Y-38954136D02*
X33652219Y-39049374D01*
X33652219Y-39049374D02*
X33652219Y-39430326D01*
X33652219Y-39430326D02*
X32652219Y-39430326D01*
X32652219Y-39430326D02*
X32652219Y-39096993D01*
X32652219Y-39096993D02*
X32699838Y-39001755D01*
X32699838Y-39001755D02*
X32747457Y-38954136D01*
X32747457Y-38954136D02*
X32842695Y-38906517D01*
X32842695Y-38906517D02*
X32937933Y-38906517D01*
X32937933Y-38906517D02*
X33033171Y-38954136D01*
X33033171Y-38954136D02*
X33080790Y-39001755D01*
X33080790Y-39001755D02*
X33128409Y-39096993D01*
X33128409Y-39096993D02*
X33128409Y-39430326D01*
X32699838Y-37906517D02*
X32652219Y-38001755D01*
X32652219Y-38001755D02*
X32652219Y-38144612D01*
X32652219Y-38144612D02*
X32699838Y-38287469D01*
X32699838Y-38287469D02*
X32795076Y-38382707D01*
X32795076Y-38382707D02*
X32890314Y-38430326D01*
X32890314Y-38430326D02*
X33080790Y-38477945D01*
X33080790Y-38477945D02*
X33223647Y-38477945D01*
X33223647Y-38477945D02*
X33414123Y-38430326D01*
X33414123Y-38430326D02*
X33509361Y-38382707D01*
X33509361Y-38382707D02*
X33604600Y-38287469D01*
X33604600Y-38287469D02*
X33652219Y-38144612D01*
X33652219Y-38144612D02*
X33652219Y-38049374D01*
X33652219Y-38049374D02*
X33604600Y-37906517D01*
X33604600Y-37906517D02*
X33556980Y-37858898D01*
X33556980Y-37858898D02*
X33223647Y-37858898D01*
X33223647Y-37858898D02*
X33223647Y-38049374D01*
X3199838Y-43261904D02*
X3152219Y-43357142D01*
X3152219Y-43357142D02*
X3152219Y-43499999D01*
X3152219Y-43499999D02*
X3199838Y-43642856D01*
X3199838Y-43642856D02*
X3295076Y-43738094D01*
X3295076Y-43738094D02*
X3390314Y-43785713D01*
X3390314Y-43785713D02*
X3580790Y-43833332D01*
X3580790Y-43833332D02*
X3723647Y-43833332D01*
X3723647Y-43833332D02*
X3914123Y-43785713D01*
X3914123Y-43785713D02*
X4009361Y-43738094D01*
X4009361Y-43738094D02*
X4104600Y-43642856D01*
X4104600Y-43642856D02*
X4152219Y-43499999D01*
X4152219Y-43499999D02*
X4152219Y-43404761D01*
X4152219Y-43404761D02*
X4104600Y-43261904D01*
X4104600Y-43261904D02*
X4056980Y-43214285D01*
X4056980Y-43214285D02*
X3723647Y-43214285D01*
X3723647Y-43214285D02*
X3723647Y-43404761D01*
X4152219Y-42785713D02*
X3152219Y-42785713D01*
X3152219Y-42785713D02*
X4152219Y-42214285D01*
X4152219Y-42214285D02*
X3152219Y-42214285D01*
X4152219Y-41738094D02*
X3152219Y-41738094D01*
X3152219Y-41738094D02*
X3152219Y-41499999D01*
X3152219Y-41499999D02*
X3199838Y-41357142D01*
X3199838Y-41357142D02*
X3295076Y-41261904D01*
X3295076Y-41261904D02*
X3390314Y-41214285D01*
X3390314Y-41214285D02*
X3580790Y-41166666D01*
X3580790Y-41166666D02*
X3723647Y-41166666D01*
X3723647Y-41166666D02*
X3914123Y-41214285D01*
X3914123Y-41214285D02*
X4009361Y-41261904D01*
X4009361Y-41261904D02*
X4104600Y-41357142D01*
X4104600Y-41357142D02*
X4152219Y-41499999D01*
X4152219Y-41499999D02*
X4152219Y-41738094D01*
X60898094Y-45647780D02*
X60898094Y-46647780D01*
X60898094Y-46647780D02*
X60659999Y-46647780D01*
X60659999Y-46647780D02*
X60517142Y-46600161D01*
X60517142Y-46600161D02*
X60421904Y-46504923D01*
X60421904Y-46504923D02*
X60374285Y-46409685D01*
X60374285Y-46409685D02*
X60326666Y-46219209D01*
X60326666Y-46219209D02*
X60326666Y-46076352D01*
X60326666Y-46076352D02*
X60374285Y-45885876D01*
X60374285Y-45885876D02*
X60421904Y-45790638D01*
X60421904Y-45790638D02*
X60517142Y-45695400D01*
X60517142Y-45695400D02*
X60659999Y-45647780D01*
X60659999Y-45647780D02*
X60898094Y-45647780D01*
X59707618Y-46647780D02*
X59612380Y-46647780D01*
X59612380Y-46647780D02*
X59517142Y-46600161D01*
X59517142Y-46600161D02*
X59469523Y-46552542D01*
X59469523Y-46552542D02*
X59421904Y-46457304D01*
X59421904Y-46457304D02*
X59374285Y-46266828D01*
X59374285Y-46266828D02*
X59374285Y-46028733D01*
X59374285Y-46028733D02*
X59421904Y-45838257D01*
X59421904Y-45838257D02*
X59469523Y-45743019D01*
X59469523Y-45743019D02*
X59517142Y-45695400D01*
X59517142Y-45695400D02*
X59612380Y-45647780D01*
X59612380Y-45647780D02*
X59707618Y-45647780D01*
X59707618Y-45647780D02*
X59802856Y-45695400D01*
X59802856Y-45695400D02*
X59850475Y-45743019D01*
X59850475Y-45743019D02*
X59898094Y-45838257D01*
X59898094Y-45838257D02*
X59945713Y-46028733D01*
X59945713Y-46028733D02*
X59945713Y-46266828D01*
X59945713Y-46266828D02*
X59898094Y-46457304D01*
X59898094Y-46457304D02*
X59850475Y-46552542D01*
X59850475Y-46552542D02*
X59802856Y-46600161D01*
X59802856Y-46600161D02*
X59707618Y-46647780D01*
X63438094Y-45647780D02*
X63438094Y-46647780D01*
X63438094Y-46647780D02*
X63199999Y-46647780D01*
X63199999Y-46647780D02*
X63057142Y-46600161D01*
X63057142Y-46600161D02*
X62961904Y-46504923D01*
X62961904Y-46504923D02*
X62914285Y-46409685D01*
X62914285Y-46409685D02*
X62866666Y-46219209D01*
X62866666Y-46219209D02*
X62866666Y-46076352D01*
X62866666Y-46076352D02*
X62914285Y-45885876D01*
X62914285Y-45885876D02*
X62961904Y-45790638D01*
X62961904Y-45790638D02*
X63057142Y-45695400D01*
X63057142Y-45695400D02*
X63199999Y-45647780D01*
X63199999Y-45647780D02*
X63438094Y-45647780D01*
X61914285Y-45647780D02*
X62485713Y-45647780D01*
X62199999Y-45647780D02*
X62199999Y-46647780D01*
X62199999Y-46647780D02*
X62295237Y-46504923D01*
X62295237Y-46504923D02*
X62390475Y-46409685D01*
X62390475Y-46409685D02*
X62485713Y-46362066D01*
X70047619Y-55852752D02*
X70047619Y-55043229D01*
X70047619Y-55043229D02*
X70000000Y-54947991D01*
X70000000Y-54947991D02*
X69952381Y-54900372D01*
X69952381Y-54900372D02*
X69857143Y-54852752D01*
X69857143Y-54852752D02*
X69666667Y-54852752D01*
X69666667Y-54852752D02*
X69571429Y-54900372D01*
X69571429Y-54900372D02*
X69523810Y-54947991D01*
X69523810Y-54947991D02*
X69476191Y-55043229D01*
X69476191Y-55043229D02*
X69476191Y-55852752D01*
X69000000Y-54852752D02*
X69000000Y-55852752D01*
X68571429Y-54852752D02*
X68571429Y-55376562D01*
X68571429Y-55376562D02*
X68619048Y-55471800D01*
X68619048Y-55471800D02*
X68714286Y-55519419D01*
X68714286Y-55519419D02*
X68857143Y-55519419D01*
X68857143Y-55519419D02*
X68952381Y-55471800D01*
X68952381Y-55471800D02*
X69000000Y-55424181D01*
X68095238Y-54852752D02*
X68095238Y-55852752D01*
X67666667Y-54852752D02*
X67666667Y-55376562D01*
X67666667Y-55376562D02*
X67714286Y-55471800D01*
X67714286Y-55471800D02*
X67809524Y-55519419D01*
X67809524Y-55519419D02*
X67952381Y-55519419D01*
X67952381Y-55519419D02*
X68047619Y-55471800D01*
X68047619Y-55471800D02*
X68095238Y-55424181D01*
X67190476Y-54852752D02*
X67190476Y-55852752D01*
X66761905Y-54852752D02*
X66761905Y-55376562D01*
X66761905Y-55376562D02*
X66809524Y-55471800D01*
X66809524Y-55471800D02*
X66904762Y-55519419D01*
X66904762Y-55519419D02*
X67047619Y-55519419D01*
X67047619Y-55519419D02*
X67142857Y-55471800D01*
X67142857Y-55471800D02*
X67190476Y-55424181D01*
X66238095Y-54900372D02*
X66238095Y-54852752D01*
X66238095Y-54852752D02*
X66285714Y-54757514D01*
X66285714Y-54757514D02*
X66333333Y-54709895D01*
X65047619Y-54852752D02*
X65047619Y-55852752D01*
X64619048Y-54852752D02*
X64619048Y-55376562D01*
X64619048Y-55376562D02*
X64666667Y-55471800D01*
X64666667Y-55471800D02*
X64761905Y-55519419D01*
X64761905Y-55519419D02*
X64904762Y-55519419D01*
X64904762Y-55519419D02*
X65000000Y-55471800D01*
X65000000Y-55471800D02*
X65047619Y-55424181D01*
X63761905Y-54900372D02*
X63857143Y-54852752D01*
X63857143Y-54852752D02*
X64047619Y-54852752D01*
X64047619Y-54852752D02*
X64142857Y-54900372D01*
X64142857Y-54900372D02*
X64190476Y-54995610D01*
X64190476Y-54995610D02*
X64190476Y-55376562D01*
X64190476Y-55376562D02*
X64142857Y-55471800D01*
X64142857Y-55471800D02*
X64047619Y-55519419D01*
X64047619Y-55519419D02*
X63857143Y-55519419D01*
X63857143Y-55519419D02*
X63761905Y-55471800D01*
X63761905Y-55471800D02*
X63714286Y-55376562D01*
X63714286Y-55376562D02*
X63714286Y-55281324D01*
X63714286Y-55281324D02*
X64190476Y-55186086D01*
X63380952Y-55519419D02*
X63142857Y-54852752D01*
X62904762Y-55519419D02*
X63142857Y-54852752D01*
X63142857Y-54852752D02*
X63238095Y-54614657D01*
X63238095Y-54614657D02*
X63285714Y-54567038D01*
X63285714Y-54567038D02*
X63380952Y-54519419D01*
X61904761Y-55519419D02*
X61523809Y-55519419D01*
X61761904Y-55852752D02*
X61761904Y-54995610D01*
X61761904Y-54995610D02*
X61714285Y-54900372D01*
X61714285Y-54900372D02*
X61619047Y-54852752D01*
X61619047Y-54852752D02*
X61523809Y-54852752D01*
X61190475Y-54852752D02*
X61190475Y-55852752D01*
X60761904Y-54852752D02*
X60761904Y-55376562D01*
X60761904Y-55376562D02*
X60809523Y-55471800D01*
X60809523Y-55471800D02*
X60904761Y-55519419D01*
X60904761Y-55519419D02*
X61047618Y-55519419D01*
X61047618Y-55519419D02*
X61142856Y-55471800D01*
X61142856Y-55471800D02*
X61190475Y-55424181D01*
X59904761Y-54900372D02*
X59999999Y-54852752D01*
X59999999Y-54852752D02*
X60190475Y-54852752D01*
X60190475Y-54852752D02*
X60285713Y-54900372D01*
X60285713Y-54900372D02*
X60333332Y-54995610D01*
X60333332Y-54995610D02*
X60333332Y-55376562D01*
X60333332Y-55376562D02*
X60285713Y-55471800D01*
X60285713Y-55471800D02*
X60190475Y-55519419D01*
X60190475Y-55519419D02*
X59999999Y-55519419D01*
X59999999Y-55519419D02*
X59904761Y-55471800D01*
X59904761Y-55471800D02*
X59857142Y-55376562D01*
X59857142Y-55376562D02*
X59857142Y-55281324D01*
X59857142Y-55281324D02*
X60333332Y-55186086D01*
X59428570Y-54852752D02*
X59428570Y-55519419D01*
X59428570Y-55328943D02*
X59380951Y-55424181D01*
X59380951Y-55424181D02*
X59333332Y-55471800D01*
X59333332Y-55471800D02*
X59238094Y-55519419D01*
X59238094Y-55519419D02*
X59142856Y-55519419D01*
X58428570Y-54900372D02*
X58523808Y-54852752D01*
X58523808Y-54852752D02*
X58714284Y-54852752D01*
X58714284Y-54852752D02*
X58809522Y-54900372D01*
X58809522Y-54900372D02*
X58857141Y-54995610D01*
X58857141Y-54995610D02*
X58857141Y-55376562D01*
X58857141Y-55376562D02*
X58809522Y-55471800D01*
X58809522Y-55471800D02*
X58714284Y-55519419D01*
X58714284Y-55519419D02*
X58523808Y-55519419D01*
X58523808Y-55519419D02*
X58428570Y-55471800D01*
X58428570Y-55471800D02*
X58380951Y-55376562D01*
X58380951Y-55376562D02*
X58380951Y-55281324D01*
X58380951Y-55281324D02*
X58857141Y-55186086D01*
X57904760Y-54900372D02*
X57904760Y-54852752D01*
X57904760Y-54852752D02*
X57952379Y-54757514D01*
X57952379Y-54757514D02*
X57999998Y-54709895D01*
X73071429Y-53909475D02*
X72880953Y-53242808D01*
X72880953Y-53242808D02*
X72690477Y-53718999D01*
X72690477Y-53718999D02*
X72500001Y-53242808D01*
X72500001Y-53242808D02*
X72309525Y-53909475D01*
X71928572Y-53242808D02*
X71928572Y-54242808D01*
X71500001Y-53242808D02*
X71500001Y-53766618D01*
X71500001Y-53766618D02*
X71547620Y-53861856D01*
X71547620Y-53861856D02*
X71642858Y-53909475D01*
X71642858Y-53909475D02*
X71785715Y-53909475D01*
X71785715Y-53909475D02*
X71880953Y-53861856D01*
X71880953Y-53861856D02*
X71928572Y-53814237D01*
X70642858Y-53290428D02*
X70738096Y-53242808D01*
X70738096Y-53242808D02*
X70928572Y-53242808D01*
X70928572Y-53242808D02*
X71023810Y-53290428D01*
X71023810Y-53290428D02*
X71071429Y-53385666D01*
X71071429Y-53385666D02*
X71071429Y-53766618D01*
X71071429Y-53766618D02*
X71023810Y-53861856D01*
X71023810Y-53861856D02*
X70928572Y-53909475D01*
X70928572Y-53909475D02*
X70738096Y-53909475D01*
X70738096Y-53909475D02*
X70642858Y-53861856D01*
X70642858Y-53861856D02*
X70595239Y-53766618D01*
X70595239Y-53766618D02*
X70595239Y-53671380D01*
X70595239Y-53671380D02*
X71071429Y-53576142D01*
X70166667Y-53242808D02*
X70166667Y-53909475D01*
X70166667Y-53718999D02*
X70119048Y-53814237D01*
X70119048Y-53814237D02*
X70071429Y-53861856D01*
X70071429Y-53861856D02*
X69976191Y-53909475D01*
X69976191Y-53909475D02*
X69880953Y-53909475D01*
X69166667Y-53290428D02*
X69261905Y-53242808D01*
X69261905Y-53242808D02*
X69452381Y-53242808D01*
X69452381Y-53242808D02*
X69547619Y-53290428D01*
X69547619Y-53290428D02*
X69595238Y-53385666D01*
X69595238Y-53385666D02*
X69595238Y-53766618D01*
X69595238Y-53766618D02*
X69547619Y-53861856D01*
X69547619Y-53861856D02*
X69452381Y-53909475D01*
X69452381Y-53909475D02*
X69261905Y-53909475D01*
X69261905Y-53909475D02*
X69166667Y-53861856D01*
X69166667Y-53861856D02*
X69119048Y-53766618D01*
X69119048Y-53766618D02*
X69119048Y-53671380D01*
X69119048Y-53671380D02*
X69595238Y-53576142D01*
X67928571Y-53242808D02*
X67928571Y-53909475D01*
X67928571Y-54242808D02*
X67976190Y-54195189D01*
X67976190Y-54195189D02*
X67928571Y-54147570D01*
X67928571Y-54147570D02*
X67880952Y-54195189D01*
X67880952Y-54195189D02*
X67928571Y-54242808D01*
X67928571Y-54242808D02*
X67928571Y-54147570D01*
X67500000Y-53290428D02*
X67404762Y-53242808D01*
X67404762Y-53242808D02*
X67214286Y-53242808D01*
X67214286Y-53242808D02*
X67119048Y-53290428D01*
X67119048Y-53290428D02*
X67071429Y-53385666D01*
X67071429Y-53385666D02*
X67071429Y-53433285D01*
X67071429Y-53433285D02*
X67119048Y-53528523D01*
X67119048Y-53528523D02*
X67214286Y-53576142D01*
X67214286Y-53576142D02*
X67357143Y-53576142D01*
X67357143Y-53576142D02*
X67452381Y-53623761D01*
X67452381Y-53623761D02*
X67500000Y-53718999D01*
X67500000Y-53718999D02*
X67500000Y-53766618D01*
X67500000Y-53766618D02*
X67452381Y-53861856D01*
X67452381Y-53861856D02*
X67357143Y-53909475D01*
X67357143Y-53909475D02*
X67214286Y-53909475D01*
X67214286Y-53909475D02*
X67119048Y-53861856D01*
X66023809Y-53909475D02*
X65642857Y-53909475D01*
X65880952Y-54242808D02*
X65880952Y-53385666D01*
X65880952Y-53385666D02*
X65833333Y-53290428D01*
X65833333Y-53290428D02*
X65738095Y-53242808D01*
X65738095Y-53242808D02*
X65642857Y-53242808D01*
X65309523Y-53242808D02*
X65309523Y-54242808D01*
X64880952Y-53242808D02*
X64880952Y-53766618D01*
X64880952Y-53766618D02*
X64928571Y-53861856D01*
X64928571Y-53861856D02*
X65023809Y-53909475D01*
X65023809Y-53909475D02*
X65166666Y-53909475D01*
X65166666Y-53909475D02*
X65261904Y-53861856D01*
X65261904Y-53861856D02*
X65309523Y-53814237D01*
X64023809Y-53290428D02*
X64119047Y-53242808D01*
X64119047Y-53242808D02*
X64309523Y-53242808D01*
X64309523Y-53242808D02*
X64404761Y-53290428D01*
X64404761Y-53290428D02*
X64452380Y-53385666D01*
X64452380Y-53385666D02*
X64452380Y-53766618D01*
X64452380Y-53766618D02*
X64404761Y-53861856D01*
X64404761Y-53861856D02*
X64309523Y-53909475D01*
X64309523Y-53909475D02*
X64119047Y-53909475D01*
X64119047Y-53909475D02*
X64023809Y-53861856D01*
X64023809Y-53861856D02*
X63976190Y-53766618D01*
X63976190Y-53766618D02*
X63976190Y-53671380D01*
X63976190Y-53671380D02*
X64452380Y-53576142D01*
X62357142Y-53290428D02*
X62452380Y-53242808D01*
X62452380Y-53242808D02*
X62642856Y-53242808D01*
X62642856Y-53242808D02*
X62738094Y-53290428D01*
X62738094Y-53290428D02*
X62785713Y-53338047D01*
X62785713Y-53338047D02*
X62833332Y-53433285D01*
X62833332Y-53433285D02*
X62833332Y-53718999D01*
X62833332Y-53718999D02*
X62785713Y-53814237D01*
X62785713Y-53814237D02*
X62738094Y-53861856D01*
X62738094Y-53861856D02*
X62642856Y-53909475D01*
X62642856Y-53909475D02*
X62452380Y-53909475D01*
X62452380Y-53909475D02*
X62357142Y-53861856D01*
X61785713Y-53242808D02*
X61880951Y-53290428D01*
X61880951Y-53290428D02*
X61928570Y-53338047D01*
X61928570Y-53338047D02*
X61976189Y-53433285D01*
X61976189Y-53433285D02*
X61976189Y-53718999D01*
X61976189Y-53718999D02*
X61928570Y-53814237D01*
X61928570Y-53814237D02*
X61880951Y-53861856D01*
X61880951Y-53861856D02*
X61785713Y-53909475D01*
X61785713Y-53909475D02*
X61642856Y-53909475D01*
X61642856Y-53909475D02*
X61547618Y-53861856D01*
X61547618Y-53861856D02*
X61499999Y-53814237D01*
X61499999Y-53814237D02*
X61452380Y-53718999D01*
X61452380Y-53718999D02*
X61452380Y-53433285D01*
X61452380Y-53433285D02*
X61499999Y-53338047D01*
X61499999Y-53338047D02*
X61547618Y-53290428D01*
X61547618Y-53290428D02*
X61642856Y-53242808D01*
X61642856Y-53242808D02*
X61785713Y-53242808D01*
X61023808Y-53909475D02*
X61023808Y-53242808D01*
X61023808Y-53814237D02*
X60976189Y-53861856D01*
X60976189Y-53861856D02*
X60880951Y-53909475D01*
X60880951Y-53909475D02*
X60738094Y-53909475D01*
X60738094Y-53909475D02*
X60642856Y-53861856D01*
X60642856Y-53861856D02*
X60595237Y-53766618D01*
X60595237Y-53766618D02*
X60595237Y-53242808D01*
X60119046Y-53909475D02*
X60119046Y-53242808D01*
X60119046Y-53814237D02*
X60071427Y-53861856D01*
X60071427Y-53861856D02*
X59976189Y-53909475D01*
X59976189Y-53909475D02*
X59833332Y-53909475D01*
X59833332Y-53909475D02*
X59738094Y-53861856D01*
X59738094Y-53861856D02*
X59690475Y-53766618D01*
X59690475Y-53766618D02*
X59690475Y-53242808D01*
X58833332Y-53290428D02*
X58928570Y-53242808D01*
X58928570Y-53242808D02*
X59119046Y-53242808D01*
X59119046Y-53242808D02*
X59214284Y-53290428D01*
X59214284Y-53290428D02*
X59261903Y-53385666D01*
X59261903Y-53385666D02*
X59261903Y-53766618D01*
X59261903Y-53766618D02*
X59214284Y-53861856D01*
X59214284Y-53861856D02*
X59119046Y-53909475D01*
X59119046Y-53909475D02*
X58928570Y-53909475D01*
X58928570Y-53909475D02*
X58833332Y-53861856D01*
X58833332Y-53861856D02*
X58785713Y-53766618D01*
X58785713Y-53766618D02*
X58785713Y-53671380D01*
X58785713Y-53671380D02*
X59261903Y-53576142D01*
X57928570Y-53290428D02*
X58023808Y-53242808D01*
X58023808Y-53242808D02*
X58214284Y-53242808D01*
X58214284Y-53242808D02*
X58309522Y-53290428D01*
X58309522Y-53290428D02*
X58357141Y-53338047D01*
X58357141Y-53338047D02*
X58404760Y-53433285D01*
X58404760Y-53433285D02*
X58404760Y-53718999D01*
X58404760Y-53718999D02*
X58357141Y-53814237D01*
X58357141Y-53814237D02*
X58309522Y-53861856D01*
X58309522Y-53861856D02*
X58214284Y-53909475D01*
X58214284Y-53909475D02*
X58023808Y-53909475D01*
X58023808Y-53909475D02*
X57928570Y-53861856D01*
X57642855Y-53909475D02*
X57261903Y-53909475D01*
X57499998Y-54242808D02*
X57499998Y-53385666D01*
X57499998Y-53385666D02*
X57452379Y-53290428D01*
X57452379Y-53290428D02*
X57357141Y-53242808D01*
X57357141Y-53242808D02*
X57261903Y-53242808D01*
X56785712Y-53242808D02*
X56880950Y-53290428D01*
X56880950Y-53290428D02*
X56928569Y-53338047D01*
X56928569Y-53338047D02*
X56976188Y-53433285D01*
X56976188Y-53433285D02*
X56976188Y-53718999D01*
X56976188Y-53718999D02*
X56928569Y-53814237D01*
X56928569Y-53814237D02*
X56880950Y-53861856D01*
X56880950Y-53861856D02*
X56785712Y-53909475D01*
X56785712Y-53909475D02*
X56642855Y-53909475D01*
X56642855Y-53909475D02*
X56547617Y-53861856D01*
X56547617Y-53861856D02*
X56499998Y-53814237D01*
X56499998Y-53814237D02*
X56452379Y-53718999D01*
X56452379Y-53718999D02*
X56452379Y-53433285D01*
X56452379Y-53433285D02*
X56499998Y-53338047D01*
X56499998Y-53338047D02*
X56547617Y-53290428D01*
X56547617Y-53290428D02*
X56642855Y-53242808D01*
X56642855Y-53242808D02*
X56785712Y-53242808D01*
X56023807Y-53242808D02*
X56023807Y-53909475D01*
X56023807Y-53718999D02*
X55976188Y-53814237D01*
X55976188Y-53814237D02*
X55928569Y-53861856D01*
X55928569Y-53861856D02*
X55833331Y-53909475D01*
X55833331Y-53909475D02*
X55738093Y-53909475D01*
X55261902Y-53338047D02*
X55214283Y-53290428D01*
X55214283Y-53290428D02*
X55261902Y-53242808D01*
X55261902Y-53242808D02*
X55309521Y-53290428D01*
X55309521Y-53290428D02*
X55261902Y-53338047D01*
X55261902Y-53338047D02*
X55261902Y-53242808D01*
X55452378Y-54195189D02*
X55357140Y-54242808D01*
X55357140Y-54242808D02*
X55119045Y-54242808D01*
X55119045Y-54242808D02*
X55023807Y-54195189D01*
X55023807Y-54195189D02*
X54976188Y-54099951D01*
X54976188Y-54099951D02*
X54976188Y-54004713D01*
X54976188Y-54004713D02*
X55023807Y-53909475D01*
X55023807Y-53909475D02*
X55071426Y-53861856D01*
X55071426Y-53861856D02*
X55166664Y-53814237D01*
X55166664Y-53814237D02*
X55214283Y-53766618D01*
X55214283Y-53766618D02*
X55261902Y-53671380D01*
X55261902Y-53671380D02*
X55261902Y-53623761D01*
X71738095Y-18400161D02*
X71833333Y-18447780D01*
X71833333Y-18447780D02*
X71976190Y-18447780D01*
X71976190Y-18447780D02*
X72119047Y-18400161D01*
X72119047Y-18400161D02*
X72214285Y-18304923D01*
X72214285Y-18304923D02*
X72261904Y-18209685D01*
X72261904Y-18209685D02*
X72309523Y-18019209D01*
X72309523Y-18019209D02*
X72309523Y-17876352D01*
X72309523Y-17876352D02*
X72261904Y-17685876D01*
X72261904Y-17685876D02*
X72214285Y-17590638D01*
X72214285Y-17590638D02*
X72119047Y-17495400D01*
X72119047Y-17495400D02*
X71976190Y-17447780D01*
X71976190Y-17447780D02*
X71880952Y-17447780D01*
X71880952Y-17447780D02*
X71738095Y-17495400D01*
X71738095Y-17495400D02*
X71690476Y-17543019D01*
X71690476Y-17543019D02*
X71690476Y-17876352D01*
X71690476Y-17876352D02*
X71880952Y-17876352D01*
X74090476Y-25247780D02*
X74661904Y-25247780D01*
X74376190Y-25247780D02*
X74376190Y-26247780D01*
X74376190Y-26247780D02*
X74471428Y-26104923D01*
X74471428Y-26104923D02*
X74566666Y-26009685D01*
X74566666Y-26009685D02*
X74661904Y-25962066D01*
X73233333Y-25914447D02*
X73233333Y-25247780D01*
X73471428Y-26295400D02*
X73709523Y-25581114D01*
X73709523Y-25581114D02*
X73090476Y-25581114D01*
X75180951Y-17447780D02*
X75180951Y-18447780D01*
X75180951Y-18447780D02*
X74942856Y-18447780D01*
X74942856Y-18447780D02*
X74799999Y-18400161D01*
X74799999Y-18400161D02*
X74704761Y-18304923D01*
X74704761Y-18304923D02*
X74657142Y-18209685D01*
X74657142Y-18209685D02*
X74609523Y-18019209D01*
X74609523Y-18019209D02*
X74609523Y-17876352D01*
X74609523Y-17876352D02*
X74657142Y-17685876D01*
X74657142Y-17685876D02*
X74704761Y-17590638D01*
X74704761Y-17590638D02*
X74799999Y-17495400D01*
X74799999Y-17495400D02*
X74942856Y-17447780D01*
X74942856Y-17447780D02*
X75180951Y-17447780D01*
X74180951Y-17828733D02*
X73419047Y-17828733D01*
X73799999Y-17447780D02*
X73799999Y-18209685D01*
X77380951Y-17447780D02*
X77380951Y-18447780D01*
X77380951Y-18447780D02*
X77142856Y-18447780D01*
X77142856Y-18447780D02*
X76999999Y-18400161D01*
X76999999Y-18400161D02*
X76904761Y-18304923D01*
X76904761Y-18304923D02*
X76857142Y-18209685D01*
X76857142Y-18209685D02*
X76809523Y-18019209D01*
X76809523Y-18019209D02*
X76809523Y-17876352D01*
X76809523Y-17876352D02*
X76857142Y-17685876D01*
X76857142Y-17685876D02*
X76904761Y-17590638D01*
X76904761Y-17590638D02*
X76999999Y-17495400D01*
X76999999Y-17495400D02*
X77142856Y-17447780D01*
X77142856Y-17447780D02*
X77380951Y-17447780D01*
X76380951Y-17828733D02*
X75619047Y-17828733D01*
X76690476Y-25247780D02*
X77261904Y-25247780D01*
X76976190Y-25247780D02*
X76976190Y-26247780D01*
X76976190Y-26247780D02*
X77071428Y-26104923D01*
X77071428Y-26104923D02*
X77166666Y-26009685D01*
X77166666Y-26009685D02*
X77261904Y-25962066D01*
X75785714Y-26247780D02*
X76261904Y-26247780D01*
X76261904Y-26247780D02*
X76309523Y-25771590D01*
X76309523Y-25771590D02*
X76261904Y-25819209D01*
X76261904Y-25819209D02*
X76166666Y-25866828D01*
X76166666Y-25866828D02*
X75928571Y-25866828D01*
X75928571Y-25866828D02*
X75833333Y-25819209D01*
X75833333Y-25819209D02*
X75785714Y-25771590D01*
X75785714Y-25771590D02*
X75738095Y-25676352D01*
X75738095Y-25676352D02*
X75738095Y-25438257D01*
X75738095Y-25438257D02*
X75785714Y-25343019D01*
X75785714Y-25343019D02*
X75833333Y-25295400D01*
X75833333Y-25295400D02*
X75928571Y-25247780D01*
X75928571Y-25247780D02*
X76166666Y-25247780D01*
X76166666Y-25247780D02*
X76261904Y-25295400D01*
X76261904Y-25295400D02*
X76309523Y-25343019D01*
X79190476Y-18447780D02*
X79666666Y-18447780D01*
X79666666Y-18447780D02*
X79714285Y-17971590D01*
X79714285Y-17971590D02*
X79666666Y-18019209D01*
X79666666Y-18019209D02*
X79571428Y-18066828D01*
X79571428Y-18066828D02*
X79333333Y-18066828D01*
X79333333Y-18066828D02*
X79238095Y-18019209D01*
X79238095Y-18019209D02*
X79190476Y-17971590D01*
X79190476Y-17971590D02*
X79142857Y-17876352D01*
X79142857Y-17876352D02*
X79142857Y-17638257D01*
X79142857Y-17638257D02*
X79190476Y-17543019D01*
X79190476Y-17543019D02*
X79238095Y-17495400D01*
X79238095Y-17495400D02*
X79333333Y-17447780D01*
X79333333Y-17447780D02*
X79571428Y-17447780D01*
X79571428Y-17447780D02*
X79666666Y-17495400D01*
X79666666Y-17495400D02*
X79714285Y-17543019D01*
X78857142Y-18447780D02*
X78523809Y-17447780D01*
X78523809Y-17447780D02*
X78190476Y-18447780D01*
X82857142Y-49871590D02*
X82714285Y-49823971D01*
X82714285Y-49823971D02*
X82666666Y-49776352D01*
X82666666Y-49776352D02*
X82619047Y-49681114D01*
X82619047Y-49681114D02*
X82619047Y-49538257D01*
X82619047Y-49538257D02*
X82666666Y-49443019D01*
X82666666Y-49443019D02*
X82714285Y-49395400D01*
X82714285Y-49395400D02*
X82809523Y-49347780D01*
X82809523Y-49347780D02*
X83190475Y-49347780D01*
X83190475Y-49347780D02*
X83190475Y-50347780D01*
X83190475Y-50347780D02*
X82857142Y-50347780D01*
X82857142Y-50347780D02*
X82761904Y-50300161D01*
X82761904Y-50300161D02*
X82714285Y-50252542D01*
X82714285Y-50252542D02*
X82666666Y-50157304D01*
X82666666Y-50157304D02*
X82666666Y-50062066D01*
X82666666Y-50062066D02*
X82714285Y-49966828D01*
X82714285Y-49966828D02*
X82761904Y-49919209D01*
X82761904Y-49919209D02*
X82857142Y-49871590D01*
X82857142Y-49871590D02*
X83190475Y-49871590D01*
X81999999Y-50347780D02*
X81809523Y-50347780D01*
X81809523Y-50347780D02*
X81714285Y-50300161D01*
X81714285Y-50300161D02*
X81619047Y-50204923D01*
X81619047Y-50204923D02*
X81571428Y-50014447D01*
X81571428Y-50014447D02*
X81571428Y-49681114D01*
X81571428Y-49681114D02*
X81619047Y-49490638D01*
X81619047Y-49490638D02*
X81714285Y-49395400D01*
X81714285Y-49395400D02*
X81809523Y-49347780D01*
X81809523Y-49347780D02*
X81999999Y-49347780D01*
X81999999Y-49347780D02*
X82095237Y-49395400D01*
X82095237Y-49395400D02*
X82190475Y-49490638D01*
X82190475Y-49490638D02*
X82238094Y-49681114D01*
X82238094Y-49681114D02*
X82238094Y-50014447D01*
X82238094Y-50014447D02*
X82190475Y-50204923D01*
X82190475Y-50204923D02*
X82095237Y-50300161D01*
X82095237Y-50300161D02*
X81999999Y-50347780D01*
X80952380Y-50347780D02*
X80761904Y-50347780D01*
X80761904Y-50347780D02*
X80666666Y-50300161D01*
X80666666Y-50300161D02*
X80571428Y-50204923D01*
X80571428Y-50204923D02*
X80523809Y-50014447D01*
X80523809Y-50014447D02*
X80523809Y-49681114D01*
X80523809Y-49681114D02*
X80571428Y-49490638D01*
X80571428Y-49490638D02*
X80666666Y-49395400D01*
X80666666Y-49395400D02*
X80761904Y-49347780D01*
X80761904Y-49347780D02*
X80952380Y-49347780D01*
X80952380Y-49347780D02*
X81047618Y-49395400D01*
X81047618Y-49395400D02*
X81142856Y-49490638D01*
X81142856Y-49490638D02*
X81190475Y-49681114D01*
X81190475Y-49681114D02*
X81190475Y-50014447D01*
X81190475Y-50014447D02*
X81142856Y-50204923D01*
X81142856Y-50204923D02*
X81047618Y-50300161D01*
X81047618Y-50300161D02*
X80952380Y-50347780D01*
X80238094Y-50347780D02*
X79666666Y-50347780D01*
X79952380Y-49347780D02*
X79952380Y-50347780D01*
X55626816Y-12047780D02*
X56103006Y-12047780D01*
X56103006Y-12047780D02*
X56150625Y-11571590D01*
X56150625Y-11571590D02*
X56103006Y-11619209D01*
X56103006Y-11619209D02*
X56007768Y-11666828D01*
X56007768Y-11666828D02*
X55769673Y-11666828D01*
X55769673Y-11666828D02*
X55674435Y-11619209D01*
X55674435Y-11619209D02*
X55626816Y-11571590D01*
X55626816Y-11571590D02*
X55579197Y-11476352D01*
X55579197Y-11476352D02*
X55579197Y-11238257D01*
X55579197Y-11238257D02*
X55626816Y-11143019D01*
X55626816Y-11143019D02*
X55674435Y-11095400D01*
X55674435Y-11095400D02*
X55769673Y-11047780D01*
X55769673Y-11047780D02*
X56007768Y-11047780D01*
X56007768Y-11047780D02*
X56103006Y-11095400D01*
X56103006Y-11095400D02*
X56150625Y-11143019D01*
X55293482Y-12047780D02*
X54960149Y-11047780D01*
X54960149Y-11047780D02*
X54626816Y-12047780D01*
X56531578Y-13643019D02*
X56579197Y-13595400D01*
X56579197Y-13595400D02*
X56722054Y-13547780D01*
X56722054Y-13547780D02*
X56817292Y-13547780D01*
X56817292Y-13547780D02*
X56960149Y-13595400D01*
X56960149Y-13595400D02*
X57055387Y-13690638D01*
X57055387Y-13690638D02*
X57103006Y-13785876D01*
X57103006Y-13785876D02*
X57150625Y-13976352D01*
X57150625Y-13976352D02*
X57150625Y-14119209D01*
X57150625Y-14119209D02*
X57103006Y-14309685D01*
X57103006Y-14309685D02*
X57055387Y-14404923D01*
X57055387Y-14404923D02*
X56960149Y-14500161D01*
X56960149Y-14500161D02*
X56817292Y-14547780D01*
X56817292Y-14547780D02*
X56722054Y-14547780D01*
X56722054Y-14547780D02*
X56579197Y-14500161D01*
X56579197Y-14500161D02*
X56531578Y-14452542D01*
X55626816Y-13547780D02*
X56103006Y-13547780D01*
X56103006Y-13547780D02*
X56103006Y-14547780D01*
X55293482Y-13547780D02*
X55293482Y-14547780D01*
X54722054Y-13547780D02*
X55150625Y-14119209D01*
X54722054Y-14547780D02*
X55293482Y-13976352D01*
X56817291Y-16087780D02*
X56817291Y-17087780D01*
X56817291Y-17087780D02*
X56579196Y-17087780D01*
X56579196Y-17087780D02*
X56436339Y-17040161D01*
X56436339Y-17040161D02*
X56341101Y-16944923D01*
X56341101Y-16944923D02*
X56293482Y-16849685D01*
X56293482Y-16849685D02*
X56245863Y-16659209D01*
X56245863Y-16659209D02*
X56245863Y-16516352D01*
X56245863Y-16516352D02*
X56293482Y-16325876D01*
X56293482Y-16325876D02*
X56341101Y-16230638D01*
X56341101Y-16230638D02*
X56436339Y-16135400D01*
X56436339Y-16135400D02*
X56579196Y-16087780D01*
X56579196Y-16087780D02*
X56817291Y-16087780D01*
X55817291Y-16087780D02*
X55817291Y-17087780D01*
X55150625Y-17087780D02*
X54960149Y-17087780D01*
X54960149Y-17087780D02*
X54864911Y-17040161D01*
X54864911Y-17040161D02*
X54769673Y-16944923D01*
X54769673Y-16944923D02*
X54722054Y-16754447D01*
X54722054Y-16754447D02*
X54722054Y-16421114D01*
X54722054Y-16421114D02*
X54769673Y-16230638D01*
X54769673Y-16230638D02*
X54864911Y-16135400D01*
X54864911Y-16135400D02*
X54960149Y-16087780D01*
X54960149Y-16087780D02*
X55150625Y-16087780D01*
X55150625Y-16087780D02*
X55245863Y-16135400D01*
X55245863Y-16135400D02*
X55341101Y-16230638D01*
X55341101Y-16230638D02*
X55388720Y-16421114D01*
X55388720Y-16421114D02*
X55388720Y-16754447D01*
X55388720Y-16754447D02*
X55341101Y-16944923D01*
X55341101Y-16944923D02*
X55245863Y-17040161D01*
X55245863Y-17040161D02*
X55150625Y-17087780D01*
X56245863Y-19151590D02*
X55912530Y-19151590D01*
X55769673Y-18627780D02*
X56245863Y-18627780D01*
X56245863Y-18627780D02*
X56245863Y-19627780D01*
X56245863Y-19627780D02*
X55769673Y-19627780D01*
X55341101Y-18627780D02*
X55341101Y-19627780D01*
X55341101Y-19627780D02*
X54769673Y-18627780D01*
X54769673Y-18627780D02*
X54769673Y-19627780D01*
X75007491Y-32573288D02*
X75714598Y-33280395D01*
X75714598Y-33280395D02*
X75546239Y-33448754D01*
X75546239Y-33448754D02*
X75411552Y-33516097D01*
X75411552Y-33516097D02*
X75276865Y-33516097D01*
X75276865Y-33516097D02*
X75175850Y-33482426D01*
X75175850Y-33482426D02*
X75007491Y-33381410D01*
X75007491Y-33381410D02*
X74906476Y-33280395D01*
X74906476Y-33280395D02*
X74805461Y-33112036D01*
X74805461Y-33112036D02*
X74771789Y-33011021D01*
X74771789Y-33011021D02*
X74771789Y-32876334D01*
X74771789Y-32876334D02*
X74839133Y-32741647D01*
X74839133Y-32741647D02*
X75007491Y-32573288D01*
X75437537Y-28283113D02*
X75538552Y-28249441D01*
X75538552Y-28249441D02*
X75639568Y-28148426D01*
X75639568Y-28148426D02*
X75706911Y-28013739D01*
X75706911Y-28013739D02*
X75706911Y-27879052D01*
X75706911Y-27879052D02*
X75673239Y-27778036D01*
X75673239Y-27778036D02*
X75572224Y-27609678D01*
X75572224Y-27609678D02*
X75471209Y-27508662D01*
X75471209Y-27508662D02*
X75302850Y-27407647D01*
X75302850Y-27407647D02*
X75201835Y-27373975D01*
X75201835Y-27373975D02*
X75067148Y-27373975D01*
X75067148Y-27373975D02*
X74932461Y-27441319D01*
X74932461Y-27441319D02*
X74865117Y-27508662D01*
X74865117Y-27508662D02*
X74797774Y-27643349D01*
X74797774Y-27643349D02*
X74797774Y-27710693D01*
X74797774Y-27710693D02*
X75033476Y-27946395D01*
X75033476Y-27946395D02*
X75168163Y-27811708D01*
X74427385Y-27946395D02*
X75134491Y-28653502D01*
X75134491Y-28653502D02*
X74023324Y-28350456D01*
X74023324Y-28350456D02*
X74730430Y-29057563D01*
X73686606Y-28687174D02*
X74393713Y-29394280D01*
X74393713Y-29394280D02*
X74225354Y-29562639D01*
X74225354Y-29562639D02*
X74090667Y-29629983D01*
X74090667Y-29629983D02*
X73955980Y-29629983D01*
X73955980Y-29629983D02*
X73854965Y-29596311D01*
X73854965Y-29596311D02*
X73686606Y-29495296D01*
X73686606Y-29495296D02*
X73585591Y-29394280D01*
X73585591Y-29394280D02*
X73484576Y-29225922D01*
X73484576Y-29225922D02*
X73450904Y-29124906D01*
X73450904Y-29124906D02*
X73450904Y-28990219D01*
X73450904Y-28990219D02*
X73518247Y-28855532D01*
X73518247Y-28855532D02*
X73686606Y-28687174D01*
X74797774Y-30116006D02*
X75134491Y-29779288D01*
X75134491Y-29779288D02*
X75841598Y-30486395D01*
X74797774Y-30520067D02*
X74461056Y-30856784D01*
X74663087Y-30250693D02*
X75134491Y-31193502D01*
X75134491Y-31193502D02*
X74191682Y-30722097D01*
X74764102Y-31563891D02*
X74360041Y-31967952D01*
X73854965Y-31058815D02*
X74562071Y-31765922D01*
X75269178Y-35719380D02*
X75134491Y-35786723D01*
X75134491Y-35786723D02*
X75067148Y-35786723D01*
X75067148Y-35786723D02*
X74966133Y-35753052D01*
X74966133Y-35753052D02*
X74865117Y-35652036D01*
X74865117Y-35652036D02*
X74831446Y-35551021D01*
X74831446Y-35551021D02*
X74831446Y-35483678D01*
X74831446Y-35483678D02*
X74865117Y-35382662D01*
X74865117Y-35382662D02*
X75134491Y-35113288D01*
X75134491Y-35113288D02*
X75841598Y-35820395D01*
X75841598Y-35820395D02*
X75605896Y-36056097D01*
X75605896Y-36056097D02*
X75504881Y-36089769D01*
X75504881Y-36089769D02*
X75437537Y-36089769D01*
X75437537Y-36089769D02*
X75336522Y-36056097D01*
X75336522Y-36056097D02*
X75269178Y-35988754D01*
X75269178Y-35988754D02*
X75235507Y-35887739D01*
X75235507Y-35887739D02*
X75235507Y-35820395D01*
X75235507Y-35820395D02*
X75269178Y-35719380D01*
X75269178Y-35719380D02*
X75504881Y-35483678D01*
X75504881Y-38023678D02*
X75269178Y-38259380D01*
X74797774Y-37990006D02*
X75134491Y-37653288D01*
X75134491Y-37653288D02*
X75841598Y-38360395D01*
X75841598Y-38360395D02*
X75504881Y-38697113D01*
X75437537Y-40983113D02*
X75538552Y-40949441D01*
X75538552Y-40949441D02*
X75639568Y-40848426D01*
X75639568Y-40848426D02*
X75706911Y-40713739D01*
X75706911Y-40713739D02*
X75706911Y-40579052D01*
X75706911Y-40579052D02*
X75673239Y-40478036D01*
X75673239Y-40478036D02*
X75572224Y-40309678D01*
X75572224Y-40309678D02*
X75471209Y-40208662D01*
X75471209Y-40208662D02*
X75302850Y-40107647D01*
X75302850Y-40107647D02*
X75201835Y-40073975D01*
X75201835Y-40073975D02*
X75067148Y-40073975D01*
X75067148Y-40073975D02*
X74932461Y-40141319D01*
X74932461Y-40141319D02*
X74865117Y-40208662D01*
X74865117Y-40208662D02*
X74797774Y-40343349D01*
X74797774Y-40343349D02*
X74797774Y-40410693D01*
X74797774Y-40410693D02*
X75033476Y-40646395D01*
X75033476Y-40646395D02*
X75168163Y-40511708D01*
X75100820Y-41252487D02*
X75100820Y-41319830D01*
X75100820Y-41319830D02*
X75067148Y-41420845D01*
X75067148Y-41420845D02*
X74898789Y-41589204D01*
X74898789Y-41589204D02*
X74797774Y-41622876D01*
X74797774Y-41622876D02*
X74730430Y-41622876D01*
X74730430Y-41622876D02*
X74629415Y-41589204D01*
X74629415Y-41589204D02*
X74562072Y-41521861D01*
X74562072Y-41521861D02*
X74494728Y-41387174D01*
X74494728Y-41387174D02*
X74494728Y-40579052D01*
X74494728Y-40579052D02*
X74056995Y-41016784D01*
X75437537Y-43396113D02*
X75538552Y-43362441D01*
X75538552Y-43362441D02*
X75639568Y-43261426D01*
X75639568Y-43261426D02*
X75706911Y-43126739D01*
X75706911Y-43126739D02*
X75706911Y-42992052D01*
X75706911Y-42992052D02*
X75673239Y-42891036D01*
X75673239Y-42891036D02*
X75572224Y-42722678D01*
X75572224Y-42722678D02*
X75471209Y-42621662D01*
X75471209Y-42621662D02*
X75302850Y-42520647D01*
X75302850Y-42520647D02*
X75201835Y-42486975D01*
X75201835Y-42486975D02*
X75067148Y-42486975D01*
X75067148Y-42486975D02*
X74932461Y-42554319D01*
X74932461Y-42554319D02*
X74865117Y-42621662D01*
X74865117Y-42621662D02*
X74797774Y-42756349D01*
X74797774Y-42756349D02*
X74797774Y-42823693D01*
X74797774Y-42823693D02*
X75033476Y-43059395D01*
X75033476Y-43059395D02*
X75168163Y-42924708D01*
X74427385Y-43059395D02*
X75134491Y-43766502D01*
X75134491Y-43766502D02*
X74023324Y-43463456D01*
X74023324Y-43463456D02*
X74730430Y-44170563D01*
X73686606Y-43800174D02*
X74393713Y-44507280D01*
X74393713Y-44507280D02*
X74225354Y-44675639D01*
X74225354Y-44675639D02*
X74090667Y-44742983D01*
X74090667Y-44742983D02*
X73955980Y-44742983D01*
X73955980Y-44742983D02*
X73854965Y-44709311D01*
X73854965Y-44709311D02*
X73686606Y-44608296D01*
X73686606Y-44608296D02*
X73585591Y-44507280D01*
X73585591Y-44507280D02*
X73484576Y-44338922D01*
X73484576Y-44338922D02*
X73450904Y-44237906D01*
X73450904Y-44237906D02*
X73450904Y-44103219D01*
X73450904Y-44103219D02*
X73518247Y-43968532D01*
X73518247Y-43968532D02*
X73686606Y-43800174D01*
X75437537Y-46063113D02*
X75538552Y-46029441D01*
X75538552Y-46029441D02*
X75639568Y-45928426D01*
X75639568Y-45928426D02*
X75706911Y-45793739D01*
X75706911Y-45793739D02*
X75706911Y-45659052D01*
X75706911Y-45659052D02*
X75673239Y-45558036D01*
X75673239Y-45558036D02*
X75572224Y-45389678D01*
X75572224Y-45389678D02*
X75471209Y-45288662D01*
X75471209Y-45288662D02*
X75302850Y-45187647D01*
X75302850Y-45187647D02*
X75201835Y-45153975D01*
X75201835Y-45153975D02*
X75067148Y-45153975D01*
X75067148Y-45153975D02*
X74932461Y-45221319D01*
X74932461Y-45221319D02*
X74865117Y-45288662D01*
X74865117Y-45288662D02*
X74797774Y-45423349D01*
X74797774Y-45423349D02*
X74797774Y-45490693D01*
X74797774Y-45490693D02*
X75033476Y-45726395D01*
X75033476Y-45726395D02*
X75168163Y-45591708D01*
X74056995Y-46096784D02*
X74461056Y-45692723D01*
X74259026Y-45894754D02*
X74966133Y-46601861D01*
X74966133Y-46601861D02*
X74932461Y-46433502D01*
X74932461Y-46433502D02*
X74932461Y-46298815D01*
X74932461Y-46298815D02*
X74966133Y-46197800D01*
X78246911Y-28081082D02*
X78112224Y-28215769D01*
X78112224Y-28215769D02*
X78011209Y-28249441D01*
X78011209Y-28249441D02*
X77876522Y-28249441D01*
X77876522Y-28249441D02*
X77708163Y-28148426D01*
X77708163Y-28148426D02*
X77472461Y-27912723D01*
X77472461Y-27912723D02*
X77371446Y-27744365D01*
X77371446Y-27744365D02*
X77371446Y-27609678D01*
X77371446Y-27609678D02*
X77405117Y-27508662D01*
X77405117Y-27508662D02*
X77539804Y-27373975D01*
X77539804Y-27373975D02*
X77640820Y-27340304D01*
X77640820Y-27340304D02*
X77775507Y-27340304D01*
X77775507Y-27340304D02*
X77943865Y-27441319D01*
X77943865Y-27441319D02*
X78179568Y-27677021D01*
X78179568Y-27677021D02*
X78280583Y-27845380D01*
X78280583Y-27845380D02*
X78280583Y-27980067D01*
X78280583Y-27980067D02*
X78246911Y-28081082D01*
X77304102Y-28350456D02*
X77068400Y-28586158D01*
X76596995Y-28316784D02*
X76933713Y-27980067D01*
X76933713Y-27980067D02*
X77640820Y-28687174D01*
X77640820Y-28687174D02*
X77304102Y-29023891D01*
X77337774Y-30250693D02*
X77337774Y-30183349D01*
X77337774Y-30183349D02*
X77405117Y-30048662D01*
X77405117Y-30048662D02*
X77472461Y-29981319D01*
X77472461Y-29981319D02*
X77607148Y-29913975D01*
X77607148Y-29913975D02*
X77741835Y-29913975D01*
X77741835Y-29913975D02*
X77842850Y-29947647D01*
X77842850Y-29947647D02*
X78011209Y-30048662D01*
X78011209Y-30048662D02*
X78112224Y-30149678D01*
X78112224Y-30149678D02*
X78213239Y-30318036D01*
X78213239Y-30318036D02*
X78246911Y-30419052D01*
X78246911Y-30419052D02*
X78246911Y-30553739D01*
X78246911Y-30553739D02*
X78179568Y-30688426D01*
X78179568Y-30688426D02*
X78112224Y-30755769D01*
X78112224Y-30755769D02*
X77977537Y-30823113D01*
X77977537Y-30823113D02*
X77910194Y-30823113D01*
X76630667Y-30823113D02*
X76967385Y-30486395D01*
X76967385Y-30486395D02*
X77674491Y-31193502D01*
X76394965Y-31058815D02*
X77102071Y-31765922D01*
X75990904Y-31462876D02*
X76698010Y-31563891D01*
X76698010Y-32169983D02*
X76698010Y-31361861D01*
X77337774Y-33044693D02*
X77337774Y-32977349D01*
X77337774Y-32977349D02*
X77405117Y-32842662D01*
X77405117Y-32842662D02*
X77472461Y-32775319D01*
X77472461Y-32775319D02*
X77607148Y-32707975D01*
X77607148Y-32707975D02*
X77741835Y-32707975D01*
X77741835Y-32707975D02*
X77842850Y-32741647D01*
X77842850Y-32741647D02*
X78011209Y-32842662D01*
X78011209Y-32842662D02*
X78112224Y-32943678D01*
X78112224Y-32943678D02*
X78213239Y-33112036D01*
X78213239Y-33112036D02*
X78246911Y-33213052D01*
X78246911Y-33213052D02*
X78246911Y-33347739D01*
X78246911Y-33347739D02*
X78179568Y-33482426D01*
X78179568Y-33482426D02*
X78112224Y-33549769D01*
X78112224Y-33549769D02*
X77977537Y-33617113D01*
X77977537Y-33617113D02*
X77910194Y-33617113D01*
X77910194Y-35281647D02*
X77573476Y-35618365D01*
X77775507Y-35012273D02*
X78246911Y-35955082D01*
X78246911Y-35955082D02*
X77304102Y-35483678D01*
X77809178Y-38005380D02*
X77674491Y-38072723D01*
X77674491Y-38072723D02*
X77607148Y-38072723D01*
X77607148Y-38072723D02*
X77506133Y-38039052D01*
X77506133Y-38039052D02*
X77405117Y-37938036D01*
X77405117Y-37938036D02*
X77371446Y-37837021D01*
X77371446Y-37837021D02*
X77371446Y-37769678D01*
X77371446Y-37769678D02*
X77405117Y-37668662D01*
X77405117Y-37668662D02*
X77674491Y-37399288D01*
X77674491Y-37399288D02*
X78381598Y-38106395D01*
X78381598Y-38106395D02*
X78145896Y-38342097D01*
X78145896Y-38342097D02*
X78044881Y-38375769D01*
X78044881Y-38375769D02*
X77977537Y-38375769D01*
X77977537Y-38375769D02*
X77876522Y-38342097D01*
X77876522Y-38342097D02*
X77809178Y-38274754D01*
X77809178Y-38274754D02*
X77775507Y-38173739D01*
X77775507Y-38173739D02*
X77775507Y-38106395D01*
X77775507Y-38106395D02*
X77809178Y-38005380D01*
X77809178Y-38005380D02*
X78044881Y-37769678D01*
X77640820Y-38712487D02*
X77640820Y-38779830D01*
X77640820Y-38779830D02*
X77607148Y-38880845D01*
X77607148Y-38880845D02*
X77438789Y-39049204D01*
X77438789Y-39049204D02*
X77337774Y-39082876D01*
X77337774Y-39082876D02*
X77270430Y-39082876D01*
X77270430Y-39082876D02*
X77169415Y-39049204D01*
X77169415Y-39049204D02*
X77102072Y-38981861D01*
X77102072Y-38981861D02*
X77034728Y-38847174D01*
X77034728Y-38847174D02*
X77034728Y-38039052D01*
X77034728Y-38039052D02*
X76596995Y-38476784D01*
X77270430Y-40343349D02*
X77842850Y-40444365D01*
X77674491Y-39939288D02*
X78381598Y-40646395D01*
X78381598Y-40646395D02*
X78112224Y-40915769D01*
X78112224Y-40915769D02*
X78011209Y-40949441D01*
X78011209Y-40949441D02*
X77943865Y-40949441D01*
X77943865Y-40949441D02*
X77842850Y-40915769D01*
X77842850Y-40915769D02*
X77741835Y-40814754D01*
X77741835Y-40814754D02*
X77708163Y-40713739D01*
X77708163Y-40713739D02*
X77708163Y-40646395D01*
X77708163Y-40646395D02*
X77741835Y-40545380D01*
X77741835Y-40545380D02*
X78011209Y-40276006D01*
X77640820Y-41252487D02*
X77640820Y-41319830D01*
X77640820Y-41319830D02*
X77607148Y-41420845D01*
X77607148Y-41420845D02*
X77438789Y-41589204D01*
X77438789Y-41589204D02*
X77337774Y-41622876D01*
X77337774Y-41622876D02*
X77270430Y-41622876D01*
X77270430Y-41622876D02*
X77169415Y-41589204D01*
X77169415Y-41589204D02*
X77102072Y-41521861D01*
X77102072Y-41521861D02*
X77034728Y-41387174D01*
X77034728Y-41387174D02*
X77034728Y-40579052D01*
X77034728Y-40579052D02*
X76596995Y-41016784D01*
X77809178Y-43085380D02*
X77674491Y-43152723D01*
X77674491Y-43152723D02*
X77607148Y-43152723D01*
X77607148Y-43152723D02*
X77506133Y-43119052D01*
X77506133Y-43119052D02*
X77405117Y-43018036D01*
X77405117Y-43018036D02*
X77371446Y-42917021D01*
X77371446Y-42917021D02*
X77371446Y-42849678D01*
X77371446Y-42849678D02*
X77405117Y-42748662D01*
X77405117Y-42748662D02*
X77674491Y-42479288D01*
X77674491Y-42479288D02*
X78381598Y-43186395D01*
X78381598Y-43186395D02*
X78145896Y-43422097D01*
X78145896Y-43422097D02*
X78044881Y-43455769D01*
X78044881Y-43455769D02*
X77977537Y-43455769D01*
X77977537Y-43455769D02*
X77876522Y-43422097D01*
X77876522Y-43422097D02*
X77809178Y-43354754D01*
X77809178Y-43354754D02*
X77775507Y-43253739D01*
X77775507Y-43253739D02*
X77775507Y-43186395D01*
X77775507Y-43186395D02*
X77809178Y-43085380D01*
X77809178Y-43085380D02*
X78044881Y-42849678D01*
X76596995Y-43556784D02*
X77001056Y-43152723D01*
X76799026Y-43354754D02*
X77506133Y-44061861D01*
X77506133Y-44061861D02*
X77472461Y-43893502D01*
X77472461Y-43893502D02*
X77472461Y-43758815D01*
X77472461Y-43758815D02*
X77506133Y-43657800D01*
X77270430Y-45423349D02*
X77842850Y-45524365D01*
X77674491Y-45019288D02*
X78381598Y-45726395D01*
X78381598Y-45726395D02*
X78112224Y-45995769D01*
X78112224Y-45995769D02*
X78011209Y-46029441D01*
X78011209Y-46029441D02*
X77943865Y-46029441D01*
X77943865Y-46029441D02*
X77842850Y-45995769D01*
X77842850Y-45995769D02*
X77741835Y-45894754D01*
X77741835Y-45894754D02*
X77708163Y-45793739D01*
X77708163Y-45793739D02*
X77708163Y-45726395D01*
X77708163Y-45726395D02*
X77741835Y-45625380D01*
X77741835Y-45625380D02*
X78011209Y-45356006D01*
X76596995Y-46096784D02*
X77001056Y-45692723D01*
X76799026Y-45894754D02*
X77506133Y-46601861D01*
X77506133Y-46601861D02*
X77472461Y-46433502D01*
X77472461Y-46433502D02*
X77472461Y-46298815D01*
X77472461Y-46298815D02*
X77506133Y-46197800D01*
X51347780Y-25569673D02*
X52347780Y-25569673D01*
X52347780Y-25569673D02*
X52347780Y-25807768D01*
X52347780Y-25807768D02*
X52300161Y-25950625D01*
X52300161Y-25950625D02*
X52204923Y-26045863D01*
X52204923Y-26045863D02*
X52109685Y-26093482D01*
X52109685Y-26093482D02*
X51919209Y-26141101D01*
X51919209Y-26141101D02*
X51776352Y-26141101D01*
X51776352Y-26141101D02*
X51585876Y-26093482D01*
X51585876Y-26093482D02*
X51490638Y-26045863D01*
X51490638Y-26045863D02*
X51395400Y-25950625D01*
X51395400Y-25950625D02*
X51347780Y-25807768D01*
X51347780Y-25807768D02*
X51347780Y-25569673D01*
X51871590Y-26903006D02*
X51823971Y-27045863D01*
X51823971Y-27045863D02*
X51776352Y-27093482D01*
X51776352Y-27093482D02*
X51681114Y-27141101D01*
X51681114Y-27141101D02*
X51538257Y-27141101D01*
X51538257Y-27141101D02*
X51443019Y-27093482D01*
X51443019Y-27093482D02*
X51395400Y-27045863D01*
X51395400Y-27045863D02*
X51347780Y-26950625D01*
X51347780Y-26950625D02*
X51347780Y-26569673D01*
X51347780Y-26569673D02*
X52347780Y-26569673D01*
X52347780Y-26569673D02*
X52347780Y-26903006D01*
X52347780Y-26903006D02*
X52300161Y-26998244D01*
X52300161Y-26998244D02*
X52252542Y-27045863D01*
X52252542Y-27045863D02*
X52157304Y-27093482D01*
X52157304Y-27093482D02*
X52062066Y-27093482D01*
X52062066Y-27093482D02*
X51966828Y-27045863D01*
X51966828Y-27045863D02*
X51919209Y-26998244D01*
X51919209Y-26998244D02*
X51871590Y-26903006D01*
X51871590Y-26903006D02*
X51871590Y-26569673D01*
X52300161Y-28093482D02*
X52347780Y-27998244D01*
X52347780Y-27998244D02*
X52347780Y-27855387D01*
X52347780Y-27855387D02*
X52300161Y-27712530D01*
X52300161Y-27712530D02*
X52204923Y-27617292D01*
X52204923Y-27617292D02*
X52109685Y-27569673D01*
X52109685Y-27569673D02*
X51919209Y-27522054D01*
X51919209Y-27522054D02*
X51776352Y-27522054D01*
X51776352Y-27522054D02*
X51585876Y-27569673D01*
X51585876Y-27569673D02*
X51490638Y-27617292D01*
X51490638Y-27617292D02*
X51395400Y-27712530D01*
X51395400Y-27712530D02*
X51347780Y-27855387D01*
X51347780Y-27855387D02*
X51347780Y-27950625D01*
X51347780Y-27950625D02*
X51395400Y-28093482D01*
X51395400Y-28093482D02*
X51443019Y-28141101D01*
X51443019Y-28141101D02*
X51776352Y-28141101D01*
X51776352Y-28141101D02*
X51776352Y-27950625D01*
X53447780Y-25569673D02*
X54447780Y-25569673D01*
X54447780Y-25569673D02*
X54447780Y-25950625D01*
X54447780Y-25950625D02*
X54400161Y-26045863D01*
X54400161Y-26045863D02*
X54352542Y-26093482D01*
X54352542Y-26093482D02*
X54257304Y-26141101D01*
X54257304Y-26141101D02*
X54114447Y-26141101D01*
X54114447Y-26141101D02*
X54019209Y-26093482D01*
X54019209Y-26093482D02*
X53971590Y-26045863D01*
X53971590Y-26045863D02*
X53923971Y-25950625D01*
X53923971Y-25950625D02*
X53923971Y-25569673D01*
X54447780Y-26474435D02*
X53447780Y-26712530D01*
X53447780Y-26712530D02*
X54162066Y-26903006D01*
X54162066Y-26903006D02*
X53447780Y-27093482D01*
X53447780Y-27093482D02*
X54447780Y-27331578D01*
X53447780Y-28283958D02*
X53923971Y-27950625D01*
X53447780Y-27712530D02*
X54447780Y-27712530D01*
X54447780Y-27712530D02*
X54447780Y-28093482D01*
X54447780Y-28093482D02*
X54400161Y-28188720D01*
X54400161Y-28188720D02*
X54352542Y-28236339D01*
X54352542Y-28236339D02*
X54257304Y-28283958D01*
X54257304Y-28283958D02*
X54114447Y-28283958D01*
X54114447Y-28283958D02*
X54019209Y-28236339D01*
X54019209Y-28236339D02*
X53971590Y-28188720D01*
X53971590Y-28188720D02*
X53923971Y-28093482D01*
X53923971Y-28093482D02*
X53923971Y-27712530D01*
X81800161Y-22738095D02*
X81847780Y-22642857D01*
X81847780Y-22642857D02*
X81847780Y-22500000D01*
X81847780Y-22500000D02*
X81800161Y-22357143D01*
X81800161Y-22357143D02*
X81704923Y-22261905D01*
X81704923Y-22261905D02*
X81609685Y-22214286D01*
X81609685Y-22214286D02*
X81419209Y-22166667D01*
X81419209Y-22166667D02*
X81276352Y-22166667D01*
X81276352Y-22166667D02*
X81085876Y-22214286D01*
X81085876Y-22214286D02*
X80990638Y-22261905D01*
X80990638Y-22261905D02*
X80895400Y-22357143D01*
X80895400Y-22357143D02*
X80847780Y-22500000D01*
X80847780Y-22500000D02*
X80847780Y-22595238D01*
X80847780Y-22595238D02*
X80895400Y-22738095D01*
X80895400Y-22738095D02*
X80943019Y-22785714D01*
X80943019Y-22785714D02*
X81276352Y-22785714D01*
X81276352Y-22785714D02*
X81276352Y-22595238D01*
X80847780Y-23214286D02*
X81847780Y-23214286D01*
X81847780Y-23214286D02*
X80847780Y-23785714D01*
X80847780Y-23785714D02*
X81847780Y-23785714D01*
X80847780Y-24261905D02*
X81847780Y-24261905D01*
X81847780Y-24261905D02*
X81847780Y-24500000D01*
X81847780Y-24500000D02*
X81800161Y-24642857D01*
X81800161Y-24642857D02*
X81704923Y-24738095D01*
X81704923Y-24738095D02*
X81609685Y-24785714D01*
X81609685Y-24785714D02*
X81419209Y-24833333D01*
X81419209Y-24833333D02*
X81276352Y-24833333D01*
X81276352Y-24833333D02*
X81085876Y-24785714D01*
X81085876Y-24785714D02*
X80990638Y-24738095D01*
X80990638Y-24738095D02*
X80895400Y-24642857D01*
X80895400Y-24642857D02*
X80847780Y-24500000D01*
X80847780Y-24500000D02*
X80847780Y-24261905D01*
D14*
X36740662Y-41314284D02*
X35540662Y-41314284D01*
X36740662Y-40799999D02*
X36112091Y-40799999D01*
X36112091Y-40799999D02*
X35997805Y-40857141D01*
X35997805Y-40857141D02*
X35940662Y-40971427D01*
X35940662Y-40971427D02*
X35940662Y-41142856D01*
X35940662Y-41142856D02*
X35997805Y-41257141D01*
X35997805Y-41257141D02*
X36054948Y-41314284D01*
X35940662Y-39714285D02*
X36740662Y-39714285D01*
X35940662Y-40228570D02*
X36569234Y-40228570D01*
X36569234Y-40228570D02*
X36683520Y-40171427D01*
X36683520Y-40171427D02*
X36740662Y-40057142D01*
X36740662Y-40057142D02*
X36740662Y-39885713D01*
X36740662Y-39885713D02*
X36683520Y-39771427D01*
X36683520Y-39771427D02*
X36626377Y-39714285D01*
X36740662Y-39142856D02*
X35540662Y-39142856D01*
X35997805Y-39142856D02*
X35940662Y-39028571D01*
X35940662Y-39028571D02*
X35940662Y-38799999D01*
X35940662Y-38799999D02*
X35997805Y-38685713D01*
X35997805Y-38685713D02*
X36054948Y-38628571D01*
X36054948Y-38628571D02*
X36169234Y-38571428D01*
X36169234Y-38571428D02*
X36512091Y-38571428D01*
X36512091Y-38571428D02*
X36626377Y-38628571D01*
X36626377Y-38628571D02*
X36683520Y-38685713D01*
X36683520Y-38685713D02*
X36740662Y-38799999D01*
X36740662Y-38799999D02*
X36740662Y-39028571D01*
X36740662Y-39028571D02*
X36683520Y-39142856D01*
X35540662Y-38171428D02*
X35540662Y-37371428D01*
X35540662Y-37371428D02*
X36740662Y-37885714D01*
X35540662Y-36342857D02*
X35540662Y-36914285D01*
X35540662Y-36914285D02*
X36112091Y-36971428D01*
X36112091Y-36971428D02*
X36054948Y-36914285D01*
X36054948Y-36914285D02*
X35997805Y-36800000D01*
X35997805Y-36800000D02*
X35997805Y-36514285D01*
X35997805Y-36514285D02*
X36054948Y-36400000D01*
X36054948Y-36400000D02*
X36112091Y-36342857D01*
X36112091Y-36342857D02*
X36226377Y-36285714D01*
X36226377Y-36285714D02*
X36512091Y-36285714D01*
X36512091Y-36285714D02*
X36626377Y-36342857D01*
X36626377Y-36342857D02*
X36683520Y-36400000D01*
X36683520Y-36400000D02*
X36740662Y-36514285D01*
X36740662Y-36514285D02*
X36740662Y-36800000D01*
X36740662Y-36800000D02*
X36683520Y-36914285D01*
X36683520Y-36914285D02*
X36626377Y-36971428D01*
X36626377Y-35771428D02*
X36683520Y-35714285D01*
X36683520Y-35714285D02*
X36740662Y-35771428D01*
X36740662Y-35771428D02*
X36683520Y-35828571D01*
X36683520Y-35828571D02*
X36626377Y-35771428D01*
X36626377Y-35771428D02*
X36740662Y-35771428D01*
X36740662Y-35199999D02*
X35940662Y-35199999D01*
X36169234Y-35199999D02*
X36054948Y-35142856D01*
X36054948Y-35142856D02*
X35997805Y-35085714D01*
X35997805Y-35085714D02*
X35940662Y-34971428D01*
X35940662Y-34971428D02*
X35940662Y-34857142D01*
X36740662Y-34285714D02*
X36683520Y-34399999D01*
X36683520Y-34399999D02*
X36626377Y-34457142D01*
X36626377Y-34457142D02*
X36512091Y-34514285D01*
X36512091Y-34514285D02*
X36169234Y-34514285D01*
X36169234Y-34514285D02*
X36054948Y-34457142D01*
X36054948Y-34457142D02*
X35997805Y-34399999D01*
X35997805Y-34399999D02*
X35940662Y-34285714D01*
X35940662Y-34285714D02*
X35940662Y-34114285D01*
X35940662Y-34114285D02*
X35997805Y-33999999D01*
X35997805Y-33999999D02*
X36054948Y-33942857D01*
X36054948Y-33942857D02*
X36169234Y-33885714D01*
X36169234Y-33885714D02*
X36512091Y-33885714D01*
X36512091Y-33885714D02*
X36626377Y-33942857D01*
X36626377Y-33942857D02*
X36683520Y-33999999D01*
X36683520Y-33999999D02*
X36740662Y-34114285D01*
X36740662Y-34114285D02*
X36740662Y-34285714D01*
X36740662Y-33371428D02*
X35540662Y-33371428D01*
X35997805Y-33371428D02*
X35940662Y-33257143D01*
X35940662Y-33257143D02*
X35940662Y-33028571D01*
X35940662Y-33028571D02*
X35997805Y-32914285D01*
X35997805Y-32914285D02*
X36054948Y-32857143D01*
X36054948Y-32857143D02*
X36169234Y-32800000D01*
X36169234Y-32800000D02*
X36512091Y-32800000D01*
X36512091Y-32800000D02*
X36626377Y-32857143D01*
X36626377Y-32857143D02*
X36683520Y-32914285D01*
X36683520Y-32914285D02*
X36740662Y-33028571D01*
X36740662Y-33028571D02*
X36740662Y-33257143D01*
X36740662Y-33257143D02*
X36683520Y-33371428D01*
X36740662Y-32114286D02*
X36683520Y-32228571D01*
X36683520Y-32228571D02*
X36626377Y-32285714D01*
X36626377Y-32285714D02*
X36512091Y-32342857D01*
X36512091Y-32342857D02*
X36169234Y-32342857D01*
X36169234Y-32342857D02*
X36054948Y-32285714D01*
X36054948Y-32285714D02*
X35997805Y-32228571D01*
X35997805Y-32228571D02*
X35940662Y-32114286D01*
X35940662Y-32114286D02*
X35940662Y-31942857D01*
X35940662Y-31942857D02*
X35997805Y-31828571D01*
X35997805Y-31828571D02*
X36054948Y-31771429D01*
X36054948Y-31771429D02*
X36169234Y-31714286D01*
X36169234Y-31714286D02*
X36512091Y-31714286D01*
X36512091Y-31714286D02*
X36626377Y-31771429D01*
X36626377Y-31771429D02*
X36683520Y-31828571D01*
X36683520Y-31828571D02*
X36740662Y-31942857D01*
X36740662Y-31942857D02*
X36740662Y-32114286D01*
X35940662Y-31371429D02*
X35940662Y-30914286D01*
X35540662Y-31200000D02*
X36569234Y-31200000D01*
X36569234Y-31200000D02*
X36683520Y-31142857D01*
X36683520Y-31142857D02*
X36740662Y-31028572D01*
X36740662Y-31028572D02*
X36740662Y-30914286D01*
X36740662Y-30514286D02*
X35940662Y-30514286D01*
X35540662Y-30514286D02*
X35597805Y-30571429D01*
X35597805Y-30571429D02*
X35654948Y-30514286D01*
X35654948Y-30514286D02*
X35597805Y-30457143D01*
X35597805Y-30457143D02*
X35540662Y-30514286D01*
X35540662Y-30514286D02*
X35654948Y-30514286D01*
X36740662Y-29942857D02*
X35540662Y-29942857D01*
X36283520Y-29828572D02*
X36740662Y-29485714D01*
X35940662Y-29485714D02*
X36397805Y-29942857D01*
X36740662Y-28457143D02*
X36112091Y-28457143D01*
X36112091Y-28457143D02*
X35997805Y-28514285D01*
X35997805Y-28514285D02*
X35940662Y-28628571D01*
X35940662Y-28628571D02*
X35940662Y-28857143D01*
X35940662Y-28857143D02*
X35997805Y-28971428D01*
X36683520Y-28457143D02*
X36740662Y-28571428D01*
X36740662Y-28571428D02*
X36740662Y-28857143D01*
X36740662Y-28857143D02*
X36683520Y-28971428D01*
X36683520Y-28971428D02*
X36569234Y-29028571D01*
X36569234Y-29028571D02*
X36454948Y-29028571D01*
X36454948Y-29028571D02*
X36340662Y-28971428D01*
X36340662Y-28971428D02*
X36283520Y-28857143D01*
X36283520Y-28857143D02*
X36283520Y-28571428D01*
X36283520Y-28571428D02*
X36226377Y-28457143D01*
X36740662Y-27885714D02*
X35540662Y-27885714D01*
X35997805Y-27885714D02*
X35940662Y-27771429D01*
X35940662Y-27771429D02*
X35940662Y-27542857D01*
X35940662Y-27542857D02*
X35997805Y-27428571D01*
X35997805Y-27428571D02*
X36054948Y-27371429D01*
X36054948Y-27371429D02*
X36169234Y-27314286D01*
X36169234Y-27314286D02*
X36512091Y-27314286D01*
X36512091Y-27314286D02*
X36626377Y-27371429D01*
X36626377Y-27371429D02*
X36683520Y-27428571D01*
X36683520Y-27428571D02*
X36740662Y-27542857D01*
X36740662Y-27542857D02*
X36740662Y-27771429D01*
X36740662Y-27771429D02*
X36683520Y-27885714D01*
X36740662Y-26800000D02*
X35940662Y-26800000D01*
X36169234Y-26800000D02*
X36054948Y-26742857D01*
X36054948Y-26742857D02*
X35997805Y-26685715D01*
X35997805Y-26685715D02*
X35940662Y-26571429D01*
X35940662Y-26571429D02*
X35940662Y-26457143D01*
X35940662Y-26057143D02*
X36740662Y-26057143D01*
X36054948Y-26057143D02*
X35997805Y-26000000D01*
X35997805Y-26000000D02*
X35940662Y-25885715D01*
X35940662Y-25885715D02*
X35940662Y-25714286D01*
X35940662Y-25714286D02*
X35997805Y-25600000D01*
X35997805Y-25600000D02*
X36112091Y-25542858D01*
X36112091Y-25542858D02*
X36740662Y-25542858D01*
X36740662Y-24800001D02*
X36683520Y-24914286D01*
X36683520Y-24914286D02*
X36626377Y-24971429D01*
X36626377Y-24971429D02*
X36512091Y-25028572D01*
X36512091Y-25028572D02*
X36169234Y-25028572D01*
X36169234Y-25028572D02*
X36054948Y-24971429D01*
X36054948Y-24971429D02*
X35997805Y-24914286D01*
X35997805Y-24914286D02*
X35940662Y-24800001D01*
X35940662Y-24800001D02*
X35940662Y-24628572D01*
X35940662Y-24628572D02*
X35997805Y-24514286D01*
X35997805Y-24514286D02*
X36054948Y-24457144D01*
X36054948Y-24457144D02*
X36169234Y-24400001D01*
X36169234Y-24400001D02*
X36512091Y-24400001D01*
X36512091Y-24400001D02*
X36626377Y-24457144D01*
X36626377Y-24457144D02*
X36683520Y-24514286D01*
X36683520Y-24514286D02*
X36740662Y-24628572D01*
X36740662Y-24628572D02*
X36740662Y-24800001D01*
X36626377Y-23885715D02*
X36683520Y-23828572D01*
X36683520Y-23828572D02*
X36740662Y-23885715D01*
X36740662Y-23885715D02*
X36683520Y-23942858D01*
X36683520Y-23942858D02*
X36626377Y-23885715D01*
X36626377Y-23885715D02*
X36740662Y-23885715D01*
X36683520Y-22800001D02*
X36740662Y-22914286D01*
X36740662Y-22914286D02*
X36740662Y-23142858D01*
X36740662Y-23142858D02*
X36683520Y-23257143D01*
X36683520Y-23257143D02*
X36626377Y-23314286D01*
X36626377Y-23314286D02*
X36512091Y-23371429D01*
X36512091Y-23371429D02*
X36169234Y-23371429D01*
X36169234Y-23371429D02*
X36054948Y-23314286D01*
X36054948Y-23314286D02*
X35997805Y-23257143D01*
X35997805Y-23257143D02*
X35940662Y-23142858D01*
X35940662Y-23142858D02*
X35940662Y-22914286D01*
X35940662Y-22914286D02*
X35997805Y-22800001D01*
X35940662Y-22400001D02*
X35940662Y-21771430D01*
X35940662Y-21771430D02*
X36740662Y-22400001D01*
X36740662Y-22400001D02*
X36740662Y-21771430D01*
X48259337Y-24685715D02*
X49459337Y-24685715D01*
X48259337Y-25200001D02*
X48887908Y-25200001D01*
X48887908Y-25200001D02*
X49002194Y-25142858D01*
X49002194Y-25142858D02*
X49059337Y-25028572D01*
X49059337Y-25028572D02*
X49059337Y-24857143D01*
X49059337Y-24857143D02*
X49002194Y-24742858D01*
X49002194Y-24742858D02*
X48945051Y-24685715D01*
X49059337Y-26285715D02*
X48259337Y-26285715D01*
X49059337Y-25771429D02*
X48430765Y-25771429D01*
X48430765Y-25771429D02*
X48316480Y-25828572D01*
X48316480Y-25828572D02*
X48259337Y-25942857D01*
X48259337Y-25942857D02*
X48259337Y-26114286D01*
X48259337Y-26114286D02*
X48316480Y-26228572D01*
X48316480Y-26228572D02*
X48373622Y-26285715D01*
X48259337Y-26857143D02*
X49459337Y-26857143D01*
X49002194Y-26857143D02*
X49059337Y-26971429D01*
X49059337Y-26971429D02*
X49059337Y-27200000D01*
X49059337Y-27200000D02*
X49002194Y-27314286D01*
X49002194Y-27314286D02*
X48945051Y-27371429D01*
X48945051Y-27371429D02*
X48830765Y-27428571D01*
X48830765Y-27428571D02*
X48487908Y-27428571D01*
X48487908Y-27428571D02*
X48373622Y-27371429D01*
X48373622Y-27371429D02*
X48316480Y-27314286D01*
X48316480Y-27314286D02*
X48259337Y-27200000D01*
X48259337Y-27200000D02*
X48259337Y-26971429D01*
X48259337Y-26971429D02*
X48316480Y-26857143D01*
X49459337Y-27828571D02*
X49459337Y-28628571D01*
X49459337Y-28628571D02*
X48259337Y-28114285D01*
X49459337Y-29657142D02*
X49459337Y-29085714D01*
X49459337Y-29085714D02*
X48887908Y-29028571D01*
X48887908Y-29028571D02*
X48945051Y-29085714D01*
X48945051Y-29085714D02*
X49002194Y-29200000D01*
X49002194Y-29200000D02*
X49002194Y-29485714D01*
X49002194Y-29485714D02*
X48945051Y-29600000D01*
X48945051Y-29600000D02*
X48887908Y-29657142D01*
X48887908Y-29657142D02*
X48773622Y-29714285D01*
X48773622Y-29714285D02*
X48487908Y-29714285D01*
X48487908Y-29714285D02*
X48373622Y-29657142D01*
X48373622Y-29657142D02*
X48316480Y-29600000D01*
X48316480Y-29600000D02*
X48259337Y-29485714D01*
X48259337Y-29485714D02*
X48259337Y-29200000D01*
X48259337Y-29200000D02*
X48316480Y-29085714D01*
X48316480Y-29085714D02*
X48373622Y-29028571D01*
X48373622Y-30228571D02*
X48316480Y-30285714D01*
X48316480Y-30285714D02*
X48259337Y-30228571D01*
X48259337Y-30228571D02*
X48316480Y-30171428D01*
X48316480Y-30171428D02*
X48373622Y-30228571D01*
X48373622Y-30228571D02*
X48259337Y-30228571D01*
X48259337Y-30800000D02*
X49059337Y-30800000D01*
X48830765Y-30800000D02*
X48945051Y-30857143D01*
X48945051Y-30857143D02*
X49002194Y-30914286D01*
X49002194Y-30914286D02*
X49059337Y-31028571D01*
X49059337Y-31028571D02*
X49059337Y-31142857D01*
X48259337Y-31714285D02*
X48316480Y-31600000D01*
X48316480Y-31600000D02*
X48373622Y-31542857D01*
X48373622Y-31542857D02*
X48487908Y-31485714D01*
X48487908Y-31485714D02*
X48830765Y-31485714D01*
X48830765Y-31485714D02*
X48945051Y-31542857D01*
X48945051Y-31542857D02*
X49002194Y-31600000D01*
X49002194Y-31600000D02*
X49059337Y-31714285D01*
X49059337Y-31714285D02*
X49059337Y-31885714D01*
X49059337Y-31885714D02*
X49002194Y-32000000D01*
X49002194Y-32000000D02*
X48945051Y-32057143D01*
X48945051Y-32057143D02*
X48830765Y-32114285D01*
X48830765Y-32114285D02*
X48487908Y-32114285D01*
X48487908Y-32114285D02*
X48373622Y-32057143D01*
X48373622Y-32057143D02*
X48316480Y-32000000D01*
X48316480Y-32000000D02*
X48259337Y-31885714D01*
X48259337Y-31885714D02*
X48259337Y-31714285D01*
X48259337Y-32628571D02*
X49459337Y-32628571D01*
X49002194Y-32628571D02*
X49059337Y-32742857D01*
X49059337Y-32742857D02*
X49059337Y-32971428D01*
X49059337Y-32971428D02*
X49002194Y-33085714D01*
X49002194Y-33085714D02*
X48945051Y-33142857D01*
X48945051Y-33142857D02*
X48830765Y-33199999D01*
X48830765Y-33199999D02*
X48487908Y-33199999D01*
X48487908Y-33199999D02*
X48373622Y-33142857D01*
X48373622Y-33142857D02*
X48316480Y-33085714D01*
X48316480Y-33085714D02*
X48259337Y-32971428D01*
X48259337Y-32971428D02*
X48259337Y-32742857D01*
X48259337Y-32742857D02*
X48316480Y-32628571D01*
X48259337Y-33885713D02*
X48316480Y-33771428D01*
X48316480Y-33771428D02*
X48373622Y-33714285D01*
X48373622Y-33714285D02*
X48487908Y-33657142D01*
X48487908Y-33657142D02*
X48830765Y-33657142D01*
X48830765Y-33657142D02*
X48945051Y-33714285D01*
X48945051Y-33714285D02*
X49002194Y-33771428D01*
X49002194Y-33771428D02*
X49059337Y-33885713D01*
X49059337Y-33885713D02*
X49059337Y-34057142D01*
X49059337Y-34057142D02*
X49002194Y-34171428D01*
X49002194Y-34171428D02*
X48945051Y-34228571D01*
X48945051Y-34228571D02*
X48830765Y-34285713D01*
X48830765Y-34285713D02*
X48487908Y-34285713D01*
X48487908Y-34285713D02*
X48373622Y-34228571D01*
X48373622Y-34228571D02*
X48316480Y-34171428D01*
X48316480Y-34171428D02*
X48259337Y-34057142D01*
X48259337Y-34057142D02*
X48259337Y-33885713D01*
X49059337Y-34628570D02*
X49059337Y-35085713D01*
X49459337Y-34799999D02*
X48430765Y-34799999D01*
X48430765Y-34799999D02*
X48316480Y-34857142D01*
X48316480Y-34857142D02*
X48259337Y-34971427D01*
X48259337Y-34971427D02*
X48259337Y-35085713D01*
X48259337Y-35485713D02*
X49059337Y-35485713D01*
X49459337Y-35485713D02*
X49402194Y-35428570D01*
X49402194Y-35428570D02*
X49345051Y-35485713D01*
X49345051Y-35485713D02*
X49402194Y-35542856D01*
X49402194Y-35542856D02*
X49459337Y-35485713D01*
X49459337Y-35485713D02*
X49345051Y-35485713D01*
X48259337Y-36057142D02*
X49459337Y-36057142D01*
X48716480Y-36171428D02*
X48259337Y-36514285D01*
X49059337Y-36514285D02*
X48602194Y-36057142D01*
X48259337Y-37542857D02*
X48887908Y-37542857D01*
X48887908Y-37542857D02*
X49002194Y-37485714D01*
X49002194Y-37485714D02*
X49059337Y-37371428D01*
X49059337Y-37371428D02*
X49059337Y-37142857D01*
X49059337Y-37142857D02*
X49002194Y-37028571D01*
X48316480Y-37542857D02*
X48259337Y-37428571D01*
X48259337Y-37428571D02*
X48259337Y-37142857D01*
X48259337Y-37142857D02*
X48316480Y-37028571D01*
X48316480Y-37028571D02*
X48430765Y-36971428D01*
X48430765Y-36971428D02*
X48545051Y-36971428D01*
X48545051Y-36971428D02*
X48659337Y-37028571D01*
X48659337Y-37028571D02*
X48716480Y-37142857D01*
X48716480Y-37142857D02*
X48716480Y-37428571D01*
X48716480Y-37428571D02*
X48773622Y-37542857D01*
X48259337Y-38114285D02*
X49459337Y-38114285D01*
X49002194Y-38114285D02*
X49059337Y-38228571D01*
X49059337Y-38228571D02*
X49059337Y-38457142D01*
X49059337Y-38457142D02*
X49002194Y-38571428D01*
X49002194Y-38571428D02*
X48945051Y-38628571D01*
X48945051Y-38628571D02*
X48830765Y-38685713D01*
X48830765Y-38685713D02*
X48487908Y-38685713D01*
X48487908Y-38685713D02*
X48373622Y-38628571D01*
X48373622Y-38628571D02*
X48316480Y-38571428D01*
X48316480Y-38571428D02*
X48259337Y-38457142D01*
X48259337Y-38457142D02*
X48259337Y-38228571D01*
X48259337Y-38228571D02*
X48316480Y-38114285D01*
X48259337Y-39199999D02*
X49059337Y-39199999D01*
X48830765Y-39199999D02*
X48945051Y-39257142D01*
X48945051Y-39257142D02*
X49002194Y-39314285D01*
X49002194Y-39314285D02*
X49059337Y-39428570D01*
X49059337Y-39428570D02*
X49059337Y-39542856D01*
X49059337Y-39942856D02*
X48259337Y-39942856D01*
X48945051Y-39942856D02*
X49002194Y-39999999D01*
X49002194Y-39999999D02*
X49059337Y-40114284D01*
X49059337Y-40114284D02*
X49059337Y-40285713D01*
X49059337Y-40285713D02*
X49002194Y-40399999D01*
X49002194Y-40399999D02*
X48887908Y-40457142D01*
X48887908Y-40457142D02*
X48259337Y-40457142D01*
X48259337Y-41199998D02*
X48316480Y-41085713D01*
X48316480Y-41085713D02*
X48373622Y-41028570D01*
X48373622Y-41028570D02*
X48487908Y-40971427D01*
X48487908Y-40971427D02*
X48830765Y-40971427D01*
X48830765Y-40971427D02*
X48945051Y-41028570D01*
X48945051Y-41028570D02*
X49002194Y-41085713D01*
X49002194Y-41085713D02*
X49059337Y-41199998D01*
X49059337Y-41199998D02*
X49059337Y-41371427D01*
X49059337Y-41371427D02*
X49002194Y-41485713D01*
X49002194Y-41485713D02*
X48945051Y-41542856D01*
X48945051Y-41542856D02*
X48830765Y-41599998D01*
X48830765Y-41599998D02*
X48487908Y-41599998D01*
X48487908Y-41599998D02*
X48373622Y-41542856D01*
X48373622Y-41542856D02*
X48316480Y-41485713D01*
X48316480Y-41485713D02*
X48259337Y-41371427D01*
X48259337Y-41371427D02*
X48259337Y-41199998D01*
X48373622Y-42114284D02*
X48316480Y-42171427D01*
X48316480Y-42171427D02*
X48259337Y-42114284D01*
X48259337Y-42114284D02*
X48316480Y-42057141D01*
X48316480Y-42057141D02*
X48373622Y-42114284D01*
X48373622Y-42114284D02*
X48259337Y-42114284D01*
X48316480Y-43199999D02*
X48259337Y-43085713D01*
X48259337Y-43085713D02*
X48259337Y-42857141D01*
X48259337Y-42857141D02*
X48316480Y-42742856D01*
X48316480Y-42742856D02*
X48373622Y-42685713D01*
X48373622Y-42685713D02*
X48487908Y-42628570D01*
X48487908Y-42628570D02*
X48830765Y-42628570D01*
X48830765Y-42628570D02*
X48945051Y-42685713D01*
X48945051Y-42685713D02*
X49002194Y-42742856D01*
X49002194Y-42742856D02*
X49059337Y-42857141D01*
X49059337Y-42857141D02*
X49059337Y-43085713D01*
X49059337Y-43085713D02*
X49002194Y-43199999D01*
X49059337Y-43599998D02*
X49059337Y-44228570D01*
X49059337Y-44228570D02*
X48259337Y-43599998D01*
X48259337Y-43599998D02*
X48259337Y-44228570D01*
D15*
X28321428Y-19341622D02*
X27750000Y-19341622D01*
X27750000Y-19341622D02*
X27692857Y-19913051D01*
X27692857Y-19913051D02*
X27750000Y-19855908D01*
X27750000Y-19855908D02*
X27864286Y-19798765D01*
X27864286Y-19798765D02*
X28150000Y-19798765D01*
X28150000Y-19798765D02*
X28264286Y-19855908D01*
X28264286Y-19855908D02*
X28321428Y-19913051D01*
X28321428Y-19913051D02*
X28378571Y-20027337D01*
X28378571Y-20027337D02*
X28378571Y-20313051D01*
X28378571Y-20313051D02*
X28321428Y-20427337D01*
X28321428Y-20427337D02*
X28264286Y-20484480D01*
X28264286Y-20484480D02*
X28150000Y-20541622D01*
X28150000Y-20541622D02*
X27864286Y-20541622D01*
X27864286Y-20541622D02*
X27750000Y-20484480D01*
X27750000Y-20484480D02*
X27692857Y-20427337D01*
X28721428Y-19341622D02*
X29121428Y-20541622D01*
X29121428Y-20541622D02*
X29521428Y-19341622D01*
X32614285Y-19398765D02*
X32500000Y-19341622D01*
X32500000Y-19341622D02*
X32328571Y-19341622D01*
X32328571Y-19341622D02*
X32157142Y-19398765D01*
X32157142Y-19398765D02*
X32042857Y-19513051D01*
X32042857Y-19513051D02*
X31985714Y-19627337D01*
X31985714Y-19627337D02*
X31928571Y-19855908D01*
X31928571Y-19855908D02*
X31928571Y-20027337D01*
X31928571Y-20027337D02*
X31985714Y-20255908D01*
X31985714Y-20255908D02*
X32042857Y-20370194D01*
X32042857Y-20370194D02*
X32157142Y-20484480D01*
X32157142Y-20484480D02*
X32328571Y-20541622D01*
X32328571Y-20541622D02*
X32442857Y-20541622D01*
X32442857Y-20541622D02*
X32614285Y-20484480D01*
X32614285Y-20484480D02*
X32671428Y-20427337D01*
X32671428Y-20427337D02*
X32671428Y-20027337D01*
X32671428Y-20027337D02*
X32442857Y-20027337D01*
X52385714Y-46601234D02*
X52500000Y-46658377D01*
X52500000Y-46658377D02*
X52671428Y-46658377D01*
X52671428Y-46658377D02*
X52842857Y-46601234D01*
X52842857Y-46601234D02*
X52957142Y-46486948D01*
X52957142Y-46486948D02*
X53014285Y-46372662D01*
X53014285Y-46372662D02*
X53071428Y-46144091D01*
X53071428Y-46144091D02*
X53071428Y-45972662D01*
X53071428Y-45972662D02*
X53014285Y-45744091D01*
X53014285Y-45744091D02*
X52957142Y-45629805D01*
X52957142Y-45629805D02*
X52842857Y-45515520D01*
X52842857Y-45515520D02*
X52671428Y-45458377D01*
X52671428Y-45458377D02*
X52557142Y-45458377D01*
X52557142Y-45458377D02*
X52385714Y-45515520D01*
X52385714Y-45515520D02*
X52328571Y-45572662D01*
X52328571Y-45572662D02*
X52328571Y-45972662D01*
X52328571Y-45972662D02*
X52557142Y-45972662D01*
X56678571Y-46658377D02*
X57249999Y-46658377D01*
X57249999Y-46658377D02*
X57307142Y-46086948D01*
X57307142Y-46086948D02*
X57249999Y-46144091D01*
X57249999Y-46144091D02*
X57135714Y-46201234D01*
X57135714Y-46201234D02*
X56849999Y-46201234D01*
X56849999Y-46201234D02*
X56735714Y-46144091D01*
X56735714Y-46144091D02*
X56678571Y-46086948D01*
X56678571Y-46086948D02*
X56621428Y-45972662D01*
X56621428Y-45972662D02*
X56621428Y-45686948D01*
X56621428Y-45686948D02*
X56678571Y-45572662D01*
X56678571Y-45572662D02*
X56735714Y-45515520D01*
X56735714Y-45515520D02*
X56849999Y-45458377D01*
X56849999Y-45458377D02*
X57135714Y-45458377D01*
X57135714Y-45458377D02*
X57249999Y-45515520D01*
X57249999Y-45515520D02*
X57307142Y-45572662D01*
X56278571Y-46658377D02*
X55878571Y-45458377D01*
X55878571Y-45458377D02*
X55478571Y-46658377D01*
D16*
X34510874Y-49842856D02*
X34510874Y-50699999D01*
X34510874Y-50699999D02*
X35368017Y-50785713D01*
X35368017Y-50785713D02*
X35282302Y-50699999D01*
X35282302Y-50699999D02*
X35196588Y-50528571D01*
X35196588Y-50528571D02*
X35196588Y-50099999D01*
X35196588Y-50099999D02*
X35282302Y-49928571D01*
X35282302Y-49928571D02*
X35368017Y-49842856D01*
X35368017Y-49842856D02*
X35539445Y-49757142D01*
X35539445Y-49757142D02*
X35968017Y-49757142D01*
X35968017Y-49757142D02*
X36139445Y-49842856D01*
X36139445Y-49842856D02*
X36225160Y-49928571D01*
X36225160Y-49928571D02*
X36310874Y-50099999D01*
X36310874Y-50099999D02*
X36310874Y-50528571D01*
X36310874Y-50528571D02*
X36225160Y-50699999D01*
X36225160Y-50699999D02*
X36139445Y-50785713D01*
X34510874Y-49242856D02*
X36310874Y-48642856D01*
X36310874Y-48642856D02*
X34510874Y-48042856D01*
X34596588Y-56871428D02*
X34510874Y-57042857D01*
X34510874Y-57042857D02*
X34510874Y-57299999D01*
X34510874Y-57299999D02*
X34596588Y-57557142D01*
X34596588Y-57557142D02*
X34768017Y-57728571D01*
X34768017Y-57728571D02*
X34939445Y-57814285D01*
X34939445Y-57814285D02*
X35282302Y-57899999D01*
X35282302Y-57899999D02*
X35539445Y-57899999D01*
X35539445Y-57899999D02*
X35882302Y-57814285D01*
X35882302Y-57814285D02*
X36053731Y-57728571D01*
X36053731Y-57728571D02*
X36225160Y-57557142D01*
X36225160Y-57557142D02*
X36310874Y-57299999D01*
X36310874Y-57299999D02*
X36310874Y-57128571D01*
X36310874Y-57128571D02*
X36225160Y-56871428D01*
X36225160Y-56871428D02*
X36139445Y-56785714D01*
X36139445Y-56785714D02*
X35539445Y-56785714D01*
X35539445Y-56785714D02*
X35539445Y-57128571D01*
X36310874Y-56014285D02*
X34510874Y-56014285D01*
X34510874Y-56014285D02*
X36310874Y-54985714D01*
X36310874Y-54985714D02*
X34510874Y-54985714D01*
X36310874Y-54128571D02*
X34510874Y-54128571D01*
X34510874Y-54128571D02*
X34510874Y-53700000D01*
X34510874Y-53700000D02*
X34596588Y-53442857D01*
X34596588Y-53442857D02*
X34768017Y-53271428D01*
X34768017Y-53271428D02*
X34939445Y-53185714D01*
X34939445Y-53185714D02*
X35282302Y-53100000D01*
X35282302Y-53100000D02*
X35539445Y-53100000D01*
X35539445Y-53100000D02*
X35882302Y-53185714D01*
X35882302Y-53185714D02*
X36053731Y-53271428D01*
X36053731Y-53271428D02*
X36225160Y-53442857D01*
X36225160Y-53442857D02*
X36310874Y-53700000D01*
X36310874Y-53700000D02*
X36310874Y-54128571D01*
X50403411Y-9128571D02*
X50489125Y-8957143D01*
X50489125Y-8957143D02*
X50489125Y-8700000D01*
X50489125Y-8700000D02*
X50403411Y-8442857D01*
X50403411Y-8442857D02*
X50231982Y-8271428D01*
X50231982Y-8271428D02*
X50060554Y-8185714D01*
X50060554Y-8185714D02*
X49717697Y-8100000D01*
X49717697Y-8100000D02*
X49460554Y-8100000D01*
X49460554Y-8100000D02*
X49117697Y-8185714D01*
X49117697Y-8185714D02*
X48946268Y-8271428D01*
X48946268Y-8271428D02*
X48774840Y-8442857D01*
X48774840Y-8442857D02*
X48689125Y-8700000D01*
X48689125Y-8700000D02*
X48689125Y-8871428D01*
X48689125Y-8871428D02*
X48774840Y-9128571D01*
X48774840Y-9128571D02*
X48860554Y-9214285D01*
X48860554Y-9214285D02*
X49460554Y-9214285D01*
X49460554Y-9214285D02*
X49460554Y-8871428D01*
X48689125Y-9985714D02*
X50489125Y-9985714D01*
X50489125Y-9985714D02*
X48689125Y-11014285D01*
X48689125Y-11014285D02*
X50489125Y-11014285D01*
X48689125Y-11871428D02*
X50489125Y-11871428D01*
X50489125Y-11871428D02*
X50489125Y-12299999D01*
X50489125Y-12299999D02*
X50403411Y-12557142D01*
X50403411Y-12557142D02*
X50231982Y-12728571D01*
X50231982Y-12728571D02*
X50060554Y-12814285D01*
X50060554Y-12814285D02*
X49717697Y-12899999D01*
X49717697Y-12899999D02*
X49460554Y-12899999D01*
X49460554Y-12899999D02*
X49117697Y-12814285D01*
X49117697Y-12814285D02*
X48946268Y-12728571D01*
X48946268Y-12728571D02*
X48774840Y-12557142D01*
X48774840Y-12557142D02*
X48689125Y-12299999D01*
X48689125Y-12299999D02*
X48689125Y-11871428D01*
X50489125Y-16157143D02*
X50489125Y-15300000D01*
X50489125Y-15300000D02*
X49631982Y-15214286D01*
X49631982Y-15214286D02*
X49717697Y-15300000D01*
X49717697Y-15300000D02*
X49803411Y-15471429D01*
X49803411Y-15471429D02*
X49803411Y-15900000D01*
X49803411Y-15900000D02*
X49717697Y-16071429D01*
X49717697Y-16071429D02*
X49631982Y-16157143D01*
X49631982Y-16157143D02*
X49460554Y-16242857D01*
X49460554Y-16242857D02*
X49031982Y-16242857D01*
X49031982Y-16242857D02*
X48860554Y-16157143D01*
X48860554Y-16157143D02*
X48774840Y-16071429D01*
X48774840Y-16071429D02*
X48689125Y-15900000D01*
X48689125Y-15900000D02*
X48689125Y-15471429D01*
X48689125Y-15471429D02*
X48774840Y-15300000D01*
X48774840Y-15300000D02*
X48860554Y-15214286D01*
X50489125Y-16757143D02*
X48689125Y-17357143D01*
X48689125Y-17357143D02*
X50489125Y-17957143D01*
G04 #@! TO.C,C12*
D17*
X32765000Y-31888748D02*
X32765000Y-32411252D01*
X34235000Y-31888748D02*
X34235000Y-32411252D01*
G04 #@! TO.C,J5*
X68140000Y-15167500D02*
X68140000Y-7227500D01*
X68140000Y-18867500D02*
X68140000Y-20847500D01*
X78500000Y-21727500D02*
X79500000Y-21727500D01*
X79000000Y-21227500D02*
X78500000Y-21727500D01*
X79500000Y-21727500D02*
X79000000Y-21227500D01*
X82860000Y-15167500D02*
X82860000Y-7227500D01*
X82860000Y-20847500D02*
X68140000Y-20847500D01*
X82860000Y-20847500D02*
X82860000Y-18867500D01*
G04 #@! TO.C,Y1*
X20440000Y-43590000D02*
X20440000Y-47010000D01*
X20440000Y-47010000D02*
X24560000Y-47010000D01*
G04 #@! TO.C,U1*
X27590000Y-23590000D02*
X28850000Y-23590000D01*
X27590000Y-27350000D02*
X27590000Y-23590000D01*
X34410000Y-23590000D02*
X33150000Y-23590000D01*
X34410000Y-27350000D02*
X34410000Y-23590000D01*
X27690000Y-28630000D02*
X27360000Y-28870000D01*
X27360000Y-28390000D01*
X27690000Y-28630000D01*
G36*
X27690000Y-28630000D02*
G01*
X27360000Y-28870000D01*
X27360000Y-28390000D01*
X27690000Y-28630000D01*
G37*
G04 #@! TO.C,J2*
X17920000Y-53650000D02*
X17920000Y-55570000D01*
X17920000Y-58750000D02*
X17920000Y-57580000D01*
X27080000Y-55570000D02*
X27080000Y-53650000D01*
X27080000Y-57580000D02*
X27080000Y-58750000D01*
G04 #@! TO.C,J7*
X51520000Y-7640000D02*
X52900000Y-7640000D01*
X51520000Y-9020000D02*
X51520000Y-7640000D01*
X51520000Y-10290000D02*
X51520000Y-20560000D01*
X51520000Y-10290000D02*
X54280000Y-10290000D01*
X51520000Y-20560000D02*
X54280000Y-20560000D01*
X54280000Y-10290000D02*
X54280000Y-20560000D01*
G04 #@! TO.C,R3*
X55853641Y-9920000D02*
X55546359Y-9920000D01*
X55853641Y-10680000D02*
X55546359Y-10680000D01*
G04 #@! TO.C,C11*
X67595543Y-35734990D02*
X67965010Y-36104457D01*
X68634990Y-34695543D02*
X69004457Y-35065010D01*
G04 #@! TO.C,R6*
X28546359Y-41620000D02*
X28853641Y-41620000D01*
X28546359Y-42380000D02*
X28853641Y-42380000D01*
G04 #@! TO.C,Y1*
X64560000Y-18990000D02*
X60440000Y-18990000D01*
X64560000Y-22410000D02*
X64560000Y-18990000D01*
G04 #@! TO.C,C7*
X14721693Y-37330810D02*
X14569190Y-37178307D01*
X15230810Y-36821693D02*
X15078307Y-36669190D01*
G04 #@! TO.C,C13*
X30615000Y-31888748D02*
X30615000Y-32411252D01*
X32085000Y-31888748D02*
X32085000Y-32411252D01*
G04 #@! TO.C,C8*
X28592164Y-33540000D02*
X28807836Y-33540000D01*
X28592164Y-34260000D02*
X28807836Y-34260000D01*
G04 #@! TO.C,C16*
X59240000Y-17492164D02*
X59240000Y-17707836D01*
X59960000Y-17492164D02*
X59960000Y-17707836D01*
G04 #@! TO.C,C4*
X24338748Y-26365000D02*
X24861252Y-26365000D01*
X24338748Y-27835000D02*
X24861252Y-27835000D01*
G04 #@! TO.C,U3*
X65140000Y-39818000D02*
X69260000Y-39818000D01*
X65140000Y-39913000D02*
X65140000Y-39818000D01*
X65140000Y-44938000D02*
X65140000Y-44843000D01*
X69260000Y-39818000D02*
X69260000Y-39913000D01*
X69260000Y-44843000D02*
X69260000Y-44938000D01*
X69260000Y-44938000D02*
X65140000Y-44938000D01*
X69800000Y-44848000D02*
X70040000Y-45178000D01*
X69560000Y-45178000D01*
X69800000Y-44848000D01*
G36*
X70040000Y-45178000D02*
G01*
X69560000Y-45178000D01*
X69800000Y-44848000D01*
X70040000Y-45178000D01*
G37*
G04 #@! TO.C,C10*
X66569190Y-36578307D02*
X66721693Y-36730810D01*
X67078307Y-36069190D02*
X67230810Y-36221693D01*
G04 #@! TO.C,C17*
X25940000Y-22192164D02*
X25940000Y-22407836D01*
X26660000Y-22192164D02*
X26660000Y-22407836D01*
G04 #@! TO.C,R2*
X29146359Y-56520000D02*
X29453641Y-56520000D01*
X29146359Y-57280000D02*
X29453641Y-57280000D01*
G04 #@! TO.C,C7*
X69769190Y-29178307D02*
X69921693Y-29330810D01*
X70278307Y-28669190D02*
X70430810Y-28821693D01*
G04 #@! TO.C,R3*
X29146359Y-55320000D02*
X29453641Y-55320000D01*
X29146359Y-56080000D02*
X29453641Y-56080000D01*
G04 #@! TO.C,C3*
X60607836Y-22740000D02*
X60392164Y-22740000D01*
X60607836Y-23460000D02*
X60392164Y-23460000D01*
G04 #@! TO.C,C19*
X24940000Y-45192164D02*
X24940000Y-45407836D01*
X25660000Y-45192164D02*
X25660000Y-45407836D01*
G04 #@! TO.C,C15*
X57265000Y-17638748D02*
X57265000Y-18161252D01*
X58735000Y-17638748D02*
X58735000Y-18161252D01*
G04 #@! TO.C,C4*
X60661252Y-38165000D02*
X60138748Y-38165000D01*
X60661252Y-39635000D02*
X60138748Y-39635000D01*
G04 #@! TO.C,J3*
X40377500Y-7795000D02*
X47947500Y-7795000D01*
X44927500Y-7795000D02*
X44927500Y-18195000D01*
X47947500Y-7795000D02*
X47947500Y-18195000D01*
X47947500Y-18195000D02*
X40377500Y-18195000D01*
G04 #@! TO.C,C11*
X16365010Y-31304457D02*
X15995543Y-30934990D01*
X17404457Y-30265010D02*
X17034990Y-29895543D01*
G04 #@! TO.C,SW1*
X79850000Y-51900000D02*
X80240000Y-51900000D01*
X79850000Y-56100000D02*
X79850000Y-51900000D01*
X80240000Y-56100000D02*
X79850000Y-56100000D01*
X82760000Y-56100000D02*
X83150000Y-56100000D01*
X83150000Y-51900000D02*
X82760000Y-51900000D01*
X83150000Y-56100000D02*
X83150000Y-51900000D01*
G04 #@! TO.C,J3*
X37052500Y-47805000D02*
X44622500Y-47805000D01*
X37052500Y-58205000D02*
X37052500Y-47805000D01*
X40072500Y-58205000D02*
X40072500Y-47805000D01*
X44622500Y-58205000D02*
X37052500Y-58205000D01*
G04 #@! TO.C,U3*
X15740000Y-21062000D02*
X19860000Y-21062000D01*
X15740000Y-21157000D02*
X15740000Y-21062000D01*
X15740000Y-26182000D02*
X15740000Y-26087000D01*
X19860000Y-21062000D02*
X19860000Y-21157000D01*
X19860000Y-26087000D02*
X19860000Y-26182000D01*
X19860000Y-26182000D02*
X15740000Y-26182000D01*
X15200000Y-21152000D02*
X14960000Y-20822000D01*
X15440000Y-20822000D01*
X15200000Y-21152000D01*
G36*
X15200000Y-21152000D02*
G01*
X14960000Y-20822000D01*
X15440000Y-20822000D01*
X15200000Y-21152000D01*
G37*
G04 #@! TO.C,C18*
X19340000Y-45407836D02*
X19340000Y-45192164D01*
X20060000Y-45407836D02*
X20060000Y-45192164D01*
G04 #@! TO.C,C16*
X25040000Y-48507836D02*
X25040000Y-48292164D01*
X25760000Y-48507836D02*
X25760000Y-48292164D01*
G04 #@! TO.C,L1*
X24338748Y-28390000D02*
X24861252Y-28390000D01*
X24338748Y-30610000D02*
X24861252Y-30610000D01*
G04 #@! TO.C,R1*
X56453641Y-32720000D02*
X56146359Y-32720000D01*
X56453641Y-33480000D02*
X56146359Y-33480000D01*
G04 #@! TO.C,C12*
X50765000Y-34111252D02*
X50765000Y-33588748D01*
X52235000Y-34111252D02*
X52235000Y-33588748D01*
G04 #@! TO.C,C1*
X28592164Y-35140000D02*
X28807836Y-35140000D01*
X28592164Y-35860000D02*
X28807836Y-35860000D01*
G04 #@! TO.C,C19*
X59340000Y-20807836D02*
X59340000Y-20592164D01*
X60060000Y-20807836D02*
X60060000Y-20592164D01*
G04 #@! TO.C,R6*
X56453641Y-23620000D02*
X56146359Y-23620000D01*
X56453641Y-24380000D02*
X56146359Y-24380000D01*
G04 #@! TO.C,C2*
X68269190Y-31278307D02*
X68421693Y-31430810D01*
X68778307Y-30769190D02*
X68930810Y-30921693D01*
G04 #@! TO.C,C17*
X58340000Y-43807836D02*
X58340000Y-43592164D01*
X59060000Y-43807836D02*
X59060000Y-43592164D01*
G04 #@! TO.C,U2*
X18890000Y-40110000D02*
X18890000Y-39660000D01*
X19340000Y-32890000D02*
X18890000Y-32890000D01*
X19340000Y-40110000D02*
X18890000Y-40110000D01*
X25660000Y-32890000D02*
X26110000Y-32890000D01*
X25660000Y-40110000D02*
X26110000Y-40110000D01*
X26110000Y-32890000D02*
X26110000Y-33340000D01*
X26110000Y-40110000D02*
X26110000Y-39660000D01*
G04 #@! TO.C,C6*
X56407836Y-25640000D02*
X56192164Y-25640000D01*
X56407836Y-26360000D02*
X56192164Y-26360000D01*
G04 #@! TO.C,J4*
X4580000Y-43880000D02*
X4580000Y-42500000D01*
X5960000Y-43880000D02*
X4580000Y-43880000D01*
X7230000Y-41120000D02*
X12420000Y-41120000D01*
X7230000Y-43880000D02*
X7230000Y-41120000D01*
X7230000Y-43880000D02*
X12420000Y-43880000D01*
X12420000Y-43880000D02*
X12420000Y-41120000D01*
G04 #@! TO.C,R5*
X56453641Y-24620000D02*
X56146359Y-24620000D01*
X56453641Y-25380000D02*
X56146359Y-25380000D01*
G04 #@! TO.C,J4*
X72580000Y-22120000D02*
X72580000Y-24880000D01*
X77770000Y-22120000D02*
X72580000Y-22120000D01*
X77770000Y-22120000D02*
X77770000Y-24880000D01*
X77770000Y-24880000D02*
X72580000Y-24880000D01*
X79040000Y-22120000D02*
X80420000Y-22120000D01*
X80420000Y-22120000D02*
X80420000Y-23500000D01*
G04 #@! TO.C,R4*
X22346359Y-42520000D02*
X22653641Y-42520000D01*
X22346359Y-43280000D02*
X22653641Y-43280000D01*
G04 #@! TO.C,C9*
X28592164Y-36140000D02*
X28807836Y-36140000D01*
X28592164Y-36860000D02*
X28807836Y-36860000D01*
G04 #@! TO.C,C10*
X17921693Y-29930810D02*
X17769190Y-29778307D01*
X18430810Y-29421693D02*
X18278307Y-29269190D01*
G04 #@! TO.C,C13*
X52915000Y-34111252D02*
X52915000Y-33588748D01*
X54385000Y-34111252D02*
X54385000Y-33588748D01*
G04 #@! TO.C,C6*
X28592164Y-39640000D02*
X28807836Y-39640000D01*
X28592164Y-40360000D02*
X28807836Y-40360000D01*
G04 #@! TO.C,D2*
X50840000Y-21615000D02*
X50840000Y-24300000D01*
X52760000Y-21615000D02*
X50840000Y-21615000D01*
X52760000Y-24300000D02*
X52760000Y-21615000D01*
G04 #@! TO.C,R4*
X62653641Y-22720000D02*
X62346359Y-22720000D01*
X62653641Y-23480000D02*
X62346359Y-23480000D01*
G04 #@! TO.C,J8*
D12*
X49650000Y-49700000D02*
X49650000Y-52100000D01*
X51350000Y-49700000D02*
X49650000Y-49700000D01*
X76650000Y-49700000D02*
X78350000Y-49700000D01*
X78350000Y-49700000D02*
X78350000Y-52100000D01*
G04 #@! TO.C,D2*
D17*
X32240000Y-41700000D02*
X32240000Y-44385000D01*
X32240000Y-44385000D02*
X34160000Y-44385000D01*
X34160000Y-44385000D02*
X34160000Y-41700000D01*
G04 #@! TO.C,R5*
X28546359Y-40620000D02*
X28853641Y-40620000D01*
X28546359Y-41380000D02*
X28853641Y-41380000D01*
G04 #@! TO.C,C9*
X56407836Y-29140000D02*
X56192164Y-29140000D01*
X56407836Y-29860000D02*
X56192164Y-29860000D01*
G04 #@! TO.C,U2*
X58890000Y-25890000D02*
X58890000Y-26340000D01*
X58890000Y-33110000D02*
X58890000Y-32660000D01*
X59340000Y-25890000D02*
X58890000Y-25890000D01*
X59340000Y-33110000D02*
X58890000Y-33110000D01*
X65660000Y-25890000D02*
X66110000Y-25890000D01*
X65660000Y-33110000D02*
X66110000Y-33110000D01*
X66110000Y-25890000D02*
X66110000Y-26340000D01*
G04 #@! TO.C,R1*
X28546359Y-32520000D02*
X28853641Y-32520000D01*
X28546359Y-33280000D02*
X28853641Y-33280000D01*
G04 #@! TO.C,C15*
X26265000Y-48361252D02*
X26265000Y-47838748D01*
X27735000Y-48361252D02*
X27735000Y-47838748D01*
G04 #@! TO.C,D1*
X30040000Y-41700000D02*
X30040000Y-44385000D01*
X30040000Y-44385000D02*
X31960000Y-44385000D01*
X31960000Y-44385000D02*
X31960000Y-41700000D01*
G04 #@! TO.C,J8*
D12*
X6650000Y-16300000D02*
X6650000Y-13900000D01*
X8350000Y-16300000D02*
X6650000Y-16300000D01*
X33650000Y-16300000D02*
X35350000Y-16300000D01*
X35350000Y-16300000D02*
X35350000Y-13900000D01*
G04 #@! TO.C,C2*
D17*
X16221693Y-35230810D02*
X16069190Y-35078307D01*
X16730810Y-34721693D02*
X16578307Y-34569190D01*
G04 #@! TO.C,C8*
X56407836Y-31740000D02*
X56192164Y-31740000D01*
X56407836Y-32460000D02*
X56192164Y-32460000D01*
G04 #@! TO.C,C3*
X24392164Y-42540000D02*
X24607836Y-42540000D01*
X24392164Y-43260000D02*
X24607836Y-43260000D01*
G04 #@! TO.C,R2*
X55853641Y-8720000D02*
X55546359Y-8720000D01*
X55853641Y-9480000D02*
X55546359Y-9480000D01*
G04 #@! TO.C,C5*
X18921693Y-42469190D02*
X18769190Y-42621693D01*
X19430810Y-42978307D02*
X19278307Y-43130810D01*
G04 #@! TO.C,D1*
X53040000Y-21615000D02*
X53040000Y-24300000D01*
X54960000Y-21615000D02*
X53040000Y-21615000D01*
X54960000Y-24300000D02*
X54960000Y-21615000D01*
G04 #@! TO.C,J2*
X57920000Y-8420000D02*
X57920000Y-7250000D01*
X57920000Y-10430000D02*
X57920000Y-12350000D01*
X67080000Y-7250000D02*
X67080000Y-8420000D01*
X67080000Y-12350000D02*
X67080000Y-10430000D01*
G04 #@! TO.C,J5*
X2140000Y-45152500D02*
X2140000Y-47132500D01*
X2140000Y-45152500D02*
X16860000Y-45152500D01*
X2140000Y-50832500D02*
X2140000Y-58772500D01*
X5500000Y-44272500D02*
X6000000Y-44772500D01*
X6000000Y-44772500D02*
X6500000Y-44272500D01*
X6500000Y-44272500D02*
X5500000Y-44272500D01*
X16860000Y-47132500D02*
X16860000Y-45152500D01*
X16860000Y-50832500D02*
X16860000Y-58772500D01*
G04 #@! TO.C,C1*
X56407836Y-30140000D02*
X56192164Y-30140000D01*
X56407836Y-30860000D02*
X56192164Y-30860000D01*
G04 #@! TO.C,J7*
X30720000Y-55710000D02*
X30720000Y-45440000D01*
X33480000Y-45440000D02*
X30720000Y-45440000D01*
X33480000Y-55710000D02*
X30720000Y-55710000D01*
X33480000Y-55710000D02*
X33480000Y-45440000D01*
X33480000Y-56980000D02*
X33480000Y-58360000D01*
X33480000Y-58360000D02*
X32100000Y-58360000D01*
G04 #@! TO.C,C5*
X65569190Y-23021693D02*
X65721693Y-22869190D01*
X66078307Y-23530810D02*
X66230810Y-23378307D01*
G04 #@! TO.C,U1*
X50590000Y-38650000D02*
X50590000Y-42410000D01*
X50590000Y-42410000D02*
X51850000Y-42410000D01*
X57410000Y-38650000D02*
X57410000Y-42410000D01*
X57410000Y-42410000D02*
X56150000Y-42410000D01*
X57310000Y-37370000D02*
X57640000Y-37130000D01*
X57640000Y-37610000D01*
X57310000Y-37370000D01*
G36*
X57640000Y-37610000D02*
G01*
X57310000Y-37370000D01*
X57640000Y-37130000D01*
X57640000Y-37610000D01*
G37*
G04 #@! TO.C,SW1*
X1850000Y-9900000D02*
X1850000Y-14100000D01*
X1850000Y-14100000D02*
X2240000Y-14100000D01*
X2240000Y-9900000D02*
X1850000Y-9900000D01*
X4760000Y-9900000D02*
X5150000Y-9900000D01*
X5150000Y-9900000D02*
X5150000Y-14100000D01*
X5150000Y-14100000D02*
X4760000Y-14100000D01*
G04 #@! TO.C,L1*
X60661252Y-35390000D02*
X60138748Y-35390000D01*
X60661252Y-37610000D02*
X60138748Y-37610000D01*
G04 #@! TO.C,C18*
X64940000Y-20592164D02*
X64940000Y-20807836D01*
X65660000Y-20592164D02*
X65660000Y-20807836D01*
G04 #@! TD*
M02*
