G04 #@! TF.GenerationSoftware,KiCad,Pcbnew,10.0.3*
G04 #@! TF.CreationDate,2026-06-05T21:52:36+02:00*
G04 #@! TF.ProjectId,rp-hub75-panel,72702d68-7562-4373-952d-70616e656c2e,rev?*
G04 #@! TF.SameCoordinates,Original*
G04 #@! TF.FileFunction,Soldermask,Bot*
G04 #@! TF.FilePolarity,Negative*
%FSLAX46Y46*%
G04 Gerber Fmt 4.6, Leading zero omitted, Abs format (unit mm)*
G04 Created by KiCad (PCBNEW 10.0.3) date 2026-06-05 21:52:36*
%MOMM*%
%LPD*%
G01*
G04 APERTURE LIST*
G04 Aperture macros list*
%AMRoundRect*
0 Rectangle with rounded corners*
0 $1 Rounding radius*
0 $2 $3 $4 $5 $6 $7 $8 $9 X,Y pos of 4 corners*
0 Add a 4 corners polygon primitive as box body*
4,1,4,$2,$3,$4,$5,$6,$7,$8,$9,$2,$3,0*
0 Add four circle primitives for the rounded corners*
1,1,$1+$1,$2,$3*
1,1,$1+$1,$4,$5*
1,1,$1+$1,$6,$7*
1,1,$1+$1,$8,$9*
0 Add four rect primitives between the rounded corners*
20,1,$1+$1,$2,$3,$4,$5,0*
20,1,$1+$1,$4,$5,$6,$7,0*
20,1,$1+$1,$6,$7,$8,$9,0*
20,1,$1+$1,$8,$9,$2,$3,0*%
G04 Aperture macros list end*
%ADD10R,1.524000X1.524000*%
%ADD11C,1.524000*%
%ADD12C,3.500000*%
%ADD13C,0.500000*%
%ADD14C,0.650000*%
%ADD15O,1.000000X2.100000*%
%ADD16O,1.000000X1.800000*%
%ADD17R,1.700000X1.700000*%
%ADD18C,1.700000*%
%ADD19C,3.200000*%
%ADD20RoundRect,0.250000X-1.050000X1.050000X-1.050000X-1.050000X1.050000X-1.050000X1.050000X1.050000X0*%
%ADD21C,2.600000*%
%ADD22RoundRect,0.250000X1.050000X-1.050000X1.050000X1.050000X-1.050000X1.050000X-1.050000X-1.050000X0*%
G04 APERTURE END LIST*
D10*
G04 #@! TO.C,J5*
X79000000Y-19727500D03*
D11*
X76500000Y-19727500D03*
X74500000Y-19727500D03*
X72000000Y-19727500D03*
D12*
X82175000Y-17017500D03*
X68825000Y-17017500D03*
G04 #@! TD*
D13*
G04 #@! TO.C,KiKit_MB_2_2*
X25666666Y-6750000D03*
G04 #@! TD*
G04 #@! TO.C,KiKit_MB_1_3*
X13333334Y-6750000D03*
G04 #@! TD*
D14*
G04 #@! TO.C,J2*
X19610000Y-52895000D03*
X25390000Y-52895000D03*
D15*
X18180000Y-52375000D03*
D16*
X18180000Y-56575000D03*
D15*
X26820000Y-52375000D03*
D16*
X26820000Y-56575000D03*
G04 #@! TD*
D13*
G04 #@! TO.C,KiKit_MB_4_4*
X25666666Y-59250000D03*
G04 #@! TD*
D17*
G04 #@! TO.C,J7*
X52900000Y-9020000D03*
D18*
X52900000Y-11560000D03*
X52900000Y-14100000D03*
X52900000Y-16640000D03*
X52900000Y-19180000D03*
G04 #@! TD*
D13*
G04 #@! TO.C,KiKit_MB_5_2*
X54000000Y-6750000D03*
G04 #@! TD*
D19*
G04 #@! TO.C,REF\u002A\u002A*
X41500000Y-43000000D03*
G04 #@! TD*
D13*
G04 #@! TO.C,KiKit_MB_7_4*
X54000000Y-59250000D03*
G04 #@! TD*
G04 #@! TO.C,KiKit_MB_2_3*
X26666666Y-6750000D03*
G04 #@! TD*
D20*
G04 #@! TO.C,J3*
X42627500Y-10455000D03*
D21*
X42627500Y-15535000D03*
G04 #@! TD*
D22*
G04 #@! TO.C,J3*
X42372500Y-55545000D03*
D21*
X42372500Y-50465000D03*
G04 #@! TD*
D13*
G04 #@! TO.C,KiKit_MB_6_3*
X70000000Y-6750000D03*
G04 #@! TD*
D17*
G04 #@! TO.C,J4*
X5960000Y-42500000D03*
D18*
X8500000Y-42500000D03*
X11040000Y-42500000D03*
G04 #@! TD*
D17*
G04 #@! TO.C,J4*
X79040000Y-23500000D03*
D18*
X76500000Y-23500000D03*
X73960000Y-23500000D03*
G04 #@! TD*
D13*
G04 #@! TO.C,KiKit_MB_7_2*
X56000000Y-59250000D03*
G04 #@! TD*
G04 #@! TO.C,KiKit_MB_1_4*
X14333334Y-6750000D03*
G04 #@! TD*
G04 #@! TO.C,KiKit_MB_8_3*
X70000000Y-59250000D03*
G04 #@! TD*
G04 #@! TO.C,KiKit_MB_3_4*
X12333334Y-59250000D03*
G04 #@! TD*
G04 #@! TO.C,KiKit_MB_8_2*
X71000000Y-59250000D03*
G04 #@! TD*
D19*
G04 #@! TO.C,REF\u002A\u002A*
X43500000Y-23000000D03*
G04 #@! TD*
D13*
G04 #@! TO.C,KiKit_MB_1_2*
X12333334Y-6750000D03*
G04 #@! TD*
G04 #@! TO.C,KiKit_MB_5_4*
X56000000Y-6750000D03*
G04 #@! TD*
G04 #@! TO.C,KiKit_MB_8_4*
X69000000Y-59250000D03*
G04 #@! TD*
G04 #@! TO.C,KiKit_MB_2_4*
X27666666Y-6750000D03*
G04 #@! TD*
G04 #@! TO.C,KiKit_MB_7_3*
X55000000Y-59250000D03*
G04 #@! TD*
G04 #@! TO.C,KiKit_MB_3_2*
X14333334Y-59250000D03*
G04 #@! TD*
D14*
G04 #@! TO.C,J2*
X65390000Y-13105000D03*
X59610000Y-13105000D03*
D15*
X66820000Y-13625000D03*
D16*
X66820000Y-9425000D03*
D15*
X58180000Y-13625000D03*
D16*
X58180000Y-9425000D03*
G04 #@! TD*
D13*
G04 #@! TO.C,KiKit_MB_6_2*
X69000000Y-6750000D03*
G04 #@! TD*
D10*
G04 #@! TO.C,J5*
X6000000Y-46272500D03*
D11*
X8500000Y-46272500D03*
X10500000Y-46272500D03*
X13000000Y-46272500D03*
D12*
X2825000Y-48982500D03*
X16175000Y-48982500D03*
G04 #@! TD*
D13*
G04 #@! TO.C,KiKit_MB_6_4*
X71000000Y-6750000D03*
G04 #@! TD*
G04 #@! TO.C,KiKit_MB_4_2*
X27666666Y-59250000D03*
G04 #@! TD*
D17*
G04 #@! TO.C,J7*
X32100000Y-56980000D03*
D18*
X32100000Y-54440000D03*
X32100000Y-51900000D03*
X32100000Y-49360000D03*
X32100000Y-46820000D03*
G04 #@! TD*
D13*
G04 #@! TO.C,KiKit_MB_5_3*
X55000000Y-6750000D03*
G04 #@! TD*
G04 #@! TO.C,KiKit_MB_3_3*
X13333334Y-59250000D03*
G04 #@! TD*
G04 #@! TO.C,KiKit_MB_4_3*
X26666666Y-59250000D03*
G04 #@! TD*
D17*
G04 #@! TO.C,J1*
X82190000Y-45875000D03*
D18*
X79650000Y-45875000D03*
X82190000Y-43335000D03*
X79650000Y-43335000D03*
X82190000Y-40795000D03*
X79650000Y-40795000D03*
X82190000Y-38255000D03*
X79650000Y-38255000D03*
X82190000Y-35715000D03*
X79650000Y-35715000D03*
X82190000Y-33175000D03*
X79650000Y-33175000D03*
X82190000Y-30635000D03*
X79650000Y-30635000D03*
X82190000Y-28095000D03*
X79650000Y-28095000D03*
G04 #@! TD*
D17*
G04 #@! TO.C,J1*
X2810000Y-20125000D03*
D18*
X5350000Y-20125000D03*
X2810000Y-22665000D03*
X5350000Y-22665000D03*
X2810000Y-25205000D03*
X5350000Y-25205000D03*
X2810000Y-27745000D03*
X5350000Y-27745000D03*
X2810000Y-30285000D03*
X5350000Y-30285000D03*
X2810000Y-32825000D03*
X5350000Y-32825000D03*
X2810000Y-35365000D03*
X5350000Y-35365000D03*
X2810000Y-37905000D03*
X5350000Y-37905000D03*
G04 #@! TD*
M02*
